<?xml version="1.0" encoding="UTF-8" standalone="no"?>
<!-- Created with Inkscape (http://www.inkscape.org/) -->

<svg
   width="34.947529mm"
   height="33.797745mm"
   viewBox="0 0 34.947529 33.797745"
   version="1.1"
   id="svg1"
   xml:space="preserve"
   xmlns="http://www.w3.org/2000/svg"
   xmlns:svg="http://www.w3.org/2000/svg"><defs
     id="defs1" /><g
     id="layer1"
     transform="translate(-138.84343,-162.20228)"><path
       style="fill:#0000ff;fill-opacity:1;stroke:none"
       d="m 155.93828,195.84119 c -0.0749,-0.0877 -0.37262,-0.61036 -0.66153,-1.16151 -0.28892,-0.55115 -0.57351,-1.05321 -0.63243,-1.11569 -0.0589,-0.0625 -0.47475,-0.21946 -0.92406,-0.34884 -0.44931,-0.12938 -1.18879,-0.41652 -1.64329,-0.63809 -0.45451,-0.22157 -1.03048,-0.55653 -1.27995,-0.74436 -0.24947,-0.18783 -0.64504,-0.5029 -0.87905,-0.70017 -0.23402,-0.19727 -0.63438,-0.61935 -0.88971,-0.93797 -0.25532,-0.31862 -0.62105,-0.87463 -0.81272,-1.23558 -0.19167,-0.36094 -0.3984,-0.81392 -0.4594,-1.00661 -0.0995,-0.31434 -0.13562,-0.34481 -0.35148,-0.29655 -0.13232,0.0296 -0.6043,0.0978 -1.04883,0.15166 -0.59628,0.0722 -1.02633,0.0697 -1.63979,-0.01 -0.45735,-0.0591 -1.15715,-0.22589 -1.5551,-0.37071 -0.39796,-0.14483 -1.00714,-0.43179 -1.35374,-0.63771 -0.3466,-0.20591 -0.86815,-0.61234 -1.15899,-0.90318 -0.29084,-0.29085 -0.66912,-0.74816 -0.84062,-1.01626 -0.1715,-0.26809 -0.41807,-0.75328 -0.54793,-1.07818 -0.12986,-0.32491 -0.28555,-0.87514 -0.34597,-1.22274 -0.0633,-0.36404 -0.0876,-0.94759 -0.0573,-1.37633 0.0289,-0.40938 0.13645,-0.98309 0.23901,-1.27491 0.10257,-0.29182 0.3202,-0.75266 0.48362,-1.02408 0.16343,-0.27143 0.52261,-0.71921 0.79819,-0.99506 0.27557,-0.27585 0.74701,-0.678 1.04764,-0.89367 0.30063,-0.21567 0.85406,-0.56654 1.22984,-0.77971 0.37579,-0.21317 1.08459,-0.5657 1.57511,-0.7834 0.49052,-0.2177 1.37191,-0.55353 1.95864,-0.74629 0.58672,-0.19275 1.35664,-0.42048 1.71091,-0.50606 0.64413,-0.15561 0.64413,-0.15561 0.65033,-1.12912 0.004,-0.56118 0.0696,-1.2436 0.15591,-1.6112 0.0823,-0.35074 0.31531,-0.9731 0.5177,-1.38304 0.20239,-0.40994 0.60221,-1.02422 0.88847,-1.36507 0.28627,-0.34085 0.7581,-0.81115 1.04852,-1.04512 0.29042,-0.23396 0.77407,-0.55652 1.07477,-0.7168 0.5,-0.26649 0.54191,-0.31202 0.49024,-0.53257 -0.0311,-0.13264 -0.17572,-0.48714 -0.32145,-0.78777 -0.14572,-0.30063 -0.44838,-0.79301 -0.67258,-1.09418 -0.2242,-0.30118 -0.66711,-0.75594 -0.98425,-1.01058 -0.31714,-0.25464 -0.79184,-0.57842 -1.05489,-0.71951 -0.31088,-0.16674 -0.47827,-0.31521 -0.47827,-0.42424 0,-0.0922 0.0422,-0.16772 0.0937,-0.16772 0.0515,0 0.32825,0.11968 0.61492,0.26594 0.28667,0.14627 0.7662,0.46497 1.06561,0.70823 0.29942,0.24326 0.74314,0.68726 0.98605,0.98668 0.24292,0.29941 0.62718,0.92359 0.85392,1.38706 0.22674,0.46347 0.43893,0.84214 0.47154,0.84149 0.0326,-6.4e-4 0.30914,-0.0795 0.61451,-0.17527 0.30537,-0.0958 0.96917,-0.22426 1.47511,-0.28558 0.70083,-0.0849 1.13402,-0.0871 1.81905,-0.009 0.49454,0.0562 1.17832,0.18847 1.51952,0.29385 0.3412,0.10539 0.64947,0.15767 0.68504,0.11619 0.0356,-0.0415 0.15273,-0.29416 0.26037,-0.56151 0.10764,-0.26734 0.38254,-0.76713 0.6109,-1.11063 0.22836,-0.3435 0.69499,-0.88316 1.03696,-1.19925 0.34197,-0.31609 0.89925,-0.72844 1.2384,-0.91633 0.33915,-0.1879 0.67273,-0.34163 0.74128,-0.34163 0.0686,0 0.12465,0.072 0.12465,0.15999 0,0.10281 -0.2483,0.3063 -0.69474,0.56937 -0.45711,0.26936 -0.93818,0.66651 -1.40647,1.16112 -0.50053,0.52867 -0.82152,0.97108 -1.0817,1.49092 -0.20349,0.40655 -0.36997,0.81401 -0.36997,0.90548 0,0.1092 0.17987,0.26265 0.52382,0.44687 0.2881,0.1543 0.81438,0.52113 1.1695,0.81517 0.35513,0.29405 0.85654,0.81587 1.11426,1.15961 0.25771,0.34374 0.58974,0.87095 0.73783,1.17158 0.14809,0.30062 0.35794,0.87018 0.46632,1.26568 0.14532,0.53029 0.19706,0.97676 0.19706,1.70053 0,0.98145 0,0.98145 0.65136,1.13881 0.35825,0.0865 1.1433,0.31923 1.74456,0.51708 0.60125,0.19786 1.66712,0.63526 2.36858,0.97201 0.70147,0.33675 1.58286,0.81212 1.95864,1.05637 0.37579,0.24426 1.01121,0.7748 1.41204,1.17899 0.51035,0.5146 0.81923,0.9201 1.03051,1.35283 0.16594,0.33987 0.36474,0.91357 0.44177,1.27489 0.0973,0.45623 0.12344,0.89352 0.0856,1.43128 -0.0299,0.42589 -0.13488,1.02904 -0.23322,1.34033 -0.0983,0.31129 -0.2674,0.74173 -0.37568,0.95654 -0.10828,0.21481 -0.37587,0.6432 -0.59464,0.95197 -0.21877,0.30877 -0.61348,0.74343 -0.87712,0.96592 -0.26365,0.22249 -0.74583,0.55143 -1.07151,0.73099 -0.32568,0.17956 -0.90481,0.4282 -1.28696,0.55254 -0.38214,0.12434 -1.07919,0.27196 -1.549,0.32806 -0.6086,0.0727 -1.09428,0.0748 -1.68926,0.007 -0.4593,-0.052 -0.89353,-0.11703 -0.96497,-0.14444 -0.0906,-0.0348 -0.17906,0.0825 -0.29223,0.38723 -0.0893,0.2404 -0.2859,0.66256 -0.43692,0.93813 -0.15102,0.27558 -0.49576,0.79459 -0.76609,1.15335 -0.27033,0.35877 -0.7052,0.83116 -0.96639,1.04977 -0.26118,0.2186 -0.61836,0.5018 -0.79372,0.62933 -0.17537,0.12753 -0.54432,0.35887 -0.8199,0.51408 -0.27558,0.15522 -0.76751,0.38612 -1.09319,0.51312 -0.32568,0.12699 -0.83813,0.30024 -1.13876,0.38499 -0.30062,0.0847 -0.6381,0.21397 -0.74995,0.28718 -0.11185,0.0732 -0.42382,0.59163 -0.69327,1.15206 -0.26945,0.56043 -0.56007,1.08912 -0.64582,1.17487 -0.0857,0.0857 -0.26961,0.15591 -0.40858,0.15591 -0.13897,0 -0.31398,-0.0717 -0.3889,-0.15943 z m 1.01248,-1.28518 c 0.31102,-0.62045 0.65723,-1.1776 0.81342,-1.30903 0.1547,-0.13017 0.5863,-0.31364 1.00114,-0.42557 0.40106,-0.10822 0.99946,-0.3193 1.32977,-0.46907 0.33031,-0.14977 0.88677,-0.45576 1.23658,-0.67998 0.3498,-0.22422 0.91565,-0.68467 1.25745,-1.02321 0.34179,-0.33855 0.7557,-0.81315 0.91981,-1.05467 0.1641,-0.24152 0.27866,-0.45883 0.25459,-0.4829 -0.0241,-0.0241 -0.36624,0.0365 -0.76036,0.13463 -0.39411,0.0981 -1.10602,0.24204 -1.58201,0.3198 -0.476,0.0778 -1.29589,0.18181 -1.82199,0.23123 -0.52611,0.0494 -1.55098,0.11623 -2.2775,0.14849 -0.72651,0.0323 -2.07934,0.0119 -3.00628,-0.0452 -0.92694,-0.0571 -2.21827,-0.18559 -2.86963,-0.28556 -0.65136,-0.1 -1.49028,-0.25996 -1.86426,-0.35555 -0.37398,-0.0956 -0.69696,-0.15679 -0.71774,-0.13601 -0.0208,0.0208 0.0929,0.24135 0.25253,0.49018 0.15967,0.24882 0.59741,0.74411 0.97275,1.10066 0.37535,0.35654 0.91173,0.79492 1.19196,0.97419 0.28024,0.17926 0.8009,0.45718 1.15703,0.6176 0.35614,0.16042 0.9912,0.38816 1.41126,0.50608 0.42195,0.11846 0.8832,0.31493 1.03068,0.43902 0.15042,0.12657 0.50328,0.69611 0.80842,1.30482 0.29782,0.59412 0.58186,1.08021 0.63119,1.08021 0.0493,0 0.33337,-0.48609 0.63119,-1.08021 z m 2.19289,-5.1174 c 0.57622,-0.0508 1.4576,-0.15313 1.95865,-0.22737 0.50105,-0.0742 1.38243,-0.24789 1.95864,-0.38589 1.04764,-0.25092 1.04764,-0.25092 1.24886,-0.66007 0.11067,-0.22504 0.20291,-0.47533 0.20497,-0.55621 0.002,-0.0919 -0.14984,-0.20571 -0.40583,-0.30347 -0.22528,-0.086 -0.72561,-0.36272 -1.11184,-0.61486 -0.38624,-0.25213 -0.95888,-0.70485 -1.27253,-1.00604 -0.57029,-0.54762 -0.57029,-0.54762 -1.55764,-0.39557 -0.54304,0.0836 -1.64111,0.18097 -2.44013,0.21632 -0.79903,0.0354 -2.1087,0.0367 -2.91037,0.003 -0.80168,-0.0337 -1.86045,-0.12654 -2.35284,-0.20626 -0.89524,-0.14495 -0.89524,-0.14495 -1.45759,0.36571 -0.30929,0.28087 -0.86243,0.7083 -1.22921,0.94985 -0.36677,0.24155 -0.88946,0.52953 -1.16152,0.63995 -0.27206,0.11042 -0.49465,0.25666 -0.49465,0.32499 0,0.0683 0.0682,0.29928 0.15146,0.51324 0.0833,0.21396 0.1616,0.4024 0.17399,0.41876 0.0124,0.0164 0.32343,0.10789 0.69121,0.20341 0.36777,0.0955 1.11962,0.2542 1.67077,0.35264 0.55115,0.0984 1.39155,0.22245 1.86754,0.27558 0.476,0.0531 1.02943,0.10988 1.22984,0.12612 0.20042,0.0162 1.22529,0.0361 2.27749,0.044 1.0522,0.008 2.38453,-0.027 2.96073,-0.0779 z m -12.04654,-2.13348 c 0.34551,-0.0727 0.85887,-0.21846 1.14081,-0.32394 0.28193,-0.10549 0.82901,-0.39834 1.21573,-0.65079 0.38671,-0.25245 1.05664,-0.81384 1.48872,-1.24753 0.44172,-0.44336 1.06429,-1.20725 1.42224,-1.74507 0.35015,-0.5261 0.84671,-1.3665 1.10347,-1.86754 0.25676,-0.50105 0.62953,-1.32095 0.82838,-1.82199 0.19885,-0.50105 0.5135,-1.38244 0.69922,-1.95864 0.18573,-0.5762 0.47413,-1.62157 0.6409,-2.32304 0.16677,-0.70146 0.33078,-1.44962 0.36446,-1.66256 0.0534,-0.33736 0.0397,-0.38717 -0.10631,-0.38717 -0.0922,0 -0.8849,0.0816 -1.76167,0.18134 -0.87676,0.0998 -2.21755,0.28578 -2.97952,0.41342 -0.76197,0.12764 -1.95237,0.37128 -2.64533,0.54144 -0.69295,0.17015 -1.69754,0.45578 -2.23241,0.63473 -0.53487,0.17895 -1.34308,0.4861 -1.79601,0.68255 -0.45293,0.19645 -1.1972,0.57102 -1.65393,0.83239 -0.45674,0.26137 -1.12279,0.71164 -1.48014,1.00061 -0.35734,0.28896 -0.80186,0.70923 -0.98783,0.93393 -0.18597,0.22469 -0.46023,0.64881 -0.60946,0.94249 -0.14924,0.29368 -0.31379,0.71821 -0.36567,0.94338 -0.0519,0.22518 -0.0953,0.75951 -0.0966,1.1874 -0.001,0.42789 0.0599,1.02231 0.13579,1.32094 0.0759,0.29863 0.27837,0.82993 0.4499,1.18066 0.17154,0.35073 0.50423,0.86317 0.73933,1.13874 0.23509,0.27558 0.63731,0.66096 0.89381,0.85641 0.25651,0.19545 0.76731,0.49562 1.13512,0.66705 0.36781,0.17143 1.00323,0.38727 1.41204,0.47963 0.40882,0.0924 1.11982,0.1714 1.58001,0.17562 0.4602,0.004 1.11941,-0.0518 1.46491,-0.12446 z m 21.28121,-0.004 c 0.34417,-0.0729 0.84517,-0.21467 1.11334,-0.315 0.26817,-0.10034 0.71679,-0.31179 0.99694,-0.4699 0.28014,-0.1581 0.73459,-0.49331 1.00987,-0.7449 0.27529,-0.2516 0.62839,-0.6433 0.78468,-0.87046 0.15629,-0.22715 0.40115,-0.65452 0.54414,-0.9497 0.14298,-0.29518 0.31965,-0.78976 0.39258,-1.09906 0.0729,-0.3093 0.13322,-0.87145 0.13396,-1.24924 7.4e-4,-0.37778 -0.0598,-0.92165 -0.13454,-1.2086 -0.0747,-0.28694 -0.23773,-0.72268 -0.3622,-0.9683 -0.12446,-0.24563 -0.42774,-0.68864 -0.67394,-0.98448 -0.2462,-0.29584 -0.72888,-0.74462 -1.07262,-0.99728 -0.34374,-0.25266 -0.95294,-0.64675 -1.35378,-0.87576 -0.40084,-0.22901 -1.07725,-0.56537 -1.50314,-0.74745 -0.42589,-0.18209 -1.18294,-0.47336 -1.68233,-0.64727 -0.49939,-0.17391 -1.46276,-0.4555 -2.14083,-0.62576 -0.67808,-0.17025 -1.78629,-0.41126 -2.4627,-0.53557 -0.67642,-0.12431 -1.90626,-0.3084 -2.73299,-0.40909 -0.82674,-0.10068 -1.75937,-0.20845 -2.07252,-0.23948 -0.46088,-0.0457 -0.56937,-0.0314 -0.56937,0.0747 0,0.0721 0.0828,0.53536 0.18402,1.0294 0.10122,0.49403 0.30401,1.3492 0.45065,1.90036 0.14664,0.55116 0.41565,1.43255 0.59779,1.95864 0.18214,0.52609 0.51647,1.38696 0.74295,1.91306 0.22648,0.5261 0.57833,1.26401 0.78191,1.63979 0.20356,0.37579 0.61775,1.0522 0.92042,1.50315 0.30267,0.45094 0.94158,1.21325 1.41979,1.69402 0.47822,0.48077 1.10271,1.02184 1.38776,1.20238 0.28504,0.18054 0.6911,0.41643 0.90236,0.5242 0.21125,0.10778 0.75693,0.29235 1.21262,0.41016 0.57917,0.14973 1.089,0.21507 1.69398,0.2171 0.47599,0.002 1.14703,-0.0568 1.4912,-0.12968 z m -8.66142,-2.35909 c 0.49065,-0.0684 0.91797,-0.1503 0.94959,-0.18193 0.0316,-0.0316 -0.0745,-0.23144 -0.23591,-0.44403 -0.16137,-0.2126 -0.52422,-0.73499 -0.80633,-1.16088 -0.28211,-0.42589 -0.78969,-1.34828 -1.12794,-2.04974 -0.33826,-0.70147 -0.82127,-1.89031 -1.07336,-2.64189 -0.25209,-0.75157 -0.58501,-1.87892 -0.73982,-2.50523 -0.1548,-0.62631 -0.3036,-1.20024 -0.33067,-1.27539 -0.0271,-0.0752 -0.22547,0.56026 -0.4409,1.41204 -0.21543,0.85178 -0.58196,2.08162 -0.81452,2.73298 -0.23256,0.65136 -0.74971,1.84021 -1.14923,2.64189 -0.40247,0.80762 -1.01417,1.85685 -1.37175,2.35294 -0.35495,0.49245 -0.62659,0.91413 -0.60366,0.93706 0.0229,0.0229 0.50825,0.10066 1.07847,0.17272 0.57022,0.0721 1.22124,0.14838 1.44671,0.1696 0.22547,0.0212 1.29134,0.0219 2.36859,0.001 1.07725,-0.0204 2.36008,-0.0931 2.85073,-0.16156 z m -8.8633,-11.3854 c 0.67642,-0.12319 1.74228,-0.28886 2.36859,-0.36815 0.62631,-0.0793 1.59413,-0.18331 2.15071,-0.23115 0.75668,-0.0651 1.35707,-0.054 2.38007,0.0438 0.75246,0.072 1.83439,0.19536 2.40427,0.27425 0.56989,0.0789 1.56501,0.24607 2.21139,0.3715 0.95657,0.18562 1.19071,0.20576 1.25839,0.10822 0.0457,-0.0659 0.0619,-0.51698 0.036,-1.00239 -0.0324,-0.60578 -0.12178,-1.10573 -0.2851,-1.59424 -0.13087,-0.39143 -0.37634,-0.95766 -0.5455,-1.25828 -0.16916,-0.30063 -0.46681,-0.73721 -0.66145,-0.97017 -0.19464,-0.23296 -0.59671,-0.63657 -0.89348,-0.89691 -0.31225,-0.27392 -0.92354,-0.66122 -1.45095,-0.9193 -0.58445,-0.28599 -1.22169,-0.51444 -1.77645,-0.63687 -0.71368,-0.15751 -1.07232,-0.18353 -2.04936,-0.14871 -0.67184,0.0239 -1.42081,0.10629 -1.73089,0.1903 -0.30063,0.0815 -0.96323,0.35281 -1.47245,0.60303 -0.71822,0.3529 -1.09065,0.60995 -1.66068,1.1462 -0.40416,0.3802 -0.91358,0.96452 -1.13206,1.2985 -0.21847,0.33397 -0.48606,0.8327 -0.59465,1.10827 -0.10859,0.27558 -0.25793,0.78801 -0.33187,1.13875 -0.0739,0.35073 -0.13515,0.92807 -0.13602,1.28298 -8.7e-4,0.35491 0.0292,0.67622 0.0667,0.71403 0.0376,0.0378 0.19131,0.0466 0.34162,0.0195 0.15032,-0.0271 0.82673,-0.15001 1.50314,-0.2732 z"
       id="path182" /></g></svg>
