<?xml version="1.0" encoding="UTF-8" standalone="no"?>
<!-- Created with Inkscape (http://www.inkscape.org/) -->

<svg
   width="210mm"
   height="297mm"
   viewBox="0 0 210 297"
   version="1.1"
   id="svg1"
   xml:space="preserve"
   inkscape:version="1.3.2 (091e20e, 2023-11-25)"
   sodipodi:docname="bookmark_templates.svg"
   xmlns:inkscape="http://www.inkscape.org/namespaces/inkscape"
   xmlns:sodipodi="http://sodipodi.sourceforge.net/DTD/sodipodi-0.dtd"
   xmlns="http://www.w3.org/2000/svg"
   xmlns:svg="http://www.w3.org/2000/svg"><sodipodi:namedview
     id="namedview1"
     pagecolor="#ffffff"
     bordercolor="#000000"
     borderopacity="0.25"
     inkscape:showpageshadow="2"
     inkscape:pageopacity="0.0"
     inkscape:pagecheckerboard="0"
     inkscape:deskcolor="#d1d1d1"
     inkscape:document-units="mm"
     inkscape:zoom="0.9306091"
     inkscape:cx="584.56338"
     inkscape:cy="352.45733"
     inkscape:window-width="1472"
     inkscape:window-height="799"
     inkscape:window-x="0"
     inkscape:window-y="38"
     inkscape:window-maximized="1"
     inkscape:current-layer="g17" /><defs
     id="defs1" /><g
     inkscape:label="Layer 1"
     inkscape:groupmode="layer"
     id="layer1"
     transform="translate(-0.46223071,-126.65121)"><g
       id="g17"
       transform="matrix(1.1683432,0,0,1.1683432,10.536067,-23.559271)"><path
         style="fill:none;stroke:#ff0000;stroke-width:0.3;stroke-dasharray:none;stroke-opacity:1"
         d="m 133.39794,239.07058 c -0.0662,-0.0945 -0.0733,-3.8507 -0.0733,-38.76693 v -38.66231 l 0.29746,-0.31315 c 0.1636,-0.17223 1.83793,-1.91765 3.72073,-3.87872 l 3.42328,-3.56557 h 4.86885 4.86884 l 0.13849,0.12944 c 0.0762,0.0712 1.74986,1.81019 3.7193,3.86443 l 3.58079,3.73498 v 38.70332 c 0,37.43537 -0.003,38.70587 -0.0861,38.78122 -0.0796,0.0721 -0.99639,0.0779 -12.23559,0.0779 h -12.14952 z"
         id="path9" /><rect
         style="fill:none;stroke:#00ff00;stroke-width:0.17118258;stroke-linejoin:bevel;stroke-dasharray:none;stroke-opacity:1"
         id="rect18"
         width="3.777211"
         height="2.4805565"
         x="143.7449"
         y="156.97356" /></g><g
       id="g16"
       transform="matrix(1.1680505,0,0,1.1680505,1.1422561,-24.908058)"><path
         style="fill:none;stroke:#ff0000;stroke-width:0.3;stroke-dasharray:none;stroke-opacity:1"
         d="m 104.12486,239.08911 c -0.0724,-0.0799 -0.0778,-2.78105 -0.0772,-37.92685 4e-4,-20.81243 0.0163,-37.86415 0.0353,-37.89273 0.0256,-0.0385 10.32963,-7.98812 11.94313,-9.21425 0.16288,-0.12377 0.27136,-0.17329 0.35303,-0.16115 0.10026,0.0149 11.77571,8.94848 12.15611,9.30136 l 0.12945,0.12007 v 37.8252 c 0,34.15858 -0.007,37.83535 -0.0733,37.92982 l -0.0733,0.10461 h -12.1577 c -11.7184,0 -12.16051,-0.003 -12.2356,-0.0861 z"
         id="path7" /><circle
         style="fill:none;stroke:#00ff00;stroke-width:0.200045;stroke-linejoin:bevel;stroke-dasharray:none;stroke-opacity:1"
         id="circle18"
         cx="116.2489"
         cy="160.87663"
         r="2.0004539" /></g><g
       id="g15"
       transform="matrix(1.1684004,0,0,1.1684004,-4.2071356,-24.264305)"><path
         style="fill:none;stroke:#ff0000;stroke-width:0.3;stroke-dasharray:none;stroke-opacity:1"
         d="m 76.897642,239.10697 c -0.980402,-0.23738 -1.788303,-1.04247 -2.071055,-2.06383 -0.07614,-0.27502 -0.08085,-2.63971 -0.08085,-40.51359 0,-38.26128 0.004,-40.23616 0.08291,-40.52164 0.27545,-0.99697 1.061544,-1.78084 2.035773,-2.03 0.36162,-0.0925 0.52632,-0.094 10.190184,-0.094 9.627849,0 9.829833,0.002 10.18619,0.093 0.942409,0.24103 1.675247,0.92468 1.994292,1.86044 l 0.128389,0.37656 v 40.2686 c 0,33.78256 -0.01031,40.31029 -0.06398,40.52748 -0.250533,1.01375 -1.094623,1.85991 -2.089316,2.09444 -0.254725,0.0601 -1.625223,0.069 -10.17911,0.0661 -7.858076,-0.003 -9.935739,-0.0156 -10.133426,-0.0635 z"
         id="path5" /><circle
         style="fill:none;stroke:#00ff00;stroke-width:0.199985;stroke-linejoin:bevel;stroke-dasharray:none;stroke-opacity:1"
         id="circle17"
         cx="87.054604"
         cy="158.77702"
         r="1.9998547" /></g><g
       id="g14"
       transform="matrix(1.1683425,0,0,1.1683425,-4.8400511,-23.791251)"><path
         style="fill:none;stroke:#ff0000;stroke-width:0.3;stroke-dasharray:none;stroke-opacity:1"
         d="m 45.517774,239.07058 c -0.06619,-0.0945 -0.07327,-4.20994 -0.07327,-42.55151 0,-42.38413 1.39e-4,-42.44703 0.09414,-42.54103 0.09365,-0.0936 0.156901,-0.0941 12.230971,-0.0941 11.698184,0 12.139645,0.003 12.21473,0.0861 0.07237,0.08 0.0779,3.10443 0.0779,42.57168 0,38.56051 -0.0068,42.49243 -0.07397,42.55956 -0.06686,0.0669 -1.24233,0.074 -12.235596,0.074 h -12.16163 z"
         id="path3" /><path
         style="fill:none;stroke:#00ff00;stroke-width:0.235692;stroke-dasharray:none;stroke-opacity:1"
         d="m 61.622373,160.86748 c 0.160996,-0.2457 0.292723,-0.7316 0.292723,-1.07976 0,-0.34816 -0.144062,-0.87597 -0.320134,-1.17291 l -0.320129,-0.53987 H 57.72596 54.177087 l -0.292717,0.44674 c -0.160996,0.24571 -0.292717,0.78367 -0.292717,1.19546 0,0.41179 0.113185,0.9396 0.25153,1.1729 l 0.251531,0.4242 h 3.61747 3.617471 z"
         id="path492" /></g><g
       id="g13"
       transform="matrix(1.1683155,0,0,1.1683155,-2.6970596,-25.875462)"><path
         style="fill:none;stroke:#ff0000;stroke-width:0.3;stroke-dasharray:none;stroke-opacity:1"
         d="m 16.244407,239.08878 c -0.07277,-0.0804 -0.07733,-2.64311 -0.0657,-36.8913 l 0.0125,-36.8049 0.10743,-0.65282 c 0.229699,-1.3958 0.608836,-2.59325 1.209123,-3.81886 0.659636,-1.34677 1.406268,-2.3966 2.446303,-3.43969 1.411227,-1.41538 2.996793,-2.39939 4.850136,-3.01003 1.477354,-0.48676 3.226045,-0.68759 4.730561,-0.54331 3.215348,0.30836 6.112245,1.85035 8.22141,4.37617 0.683755,0.81882 1.173318,1.57513 1.66345,2.56979 0.566994,1.15065 0.868195,2.02325 1.109705,3.2149 0.271865,1.34143 0.254173,-1.32569 0.254721,38.39968 4.87e-4,35.33119 -0.0023,36.53354 -0.08557,36.60888 -0.07963,0.0721 -0.996076,0.0779 -12.230971,0.0779 -11.722812,0 -12.147608,-0.003 -12.223088,-0.0864 z"
         id="path1" /><circle
         style="fill:none;stroke:#00ff00;stroke-width:0.2;stroke-linejoin:bevel;stroke-dasharray:none;stroke-opacity:1"
         id="path13"
         cx="28.478975"
         cy="160.36624"
         r="2" /></g></g></svg>
