<?xml version="1.0" encoding="UTF-8" standalone="no"?>
<!-- Created with Inkscape (http://www.inkscape.org/) -->

<svg
   width="53.550503mm"
   height="34.918182mm"
   viewBox="0 0 53.550503 34.918182"
   version="1.1"
   id="svg1"
   xml:space="preserve"
   xmlns="http://www.w3.org/2000/svg"
   xmlns:svg="http://www.w3.org/2000/svg"><defs
     id="defs1" /><g
     id="layer1"
     transform="translate(-110.42028,-57.332705)"><path
       style="fill:#000000;stroke-width:1.16588"
       d="m 126.3325,92.190561 c -0.13187,-0.04605 -0.34791,-0.169286 -0.48007,-0.273958 -0.31393,-0.248635 -0.5238,-0.284194 -1.1251,-0.190656 -0.76483,0.118978 -1.06168,-0.01317 -1.47748,-0.657939 -0.27544,-0.427095 -0.33693,-0.4674 -0.82974,-0.543893 -0.53697,-0.08336 -0.93382,-0.281302 -1.23729,-0.617203 -0.25636,-0.283763 -0.47797,-0.737079 -0.47797,-0.977716 0,-0.136909 -0.0262,-0.15168 -0.27007,-0.15168 -0.63949,0 -1.23548,-0.529238 -1.32659,-1.178002 -0.0738,-0.525752 -0.15793,-0.701438 -0.41268,-0.86227 -0.4333,-0.273527 -0.69443,-0.546936 -0.89307,-0.93508 -0.18387,-0.359288 -0.19782,-0.435945 -0.23516,-1.291875 -0.0357,-0.816583 -0.0567,-0.94293 -0.20533,-1.231687 -0.38462,-0.747302 -0.36731,-1.078542 0.11554,-2.208747 0.23941,-0.560496 0.29456,-0.766607 0.33865,-1.265864 0.0289,-0.327996 0.10691,-0.733285 0.17318,-0.900643 0.27493,-0.694169 1.04457,-1.482088 2.33907,-2.394615 l 0.53341,-0.37601 -1.28645,-0.0393 c -1.35146,-0.04128 -1.65798,-0.09568 -2.26164,-0.401354 -0.32706,-0.165614 -0.74755,-0.596453 -0.92873,-0.95159 -0.18671,-0.365993 -0.51999,-1.356279 -0.98191,-2.917611 -1.20234,-4.064066 -1.74019,-5.318216 -3.19634,-7.453287 -0.82074,-1.20342 -1.14053,-1.893405 -1.58174,-3.412866 -0.19669,-0.677399 -0.21904,-0.827307 -0.19857,-1.331625 0.0188,-0.463576 0.055,-0.633725 0.19679,-0.92338 0.40695,-0.831787 1.42039,-1.363602 2.59851,-1.363602 0.628,0 1.12638,0.09778 2.40609,0.47204 1.45096,0.42435 2.32895,0.770693 4.04167,1.594329 4.5027,2.165321 8.50548,5.07763 12.55104,9.131786 1.47315,1.476275 1.92646,2.027585 2.65591,3.230009 0.25294,0.416975 0.47122,0.758137 0.48506,0.758137 0.0906,0 0.27871,-0.542804 0.27871,-0.803929 0,-0.526524 0.17606,-0.886012 0.57982,-1.183891 0.41588,-0.306831 1.15342,-0.370966 1.66493,-0.14478 0.60227,0.266316 0.88921,0.704128 0.89153,1.360285 0.001,0.281345 0.0381,0.450859 0.13441,0.614082 l 0.13302,0.225462 0.47498,-0.786388 c 0.65818,-1.089746 1.03443,-1.573258 2.08042,-2.673495 2.12531,-2.235525 5.0373,-4.725337 7.62698,-6.521211 2.4626,-1.707746 5.67842,-3.421157 8.14605,-4.340251 0.66423,-0.247402 2.25556,-0.716214 2.84291,-0.837534 1.27796,-0.26397 2.43812,4.64e-4 3.16392,0.721142 0.45881,0.455574 0.58833,0.792252 0.59149,1.537456 0.002,0.593786 -0.0153,0.681529 -0.33109,1.631586 -0.43504,1.308786 -0.76417,1.967966 -1.62434,3.253213 -1.18876,1.776256 -1.8225,3.201933 -2.68229,6.034277 -0.93971,3.095545 -1.06052,3.46996 -1.25943,3.903079 -0.24723,0.538359 -0.68014,1.023016 -1.08528,1.215013 -0.57034,0.270278 -0.88145,0.321488 -2.20828,0.363483 l -1.28644,0.04071 0.59616,0.416941 c 1.20476,0.842594 1.96504,1.613513 2.27568,2.307541 0.0755,0.168889 0.14344,0.511981 0.17374,0.878546 0.0514,0.621375 0.10644,0.817851 0.4241,1.511367 0.23189,0.506379 0.35611,1.048487 0.30388,1.32621 -0.0218,0.116179 -0.12803,0.394799 -0.23597,0.619142 -0.18218,0.378646 -0.19937,0.473146 -0.23966,1.317819 -0.0595,1.247199 -0.24658,1.636392 -1.0397,2.162832 -0.35443,0.235262 -0.39385,0.309645 -0.49986,0.943462 -0.10295,0.615583 -0.62208,1.096099 -1.25375,1.160548 -0.30159,0.03078 -0.3127,0.03906 -0.36028,0.26912 -0.15985,0.772941 -0.82204,1.345992 -1.72131,1.489663 -0.46158,0.07368 -0.58103,0.148999 -0.78816,0.496594 -0.39387,0.660993 -0.69397,0.803545 -1.4621,0.694512 -0.61988,-0.08802 -0.86393,-0.04932 -1.16166,0.183941 -0.12079,0.09467 -0.28864,0.208855 -0.37299,0.253764 -0.25019,0.133213 -0.8027,0.09339 -1.28997,-0.09304 -0.7244,-0.277163 -1.03528,-0.344411 -1.56576,-0.338675 -0.82692,0.0093 -1.40791,-0.302883 -1.97663,-1.060878 -0.64077,-0.853993 -1.99593,-3.384842 -3.29938,-6.161787 -0.43546,-0.927742 -0.70551,-1.570605 -1.06764,-2.54151 l -0.11703,-0.313766 -0.0792,0.77869 c -0.17488,1.720564 -0.70439,3.130179 -1.28946,3.432724 -0.41848,0.21641 -0.84761,-0.08709 -1.19186,-0.843036 -0.32324,-0.709786 -0.67592,-2.315946 -0.67693,-3.08285 -4.7e-4,-0.349608 -0.0681,-0.277683 -0.23704,0.251964 -0.38395,1.203988 -2.11875,4.813939 -3.36052,6.992904 -0.65426,1.148038 -0.93365,1.555058 -1.32262,1.926786 -0.50243,0.480166 -0.83538,0.608167 -1.64703,0.633175 -0.60944,0.01877 -0.7411,0.04489 -1.25023,0.248355 -0.64657,0.258324 -1.08015,0.318098 -1.42782,0.196835 z m 4.15736,-3.292435 c 0.26093,-0.05596 0.36583,-0.123688 0.60695,-0.391863 0.32411,-0.360501 0.86637,-1.426916 1.42697,-2.806358 0.18997,-0.467423 0.64328,-1.519018 1.00738,-2.336877 0.70951,-1.593781 1.14193,-2.724527 1.36412,-3.567222 0.15103,-0.572782 0.19765,-1.572519 0.0824,-1.766713 -0.0547,-0.0921 -0.50672,0.749729 -2.57288,4.791433 -1.37862,2.696744 -2.60303,5.101458 -2.72091,5.34382 -0.24233,0.498156 -0.22511,0.596253 0.12622,0.719439 0.27151,0.09525 0.29994,0.09583 0.67977,0.01434 z m 14.15739,-0.02332 c 0.1707,-0.07135 0.21762,-0.126777 0.21762,-0.257192 0,-0.140104 -5.18077,-10.417975 -5.3422,-10.598146 -0.0824,-0.09203 -0.11228,-0.02292 -0.16906,0.392611 -0.12644,0.924574 0.04,1.442791 1.75719,5.470147 1.66108,3.895817 1.86468,4.319811 2.28292,4.754053 0.31027,0.322132 0.32532,0.329454 0.67662,0.329454 0.19762,0 0.45722,-0.04092 0.57691,-0.09094 z m -15.73284,-1.132754 c 0.29059,-0.552229 1.08623,-2.020662 1.76808,-3.263176 2.21114,-4.029248 2.52781,-4.637499 3.28697,-6.313727 0.43811,-0.967347 0.51804,-1.224805 0.42414,-1.366208 -0.0808,-0.121655 -0.13856,-0.07564 -1.49178,1.1879 -2.68399,2.506112 -4.51332,4.866951 -5.54277,7.15322 -0.42274,0.938857 -0.82568,2.084319 -0.86011,2.445099 -0.0279,0.291994 -0.0105,0.378455 0.1146,0.561393 0.0811,0.118931 0.23302,0.266193 0.33754,0.327238 0.27853,0.162663 0.83562,0.300202 1.1557,0.285302 l 0.27935,-0.01294 z m 17.9809,0.937108 c 0.73652,-0.187811 1.09724,-0.58253 1.02357,-1.120011 -0.0195,-0.14233 -0.1806,-0.65317 -0.35797,-1.135213 -0.94413,-2.565756 -2.30373,-4.610791 -4.71154,-7.08688 -1.05916,-1.089181 -2.64321,-2.56356 -2.79033,-2.597127 -0.0632,-0.01442 -0.089,0.04106 -0.089,0.191619 0,0.385884 1.34188,3.162248 2.88953,5.978494 0.45521,0.828345 1.06476,1.937638 1.35455,2.465094 0.28978,0.527466 0.79799,1.47347 1.12933,2.102239 0.33134,0.628769 0.63091,1.178514 0.66574,1.221664 0.0857,0.106211 0.42111,0.09863 0.88604,-0.01982 z m -21.5681,-1.062614 c 0.10901,-0.207095 0.40125,-0.955425 0.64937,-1.662972 0.52375,-1.493545 0.82106,-2.091883 1.36444,-2.745924 0.21571,-0.259646 0.39221,-0.49725 0.39221,-0.52801 0,-0.22051 -0.93783,0.03082 -1.50996,0.404644 -0.4121,0.269265 -0.85616,0.781839 -1.06915,1.234087 -0.0722,0.153323 -0.33065,0.591027 -0.57434,0.972671 -0.84195,1.318629 -1.07969,2.021303 -0.80246,2.371824 0.16745,0.211735 0.61631,0.360046 1.03787,0.342931 l 0.31377,-0.01271 z m 24.85686,0.31235 c 0.76267,-0.226484 0.77111,-0.808303 0.0294,-2.020861 -0.20638,-0.337346 -0.58129,-0.966354 -0.83314,-1.397783 -0.59823,-1.024811 -0.99163,-1.420667 -1.67303,-1.683441 -0.58513,-0.225651 -0.97692,-0.277834 -1.00663,-0.134074 -0.0105,0.05306 0.13487,0.275219 0.32407,0.493701 0.46945,0.542089 0.74826,1.105179 1.48368,2.996499 0.346,0.889844 0.67462,1.668195 0.73027,1.729695 0.12695,0.140278 0.50592,0.146795 0.94545,0.01632 z m -27.09438,-1.550733 c 0.31811,-0.34145 1.75688,-2.86522 1.75688,-3.081769 0,-0.229312 -0.26986,-0.417728 -0.59829,-0.417728 -0.20546,0 -0.34848,0.05464 -0.61594,0.235325 -0.40275,0.272077 -1.82057,1.641291 -1.99392,1.925562 -0.28815,0.472539 -0.0546,0.935963 0.64921,1.287603 0.4558,0.227766 0.62723,0.238667 0.80206,0.05107 z m 28.74521,0.0773 c 0.28576,-0.0794 0.79188,-0.437927 0.94412,-0.668829 0.16841,-0.255431 0.14837,-0.525682 -0.0604,-0.813823 -0.0983,-0.135634 -0.60575,-0.646796 -1.12777,-1.135916 -0.98422,-0.922206 -1.24887,-1.08621 -1.60753,-0.99619 -0.23137,0.05807 -0.41199,0.259305 -0.41199,0.459 0,0.09847 0.23347,0.58026 0.55498,1.145248 0.30524,0.536399 0.65865,1.164165 0.78536,1.395032 0.21971,0.40035 0.4781,0.678832 0.62917,0.678074 0.0385,-1.98e-4 0.1708,-0.02833 0.29402,-0.06261 z m 2.01099,-2.211485 c 0.29696,-0.219556 0.62025,-0.737756 0.62025,-0.994216 0,-0.570882 -0.88084,-1.343985 -2.28459,-2.005191 -0.70345,-0.331343 -1.59963,-0.624975 -1.90744,-0.624975 -0.33067,0 -0.26729,0.253268 0.25908,1.035429 0.27559,0.409528 2.21314,2.380084 2.59501,2.63923 0.26438,0.179417 0.42194,0.16838 0.71769,-0.05027 z m -32.28451,-0.242763 c 1.55423,-1.386689 2.78316,-2.812418 2.78316,-3.22886 0,-0.130908 -0.0295,-0.152771 -0.20649,-0.152771 -0.55817,0 -2.16895,0.677706 -3.09186,1.300848 -1.07794,0.727827 -1.31896,1.225228 -0.90009,1.857601 0.25557,0.385858 0.54067,0.605184 0.78775,0.606053 0.15372,5.41e-4 0.29311,-0.0845 0.62753,-0.382871 z m 4.54455,-1.850379 c 0.48207,-0.141904 1.66117,-0.711308 2.12448,-1.025939 0.46152,-0.313411 1.60454,-1.254352 2.70323,-2.225297 1.29896,-1.14794 2.76115,-2.50251 2.76115,-2.557936 0,-0.176445 -2.61468,0.05006 -3.7652,0.32617 -2.195,0.526774 -3.68813,1.839316 -4.71805,4.147398 -0.51601,1.156425 -0.47745,1.435938 0.19814,1.435938 0.19547,0 0.50879,-0.04515 0.69625,-0.100334 z m 23.34613,-0.03137 c 0.11181,-0.111796 0.12511,-0.175812 0.0881,-0.423585 -0.12146,-0.812792 -1.07561,-2.431411 -1.94687,-3.302676 -1.26111,-1.26111 -2.30446,-1.657207 -5.52901,-2.099025 -1.12682,-0.154393 -1.15706,-0.155352 -1.3126,-0.04162 -0.11929,0.08723 -0.11923,0.09041 0.004,0.228022 0.0685,0.07676 0.37883,0.342766 0.68945,0.591132 0.31063,0.248364 0.9134,0.781487 1.33949,1.184717 1.46281,1.384331 3.0506,2.691822 3.80628,3.13434 0.20708,0.121267 0.62309,0.322552 0.92445,0.4473 1.04285,0.431688 1.69237,0.526046 1.93702,0.281395 z m -27.91584,-1.31958 c 0.16388,-0.0636 0.46678,-0.200845 0.67311,-0.304998 0.20631,-0.104147 0.86277,-0.361684 1.45878,-0.572291 0.596,-0.210607 1.18596,-0.435125 1.31103,-0.498925 0.34309,-0.175036 0.89438,-0.707171 1.06414,-1.02719 0.14105,-0.265863 0.144,-0.29104 0.0457,-0.389358 -0.0983,-0.09832 -0.17941,-0.0805 -1.25421,0.27552 -0.63201,0.209349 -1.62918,0.499213 -2.21591,0.644143 -0.58676,0.144929 -1.17388,0.317996 -1.30473,0.384592 -0.33615,0.171081 -0.69965,0.56705 -0.78643,0.856663 -0.23171,0.77339 0.10318,0.983189 1.00855,0.631844 z m 32.30238,0.07071 c 0.29204,-0.292042 0.0117,-1.052245 -0.52535,-1.421992 -0.32247,-0.222225 -0.5158,-0.285734 -2.17305,-0.713862 -0.56948,-0.14712 -1.3657,-0.376236 -1.76938,-0.509145 -0.78454,-0.258312 -1.03836,-0.294008 -1.09224,-0.153608 -0.0591,0.154187 0.20695,0.572242 0.58308,0.916005 0.41643,0.380594 0.77073,0.55235 2.14533,1.039994 0.53922,0.191287 1.23454,0.464867 1.54517,0.607955 0.31063,0.143088 0.67774,0.279126 0.81579,0.302305 0.13806,0.02318 0.2722,0.04568 0.29808,0.05 0.0259,0.0043 0.10353,-0.04863 0.17257,-0.117653 z m -29.85612,-3.195984 c 1.75995,-0.313935 2.51526,-0.475669 3.1232,-0.668767 0.50908,-0.161692 0.9041,-0.373139 0.85263,-0.456406 -0.0527,-0.0853 -2.27372,-0.132552 -3.00824,-0.06401 -1.06545,0.09944 -2.15493,0.430489 -2.54115,0.772164 -0.18266,0.161595 -0.3235,0.425407 -0.3235,0.605982 0,0.161569 -0.15425,0.176934 1.89706,-0.18897 z m 28.31696,0.249341 c 0.0584,-0.09453 -0.12208,-0.456878 -0.32003,-0.642437 -0.36847,-0.345433 -1.16185,-0.617343 -2.15537,-0.738699 -0.67736,-0.08274 -3.36969,-0.08636 -3.42022,-0.0047 -0.12604,0.203944 1.49401,0.678101 3.65696,1.070316 0.95609,0.17337 1.76658,0.326534 1.80109,0.340363 0.12394,0.04967 0.40123,0.03386 0.43757,-0.02494 z m -25.00549,-4.047688 c 1.47708,-0.10283 2.55856,-0.22341 3.98484,-0.444272 1.23333,-0.190986 1.31926,-0.210138 1.24845,-0.278264 -0.13758,-0.132365 -4.98383,-2.340683 -5.26466,-2.398984 -0.26818,-0.05567 -0.73783,-0.0094 -3.2318,0.317919 -1.60492,0.21068 -3.29709,0.426678 -3.76038,0.479996 -0.99191,0.114151 -1.31034,0.233503 -1.53705,0.576074 -0.36015,0.544223 -0.24897,1.189984 0.24127,1.401308 0.24945,0.107528 2.53627,0.353563 3.67559,0.395449 1.40982,0.05183 3.51233,0.02954 4.64374,-0.04922 z m 26.29364,-0.06386 c 1.41858,-0.103099 1.77053,-0.157463 1.94621,-0.300654 0.4923,-0.401241 0.42332,-1.289943 -0.12847,-1.655096 -0.19776,-0.130865 -0.3956,-0.173293 -1.29233,-0.277137 -0.58234,-0.06743 -2.24959,-0.291892 -3.70499,-0.498786 -1.45539,-0.206895 -2.75438,-0.374448 -2.88665,-0.372339 -0.39512,0.0063 -0.78288,0.163617 -3.31528,1.34503 -1.72392,0.804245 -2.38829,1.142074 -2.3085,1.173866 0.34294,0.13666 3.27791,0.515852 5.00679,0.646871 1.43782,0.108963 4.75601,0.0783 6.68322,-0.06176 z m -20.22447,-1.645231 c -1.15993,-1.645366 -2.97504,-3.388329 -5.41026,-5.195218 -1.6502,-1.224418 -2.08697,-1.481439 -2.88422,-1.697246 -0.8579,-0.232223 -1.60612,0.149305 -1.60126,0.816502 0.007,0.918737 1.4919,2.006162 6.95599,5.092968 1.0922,0.617005 3.16704,1.56488 3.26259,1.490486 0.0124,-0.0097 -0.13289,-0.238027 -0.32284,-0.507492 z m 8.29819,0.159121 c 0.77127,-0.328234 1.36773,-0.6309 2.29364,-1.163875 0.41417,-0.238403 1.52961,-0.879274 2.47876,-1.424155 3.52156,-2.021644 4.47962,-2.796372 4.47962,-3.62238 0,-0.609324 -0.34655,-0.90367 -1.05957,-0.899945 -0.8284,0.0043 -1.38073,0.271486 -2.98078,1.441782 -2.57395,1.882625 -4.00775,3.191049 -5.37269,4.902929 -0.30662,0.384565 -0.61091,0.791035 -0.67619,0.903267 l -0.11871,0.204059 0.18146,-0.04465 c 0.0998,-0.02457 0.44831,-0.158222 0.77446,-0.297029 z m -21.36436,-1.811738 c 0.58675,-0.0348 1.94223,-0.18903 3.01216,-0.342721 1.06995,-0.153691 2.13698,-0.298379 2.37121,-0.321528 0.23421,-0.02315 0.41777,-0.06392 0.40789,-0.09061 -0.0381,-0.103029 -1.60273,-1.154854 -1.9922,-1.339272 -0.40148,-0.190104 -0.43388,-0.194795 -1.49472,-0.216401 -1.38551,-0.02822 -3.2317,0.08125 -3.63348,0.215454 -1.06407,0.35541 -1.15265,1.60576 -0.14284,2.016452 0.18833,0.0766 0.35654,0.139861 0.3738,0.140587 0.0173,7.26e-4 0.51145,-0.02715 1.09818,-0.06197 z m 35.15159,-0.02902 c 0.39506,-0.117318 0.75367,-0.452302 0.81092,-0.757479 0.1335,-0.711569 -0.26758,-1.195265 -1.13915,-1.373833 -0.30929,-0.06337 -1.01339,-0.09384 -2.44264,-0.105733 -1.94612,-0.01619 -2.01745,-0.0125 -2.31029,0.119781 -0.31368,0.141687 -2.05107,1.323722 -2.05107,1.395449 0,0.106374 5.2873,0.796761 6.1855,0.807663 0.39864,0.0048 0.74805,-0.02685 0.94673,-0.08584 z m 0.46092,-3.236548 c 0.44336,-0.09516 0.76831,-0.260987 0.94149,-0.48045 0.16731,-0.212027 0.14551,-0.628889 -0.0464,-0.887467 -0.53227,-0.717163 -2.54758,-0.946414 -3.69638,-0.420479 -0.39643,0.181496 -1.00654,0.765178 -1.3547,1.296043 -0.36188,0.551792 -0.39656,0.52261 0.67317,0.566392 1.29431,0.05298 3.06659,0.0153 3.4828,-0.07404 z m -32.99293,0.03066 c 0.0653,-0.06532 -0.352,-0.665668 -0.78543,-1.129893 -0.51618,-0.552854 -0.84947,-0.756715 -1.44387,-0.883169 -0.56644,-0.120505 -1.8252,-0.0842 -2.22932,0.06431 -0.58924,0.216525 -1.02878,0.673509 -1.02878,1.069601 0,0.442244 0.36983,0.724293 1.1125,0.848459 0.35222,0.05889 4.31888,0.08672 4.3749,0.0307 z"
       id="path6" /></g></svg>
