<?xml version="1.0" encoding="UTF-8" standalone="no"?>
<!-- Created with Inkscape (http://www.inkscape.org/) -->

<svg
   width="50.58437mm"
   height="38.28804mm"
   viewBox="0 0 50.58437 38.28804"
   version="1.1"
   id="svg1"
   xml:space="preserve"
   xmlns="http://www.w3.org/2000/svg"
   xmlns:svg="http://www.w3.org/2000/svg"><defs
     id="defs1" /><g
     id="layer1"
     transform="translate(-118.15549,-7.6336282)"><path
       style="fill:#000000;stroke-width:0.408418"
       d="m 134.02528,45.875998 c -0.85472,-0.122965 -1.76998,-0.467095 -3.04489,-1.144855 -0.72086,-0.383214 -1.26009,-0.790272 -2.06854,-1.561492 -0.75296,-0.718305 -2.25679,-2.474881 -2.73634,-3.196267 -1.04872,-1.57756 -1.61699,-3.749152 -1.67226,-6.390327 -0.0349,-1.668137 0.12216,-2.654132 0.63621,-3.993751 0.24928,-0.649633 0.55284,-1.206262 0.92502,-1.696219 0.28227,-0.371597 0.34858,-0.490492 0.34858,-0.625105 0,-0.218639 -0.13732,-0.308675 -0.62759,-0.41147 -1.45952,-0.306036 -2.43115,-1.061218 -2.99229,-2.325713 -0.32801,-0.739152 -0.5248,-1.576275 -0.7476,-3.180267 -0.38849,-2.79684 -0.51539,-3.17049 -1.77519,-5.227121 -0.32787,-0.53525 -0.78087,-1.389834 -1.22026,-2.302005 -0.46185,-0.958803 -0.66411,-1.457791 -0.80634,-1.989214 -0.0815,-0.304734 -0.0883,-0.38065 -0.0883,-0.987821 0,-0.617609 0.005,-0.678825 0.0937,-1.0038811 0.22255,-0.821747 0.7102,-1.537435 1.24955,-1.833876 0.12625,-0.06939 0.37458,-0.166979 0.55185,-0.216874 0.30341,-0.0854 0.36797,-0.09083 1.10009,-0.09257 0.89728,-0.0023 0.95195,0.0076 2.04875,0.364688 1.80455,0.587496 3.1037,1.223981 5.911,2.8959071 4.19242,2.496869 6.59827,4.497457 8.93878,7.433042 0.91457,1.147107 1.98439,2.597061 2.43182,3.295942 0.64045,1.000336 1.01074,1.502353 1.50774,2.044032 0.30899,0.336773 0.41637,0.392975 0.46225,0.241966 0.013,-0.04284 0.0263,-0.288186 0.0296,-0.545217 0.005,-0.393439 0.018,-0.50016 0.0817,-0.675021 0.0416,-0.114238 0.0828,-0.247855 0.0913,-0.296921 0.0211,-0.120172 -0.13816,-0.534169 -0.49823,-1.295445 -0.16209,-0.342707 -0.30193,-0.679275 -0.31076,-0.747924 -0.0346,-0.269135 0.14335,-0.365022 0.30487,-0.164263 0.14459,0.17973 0.26678,0.468662 0.4822,1.140153 0.11246,0.350597 0.20979,0.643417 0.21628,0.650706 0.006,0.0076 0.065,-0.03553 0.1299,-0.09519 0.18117,-0.166378 0.37713,-0.147129 0.58708,0.05767 0.0499,0.04862 0.0954,0.0818 0.10116,0.07365 0.006,-0.0081 0.0462,-0.139406 0.0897,-0.291724 0.21007,-0.734084 0.43503,-1.278547 0.60429,-1.462546 0.11882,-0.129181 0.158,-0.137405 0.23431,-0.04923 0.106,0.122517 0.0666,0.270672 -0.25454,0.955699 -0.17012,0.362945 -0.35061,0.771281 -0.40108,0.907393 l -0.0918,0.24749 0.10191,0.263992 c 0.10962,0.283978 0.15966,0.524331 0.20515,0.985515 0.0346,0.350855 0.0773,0.416134 0.22902,0.350391 0.11353,-0.04922 0.37448,-0.335943 0.45531,-0.500343 0.23279,-0.473508 1.01481,-1.630986 1.8257,-2.702269 0.96802,-1.27886 2.93972,-3.611009 3.87509,-4.583491 1.56588,-1.628004 2.86729,-2.779859 4.14862,-3.67186 0.68443,-0.476469 0.99607,-0.664066 2.04163,-1.229003 0.537,-0.290149 1.26677,-0.69863 1.62174,-0.907728 2.10941,-1.2425991 2.98676,-1.6728471 4.22429,-2.0715431 1.21024,-0.389909 1.54495,-0.484746 2.06407,-0.584826 1.51986,-0.293009 2.76958,0.08153 3.50877,1.051578 0.24282,0.318658 0.33738,0.50239 0.46607,0.905644 0.0935,0.292941 0.10553,0.3790291 0.12049,0.8620021 0.0183,0.590691 -0.0102,0.859332 -0.14165,1.335397 -0.27563,0.998266 -0.84705,2.170511 -1.82957,3.753261 -1.01057,1.627927 -1.14909,1.891889 -1.39053,2.649734 -0.19655,0.616955 -0.40566,1.637993 -0.48531,2.369681 -0.0114,0.104713 -0.0419,0.322796 -0.0676,0.484632 -0.0258,0.161835 -0.0778,0.496752 -0.11564,0.744256 -0.32848,2.150776 -0.70431,3.154551 -1.46844,3.92183 -0.29859,0.299827 -0.5981,0.50185 -0.97965,0.660779 -0.30729,0.127994 -0.85159,0.291656 -1.22443,0.368157 -0.37851,0.07766 -0.55436,0.160535 -0.5816,0.274065 -0.039,0.162566 0.018,0.32288 0.20294,0.570012 0.57274,0.765614 0.94423,1.604213 1.18771,2.681195 0.4569,2.020994 0.3607,4.851698 -0.24447,7.193799 -0.32402,1.253989 -0.85526,2.373098 -1.62406,3.421259 -0.24841,0.338675 -1.45988,1.62865 -1.94412,2.07009 -1.09848,1.001394 -1.95503,1.58978 -3.06964,2.108611 -0.65808,0.306324 -1.074,0.458056 -1.60546,0.58567 -0.39244,0.09423 -0.45208,0.0992 -1.17466,0.09777 -0.73244,-0.0015 -0.77222,-0.0053 -1.05232,-0.0955 -0.83104,-0.268336 -1.29299,-0.654373 -2.06721,-1.72752 -0.60574,-0.839581 -0.84944,-1.279438 -1.2331,-2.225626 -0.0772,-0.190389 -0.18507,-0.44742 -0.23971,-0.571176 -0.23704,-0.536901 -0.30702,-0.700836 -0.48761,-1.142344 -0.41405,-1.012289 -0.7004,-1.804059 -0.92642,-2.561638 -0.0767,-0.25703 -0.24109,-0.794449 -0.36534,-1.194271 -0.31741,-1.021327 -0.43457,-1.427929 -0.62832,-2.180851 -0.30068,-1.168426 -0.43143,-1.515797 -0.53173,-1.412712 -0.0722,0.07418 -0.0955,0.39022 -0.13094,1.776182 -0.0192,0.752047 -0.0492,1.562078 -0.0667,1.800072 -0.0174,0.237987 -0.0542,0.783196 -0.0818,1.21158 -0.12282,1.904983 -0.29382,2.777446 -0.60895,3.107052 -0.0884,0.09251 -0.13293,0.112298 -0.25251,0.112298 -0.30523,0 -0.62965,-0.406814 -0.77298,-0.969271 -0.0663,-0.260249 -0.0909,-0.461001 -0.18658,-1.523131 -0.0283,-0.314146 -0.0803,-0.804834 -0.11552,-1.090418 -0.13967,-1.131838 -0.19449,-1.939296 -0.21742,-3.202049 -0.0217,-1.197071 -0.0386,-1.419278 -0.10757,-1.419278 -0.0516,0 -0.16907,0.342653 -0.36801,1.073116 -0.98919,3.632168 -1.30986,4.548121 -2.46624,7.044487 -0.17638,0.380787 -0.40882,0.907827 -0.5165,1.171195 -0.57632,1.409426 -0.96428,2.14208 -1.4828,2.800135 -0.80905,1.026759 -1.90126,1.448988 -3.24726,1.255342 z m 1.08402,-2.020963 c 0.22877,-0.12333 0.40508,-0.319152 0.68429,-0.759968 0.328,-0.51788 0.58387,-1.018915 0.93077,-1.822638 0.1397,-0.323664 0.69831,-1.507557 1.24136,-2.630866 1.55504,-3.216634 1.59894,-3.324961 2.13295,-5.262651 0.15256,-0.553556 0.26371,-0.912118 0.55775,-1.799152 0.19553,-0.589885 0.28813,-1.032861 0.22887,-1.094854 -0.0591,-0.06186 -0.15912,0.03553 -0.46348,0.451567 -0.41213,0.563316 -0.60683,0.797195 -1.29948,1.560875 -0.33685,0.371406 -0.83535,0.924398 -1.10778,1.228897 -0.27242,0.30449 -0.76724,0.841802 -1.09957,1.194027 -0.62705,0.664568 -0.82934,0.909379 -1.10693,1.339635 -0.31014,0.480713 -0.94102,1.761574 -1.13246,2.29919 -0.22569,0.633762 -0.49892,2.044047 -0.56594,2.92103 -0.0221,0.288764 0.0249,1.208765 0.0829,1.626984 0.0571,0.411334 0.23385,0.727168 0.46152,0.824942 0.0818,0.03515 0.3228,-0.0053 0.45518,-0.07702 z m 17.23373,-0.111012 c 0.0643,-0.05904 0.1604,-0.203141 0.21359,-0.32021 0.21184,-0.466311 0.25153,-1.08688 0.13389,-2.093386 -0.1699,-1.453546 -0.29087,-2.003739 -0.63748,-2.899377 -0.0816,-0.210978 -0.18578,-0.491365 -0.2314,-0.623103 -0.14305,-0.413061 -0.35165,-0.880612 -0.49963,-1.119869 -0.14431,-0.233331 -0.72958,-1.006286 -1.31235,-1.733188 -0.36175,-0.451217 -0.74984,-0.903939 -1.58761,-1.851991 -0.89948,-1.017896 -1.73312,-2.024075 -1.95364,-2.358033 -0.33184,-0.502519 -0.40935,-0.611903 -0.4869,-0.687111 -0.11302,-0.109612 -0.13421,-0.109544 -0.16063,4.18e-4 -0.0319,0.132871 0.037,0.449596 0.25164,1.15798 0.10675,0.352225 0.27681,0.968754 0.37791,1.370075 0.31278,1.241534 0.42531,1.55291 1.50028,4.151288 0.61793,1.493657 0.73589,1.756196 1.13919,2.535549 0.33712,0.651466 0.45811,0.913617 0.75495,1.635757 0.4095,0.996197 0.68429,1.493329 1.17914,2.133193 0.55931,0.723219 1.02561,0.971348 1.31905,0.701878 z m 3.72799,-1.735988 c 0.0694,-0.04809 0.15046,-0.157385 0.21175,-0.285592 0.0967,-0.202327 0.0993,-0.220678 0.0988,-0.709639 -3.9e-4,-0.538826 -0.0475,-0.792113 -0.27568,-1.488514 -0.26319,-0.803023 -0.76373,-1.930805 -1.06703,-2.404131 -0.21424,-0.334361 -0.73267,-0.904152 -1.09346,-1.201788 -0.38613,-0.318535 -1.04399,-0.721165 -1.17831,-0.721165 -0.0988,0 -0.10839,0.0094 -0.10839,0.10577 0,0.05942 0.0815,0.275709 0.18585,0.49329 0.37146,0.774522 0.6093,1.466503 1.04276,3.033823 0.39878,1.441935 0.62964,2.06061 0.95757,2.566103 0.15508,0.23906 0.46635,0.540584 0.64306,0.622913 0.19321,0.09002 0.44401,0.08526 0.58309,-0.01111 z m -27.43309,-3.235617 c 0.39408,-0.193129 0.69402,-0.559216 0.98442,-1.20159 0.63162,-1.397093 0.9763,-2.579091 1.01519,-3.481357 0.0175,-0.406837 -0.0128,-0.513528 -0.16142,-0.568209 -0.21557,-0.07929 -1.12483,0.543848 -1.76355,1.208621 -0.53464,0.556438 -0.80007,0.988284 -1.11704,1.817373 -0.20341,0.53207 -0.26539,0.793802 -0.26638,1.125043 -0.002,0.56512 0.21807,1.005814 0.5898,1.182684 0.16248,0.07731 0.46323,0.04276 0.71898,-0.08257 z m 30.62015,-0.04519 c 0.30336,-0.213496 0.48329,-0.690702 0.48329,-1.28182 0,-0.642123 -0.18553,-1.090197 -0.78364,-1.892642 -0.51289,-0.688107 -0.86761,-1.02752 -1.68829,-1.61545 -0.45252,-0.324173 -0.64428,-0.419824 -0.73729,-0.367761 -0.15982,0.08946 -0.16905,0.280289 -0.0536,1.109789 0.17426,1.252352 0.49034,2.240492 0.9545,2.983927 0.50425,0.807649 0.98602,1.184145 1.48454,1.160163 0.16663,-0.008 0.24775,-0.03097 0.3405,-0.09621 z m -4.61928,-4.617394 c 0.12829,-0.06939 0.23736,-0.283233 0.23736,-0.465375 0,-0.310304 -0.2453,-0.903415 -0.58624,-1.417468 -0.62094,-0.936244 -2.58015,-3.062909 -3.23006,-3.506144 -0.20445,-0.139437 -0.60435,-0.292104 -0.85033,-0.324622 -0.0819,-0.0108 -0.67765,-0.05828 -1.32386,-0.105459 -0.64621,-0.04717 -1.38569,-0.110814 -1.64329,-0.141415 -0.40217,-0.04778 -0.48169,-0.04885 -0.56264,-0.0077 -0.0819,0.04162 -0.0939,0.0668 -0.0917,0.190846 0.002,0.116795 0.0444,0.208231 0.23168,0.500777 0.69508,1.086111 1.55548,1.986771 2.81487,2.946563 1.37864,1.05068 2.09741,1.498678 3.058,1.905987 1.14077,0.483711 1.63618,0.591642 1.94616,0.423986 z m -21.34427,-0.121458 c 0.83742,-0.204001 1.16535,-0.348855 2.22698,-0.983758 0.99859,-0.597196 1.35021,-0.871224 2.29456,-1.78815 0.68675,-0.66682 2.37057,-2.465157 2.50164,-2.671783 0.22332,-0.352073 0.0402,-0.417466 -0.71937,-0.256909 -0.68184,0.144124 -1.28747,0.199992 -2.44542,0.225601 -1.07595,0.02381 -1.09524,0.02549 -1.29691,0.113987 -0.30228,0.13265 -0.52084,0.296959 -0.97564,0.73343 -0.69931,0.671141 -1.23219,1.306166 -2.03287,2.422506 -0.76699,1.069365 -0.80896,1.132035 -0.91847,1.371498 -0.21203,0.46361 -0.0972,0.833151 0.29179,0.93931 0.17779,0.04854 0.61883,0.0053 1.07371,-0.105732 z m 26.8441,-1.068005 c 0.41118,-0.20085 0.52204,-0.564069 0.3986,-1.306013 -0.16302,-0.979779 -0.45859,-1.623705 -1.06436,-2.318759 -0.49299,-0.565645 -0.94746,-0.939698 -1.32014,-1.086538 -0.36564,-0.144055 -1.18024,-0.140327 -2.9787,0.01362 -1.37256,0.11751 -1.63337,0.150583 -1.72025,0.21816 -0.1889,0.146916 -0.12199,0.301036 0.41287,0.950935 0.64536,0.784193 1.36993,1.489001 2.18444,2.124877 1.00104,0.7815 1.7897,1.176521 2.82977,1.417369 0.456,0.105603 1.02629,0.0994 1.25777,-0.01362 z m -32.21115,-0.008 c 0.70208,-0.09538 1.65584,-0.560624 2.81152,-1.371453 0.65722,-0.461114 1.09983,-0.841802 1.68497,-1.449247 0.75293,-0.781636 1.01864,-1.150774 0.9994,-1.388426 -0.0243,-0.301212 -0.26991,-0.345933 -1.62955,-0.29683 -1.13982,0.04116 -1.39965,0.03234 -2.08765,-0.07106 -0.65374,-0.09824 -1.00744,-0.09789 -1.21789,0.0015 -0.25755,0.121261 -0.45103,0.277025 -0.77996,0.627911 -0.73804,0.787335 -1.09903,1.40117 -1.29717,2.205799 -0.20596,0.836362 -0.0596,1.329584 0.47528,1.60177 0.29339,0.149297 0.63555,0.195426 1.04105,0.140334 z m 5.31273,-7.216511 c 0.36808,-0.02807 0.99689,-0.06741 1.39736,-0.08747 1.93867,-0.09705 3.82103,-0.272026 4.02125,-0.373809 0.19568,-0.09949 0.1742,-0.187841 -0.0888,-0.365281 -0.29377,-0.198173 -1.19778,-0.734374 -2.47618,-1.468686 -0.5643,-0.324136 -1.30897,-0.762624 -1.65483,-0.974407 -0.34586,-0.211792 -0.70904,-0.409759 -0.80708,-0.439941 -0.16085,-0.04953 -0.19796,-0.04976 -0.3806,-0.0023 -0.11131,0.02899 -0.32897,0.114893 -0.4837,0.190907 -0.35103,0.172449 -1.23101,0.521144 -1.82031,0.72131 -1.19379,0.405483 -1.89659,0.542698 -3.34276,0.652653 -0.77631,0.05904 -1.18146,0.14525 -1.46517,0.311818 -0.60325,0.354173 -0.53565,0.828214 0.1744,1.222961 0.79286,0.440794 1.63462,0.571359 4.03778,0.626314 1.80518,0.04124 2.18514,0.03941 2.88866,-0.01423 z m 24.17714,-0.08749 c 1.12187,-0.05927 2.30546,-0.236671 2.8108,-0.421301 0.41109,-0.150202 0.68732,-0.461114 0.66081,-0.743807 -0.0383,-0.408474 -0.39257,-0.607171 -1.71024,-0.959206 -0.75524,-0.201772 -1.3433,-0.321062 -1.90226,-0.385884 -1.36677,-0.158496 -2.26312,-0.402204 -3.17807,-0.864072 -0.52584,-0.265453 -0.63848,-0.304536 -0.87132,-0.302353 -0.22589,0.0023 -0.36322,0.07403 -1.08138,0.565873 -0.58933,0.40365 -0.81026,0.544251 -1.17494,0.747741 -1.34189,0.748784 -1.51034,0.849845 -2.03544,1.220999 -0.12741,0.09007 -0.37688,0.251971 -0.55436,0.359796 -0.17748,0.107816 -0.3227,0.211487 -0.3227,0.230371 0,0.06109 0.13592,0.08915 0.89361,0.184622 1.94173,0.24469 2.03375,0.252169 3.69028,0.299987 0.70992,0.02054 1.64076,0.04938 2.06854,0.06429 1.14972,0.03987 1.99022,0.04078 2.70667,0.003 z m -9.80617,-2.068439 c 2.11721,-1.107384 3.45471,-2.015173 5.45057,-3.69941 0.32181,-0.271562 0.9924,-0.812974 1.4902,-1.203134 0.97232,-0.76206 1.37842,-1.129723 1.89061,-1.711672 0.60952,-0.692543 0.97112,-1.281477 1.09832,-1.78885 0.0762,-0.303973 0.0745,-0.675364 -0.004,-0.815189 -0.2027,-0.362039 -0.61418,-0.362823 -1.3466,-0.0023 -0.44134,0.217087 -1.19534,0.681275 -1.87696,1.155514 -2.47011,1.718596 -4.70523,3.987847 -6.75171,6.85479 -0.67177,0.94109 -0.95466,1.451453 -0.87719,1.582552 0.0412,0.06977 0.21629,-4.19e-4 0.92656,-0.372037 z m -7.47551,0.252549 c 0.0506,-0.137839 -0.43886,-0.846025 -1.67102,-2.417925 -0.90707,-1.157173 -1.2984,-1.598255 -2.12583,-2.396089 -0.31545,-0.304156 -0.93897,-0.909965 -1.38561,-1.346239 -1.7922,-1.750588 -2.42692,-2.30059 -3.50947,-3.041111 -0.78954,-0.540089 -1.20553,-0.731232 -1.58863,-0.729938 -0.3342,0.0015 -0.58428,0.141491 -0.68275,0.383198 -0.33747,0.828382 1.31616,3.053369 3.82693,5.149205 0.98444,0.821747 1.83463,1.434753 3.02834,2.183514 0.41868,0.262607 0.95484,0.611591 1.19148,0.775519 1.13418,0.785676 1.85382,1.184837 2.61464,1.450244 0.14795,0.05158 0.28085,0.04702 0.30192,-0.01035 z M 128.2661,22.127482 c 1.14278,-0.135747 1.7135,-0.314876 2.9487,-0.925517 0.66169,-0.32711 0.76511,-0.496782 0.48278,-0.791975 -0.21901,-0.228964 -0.93885,-0.786506 -1.1291,-0.874503 -0.38695,-0.178992 -0.44104,-0.182553 -2.25236,-0.148651 -1.3906,0.02602 -1.71272,0.06847 -2.1895,0.288422 -0.55521,0.256141 -1.00668,0.717324 -1.10497,1.128757 -0.0671,0.280844 0.002,0.486237 0.24856,0.736937 0.2999,0.305176 0.75111,0.562548 1.11978,0.638738 0.29438,0.06087 1.11721,0.03789 1.87611,-0.05219 z m 32.89191,-0.190557 c 0.54149,-0.176855 0.75073,-0.611112 0.56792,-1.178659 -0.22905,-0.711176 -0.81713,-1.109872 -1.85485,-1.257534 -0.70869,-0.10084 -1.86638,-0.19907 -2.31409,-0.196354 -0.90446,0.0053 -1.26115,0.120401 -1.86996,0.602408 -0.18203,0.144116 -0.40126,0.317501 -0.48718,0.385291 -0.0859,0.06779 -0.18063,0.172616 -0.21045,0.23295 -0.0496,0.100414 -0.0498,0.119396 -0.002,0.224345 0.12866,0.282206 0.91828,0.675348 1.82488,0.908588 0.30747,0.0791 0.8983,0.177531 1.67138,0.27844 0.78763,0.10281 0.73823,0.100094 1.62173,0.08934 0.73578,-0.0089 0.83325,-0.0172 1.05259,-0.08881 z m -32.17498,-3.946162 c 0.11565,-0.04603 0.15808,-0.158777 0.11513,-0.30602 -0.0328,-0.112412 -0.65229,-0.987135 -1.03027,-1.454732 -0.34656,-0.428734 -0.99438,-0.860397 -1.48935,-0.992416 -0.28076,-0.07486 -0.66101,-0.05143 -0.85644,0.05288 -0.44806,0.239083 -0.65999,0.711869 -0.55423,1.236429 0.12633,0.62664 0.5832,1.057969 1.32793,1.25373 0.25131,0.06604 1.34711,0.228818 1.73757,0.25808 0.23118,0.01735 0.65342,-0.0097 0.74966,-0.04793 z m 30.65992,-0.137839 c 0.86621,-0.111088 1.54948,-0.457713 1.80327,-0.914796 0.16196,-0.291701 0.17431,-0.79196 0.0275,-1.115479 -0.21484,-0.473517 -0.8859,-0.740986 -1.46736,-0.584841 -0.43181,0.115958 -0.80648,0.38561 -1.38136,0.99415 -0.62694,0.663663 -0.95594,1.17799 -0.87395,1.366218 0.0191,0.04382 0.0786,0.103435 0.13226,0.132445 0.2363,0.127812 1.19637,0.194536 1.7596,0.122303 z M 123.6246,16.325373 c 0.16201,-0.05151 0.38947,-0.310068 0.47486,-0.53983 0.10299,-0.277101 0.10375,-0.65419 0.002,-0.89099 -0.18364,-0.426474 -0.60286,-0.659036 -0.94306,-0.523145 -0.31822,0.127112 -0.4619,0.434379 -0.46313,0.990468 -7.6e-4,0.304856 0.0115,0.392739 0.0753,0.54492 0.0853,0.203149 0.2841,0.411684 0.42319,0.443806 0.0505,0.01164 0.10674,0.02602 0.12495,0.03188 0.0388,0.01255 0.15534,-0.0092 0.30607,-0.05714 z m 40.20078,-0.180894 c 0.33751,-0.147494 0.52426,-0.547385 0.44913,-0.961724 -0.0685,-0.37747 -0.32091,-0.780701 -0.55221,-0.881982 -0.12767,-0.05592 -0.3345,-0.06041 -0.4612,-0.01 -0.15429,0.06132 -0.35295,0.256429 -0.47165,0.463131 -0.26259,0.457311 -0.12514,1.141873 0.27283,1.358747 0.22252,0.121268 0.52918,0.134057 0.7631,0.0318 z m -3.03576,-2.565199 c 0.35139,-0.109148 0.6318,-0.500594 0.66331,-0.925973 0.0383,-0.517256 -0.32969,-0.995413 -0.7661,-0.995413 -0.36494,0 -0.69738,0.306583 -0.82683,0.762539 -0.0668,0.235263 -0.0663,0.396308 0.002,0.617518 0.0688,0.222618 0.28251,0.450167 0.49892,0.531073 0.1967,0.07357 0.22288,0.07418 0.42867,0.01027 z m -34.29856,-0.06513 c 0.25444,-0.111187 0.45778,-0.527961 0.45812,-0.938945 4e-4,-0.51018 -0.24123,-0.859354 -0.65965,-0.95321 -0.45958,-0.103084 -0.76905,0.220701 -0.76976,0.805359 -7.6e-4,0.759252 0.48266,1.300338 0.97129,1.086796 z m 39.04761,-0.394063 c 0.40573,-0.208915 0.64451,-0.568703 0.74416,-1.121269 0.084,-0.465665 -0.008,-0.974324 -0.2427,-1.344139 -0.1054,-0.166005 -0.36345,-0.439469 -0.52302,-0.554286 -0.59227,-0.4261541 -1.26406,-0.1906631 -1.64624,0.57708 -0.41883,0.841392 -0.22673,2.007276 0.39337,2.387371 0.26295,0.161166 0.36834,0.186828 0.72486,0.176481 0.29797,-0.0087 0.35561,-0.0213 0.54957,-0.121238 z m -43.07909,-0.0219 c 0.50871,-0.243594 0.81701,-0.950776 0.71182,-1.632804 -0.1,-0.648362 -0.45903,-1.201027 -0.92779,-1.428157 -0.15098,-0.07319 -0.23199,-0.08817 -0.48442,-0.08973 -0.28259,-0.0015 -0.3184,0.0061 -0.52881,0.118659 -0.25713,0.137314 -0.39583,0.302284 -0.51512,0.612694 -0.067,0.174352 -0.0768,0.258202 -0.0759,0.650181 7.6e-4,0.406183 0.01,0.473151 0.0906,0.687522 0.22594,0.599052 0.6524,1.040507 1.12844,1.168136 0.15963,0.04284 0.40485,0.0076 0.6012,-0.08651 z"
       id="path4" /></g></svg>
