<?xml version="1.0" encoding="UTF-8" standalone="no"?>
<!-- Created with Inkscape (http://www.inkscape.org/) -->

<svg
   width="43.479706mm"
   height="140.00002mm"
   viewBox="0 0 43.479706 140.00002"
   version="1.1"
   id="svg1"
   xmlns="http://www.w3.org/2000/svg"
   xmlns:svg="http://www.w3.org/2000/svg">
  <defs
     id="defs1" />
  <g
     id="layer1"
     transform="translate(-9.3282482,-8.7838743)">
    <g
       id="g126"
       transform="matrix(1.5451078,0,0,1.5451078,-87.954361,-725.3944)">
      <path
         style="fill:none;stroke:#00ff00;stroke-width:0.3;stroke-dasharray:none;stroke-opacity:1"
         d="m 77.7148,481.70252 c 0.165389,-0.0861 0.422327,-0.28664 0.570975,-0.44575 l 0.27027,-0.2893 0.0081,-0.549 0.0081,-0.54901 -0.334076,-0.35526 c -0.183741,-0.19539 -0.487689,-0.42106 -0.67544,-0.50149 l -0.341364,-0.14623 -0.404901,0.0913 c -0.534452,0.12054 -1.041764,0.53353 -1.195221,0.973 l -0.123846,0.35466 0.119155,0.44251 0.119156,0.44251 0.392077,0.34425 0.392076,0.34425 h 0.44709 c 0.245899,0 0.582407,-0.0704 0.747795,-0.15646 z"
         id="path138" />
      <path
         id="path137"
         style="fill:none;stroke:#00ff00;stroke-width:0.3;stroke-dasharray:none;stroke-opacity:1"
         d="m 85.141794,484.44491 -5.140861,0.002 c -2.827448,9.4e-4 -5.199655,0.0392 -5.271632,0.0849 -0.07198,0.0458 -0.201231,0.38679 -0.286959,0.75787 l -0.155855,0.67459 -0.750176,1.08396 c -0.962189,1.38973 -1.14094,1.89969 -1.076935,3.07595 l 0.01505,0.2786 0.157527,-0.36187 c 0.08652,-0.19905 0.205767,-0.36188 0.265221,-0.36188 0.05945,0 0.163287,-0.16743 0.230771,-0.37191 0.06749,-0.20448 0.247644,-0.54121 0.400339,-0.74817 0.547254,-0.74177 0.777542,-1.03594 0.946165,-1.20938 0.33195,-0.34141 0.788642,-1.01601 0.951181,-1.40503 0.09043,-0.21642 0.294228,-0.45249 0.452848,-0.52476 l 0.288298,-0.13144 0.194316,0.23981 0.194317,0.2398 0.127426,0.99499 0.127761,0.99466 -0.158865,0.83045 -0.158864,0.83044 -0.349503,0.5174 c -0.192137,0.28469 -0.762311,0.96554 -1.266904,1.51306 -0.504592,0.54752 -1.052738,1.26355 -1.218408,1.59099 l -0.301341,0.59532 0.01304,0.94483 c 0.0072,0.51973 0.04943,1.09554 0.09365,1.27928 l 0.0806,0.33411 0.129098,-0.31371 c 0.07103,-0.17242 0.129099,-0.43635 0.129099,-0.58663 0,-0.48859 0.530535,-1.80686 0.946833,-2.35287 0.223511,-0.29316 0.920331,-1.06573 1.548513,-1.71674 l 1.142153,-1.18363 0.380606,-0.79633 0.380607,-0.79633 0.221072,0.0311 0.221073,0.0311 0.279936,0.50101 0.279937,0.50134 -0.003,1.55888 -0.0033,1.55922 -0.275588,0.55653 c -0.424736,0.85818 -0.99695,1.62068 -2.149857,2.86525 -1.023975,1.10539 -1.298343,1.43426 -1.298343,1.55553 0,0.054 -0.102386,0.2369 -0.227427,0.40603 l -0.227428,0.30736 -0.06589,0.78563 c -0.03623,0.43212 -0.03008,1.07259 0.01371,1.42309 l 0.0796,0.63713 0.216724,0.18562 c 0.119159,0.10203 0.246848,0.37342 0.283616,0.60335 0.128735,0.80507 0.235605,0.40565 0.282946,-1.0572 l 0.04783,-1.4756 0.367897,-0.77961 c 0.406371,-0.86066 0.872872,-1.44729 2.422101,-3.04686 1.179921,-1.21826 1.371922,-1.43326 1.371922,-1.53613 0,-0.0402 0.122393,-0.23365 0.272244,-0.43011 0.149849,-0.19646 0.304277,-0.5018 0.343147,-0.6786 0.03887,-0.1768 0.122926,-0.45935 0.186625,-0.62777 l 0.11572,-0.30636 h 0.314385 0.31405 l 0.173581,0.2475 c 0.09534,0.13613 0.173246,0.33776 0.173246,0.44816 0,0.1104 0.100251,0.48594 0.222745,0.83446 l 0.222745,0.63379 v 0.96355 0.96389 l -0.222745,0.69734 c -0.122494,0.38344 -0.222745,0.78388 -0.222745,0.88997 0,0.10609 -0.14977,0.38766 -0.33278,0.62576 -0.460199,0.59872 -0.462225,0.60142 -0.831447,1.10102 -0.181012,0.24494 -0.732391,0.87552 -1.225098,1.40135 -1.315983,1.40445 -1.742802,2.02291 -2.004371,2.90371 -0.21061,0.7092 -0.218034,1.52616 -0.02074,2.26525 0.18796,0.70412 0.834694,1.86042 0.987637,1.7659 l 0.115386,-0.0712 -0.07191,-0.86188 c -0.03953,-0.47402 -0.02265,-1.20866 0.03746,-1.63246 l 0.109366,-0.77058 0.442146,-0.8592 c 0.2431,-0.47261 0.557682,-1.00998 0.699339,-1.19433 0.554214,-0.72123 1.545259,-1.86853 2.24852,-2.60304 0.405574,-0.42359 0.737467,-0.81655 0.737467,-0.87325 0,-0.0567 0.10267,-0.23621 0.22843,-0.399 0.540594,-0.69983 0.769004,-1.16491 0.894659,-1.82277 0.171555,-0.89815 0.254436,-1.05079 0.606362,-1.11807 l 0.288297,-0.0552 0.148832,0.23646 c 0.0818,0.13002 0.184854,0.36161 0.229099,0.51472 0.04425,0.15312 0.142728,0.35362 0.218732,0.44549 0.076,0.0919 0.245722,0.64292 0.377262,1.22477 l 0.239133,1.0582 -6.69e-4,0.97192 -6.69e-4,0.97192 -0.246491,0.75419 c -0.135531,0.4147 -0.361262,0.92385 -0.501344,1.13145 -0.140081,0.2076 -0.254518,0.41825 -0.254518,0.46823 0,0.14944 -0.481896,0.8131 -0.970245,1.33647 -0.251641,0.26969 -0.770032,0.86608 -1.152187,1.32543 -0.382154,0.45935 -0.742042,0.86602 -0.799674,0.90369 -0.123284,0.0806 -0.226629,0.25295 -0.767233,1.27995 -0.446365,0.84796 -0.603099,1.64744 -0.487631,2.48698 l 0.07592,0.55051 0.50402,0.75821 c 0.277194,0.41697 0.648526,0.8929 0.825427,1.05787 0.176901,0.16498 0.321743,0.35611 0.321743,0.42442 0,0.0683 0.05012,0.093 0.111372,0.0552 0.06125,-0.0378 0.111373,-0.16873 0.111373,-0.29097 l -3.35e-4,-3.4e-4 c 0,-0.12224 -0.112698,-0.4576 -0.250504,-0.74516 l -0.250505,-0.52274 0.003,-1.22644 0.0027,-1.22643 0.247829,-0.47526 c 0.136227,-0.26135 0.247829,-0.53101 0.247829,-0.59934 0,-0.31608 1.532362,-2.27413 2.991338,-3.82212 0.346352,-0.36748 0.879973,-1.04401 1.185632,-1.50336 l 0.555525,-0.83512 0.238799,-0.83546 c 0.131347,-0.45935 0.275518,-1.06053 0.32007,-1.33614 0.04455,-0.27562 0.178244,-0.63876 0.297328,-0.80703 l 0.21639,-0.30603 -0.04013,-5.59605 -0.04013,-5.59605 -0.239468,-0.63947 c -0.458488,-1.22563 -1.060153,-1.83158 -2.293337,-2.30839 z m -16.097841,0.0127 c -0.127093,0.005 -0.27851,0.0453 -0.486962,0.11672 -0.75721,0.25924 -0.723562,0.46282 0.190637,1.15252 1.064152,0.80283 1.821021,1.50501 2.004705,1.86022 0.15438,0.29854 0.275235,0.37461 0.398667,0.25118 0.12267,-0.12267 -0.155834,-1.1912 -0.413717,-1.58731 -0.610298,-0.93743 -0.792468,-1.18157 -1.108039,-1.48631 -0.229008,-0.22115 -0.37347,-0.31461 -0.585291,-0.30702 z m -2.363572,1.10068 c -0.04343,0 -0.233105,0.23818 -0.42141,0.5291 -0.309418,0.47805 -0.620261,1.34833 -0.776263,2.17327 l -0.05819,0.30803 0.495323,0.47124 c 0.630118,0.59988 1.200376,0.9424 1.729785,1.03848 0.229584,0.0417 0.603542,0.16939 0.830779,0.28361 0.227237,0.11421 0.485159,0.20736 0.573251,0.20736 0.446243,0 2.133028,1.10569 2.251196,1.4756 0.06501,0.20351 0.325632,0.26401 0.427429,0.0993 0.111947,-0.18113 -0.146363,-0.80902 -0.496995,-1.20837 -0.311391,-0.35465 -1.079476,-0.99716 -1.569918,-1.31306 -1.481823,-0.95447 -2.080552,-1.70548 -2.485647,-3.11809 -0.187717,-0.6546 -0.341612,-0.9465 -0.499336,-0.9465 z m 4.783332,2.40538 -0.103012,0.10602 c -0.09329,0.096 -0.04112,0.71806 0.0602,0.71806 0.02348,0 0.04281,-0.18542 0.04281,-0.41204 z m -5.957928,3.38465 -0.03144,1.16791 -0.03177,1.16757 0.181607,0.27692 c 0.09979,0.15231 0.455865,0.40263 0.791314,0.5562 l 0.61004,0.27926 0.910378,0.11405 c 1.709118,0.21415 3.183451,0.86157 4.084328,1.79367 0.275611,0.28516 0.538687,0.49698 0.584622,0.47057 0.04594,-0.0264 0.08217,-0.20792 0.0806,-0.40335 h 3.34e-4 l -0.003,-0.35518 -0.377596,-0.59265 -0.377597,-0.59265 -0.482614,-0.29934 c -0.54824,-0.34031 -1.475442,-0.72524 -2.197684,-0.91205 -0.269597,-0.0697 -0.669836,-0.22284 -0.889307,-0.34047 -0.219472,-0.11763 -0.457266,-0.21405 -0.528434,-0.21405 -0.153957,0 -0.734349,-0.48025 -1.141485,-0.94449 -0.160197,-0.18267 -0.491809,-0.5212 -0.736798,-0.75218 z m 6.420809,0.94717 -0.0087,0.21338 c -0.0048,0.11739 0.02152,0.18315 0.05853,0.14615 0.037,-0.037 0.04086,-0.13299 0.0087,-0.21338 z m -6.476328,5.06694 v 1.17426 1.17427 l 0.273248,0.27358 0.273247,0.27324 0.311375,0.004 c 0.52306,0.007 3.719615,0.32208 4.464599,0.4398 1.146502,0.18117 2.407884,0.86234 3.363583,1.81608 l 0.501009,0.5 0.03746,-0.22609 c 0.02067,-0.12436 -0.01547,-0.25895 -0.08027,-0.299 v 3.4e-4 c -0.0648,-0.0401 -0.195153,-0.29209 -0.289635,-0.55988 -0.208563,-0.59112 -0.774171,-1.30163 -1.35821,-1.70637 -0.58106,-0.40267 -1.849808,-0.82214 -2.781971,-0.91974 -0.418679,-0.0438 -0.936484,-0.14612 -1.150849,-0.2271 -0.214366,-0.081 -0.610872,-0.20388 -0.880946,-0.27324 -0.571611,-0.14679 -1.56094,-0.68218 -1.849185,-1.00068 -0.109951,-0.1215 -0.292354,-0.22074 -0.405356,-0.22074 -0.113002,0 -0.205354,-0.0501 -0.205354,-0.11137 0,-0.0613 -0.05012,-0.11138 -0.111372,-0.11138 z m 0.01572,6.02549 -0.0013,1.02376 c -8.24e-4,0.56323 0.02695,1.13966 0.06154,1.28095 l 0.06288,0.25686 0.570909,0.27626 c 0.314034,0.15179 0.903364,0.32306 1.309714,0.38094 l 0.738805,0.10535 1.824435,-0.0983 c 1.003408,-0.0541 2.374546,-0.0567 3.047192,-0.006 l 1.223091,0.0926 0.768236,0.35051 c 0.422537,0.19291 0.836295,0.4189 0.919408,0.50201 0.08311,0.0831 0.251117,0.18297 0.373249,0.22174 0.122131,0.0388 0.222076,0.11829 0.222076,0.17693 0,0.0586 0.126587,0.1549 0.281274,0.21371 0.154688,0.0588 0.317511,0.19525 0.361877,0.30335 l 0.0806,0.19666 0.03746,-0.32877 0.03746,-0.32843 -0.176591,-0.1291 c -0.09712,-0.071 -0.17659,-0.18084 -0.17659,-0.24415 0,-0.0633 -0.325006,-0.46465 -0.722082,-0.89165 l -0.722082,-0.77626 -0.749507,-0.35786 -0.749507,-0.3582 -2.175609,-0.1 c -2.737499,-0.12605 -4.254734,-0.37393 -4.76962,-0.77894 -0.151417,-0.11911 -0.328702,-0.21673 -0.39365,-0.21673 -0.06495,0 -0.245877,-0.11562 -0.402345,-0.25719 -0.15647,-0.14156 -0.418895,-0.31445 -0.58295,-0.38395 z m -0.01572,5.01009 v 10.29544 10.29543 h 0.09933 c 0.05469,0 0.128293,-0.0754 0.163547,-0.16723 l 0.06421,-0.16689 0.309703,0.002 c 0.170352,9.3e-4 0.379274,0.0455 0.464219,0.0993 l 0.154517,0.098 -0.05552,0.28963 c -0.07325,0.38318 0.315339,2.00053 0.617064,2.56859 l 0.239133,0.45051 0.01739,1.38797 0.01772,1.38765 0.114049,0.0381 c 0.06282,0.0209 0.150404,-0.0772 0.194651,-0.21839 0.04425,-0.14118 0.173872,-0.37633 0.287963,-0.52242 l 0.20736,-0.26555 -0.02107,-1.96156 -0.02107,-1.96156 0.185955,-0.38964 c 0.356001,-0.74641 1.268517,-1.91835 1.654869,-2.12511 l 0.220069,-0.11773 0.173246,0.14382 0.173246,0.14381 -0.05251,1.80705 -0.05284,1.80738 -0.18328,0.27993 c -0.202351,0.30883 -0.245328,0.73345 -0.07425,0.73345 0.06008,0 0.139278,-0.12056 0.176256,-0.26789 0.03698,-0.14733 0.156225,-0.29133 0.264886,-0.31974 0.10866,-0.0284 0.233602,-0.19581 0.277595,-0.37224 0.04399,-0.17642 0.146899,-0.47111 0.228765,-0.65486 0.08186,-0.18374 0.210753,-0.53268 0.286291,-0.77526 0.325822,-1.04634 0.894583,-1.93984 1.62042,-2.54551 l 0.376258,-0.31372 0.22308,0.0709 0.223414,0.0709 0.0087,0.41004 0.0087,0.41004 0.112041,-0.30636 0.111707,-0.30603 h 0.200003 c 0.109891,0 0.261873,-0.0751 0.337796,-0.16655 0.190875,-0.22999 1.211548,-0.80131 1.607711,-0.90001 0.17966,-0.0448 0.455516,-0.14874 0.612716,-0.23078 0.364962,-0.19046 0.836067,-0.19244 0.992319,-0.004 l 0.121406,0.14649 -0.275254,0.40502 c -0.151408,0.22282 -0.337719,0.44513 -0.414052,0.49399 -0.07633,0.0489 -0.310773,0.33925 -0.521076,0.64549 -0.830787,1.20977 -1.68015,1.99452 -2.665248,2.4629 l -0.597331,0.28429 0.122075,0.12207 0.122075,0.12208 0.9766,0.008 0.9766,0.008 0.03311,0.34148 0.03345,0.34147 -0.589974,0.52375 c -0.946019,0.83964 -0.979718,0.86483 -1.407374,1.04383 -0.224308,0.0939 -0.983971,0.21654 -1.688313,0.27258 -0.704342,0.056 -1.46867,0.15194 -1.698347,0.21338 l -0.41773,0.11171 v 0.16287 c 0,0.0895 -0.06881,0.16255 -0.153179,0.16255 -0.08437,0 -0.212229,0.0708 -0.28395,0.15719 l -0.130436,0.15719 0.11572,0.0716 c 0.06354,0.0393 0.278869,-0.002 0.478601,-0.0913 l 0.363214,-0.16254 2.149189,-0.0605 2.149188,-0.0605 0.06154,0.16021 c 0.173358,0.45177 -1.018401,1.73731 -2.089321,2.25387 l -0.513384,0.24783 h -2.27929 -2.279625 l -0.547832,0.3592 c -0.301425,0.19765 -0.567872,0.40715 -0.59198,0.46556 -0.02411,0.0584 -0.162036,0.21575 -0.306358,0.3495 -0.144322,0.13375 -0.26221,0.26791 -0.26221,0.29833 0,0.1059 0.613171,-0.0519 0.723754,-0.18629 0.06125,-0.0744 0.43442,-0.24374 0.829106,-0.37659 l 0.7174,-0.24181 h 0.750844 c 0.412851,0 0.886853,0.052 1.053524,0.11538 0.166672,0.0634 0.859015,0.12221 1.538479,0.13077 l 1.235466,0.0157 0.417396,-0.15318 0.41773,-0.15317 0.129767,0.1301 c 0.07149,0.0715 0.130102,0.28385 0.130102,0.47224 v 0.34248 l -0.839474,0.80269 c -0.461692,0.44144 -1.133955,0.95306 -1.493997,1.1368 l -0.654522,0.33412 h -2.64886 -2.648525 l -0.106021,0.16689 c -0.130764,0.20653 -0.14016,0.52467 -0.01773,0.60034 0.0503,0.0311 0.71562,0.0807 1.478277,0.11037 0.762659,0.0297 1.913717,0.11509 2.557889,0.18997 l 1.171251,0.13645 0.816397,-0.18461 c 0.44905,-0.10141 0.959049,-0.18429 1.133123,-0.18429 h 0.316392 l 0.104683,0.19566 0.104684,0.19565 -0.212043,0.26221 c -0.116704,0.14412 -0.212377,0.32263 -0.212377,0.39666 0,0.12106 -0.936481,1.12875 -1.503361,1.61775 -0.388194,0.33486 -0.97928,0.64585 -1.725773,0.9077 l -0.724088,0.25385 -1.580954,0.006 -1.581289,0.006 -0.131105,0.1311 -0.131106,0.13111 0.07057,0.28161 0.07057,0.28161 0.416727,0.0819 c 0.229184,0.0449 1.343879,0.0838 2.476951,0.0866 l 2.060224,0.005 0.643486,-0.30469 c 0.737922,-0.3495 0.890607,-0.36895 1.081618,-0.1388 l 0.137459,0.16556 -0.06923,0.36957 c -0.03814,0.20328 -0.143834,0.46703 -0.234785,0.58596 -2.04147,2.66963 -3.182884,3.39 -5.370964,3.39 -0.328653,0 -0.745398,0.0765 -0.926098,0.1699 l -0.328432,0.1699 v 0.26757 c 0,0.14717 0.07868,0.34623 0.174919,0.44248 l 0.175253,0.17525 h 1.586974 1.587309 l 0.80235,-0.27291 c 0.441242,-0.15007 0.932727,-0.37582 1.09232,-0.50135 0.466311,-0.3668 0.928439,-0.23912 0.928439,0.25653 0,0.70958 -1.411384,2.80579 -2.228453,3.30973 -0.241064,0.14868 -0.439495,0.304 -0.441142,0.34516 -0.0055,0.13822 -1.389941,0.77274 -1.900022,0.87091 -0.277672,0.0534 -0.791374,0.20447 -1.141485,0.33546 l -0.636462,0.23813 v 0.32207 0.32208 l 0.215387,0.11539 c 0.118468,0.0634 0.617849,0.11538 1.109712,0.11538 h 0.894325 l 0.532782,-0.1786 c 0.293064,-0.0982 0.781141,-0.29629 1.084627,-0.44013 l 0.551846,-0.26155 0.144149,0.11974 c 0.07931,0.0658 0.144149,0.27098 0.144149,0.45619 v 0.33679 l -0.383617,0.57827 c -0.483261,0.72806 -1.211089,1.48208 -1.787646,1.85186 -0.915722,0.58729 -1.090299,0.67688 -1.625436,0.8358 l -0.548167,0.16288 0.0699,0.30167 c 0.102997,0.44449 0.348377,0.79142 1.007703,1.4261 l 0.589974,0.56824 0.754189,0.22843 0.753854,0.22876 8.240562,-0.0171 8.240562,-0.0171 0.573251,-0.23813 c 1.078819,-0.44562 1.93307,-1.34478 2.299691,-2.42076 l 0.184283,-0.54048 -0.108697,-0.20334 c -0.141876,-0.26509 -0.138086,-0.86788 0.01137,-1.72611 l 0.120402,-0.69131 -0.233447,-1.07861 c -0.12851,-0.59314 -0.301697,-1.18803 -0.38462,-1.32209 -0.08292,-0.13406 -0.288502,-0.79519 -0.456861,-1.46891 l -0.306024,-1.22477 0.06823,-0.73579 c 0.03757,-0.40461 0.143862,-0.94955 0.236124,-1.21105 0.191745,-0.54347 0.220797,-1.1154 0.05652,-1.1154 -0.06125,0 -0.111373,0.0457 -0.111373,0.10201 0,0.0563 -0.207998,0.31869 -0.462212,0.58328 -0.254215,0.26458 -0.534745,0.65501 -0.623419,0.86724 l -0.161205,0.38562 0.0097,1.06322 c 0.0107,1.15456 0.150935,2.20137 0.342813,2.5599 0.06673,0.12468 0.131841,0.69102 0.144483,1.25821 l 0.02274,1.03111 -0.272913,0.77961 c -0.320779,0.91556 -0.895597,1.82057 -1.574265,2.47929 -0.49431,0.47978 -0.863647,0.59002 -1.084628,0.32375 l -0.122744,-0.14783 0.109032,-0.38027 c 0.166299,-0.57985 0.131556,-1.24716 -0.114049,-2.19467 -0.440083,-1.69777 -0.458957,-4.03124 -0.03813,-4.68367 0.364943,-0.56578 -0.240432,-0.3709 -0.718068,0.23111 l -0.330105,0.41606 -0.174583,0.8087 c -0.09589,0.44487 -0.224073,1.44885 -0.284954,2.23113 l -0.110703,1.42243 -0.34783,0.58228 c -0.191359,0.32016 -0.464224,0.74353 -0.606362,0.94115 -0.396855,0.55176 -1.541925,1.45914 -1.891325,1.49867 l -0.311375,0.0355 -0.125754,-0.19465 -0.12542,-0.19432 0.239803,-0.69633 c 0.132375,-0.38425 0.269515,-1.13367 0.306023,-1.67159 l 0.06622,-0.97493 0.295655,-0.75118 c 0.162663,-0.41311 0.388107,-0.84061 0.500675,-0.95018 0.223127,-0.21718 0.25825,-0.36703 0.108028,-0.45987 -0.127283,-0.0787 -1.313439,1.05582 -1.459549,1.39601 -0.06265,0.14586 -0.16002,0.34057 -0.216725,0.43244 -0.05671,0.0919 -0.282149,0.53997 -0.500674,0.996 -0.541138,1.12927 -1.31535,2.04521 -2.278956,2.69568 l -0.487631,0.3291 -0.290973,-0.0338 -0.290639,-0.0338 -0.03712,-0.19465 c -0.02031,-0.10708 0.04004,-0.27147 0.133781,-0.36522 0.09374,-0.0937 0.142573,-0.24283 0.108697,-0.33111 l -0.06154,-0.1602 -0.407028,0.32241 c -0.502053,0.39795 -1.435234,0.89567 -1.679284,0.89567 -0.09974,0 -0.282325,0.0708 -0.40569,0.15719 -0.244906,0.17154 -1.325578,0.39967 -1.893332,0.39967 -0.196332,0 -0.470599,-0.0919 -0.609372,-0.20435 l -0.252511,-0.20435 0.433784,-0.38027 c 0.238542,-0.20918 0.935414,-0.86599 1.548513,-1.45955 0.613099,-0.59355 1.309696,-1.21063 1.547843,-1.37126 0.727456,-0.49067 1.644821,-0.94583 1.906042,-0.94583 0.136237,0 0.367318,-0.094 0.513384,-0.20869 0.146066,-0.11466 0.478504,-0.24414 0.738804,-0.28797 0.949671,-0.15992 0.440262,-0.28294 -1.172254,-0.28294 h -1.645838 l -0.247494,-0.17325 c -0.136122,-0.0953 -0.247495,-0.21375 -0.247495,-0.26321 0,-0.0495 0.254583,-0.34864 0.565558,-0.66456 0.629592,-0.6396 1.430217,-1.09184 2.285311,-1.29098 l 0.567565,-0.13211 1.492324,0.0766 c 1.530201,0.0786 2.289113,0.0385 2.390663,-0.12576 0.03167,-0.0512 0.284629,-0.1936 0.562213,-0.31639 0.277586,-0.12278 0.476264,-0.26913 0.441477,-0.32542 -0.03479,-0.0563 -0.727611,-0.10354 -1.539482,-0.10502 l -1.475937,-0.003 -0.89098,-0.17592 c -0.489976,-0.0968 -1.19402,-0.17625 -1.564566,-0.17626 h -0.673586 l -0.133781,-0.13344 c -0.253178,-0.25318 -0.13155,-0.50792 0.527096,-1.10503 0.921337,-0.83526 1.372823,-1.08979 2.389325,-1.34684 l 0.883288,-0.22341 0.511042,0.0635 c 0.281086,0.0349 1.012296,0.16809 1.624768,0.29599 0.612471,0.12791 1.489498,0.26023 1.948851,0.29399 l 0.835127,0.0612 0.612381,-0.23177 0.612382,-0.23211 0.5281,-0.49299 c 0.290413,-0.27121 0.591166,-0.51623 0.668235,-0.54448 l 0.140135,-0.0515 -0.131774,-0.14014 -0.131774,-0.14013 -0.48228,0.28261 c -0.265117,0.15537 -0.798431,0.34463 -1.185298,0.42074 l -0.703352,0.13846 -1.021416,-0.0686 c -0.561701,-0.0376 -1.39719,-0.17177 -1.856543,-0.29833 -1.43846,-0.39634 -1.694853,-0.43516 -2.909398,-0.44014 l -1.183625,-0.005 -0.142811,-0.17258 -0.143146,-0.17224 0.178932,-0.37526 c 0.185409,-0.38881 1.153923,-1.23607 1.99233,-1.74283 0.265002,-0.16017 0.840372,-0.39802 1.27861,-0.52877 l 0.796665,-0.23779 h 0.822417 c 0.45229,0 1.096036,0.0695 1.430451,0.15451 0.334415,0.085 0.957712,0.21355 1.3853,0.28596 0.427588,0.0724 0.84871,0.19091 0.935797,0.26321 l 0.15853,0.13144 h 1.124427 1.124093 l 0.521745,-0.25686 0.521411,-0.25685 0.07425,-0.3388 0.07458,-0.3388 -0.122409,-0.12241 c -0.06733,-0.0673 -0.31069,-0.10215 -0.540475,-0.0773 -0.229784,0.0249 -1.098795,0.0448 -1.931125,0.0442 l -1.513061,-10e-4 -0.49131,-0.18294 c -0.270117,-0.10061 -0.886065,-0.26279 -1.368912,-0.36021 -0.482845,-0.0974 -0.972968,-0.22788 -1.088975,-0.28997 -0.116008,-0.0621 -0.753803,-0.1158 -1.417408,-0.1194 l -1.206368,-0.007 -0.242477,0.12977 c -0.133229,0.0713 -0.34036,0.0983 -0.460541,0.0602 l -0.218731,-0.0692 v -0.38128 -0.38127 l 0.222745,-0.13914 c 0.122494,-0.0765 0.222745,-0.19998 0.222745,-0.27425 0,-0.10863 0.764679,-0.80684 1.75721,-1.6047 0.31864,-0.25613 1.566764,-0.77047 2.128118,-0.87693 1.194809,-0.22659 3.649694,-0.0298 4.935173,0.39566 0.288363,0.0955 0.689365,0.15784 0.89098,0.13846 l 0.366559,-0.0351 -0.0194,-0.54515 -0.0194,-0.54483 -0.147828,-0.0923 c -0.0812,-0.0506 -0.37289,-0.12063 -0.648502,-0.15553 -0.275613,-0.0349 -0.902013,-0.15805 -1.391989,-0.27391 -1.416896,-0.33507 -2.844366,-0.59707 -3.514421,-0.64482 l -0.619071,-0.0442 -1.162555,0.28896 -1.162889,0.28864 -0.189635,-0.23044 -0.189968,-0.2301 0.106356,-0.27994 c 0.153038,-0.40252 0.618638,-0.99403 1.405367,-1.78597 1.06503,-1.07209 2.438208,-1.87122 3.779307,-2.19903 l 0.791313,-0.19331 1.046166,0.0488 c 0.575454,0.0268 1.191911,0.0877 1.369915,0.13545 l 0.323749,0.087 0.1495,-0.20468 c 0.193144,-0.26414 0.192726,-0.8783 -6.68e-4,-1.03881 -0.08263,-0.0686 -0.395834,-0.17141 -0.695995,-0.22843 -0.300161,-0.057 -0.695867,-0.16362 -0.879609,-0.23713 l -0.334117,-0.13378 -1.614734,-0.0127 -1.614734,-0.0127 -0.779608,0.31807 c -0.428729,0.17485 -0.838586,0.36564 -0.911047,0.42408 l -0.131774,0.10636 -0.230437,-0.23044 c -0.126592,-0.1266 -0.228773,-0.29267 -0.227428,-0.36923 0.0023,-0.13268 0.241758,-0.64842 0.629439,-1.35587 0.248572,-0.4536 2.086937,-2.2561 2.397686,-2.35087 0.140439,-0.0428 0.330542,-0.14139 0.422413,-0.21906 0.09187,-0.0777 0.492873,-0.27304 0.89098,-0.43379 l 0.723754,-0.29197 1.057871,-0.12977 1.057872,-0.12977 0.206357,-0.17525 0.206357,-0.17492 -0.05251,-0.54783 -0.05284,-0.54783 -0.202678,-0.1485 -0.203012,-0.14816 -0.785962,6.7e-4 -0.785962,6.7e-4 -1.158207,0.32341 c -1.224159,0.34201 -1.409034,0.34149 -1.518747,-0.004 l -0.06823,-0.21539 0.342814,-0.51807 c 0.757424,-1.1435 1.800916,-2.03688 3.134818,-2.68397 0.402946,-0.19547 0.78862,-0.35552 0.856866,-0.35552 0.06825,0 0.201983,-0.11137 0.297327,-0.2475 l 0.173246,-0.24749 v -2.05421 -2.05454 l -0.184283,-0.20368 -0.184283,-0.20368 -0.400339,0.007 c -0.88983,0.0167 -2.553955,0.75569 -4.057905,1.80202 -0.242094,0.16843 -0.507961,0.30636 -0.590642,0.30636 -0.08268,0 -0.150489,0.0377 -0.150504,0.0836 -3.6e-5,0.11475 -1.335839,0.72441 -2.282634,1.04182 l -0.779608,0.26121 -1.280616,0.003 -1.280617,0.003 -0.723754,-0.26221 c -1.609481,-0.58327 -2.312782,-1.00503 -2.484643,-1.48999 l -0.06823,-0.19297 0.190638,-0.0983 c 0.104902,-0.054 0.466159,-0.13216 0.803019,-0.17392 0.613155,-0.076 1.932548,-0.48354 2.524778,-0.77994 1.321382,-0.66133 2.995434,-1.41967 3.600041,-1.63079 l 0.723754,-0.25284 1.522091,-0.009 c 0.837027,-0.005 1.557329,-0.0447 1.600687,-0.088 0.133452,-0.1334 -1.189297,-0.65813 -1.93146,-0.76623 l -0.702015,-0.10235 -1.016734,0.11506 c -0.559199,0.0634 -1.070205,0.15829 -1.135464,0.21103 -0.06526,0.0527 -0.4008,0.15375 -0.745494,0.22442 -0.344692,0.0707 -0.818731,0.22645 -1.053523,0.34616 -0.234794,0.1197 -0.492511,0.21773 -0.572582,0.21773 -0.08007,0 -0.495381,0.12214 -0.923088,0.27157 l -0.7776,0.27191 -1.030112,0.0739 -1.029778,0.0739 -0.855194,-0.12074 c -0.833753,-0.11764 -1.102423,-0.21832 -2.485312,-0.93044 -0.74819,-0.38528 -0.771351,-0.4025 -1.590988,-1.20002 -0.551603,-0.53672 -0.991081,-1.10977 -1.344497,-1.75319 l -0.151172,-0.27559 0.126423,-0.27793 0.126757,-0.27793 0.247494,0.0773 c 0.136071,0.0425 0.623268,0.17479 1.082621,0.29398 l 0.835127,0.21673 0.779273,-0.0686 c 1.155492,-0.10177 2.677411,-0.37404 3.115754,-0.55719 0.54816,-0.22904 2.504528,-0.42026 3.639841,-0.35586 l 0.964894,0.0545 0.538468,0.24951 c 0.296135,0.13708 0.794027,0.36888 1.106367,0.51539 0.31234,0.14652 0.62554,0.26655 0.695994,0.26655 0.214427,0 0.142823,-0.19275 -0.09465,-0.25485 -0.122494,-0.032 -0.222183,-0.15064 -0.221741,-0.26355 0.0012,-0.30049 -1.074135,-1.24109 -1.782629,-1.55921 -0.33686,-0.15125 -0.938029,-0.31468 -1.336136,-0.36322 -0.9408,-0.11469 -3.44871,0.0566 -4.23182,0.28897 l -0.612382,0.18161 -1.447842,0.007 -1.447509,0.007 -0.735794,-0.29533 c -0.404713,-0.16255 -0.965469,-0.4507 -1.246168,-0.64014 -0.576612,-0.38916 -1.606972,-1.40435 -1.691992,-1.66724 -0.03089,-0.0955 -0.206407,-0.25889 -0.390306,-0.36321 z m 23.16247,0.62242 -0.194651,0.1699 c -0.107182,0.0934 -0.256931,0.18873 -0.332445,0.21204 -0.164656,0.0508 -1.776073,2.03231 -2.084639,2.56324 -0.265843,0.45743 -0.716611,1.73641 -0.723754,2.05387 -0.0029,0.1274 0.112656,0.52097 0.256525,0.87459 l 0.261541,0.64282 0.477932,0.37826 c 0.511103,0.40445 0.752613,0.46947 0.845495,0.22743 0.03184,-0.083 -0.04498,-0.42139 -0.170571,-0.75185 -0.125599,-0.33045 -0.228158,-0.75105 -0.227762,-0.93479 0.0015,-0.7134 0.919912,-2.8395 1.226436,-2.8395 0.04613,0 0.167176,-0.1756 0.268899,-0.38997 0.101722,-0.21436 0.2326,-0.38964 0.290973,-0.38964 0.0586,0 0.106021,-0.40665 0.106021,-0.90803 z M 73.221258,531.0063 c -0.03491,4.7e-4 -0.07286,0.007 -0.108028,0.0214 l -0.146156,0.0585 0.21338,0.009 c 0.117391,0.005 0.18316,-0.0215 0.146156,-0.0585 -0.02081,-0.0208 -0.06047,-0.031 -0.105352,-0.0304 z" />
      <path
         style="fill:none;stroke:#ff0000;stroke-width:0.3;stroke-dasharray:none;stroke-opacity:1"
         d="m 65.106526,565.51878 c -0.727657,-0.22052 -1.430514,-0.85388 -1.759664,-1.58568 l -0.235165,-0.52285 v -40.20973 -40.20973 l 0.325713,-0.63713 c 0.179142,-0.35043 0.512722,-0.78335 0.741289,-0.96205 0.430766,-0.33679 1.363954,-0.61688 2.065367,-0.6199 l 0.404085,-0.002 0.136597,-0.36191 c 0.660774,-1.75072 1.049891,-2.44093 1.780066,-3.15745 1.003592,-0.98483 1.621436,-1.35478 2.855102,-1.70957 l 0.791516,-0.22764 h 4.688581 4.688581 l 0.975054,0.22736 c 0.536279,0.12504 1.051953,0.29694 1.145941,0.382 0.09399,0.0851 0.296074,0.20953 0.44908,0.2766 0.39825,0.17459 0.953611,0.59684 1.248931,0.94959 0.139813,0.16701 0.354429,0.40969 0.476923,0.53929 0.342111,0.36197 0.946122,1.32763 0.95009,1.51896 0.0019,0.0939 0.07711,0.26806 0.167038,0.38695 0.08992,0.11889 0.163496,0.30445 0.163496,0.41236 0,0.1079 0.05666,0.32054 0.125904,0.47252 l 0.125905,0.27633 0.737124,0.0687 c 1.063686,0.0991 1.136759,0.12216 1.667863,0.52617 l 0.481545,0.36631 0.324085,0.63745 0.324085,0.63746 1.41e-4,40.20875 1.41e-4,40.20875 -0.234764,0.52351 c -0.254537,0.56759 -0.692819,1.0967 -1.046461,1.26332 -0.122495,0.0577 -0.347996,0.17721 -0.501114,0.26555 l -0.278396,0.16061 -11.748329,-0.008 c -6.461581,-0.004 -11.877938,-0.0472 -12.03635,-0.0952 z"
         id="path126" />
    </g>
  </g>
</svg>
