<?xml version="1.0" encoding="UTF-8" standalone="no"?>
<!-- Created with Inkscape (http://www.inkscape.org/) -->

<svg
   width="48.362362mm"
   height="119.59232mm"
   viewBox="0 0 48.362362 119.59232"
   version="1.1"
   id="svg1"
   xml:space="preserve"
   xmlns="http://www.w3.org/2000/svg"
   xmlns:svg="http://www.w3.org/2000/svg"><defs
     id="defs1" /><g
     id="layer1"
     transform="translate(-12.550504,-9.5431306)"><g
       id="g311"><path
         style="fill:none;stroke:#00ff00;stroke-width:0.3;stroke-dasharray:none;stroke-opacity:1"
         d="m 32.908276,52.274662 c -2.225949,-0.234799 -4.268655,-1.007504 -5.483737,-2.074361 -0.752502,-0.660705 -1.850222,-2.392251 -2.234304,-3.524398 -1.000724,-2.949795 -0.247561,-5.161445 2.563322,-7.52716 0.835905,-0.703522 1.372281,-1.282804 1.36193,-1.470876 -0.0094,-0.170646 -0.107894,-1.027436 -0.218901,-1.903978 -0.244324,-1.929328 -0.03789,-3.55096 0.596738,-4.687697 0.401346,-0.71888 0.408602,-0.775409 0.119456,-0.930498 -0.540663,-0.289999 -1.689594,-1.57341 -2.038632,-2.277251 -0.265812,-0.536011 -0.341594,-1.066423 -0.355893,-2.490972 -0.01,-0.995471 -0.07957,-3.361763 -0.154622,-5.258424 -0.158812,-4.013531 -0.159509,-4.011377 1.198004,-3.707153 0.740655,0.165984 3.902524,1.351753 4.508012,1.690602 0.149604,0.08372 0.712639,0.05044 1.3279,-0.07851 1.285197,-0.269354 2.464651,-0.267798 3.739996,0.0049 0.928393,0.198535 0.985044,0.187467 2.729795,-0.533258 2.275519,-0.939977 3.549836,-1.308537 4.014467,-1.161069 l 0.368376,0.11692 -0.125084,5.19558 c -0.146884,6.100949 -0.179414,6.238114 -1.845331,7.780461 l -1.01931,0.943698 0.346692,0.476597 c 0.807504,1.110085 1.051802,3.345605 0.625918,5.727685 -0.126501,0.70754 -0.198773,1.366878 -0.160609,1.465194 0.03816,0.09831 0.359059,0.370928 0.713101,0.6058 1.075471,0.713474 2.704018,2.452444 3.151538,3.365231 0.354509,0.723071 0.422563,1.114797 0.422563,2.432278 v 1.570398 l 0.551545,-0.420702 c 1.119498,-0.853918 1.583738,-2.706705 0.975241,-3.892193 -0.155738,-0.303417 -0.944747,-1.248382 -1.753352,-2.099926 -1.802242,-1.897941 -2.691327,-3.244594 -3.159267,-4.785189 -0.908531,-2.991138 0.166375,-5.785278 2.703602,-7.027814 1.215303,-0.59516 3.301252,-0.607281 4.317003,-0.02508 0.951049,0.545111 1.622695,1.606245 1.622695,2.563698 0,0.60035 -0.109137,0.86281 -0.566143,1.361489 -0.787097,0.85887 -1.818568,0.983526 -2.768972,0.334637 -0.752382,-0.513687 -1.181535,-0.465689 -1.60423,0.179425 -0.665615,1.015858 0.08733,2.922579 2.101107,5.320661 1.6553,1.971204 2.207394,3.080111 2.293667,4.606934 0.182628,3.232084 -1.78915,5.758151 -5.170917,6.624519 -0.853818,0.218739 -1.216079,0.43058 -1.891757,1.106257 -1.413571,1.413573 -3.099914,2.082742 -6.046756,2.399455 -1.85214,0.199059 -3.892591,0.200501 -5.754855,0.0041 z"
         id="path310" /><path
         style="fill:none;stroke:#00ff00;stroke-width:0.3;stroke-dasharray:none;stroke-opacity:1"
         d="m 34.217655,114.35106 c -2.953775,-0.96155 -4.733754,-2.61277 -5.877058,-5.45196 l -0.414665,-1.02973 -0.04742,-19.061886 -0.04742,-19.061889 0.361591,-0.459689 c 0.508532,-0.646493 1.645247,-0.654048 2.245754,-0.01492 l 0.417894,0.444765 0.0862,18.81825 0.0862,18.818249 0.482716,0.98299 c 2.163755,4.40624 8.455388,4.28761 10.531134,-0.19854 0.360264,-0.77862 0.363606,-0.92423 0.449152,-19.573431 0.06585,-14.355395 0.135901,-18.875714 0.296869,-19.156547 0.438191,-0.764493 1.78059,-0.824098 2.397787,-0.106466 l 0.40769,0.474034 -0.0027,18.444229 c -0.003,20.102441 0.0089,19.840791 -0.980053,21.676421 -0.265066,0.49206 -0.959951,1.40336 -1.544191,2.02514 -1.178827,1.25455 -2.904062,2.23843 -4.505357,2.56936 -1.340414,0.27702 -3.255333,0.21602 -4.344009,-0.13837 z"
         id="path308" /><path
         style="display:inline;fill:none;stroke:#ff0000;stroke-width:0.3;stroke-dasharray:none;stroke-opacity:1"
         d="m 45.880126,128.5976 c 0.446636,-0.50103 5.291287,-7.33703 5.550353,-7.83179 0.145999,-0.27883 0.197149,-9.15163 0.197149,-34.198624 V 52.745081 l 1.856295,-1.844562 C 58.237202,46.177282 60.765194,40.227188 60.762868,33.76822 60.760282,27.441697 58.184052,21.257773 53.69086,16.794663 46.682593,9.8333201 36.644502,7.8080271 27.573259,11.525158 c -1.15996,0.475316 -2.995413,1.402207 -3.813312,1.925695 -2.245453,1.437175 -4.912159,3.94293 -6.48914,6.097477 -1.853262,2.532018 -3.437524,6.127819 -4.167525,9.459036 -0.442119,2.017518 -0.53677,6.140444 -0.190468,8.296651 0.585913,3.64813 2.091897,7.378615 4.196111,10.394222 0.533805,0.76501 1.809153,2.220839 2.834107,3.235172 l 1.863553,1.844245 v 33.933528 33.933536 l 2.675926,3.77577 c 1.471759,2.07667 2.84274,3.95333 3.046626,4.17035 l 0.370702,0.39461 h 8.817268 8.817267 z"
         id="path307" /></g><g
       id="g112"
       transform="matrix(1.1999996,0,0,1.1999996,-59.87353,-445.86653)"
       style="display:none"><path
         id="path1"
         style="fill:none;stroke:#0000ff;stroke-width:0.168326;stroke-dasharray:none;stroke-opacity:1"
         d="m 92.611414,441.83863 c 0.29944,-0.16298 0.544437,-0.35786 0.544437,-0.43308 0,-0.18442 -3.235984,-2.05669 -3.55473,-2.05669 -0.129472,0 -2.128877,1.97655 -2.128877,2.10454 0,0.14462 0.765674,0.48974 1.281597,0.57767 0.245176,0.0418 1.09093,0.0823 1.879455,0.0899 1.354761,0.0132 1.463651,-0.002 1.978118,-0.28237 z m 8.206166,0.0334 c 0.1992,-0.10372 0.36211,-0.24998 0.36202,-0.32502 -3e-4,-0.23737 -1.942839,-2.0867 -2.191881,-2.0867 -0.494664,0 -3.380116,1.68444 -3.380116,1.97322 0,0.0749 0.188061,0.26736 0.417913,0.42772 l 0.417911,0.29155 2.00598,-0.0461 c 1.601853,-0.0368 2.078943,-0.0841 2.368173,-0.23468 z m 1.94124,-1.242 c 0.63417,-0.49407 1.20703,-1.28553 1.20703,-1.6676 0,-0.3851 -0.41989,-1.14972 -1.80736,-3.29119 -0.95353,-1.47172 -0.83712,-1.41992 -2.366225,-1.05289 -0.707925,0.16991 -1.287385,0.36349 -1.287688,0.43017 -3.03e-4,0.0667 0.07486,0.34689 0.167037,0.62272 0.09217,0.27582 0.323989,1.02806 0.515146,1.67164 l 0.347557,1.17016 1.250683,1.25374 c 0.68788,0.68955 1.30062,1.25374 1.36166,1.25374 0.061,0 0.3365,-0.17572 0.61216,-0.39049 z m -14.834964,-1.00207 c 1.173019,-1.17157 1.236816,-1.25967 1.45261,-2.00598 0.124139,-0.42932 0.29211,-0.95611 0.373268,-1.17064 0.249223,-0.65877 0.316641,-1.28443 0.15297,-1.41959 -0.191469,-0.15811 -1.468262,-0.54994 -2.063717,-0.63332 l -0.469082,-0.0657 -0.432356,0.64139 c -0.237795,0.35276 -0.84435,1.32629 -1.347898,2.16339 l -0.915543,1.522 0.312496,0.58553 c 0.374558,0.70181 1.30511,1.69444 1.541387,1.64421 0.09293,-0.0197 0.721068,-0.58734 1.395865,-1.2613 z m 5.932467,0.22181 c 0.122527,-0.5608 0.0362,-3.36009 -0.115109,-3.73276 -0.0832,-0.20493 -0.25662,-0.31765 -0.655711,-0.42625 -0.298425,-0.0812 -0.657786,-0.19405 -0.798581,-0.25075 -0.3706,-0.14926 -1.20345,-0.12654 -1.32673,0.0362 -0.05804,0.0766 -0.196607,0.46527 -0.307926,0.86368 -0.111319,0.39841 -0.273443,0.94774 -0.360275,1.22072 -0.08683,0.27298 -0.131304,0.60221 -0.09883,0.73161 0.06988,0.27845 0.909044,0.86812 2.071139,1.4554 0.459703,0.23231 0.911049,0.46102 1.002989,0.50823 0.315469,0.16199 0.491415,0.0407 0.589029,-0.40608 z m 2.289438,0.0463 c 0.470186,-0.25066 1.196724,-0.66439 1.614529,-0.91941 l 0.759645,-0.46367 -0.07213,-0.48816 c -0.03967,-0.26848 -0.114774,-0.59446 -0.166892,-0.72438 -0.05212,-0.12992 -0.19795,-0.5932 -0.324071,-1.0295 -0.12612,-0.43631 -0.295106,-0.84788 -0.375524,-0.91463 -0.246266,-0.20438 -2.578593,0.44567 -2.707625,0.75466 -0.153894,0.36851 -0.187056,2.87349 -0.046,3.47447 0.221401,0.94326 0.15895,0.92854 1.318068,0.31062 z m 8.419099,-2.67861 c 0.091,-0.45496 0.0904,-4.31243 -7.9e-4,-4.76816 -0.0387,-0.19372 -0.16966,-0.40531 -0.29092,-0.47021 -0.19197,-0.10274 -0.34175,0.004 -1.15856,0.82431 -0.90022,0.90428 -0.93327,0.9553 -0.81902,1.26425 0.14705,0.39767 0.6909,1.50793 0.81276,1.65926 0.0494,0.0613 0.336,0.5001 0.63698,0.97513 0.30098,0.47502 0.59283,0.86368 0.64857,0.86368 0.0557,0 0.13267,-0.15672 0.17098,-0.34826 z m -19.582007,-0.62685 c 0.671384,-1.03672 1.374958,-2.46514 1.374958,-2.79149 0,-0.2408 -0.180935,-0.45655 -0.884026,-1.05415 -0.486214,-0.41327 -0.931711,-0.7514 -0.989992,-0.7514 -0.18666,0 -0.225057,0.41205 -0.238584,2.56023 -0.01307,2.07345 0.0381,2.67761 0.226723,2.67761 0.05277,0 0.28268,-0.28836 0.510921,-0.6408 z m 10.401905,-1.63064 c 0.676071,-0.14375 1.023571,-0.25946 1.643747,-0.54735 0.35393,-0.1643 0.325634,-0.56009 -0.147443,-2.06234 l -0.398191,-1.26446 -1.022711,-0.99392 c -0.562491,-0.54665 -1.089442,-0.99435 -1.171001,-0.99488 -0.205712,-10e-4 -1.963993,1.80429 -2.181457,2.24021 -0.09775,0.19594 -0.177727,0.43882 -0.177727,0.53973 0,0.10092 -0.04068,0.23113 -0.0904,0.28935 -0.14957,0.17516 -0.503824,1.79894 -0.43283,1.98395 0.145857,0.3801 1.704287,0.93011 2.696418,0.95163 0.306493,0.007 0.883211,-0.0572 1.281598,-0.14192 z m -4.877279,-1.21117 c 0.308757,-0.47396 0.753836,-2.0674 0.753836,-2.69881 0,-0.94964 -0.619348,-2.95693 -0.912359,-2.95693 -0.216306,0 -2.028323,0.47505 -2.418363,0.63401 -0.471677,0.19224 -2.575772,2.23117 -2.575772,2.496 0,0.30217 1.564522,1.84046 2.192628,2.15587 0.613707,0.30818 1.723465,0.59097 2.39159,0.60943 0.304953,0.008 0.445476,-0.0508 0.56844,-0.23957 z m 9.295104,0.0759 c 0.414737,-0.0962 1.027437,-0.30873 1.361557,-0.47233 1.01366,-0.49635 2.28619,-1.90528 2.06056,-2.28144 -0.0449,-0.0748 -0.46066,-0.5491 -0.92396,-1.05397 -0.87962,-0.95852 -1.28976,-1.22161 -2.402571,-1.5412 -0.367762,-0.10562 -0.86642,-0.26348 -1.108127,-0.3508 -0.416145,-0.15033 -0.449206,-0.14585 -0.622922,0.0844 -0.259913,0.34457 -0.640252,1.60089 -0.727567,2.40326 -0.09112,0.83737 0.06919,1.63529 0.529331,2.63467 0.325097,0.70608 0.368856,0.75224 0.712992,0.75224 0.201651,0 0.705969,-0.0787 1.120707,-0.17488 z m 4.831927,-6.21368 c 0,-1.86878 -0.0374,-2.63114 -0.13373,-2.7275 -0.16764,-0.16763 -1.12201,-0.17277 -1.88038,-0.0102 -0.64853,0.13908 -1.77619,0.609 -1.77262,0.73868 0.005,0.16682 0.53038,1.87578 0.70564,2.29354 0.1045,0.24908 0.64515,0.88372 1.30407,1.53076 l 1.12557,1.10529 0.32572,-0.16843 0.32573,-0.16844 z m -19.350543,2.2373 c 0.998654,-0.85448 1.602728,-1.52536 1.8537,-2.05871 0.257308,-0.54681 0.58436,-2.27355 0.455466,-2.40474 -0.121739,-0.12389 -1.226715,-0.40926 -1.590936,-0.41087 -0.16494,-5.6e-4 -0.330886,-0.0514 -0.368767,-0.11276 -0.03789,-0.0613 -0.33547,-0.11145 -0.661307,-0.11145 -0.574367,0 -0.594554,0.0106 -0.662082,0.34826 -0.09358,0.46788 -0.08943,5.16698 0.0047,5.26105 0.145372,0.14538 0.293889,0.0671 0.969282,-0.51078 z m 7.788301,-0.85317 c 0.291146,-0.277 0.529356,-0.56215 0.529356,-0.63369 0,-0.14782 -0.843484,-1.04847 -0.981934,-1.04847 -0.144862,0 -1.00393,0.43451 -1.069806,0.5411 -0.118283,0.19138 0.180053,1.44737 0.399828,1.68327 0.255702,0.27447 0.272875,0.26618 1.122556,-0.54221 z m 3.794556,0.27813 c 0.131977,-0.27622 0.189114,-0.61078 0.167166,-0.97882 -0.03305,-0.55424 -0.03792,-0.56089 -0.553874,-0.75619 l -0.520527,-0.19704 -0.413115,0.42307 c -0.323411,0.3312 -0.398408,0.48167 -0.345385,0.69292 0.08152,0.32481 1.138228,1.34171 1.329721,1.27964 0.07453,-0.0241 0.225734,-0.23277 0.336014,-0.46358 z m -7.785964,-1.69991 c 0.371784,-0.10197 0.808677,-0.2772 0.970873,-0.3894 0.284563,-0.19687 0.290029,-0.22065 0.155879,-0.6783 -0.160858,-0.54876 -0.459804,-0.74882 -1.122602,-0.75125 l -0.448934,-0.002 -0.18964,0.6408 c -0.308769,1.04334 -0.352965,1.36517 -0.18747,1.36517 0.08026,0 0.45011,-0.0834 0.821894,-0.18538 z m 11.3409,0.0147 c 0.0884,-0.0884 -0.11206,-1.06022 -0.30142,-1.46097 -0.177447,-0.37557 -0.357981,-0.48576 -0.795828,-0.48576 -0.418065,0 -0.67877,0.18345 -0.888352,0.62511 -0.269954,0.56889 -0.115963,0.95761 0.433404,1.09406 0.228617,0.0568 0.415668,0.14454 0.415668,0.19502 0,0.0997 1.039588,0.12948 1.136528,0.0325 z M 94.767901,427.19 c 0.455484,-0.39992 0.489868,-0.66203 0.205133,-1.56372 -0.197192,-0.62447 -0.64381,-1.43371 -0.791262,-1.43371 -0.04714,0 -0.154103,0.23821 -0.237688,0.52936 -0.08358,0.29115 -0.198098,0.58858 -0.254473,0.66096 -0.05638,0.0724 -0.131157,0.40925 -0.16618,0.74859 -0.08201,0.79455 0.15809,1.20044 0.826557,1.39733 0.01319,0.004 0.201252,-0.14858 0.417913,-0.33881 z m -2.606357,-0.56003 c 0.359929,-0.15484 0.570024,-0.31936 0.604835,-0.47364 0.02934,-0.13001 0.107088,-0.46206 0.172781,-0.73788 0.404361,-1.69776 0.374944,-1.85651 -0.270153,-1.45782 -0.535363,0.33088 -1.630721,1.57207 -1.629957,1.84698 0.0012,0.448 0.233205,1.05961 0.40187,1.05961 0.09302,0 0.417301,-0.10677 0.720624,-0.23725 z m 5.329693,-0.11372 c 0.235592,-0.67582 0.159029,-0.97033 -0.407011,-1.5656 -0.594593,-0.6253 -1.412127,-1.23119 -1.518169,-1.12515 -0.141894,0.14189 -0.06243,0.77009 0.210653,1.66541 0.297772,0.97624 0.336171,1.02601 0.945326,1.22531 0.58786,0.19234 0.636884,0.1796 0.769201,-0.19997 z m -6.465638,-2.09899 c 0.690521,-0.57466 1.238706,-1.20892 1.238706,-1.43322 0,-0.1844 -0.338158,-0.16025 -1.374473,0.0982 -1.520763,0.37919 -1.817128,0.6193 -1.72678,1.39898 0.02616,0.22579 0.115806,0.3374 0.315171,0.39241 0.635998,0.1755 0.871683,0.106 1.547376,-0.45632 z m 8.196656,0.44673 c 0.333331,-0.12673 0.37428,-0.46696 0.127335,-1.05799 -0.168171,-0.40248 -0.19992,-0.41693 -1.717148,-0.78131 -0.887288,-0.21309 -1.244736,-0.21623 -1.244736,-0.0109 0,0.17477 1.373005,1.6265 1.727371,1.82641 0.27747,0.15654 0.732389,0.16634 1.107178,0.0238 z m -10.91114,-0.86306 c 0.236555,-0.56616 0.178617,-0.78762 -0.309027,-1.18125 -0.377714,-0.30488 -0.443362,-0.32306 -0.690084,-0.19102 -0.408645,0.2187 -1.17708,0.99129 -1.17708,1.18345 0,0.24603 0.86421,0.59807 1.475128,0.6009 0.504693,0.002 0.535462,-0.0158 0.701063,-0.41208 z m 13.456245,0.3116 c 0.23123,-0.0537 0.55169,-0.18363 0.71213,-0.28875 l 0.2917,-0.19113 -0.70437,-0.65586 c -0.38741,-0.36072 -0.77836,-0.65586 -0.86878,-0.65586 -0.16127,0 -0.89628,0.50005 -1.03706,0.70555 -0.0794,0.11585 0.034,0.58365 0.23037,0.95056 0.14141,0.26423 0.61899,0.31125 1.37601,0.13549 z m 2.84987,-2.50681 c -0.0211,-1.12889 -0.0738,-2.08782 -0.11699,-2.13096 -0.13051,-0.13033 -1.05281,0.47703 -1.5614,1.02823 -0.26261,0.28461 -0.56524,0.59555 -0.6725,0.69098 -0.26712,0.23764 -0.24595,0.40521 0.11144,0.88213 0.58607,0.78207 1.59948,1.58215 2.00403,1.58215 h 0.27386 z m -19.792695,1.75999 c 0.45228,-0.23388 1.510686,-1.23506 1.707009,-1.6147 0.147406,-0.28505 0.130346,-0.31519 -0.540115,-0.95398 -0.886725,-0.84486 -1.512516,-1.31492 -1.61477,-1.21293 -0.09676,0.0965 -0.182604,3.56978 -0.09393,3.80085 0.07809,0.2035 0.113519,0.20224 0.541809,-0.0192 z m 9.994334,-0.9846 c 0.522993,-0.27045 0.605568,-0.95815 0.171286,-1.4265 -0.308063,-0.33224 -0.735031,-0.3952 -1.210575,-0.17853 -0.594233,0.27075 -0.576175,1.27003 0.02889,1.59874 0.379337,0.20608 0.621146,0.20758 1.010399,0.006 z M 90.888908,422.241 c 1.428436,-0.44963 1.327005,-0.59199 -0.822197,-1.15405 l -0.804552,-0.2104 -0.449185,0.33033 c -0.247051,0.18169 -0.449184,0.42265 -0.449184,0.53547 0,0.11282 0.188061,0.36232 0.417912,0.55443 0.48566,0.40591 0.654623,0.40144 2.107206,-0.0558 z m 8.823711,0.23371 c 0.167681,-0.0867 0.374591,-0.28791 0.459791,-0.44712 0.14313,-0.26744 0.13178,-0.31362 -0.14901,-0.6067 -0.57354,-0.59865 -0.673497,-0.60863 -1.964045,-0.19602 -1.505367,0.48128 -1.554169,0.65536 -0.289183,1.03152 0.484534,0.14407 0.906626,0.28762 0.937981,0.31897 0.113079,0.11308 0.706064,0.0536 1.004466,-0.10065 z m 2.023861,-1.82046 c 0.60358,-0.47055 0.97267,-0.9948 0.81287,-1.15461 -0.057,-0.057 -0.50133,-0.17438 -0.98737,-0.26083 -0.79709,-0.14177 -0.89722,-0.13965 -1.02159,0.0216 -0.21727,0.28174 -0.2953,0.90997 -0.14737,1.18638 0.10819,0.20215 0.61252,0.61022 0.76921,0.62239 0.021,0.002 0.27941,-0.1851 0.57425,-0.41495 z m -13.777066,0.0749 c 0.46485,-0.36565 0.536465,-0.58338 0.343658,-1.04483 -0.09307,-0.22275 -0.247531,-0.43504 -0.343254,-0.47177 -0.247775,-0.0951 -1.692635,0.19573 -1.837058,0.36975 -0.0923,0.11121 0.02457,0.29089 0.495638,0.76195 0.672204,0.67221 0.894609,0.73605 1.341016,0.3849 z m 4.188641,-0.39405 c -0.05623,-0.1479 -0.287433,-0.43124 -0.513779,-0.62963 -0.226344,-0.19839 -0.485681,-0.43594 -0.576305,-0.52788 -0.561629,-0.5698 -1.380528,-0.73918 -1.726326,-0.35708 -0.219962,0.24306 -0.142696,0.93113 0.132523,1.18015 0.09967,0.0902 0.582415,0.26482 1.072766,0.38808 1.565148,0.39342 1.778394,0.38632 1.611121,-0.0536 z m 6.293457,0.0102 c 0.719144,-0.20906 1.066606,-0.57677 1.066606,-1.12876 0,-0.31871 -0.05835,-0.40466 -0.378292,-0.55723 -0.225288,-0.10743 -0.492114,-0.15182 -0.659711,-0.10976 -0.321933,0.0808 -1.836031,1.39281 -1.850165,1.60322 -0.0052,0.0766 -0.05951,0.13931 -0.120801,0.13931 -0.06129,0 -0.111443,0.0825 -0.111443,0.18328 0,0.15807 0.09887,0.17405 0.718909,0.11614 0.395399,-0.0369 0.996103,-0.14771 1.334897,-0.2462 z m -5.286867,-1.02835 c -0.0022,-0.98244 -0.491182,-2.19522 -0.956315,-2.37207 -0.698697,-0.26564 -0.801084,-0.25527 -0.984674,0.0998 -0.347162,0.67134 -0.254912,0.90127 0.758424,1.89036 0.513508,0.50122 0.989928,0.91131 1.058711,0.91131 0.07507,0 0.124578,-0.2116 0.123854,-0.52935 z m 3.02824,0.11144 c 0.210674,-0.16855 0.641066,-0.59229 0.956426,-0.94164 0.544816,-0.60352 0.567689,-0.6535 0.459085,-1.00298 -0.06287,-0.20231 -0.141164,-0.45559 -0.173998,-0.56285 -0.07843,-0.25621 -0.387128,-0.24667 -0.926806,0.0287 -0.384558,0.19619 -0.460258,0.30235 -0.615859,0.86368 -0.09757,0.35201 -0.220168,0.76539 -0.272432,0.91862 -0.35589,1.04346 -0.158948,1.28261 0.573584,0.69652 z m -1.495895,-0.44577 c 0.269465,-0.75475 0.376344,-1.16294 0.435683,-1.66397 0.0565,-0.47706 0.0305,-0.57102 -0.230159,-0.83168 -0.453296,-0.45329 -0.696557,-0.46655 -1.085887,-0.0592 -0.304571,0.3187 -0.331102,0.40285 -0.269638,0.85513 0.134861,0.9924 0.620752,1.99591 0.970522,2.00443 0.03854,10e-4 0.119299,-0.1362 0.179479,-0.30476 z m -8.886396,-0.2972 c 1.055847,-0.17505 1.760675,-0.43412 1.855852,-0.68214 0.08047,-0.20971 -0.258604,-1.49795 -0.587322,-2.2314 -0.139015,-0.31017 -0.443692,-0.79974 -0.67706,-1.08792 -0.429578,-0.53047 -1.656692,-1.52093 -1.886998,-1.52308 -0.216376,-0.002 -0.271061,0.6499 -0.259873,3.09787 0.01066,2.33082 0.01535,2.37646 0.253775,2.47255 0.320397,0.12911 0.226067,0.13244 1.301626,-0.0459 z m 18.700186,0.0242 c 0.1435,-0.1435 0.1743,-4.62223 0.0362,-5.27127 -0.13557,-0.63733 -0.44342,-0.50322 -1.71278,0.74614 -1.22966,1.21029 -1.24148,1.23012 -1.76626,2.96279 -0.24037,0.79362 -0.24113,0.81478 -0.0346,0.96576 0.19732,0.14428 0.83388,0.34564 1.8838,0.5959 0.64843,0.15455 1.43943,0.15489 1.59364,5.6e-4 z m -14.469756,-1.0311 c 0.06356,-0.0766 0.147498,-0.37222 0.186526,-0.65696 l 0.07096,-0.5177 -0.542295,-0.23988 c -0.298262,-0.13194 -0.763836,-0.26485 -1.034609,-0.29538 l -0.492312,-0.0555 0.0784,0.591 c 0.08589,0.64746 0.308815,1.16247 0.565324,1.30601 0.228291,0.12776 1.027491,0.0377 1.168009,-0.1316 z m 9.839796,0.0783 c 0.30547,-0.34167 0.57506,-1.34227 0.44095,-1.6366 -0.1115,-0.24472 -0.1492,-0.25279 -0.707186,-0.15137 -0.686321,0.12474 -1.195133,0.36347 -1.287457,0.60407 -0.07487,0.19512 0.173433,1.02244 0.337259,1.12369 0.110499,0.0683 0.692646,0.22257 0.920042,0.24383 0.06712,0.006 0.200494,-0.0764 0.296392,-0.18362 z m -6.631387,-2.05164 c 0.199205,-0.24864 0.362191,-0.48539 0.362191,-0.52612 0,-0.17205 -1.20455,-1.35061 -1.380395,-1.35061 -0.208214,0 -0.590686,0.74615 -0.62837,1.22587 -0.05084,0.64721 -0.0025,0.75408 0.420699,0.92961 0.632741,0.26245 0.827818,0.21809 1.225875,-0.27875 z m 3.552989,0.13849 c 0.324247,-0.19772 0.343162,-0.24313 0.266752,-0.64038 -0.140817,-0.73211 -0.338642,-1.36262 -0.44891,-1.43077 -0.05814,-0.0359 -0.382751,0.203 -0.721352,0.53096 -0.693515,0.67172 -0.788825,1.05362 -0.373326,1.4959 0.299366,0.31866 0.798486,0.33597 1.276836,0.0443 z m -6.034198,-0.84507 c 0.07785,-0.24518 0.222885,-0.70595 0.322313,-1.02393 0.336522,-1.07625 0.126375,-2.74849 -0.505443,-4.02204 -0.30489,-0.61457 -0.345299,-0.61855 -1.85786,-0.1828 -1.336758,0.3851 -1.545522,0.50856 -2.523769,1.49258 -0.853406,0.85844 -0.87604,0.89488 -0.727831,1.17181 0.08413,0.15721 0.586958,0.72732 1.117392,1.26692 0.946505,0.96287 0.982879,0.98669 1.957671,1.28227 0.546286,0.16565 1.118621,0.34542 1.271855,0.3995 0.551381,0.19459 0.793051,0.0964 0.945672,-0.38431 z m 8.129043,0.39208 c 2.462093,-0.78716 2.250133,-0.67301 3.430253,-1.84737 0.60011,-0.59719 1.09111,-1.15237 1.09111,-1.23374 0,-0.2138 -1.71179,-1.83559 -2.24628,-2.12816 -0.2492,-0.13641 -0.63558,-0.27931 -0.85863,-0.31754 -0.22305,-0.0383 -0.728442,-0.16613 -1.123086,-0.28421 -0.57999,-0.17352 -0.743174,-0.18743 -0.85128,-0.0725 -0.123734,0.13153 -0.344448,0.73154 -0.728706,1.98098 -0.240067,0.7806 -0.194073,1.93465 0.11548,2.89753 0.381535,1.18679 0.441535,1.23828 1.171139,1.00502 z m -4.191635,-1.19973 c 1.25859,-0.93873 2.114375,-2.3052 2.444968,-3.90398 0.233633,-1.12988 0.232454,-1.13141 -1.164771,-1.52161 -1.495051,-0.41751 -2.49148,-0.3939 -3.655803,0.0866 l -0.891546,0.36796 0.01701,0.50911 c 0.0094,0.28001 0.172394,1.006 0.362307,1.61331 0.335925,1.07425 0.371405,1.13203 1.307429,2.12948 0.529174,0.56389 1.008888,1.02526 1.066032,1.02526 0.05714,0 0.288612,-0.13777 0.514374,-0.30615 z m 9.670858,-2.71475 c 0.19543,-0.21615 0.2123,-0.43268 0.2123,-2.7249 0,-2.74296 -0.0582,-3.01055 -0.51566,-2.37185 -0.14544,0.20307 -0.32078,0.47022 -0.38963,0.59367 -0.0688,0.12345 -0.38162,0.66438 -0.69503,1.20207 -0.8399,1.44095 -0.84578,1.34594 0.15632,2.52419 0.47323,0.5564 0.89619,1.01164 0.93991,1.01164 0.0437,0 0.17502,-0.10567 0.29179,-0.23482 z m -18.930731,-0.61993 c 0.898822,-0.80444 1.089831,-1.11853 0.920382,-1.51342 -0.198448,-0.46247 -1.740468,-2.91173 -1.857813,-2.95084 -0.188085,-0.0627 -0.255408,0.67957 -0.256715,2.83028 -0.0011,2.02932 0.0352,2.37729 0.248847,2.37729 0.06313,0 0.488515,-0.33449 0.945299,-0.74331 z m 16.601661,-2.73446 c 0.41705,-0.62559 0.80842,-1.22297 0.86972,-1.32748 0.69722,-1.18891 1.05871,-1.88561 1.05871,-2.04048 0,-0.27868 -0.83923,-1.46252 -1.25436,-1.76945 -0.63683,-0.47083 -0.66833,-0.46183 -1.60649,0.45892 -1.136609,1.11553 -1.822631,2.16399 -2.237695,3.41992 -0.544018,1.64613 -0.544058,1.56275 8.41e-4,1.78676 0.49592,0.20387 1.305584,0.41044 2.333444,0.59532 0.0427,0.008 0.41877,-0.49791 0.83583,-1.12351 z M 88.664822,408.981 c 0.880063,-0.22719 1.231805,-0.38121 1.304761,-0.57133 0.05571,-0.14519 -0.0955,-0.88788 -0.394285,-1.93648 -0.06113,-0.21453 -0.164213,-0.61269 -0.229082,-0.88482 -0.09981,-0.4187 -0.306302,-0.67996 -1.343239,-1.6995 -0.673914,-0.66262 -1.259875,-1.20476 -1.302137,-1.20476 -0.312111,0 -1.333739,1.11652 -1.73937,1.90092 -0.179786,0.34767 -0.17607,0.37601 0.12902,0.98376 0.455923,0.90823 1.700933,2.91557 2.029741,3.27256 0.326973,0.35501 0.610903,0.38068 1.544591,0.13965 z m 3.432318,-0.88647 c 1.080422,-0.2487 1.470885,-0.38787 1.631726,-0.58157 0.230726,-0.27787 0.214744,-3.7675 -0.01918,-4.18856 l -0.170548,-0.30698 -0.720998,0.39253 c -0.396548,0.21588 -0.896521,0.4725 -1.111049,0.57025 -0.214528,0.0978 -0.415126,0.21232 -0.445773,0.25459 -0.03065,0.0423 -0.231245,0.16181 -0.445773,0.26563 -0.764524,0.36998 -0.826064,0.45884 -0.688126,0.9935 0.06779,0.26277 0.207339,0.84281 0.3101,1.28895 0.102762,0.44616 0.229857,0.83777 0.282432,0.87027 0.05257,0.0325 0.09559,0.15224 0.09559,0.2661 0,0.35986 0.300976,0.40102 1.281597,0.17529 z m 5.782004,-0.56568 c 0.16041,-0.33879 0.291654,-0.67981 0.291654,-0.75781 0,-0.078 0.04308,-0.18947 0.09574,-0.2477 0.1292,-0.14288 0.35659,-1.35217 0.287911,-1.53114 -0.07827,-0.20397 -3.109628,-1.75087 -3.431069,-1.75087 -0.359568,0 -0.407319,0.28164 -0.407319,2.40237 v 1.70586 l 0.323673,0.23047 c 0.17802,0.12677 0.391155,0.23123 0.473633,0.23215 0.08248,10e-4 0.35056,0.074 0.595735,0.16228 0.245175,0.0883 0.678112,0.16279 0.962082,0.16549 l 0.516309,0.005 z m 0.581872,-0.35682 c -0.113285,-0.11328 -0.206756,0.0573 -0.113809,0.20766 0.07021,0.11361 0.09646,0.1137 0.134212,4.5e-4 0.02581,-0.0774 0.01663,-0.17108 -0.0204,-0.20811 z M 90.5652,403.78265 c 1.708286,-0.91356 2.590651,-1.47611 2.590651,-1.65166 0,-0.097 -0.173077,-0.2695 -0.384616,-0.38342 -0.344088,-0.18531 -0.576015,-0.20112 -2.201005,-0.1501 -1.917276,0.0602 -2.8751,0.27165 -2.8751,0.63472 0,0.16947 1.758601,2.01213 1.920341,2.01213 0.04755,0 0.474924,-0.20775 0.949729,-0.46167 z m 9.51821,-0.40202 c 0.46677,-0.47502 0.90503,-0.97439 0.97391,-1.1097 0.11727,-0.23039 0.088,-0.25818 -0.46124,-0.43752 -0.864551,-0.28232 -4.264307,-0.35579 -4.753674,-0.10272 -0.715074,0.36977 -0.499307,0.56545 2.328392,2.11153 0.398411,0.21784 0.800783,0.39742 0.894161,0.39909 0.09338,0.002 0.551683,-0.38564 1.018451,-0.86068 z" /><path
         style="fill:none;stroke:#ff0000;stroke-width:0.168326;stroke-dasharray:none;stroke-opacity:1"
         d="m 86.079203,463.45168 c -0.183882,-0.027 -0.735526,-0.23893 -1.225877,-0.47095 -1.493043,-0.7065 -2.644474,-2.10581 -3.017713,-3.66736 -0.124572,-0.52119 -0.151016,-6.92098 -0.154169,-37.30776 -0.0022,-23.85102 0.03496,-36.8882 0.106993,-37.27778 0.107818,-0.58298 0.172029,-0.76673 0.530085,-1.51686 0.32677,-0.6846 1.201541,-1.64708 1.946503,-2.14168 0.411083,-0.27293 0.733267,-0.51038 0.715964,-0.52769 -0.0173,-0.0173 -0.578177,-0.0543 -1.246389,-0.0822 -1.267789,-0.053 -1.50019,-0.15062 -1.50019,-0.63016 0,-0.56724 0.779128,-0.95531 2.142959,-1.06738 0.941331,-0.0773 0.907856,-0.0472 1.03135,-0.92964 0.09452,-0.67546 0.244042,-0.97343 0.766254,-1.52707 0.373718,-0.3962 0.419727,-0.49492 0.29866,-0.6408 -0.07871,-0.0948 -0.229262,-0.17244 -0.334555,-0.17244 -0.299638,0 -1.492827,-0.63387 -1.791361,-0.95164 -0.330302,-0.3516 -0.367194,-1.03995 -0.07314,-1.36487 0.107958,-0.11929 0.245961,-0.52534 0.306673,-0.90233 0.06071,-0.37699 0.22199,-0.87872 0.358396,-1.11495 0.313666,-0.54322 0.811574,-1.12693 0.961277,-1.12693 0.246906,0 0.36107,-0.46553 0.286023,-1.16631 -0.08664,-0.80902 0.01825,-1.61977 0.209542,-1.61977 0.07179,0 0.481116,0.27573 0.909612,0.61273 0.428495,0.337 1.054905,0.75375 1.392021,0.92611 1.17949,0.60306 2.009327,1.24141 2.418198,1.86018 0.121505,0.18388 0.434687,0.73553 0.695961,1.22588 0.261273,0.49035 0.597712,1.02224 0.747642,1.18199 0.349906,0.37281 1.105181,0.63792 1.290225,0.45287 0.07171,-0.0717 0.208117,-0.13059 0.303122,-0.13085 0.180825,-4.9e-4 0.828292,-0.31042 1.677222,-0.80288 0.843865,-0.48951 3.200701,-0.95937 3.755052,-0.74861 0.149279,0.0568 0.415637,0.1032 0.591917,0.1032 0.17627,0 0.34748,0.0437 0.38047,0.0971 0.033,0.0534 0.20544,0.12614 0.38321,0.16169 0.38259,0.0765 2.27304,1.15078 3.09942,1.76126 0.3486,0.25753 0.6509,0.4029 0.75487,0.363 0.20516,-0.0787 0.20597,-0.0881 0.0546,-0.63338 -0.15125,-0.54465 -0.77054,-1.58451 -1.24112,-2.08395 -0.66047,-0.701 -2.16621,-2.60563 -2.53849,-3.21099 -0.71329,-1.15987 -0.98004,-2.65229 -0.60825,-3.40305 0.40521,-0.81823 1.52239,-1.29844 3.02074,-1.29844 1.50423,0 2.12877,0.39746 2.87049,1.8268 0.57241,1.10308 0.51666,1.76556 -0.11381,1.35245 -0.15384,-0.10079 -0.30559,-0.2681 -0.33724,-0.3718 -0.15776,-0.51694 -0.82352,-1.65595 -1.07972,-1.84723 -0.72337,-0.54008 -2.31474,-0.28232 -3.09902,0.50196 -0.37548,0.37548 -0.43236,0.49907 -0.43236,0.93939 0,0.27886 0.0802,0.66752 0.17833,0.86368 0.0981,0.19616 0.79472,0.98353 1.54809,1.7497 0.75337,0.76618 1.57289,1.69574 1.82115,2.06569 0.37779,0.56299 1.28294,2.34941 2.20017,4.3423 0.11701,0.25423 0.22453,0.79595 0.25022,1.2607 0.0546,0.98696 -0.0981,1.6611 -0.72689,3.20968 l -0.27663,0.68131 -1.24184,0.0786 c -1.1911,0.0754 -1.52349,0.14577 -1.21204,0.25674 0.32719,0.11657 1.88282,1.35402 2.1593,1.71765 0.40409,0.53146 0.7358,1.13589 0.96214,1.75319 0.176,0.47999 0.18877,3.03725 0.18877,37.79261 0,31.35238 -0.0244,37.34863 -0.15334,37.72355 -0.32825,0.9542 -0.58398,1.37988 -1.28175,2.13354 -0.80334,0.86768 -1.91869,1.52118 -2.9112,1.70571 -0.54421,0.10118 -16.045379,0.13513 -16.716487,0.0366 z"
         id="path112" /></g></g></svg>
