<?xml version="1.0" encoding="UTF-8" standalone="no"?>
<!-- Created with Inkscape (http://www.inkscape.org/) -->

<svg
   width="31.57719mm"
   height="119.99999mm"
   viewBox="0 0 31.57719 119.99999"
   version="1.1"
   id="svg1"
   xmlns="http://www.w3.org/2000/svg"
   xmlns:svg="http://www.w3.org/2000/svg">
  <defs
     id="defs1" />
  <g
     id="layer1"
     transform="translate(-88.912043,-113.57351)">
    <g
       id="g113"
       transform="matrix(1.2000045,0,0,1.2000045,-79.634341,-323.88499)">
      <path
         style="fill:none;stroke:#ff0000;stroke-width:0.15249;stroke-dasharray:none;stroke-opacity:1"
         d="m 144.59219,464.31815 c -0.3396,-0.0743 -0.89498,-0.26662 -1.23417,-0.42748 -0.7984,-0.37862 -1.86674,-1.43591 -2.24121,-2.21802 -0.62919,-1.31411 -0.58672,1.2796 -0.58438,-35.69175 0.002,-27.7418 0.0266,-33.90746 0.13878,-34.37194 0.3025,-1.25306 0.9231,-2.23004 1.9498,-3.06945 0.51104,-0.41781 1.89311,-0.94081 2.49179,-0.94293 0.49485,-0.002 0.64865,-0.18935 0.76019,-0.9273 0.0556,-0.3679 0.17378,-1.03939 0.2626,-1.49219 0.0888,-0.45281 0.18854,-1.1243 0.22161,-1.4922 0.0512,-0.56977 0.10991,-0.7223 0.39603,-1.0291 0.65571,-0.70308 0.68039,-0.92758 0.36454,-3.31653 -0.18149,-1.37265 -0.18605,-1.5639 -0.0483,-2.02759 0.20724,-0.69785 0.53582,-1.05317 1.3004,-1.40623 0.60573,-0.2797 0.73045,-0.29895 1.93386,-0.29843 0.86132,3.7e-4 1.60535,0.0657 2.2517,0.19779 1.01996,0.20839 1.307,0.19696 4.02581,-0.16023 0.65907,-0.0866 1.14666,-0.0844 1.97759,0.009 1.06465,0.1195 1.31553,0.0999 1.31553,-0.10295 0,-0.0524 0.14581,-0.33226 0.32402,-0.62189 0.29674,-0.48226 0.31623,-0.56659 0.23155,-1.00178 -0.0799,-0.41079 -0.13562,-0.48748 -0.4108,-0.56577 -0.37106,-0.10558 -0.65932,-0.53418 -0.65932,-0.98032 0,-0.40687 0.13499,-0.47798 0.53168,-0.28008 0.41576,0.20741 0.49742,0.20304 0.49742,-0.0266 0,-0.22424 -0.33058,-0.54427 -0.81592,-0.78987 -0.4999,-0.25297 -1.67092,-0.66881 -1.88339,-0.66881 -0.38425,0 -0.77287,-0.53931 -1.0382,-1.44074 -0.33877,-1.15096 -0.39938,-1.53981 -0.38914,-2.49639 0.009,-0.83783 0.15678,-1.33493 0.53705,-1.80612 l 0.22355,-0.27698 -0.0734,0.25727 c -0.22206,0.77844 -0.26062,1.0625 -0.26286,1.93633 -0.003,1.09682 0.10291,1.41779 0.41244,1.25214 0.22562,-0.12075 0.48258,-0.56989 0.67607,-1.18172 l 0.13019,-0.41164 0.007,0.34034 c 0.0108,0.53555 -0.20422,1.27521 -0.47789,1.64367 -0.28635,0.38552 -0.25845,0.76128 0.0893,1.20342 0.24193,0.30756 0.76843,0.60481 0.91301,0.51546 0.0549,-0.034 0.0999,-0.26466 0.0999,-0.51268 0,-0.71013 0.26002,-0.71584 0.40816,-0.009 0.0593,0.28293 0.10192,0.31426 0.38946,0.28617 0.29893,-0.0292 0.32818,-0.004 0.39429,0.3491 0.0527,0.28088 0.24975,0.56113 0.75185,1.06927 0.37425,0.37874 0.75378,0.79747 0.84341,0.93052 l 0.16296,0.2419 0.35159,-0.22311 c 0.19337,-0.12271 0.58313,-0.45888 0.86613,-0.74705 0.28301,-0.28816 0.83013,-0.70949 1.21582,-0.93628 0.76919,-0.45229 1.09868,-0.87415 1.09927,-1.40748 6.1e-4,-0.53562 0.25221,-0.34198 0.28903,0.22243 0.0342,0.52443 0.0813,0.57356 0.28847,0.3007 0.20519,-0.27031 0.1711,-0.61885 -0.0963,-0.98452 -0.31014,-0.42414 -0.50644,-1.06129 -0.46345,-1.50426 0.0544,-0.56003 0.25413,-0.49076 0.32562,0.1129 0.0384,0.32433 0.1421,0.61696 0.26061,0.73546 0.19381,0.19381 0.1999,0.19373 0.39932,-0.006 0.37709,-0.37709 0.3955,-1.98955 0.0336,-2.94009 -0.16224,-0.42609 -0.13509,-0.53645 0.0833,-0.33878 0.51504,0.46611 0.71024,2.4286 0.41369,4.15933 -0.15845,0.92477 -0.18171,0.97599 -0.66875,1.47233 -0.5282,0.53827 -1.58219,1.11996 -2.02933,1.11996 -0.31922,0 -0.94925,0.50011 -0.80799,0.64137 0.0622,0.0622 0.17501,0.0569 0.30817,-0.0144 0.22995,-0.12307 0.73053,-0.14842 0.98704,-0.05 0.18665,0.0716 0.21195,0.37375 0.0557,0.66563 -0.0589,0.11001 -0.39462,0.34054 -0.7461,0.51229 l -0.63905,0.31227 -0.32346,0.89596 c -0.1779,0.49278 -0.4195,1.39916 -0.53688,2.01419 -0.26528,1.38992 -0.44356,1.75879 -1.34963,2.79235 -0.39696,0.45281 -0.90135,1.05483 -1.12088,1.33783 -0.36282,0.46771 -0.54425,0.66108 -1.20603,1.28534 -0.11806,0.11137 -0.34961,0.63184 -0.51455,1.15659 -0.2837,0.9026 -0.29883,1.04202 -0.28027,2.58276 0.011,0.91003 0.0653,1.68371 0.12319,1.75344 0.0645,0.0777 0.46505,0.1343 1.06093,0.14998 1.21936,0.0321 1.80988,0.18055 2.80975,0.70645 0.51537,0.27106 1.53768,1.34221 1.82567,1.91287 0.64027,1.26872 0.59272,-1.60384 0.59272,35.80059 0,33.39193 -0.004,34.11357 -0.19885,34.79448 -0.51725,1.80874 -1.88478,3.10506 -3.72966,3.53544 -0.84569,0.19729 -14.66611,0.18945 -15.57294,-0.009 z m 6.08844,-19.89063 c 0.2508,-0.15775 0.4375,-0.34954 0.4218,-0.43332 -0.0155,-0.0827 -0.30574,-0.30832 -0.645,-0.50145 -1.46448,-0.83367 -2.45797,-1.35498 -2.58228,-1.35498 -0.12078,0 -1.90531,1.7596 -1.97378,1.94622 -0.0381,0.10376 0.70633,0.4347 1.18836,0.5283 0.21117,0.041 1.00426,0.0799 1.76243,0.0864 1.33585,0.0115 1.39242,0.003 1.82847,-0.27116 z m 7.52141,0.0402 c 0.18395,-0.0958 0.33445,-0.2318 0.33445,-0.30228 0,-0.22867 -1.78721,-1.92478 -2.02817,-1.92478 -0.22486,0 -0.85602,0.31507 -2.08823,1.04244 -1.19481,0.70528 -1.2283,0.76646 -0.64318,1.17466 l 0.38591,0.26923 1.85238,-0.0425 c 1.4792,-0.034 1.91976,-0.0777 2.18684,-0.21671 z m 2.05422,-1.37805 c 0.3318,-0.32545 0.68406,-0.76386 0.78279,-0.97423 0.17843,-0.38016 0.17768,-0.38611 -0.1226,-0.97764 -0.3145,-0.61954 -0.97256,-1.75459 -1.12067,-1.93298 -0.047,-0.0566 -0.30326,-0.44011 -0.56947,-0.85224 -0.26622,-0.41214 -0.55354,-0.77601 -0.6385,-0.80861 -0.166,-0.0637 -1.53004,0.22073 -1.82512,0.38058 -0.0983,0.0532 -0.27194,0.0968 -0.38591,0.0968 -0.29485,0 -0.27043,0.20637 0.21947,1.85446 l 0.42669,1.43543 1.14269,1.18453 c 0.62848,0.65149 1.22024,1.18478 1.31502,1.18508 0.0948,3.1e-4 0.4438,-0.26573 0.77561,-0.59118 z m -14.07592,-0.54838 c 0.56847,-0.57046 1.11917,-1.16091 1.22378,-1.3121 0.27835,-0.40231 0.89757,-2.6288 0.85323,-3.06792 -0.0121,-0.11947 -1.25743,-0.48228 -2.0359,-0.59313 l -0.42894,-0.0611 -0.42007,0.62905 c -0.23103,0.34598 -0.42006,0.66442 -0.42006,0.70764 0,0.0432 -0.0721,0.13845 -0.16032,0.21163 -0.0882,0.0732 -0.22678,0.27566 -0.30803,0.44997 -0.0812,0.1743 -0.33278,0.59477 -0.55897,0.93438 -0.64215,0.96415 -0.65576,1.02138 -0.3705,1.55725 0.3227,0.60618 1.19479,1.57801 1.41782,1.57997 0.0959,10e-4 0.63949,-0.46521 1.20796,-1.03567 z m 5.58226,0.0511 c 0.084,-0.48143 0.0299,-3.21096 -0.0686,-3.45757 -0.10333,-0.25884 -1.45666,-0.69019 -2.19045,-0.69817 -0.39118,-0.004 -0.37864,-0.0283 -0.86301,1.65274 -0.37095,1.28736 -0.43503,1.10432 0.63401,1.81093 0.66682,0.44075 2.168,1.17117 2.3151,1.12644 0.0564,-0.0171 0.1342,-0.21262 0.1729,-0.43437 z m 2.22124,-0.002 c 0.49464,-0.26044 1.16563,-0.6375 1.49108,-0.8379 0.68197,-0.41994 0.71318,-0.54022 0.39634,-1.52732 -0.10746,-0.3348 -0.27015,-0.87265 -0.36153,-1.19522 -0.0914,-0.32258 -0.20027,-0.60697 -0.24198,-0.63199 -0.086,-0.0516 -1.18087,0.16934 -1.87676,0.37867 -0.67785,0.2039 -0.75848,0.4332 -0.76579,2.17764 -0.006,1.39693 0.11839,2.10966 0.36775,2.10966 0.0503,0 0.49624,-0.21309 0.99089,-0.47354 z m 7.74286,-4.61716 c 0,-2.17958 -0.0165,-2.40473 -0.18713,-2.55919 -0.17457,-0.15798 -0.20737,-0.15387 -0.48882,0.0612 -0.16593,0.12682 -0.46252,0.38109 -0.65908,0.56504 -0.19657,0.18395 -0.38811,0.33446 -0.42564,0.33446 -0.0375,0 -0.14672,0.16535 -0.24262,0.36744 -0.16307,0.34365 -0.16326,0.39528 -0.003,0.79755 0.0943,0.23657 0.38252,0.77743 0.64057,1.20194 0.46921,0.77187 0.70606,1.18003 0.94443,1.62748 0.10202,0.19149 0.15575,0.21424 0.27408,0.11603 0.11991,-0.0995 0.14719,-0.56503 0.14719,-2.51199 z m -18.13207,1.72039 c 0.56014,-0.82989 1.46418,-2.67537 1.39671,-2.8512 -0.031,-0.0806 -0.15655,-0.21291 -0.27915,-0.294 -0.1226,-0.0811 -0.52042,-0.41367 -0.88404,-0.73908 -0.92256,-0.8256 -0.93436,-0.8016 -0.93257,1.89721 0.001,2.08774 0.0419,2.57881 0.21258,2.57881 0.0479,0 0.2668,-0.26628 0.48647,-0.59174 z m 9.61195,-1.61829 c 0.83841,-0.16043 1.67945,-0.49924 1.75994,-0.70898 0.12112,-0.31566 -0.62086,-2.62632 -0.97661,-3.04131 -0.48469,-0.56541 -1.65346,-1.65502 -1.77525,-1.65502 -0.22579,0 -1.7031,1.54624 -1.95115,2.04219 -0.36529,0.73037 -0.68018,1.80682 -0.68018,2.32518 0,0.43418 0.0258,0.47827 0.38591,0.66095 0.45525,0.23089 1.25447,0.41009 2.28974,0.51338 0.0849,0.008 0.51132,-0.0529 0.9476,-0.13639 z m -4.42182,-1.26319 c 0.7536,-1.73901 0.78208,-2.84441 0.11798,-4.57949 -0.1029,-0.26885 -0.23501,-0.48882 -0.29357,-0.48882 -0.27312,0 -1.50698,0.31833 -2.06606,0.53302 -0.7461,0.28653 -0.80258,0.32939 -1.84094,1.39699 -0.95372,0.98058 -0.95369,0.94745 -0.002,1.96871 0.85675,0.91893 2.18783,1.52494 3.39644,1.54631 0.50617,0.009 0.52507,-0.002 0.6877,-0.37672 z m 8.43024,0.22812 c 0.92313,-0.19419 1.64387,-0.52865 2.23555,-1.0374 0.49975,-0.42971 1.04123,-1.12705 1.04123,-1.34094 0,-0.14694 -1.59053,-1.91266 -1.94918,-2.16386 -0.11678,-0.0818 -0.66376,-0.26747 -1.2155,-0.4126 -1.54734,-0.40701 -1.49174,-0.40654 -1.69369,-0.0144 -0.29253,0.56805 -0.51801,1.63567 -0.51269,2.42751 0.005,0.79678 0.0943,1.1657 0.50823,2.10776 0.30039,0.68369 0.34315,0.69539 1.58605,0.43394 z m -12.19934,-4.69896 c 0.46436,-0.50421 0.76233,-1.20123 0.97142,-2.2724 0.17332,-0.88787 0.14358,-0.91854 -1.16155,-1.19795 -1.22187,-0.26158 -1.78238,-0.27707 -1.86889,-0.0516 -0.12052,0.31407 -0.0699,4.9341 0.0554,5.05943 0.0886,0.0886 0.2997,-0.0308 0.84901,-0.47987 0.40212,-0.32876 0.9217,-0.80466 1.1546,-1.05757 z m 16.68713,-1.0902 0.0275,-2.47451 -0.31628,-0.0695 c -0.64775,-0.14227 -2.52956,0.22998 -3.01287,0.59598 -0.16708,0.12653 -0.12609,0.35906 0.31229,1.77181 0.19121,0.61621 0.72048,1.27848 1.92001,2.40244 0.55394,0.51905 0.59985,0.54155 0.8144,0.39916 0.22271,-0.1478 0.22794,-0.20164 0.25491,-2.62541 z m -11.17319,1.80483 c 0.14078,-0.12735 0.4254,-0.38318 0.63249,-0.5685 0.20709,-0.18533 0.37584,-0.39372 0.37499,-0.4631 -8.6e-4,-0.0694 -0.15328,-0.3055 -0.33876,-0.52472 -0.31623,-0.37374 -0.36262,-0.39419 -0.74457,-0.32831 -0.22403,0.0386 -0.49772,0.13733 -0.60819,0.21929 -0.18592,0.13794 -0.19223,0.19939 -0.0849,0.82629 0.0638,0.3725 0.1961,0.76577 0.29399,0.87393 0.21644,0.23916 0.16803,0.24272 0.4749,-0.0349 z m 4.0268,-0.20582 c 0.2218,-0.53341 0.28913,-1.15275 0.14511,-1.3347 -0.0699,-0.0883 -0.3056,-0.21714 -0.52384,-0.28635 -0.49155,-0.15588 -0.78794,-0.0254 -1.05068,0.46245 -0.17546,0.32581 -0.17423,0.34338 0.0457,0.65221 0.2905,0.40797 0.8367,0.83824 1.06595,0.83971 0.10508,5.1e-4 0.23602,-0.13667 0.31779,-0.33332 z m -7.05524,-1.61638 c 0.41132,-0.12567 0.81657,-0.29721 0.90055,-0.38119 0.27743,-0.27742 -0.0668,-1.12416 -0.49197,-1.21028 -0.12664,-0.0257 -0.3523,-0.0722 -0.50148,-0.10355 -0.34986,-0.0734 -0.43139,0.0357 -0.70689,0.9459 -0.20757,0.68576 -0.21891,1.13201 -0.026,1.02203 0.0429,-0.0244 0.41444,-0.14723 0.82576,-0.27291 z m 10.3312,-0.39689 c -0.0194,-0.24414 -0.10012,-0.5683 -0.17945,-0.72037 -0.0793,-0.15206 -0.14453,-0.32896 -0.14488,-0.39312 -8.1e-4,-0.15047 -0.36941,-0.21923 -0.86507,-0.16137 -0.32809,0.0383 -0.4147,0.10142 -0.53532,0.3901 -0.1832,0.43846 -0.18349,0.80749 -7.6e-4,0.95915 0.23033,0.19116 1.01024,0.40693 1.40051,0.38747 0.35912,-0.0179 0.36008,-0.0193 0.32497,-0.46186 z m -5.25789,0.16089 c 0.5224,-0.54836 0.53904,-0.62026 0.31297,-1.35218 -0.23866,-0.77271 -0.44643,-1.20689 -0.66388,-1.38736 -0.12816,-0.10636 -0.18341,-0.0408 -0.3533,0.41913 -0.11077,0.29987 -0.26364,0.79237 -0.33972,1.09444 -0.12685,0.50366 -0.12159,0.58018 0.0635,0.92236 0.1161,0.21464 0.31112,0.4032 0.45911,0.44389 0.14151,0.0389 0.26705,0.0754 0.279,0.081 0.0119,0.006 0.12098,-0.0939 0.2423,-0.22129 z m -2.39141,-0.59392 c 0.53007,-0.22803 0.54563,-0.25795 0.89667,-1.72416 0.0986,-0.41179 0.1517,-0.77625 0.11804,-0.80991 -0.15581,-0.15581 -0.60425,0.12018 -1.29399,0.79637 l -0.75156,0.73682 0.0695,0.46324 c 0.12756,0.85063 0.17376,0.87646 0.96138,0.53764 z m 4.93967,0.0279 c 0.0508,-0.0991 0.12132,-0.36968 0.15664,-0.60138 0.0633,-0.41543 0.0539,-0.43132 -0.68054,-1.14158 -0.73701,-0.71281 -1.17388,-1.02669 -1.28055,-0.92002 -0.0945,0.0945 0.0821,1.11432 0.31402,1.81397 0.21692,0.65421 0.2331,0.67277 0.73634,0.8445 0.64701,0.22079 0.64311,0.22077 0.75409,0.005 z m -5.62075,-2.37671 c 0.85816,-0.82873 0.98977,-1.14951 0.47049,-1.14668 -0.42626,0.003 -2.07639,0.50819 -2.25909,0.69255 -0.0986,0.0995 -0.20891,0.36865 -0.24514,0.59811 -0.0583,0.36909 -0.038,0.43061 0.17559,0.53331 0.13282,0.0639 0.41713,0.11924 0.63182,0.12307 0.35135,0.006 0.47385,-0.0737 1.22633,-0.80036 z m 7.21463,0.68901 c 0.34426,-0.1812 0.3656,-0.27476 0.18068,-0.79195 l -0.17128,-0.47901 -0.97286,-0.27614 c -1.02248,-0.29021 -1.64178,-0.36034 -1.64178,-0.18591 0,0.15161 1.45569,1.65562 1.69801,1.75439 0.29948,0.12207 0.65042,0.1138 0.90723,-0.0214 z m 2.85376,-0.65597 c 0.16,-0.0827 0.31721,-0.193 0.34936,-0.24502 0.0765,-0.12378 -1.16384,-1.24517 -1.37504,-1.24318 -0.0894,0.001 -0.34084,0.15238 -0.55875,0.33676 -0.39247,0.33208 -0.3951,0.33927 -0.28028,0.76566 0.17682,0.65667 0.30142,0.73574 0.98938,0.62786 0.32143,-0.0504 0.71533,-0.15935 0.87533,-0.24208 z m -12.92262,-0.0439 c 0.27375,-0.52937 0.20288,-0.84426 -0.26441,-1.17497 l -0.41703,-0.29512 -0.36374,0.19221 c -0.38615,0.20406 -0.95893,0.82246 -0.95893,1.03533 0,0.24742 0.72528,0.52335 1.41237,0.53733 0.38141,0.008 0.45399,-0.0284 0.59174,-0.29478 z m 15.07895,-2.10869 c 0,-1.18091 -0.0397,-1.92231 -0.10513,-1.96274 -0.24813,-0.15335 -2.2618,1.58506 -2.2618,1.95263 0,0.3589 1.76286,1.90787 2.17131,1.90787 0.18515,0 0.19562,-0.10158 0.19562,-1.89776 z m -18.00145,1.43889 c 0.72699,-0.52229 0.98372,-0.7622 1.29263,-1.20796 l 0.27703,-0.39976 -0.22683,-0.15888 c -0.12476,-0.0874 -0.30603,-0.23863 -0.40282,-0.33609 -0.0968,-0.0975 -0.46665,-0.42573 -0.82192,-0.72948 -0.47572,-0.40674 -0.67623,-0.52199 -0.76089,-0.43734 -0.13078,0.13078 -0.25493,2.93425 -0.14869,3.35755 0.088,0.35072 0.19777,0.33851 0.79149,-0.088 z m 9.20856,-0.94715 c 0.29321,-0.34094 0.30584,-0.45414 0.0959,-0.86006 -0.2995,-0.57916 -0.97361,-0.6932 -1.42564,-0.24118 -0.36376,0.36376 -0.35943,0.80823 0.0117,1.19854 0.24105,0.25351 0.3411,0.29 0.67495,0.24616 0.26128,-0.0343 0.47566,-0.14882 0.64306,-0.34346 z m -3.9922,-0.0103 c 0.7228,-0.2006 1.05335,-0.37137 1.05335,-0.54417 0,-0.13382 -1.07737,-0.49837 -1.84986,-0.62595 -0.71041,-0.11732 -0.71484,-0.11658 -1.07088,0.17949 -0.40304,0.33515 -0.44453,0.51366 -0.18886,0.81257 0.42593,0.49796 0.79003,0.52948 2.05625,0.17806 z m 8.25911,0.12888 c 0.29402,-0.15204 0.51249,-0.43633 0.51249,-0.66688 0,-0.18828 -0.64588,-0.72134 -0.87401,-0.72134 -0.23274,0 -1.58819,0.35337 -2.03319,0.53006 -0.41015,0.16286 -0.34754,0.36981 0.15436,0.51027 0.24055,0.0673 0.69207,0.20481 1.00337,0.30553 0.71074,0.22994 0.8641,0.23519 1.23698,0.0423 z m -10.4369,-2.06239 c 0.0595,-0.23707 -0.0714,-0.57736 -0.34128,-0.88731 -0.10866,-0.12478 -0.25376,-0.15764 -0.52705,-0.11934 -0.51071,0.0716 -1.35476,0.34209 -1.35476,0.43418 0,0.17645 0.55322,0.8018 0.93783,1.06011 l 0.4178,0.28059 0.40451,-0.26769 c 0.22247,-0.14723 0.4308,-0.37248 0.46295,-0.50054 z m 12.91734,-0.19383 c 0.10579,-0.17351 0.17714,-0.36177 0.15856,-0.41837 -0.032,-0.0974 -1.25303,-0.43669 -1.6363,-0.4547 -0.19397,-0.009 -0.49021,0.57336 -0.49021,0.96388 0,0.25806 0.34019,0.61598 0.72043,0.75798 0.21352,0.0797 0.325,0.0426 0.6562,-0.21863 0.21943,-0.17308 0.48553,-0.45665 0.59132,-0.63016 z m -9.48851,0.56648 c 0.19869,-0.12576 -0.0463,-0.49403 -0.78743,-1.18376 -0.75275,-0.70052 -1.05437,-0.82552 -1.52122,-0.63045 -0.33498,0.13996 -0.35888,0.18097 -0.35888,0.61592 0,0.69115 0.24418,0.81771 2.46984,1.28015 0.0283,0.006 0.11726,-0.031 0.19769,-0.0819 z m 5.55871,-0.21972 c 0.9454,-0.25811 1.26817,-0.55121 1.22125,-1.10899 -0.0282,-0.3357 -0.0705,-0.38229 -0.44286,-0.48865 -0.32056,-0.0916 -0.46942,-0.0884 -0.67277,0.0143 -0.41036,0.2073 -1.6427,1.42131 -1.6427,1.61826 0,0.24673 0.55122,0.23419 1.53708,-0.035 z m -1.27932,-1.38014 c 0.48083,-0.47976 0.87355,-0.93128 0.8727,-1.00337 -0.004,-0.31281 -0.30182,-0.9573 -0.45736,-0.98874 -0.0935,-0.0189 -0.37373,0.0614 -0.62274,0.17844 -0.38504,0.18099 -0.47039,0.27848 -0.57063,0.65183 -0.0648,0.24146 -0.15933,0.54495 -0.21,0.67443 -0.0507,0.12948 -0.12186,0.48838 -0.15819,0.79755 -0.0936,0.7961 0.0863,0.74744 1.14622,-0.31014 z m -3.24216,0.56166 c 0,-0.25717 -0.36502,-1.63559 -0.52765,-1.99251 -0.083,-0.1822 -0.27623,-0.31499 -0.62862,-0.43204 -0.59434,-0.19741 -0.67834,-0.14944 -0.86899,0.49626 l -0.12779,0.43281 0.85159,0.85159 c 0.86941,0.86941 1.30146,1.08317 1.30146,0.64389 z m 1.4762,-0.88054 c 0.39128,-1.42971 0.3604,-1.7619 -0.19578,-2.10564 l -0.36648,-0.2265 -0.2606,0.24373 c -0.40844,0.382 -0.45494,0.5363 -0.34216,1.13552 0.15287,0.81228 0.64093,1.76378 0.86968,1.69549 0.0552,-0.0165 0.18806,-0.35064 0.29534,-0.7426 z m -8.06244,0.10843 c 1.2951,-0.2624 1.56614,-0.46929 1.42686,-1.08917 -0.28297,-1.25943 -0.78907,-2.30608 -1.40982,-2.91561 -0.51015,-0.50094 -1.32921,-1.08591 -1.52149,-1.08665 -0.0633,-2.4e-4 -0.14388,0.17323 -0.17896,0.38548 -0.0898,0.54298 -0.0789,4.47724 0.0127,4.62057 0.0689,0.10782 0.34254,0.19155 0.74452,0.22782 0.0849,0.008 0.50168,-0.0564 0.92619,-0.14244 z m 16.95957,0.033 c 0.15982,-0.15982 0.17524,-4.73304 0.017,-5.02878 -0.0586,-0.10948 -0.19029,-0.19905 -0.29266,-0.19905 -0.25415,0 -2.08307,1.80559 -2.34538,2.31547 -0.11647,0.2264 -0.33896,0.82373 -0.49442,1.32739 -0.3252,1.05353 -0.35583,0.99256 0.66624,1.32595 1.06239,0.34653 2.23748,0.4708 2.44926,0.25902 z m -13.78608,-0.80873 c 0.45113,-0.0967 0.51502,-0.14424 0.57107,-0.4245 0.14046,-0.70228 0.0977,-0.79776 -0.47716,-1.0654 -0.59282,-0.27599 -1.15793,-0.32974 -1.23924,-0.11787 -0.0286,0.0746 -0.0125,0.34091 0.036,0.59174 0.0484,0.25083 0.09,0.48454 0.0925,0.51936 0.005,0.0772 0.41554,0.60561 0.46998,0.60561 0.0214,0 0.2675,-0.049 0.54688,-0.10894 z m 9.76203,-0.37988 c 0.2137,-0.50234 0.29701,-1.31431 0.14451,-1.40856 -0.1376,-0.085 -1.19759,0.2032 -1.52838,0.41561 -0.26346,0.16918 -0.30437,0.56479 -0.10291,0.99515 0.14497,0.30966 0.25188,0.35483 0.87999,0.37177 0.41778,0.0113 0.45183,-0.01 0.60679,-0.37397 z m -6.53333,-1.35677 c 0.0937,-0.10946 0.24804,-0.31751 0.34293,-0.46233 0.16802,-0.25642 0.16372,-0.2734 -0.16462,-0.64998 -0.43306,-0.49668 -0.83939,-0.84949 -0.97857,-0.84965 -0.17556,-2e-4 -0.44951,0.67675 -0.5214,1.28838 -0.0364,0.31013 -0.0483,0.56457 -0.0264,0.56543 0.0219,0.001 0.22513,0.0683 0.45154,0.14984 0.55316,0.19929 0.69584,0.19266 0.89649,-0.0417 z m 3.51185,-0.13873 c 0.25803,-0.1799 0.2842,-0.24682 0.22533,-0.57608 -0.0835,-0.46686 -0.27377,-1.05298 -0.39631,-1.22074 -0.12243,-0.1676 -0.80912,0.36599 -1.16702,0.90682 -0.24778,0.37441 -0.25042,0.39632 -0.0792,0.65761 0.3647,0.5566 0.84031,0.6346 1.4172,0.23239 z m -5.7546,-0.34217 c 0.0895,-0.0344 0.16278,-0.15202 0.16278,-0.26148 0,-0.10946 0.0944,-0.49121 0.20977,-0.84832 0.27796,-0.86037 0.3027,-1.47581 0.0973,-2.42009 -0.24645,-1.13306 -0.54084,-1.83956 -0.80947,-1.94265 -0.21021,-0.0807 -1.94225,0.32824 -2.49913,0.59 -0.5378,0.2528 -2.04106,1.70185 -2.04106,1.96746 0,0.0983 0.45151,0.63623 1.00337,1.19544 1.00065,1.01397 1.00589,1.0175 1.92956,1.29846 0.5094,0.15494 1.04196,0.32222 1.18346,0.37173 0.32542,0.11386 0.55655,0.12884 0.76341,0.0495 z m 8.0667,-0.19353 c 0.49219,-0.14081 1.06441,-0.31634 1.27161,-0.39007 0.42038,-0.14961 1.92758,-1.47246 2.31242,-2.02959 l 0.2488,-0.36019 -1.00588,-0.95087 c -0.55323,-0.52298 -1.07919,-0.95134 -1.16881,-0.95192 -0.0896,-5.1e-4 -0.19559,-0.0337 -0.23548,-0.0736 -0.0784,-0.0784 -1.83611,-0.54465 -2.17433,-0.5768 -0.17556,-0.0167 -0.27075,0.16955 -0.64746,1.2668 -0.38577,1.12362 -0.43484,1.3645 -0.38785,1.90383 0.0756,0.86768 0.57642,2.41839 0.78106,2.41839 0.0611,0 0.51373,-0.11521 1.00592,-0.256 z m -4.19407,-1.04386 c 0.68245,-0.49029 1.39545,-1.37164 1.76569,-2.1826 0.32405,-0.70981 0.60093,-2.21529 0.43697,-2.37598 -0.20337,-0.1993 -1.77932,-0.55407 -2.65688,-0.59811 -0.80072,-0.0402 -1.00444,-0.0121 -1.66664,0.22938 -0.41493,0.15134 -0.80914,0.34108 -0.87601,0.42167 -0.17016,0.20502 -0.0759,0.94729 0.25751,2.0272 0.26377,0.85441 0.32819,0.95722 1.17223,1.87077 0.49122,0.53166 0.92775,0.96997 0.97007,0.974 0.0423,0.004 0.311,-0.16081 0.59706,-0.36633 z m 8.83455,-2.44504 c 0.22732,-0.24198 0.23053,-0.2828 0.19803,-2.51636 -0.0206,-1.41367 -0.0741,-2.31135 -0.1418,-2.37895 -0.14248,-0.14221 -0.33185,0.12173 -1.2759,1.7783 -0.84264,1.47861 -0.83834,1.40515 -0.12793,2.18638 0.20932,0.23018 0.51626,0.58908 0.68209,0.79755 0.16583,0.20847 0.33142,0.37904 0.36797,0.37904 0.0366,0 0.17045,-0.11069 0.29754,-0.24596 z m -17.52089,-0.50014 c 0.37608,-0.35375 0.76566,-0.77605 0.86573,-0.93843 0.18047,-0.29282 0.17908,-0.29976 -0.16911,-0.84407 -0.19309,-0.30185 -0.35107,-0.57666 -0.35107,-0.61069 0,-0.034 -0.20146,-0.372 -0.44769,-0.75104 -0.24622,-0.37904 -0.50521,-0.79833 -0.57554,-0.93176 -0.27704,-0.52566 -0.365,-0.0661 -0.40239,2.10228 -0.0384,2.22557 -0.002,2.6169 0.244,2.6169 0.0838,0 0.45999,-0.28943 0.83607,-0.64319 z m 3.26739,-1.83544 c 1.16362,-0.34141 1.15111,-0.30506 0.67847,-1.97057 -0.2206,-0.77734 -0.44548,-1.49514 -0.49974,-1.5951 -0.16845,-0.31034 -2.13717,-2.1885 -2.29403,-2.1885 -0.22891,0 -0.98235,0.79841 -1.39595,1.47925 l -0.37209,0.61254 0.29574,0.57494 c 0.41058,0.7982 1.58675,2.67731 1.88966,3.01905 0.31114,0.35101 0.68355,0.36601 1.69794,0.0684 z m 11.76364,-0.22276 c 0.42565,-0.59482 1.66312,-2.59827 1.94495,-3.14886 0.17778,-0.34733 0.20773,-0.50865 0.13378,-0.72077 -0.1288,-0.36947 -1.37185,-1.66178 -1.59843,-1.66178 -0.46663,0 -1.60624,1.1222 -2.32697,2.29141 -0.44182,0.71674 -0.97531,2.03998 -1.00546,2.4939 -0.0409,0.61559 -0.021,0.64323 0.59303,0.82325 0.32545,0.0954 0.68435,0.21237 0.79755,0.25989 0.1132,0.0475 0.41794,0.0895 0.6772,0.0934 0.43994,0.007 0.49224,-0.0222 0.78435,-0.4304 z m -7.7459,-0.81098 c 0.523,-0.18209 0.58255,-0.39585 0.56967,-2.04477 -0.0128,-1.63536 -0.0949,-2.19905 -0.32704,-2.24367 -0.0967,-0.0186 -0.65242,0.23193 -1.23492,0.5567 -0.58249,0.32479 -1.28375,0.70067 -1.55835,0.8353 -0.49064,0.24055 -0.49811,0.25138 -0.43115,0.62541 0.0375,0.20934 0.10865,0.51955 0.15818,0.68935 0.0495,0.1698 0.14462,0.51712 0.21132,0.77183 0.0667,0.2547 0.20961,0.65119 0.31759,0.88108 l 0.19633,0.41799 0.84679,-0.17414 c 0.46573,-0.0958 1.02894,-0.23756 1.25158,-0.31508 z m 4.41954,-0.80985 c 0.21514,-0.56354 0.3731,-1.16068 0.37292,-1.40976 l -3.1e-4,-0.43212 -1.05482,-0.6223 c -1.23399,-0.72799 -2.06973,-1.03886 -2.26538,-0.84266 -0.0917,0.0919 -0.12636,0.63279 -0.124,1.93375 0.004,2.04671 -0.0397,1.93849 0.90346,2.25055 0.74611,0.24686 1.53654,0.34593 1.67899,0.21042 0.0637,-0.0606 0.28386,-0.55018 0.48914,-1.08788 z m -6.91438,-2.90721 c 0.41635,-0.24055 0.9802,-0.55314 1.25301,-0.69464 0.2728,-0.1415 0.66423,-0.40151 0.86983,-0.5778 l 0.37382,-0.32052 -0.44742,-0.22825 c -0.41218,-0.21029 -0.56661,-0.22583 -1.96083,-0.1973 -1.66871,0.0341 -2.78368,0.26176 -2.78368,0.5683 0,0.19321 1.62533,1.88758 1.81067,1.88758 0.0702,0 0.46826,-0.19682 0.8846,-0.43737 z m 8.87469,-0.49278 c 0.49316,-0.51158 0.8783,-0.98523 0.85585,-1.05256 -0.0869,-0.26068 -0.97105,-0.40762 -2.76531,-0.45956 -1.77392,-0.0514 -1.82105,-0.0473 -2.13538,0.18514 -0.17678,0.1307 -0.32143,0.27108 -0.32143,0.31197 0,0.0977 1.07625,0.77318 2.10966,1.3241 0.4528,0.24139 0.86727,0.47988 0.92104,0.52997 0.22331,0.20805 0.48409,0.0442 1.33557,-0.83906 z m -8.26144,-21.37556 c 0.0454,-0.0454 -0.0835,-0.59071 -0.28629,-1.21187 -0.46064,-1.41064 -0.51376,-2.51994 -0.15606,-3.25885 0.45787,-0.94584 0.16829,-0.94537 -0.72463,10e-4 -0.74474,0.78947 -1.35418,1.88603 -1.57976,2.84246 -0.18494,0.78413 -0.19589,1.66906 -0.0215,1.73778 0.20297,0.08 2.67647,-0.0189 2.76824,-0.11069 z m 7.36467,0.0975 c 0.21217,-0.13482 0.27408,-2.66255 0.0985,-4.0214 -0.0832,-0.64406 -0.20529,-1.20438 -0.27128,-1.24516 -0.066,-0.0408 -1.10102,-0.10266 -2.30008,-0.13751 -1.19905,-0.0349 -2.28384,-0.0934 -2.41063,-0.13014 -0.17956,-0.052 -0.29334,0.009 -0.51455,0.27448 -0.15621,0.1877 -0.56672,0.6445 -0.91224,1.01512 -0.96451,1.03455 -1.04269,1.44857 -0.55926,2.96174 0.49028,1.53465 0.0398,1.36565 3.63521,1.36383 1.71018,-10e-4 3.16562,-0.0373 3.23433,-0.081 z"
         id="path113" />
    </g>
  </g>
</svg>
