<?xml version="1.0" encoding="UTF-8" standalone="no"?>
<!-- Created with Inkscape (http://www.inkscape.org/) -->

<svg
   width="59.222645mm"
   height="139.99989mm"
   viewBox="0 0 59.222645 139.99989"
   version="1.1"
   id="svg1"
   xml:space="preserve"
   xmlns="http://www.w3.org/2000/svg"
   xmlns:svg="http://www.w3.org/2000/svg"><defs
     id="defs1" /><g
     id="layer1"
     transform="translate(-5.9537212,-332.53629)"><g
       id="g120"
       transform="translate(3.8054442,-133.54589)"><path
         style="fill:none;stroke:#ff0000;stroke-width:0.448075;stroke-dasharray:none;stroke-opacity:1"
         d="m 25.649434,605.71458 c -0.272783,-0.0783 -0.936385,-0.23435 -1.474671,-0.34689 -0.538282,-0.11247 -1.048425,-0.25958 -1.133649,-0.32678 -0.08523,-0.0672 -0.410023,-0.20233 -0.721778,-0.30028 -0.311752,-0.098 -0.662475,-0.25762 -0.779383,-0.35483 -0.116902,-0.0972 -0.451689,-0.25348 -0.743959,-0.34733 -0.292269,-0.0938 -0.531397,-0.22449 -0.531397,-0.29033 0,-0.0659 -0.223188,-0.19339 -0.495971,-0.28341 -0.272786,-0.0901 -0.495973,-0.21478 -0.495973,-0.27721 0,-0.0624 -0.1778,-0.18718 -0.395108,-0.27719 -0.628232,-0.26022 -2.961593,-2.42994 -3.518931,-3.27213 -0.198404,-0.29981 -0.453958,-0.58087 -0.567899,-0.62459 -0.113949,-0.0437 -0.300793,-0.30359 -0.415229,-0.57746 -0.114438,-0.27389 -0.270975,-0.49797 -0.347867,-0.49797 -0.0769,0 -0.1398,-0.0735 -0.1398,-0.16322 0,-0.0897 -0.278864,-0.64772 -0.6197,-1.23992 -0.340835,-0.59219 -0.667037,-1.29991 -0.724894,-1.57269 -0.05786,-0.27279 -0.169921,-0.57631 -0.249034,-0.67449 -0.157262,-0.19518 -0.623361,-1.95617 -0.815399,-3.08073 -0.137753,-0.80666 -0.155974,-63.82866 -0.01864,-64.46784 l 0.08952,-0.41661 0.749267,-0.61075 0.749266,-0.61077 h 0.701093 0.701094 l 0.696003,0.42826 0.696001,0.42825 0.210483,0.45741 c 0.115768,0.25158 0.275965,0.68059 0.355996,0.95338 l 0.145505,0.49597 0.0043,31.63149 0.0043,31.63148 0.27049,0.61148 c 0.148776,0.33633 0.313745,0.84205 0.366612,1.12385 0.05287,0.28181 0.185985,0.58695 0.29582,0.6781 0.109841,0.0911 0.240589,0.35191 0.290564,0.57944 0.04998,0.22755 0.148179,0.44913 0.218237,0.49243 0.07005,0.0433 0.368046,0.44201 0.662203,0.88602 0.764721,1.15434 2.242876,2.6097 3.191817,3.14259 0.448144,0.25166 0.847423,0.51033 0.887291,0.57485 0.03986,0.0645 0.258647,0.15816 0.486184,0.20814 0.227535,0.05 0.486282,0.17832 0.574991,0.28519 0.0887,0.10699 0.354836,0.23686 0.591394,0.28882 0.236557,0.052 0.708124,0.21746 1.047923,0.36777 l 0.617818,0.27328 1.811837,0.0841 1.811838,0.0841 1.204503,-0.15288 c 0.662477,-0.0841 1.457115,-0.28334 1.765865,-0.44278 0.308748,-0.15946 0.667605,-0.2899 0.797459,-0.2899 0.129852,0 0.315483,-0.0956 0.412508,-0.21257 0.09702,-0.11695 0.255653,-0.21255 0.352507,-0.21255 0.09686,0 0.328174,-0.11875 0.514047,-0.26392 0.185872,-0.14518 0.497369,-0.31368 0.692215,-0.37448 0.194845,-0.0608 0.481801,-0.22379 0.637678,-0.36214 0.155876,-0.13831 0.666019,-0.58913 1.13365,-1.0017 0.988079,-0.87177 1.771329,-1.77144 1.771329,-2.03464 0,-0.10115 0.08146,-0.21525 0.181012,-0.25346 0.09956,-0.0383 0.360654,-0.44357 0.580215,-0.90081 0.21956,-0.45726 0.480597,-0.99078 0.58008,-1.18564 0.09949,-0.19485 0.22571,-0.60934 0.280505,-0.92109 0.0548,-0.31176 0.206505,-0.72624 0.337131,-0.9211 l 0.237503,-0.35426 v -40.45709 -40.45714 l -0.341956,-0.99194 c -0.188075,-0.54557 -0.427206,-1.09262 -0.531397,-1.21567 -0.104195,-0.12307 -0.189444,-0.27778 -0.189444,-0.34389 0,-0.066 -0.22867,-0.4522 -0.508158,-0.85801 -0.779363,-1.1316 -2.426355,-2.45184 -3.884737,-3.11405 -0.272783,-0.12382 -0.719159,-0.33281 -0.991942,-0.46432 l -0.495973,-0.23914 -2.125594,0.004 -2.125594,0.003 -0.691117,0.31545 c -0.380116,0.1735 -0.801236,0.31542 -0.935826,0.31542 -0.134587,0 -0.416723,0.15943 -0.626965,0.35428 -0.210243,0.19484 -0.450237,0.35426 -0.533319,0.35426 -0.439967,0 -3.235288,2.9158 -3.235288,3.37473 0,0.0556 -0.126403,0.33713 -0.280909,0.62539 -0.1545,0.28826 -0.322788,0.79746 -0.373975,1.13154 -0.05118,0.3341 -0.181304,0.78246 -0.289155,0.99636 l -0.19609,0.38893 0.0048,29.61587 0.0048,29.61589 0.203101,0.46204 c 0.111708,0.25413 0.242048,0.70452 0.289653,1.00089 0.0476,0.29637 0.172931,0.572 0.278505,0.6125 0.105572,0.0405 0.228518,0.21252 0.273209,0.38226 0.105199,0.39949 1.176747,1.51308 1.455968,1.51308 0.118232,0 0.374983,0.1259 0.570544,0.27968 0.195563,0.15384 0.588227,0.31785 0.872589,0.36447 0.284364,0.0466 0.670833,0.1599 0.858824,0.25171 0.18799,0.0918 0.730016,0.16089 1.204502,0.1535 l 0.862703,-0.0134 0.921091,-0.33078 c 0.5066,-0.18191 1.189906,-0.51987 1.518457,-0.75103 0.59196,-0.41645 1.740788,-1.66684 1.740788,-1.89466 0,-0.0651 0.143474,-0.37251 0.318838,-0.68311 l 0.318839,-0.56473 0.07085,-21.82277 0.07085,-21.82274 0.374331,-0.61763 0.374331,-0.61761 0.596651,-0.3389 0.59665,-0.33891 0.658641,0.003 0.658641,0.004 0.354264,0.27712 c 0.194848,0.1524 0.418034,0.27852 0.495974,0.28026 0.07793,10e-4 0.333009,0.24228 0.566823,0.53455 l 0.42512,0.53139 v 22.39974 22.39972 l -0.235057,0.23503 c -0.129284,0.1292 -0.280905,0.50731 -0.336944,0.84009 -0.05604,0.3328 -0.221279,0.75715 -0.367197,0.94303 -0.145923,0.18586 -0.265305,0.41896 -0.265305,0.51799 0,0.0991 -0.223188,0.44717 -0.495972,0.77368 -0.272785,0.32649 -0.495973,0.64917 -0.495973,0.71705 0,0.0678 -0.17536,0.31129 -0.389691,0.54093 -0.214331,0.22962 -0.524527,0.5666 -0.689322,0.74884 -0.772402,0.85411 -2.833999,2.24436 -3.328167,2.24436 -0.191274,0 -0.488282,0.0985 -0.66002,0.2187 -0.269994,0.18912 -1.589377,0.50059 -3.103599,0.73266 -1.099448,0.16849 -5.033036,-0.7339 -5.999827,-1.37643 -0.194845,-0.12949 -0.591613,-0.39359 -0.881706,-0.5869 -0.476141,-0.31726 -2.228096,-1.96518 -2.829222,-2.6612 -0.131526,-0.15228 -0.524648,-0.87073 -0.873618,-1.59653 l -0.634495,-1.31964 -0.09611,-0.85023 c -0.05286,-0.46765 -0.18582,-1.21017 -0.295458,-1.65009 l -0.199342,-0.79984 v -28.98509 -28.98512 l 0.206185,-0.89445 c 0.113412,-0.49196 0.249689,-1.32434 0.302859,-1.84976 0.05318,-0.52542 0.183574,-1.02744 0.289786,-1.11557 0.210434,-0.17465 0.269697,-1.11752 0.07024,-1.11752 -0.06759,0 -0.281139,-0.23914 -0.47457,-0.5314 -0.193432,-0.29226 -0.519645,-0.69081 -0.724913,-0.88567 -0.205272,-0.19483 -0.374321,-0.39951 -0.375668,-0.45482 -0.0026,-0.10442 -1.724994,-2.43087 -2.076339,-2.80441 -0.109959,-0.11695 -0.387568,-0.46765 -0.61691,-0.77938 -1.045785,-1.4216 -2.205222,-2.90999 -2.832343,-3.63592 -0.313624,-0.36306 -0.570226,-0.70647 -0.570226,-0.76314 0,-0.0567 -0.143478,-0.24828 -0.318839,-0.42578 -0.175361,-0.17749 -0.429438,-0.47177 -0.5646143,-0.65393 -0.1351769,-0.18216 -0.4390684,-0.58628 -0.6753152,-0.89802 -0.2362469,-0.31175 -0.5401387,-0.71281 -0.6753152,-0.89122 -0.1351768,-0.17842 -0.3436121,-0.43349 -0.4631899,-0.56683 -0.1195778,-0.13337 -0.4065331,-0.52939 -0.6376781,-0.88011 -0.2311452,-0.35072 -0.4966148,-0.70145 -0.5899327,-0.77938 -0.3314852,-0.27685 -1.7417991,-2.12824 -1.7425758,-2.28757 -4.345e-4,-0.089 -0.096443,-0.19868 -0.2133492,-0.24353 -0.1169073,-0.0448 -0.2125595,-0.20329 -0.2125595,-0.35209 0,-0.14876 -0.096623,-0.35068 -0.2147162,-0.4487 -0.223121,-0.18517 -0.9189338,-1.4814 -0.9189338,-1.71187 0,-0.0725 -0.1226307,-0.40192 -0.2725133,-0.73232 -0.3282707,-0.72361 -0.5774363,-1.88558 -0.5785147,-2.69785 -4.346e-4,-0.3274 -0.071724,-0.85033 -0.158423,-1.16209 l -0.1576329,-0.56683 0.2517172,-2.05474 c 0.1400653,-1.14334 0.3585547,-2.27475 0.4925809,-2.55071 0.132475,-0.27279 0.2857487,-0.68224 0.3406088,-0.90991 0.054861,-0.22766 0.2233283,-0.57103 0.3743739,-0.76307 0.1510454,-0.19202 0.274628,-0.49314 0.274628,-0.66913 0,-0.176 0.087446,-0.35355 0.194325,-0.39455 0.1068796,-0.0411 0.2389972,-0.25258 0.2935967,-0.47011 0.0546,-0.21754 0.224285,-0.5256 0.3770788,-0.68456 0.152794,-0.15894 0.5479287,-0.63646 0.8780774,-1.06111 0.3301487,-0.42466 0.9923509,-1.09422 1.4715606,-1.48791 0.4792096,-0.39371 0.8765898,-0.79432 0.8830666,-0.89025 0.00649,-0.0959 0.187138,-0.21609 0.4014687,-0.26702 0.2143307,-0.051 0.4931505,-0.1822 0.6195992,-0.29171 0.4296443,-0.37213 2.651603,-1.44606 3.195948,-1.54468 0.298056,-0.054 0.717132,-0.18688 0.931278,-0.29527 0.556973,-0.28194 3.408789,-0.45573 5.562305,-0.33895 l 1.842181,0.0999 0.425119,0.22026 c 0.233816,0.12112 0.695798,0.26524 1.026628,0.3202 0.330831,0.055 0.636209,0.15609 0.678621,0.22471 0.08297,0.13427 1.803064,0.98421 1.991756,0.98421 0.145267,0 1.152188,0.69182 1.546897,1.06282 0.165842,0.15586 0.680137,0.63672 1.142877,1.06855 1.050081,0.97994 2.485529,2.88264 2.949262,3.90929 0.110122,0.24379 0.271399,0.48723 0.358405,0.54101 0.087,0.0538 0.284478,0.34531 0.438829,0.64787 l 0.280641,0.55009 0.426719,-0.14876 0.426721,-0.14876 0.08198,-0.32665 c 0.04509,-0.17967 0.236012,-0.47136 0.424264,-0.64822 0.188251,-0.17686 0.342276,-0.42866 0.342276,-0.55958 0,-0.13083 0.143473,-0.40505 0.31884,-0.60923 0.613072,-0.71377 0.956517,-1.20421 0.956517,-1.36592 0,-0.23969 3.197795,-3.40567 3.43989,-3.40567 0.113436,0 0.35833,-0.11949 0.544202,-0.26567 0.635026,-0.4992 2.5774,-1.43835 3.158608,-1.5272 0.31916,-0.0489 0.759525,-0.17916 0.97859,-0.28966 0.219064,-0.11049 1.111814,-0.2582 1.983887,-0.32819 l 1.58559,-0.12726 1.999161,0.1189 1.999164,0.11888 0.338989,0.21313 c 0.186446,0.11724 0.571713,0.25384 0.856151,0.30362 0.284438,0.0497 0.595143,0.18448 0.690456,0.29932 0.09532,0.1148 0.246403,0.20881 0.335753,0.20881 0.160876,0 1.969147,0.88431 2.620876,1.28172 0.185999,0.1134 0.47368,0.33373 0.639297,0.48961 0.165614,0.15588 0.63517,0.58011 1.043459,0.94274 0.408288,0.36263 0.744112,0.71336 0.746276,0.77938 0.0021,0.066 0.186928,0.29952 0.410583,0.51883 0.223656,0.21933 0.647838,0.79324 0.94263,1.27535 0.29479,0.48214 0.62017,0.92759 0.723067,0.98992 0.102888,0.0623 0.187084,0.26096 0.187084,0.44143 0,0.18046 0.126731,0.48923 0.281614,0.68613 0.154888,0.19691 0.353947,0.69971 0.442353,1.11733 0.08841,0.41763 0.264576,0.95062 0.391491,1.18445 l 0.230753,0.42511 -0.0074,2.97584 -0.0074,2.97583 -0.311511,0.88622 c -0.171331,0.48742 -0.31151,0.95786 -0.31151,1.04538 0,0.55702 -1.908215,3.85551 -2.697637,4.66308 -0.230945,0.23625 -0.419901,0.523 -0.419901,0.63722 0,0.11422 -0.05342,0.20767 -0.11874,0.20767 -0.134347,0 -2.286456,2.66513 -3.050387,3.77754 -0.276049,0.40196 -0.648382,0.88562 -0.827411,1.07479 -0.519938,0.54938 -1.115945,1.32556 -1.320245,1.71935 -0.10381,0.20008 -0.354351,0.54098 -0.556782,0.75754 -0.202429,0.21657 -0.462236,0.49478 -0.577343,0.61822 -0.115115,0.12353 -0.209288,0.29656 -0.209288,0.38471 0,0.0881 -0.127538,0.22851 -0.283413,0.31193 -0.155877,0.0835 -0.283414,0.22244 -0.283414,0.30892 0,0.0865 -0.131196,0.29147 -0.291551,0.45555 -0.502011,0.51369 -1.550628,1.90206 -1.550628,2.05306 0,0.0793 -0.08976,0.19522 -0.19949,0.25754 -0.198331,0.11258 -1.294076,1.44014 -2.174092,2.63387 l -0.460545,0.62472 v 0.50918 c 0,0.28003 0.0578,0.54487 0.128434,0.58853 0.07063,0.0436 0.173866,0.41409 0.229398,0.82318 0.05553,0.40909 0.204983,0.99887 0.332114,1.31063 l 0.231148,0.56681 v 40.31543 40.31543 l -0.230589,0.63769 c -0.12682,0.35073 -0.276319,1.01576 -0.332209,1.47787 -0.05589,0.46211 -0.187098,0.97225 -0.291573,1.13365 -0.104475,0.16141 -0.265724,0.59744 -0.358327,0.96897 -0.0926,0.37153 -0.224295,0.71007 -0.292647,0.75233 -0.06834,0.0422 -0.124281,0.17479 -0.124281,0.29455 0,0.11978 -0.143339,0.41888 -0.318547,0.66474 -0.357998,0.50234 -0.695802,1.08214 -1.01654,1.74479 -0.119142,0.24616 -0.274499,0.46935 -0.345222,0.49597 -0.07072,0.0266 -0.493029,0.49478 -0.93846,1.04034 -1.339663,1.64085 -3.525405,3.51179 -4.298986,3.67982 -0.258566,0.0561 -0.502616,0.18682 -0.542336,0.29033 -0.03971,0.10348 -0.316939,0.28609 -0.616049,0.40578 -0.299111,0.11963 -0.581877,0.27914 -0.628367,0.35437 -0.04649,0.0752 -0.291046,0.18206 -0.543451,0.23743 -0.252406,0.0554 -0.681164,0.21967 -0.952794,0.36517 -0.271631,0.14547 -0.735996,0.2645 -1.031922,0.2645 -0.295927,0 -0.775129,0.1078 -1.064896,0.23959 l -0.526847,0.23959 -2.904978,0.0353 -2.904979,0.0353 z"
         id="path120" /><ellipse
         style="fill:none;stroke:#00ff00;stroke-width:0.234555;stroke-linejoin:bevel;stroke-dasharray:none;stroke-opacity:1"
         id="path4"
         cx="18.879623"
         cy="341.21146"
         rx="3.5577569"
         ry="3.3421352"
         transform="translate(-3.8054442,133.54589)" /></g></g></svg>
