<?xml version="1.0" encoding="UTF-8" standalone="no"?>
<!-- Created with Inkscape (http://www.inkscape.org/) -->

<svg
   width="64.795914mm"
   height="120.00001mm"
   viewBox="0 0 64.795914 120.00001"
   version="1.1"
   id="svg1"
   xml:space="preserve"
   xmlns="http://www.w3.org/2000/svg"
   xmlns:svg="http://www.w3.org/2000/svg"><defs
     id="defs1" /><g
     id="layer1"
     transform="translate(-154.80133,-331.8102)"><g
       id="g114"
       transform="matrix(0.78710048,0,0,0.78710048,223.89342,66.081251)"><path
         id="path116"
         style="display:inline;fill:none;stroke:#ff0000;stroke-width:0.668298;stroke-dasharray:none;stroke-opacity:1"
         d="m -53.366823,488.65424 c -0.383011,-0.5911 -0.696385,-1.23672 -0.696385,-1.43473 0,-0.19801 -0.346168,-1.06047 -0.769263,-1.91657 -0.423095,-0.85609 -0.768119,-1.66932 -0.766719,-1.80717 0.0014,-0.13785 -0.437658,-1.23968 -0.975684,-2.44852 -1.358532,-3.05237 -2.474832,-5.8215 -2.635914,-6.53874 -0.07466,-0.33243 -0.225577,-0.60442 -0.335372,-0.60442 -0.109794,0 -0.497848,-0.76652 -0.86234,-1.70337 -0.364492,-0.93686 -1.078587,-2.64297 -1.586876,-3.79137 l -0.924164,-2.088 -0.07576,-34.90277 c -0.0477,-21.97142 -0.154733,-35.05031 -0.28891,-35.30103 -0.117236,-0.21905 -0.513643,-0.52274 -0.880917,-0.67487 -0.367272,-0.15213 -0.667768,-0.38121 -0.667768,-0.50906 0,-0.23317 0.283161,-1.2297 0.699447,-2.46158 0.122549,-0.36265 0.307301,-1.00554 0.410556,-1.42863 0.103257,-0.4231 0.439725,-1.49928 0.74771,-2.39151 0.307985,-0.89223 0.559972,-1.90073 0.559972,-2.24109 0,-0.4006 -0.543127,-1.43108 -1.540042,-2.92194 -1.833207,-2.74151 -3.37272,-5.86076 -3.864879,-7.83074 -0.196304,-0.78575 -0.455269,-1.54983 -0.57548,-1.69797 -0.775635,-0.9558 -1.253448,-9.12266 -0.838097,-14.32486 0.347907,-4.35748 0.310634,-4.38264 -3.291824,-2.22147 -1.571454,0.94273 -2.343684,1.10645 -2.341005,0.49629 0.0088,-2.01727 -0.114383,-2.91852 -0.4442,-3.24834 -0.343499,-0.34349 -0.490739,-0.23807 -2.252844,1.61289 -1.574276,1.65366 -2.051532,2.02295 -2.892743,2.23836 -2.203682,0.56425 -4.274797,-0.74272 -5.744387,-3.62502 -1.669297,-3.27397 -1.676288,-5.86075 -0.02474,-9.15258 0.281563,-0.56121 0.660426,-1.07735 0.841919,-1.147 0.181494,-0.0697 0.329987,-0.2715 0.329987,-0.44856 0,-0.79735 3.933932,-3.98562 5.934321,-4.8095 2.860488,-1.17811 5.765098,-1.63457 8.052859,-1.26552 2.198954,0.35474 3.270361,0.83976 4.47515,2.02592 1.798147,1.77034 2.444305,3.3493 2.855282,6.97722 0.12798,1.1297 0.326715,2.46123 0.441643,2.95892 0.114935,0.49769 0.217603,1.99286 0.228164,3.32258 0.02866,3.60768 0.624624,8.43809 1.166047,9.45095 0.193855,0.36265 0.517999,1.03723 0.720318,1.49906 0.76657,1.74984 2.569707,2.93747 4.090594,2.69426 1.211822,-0.19377 1.742645,-0.50617 4.052647,-2.38511 2.324957,-1.89108 4.801669,-3.32012 6.538125,-3.77241 3.487987,-0.9085 8.023733,-0.51935 10.787621,0.92555 0.604421,0.31598 1.391718,0.72839 1.749549,0.91648 1.555587,0.81763 3.963835,3.6845 5.549213,6.60596 1.223719,2.25503 1.491829,2.68712 2.221032,3.57949 0.400517,0.49014 1.324589,1.27868 2.053496,1.75231 l 1.325284,0.86115 2.232403,-0.0743 c 1.987481,-0.0663 2.393625,-0.15272 3.701907,-0.78858 0.895231,-0.43509 1.968886,-1.21169 2.747371,-1.98721 1.354926,-1.34979 3.146078,-3.44092 3.146078,-3.67298 0,-0.0763 0.237538,-0.45355 0.527863,-0.83836 0.290324,-0.38481 0.6839572,-1.04583 0.8747387,-1.46892 0.1907828,-0.4231 0.4417552,-0.91763 0.5577171,-1.09896 0.1159607,-0.18132 0.4911128,-0.92311 0.8336689,-1.64842 0.4462999,-0.94497 0.7593622,-1.33835 1.1045483,-1.38795 0.5199478,-0.0747 0.592558,0.0998 0.8062081,1.93743 0.063241,0.54398 0.2202542,1.48358 0.3489116,2.088 0.1286509,0.60442 0.1745236,1.64293 0.1019292,2.30779 -0.2577909,2.36091 -0.8114288,5.17208 -1.113087,5.65185 -0.1683402,0.26774 -0.3060727,0.68911 -0.3060727,0.93639 0,0.43289 -1.4338712,3.53404 -2.0227799,4.37483 -0.5279537,0.75375 -2.6914923,3.19847 -3.8445893,4.34423 -1.431831,1.42274 -6.697041,4.126 -8.74864,4.49172 -0.725307,0.12927 -1.615454,0.34067 -1.978107,0.46972 -0.362652,0.12901 -1.104443,0.27385 -1.648422,0.3218 -2.4207,0.21331 -2.570984,0.47235 -2.590721,4.46548 -0.0099,1.98294 -0.109925,2.97472 -0.359852,3.56452 -0.310144,0.73189 -0.346272,4.3564 -0.346272,34.73969 0,29.48654 -0.0422,33.97834 -0.322694,34.34919 -0.177482,0.23465 -0.32584,0.56462 -0.329684,0.73326 -0.0064,0.28378 -1.126015,2.82764 -1.880021,4.27182 -0.178677,0.34223 -0.324865,0.75001 -0.324865,0.90617 0,0.26896 -0.426167,1.33662 -1.320005,3.30697 -0.219354,0.48355 -0.711596,1.62095 -1.093873,2.52759 -0.624505,1.48111 -1.276714,2.93603 -1.796787,4.00817 -0.101824,0.20991 -0.185128,0.49579 -0.185128,0.6353 0,0.1395 -0.185462,0.6601 -0.412138,1.15687 -1.039844,2.27891 -1.304555,2.92469 -1.443178,3.52071 -0.08178,0.35164 -0.479149,0.96979 -0.883031,1.37368 l -0.734329,0.73432 h -6.578652 -6.578652 z m -2.356287,-92.31368 c 0.384425,-0.7434 0.191767,-2.75732 -0.422637,-4.41799 -0.732279,-1.97927 -1.170643,-1.7298 -2.062115,1.17357 -1.055357,3.43712 -0.932974,3.86171 1.116902,3.8749 0.926454,0.007 1.073866,-0.0619 1.36785,-0.63048 z m 12.504539,0.23621 c 0.199575,-0.22054 0.561073,-1.17596 0.803328,-2.12316 0.827237,-3.23447 0.714203,-3.36121 -3.022127,-3.38863 -3.449321,-0.0252 -3.570676,0.0631 -3.570676,2.60159 0,1.76045 0.24901,2.83387 0.728067,3.13847 0.143542,0.0913 1.259437,0.16748 2.479765,0.16932 1.871136,0.003 2.275633,-0.0594 2.581643,-0.39759 z m 9.390458,0.17344 c 0.579929,-0.31038 0.538051,-0.75276 -0.261984,-2.76754 -0.845473,-2.12923 -1.075769,-2.41054 -1.699893,-2.07652 -0.746446,0.39948 -1.176727,1.49124 -1.500161,3.80638 -0.0996,0.71291 -0.04584,0.85048 0.40253,1.03006 0.704162,0.28204 2.538208,0.2866 3.059508,0.008 z m -38.02376,-50.12438 c 0.526838,-0.73988 0.809863,-2.3637 0.505856,-2.9023 -0.428576,-0.75928 -1.899827,-1.6932 -2.667378,-1.6932 -0.897451,0 -2.166688,0.71452 -2.361922,1.32964 -0.07483,0.23578 -0.228294,0.42867 -0.341033,0.42867 -0.269333,0 -0.262667,0.80027 0.01092,1.31148 0.208947,0.39042 0.242308,0.38995 1.035525,-0.0145 1.471966,-0.75044 2.079081,-0.52269 2.345478,0.87993 0.14532,0.76512 0.493068,1.33969 0.810831,1.33969 0.09785,0 0.395625,-0.30575 0.661718,-0.67945 z" /></g></g></svg>
