<?xml version="1.0" encoding="UTF-8" standalone="no"?>
<!-- Created with Inkscape (http://www.inkscape.org/) -->

<svg
   width="28.754816mm"
   height="120mm"
   viewBox="0 0 28.754816 120"
   version="1.1"
   id="svg1"
   xmlns="http://www.w3.org/2000/svg"
   xmlns:svg="http://www.w3.org/2000/svg">
  <defs
     id="defs1" />
  <g
     id="layer1"
     transform="translate(-46.781026,-110.96196)">
    <g
       id="g111"
       transform="matrix(1.1999994,0,0,1.1999994,-55.966677,-324.57773)">
      <path
         style="fill:none;stroke:#ff0000;stroke-width:0.184488;stroke-dasharray:none;stroke-opacity:1"
         d="m 89.679053,462.70145 c -1.965849,-0.489 -3.455921,-2.08766 -3.841655,-4.12163 -0.07692,-0.40561 -0.122026,-13.19008 -0.122026,-34.58743 V 390.0484 l 0.26046,-0.86261 c 0.587994,-1.9474 1.963106,-3.21336 3.89197,-3.58302 1.021111,-0.19569 1.13505,-0.2896 0.653531,-0.5386 -0.800118,-0.41376 -1.129995,-1.2502 -0.834765,-2.11665 0.269524,-0.79102 0.779615,-1.24375 1.491788,-1.32402 l 0.574693,-0.0648 -0.09326,-0.51854 c -0.153786,-0.85504 -0.07533,-2.85412 0.146285,-3.72724 0.23337,-0.91944 0.869729,-2.3172 1.412402,-3.10233 0.198741,-0.28754 0.927588,-1.12817 1.61966,-1.86807 1.500674,-1.60439 1.594842,-1.78198 1.418306,-2.67482 -0.07173,-0.3628 -0.170772,-0.65964 -0.220082,-0.65964 -0.14017,0 -0.454632,0.39804 -0.695873,0.88082 -0.382212,0.7649 -2.035016,3.18617 -2.571956,3.76778 -1.093078,1.18401 -2.127204,1.56358 -2.792413,1.02492 -0.251352,-0.20352 -0.297062,-0.3546 -0.297062,-0.98176 0,-0.58924 0.08506,-0.90879 0.414827,-1.55848 0.22815,-0.4495 0.57968,-1.01044 0.781178,-1.24652 0.442291,-0.51822 0.398666,-0.62486 -0.108018,-0.26406 -1.188767,0.84647 -2.483823,1.12634 -2.842486,0.61427 -0.818463,-1.16852 0.892214,-3.47248 3.641968,-4.90506 0.753983,-0.39282 2.321832,-0.93525 3.019948,-1.04481 0.276829,-0.0435 0.659912,-0.10818 0.851297,-0.14385 0.191385,-0.0357 0.644377,-0.31829 1.00665,-0.62805 1.183385,-1.01182 2.689848,-1.48173 4.74819,-1.4811 1.51732,4.7e-4 2.46285,0.23543 3.25412,0.80862 0.68809,0.49845 0.81629,0.78135 0.73922,1.63127 -0.0909,1.00238 -0.59712,1.9203 -1.67177,3.03136 -0.50665,0.52381 -0.95939,1.10458 -1.00607,1.29059 -0.12222,0.48696 0.0277,1.12193 0.39151,1.65801 0.46512,0.68539 0.7075,1.73666 0.61222,2.65537 -0.0596,0.5749 -0.0301,0.86393 0.11726,1.14895 0.20986,0.40581 0.89037,1.03994 1.11602,1.03994 0.24835,0 0.99127,0.64921 1.11484,0.97423 0.13841,0.36406 -0.0375,1.05112 -0.33155,1.29519 -0.30013,0.24909 -1.35074,0.19989 -1.8352,-0.0859 -0.63523,-0.37479 -1.11646,-0.47459 -1.11646,-0.23153 0,0.1073 0.0805,0.226 0.17897,0.26377 0.31458,0.12071 0.57602,1.01565 0.57602,1.97172 0,0.99709 -0.31607,1.79671 -1.00579,2.54454 -0.19148,0.20762 -0.41253,0.50297 -0.49121,0.65632 -0.12227,0.23831 -0.10161,0.30475 0.14219,0.45726 0.15688,0.0981 0.67782,0.21595 1.15764,0.26182 1.12946,0.10796 2.27319,0.55074 2.27392,0.88032 2.9e-4,0.13216 0.0852,0.26665 0.18875,0.29887 0.78141,0.24321 1.79247,0.85014 2.33602,1.40232 0.81776,0.83072 1.27421,1.74336 1.43344,2.86607 0.18063,1.27359 0.16219,68.07122 -0.019,68.92739 -0.20445,0.96596 -0.68832,1.8206 -1.45021,2.5615 -0.80059,0.77852 -1.72529,1.244 -2.7651,1.39191 -1.24206,0.17667 -14.722204,0.14127 -15.453305,-0.0406 z m 6.323019,-20.05923 c 0.224922,-0.16043 0.40895,-0.33505 0.40895,-0.38804 0,-0.0802 -1.954163,-1.23308 -2.996392,-1.76781 -0.268973,-0.138 -0.368242,-0.0736 -1.310285,0.84965 l -1.019266,0.99896 0.31877,0.20886 c 0.488574,0.32013 1.288014,0.43778 2.805128,0.41283 1.225103,-0.0202 1.431132,-0.0563 1.793095,-0.31445 z m 7.424038,0.10583 c 0.22492,-0.0843 0.40895,-0.21725 0.40895,-0.29536 0,-0.20685 -1.78622,-1.97249 -1.99548,-1.97249 -0.45502,0 -3.163596,1.57675 -3.163596,1.84163 0,0.0808 0.184028,0.26872 0.408952,0.41754 0.381132,0.25219 0.528785,0.2669 2.170584,0.2163 0.9689,-0.0299 1.94567,-0.12328 2.17059,-0.20762 z m 2.05675,-1.294 c 1.00139,-0.92382 1.16588,-1.55012 0.61929,-2.35799 -0.11706,-0.17302 -0.24842,-0.41325 -0.29191,-0.53384 -0.11406,-0.31623 -1.54129,-2.39607 -1.81294,-2.64192 -0.21395,-0.19362 -0.30655,-0.18822 -1.35985,0.0793 l -1.13026,0.28708 0.0338,0.49241 c 0.0186,0.27083 0.21679,1.01198 0.44041,1.647 0.38059,1.08078 0.47896,1.23102 1.53906,2.35043 0.62286,0.65771 1.1891,1.19925 1.25831,1.2034 0.0692,0.004 0.38603,-0.23248 0.70406,-0.52587 z m -13.957968,-0.81657 1.200877,-1.22685 0.405321,-1.28703 c 0.222926,-0.70788 0.386083,-1.38694 0.362571,-1.50902 -0.05542,-0.28777 -0.497394,-0.49322 -1.524014,-0.70842 l -0.828841,-0.17374 -0.303286,0.32913 c -0.438177,0.47553 -2.22803,3.50999 -2.22803,3.77733 0,0.3948 1.257974,2.00091 1.580791,2.01827 0.07356,0.004 0.674132,-0.5449 1.334611,-1.21967 z m 5.576645,-1.2646 c -9.23e-4,-1.00967 -0.05814,-1.82053 -0.138146,-1.95716 -0.183797,-0.31389 -1.466208,-0.73258 -2.099703,-0.68551 l -0.511054,0.0379 -0.400437,1.25831 c -0.220241,0.69208 -0.374674,1.3271 -0.343185,1.41118 0.164138,0.43824 3.135685,2.01091 3.368251,1.78262 0.07191,-0.0706 0.125164,-0.86217 0.124274,-1.8474 z m 1.95194,1.61064 c 0.352128,-0.20762 0.668772,-0.37749 0.703654,-0.37749 0.111373,0 1.495289,-0.90943 1.576549,-1.03602 0.0918,-0.14295 -0.0272,-0.68363 -0.43643,-1.98393 l -0.29702,-0.94373 -0.53856,0.0356 c -0.757127,0.0501 -1.90268,0.46049 -2.057466,0.73707 -0.183234,0.32742 -0.173718,3.17192 0.01204,3.59993 0.0826,0.19032 0.205717,0.34603 0.273592,0.34603 0.06787,0 0.411512,-0.16987 0.763638,-0.37749 z m 7.976823,-2.464 c 0.1321,-0.34426 0.0849,-4.58309 -0.0539,-4.84248 -0.1949,-0.36417 -0.37171,-0.30204 -1.09141,0.38356 -1.02263,0.97418 -1.08332,1.10396 -0.82848,1.77183 0.11716,0.30704 0.43615,0.92631 0.70887,1.37615 0.27271,0.44985 0.58697,0.97326 0.69836,1.16315 0.22712,0.38721 0.45214,0.44591 0.56654,0.14779 z m -17.409398,-2.1242 0.626712,-1.25454 -0.834617,-0.79065 c -0.459043,-0.43485 -0.909975,-0.79065 -1.002071,-0.79065 -0.131479,0 -0.175448,0.46637 -0.204653,2.17059 -0.02048,1.19382 -0.01433,2.30913 0.01365,2.47845 0.05061,0.30632 0.05264,0.3057 0.412558,-0.1254 0.198934,-0.23829 0.643716,-0.9978 0.988407,-1.6878 z m 9.244027,-0.17495 c 0.48456,-0.12591 1.009601,-0.30896 1.166761,-0.4068 0.32935,-0.20503 0.31955,-0.31342 -0.180122,-1.99119 -0.298707,-1.00298 -0.366875,-1.11057 -1.303526,-2.05733 l -0.988335,-0.99902 -0.417053,0.31827 c -0.920061,0.70214 -1.641283,1.71051 -2.011591,2.81249 -0.591468,1.76012 -0.54713,1.86738 0.95551,2.31151 0.987853,0.29197 1.689382,0.29502 2.778356,0.012 z m -4.816142,-1.26235 c 0.398742,-0.71658 0.638559,-1.88507 0.559859,-2.72785 -0.07033,-0.75318 -0.503702,-2.12675 -0.711525,-2.25519 -0.149832,-0.0926 -1.638308,0.26669 -2.290382,0.55286 -0.759908,0.3335 -2.564674,2.17258 -2.407552,2.45334 0.242252,0.43287 1.461735,1.57942 1.95133,1.83461 0.619175,0.32273 1.789165,0.62475 2.293598,0.59206 0.274744,-0.0178 0.427506,-0.13144 0.604672,-0.44983 z m 8.631963,0.25177 c 0.47069,-0.13043 1.08641,-0.3548 1.36827,-0.49859 0.52028,-0.26543 1.79934,-1.58274 1.79934,-1.85314 0,-0.19908 -1.84221,-2.03733 -2.25297,-2.24814 -0.48564,-0.24923 -2.27355,-0.72777 -2.45662,-0.65752 -0.0874,0.0336 -0.28788,0.46201 -0.44548,0.95216 -0.39275,1.22147 -0.3278,2.76387 0.16081,3.81886 0.38897,0.83986 0.47164,0.86187 1.82665,0.48637 z m 4.42592,-5.76327 c 0,-2.2052 -0.021,-2.44643 -0.2202,-2.5247 -0.36966,-0.14529 -1.57833,-0.099 -2.04476,0.0783 -0.6846,0.26022 -1.06231,0.4462 -1.14925,0.56587 -0.16882,0.23239 0.46349,2.30103 0.81257,2.65836 0.0814,0.0833 0.40599,0.42894 0.72138,0.76811 0.31539,0.33917 0.76135,0.77472 0.99101,0.96789 0.39558,0.33274 0.42998,0.33999 0.65341,0.13779 0.21511,-0.19467 0.23584,-0.42776 0.23584,-2.65159 z m -17.379404,1.54381 c 0.92418,-0.88066 1.365248,-1.72821 1.482336,-2.84844 0.09111,-0.87172 0.12785,-0.84497 -1.644661,-1.19699 -0.849869,-0.16878 -1.128224,-0.1837 -1.245202,-0.0667 -0.155923,0.15591 -0.24099,3.64722 -0.115907,4.75695 l 0.06168,0.54721 0.32928,-0.2133 c 0.1811,-0.11732 0.690711,-0.55773 1.132474,-0.97869 z m 6.463552,-0.13492 c 0.328734,-0.30837 0.595397,-0.60469 0.592584,-0.65848 -0.0028,-0.0538 -0.170751,-0.29154 -0.373197,-0.52831 -0.367556,-0.4299 -0.36883,-0.43027 -0.889076,-0.25857 -0.286545,0.0946 -0.545671,0.23626 -0.575836,0.31487 -0.07488,0.19513 0.188513,1.33229 0.355086,1.533 0.193717,0.23341 0.230024,0.217 0.890439,-0.40251 z m 3.617186,0.31414 c 0.07382,-0.13794 0.146597,-0.54735 0.161717,-0.90979 l 0.02749,-0.65897 -0.534217,-0.18717 -0.534216,-0.18717 -0.364701,0.43634 c -0.337153,0.40338 -0.351641,0.46163 -0.191807,0.7713 0.189909,0.36793 0.906867,0.98266 1.148647,0.98487 0.08407,6.1e-4 0.213263,-0.11147 0.287087,-0.24941 z m -6.767298,-1.85326 c 0.708999,-0.22349 0.843126,-0.50653 0.510177,-1.07662 -0.210049,-0.35965 -0.299559,-0.40551 -0.79155,-0.40551 h -0.55472 l -0.216985,0.69208 c -0.119341,0.38063 -0.220444,0.79224 -0.224672,0.91467 -0.0085,0.24521 0.155112,0.22926 1.27775,-0.12462 z m 10.062004,-0.28673 c -0.0646,-0.70638 -0.41492,-1.31625 -0.77762,-1.35376 -0.67678,-0.07 -1.2611,0.61833 -1.06181,1.25082 0.0816,0.25893 0.98704,0.60116 1.50222,0.5678 0.35145,-0.0228 0.37471,-0.0549 0.33721,-0.46486 z m -5.126774,0.008 c 0.308666,-0.32217 0.342313,-0.43028 0.264333,-0.84935 -0.112109,-0.60249 -0.544654,-1.62297 -0.76566,-1.80639 -0.133204,-0.11055 -0.219832,0.0319 -0.426618,0.70137 -0.343639,1.11257 -0.338835,1.73648 0.01591,2.06698 0.365551,0.34056 0.492937,0.32483 0.91203,-0.11261 z m -2.591197,-0.45555 c 0.268831,-0.10757 0.549004,-0.32774 0.622608,-0.48929 0.20885,-0.45838 0.443199,-1.79893 0.354767,-2.02938 -0.06916,-0.18022 -0.141444,-0.16053 -0.547371,0.14908 -0.461498,0.352 -1.133895,1.05318 -1.327952,1.38479 -0.119104,0.20353 0.121496,1.18037 0.29073,1.18037 0.06514,0 0.338387,-0.088 0.607218,-0.19557 z m 5.056001,-0.1272 c 0.0675,-0.17753 0.1203,-0.44649 0.11735,-0.5977 -0.006,-0.31138 -0.706658,-1.13346 -1.408861,-1.65319 -0.407322,-0.30148 -0.481076,-0.32063 -0.549354,-0.14271 -0.07327,0.19094 0.176212,1.40393 0.429668,2.08908 0.06415,0.17342 0.289643,0.363 0.53898,0.45315 0.627827,0.22699 0.736437,0.20848 0.872217,-0.14863 z m -5.707467,-2.2358 c 0.438313,-0.43831 0.796931,-0.86299 0.796931,-0.94373 0,-0.22136 -0.690021,-0.17681 -1.639105,0.10584 -0.895493,0.26669 -1.047162,0.37954 -1.167462,0.86872 -0.125412,0.50996 0.106234,0.7661 0.692836,0.7661 0.470662,0 0.595303,-0.0754 1.3168,-0.79693 z m 7.513547,0.54804 c 0.0924,-0.0924 0.0767,-0.29063 -0.0521,-0.65816 -0.17917,-0.51145 -0.20855,-0.53215 -1.06507,-0.75032 -0.97881,-0.24931 -1.698723,-0.29466 -1.698723,-0.107 0,0.14118 1.253633,1.42147 1.596363,1.63031 0.25787,0.15714 1.01921,0.0854 1.21948,-0.11483 z m -10.300727,-0.76236 0.229045,-0.50794 -0.43014,-0.36777 c -0.236575,-0.20228 -0.477713,-0.37007 -0.535863,-0.37288 -0.206732,-0.01 -1.074588,0.6925 -1.276546,1.03332 -0.197956,0.33407 -0.19493,0.35029 0.08519,0.45668 0.462911,0.17582 0.762169,0.23631 1.246511,0.25192 0.412378,0.0133 0.473185,-0.0307 0.681803,-0.49333 z m 12.564967,0.38887 c 0.60101,-0.13943 0.77176,-0.29793 0.64209,-0.59602 -0.0547,-0.12576 -0.0882,-0.3136 -0.0744,-0.41741 0.0202,-0.15166 0.003,-0.15565 -0.0889,-0.0203 -0.0894,0.13212 -0.21187,0.0825 -0.56767,-0.22989 -0.51101,-0.44867 -0.77334,-0.43304 -1.28279,0.0764 -0.29752,0.29751 -0.30244,0.32825 -0.12179,0.7606 0.10354,0.24779 0.18825,0.47194 0.18825,0.4981 0,0.0874 0.81208,0.0429 1.30516,-0.0715 z m 2.57322,-2.2616 c -0.0223,-1.03254 -0.0827,-1.91931 -0.13414,-1.97061 -0.16121,-0.16059 -0.96917,0.36011 -1.61474,1.04066 -0.63909,0.67372 -0.75679,1.02674 -0.43216,1.29616 0.10305,0.0855 0.15633,0.2057 0.11841,0.26706 -0.0379,0.0614 -0.009,0.11158 0.0643,0.11158 0.0733,0 0.24013,0.10688 0.37076,0.23751 0.40255,0.40254 1.19297,0.89497 1.43658,0.89497 0.21626,0 0.22884,-0.12365 0.19099,-1.87733 z m -17.913252,1.23929 c 0.725739,-0.59971 1.199726,-1.1265 1.199947,-1.3336 1.91e-4,-0.18623 -1.762487,-1.80329 -1.965676,-1.80329 -0.08315,0 -0.188301,0.21971 -0.233673,0.48825 -0.08469,0.50125 -0.0652,2.89732 0.02491,3.06648 0.103756,0.19472 0.372777,0.0794 0.974466,-0.41784 z m 8.7473,-0.55598 c 0.627095,-0.32428 0.662491,-1.10867 0.06762,-1.49844 -0.542435,-0.35542 -1.206807,-0.0236 -1.385317,0.69191 -0.0663,0.26576 -0.0072,0.39001 0.314428,0.66061 0.460332,0.38735 0.519714,0.39599 1.003271,0.14592 z m -3.111653,-0.45908 c 0.555643,-0.2233 0.4127,-0.45559 -0.440409,-0.71569 -1.409722,-0.4298 -1.615752,-0.43284 -2.086067,-0.0307 -0.382073,0.32667 -0.404145,0.3827 -0.251662,0.63879 0.295008,0.49547 0.791445,0.6212 1.665219,0.42174 0.421786,-0.0963 0.922599,-0.23764 1.112919,-0.31412 z m 7.886255,0.19486 c 0.21293,-0.17917 0.38715,-0.39657 0.38715,-0.48311 0,-0.0865 -0.19302,-0.33298 -0.42894,-0.54766 l -0.42893,-0.39032 -1.21058,0.39875 c -0.85519,0.2817 -1.200258,0.45236 -1.175416,0.58137 0.01934,0.10042 0.06348,0.17602 0.09808,0.16798 0.0346,-0.008 0.459286,0.11889 0.943736,0.28207 1.14051,0.38416 1.3488,0.38311 1.8149,-0.009 z m -11.073147,-1.50998 c 0.443199,-0.37292 0.486795,-0.73267 0.143007,-1.18006 -0.235344,-0.30626 -0.249244,-0.30824 -1.03531,-0.14762 -0.965543,0.1973 -1.07487,0.28739 -0.810186,0.66765 0.211577,0.30396 1.056495,0.98579 1.221581,0.98579 0.0516,0 0.267975,-0.14658 0.480908,-0.32576 z m 12.506677,0.18293 c 0.3851,-0.20014 1.10966,-1.00163 1.05491,-1.16692 -0.0476,-0.1436 -1.0521,-0.41901 -1.60415,-0.4398 -0.25643,-0.01 -0.35239,0.0754 -0.47851,0.42419 -0.17887,0.49463 -0.0711,0.80874 0.38783,1.13017 0.33268,0.23301 0.29779,0.23016 0.63992,0.0523 z m -8.740553,-0.22058 c 0.232733,-0.14748 0.05829,-0.43553 -0.703192,-1.16113 -0.688365,-0.65594 -1.006788,-0.79534 -1.546131,-0.67688 -0.347137,0.0763 -0.374666,0.1234 -0.374666,0.64165 0,0.49278 0.04119,0.57583 0.346036,0.69773 0.266026,0.10638 1.606911,0.49493 2.044757,0.59251 0.0346,0.008 0.139542,-0.0346 0.233196,-0.0939 z m 6.652733,-0.54414 c 0.23652,-0.19108 0.34026,-0.9522 0.15947,-1.17004 -0.0858,-0.10342 -0.36164,-0.18736 -0.61563,-0.18736 -0.39355,0 -0.58248,0.11648 -1.30581,0.80509 -0.465137,0.4428 -0.845699,0.86354 -0.845699,0.93498 0,0.0714 0.127404,0.14798 0.28312,0.1701 0.333949,0.0474 2.102049,-0.37302 2.324549,-0.55277 z m -5.630954,-0.69679 c -0.0018,-0.25953 -0.131334,-0.83869 -0.287775,-1.28704 -0.265588,-0.76116 -0.317483,-0.8247 -0.783108,-0.95876 -0.601072,-0.17306 -0.775106,-0.0673 -0.889076,0.5402 -0.07793,0.41539 -0.03482,0.48773 0.77974,1.30858 0.474226,0.47789 0.934527,0.86889 1.022892,0.86889 0.102362,0 0.159453,-0.17123 0.157327,-0.47187 z m 3.153179,-0.19053 c 1.075435,-1.0178 1.140585,-1.14257 0.907055,-1.73707 -0.22115,-0.56298 -0.18014,-0.54764 -0.848202,-0.3174 -0.481474,0.16593 -0.515282,0.21365 -0.77875,1.09913 -0.315847,1.06152 -0.361874,1.61854 -0.133526,1.61595 0.08651,-0.001 0.470549,-0.29825 0.853423,-0.66061 z m -1.636663,-0.24988 c 0.07631,-0.29413 0.19142,-0.73296 0.255811,-0.97519 0.18085,-0.68032 0.14285,-0.97414 -0.162814,-1.25891 -0.36116,-0.33647 -0.8203,-0.28089 -1.130752,0.13688 -0.232056,0.31228 -0.233374,0.35653 -0.03358,1.12755 0.203287,0.78451 0.595781,1.50445 0.82019,1.50445 0.06183,0 0.174844,-0.24065 0.251149,-0.53478 z m -7.400434,-0.30939 c 0.81655,-0.2594 0.895861,-0.38422 0.714909,-1.1251 -0.283207,-1.15954 -0.842519,-2.20241 -1.538494,-2.86859 -0.72473,-0.69371 -1.288452,-1.04618 -1.43654,-0.8982 -0.05203,0.052 -0.103738,1.19396 -0.114949,2.53773 -0.01802,2.15728 0.0043,2.45785 0.18875,2.56815 0.255012,0.15232 1.379749,0.0423 2.186324,-0.21399 z m 16.339512,0.21059 c 0.22719,-0.12159 0.24339,-0.28546 0.24339,-2.46198 0,-2.39867 -0.0735,-2.8185 -0.49345,-2.8185 -0.12933,0 -0.701,0.49258 -1.28534,1.10752 -0.97849,1.02972 -1.07671,1.1827 -1.39844,2.17807 -0.19032,0.58882 -0.34604,1.13598 -0.34604,1.21594 0,0.20819 0.3837,0.38583 1.42007,0.65744 1.04633,0.27422 1.51702,0.30497 1.85981,0.12151 z m -13.389452,-0.9172 c 0.01611,-0.0161 0.08338,-0.27005 0.149498,-0.5643 l 0.120211,-0.53503 -0.485796,-0.24783 c -0.267189,-0.13631 -0.693601,-0.24784 -0.947584,-0.24784 h -0.461786 l 0.06362,0.56443 c 0.03499,0.31043 0.161077,0.71316 0.280192,0.89495 0.194407,0.29671 0.269573,0.32206 0.734466,0.24772 0.284842,-0.0456 0.531074,-0.096 0.547181,-0.1121 z m 9.403842,-0.33923 c 0.11132,-0.27823 0.20241,-0.70921 0.20241,-0.95774 v -0.45186 l -0.46245,0.0867 c -0.69589,0.13055 -1.42502,0.45198 -1.42502,0.62821 0,0.086 0.0637,0.33908 0.14158,0.56246 0.14862,0.42633 0.45347,0.61675 1.00869,0.63008 0.27355,0.007 0.3682,-0.0816 0.53479,-0.4979 z m -6.398339,-1.56623 0.332777,-0.43629 -0.458224,-0.55921 c -0.421882,-0.51485 -0.679854,-0.70733 -0.947974,-0.70733 -0.133401,0 -0.504861,1.08565 -0.504861,1.47554 0,0.21613 0.112595,0.34718 0.408951,0.47599 0.617118,0.26822 0.805637,0.22813 1.169331,-0.2487 z m 2.974906,0.31476 c 0.160222,-0.0668 0.393261,-0.20257 0.517866,-0.30163 0.217957,-0.17326 0.217477,-0.20806 -0.01243,-0.91658 -0.131439,-0.40505 -0.318324,-0.74969 -0.4153,-0.76584 -0.313834,-0.0523 -1.245885,0.93626 -1.245885,1.3214 0,0.19292 0.558764,0.78419 0.741075,0.78419 0.06785,0 0.25445,-0.0547 0.414672,-0.12154 z m -5.295307,-0.85365 c 0.07286,-0.19033 0.221537,-0.73877 0.330393,-1.21876 0.233057,-1.02766 0.09586,-2.29397 -0.364466,-3.36403 l -0.274146,-0.63727 -0.63877,0.078 c -0.351323,0.0429 -1.006825,0.19337 -1.456672,0.33444 -0.698122,0.21892 -0.95151,0.38888 -1.730178,1.16051 -0.501752,0.4972 -0.912275,0.94981 -0.912275,1.00578 0,0.18145 2.035099,2.22214 2.311462,2.31781 0.881108,0.30504 2.070068,0.64086 2.315947,0.65413 0.203678,0.011 0.324442,-0.0843 0.418705,-0.33057 z m 8.26045,0.0409 c 0.5607,-0.16782 1.15107,-0.3749 1.31194,-0.46017 0.55881,-0.2962 2.11704,-1.90943 2.11704,-2.19177 0,-0.17889 -0.31248,-0.55142 -0.91227,-1.08758 -1.14678,-1.02511 -1.01984,-0.95676 -2.45153,-1.32006 -0.96221,-0.24417 -1.23003,-0.27371 -1.31365,-0.1449 -0.16036,0.24701 -0.69375,1.98239 -0.7915,2.57514 -0.13527,0.82019 0.47537,2.93448 0.84752,2.93448 0.0952,0 0.63175,-0.13731 1.19245,-0.30514 z m -4.01159,-1.42504 c 0.474451,-0.46715 0.992332,-1.10417 1.150847,-1.4156 0.553253,-1.08697 0.791943,-2.47802 0.470033,-2.73931 -0.276131,-0.22413 -2.038603,-0.65805 -2.68194,-0.6603 -0.839725,-0.003 -2.432661,0.59855 -2.521385,0.95206 -0.06858,0.27324 0.283762,1.67899 0.623812,2.48885 0.193964,0.46195 1.770546,2.22366 1.989983,2.22366 0.0583,0 0.494198,-0.38221 0.96865,-0.84936 z m 8.46877,-2.00134 c 0.20434,-0.18493 0.23011,-0.42981 0.23011,-2.18632 0,-2.16298 -0.0704,-2.76451 -0.32344,-2.76451 -0.0914,0 -0.24002,0.1365 -0.3303,0.30333 -0.0903,0.16683 -0.46143,0.81703 -0.82477,1.44488 -0.36334,0.62785 -0.66062,1.25114 -0.66062,1.3851 0,0.26924 1.34349,2.02577 1.54942,2.02577 0.0712,0 0.23304,-0.0937 0.3596,-0.20825 z m -17.641914,-0.56379 c 1.001579,-0.88163 1.063924,-1.05181 0.650972,-1.77681 -0.787481,-1.38256 -1.470412,-2.48319 -1.541157,-2.48377 -0.125895,-0.001 -0.225857,1.86685 -0.168321,3.14514 0.02958,0.65748 0.0543,1.32281 0.05486,1.47852 0.0012,0.42045 0.191689,0.35165 1.003676,-0.36308 z m 2.829348,-1.68119 c 0.488448,-0.0829 1.452912,-0.50703 1.452912,-0.63896 0,-0.0369 -0.171621,-0.72941 -0.381379,-1.53887 l -0.38138,-1.47176 -1.094514,-1.10102 c -0.601982,-0.60556 -1.182996,-1.10102 -1.291142,-1.10102 -0.2412,0 -1.115993,0.90022 -1.498854,1.54243 l -0.281904,0.47286 0.593116,1.10002 c 1.08752,2.01697 1.812927,2.97669 2.175347,2.878 0.11568,-0.0315 0.434188,-0.0953 0.707798,-0.14168 z m 12.610046,-0.85828 c 0.66355,-0.98401 0.6442,-0.95285 1.34293,-2.16222 0.35035,-0.60639 0.4619,-0.92113 0.40575,-1.14485 -0.091,-0.3627 -1.43937,-1.81211 -1.68574,-1.81211 -0.0931,0 -0.60308,0.4425 -1.13329,0.98334 -1.21519,1.23955 -1.87257,2.43174 -2.15315,3.90486 -0.1035,0.54343 -0.10116,0.54835 0.35372,0.74492 0.5332,0.23042 1.90085,0.5146 2.11479,0.43944 0.0808,-0.0284 0.42054,-0.45741 0.75499,-0.95338 z m -9.332582,-0.0182 c 0.276828,-0.044 0.768121,-0.1654 1.091761,-0.26968 l 0.588436,-0.18962 0.08927,-0.83356 c 0.09234,-0.86222 0.0097,-2.69799 -0.138879,-3.0846 -0.04654,-0.12111 -0.149341,-0.21882 -0.228446,-0.21713 -0.0791,0.002 -0.823315,0.36468 -1.653801,0.80666 -1.711161,0.91067 -1.654266,0.80398 -1.259556,2.36185 0.296969,1.1721 0.530087,1.63746 0.785149,1.56736 0.122509,-0.0336 0.449241,-0.0972 0.72607,-0.14128 z m 5.607402,-0.96592 c 0.18496,-0.52861 0.37354,-1.15966 0.41906,-1.40235 0.0771,-0.41111 0.046,-0.46842 -0.45522,-0.83899 -0.67393,-0.49822 -2.196837,-1.25287 -2.61421,-1.29541 -0.292902,-0.0298 -0.320223,0.0156 -0.396507,0.66 -0.108114,0.91326 -0.125654,2.51681 -0.03262,2.982 0.06308,0.3154 0.171512,0.40177 0.723529,0.57632 0.357131,0.11293 0.734265,0.23305 0.838076,0.26693 0.103811,0.0339 0.412138,0.0505 0.685172,0.0371 l 0.49642,-0.0245 z m -6.698322,-3.20983 c 2.068586,-1.10878 2.358552,-1.35002 1.966912,-1.6364 -0.341619,-0.24979 -3.449804,-0.23252 -4.313512,0.024 -0.358596,0.10649 -0.651996,0.23256 -0.651996,0.28016 0,0.0867 1.778749,1.91701 1.862966,1.91701 0.02459,0 0.535624,-0.26314 1.13563,-0.58474 z m 8.673692,-0.32436 c 0.43175,-0.4654 0.785,-0.92306 0.785,-1.017 0,-0.29937 -0.89496,-0.48575 -2.64245,-0.5503 -1.387291,-0.0512 -1.786164,-0.0254 -2.175664,0.14107 -0.733376,0.3134 -0.563984,0.48521 1.609424,1.63232 0.48445,0.25568 0.93704,0.5209 1.00576,0.58935 0.25404,0.25308 0.6527,0.0294 1.41793,-0.79544 z m -9.784818,-21.74051 c 0,-0.30231 0.01174,-0.30101 -0.483993,-0.0537 -0.50672,0.25279 -0.499215,0.30537 0.04358,0.30537 0.356521,0 0.440409,-0.048 0.440409,-0.25166 z"
         id="path111" />
    </g>
  </g>
</svg>
