<?xml version="1.0" encoding="UTF-8" standalone="no"?>
<!-- Created with Inkscape (http://www.inkscape.org/) -->

<svg
   width="38.820911mm"
   height="150.0947mm"
   viewBox="0 0 38.820911 150.0947"
   version="1.1"
   id="svg1"
   xml:space="preserve"
   xmlns="http://www.w3.org/2000/svg"
   xmlns:svg="http://www.w3.org/2000/svg"><defs
     id="defs1" /><g
     id="layer1"
     transform="translate(-131.23416,-231.65159)"><g
       id="g20"
       style="fill:none;stroke:#ff0000;stroke-width:0.266667;stroke-dasharray:none;stroke-opacity:1"
       transform="matrix(1.5000001,0,0,1.5000001,-47.089214,-156.97145)"><path
         style="fill:none;stroke:#ff0000;stroke-width:0.266667;stroke-dasharray:none;stroke-opacity:1"
         d="m 130.14667,358.82454 c -2.72584,-0.50466 -5.0204,-2.82687 -5.65638,-5.72456 -0.40661,-1.85261 0.23079,-4.24256 1.54707,-5.80083 0.32102,-0.38004 0.54166,-0.78396 0.4903,-0.89762 -0.0514,-0.11365 -0.50932,-0.5336 -1.01769,-0.93323 -1.11399,-0.87569 -1.47626,-1.45805 -1.31261,-2.11009 0.13055,-0.52014 0.94197,-1.05623 1.82025,-1.20261 l 0.53857,-0.0898 -0.0335,-1.77856 c -0.0315,-1.67114 -0.2533,-2.6672 -0.96309,-4.32526 -0.0845,-0.19748 -0.25101,-0.70239 -0.36993,-1.12203 -0.11892,-0.41964 -0.28422,-0.76298 -0.36733,-0.76298 -0.0831,0 -0.15111,-0.11964 -0.15111,-0.26587 0,-0.14622 -0.19771,-0.31549 -0.43936,-0.37613 -0.61351,-0.15398 -0.91181,-0.69204 -1.15299,-2.07972 -0.3339,-1.92115 -0.61557,-2.41884 -1.68659,-2.98 -0.51632,-0.27052 -1.24197,-0.79822 -1.61254,-1.17264 l -0.67377,-0.68077 v -7.2412 c 0,-5.58257 0.0514,-7.28015 0.2244,-7.41126 0.12342,-0.0935 0.55852,-0.26549 0.96689,-0.3821 1.32549,-0.37851 2.01434,-1.7293 1.645,-3.22574 -0.22218,-0.90016 -0.93406,-1.52164 -2.02843,-1.77083 l -0.7181,-0.16352 -0.0898,-7.26409 -0.0898,-7.2641 0.4431,-0.57628 c 0.2437,-0.31696 0.70822,-0.71906 1.03226,-0.89357 0.32404,-0.17451 0.58917,-0.3797 0.58917,-0.45598 0,-0.0763 0.0885,-0.1387 0.19669,-0.1387 0.10818,0 0.42521,-0.16272 0.70452,-0.36161 0.54315,-0.38675 0.96027,-1.43554 1.16041,-2.91763 0.0935,-0.69245 0.26247,-1.00063 0.88584,-1.61572 0.42366,-0.41803 0.93887,-1.09085 1.1449,-1.49516 0.69331,-1.36052 1.29482,-3.9058 1.34043,-5.67197 l 0.0427,-1.65362 -0.72275,-0.1462 c -0.88044,-0.17811 -1.70083,-0.89617 -1.70083,-1.4887 0,-0.44587 0.57701,-1.11489 1.90617,-2.21014 l 0.72293,-0.59569 -0.61181,-0.66097 c -1.71967,-1.85786 -2.22562,-4.50226 -1.32961,-6.94929 0.70652,-1.92951 1.77316,-3.12253 3.67883,-4.11472 1.20364,-0.62668 1.26195,-0.63771 3.36986,-0.63771 2.04478,0 2.19968,0.0267 3.31481,0.57037 2.75243,1.34203 4.40016,4.16422 4.15807,7.12185 -0.12534,1.5314 -0.75176,2.90654 -1.91768,4.20976 -0.29351,0.32808 -0.3813,0.54592 -0.25319,0.62833 0.80782,0.5197 1.87913,1.47515 2.19595,1.95847 0.29635,0.45208 0.34265,0.6774 0.21057,1.0248 -0.21423,0.56347 -0.92495,1.0334 -1.77163,1.17143 -0.65356,0.10654 -0.6579,0.11307 -0.6793,1.02193 -0.0304,1.28976 0.23154,2.80749 0.7549,4.37455 0.80958,2.42406 1.13275,3.03775 1.84349,3.50072 0.59096,0.38495 0.83117,0.93757 0.99335,2.28528 0.18432,1.53166 0.49916,2.00824 1.86133,2.81749 2.23348,1.32688 2.03414,0.44942 2.02281,8.90416 -0.007,5.07695 -0.0708,7.40008 -0.20846,7.56594 -0.10925,0.13163 -0.38147,0.23934 -0.60494,0.23934 -1.15386,0 -2.06007,1.05586 -2.06189,2.40238 -0.002,1.42166 1.05408,2.62429 2.30429,2.62429 0.20141,0 0.42059,0.088 0.48707,0.19557 0.20473,0.33125 0.10156,14.64062 -0.10887,15.10043 -0.10381,0.22681 -0.52316,0.57395 -0.93189,0.77143 -1.85416,0.89582 -2.53387,1.71027 -2.7409,3.28423 -0.22526,1.71256 -0.27904,1.83496 -1.00848,2.29543 -0.38992,0.24616 -0.79535,0.66676 -0.90095,0.93467 -0.1056,0.26792 -0.26409,0.6274 -0.3522,0.79885 -0.0881,0.17145 -0.16021,0.40747 -0.16021,0.52449 0,0.11701 -0.20328,0.72087 -0.45174,1.34191 -0.30365,0.75903 -0.49915,1.70521 -0.59639,2.88648 -0.1813,2.20239 -0.1384,2.38565 0.55843,2.38565 0.77124,0 1.74669,0.78276 1.74519,1.40044 -0.002,0.63758 -0.51321,1.39016 -1.31598,1.93566 -1.03936,0.70625 -1.14316,1.06754 -0.52952,1.84294 1.8692,2.36199 2.1532,4.96625 0.83512,7.65814 -0.57406,1.17238 -2.11434,2.802 -2.97899,3.15179 -0.32303,0.13067 -0.62771,0.2873 -0.67708,0.34805 -0.1401,0.17241 -2.38662,0.54051 -3.16238,0.51818 -0.38357,-0.0111 -1.10133,-0.0949 -1.59502,-0.18626 z"
         id="path19" /></g></g></svg>
