<?xml version="1.0" encoding="UTF-8" standalone="no"?>
<!-- Created with Inkscape (http://www.inkscape.org/) -->

<svg
   width="38.517456mm"
   height="150mm"
   viewBox="0 0 38.517456 150"
   version="1.1"
   id="svg1"
   xml:space="preserve"
   xmlns="http://www.w3.org/2000/svg"
   xmlns:svg="http://www.w3.org/2000/svg"><defs
     id="defs1" /><g
     id="layer1"
     transform="translate(47.09694,-233.21658)"><g
       id="g12"
       transform="matrix(1.4954344,0,0,1.4954344,-68.966443,-153.15203)"><path
         id="path4-7"
         style="fill:none;stroke:#00ff00;stroke-width:0.267481;stroke-linejoin:bevel"
         d="m 29.88161,269.42133 a 2.3790793,2.2348926 0 0 1 -2.379079,2.23489 2.3790793,2.2348926 0 0 1 -2.379079,-2.23489 2.3790793,2.2348926 0 0 1 2.379079,-2.2349 2.3790793,2.2348926 0 0 1 2.379079,2.2349 z" /><path
         style="fill:none;stroke:#ff0000;stroke-width:0.3;stroke-dasharray:none;stroke-opacity:1"
         d="m 15.984419,358.19625 c -0.0667,-0.1824 -0.15237,-0.41305 -0.19047,-0.51254 -0.62818,-1.64033 -0.84612,-8.0554 -0.35031,-10.31123 0.26845,-1.22136 0.24056,-1.78697 -0.11596,-2.35174 -0.16582,-0.26268 -0.3015,-0.58402 -0.3015,-0.71408 0,-0.13006 -0.0543,-0.27002 -0.1206,-0.31101 -0.19405,-0.11993 -0.16406,-32.49574 0.0301,-32.55576 0.0829,-0.0256 0.47327,-0.14318 0.86745,-0.26124 1.03837,-0.31098 1.63511,-0.95945 1.99664,-2.16973 0.12401,-0.41516 0.11571,-0.6061 -0.0514,-1.18084 -0.3319,-1.14166 -1.26196,-1.95462 -2.42077,-2.11595 l -0.4824,-0.0672 -0.0306,-16.19514 -0.0306,-16.19514 0.43234,-0.92342 c 0.47354,-1.01146 0.48723,-1.25942 0.16483,-2.98678 -0.24862,-1.33205 -0.21291,-6.51771 0.0572,-8.3019 0.11886,-0.78524 0.29147,-1.57215 0.38358,-1.74869 0.0921,-0.17654 0.1678,-0.38218 0.16821,-0.45697 4.1e-4,-0.0748 0.0735,-0.19638 0.16248,-0.2702 0.12384,-0.10278 0.50524,0.0382 1.62809,0.60194 0.8065,0.4049 1.46637,0.78427 1.46637,0.84306 0,0.0588 0.0831,0.10688 0.18468,0.10688 0.10157,0 0.21592,0.0814 0.2541,0.1809 0.0382,0.0995 0.12362,0.1809 0.18986,0.1809 0.0662,0 0.27069,0.12211 0.45433,0.27135 0.18365,0.14924 0.46472,0.36515 0.6246,0.4798 0.36786,0.26377 1.30129,1.07827 2.04157,1.78144 0.86011,0.817 1.31807,1.02459 1.62357,0.73595 0.14067,-0.13291 0.84485,-0.23225 2.34166,-0.33037 1.11344,-0.073 2.64483,0.0661 3.70343,0.33637 0.59578,0.1521 0.59223,0.15407 1.87862,-1.04367 0.49854,-0.46419 1.05183,-0.94913 1.22952,-1.07765 0.1777,-0.12852 0.44176,-0.33728 0.5868,-0.4639 0.50881,-0.44419 2.0787,-1.49885 2.6757,-1.79753 0.33165,-0.16593 0.87878,-0.44104 1.21585,-0.61135 0.33706,-0.17031 0.66319,-0.27368 0.72472,-0.2297 0.16778,0.11992 0.62341,1.33923 0.70585,1.88896 0.15031,1.0022 0.31264,2.95522 0.38532,4.6358 0.0725,1.67648 0.0372,2.16107 -0.34704,4.77097 -0.18552,1.25992 -0.15665,1.58 0.2072,2.29718 l 0.30298,0.59721 4.6e-4,16.34728 c 3.8e-4,12.55432 -0.0331,16.38086 -0.14422,16.49201 -0.0796,0.0796 -0.29347,0.14472 -0.47528,0.14472 -0.18181,0 -0.3641,0.0543 -0.40509,0.1206 -0.041,0.0663 -0.17371,0.12059 -0.29491,0.12059 -0.37168,0 -1.41485,1.08717 -1.56222,1.6281 -0.19127,0.70205 -0.16218,1.58768 0.0687,2.09227 0.28789,0.62911 1.05272,1.31584 1.64491,1.47695 0.27791,0.0756 0.64097,0.1763 0.80679,0.22376 l 0.3015,0.0863 0.0306,16.44216 c 0.0258,13.90789 0.005,16.48178 -0.13784,16.6992 -0.0926,0.14137 -0.25461,0.51093 -0.35996,0.82124 -0.1714,0.50484 -0.17321,0.66912 -0.0171,1.5616 0.35994,2.05858 0.46093,3.43483 0.37994,5.17765 -0.21865,4.70512 -0.72408,6.83052 -1.49351,6.28038 -0.11608,-0.083 -0.29246,-0.18156 -0.39195,-0.21903 -1.14099,-0.42973 -3.69838,-2.09916 -4.88428,-3.1884 -0.199,-0.18277 -0.70673,-0.65058 -1.1283,-1.03956 -0.74192,-0.68459 -0.7864,-0.70655 -1.38763,-0.68531 -0.34162,0.0121 -0.77123,0.079 -0.95469,0.14877 -0.55087,0.20944 -2.83541,0.29092 -3.70506,0.13215 -2.41173,-0.44032 -2.15259,-0.48926 -3.29253,0.62167 -1.06093,1.03391 -4.33548,3.47735 -4.66014,3.47735 -0.0579,0 -0.45701,0.18994 -0.88684,0.4221 -0.94229,0.50893 -1.13948,0.52267 -1.29742,0.0904 z"
         id="path12" /></g></g></svg>
