<?xml version="1.0" encoding="UTF-8" standalone="no"?>
<!-- Created with Inkscape (http://www.inkscape.org/) -->

<svg
   width="34.965782mm"
   height="120.00001mm"
   viewBox="0 0 34.965782 120.00001"
   version="1.1"
   id="svg1"
   xml:space="preserve"
   xmlns="http://www.w3.org/2000/svg"
   xmlns:svg="http://www.w3.org/2000/svg"><defs
     id="defs1" /><g
     id="layer1"
     transform="translate(-4.5798832,-104.30087)"><g
       id="g13"
       transform="matrix(1.4012845,0,0,1.4012845,-17.844374,-111.09149)"
       style="stroke-width:0.342373;stroke-dasharray:none"><path
         style="fill:none;stroke:#ff0000;stroke-width:0.342373;stroke-dasharray:none;stroke-opacity:1"
         d="m 16.244407,239.08878 c -0.07277,-0.0804 -0.07733,-2.64311 -0.0657,-36.8913 l 0.0125,-36.8049 0.10743,-0.65282 c 0.229699,-1.3958 0.608836,-2.59325 1.209123,-3.81886 0.659636,-1.34677 1.406268,-2.3966 2.446303,-3.43969 1.411227,-1.41538 2.996793,-2.39939 4.850136,-3.01003 1.477354,-0.48676 3.226045,-0.68759 4.730561,-0.54331 3.215348,0.30836 6.112245,1.85035 8.22141,4.37617 0.683755,0.81882 1.173318,1.57513 1.66345,2.56979 0.566994,1.15065 0.868195,2.02325 1.109705,3.2149 0.271865,1.34143 0.254173,-1.32569 0.254721,38.39968 4.87e-4,35.33119 -0.0023,36.53354 -0.08557,36.60888 -0.07963,0.0721 -0.996076,0.0779 -12.230971,0.0779 -11.722812,0 -12.147608,-0.003 -12.223088,-0.0864 z"
         id="path1" /><circle
         style="fill:none;stroke:#00ff00;stroke-width:0.342373;stroke-linejoin:bevel;stroke-dasharray:none;stroke-opacity:1"
         id="path13"
         cx="28.478975"
         cy="160.36624"
         r="2" /></g></g></svg>
