<?xml version="1.0" encoding="UTF-8" standalone="no"?>
<!-- Created with Inkscape (http://www.inkscape.org/) -->

<svg
   width="39.073032mm"
   height="150.00002mm"
   viewBox="0 0 39.073032 150.00002"
   version="1.1"
   id="svg1"
   xml:space="preserve"
   xmlns="http://www.w3.org/2000/svg"
   xmlns:svg="http://www.w3.org/2000/svg"><defs
     id="defs1" /><g
     id="layer1"
     transform="translate(-76.451773,-229.93619)"><g
       id="g19"
       transform="matrix(1.497082,0,0,1.497082,-49.923188,-157.01138)"
       style="stroke-width:0.4;stroke-dasharray:none"><path
         style="fill:none;stroke:#ff0000;stroke-width:0.4;stroke-dasharray:none;stroke-opacity:1"
         d="m 96.840068,358.35907 c -0.265661,-0.0406 -0.816393,-0.37192 -1.223849,-0.73632 -0.879457,-0.78652 -1.194476,-1.80285 -0.898969,-2.90027 0.101731,-0.37781 0.13513,-0.81679 0.07422,-0.97552 -0.06091,-0.15874 -0.02129,-0.28861 0.08805,-0.28861 0.109338,0 0.198796,0.0907 0.198796,0.20158 0,0.13926 0.08326,0.13246 0.269373,-0.022 0.379818,-0.31521 0.335766,-0.48314 -0.159344,-0.6074 -0.367021,-0.0921 -2.06769,-1.23213 -2.494998,-1.67248 -0.948476,-0.97741 -1.611056,-1.804 -2.280232,-2.84465 -0.442304,-0.68784 -0.872956,-1.29974 -0.957003,-1.35979 -0.08405,-0.0601 -0.793604,-0.15857 -1.576792,-0.21897 -1.414493,-0.10908 -1.940777,-0.27468 -2.543323,-0.80026 -0.629283,-0.54891 -0.408162,-0.9941 1.045064,-2.10407 1.424276,-1.08786 2.35766,-2.07584 3.049833,-3.22821 0.389906,-0.64914 0.853629,-1.41362 1.030498,-1.69886 0.394806,-0.6367 0.745115,-3.51445 0.580698,-4.77036 -0.06466,-0.49385 -0.267921,-1.05953 -0.451706,-1.25707 -0.809524,-0.87011 -0.452659,-2.08418 0.785301,-2.67163 0.357356,-0.16958 0.649738,-0.33511 0.649738,-0.36786 0,-0.0553 -1.335766,-0.95572 -4.105952,-2.76771 -0.974728,-0.63757 -1.281905,-0.74754 -2.088099,-0.74754 -0.552917,0 -1.010277,-0.0932 -1.101923,-0.22448 -0.08617,-0.12346 -0.13471,-3.55725 -0.107864,-7.63063 l 0.04881,-7.40615 0.792412,-0.19954 c 0.984707,-0.24795 1.776576,-0.94556 2.05829,-1.81329 0.441358,-1.35946 -0.513677,-2.92185 -2.01507,-3.29655 l -0.753672,-0.1881 -0.08979,-8.25225 c -0.04938,-4.53874 -0.03342,-8.4282 0.03548,-8.64323 0.12005,-0.3747 0.235969,-0.3934 2.78352,-0.44896 l 2.658252,-0.058 0.934805,-0.7058 0.934806,-0.70579 -0.698419,-0.31269 c -0.420859,-0.18843 -0.816558,-0.54115 -0.995694,-0.88756 -0.276885,-0.53544 -0.276683,-0.62878 0.0029,-1.36097 0.16512,-0.43237 0.365035,-0.78612 0.444256,-0.78612 0.281275,0 0.378552,-1.92518 0.181852,-3.59901 -0.179752,-1.5296 -0.283141,-1.83834 -1.038872,-3.10234 -0.986214,-1.64947 -3.410686,-4.12908 -4.384561,-4.48426 -0.169904,-0.062 -0.362476,-0.32606 -0.427936,-0.58688 -0.0942,-0.37532 -0.01106,-0.58192 0.398708,-0.99075 0.45598,-0.45494 0.730307,-0.54333 2.300139,-0.74108 1.685704,-0.21234 1.797754,-0.2529 2.065191,-0.74759 0.15553,-0.28769 0.545419,-0.87634 0.866422,-1.30811 0.321003,-0.43177 0.583642,-0.81947 0.583642,-0.86156 0,-0.11098 1.878222,-1.90515 2.561169,-2.44656 0.319833,-0.25354 0.847663,-0.56785 1.172956,-0.69845 0.589158,-0.23654 0.590107,-0.23891 0.245962,-0.61649 -1.038446,-1.13933 -0.908956,-2.93712 0.28827,-4.00224 0.768224,-0.68345 1.389423,-0.85759 2.477279,-0.69446 0.627493,0.0941 0.915655,0.26903 1.426729,0.8661 0.352234,0.41151 0.687809,0.93699 0.745729,1.16776 0.18385,0.73254 -0.0561,2.01457 -0.456946,2.44124 -0.410495,0.43695 -0.47927,0.65067 -0.209384,0.65067 0.7861,0 4.21428,3.31517 5.10685,4.9385 l 0.59244,1.0775 1.81358,0.26937 c 2.60351,0.3867 3.63998,1.27856 2.44251,2.1017 -0.25816,0.17747 -0.6999,0.54489 -0.98165,0.81651 -0.28175,0.27161 -0.55714,0.49385 -0.61197,0.49385 -0.16487,0 -1.96696,1.84563 -2.36717,2.42436 -0.66432,0.96065 -1.4941,2.64136 -1.38846,2.8123 0.0566,0.0916 0.0153,0.27206 -0.0917,0.40106 -0.31441,0.37885 -0.31912,4.1567 -0.006,4.54596 0.43844,0.54447 0.70813,1.10841 0.70813,1.48072 0,0.42562 -1.14904,1.62466 -1.55692,1.62466 -0.22243,0 -0.19045,0.0919 0.14067,0.40406 1.23293,1.16247 1.07998,1.11601 3.99077,1.21218 l 2.71788,0.0898 0.10096,0.62853 c 0.0555,0.3457 0.0971,4.17546 0.0924,8.51057 -0.007,6.82145 -0.0448,7.89999 -0.27791,8.01548 -0.14815,0.0734 -0.4916,0.22363 -0.76322,0.33385 -1.14648,0.46521 -1.38955,0.64112 -1.65301,1.19633 -0.37573,0.79179 -0.3542,2.22216 0.0408,2.70793 0.42921,0.52789 1.19885,0.99034 1.88001,1.12965 0.47099,0.0963 0.59805,0.22803 0.71354,0.73963 0.0773,0.34233 0.12623,3.71555 0.10876,7.49604 -0.0261,5.64333 -0.0768,6.91096 -0.28314,7.08223 -0.13825,0.11474 -0.66931,0.21745 -1.18013,0.22824 -0.85961,0.0182 -1.11262,0.14292 -3.39801,1.67556 -1.35809,0.91076 -2.46926,1.69327 -2.46926,1.7389 0,0.0456 0.30568,0.23892 0.67928,0.42951 1.2148,0.61974 1.39227,1.57103 0.52096,2.79249 -0.35611,0.49922 -0.38803,0.73932 -0.34764,2.61447 0.0432,2.00409 0.0655,2.10733 0.75838,3.51251 0.83679,1.69695 2.24326,3.40133 3.77046,4.5691 1.90072,1.45338 1.92828,1.51742 0.98686,2.29341 -0.53261,0.43903 -0.89609,0.55585 -2.24699,0.72218 -0.88638,0.10914 -1.69256,0.24847 -1.79153,0.30963 -0.099,0.0611 -0.33468,0.41454 -0.52382,0.78529 -0.41618,0.81579 -1.86776,2.63443 -2.59593,3.25235 -0.29097,0.24692 -0.70661,0.61657 -0.92362,0.82144 -0.21702,0.20487 -0.70815,0.51877 -1.09141,0.69756 -0.383265,0.17878 -0.724161,0.34826 -0.757551,0.37661 -0.03339,0.0284 0.128233,0.30761 0.359163,0.62056 0.585888,0.79398 0.564118,2.41771 -0.04432,3.30567 -0.419003,0.6115 -1.673647,1.38687 -2.159414,1.33452 -0.137337,-0.0148 -0.467061,-0.0601 -0.732721,-0.10067 z"
         id="path18" /></g></g></svg>
