<?xml version="1.0" encoding="UTF-8" standalone="no"?>
<!-- Created with Inkscape (http://www.inkscape.org/) -->

<svg
   width="34.936672mm"
   height="120mm"
   viewBox="0 0 34.936672 120"
   version="1.1"
   id="svg1"
   xml:space="preserve"
   xmlns="http://www.w3.org/2000/svg"
   xmlns:svg="http://www.w3.org/2000/svg"><defs
     id="defs1" /><g
     id="layer1"
     transform="translate(-48.017923,-103.68422)"><g
       id="g15"
       transform="matrix(1.4020805,0,0,1.4020805,-56.571305,-111.8631)"><path
         style="fill:none;stroke:#ff0000;stroke-width:0.3;stroke-dasharray:none;stroke-opacity:1"
         d="m 76.897642,239.10697 c -0.980402,-0.23738 -1.788303,-1.04247 -2.071055,-2.06383 -0.07614,-0.27502 -0.08085,-2.63971 -0.08085,-40.51359 0,-38.26128 0.004,-40.23616 0.08291,-40.52164 0.27545,-0.99697 1.061544,-1.78084 2.035773,-2.03 0.36162,-0.0925 0.52632,-0.094 10.190184,-0.094 9.627849,0 9.829833,0.002 10.18619,0.093 0.942409,0.24103 1.675247,0.92468 1.994292,1.86044 l 0.128389,0.37656 v 40.2686 c 0,33.78256 -0.01031,40.31029 -0.06398,40.52748 -0.250533,1.01375 -1.094623,1.85991 -2.089316,2.09444 -0.254725,0.0601 -1.625223,0.069 -10.17911,0.0661 -7.858076,-0.003 -9.935739,-0.0156 -10.133426,-0.0635 z"
         id="path5" /><circle
         style="fill:none;stroke:#00ff00;stroke-width:0.199985;stroke-linejoin:bevel;stroke-dasharray:none;stroke-opacity:1"
         id="circle17"
         cx="87.054604"
         cy="158.77702"
         r="1.9998547" /></g></g></svg>
