<?xml version="1.0" encoding="UTF-8" standalone="no"?>
<!-- Created with Inkscape (http://www.inkscape.org/) -->

<svg
   width="35.225903mm"
   height="120mm"
   viewBox="0 0 35.225903 120"
   version="1.1"
   id="svg1"
   xml:space="preserve"
   xmlns="http://www.w3.org/2000/svg"
   xmlns:svg="http://www.w3.org/2000/svg"><defs
     id="defs1" /><g
     id="layer1"
     transform="translate(-95.251128,-103.57839)"><g
       id="g16"
       transform="matrix(1.4016606,0,0,1.4016606,-50.077436,-111.9153)"><path
         style="fill:none;stroke:#ff0000;stroke-width:0.3;stroke-dasharray:none;stroke-opacity:1"
         d="m 104.12486,239.08911 c -0.0724,-0.0799 -0.0778,-2.78105 -0.0772,-37.92685 4e-4,-20.81243 0.0163,-37.86415 0.0353,-37.89273 0.0256,-0.0385 10.32963,-7.98812 11.94313,-9.21425 0.16288,-0.12377 0.27136,-0.17329 0.35303,-0.16115 0.10026,0.0149 11.77571,8.94848 12.15611,9.30136 l 0.12945,0.12007 v 37.8252 c 0,34.15858 -0.007,37.83535 -0.0733,37.92982 l -0.0733,0.10461 h -12.1577 c -11.7184,0 -12.16051,-0.003 -12.2356,-0.0861 z"
         id="path7" /><circle
         style="fill:none;stroke:#00ff00;stroke-width:0.200045;stroke-linejoin:bevel;stroke-dasharray:none;stroke-opacity:1"
         id="circle18"
         cx="116.2489"
         cy="160.87663"
         r="2.0004539" /></g></g></svg>
