<?xml version="1.0" encoding="UTF-8" standalone="no"?>
<!-- Created with Inkscape (http://www.inkscape.org/) -->

<svg
   width="34.977032mm"
   height="120.00001mm"
   viewBox="0 0 34.977032 120.00001"
   version="1.1"
   id="svg1"
   xml:space="preserve"
   xmlns="http://www.w3.org/2000/svg"
   xmlns:svg="http://www.w3.org/2000/svg"><defs
     id="defs1" /><g
     id="layer1"
     transform="translate(-52.362275,-101.73831)"><g
       id="g14"
       transform="matrix(1.4013174,0,0,1.4013174,-11.080018,-113.66205)"
       style="stroke-width:0.342365;stroke-dasharray:none"><path
         style="fill:none;stroke:#ff0000;stroke-width:0.342365;stroke-dasharray:none;stroke-opacity:1"
         d="m 45.517774,239.07058 c -0.06619,-0.0945 -0.07327,-4.20994 -0.07327,-42.55151 0,-42.38413 1.39e-4,-42.44703 0.09414,-42.54103 0.09365,-0.0936 0.156901,-0.0941 12.230971,-0.0941 11.698184,0 12.139645,0.003 12.21473,0.0861 0.07237,0.08 0.0779,3.10443 0.0779,42.57168 0,38.56051 -0.0068,42.49243 -0.07397,42.55956 -0.06686,0.0669 -1.24233,0.074 -12.235596,0.074 h -12.16163 z"
         id="path3" /><path
         style="fill:none;stroke:#00ff00;stroke-width:0.342365;stroke-dasharray:none;stroke-opacity:1"
         d="m 61.622373,160.86748 c 0.160996,-0.2457 0.292723,-0.7316 0.292723,-1.07976 0,-0.34816 -0.144062,-0.87597 -0.320134,-1.17291 l -0.320129,-0.53987 H 57.72596 54.177087 l -0.292717,0.44674 c -0.160996,0.24571 -0.292717,0.78367 -0.292717,1.19546 0,0.41179 0.113185,0.9396 0.25153,1.1729 l 0.251531,0.4242 h 3.61747 3.617471 z"
         id="path492" /></g></g></svg>
