<?xml version="1.0" encoding="UTF-8" standalone="no"?>
<!-- Created with Inkscape (http://www.inkscape.org/) -->

<svg
   width="38.734818mm"
   height="150.09496mm"
   viewBox="0 0 38.734818 150.09496"
   version="1.1"
   id="svg1"
   xml:space="preserve"
   xmlns="http://www.w3.org/2000/svg"
   xmlns:svg="http://www.w3.org/2000/svg"><defs
     id="defs1" /><g
     id="layer1"
     transform="translate(-20.485339,-229.93004)"><g
       id="g18"
       transform="matrix(1.5000004,0,0,1.5000004,-53.209449,-159.37391)"
       style="stroke-width:0.266667;stroke-dasharray:none"><path
         style="fill:none;stroke:#ff0000;stroke-width:0.266667;stroke-dasharray:none;stroke-opacity:1"
         d="m 58.632582,359.3609 c -0.445599,-0.0833 -1.336797,-0.23116 -1.980441,-0.32869 -1.689978,-0.25609 -1.738951,-0.27939 -3.091212,-1.47128 -0.720503,-0.63506 -1.026913,-0.77219 -2.142973,-0.95905 -1.043531,-0.17473 -1.370517,-0.30947 -1.645804,-0.67818 -0.33918,-0.4543 -0.338587,-0.47445 0.04669,-1.58775 l 0.390233,-1.12761 -0.46929,-1.97021 c -0.562907,-2.36326 -0.561694,-2.32699 -0.109208,-3.26353 0.216509,-0.44812 0.36008,-1.11373 0.36008,-1.66937 0,-1.3558 0.639202,-4.11719 1.157936,-5.00234 1.310499,-2.2362 1.223014,-3.32785 -0.55476,-6.92244 l -1.179138,-2.38417 -0.09965,-9.54388 c -0.09431,-9.03273 -0.08221,-9.56313 0.225865,-9.90356 0.179033,-0.19782 0.479016,-0.35969 0.66663,-0.35969 0.921973,0 1.648391,-0.70869 2.048694,-1.99872 0.410641,-1.32334 -0.796858,-3.22244 -2.048919,-3.22244 -0.955446,0 -0.93682,0.20054 -0.93682,-10.08631 0,-10.32777 0.02179,-10.59653 1.013218,-12.49806 1.401959,-2.68892 4.516331,-6.25993 8.033795,-9.21174 0.569376,-0.47781 1.03523,-0.92863 1.03523,-1.00182 0,-0.23423 -1.250155,-0.37716 -2.198496,-0.25136 -1.049568,0.13923 -1.696887,0.43244 -2.212486,1.00217 -0.861058,0.95146 -1.922316,1.08499 -3.234499,0.407 -0.685619,-0.35426 -0.983382,-0.73868 -0.990715,-1.27905 -0.0035,-0.26147 -0.137068,-0.45629 -0.351065,-0.51225 -0.546707,-0.14297 -0.743694,-0.91039 -0.785762,-3.06119 -0.03672,-1.87771 -0.013,-2.03013 0.381639,-2.45246 0.572024,-0.61216 1.61535,-1.12017 4.080203,-1.98672 1.516424,-0.53312 3.843177,-1.63317 4.970644,-2.35003 0.57182,-0.36358 0.944979,-0.78243 1.227823,-1.37819 0.869695,-1.83183 2.41975,-2.80763 4.153835,-2.61495 1.855517,0.20617 4.589935,0.74183 5.022089,0.98382 0.237086,0.13275 0.78962,0.57187 1.227851,0.97582 0.686157,0.63247 0.948449,0.75233 1.889141,0.86325 1.195159,0.14092 2.000087,0.60635 2.089777,1.20838 0.03112,0.20893 -0.107819,0.75156 -0.30877,1.20584 -0.392919,0.88826 -0.367197,1.26303 0.244554,3.56308 0.364157,1.36915 0.349588,2.07659 -0.05648,2.74246 -0.235175,0.38565 -0.36171,1.0459 -0.431304,2.2505 -0.110521,1.91302 -0.416969,3.01602 -1.431301,5.15172 l -0.696517,1.46653 0.257352,1.23407 c 0.259806,1.24583 0.913414,2.82575 1.68525,4.07361 0.9162,1.48127 0.957688,2.03039 0.907325,12.00907 l -0.04667,9.24572 -0.870642,0.29123 c -0.478853,0.16018 -1.06511,0.4784 -1.302792,0.70716 -0.811207,0.78076 -0.982568,2.53929 -0.342516,3.51496 0.257694,0.39282 1.042529,0.83894 1.97583,1.12313 l 0.54012,0.16446 0.05102,9.80787 c 0.05611,10.7868 0.07647,10.54374 -1.067811,12.7491 -1.317409,2.53902 -3.759717,5.35904 -7.57533,8.74689 -0.764786,0.67905 -1.347384,1.30442 -1.294665,1.38973 0.135218,0.21878 1.925693,0.19285 2.855864,-0.0414 0.459455,-0.1157 1.099931,-0.4858 1.557849,-0.9002 0.644816,-0.58355 0.906979,-0.70374 1.535069,-0.70374 0.901248,0 2.308518,0.56218 2.471691,0.98741 0.06381,0.16627 0.116012,0.49824 0.116012,0.7377 0,0.31093 0.09988,0.43537 0.349455,0.43537 0.192201,0 0.415,0.10128 0.49511,0.22505 0.256918,0.39696 0.556368,3.77336 0.388558,4.38112 -0.306837,1.11127 -1.428684,1.84377 -4.379461,2.85954 -3.398482,1.16988 -5.579816,2.41922 -6.211915,3.55783 -0.674003,1.21408 -1.242251,1.89088 -1.926632,2.29468 -0.727204,0.42906 -2.271421,0.59158 -3.478398,0.36608 z"
         id="path14" /></g></g></svg>
