<?xml version="1.0" encoding="UTF-8" standalone="no"?>
<!-- Created with Inkscape (http://www.inkscape.org/) -->

<svg
   width="38.971184mm"
   height="150.09476mm"
   viewBox="0 0 38.971184 150.09476"
   version="1.1"
   id="svg1"
   xml:space="preserve"
   xmlns="http://www.w3.org/2000/svg"
   xmlns:svg="http://www.w3.org/2000/svg"><defs
     id="defs1" /><g
     id="layer1"
     transform="translate(-132.57106,-90.819806)"><g
       id="layer1-6"
       transform="translate(-55.137057,-157.15288)"><g
         id="g21"
         transform="matrix(1.0176125,0,0,1.0176125,255.84306,1.1527354)"
         style="stroke-width:0.393077;stroke-dasharray:none"><path
           style="fill:none;stroke:#ff0000;stroke-width:0.393077;stroke-dasharray:none;stroke-opacity:1"
           d="m -50.172007,387.70163 c -1.509919,-1.5281 -2.58316,-2.35841 -3.744053,-2.89657 -1.696921,-0.78664 -4.5053,-1.38818 -6.29733,-1.34885 -0.575053,0.0126 -1.170365,-0.0785 -1.322917,-0.20242 -0.152551,-0.12395 -0.783783,-0.37569 -1.402737,-0.55942 -1.408421,-0.41808 -3.136278,-2.07853 -3.509609,-3.37271 -0.194315,-0.67361 -0.258081,-10.03503 -0.204835,-30.07142 l 0.07731,-29.09333 0.79375,-0.16501 c 0.960685,-0.19972 2.310503,-0.88072 2.717343,-1.37093 0.163654,-0.19719 0.449283,-0.92583 0.634732,-1.6192 0.27939,-1.04461 0.275963,-1.29851 -0.01999,-1.48142 -0.196443,-0.12141 -0.272122,-0.35836 -0.168175,-0.52655 0.463619,-0.75015 -1.885544,-2.66377 -3.270045,-2.66377 -0.288251,0 -0.605123,-0.13112 -0.704162,-0.29136 -0.09904,-0.16025 -0.173677,-13.30557 -0.165865,-29.21181 0.01411,-28.71845 0.01806,-28.92942 0.56629,-30.20381 0.982844,-2.28469 2.953396,-3.19054 8.828243,-4.0583 2.768515,-0.40894 4.635895,-1.41114 7.1505,-3.8376 1.130004,-1.0904 2.211541,-1.98254 2.403415,-1.98254 0.191874,0 0.822765,0.51412 1.40198,1.14249 2.846321,3.0879 5.940992,4.65091 9.994484,5.04789 3.650915,0.35755 5.75363,1.45285 6.909594,3.5992 0.47862,0.88868 0.501756,2.10014 0.573522,30.03021 l 0.07478,29.10417 -0.567115,0.46302 c -0.311914,0.25466 -0.831744,0.46302 -1.15518,0.46302 -0.323435,0 -1.032261,0.38695 -1.575167,0.85989 -0.912802,0.79517 -0.994495,0.98515 -1.085313,2.52382 -0.09006,1.52583 -0.0349,1.73603 0.664676,2.5328 0.428282,0.48778 1.262118,1.02639 1.901126,1.22801 0.626032,0.19752 1.287069,0.47132 1.46897,0.60845 0.261068,0.19681 0.330185,6.33091 0.328144,29.12266 l -0.0026,28.87333 -0.621373,1.32292 c -0.341755,0.7276 -0.849837,1.52571 -1.129071,1.77357 -0.966468,0.85789 -3.412843,1.76012 -5.520428,2.03594 -4.940981,0.64662 -6.339884,1.28574 -9.469719,4.32642 -1.160853,1.12779 -2.183966,2.04846 -2.273586,2.04595 -0.08962,-0.003 -1.115445,-0.96855 -2.279612,-2.14674 z"
           id="path20" /></g></g></g></svg>
