<?xml version="1.0" encoding="UTF-8" standalone="no"?>
<!-- Created with Inkscape (http://www.inkscape.org/) -->

<svg
   width="40.712341mm"
   height="119.99999mm"
   viewBox="0 0 40.712341 119.99999"
   version="1.1"
   id="svg1"
   xml:space="preserve"
   xmlns="http://www.w3.org/2000/svg"
   xmlns:svg="http://www.w3.org/2000/svg"><defs
     id="defs1" /><g
     id="layer1"
     transform="translate(-82.3104,-336.89179)"><g
       id="g68"
       transform="matrix(0.669613,0,0,0.669613,30.377789,92.436479)"><path
         id="path70"
         style="fill:none;stroke:#0000ff;stroke-width:0.44802;stroke-dasharray:none;stroke-opacity:1"
         d="m 135.29082,538.65352 c -0.0612,-1.08519 -0.45693,-15.61712 -0.64957,-23.85196 -0.13801,-5.89898 -0.56565,-21.86255 -0.66254,-24.73226 -0.0816,-2.41616 -0.15987,-5.45274 -0.34583,-13.41411 -0.11772,-5.03992 -0.39323,-15.19704 -0.49802,-18.36055 -0.12577,-3.79669 -0.55221,-20.35932 -0.7512,-29.17569 -0.0947,-4.1961 -0.20795,-8.45927 -0.25166,-9.47371 -0.0437,-1.01444 -0.11991,-3.35353 -0.16934,-5.19797 -0.55008,-20.52562 -0.62541,-22.00284 -1.24755,-24.46625 -0.63475,-2.51334 -1.47283,-4.1106 -2.66801,-5.08489 -0.78822,-0.64254 -0.96668,-0.71443 -1.7734,-0.71443 -0.73409,0 -1.04407,0.099 -1.70683,0.54494 -0.96992,0.65268 -1.91088,1.83828 -1.91088,2.40769 0,0.2271 -0.12355,0.45883 -0.27577,0.51724 -0.46316,0.17773 -0.73029,-0.41689 -0.73029,-1.62556 0,-1.5395 -0.55904,-3.66071 -1.44002,-5.46402 -2.56247,-5.24521 -7.65283,-6.00895 -10.9572,-1.64398 -0.45187,0.59691 -0.95985,1.42151 -1.12883,1.83245 -0.16899,0.41094 -0.38965,0.74744 -0.49036,0.74779 -0.1007,3.4e-4 -0.39578,-0.54642 -0.65572,-1.21503 -0.82098,-2.11168 -1.83155,-3.41765 -3.35308,-4.33325 -0.87393,-0.5259 -2.67178,-0.56213 -3.688877,-0.0743 -1.45369,0.69717 -3.5725,3.3471 -4.13358,5.16975 -0.56175,1.8248 -0.83102,3.28828 -0.92412,5.02263 -0.13338,2.48443 -0.29095,2.66732 -1.17136,1.35961 -0.35512,-0.52747 -1.00627,-1.26142 -1.44701,-1.63102 -0.69856,-0.5858 -0.93048,-0.68132 -1.8083,-0.74482 -1.39771,-0.1011 -2.30623,0.28053 -3.50573,1.4726 -1.81505,1.80382 -3.09739,4.74098 -3.699,8.47245 -0.20931,1.29823 -0.26169,4.17555 -0.4029,22.13328 -0.0529,6.7322 -0.13621,15.63581 -0.18505,19.7858 -0.0488,4.14999 -0.16106,16.3736 -0.24939,27.16357 -0.15778,19.27328 -0.22012,25.25973 -0.43565,41.83524 -0.0594,4.56499 -0.15444,14.05342 -0.21128,21.0854 l -0.10336,12.78543 26.847757,-1.1e-4 26.84774,-10e-5 z M 97.336863,418.39537 c -1.03319,-0.35482 -2.23051,-1.50068 -2.41002,-2.30645 -0.24815,-1.11386 -0.31069,-4.07806 -0.11451,-5.42698 0.68823,-4.73222 3.87915,-9.20118 8.080517,-11.31695 2.02459,-1.01957 3.4337,-1.32655 6.09751,-1.32838 2.57592,-0.002 3.8393,0.27385 5.80609,1.26669 1.91114,0.96474 4.23367,3.2925 5.31318,5.32515 1.10689,2.08421 1.53208,3.95386 1.55112,6.82065 0.0144,2.17365 -0.32557,4.00884 -0.93554,5.04968 -0.84901,1.44873 -3.20101,2.10301 -4.80718,1.33727 -0.33978,-0.16199 -1.43387,-1.1209 -2.43131,-2.13092 -2.19555,-2.22323 -3.07806,-2.73215 -4.7378,-2.73215 -1.53583,0 -2.3936,0.4585 -4.17285,2.23051 -2.06714,2.05873 -2.89873,2.68884 -4.14617,3.14164 -1.312207,0.47631 -1.873487,0.48905 -3.093037,0.0702 z m -8.13231,-15.54403 c -1.92516,-1.01172 -3.20201,-3.56273 -3.38899,-6.77086 -0.40368,-6.92602 4.5539,-11.02325 7.6955,-6.36003 0.99212,1.47264 1.48756,3.37354 1.49272,5.7272 0.006,2.57069 -0.70398,4.84748 -1.97283,6.32985 -1.0352,1.2094 -2.68659,1.67284 -3.8264,1.07384 z m 35.295877,-0.85144 c -0.56637,-0.21772 -1.35449,-0.95775 -1.86157,-1.74796 -1.9571,-3.04987 -1.56968,-8.92432 0.74093,-11.23493 2.06458,-2.06458 4.57903,-0.92406 5.81964,2.63971 0.58017,1.6666 0.59236,4.8016 0.0255,6.56266 -0.57401,1.7833 -1.6209,3.22604 -2.66509,3.67282 -0.54299,0.23233 -1.59246,0.28721 -2.05942,0.1077 z m -23.46569,-7.272 c -0.2256,-0.0901 -0.72517,-0.42192 -1.110137,-0.73738 -1.62117,-1.32842 -2.70827,-3.98259 -2.86679,-6.99927 -0.13221,-2.5162 0.11813,-4.04109 0.943,-5.74389 0.69717,-1.43921 1.21114,-2.02432 2.267897,-2.58181 0.88771,-0.46831 1.70504,-0.44468 2.70225,0.0781 1.09223,0.57263 1.79263,1.38651 2.5875,3.0067 1.51767,3.09348 1.52783,8.05621 0.0219,10.68107 -0.59565,1.03821 -1.58974,2.05161 -2.25994,2.30386 -0.57793,0.21752 -1.73179,0.21378 -2.28563,-0.007 z m 12.42135,-0.699 c -1.41157,-0.28814 -2.7219,-2.12295 -3.32024,-4.64924 -0.36305,-1.53283 -0.2284,-4.56403 0.26716,-6.01426 0.55961,-1.63767 0.98796,-2.45514 1.7256,-3.29314 1.13918,-1.29418 2.59875,-1.76621 3.90416,-1.26262 1.20399,0.46447 2.46392,2.25611 2.95238,4.19832 0.29694,1.18067 0.2927,4.49175 -0.007,5.701 -0.53252,2.14656 -1.8899,4.35743 -3.04064,4.9525 -0.74621,0.38588 -1.69931,0.52703 -2.48114,0.36744 z" /><path
         style="fill:none;stroke:#ff0000;stroke-width:0.71517;stroke-dasharray:none;stroke-opacity:1"
         d="m 77.969753,543.54175 c -0.05,-0.20775 -0.0704,-40.36853 -0.0452,-89.24619 l 0.0457,-88.86845 h 30.014067 30.01406 v 89.20381 89.20381 l -29.96884,0.0424 -29.968827,0.0424 z"
         id="path68" /></g></g></svg>
