<?xml version="1.0" encoding="UTF-8" standalone="no"?>
<!-- Created with Inkscape (http://www.inkscape.org/) -->

<svg
   width="30.536383mm"
   height="140.29659mm"
   viewBox="0 0 30.536383 140.29659"
   version="1.1"
   id="svg1"
   xmlns="http://www.w3.org/2000/svg"
   xmlns:svg="http://www.w3.org/2000/svg">
  <defs
     id="defs1" />
  <g
     id="layer1"
     transform="translate(-67.583025,-6.3727801)">
    <g
       id="g593"
       transform="matrix(0.95781619,0,0,0.95781619,-31.64033,-53.555028)">
      <path
         id="path595"
         style="display:inline;fill:none;fill-opacity:1;stroke:#0000ff;stroke-width:0.3;stroke-dasharray:none;stroke-opacity:1"
         d="m 133.69254,175.27747 c -0.0429,0.13112 -0.12951,5.39482 -0.19241,11.69711 -0.0629,6.30229 -0.14256,12.55438 -0.17701,13.89352 -0.0345,1.33915 -0.1071,2.90279 -0.16144,3.47476 -0.0543,0.57197 -0.1443,1.12409 -0.19991,1.22692 -0.0602,0.11133 -0.13587,0.15191 -0.18702,0.1003 -0.05,-0.0504 -0.0737,-5.18935 -0.0566,-12.29732 l 0.0293,-12.21067 -0.0998,-0.0337 c -0.0549,-0.0186 -0.48589,0.2695 -0.95775,0.64015 -0.47185,0.37065 -1.05145,0.83073 -1.28799,1.0224 -0.23655,0.19167 -0.61677,0.51687 -0.84495,0.72266 -0.22818,0.2058 -0.46257,0.46236 -0.52085,0.57014 -0.0682,0.12615 -0.10313,0.84243 -0.098,2.01091 0.004,0.99823 0.0491,2.26634 0.0993,2.81804 0.0502,0.55169 0.13221,1.51892 0.18228,2.1494 0.0501,0.63048 0.14938,1.61927 0.22069,2.19732 0.0713,0.57805 0.17545,1.39497 0.23142,1.81539 0.056,0.42041 0.16338,1.1193 0.23872,1.55307 0.0753,0.43378 0.20259,1.16486 0.2828,1.62463 0.0802,0.45977 0.20563,1.13702 0.27872,1.50499 0.0731,0.36797 0.19405,0.99159 0.26881,1.38583 0.0747,0.39424 0.18367,0.95335 0.24203,1.24248 0.0584,0.28912 0.1707,0.86974 0.24966,1.29025 0.0789,0.42052 0.16394,0.87591 0.18885,1.01199 0.0283,0.15467 -0.0144,0.3066 -0.11402,0.40534 -0.0876,0.0869 -0.21853,0.15768 -0.29089,0.15737 -0.0723,-3.2e-4 -0.25122,-0.15883 -0.39748,-0.35225 l -0.26593,-0.35166 -0.11017,-0.62879 c -0.0606,-0.34584 -0.18032,-0.99437 -0.26605,-1.44117 -0.0857,-0.44681 -0.21014,-1.13491 -0.27645,-1.52911 -0.0663,-0.3942 -0.19089,-1.0823 -0.27685,-1.52911 -0.086,-0.44681 -0.21256,-1.1564 -0.28133,-1.57687 -0.0688,-0.42048 -0.17204,-1.04402 -0.2295,-1.38567 -0.0575,-0.34164 -0.16373,-0.9652 -0.23615,-1.38569 -0.0724,-0.42049 -0.19405,-1.36641 -0.27027,-2.10204 -0.0762,-0.73563 -0.16149,-1.63842 -0.1895,-2.00619 -0.028,-0.36777 -0.11473,-0.86715 -0.19272,-1.10973 l -0.14182,-0.44104 -0.54345,-0.53363 c -0.29889,-0.2935 -0.9289,-0.82771 -1.40002,-1.18714 l -0.85658,-0.65351 -0.66827,-0.0402 -0.66828,-0.0402 -0.25362,-0.18129 c -0.13948,-0.0997 -0.34243,-0.36683 -0.45099,-0.59361 -0.10855,-0.22678 -0.19684,-0.53334 -0.19619,-0.68125 7.2e-4,-0.14791 0.0879,-0.40795 0.19399,-0.57787 l 0.19281,-0.30893 0.2992,-0.0585 c 0.16456,-0.0322 0.45433,-0.014 0.64393,0.0404 0.1896,0.0544 0.43728,0.17753 0.55039,0.27369 0.11311,0.0962 0.29466,0.34267 0.40345,0.54779 0.11056,0.20848 0.19701,0.54974 0.19603,0.77382 l -0.002,0.40086 0.40442,0.32393 c 0.22244,0.17816 0.78449,0.57518 1.24901,0.88227 l 0.84458,0.55835 0.0791,-0.12671 c 0.0435,-0.0697 0.0606,-1.30999 0.0381,-2.75623 -0.0234,-1.50136 0.008,-3.38727 0.0727,-4.39566 0.0626,-0.97137 0.17997,-2.43191 0.2609,-3.24563 0.0809,-0.81373 0.17601,-1.64044 0.21129,-1.83713 0.0362,-0.20193 0.0125,-0.54536 -0.0545,-0.78881 -0.0764,-0.27754 -0.27509,-0.59644 -0.55762,-0.89495 -0.24142,-0.25507 -0.78107,-0.83895 -1.19924,-1.29751 -0.41816,-0.45856 -0.91935,-0.91866 -1.11376,-1.02244 -0.22065,-0.11779 -0.54106,-0.18953 -0.85269,-0.19089 l -0.49923,-0.002 -0.30009,-0.20756 c -0.16505,-0.11417 -0.39359,-0.34531 -0.50786,-0.51366 -0.11428,-0.16836 -0.22958,-0.51652 -0.25622,-0.77369 l -0.0485,-0.46758 0.17419,-0.33347 0.17419,-0.33346 0.39715,-0.12379 0.39715,-0.1238 0.3669,0.10091 c 0.2018,0.0555 0.52334,0.2313 0.71454,0.39066 0.21944,0.18289 0.40313,0.45495 0.49811,0.73775 0.0828,0.24641 0.14965,0.66596 0.14866,0.93234 l -0.002,0.48432 1.25602,1.16462 c 0.69082,0.64054 1.30931,1.14443 1.37444,1.11977 0.0651,-0.0247 0.16205,-0.26652 0.21538,-0.53746 0.0533,-0.27094 0.14867,-0.83616 0.21187,-1.25605 0.0632,-0.4199 0.17541,-1.12845 0.24935,-1.57455 0.074,-0.44611 0.20037,-1.17608 0.28094,-1.62216 0.0806,-0.44608 0.21165,-1.15455 0.29128,-1.57437 0.0796,-0.41982 0.21266,-1.12827 0.29562,-1.57434 0.083,-0.44607 0.19279,-1.00423 0.24408,-1.24035 0.0513,-0.23612 0.0963,-0.69126 0.1,-1.01143 l 0.007,-0.58212 -0.91314,-1.37947 c -0.50223,-0.75871 -1.05518,-1.59495 -1.22877,-1.85832 -0.17359,-0.26337 -0.34969,-0.52197 -0.39132,-0.57468 -0.0416,-0.0527 -0.2462,-0.35441 -0.45459,-0.67045 -0.20839,-0.31604 -0.52893,-0.7149 -0.71231,-0.88636 -0.18339,-0.17146 -0.37022,-0.31194 -0.41518,-0.31217 -0.045,-2.4e-4 -0.25921,-0.13842 -0.47612,-0.30707 -0.2169,-0.16864 -0.40883,-0.31648 -0.4265,-0.32853 -0.0177,-0.012 -0.0661,-0.17586 -0.10771,-0.36402 -0.0416,-0.18817 -0.039,-0.50098 0.006,-0.69513 0.0447,-0.19415 0.18084,-0.42895 0.30258,-0.52176 0.12174,-0.0928 0.35292,-0.16914 0.51374,-0.16961 l 0.2924,-8.3e-4 0.21316,0.29098 c 0.11724,0.16004 0.27327,0.46374 0.34673,0.67489 0.0787,0.22618 0.11143,0.54855 0.0797,0.78461 l -0.0539,0.40069 0.26772,0.40027 c 0.14725,0.22014 0.60527,0.86673 1.01783,1.43686 0.41255,0.57013 0.77794,1.05821 0.81197,1.08462 0.034,0.0264 0.24664,0.31649 0.47248,0.64462 0.22583,0.32813 0.44809,0.57366 0.49391,0.54562 0.0458,-0.028 0.0838,-0.15836 0.0844,-0.28959 7.2e-4,-0.13123 -0.0782,-0.65545 -0.17513,-1.16493 -0.0969,-0.50948 -0.22328,-1.20585 -0.28084,-1.54749 -0.0576,-0.34164 -0.18815,-1.06515 -0.29018,-1.6078 -0.10203,-0.54266 -0.18522,-1.05342 -0.18486,-1.13503 3.5e-4,-0.0816 -0.31611,-0.45584 -0.70326,-0.83163 l -0.7039,-0.68325 -0.0645,-0.44444 c -0.0355,-0.24445 -0.0359,-0.54526 -7.2e-4,-0.66846 0.035,-0.12321 0.12944,-0.37728 0.20979,-0.56461 0.0865,-0.20171 0.30729,-0.44412 0.5414,-0.59446 0.21742,-0.13963 0.51282,-0.25335 0.65645,-0.25272 0.14363,6.1e-4 0.38191,0.0475 0.52951,0.10418 0.14761,0.0567 0.36688,0.19613 0.48728,0.30991 0.1204,0.11379 0.30179,0.3965 0.4031,0.62826 0.1013,0.23175 0.18354,0.56768 0.18276,0.74651 -7.3e-4,0.17883 -0.0688,0.48454 -0.15125,0.67934 -0.0824,0.1948 -0.32166,0.55619 -0.5317,0.80307 l -0.38188,0.44888 0.10286,0.64826 c 0.0566,0.35654 0.14283,0.79883 0.19169,0.98287 0.0489,0.18404 0.1551,0.67869 0.23609,1.09921 0.081,0.42053 0.18105,0.93663 0.22233,1.1469 0.0413,0.21027 0.13786,0.69681 0.21461,1.0812 0.0768,0.38439 0.16611,0.7257 0.19858,0.75845 0.0325,0.0328 0.10384,0.0152 0.1586,-0.0391 0.0548,-0.0543 0.20823,-0.54492 0.34104,-1.09031 0.13281,-0.54539 0.35207,-1.42086 0.48726,-1.94548 0.13518,-0.52462 0.28633,-1.12557 0.33588,-1.33543 0.0496,-0.20987 0.15271,-0.59617 0.22922,-0.85844 0.0765,-0.26227 0.20562,-0.71291 0.28689,-1.00142 l 0.14777,-0.52457 0.028,-1.71876 0.028,-1.71876 -0.51388,-0.7662 c -0.28264,-0.42141 -0.62627,-0.87823 -0.76362,-1.01516 l -0.24972,-0.24896 -0.57522,-0.11579 c -0.31637,-0.0637 -0.68373,-0.20191 -0.81635,-0.30718 -0.13263,-0.10527 -0.32221,-0.41166 -0.42129,-0.68087 l -0.18015,-0.48948 0.0954,-0.43957 c 0.0525,-0.24177 0.17935,-0.5457 0.28197,-0.67541 0.10262,-0.12971 0.30194,-0.31118 0.44292,-0.40328 0.1475,-0.0964 0.43627,-0.16692 0.68014,-0.16621 l 0.42381,0.001 0.30627,0.21184 c 0.16845,0.11651 0.37429,0.32816 0.45744,0.47033 0.0889,0.15195 0.15022,0.47424 0.14887,0.78192 -0.001,0.28789 -0.067,0.64623 -0.14614,0.79632 -0.0791,0.15009 -0.14445,0.35086 -0.1452,0.44615 -7.2e-4,0.0953 0.18035,0.38613 0.40243,0.6463 0.22208,0.26017 0.48503,0.47342 0.58435,0.47388 l 0.18058,8.3e-4 -0.0572,-1.98174 c -0.0315,-1.08996 -0.0958,-2.66946 -0.14286,-3.51001 -0.0471,-0.84055 -0.12779,-1.91521 -0.17927,-2.38812 -0.0515,-0.47292 -0.15409,-1.33281 -0.22803,-1.91087 -0.0739,-0.57806 -0.1764,-1.36275 -0.22767,-1.74376 -0.0513,-0.381 -0.13494,-1.00446 -0.18593,-1.38547 -0.051,-0.381 -0.13417,-0.92926 -0.18485,-1.21835 -0.0507,-0.28909 -0.17835,-1.06315 -0.28371,-1.72013 -0.10536,-0.65698 -0.29459,-1.71062 -0.42052,-2.34143 -0.12593,-0.63081 -0.29366,-1.42653 -0.37273,-1.76826 -0.0791,-0.34174 -0.20058,-0.85794 -0.27002,-1.14711 -0.0694,-0.28917 -0.19156,-0.7624 -0.2714,-1.05162 -0.0798,-0.28921 -0.28144,-0.89171 -0.448,-1.33887 -0.16656,-0.44716 -0.35068,-0.94215 -0.40917,-1.09997 -0.0585,-0.15782 -0.2542,-0.55617 -0.4349,-0.88522 -0.19585,-0.35663 -0.39196,-0.59855 -0.48554,-0.59896 -0.0863,-3.8e-4 -0.48166,0.32012 -0.8785,0.71221 -0.44784,0.4425 -0.91578,0.80231 -1.23366,0.9486 -0.29199,0.13437 -0.68751,0.23532 -0.92008,0.23483 -0.25219,-5.3e-4 -0.65276,-0.11306 -1.04914,-0.29474 -0.4181,-0.19162 -0.79971,-0.46138 -1.09678,-0.7753 -0.25057,-0.26479 -0.56067,-0.72189 -0.68911,-1.0158 -0.12844,-0.2939 -0.25001,-0.51709 -0.27017,-0.49597 -0.0201,0.0211 -0.15353,0.31719 -0.29638,0.65796 -0.14286,0.34076 -0.44584,0.98741 -0.67329,1.437 -0.22746,0.44959 -0.53381,1.00689 -0.68078,1.23843 -0.14697,0.23155 -0.519,0.74948 -0.82671,1.15097 -0.30772,0.40149 -0.75012,0.88479 -0.98311,1.07401 -0.23299,0.18921 -0.67521,0.43167 -0.9827,0.53879 l -0.55908,0.19477 -0.57555,-0.0478 c -0.32673,-0.0272 -0.75972,-0.14208 -1.00152,-0.26584 -0.23428,-0.11991 -0.54676,-0.30394 -0.69441,-0.40896 -0.14764,-0.10503 -0.43328,-0.40138 -0.63475,-0.65857 -0.20147,-0.25719 -0.44978,-0.69368 -0.5518,-0.96997 -0.10201,-0.2763 -0.33903,-0.83408 -0.52671,-1.23951 l -0.34123,-0.73716 0.003,-0.56005 0.003,-0.56006 0.37174,-0.61251 0.37173,-0.61251 0.56374,-0.39533 c 0.31006,-0.21743 0.72853,-0.44394 0.92992,-0.50337 l 0.36616,-0.10805 -0.13409,-0.20389 c -0.0738,-0.11215 -0.40897,-0.39383 -0.74493,-0.62596 -0.33595,-0.23214 -0.78198,-0.55883 -0.99118,-0.72599 -0.2092,-0.16716 -0.48744,-0.41338 -0.61831,-0.54715 -0.13087,-0.13377 -0.41105,-0.43581 -0.62262,-0.67119 -0.21157,-0.23538 -0.51762,-0.62415 -0.68011,-0.86394 -0.1625,-0.23979 -0.42849,-0.71364 -0.5911,-1.05302 -0.16261,-0.33937 -0.37859,-0.88966 -0.47995,-1.22286 -0.10136,-0.3332 -0.21005,-0.6479 -0.24152,-0.69933 -0.0315,-0.0514 -0.15255,0.0345 -0.26907,0.19102 -0.11652,0.15649 -0.42414,0.4584 -0.68362,0.6709 -0.25947,0.21251 -0.70869,0.50374 -0.99828,0.64717 -0.28958,0.14344 -0.59344,0.32615 -0.67522,0.40602 -0.0818,0.0799 -0.53269,0.63455 -1.00201,1.23261 -0.46931,0.59805 -0.92201,1.20696 -1.00598,1.35313 -0.084,0.14616 -0.22787,0.26569 -0.31978,0.26562 l -0.16711,-1.3e-4 0.002,-0.45804 c 10e-4,-0.28791 0.0644,-0.54029 0.1701,-0.6795 0.0924,-0.12181 0.30064,-0.37673 0.46265,-0.56648 0.162,-0.18976 0.62204,-0.7733 1.02229,-1.29676 0.40025,-0.52346 0.75984,-1.05903 0.79908,-1.19016 0.0392,-0.13113 0.25375,-0.51694 0.47667,-0.85735 0.22293,-0.34042 0.63848,-0.85426 0.92345,-1.14188 0.28498,-0.28762 0.71219,-0.67655 0.94936,-0.8643 0.23717,-0.18775 0.52714,-0.39158 0.64437,-0.45295 l 0.21315,-0.11159 0.18018,0.11363 0.18018,0.11362 0.65789,-0.26002 0.65788,-0.26003 1.05073,0.009 1.05073,0.009 0.55424,0.19478 c 0.30483,0.10712 0.81952,0.33055 1.14375,0.4965 0.32422,0.16595 0.63234,0.33318 0.68469,0.37161 0.0523,0.0384 0.30033,0.14671 0.55106,0.24062 0.25073,0.0939 0.52392,0.14496 0.60709,0.11347 l 0.15122,-0.0573 -0.089,-0.11863 c -0.0489,-0.0652 -0.20503,-0.39586 -0.34688,-0.73469 -0.14185,-0.33884 -0.31877,-0.91181 -0.39315,-1.27326 -0.0744,-0.36145 -0.13414,-0.90842 -0.13279,-1.21549 0.001,-0.30707 0.0655,-0.88035 0.14263,-1.27395 0.0771,-0.39361 0.22708,-0.88016 0.3333,-1.08124 0.10622,-0.20108 0.31443,-0.49795 0.46269,-0.65971 0.14825,-0.16176 0.5714,-0.53152 0.94032,-0.82169 0.36893,-0.29016 0.88986,-0.7566 1.15763,-1.03653 0.26778,-0.27994 0.74069,-0.80183 1.05092,-1.15976 0.31023,-0.35793 0.73853,-0.76874 0.95178,-0.9129 0.21324,-0.14416 0.61837,-0.33688 0.90029,-0.42826 0.30443,-0.0987 0.65885,-0.14587 0.87279,-0.11622 0.19812,0.0275 0.59027,0.1664 0.87146,0.30875 0.28118,0.14235 0.66159,0.42089 0.84536,0.61897 0.18378,0.19809 0.5042,0.62392 0.71206,0.9463 0.20785,0.32238 0.41613,0.5756 0.46284,0.56272 0.0467,-0.0129 0.27014,-0.3644 0.49651,-0.78116 0.22638,-0.41676 0.55559,-0.90028 0.73159,-1.07449 0.176,-0.17421 0.4363,-0.37719 0.57845,-0.45106 0.14215,-0.0739 0.37257,-0.13381 0.51205,-0.1332 0.13948,6.2e-4 0.41581,0.13074 0.61405,0.28918 0.19825,0.15843 0.41241,0.28828 0.47592,0.28856 0.0635,2.8e-4 0.32987,-0.19057 0.59192,-0.4241 0.2764,-0.24633 0.61136,-0.44931 0.79775,-0.48343 0.1767,-0.0324 0.46908,-0.009 0.64971,0.0512 0.18063,0.0605 0.39347,0.18385 0.47298,0.27414 0.0795,0.0903 0.20703,0.31745 0.2834,0.50481 0.0887,0.21761 0.15,0.78374 0.16975,1.56741 l 0.0309,1.22675 -0.11257,0.038 c -0.0619,0.0209 -0.20076,-0.16377 -0.30855,-0.41037 l -0.19599,-0.44835 0.003,-0.71318 0.003,-0.71318 -0.20894,-0.30214 c -0.11491,-0.16618 -0.25383,-0.33391 -0.30871,-0.37274 -0.0549,-0.0388 -0.18305,-0.0716 -0.28482,-0.0729 -0.10177,-0.001 -0.43201,0.19001 -0.73387,0.42504 l -0.54885,0.42731 -0.29536,-0.001 c -0.17664,-7.6e-4 -0.45382,-0.11714 -0.68958,-0.2895 -0.21682,-0.15852 -0.45073,-0.28846 -0.5198,-0.28876 -0.0691,-3.1e-4 -0.27017,0.12527 -0.44688,0.27906 -0.17671,0.15379 -0.48091,0.58659 -0.67599,0.96178 l -0.3547,0.68217 -0.003,0.55692 c -0.001,0.30631 0.044,0.6781 0.10078,0.8262 0.0568,0.1481 0.18859,0.59194 0.29291,0.98631 l 0.18968,0.71703 -7.2e-4,1.28916 -7.2e-4,1.28916 -0.16997,0.81095 c -0.0935,0.44602 -0.25015,1.06843 -0.34814,1.38313 -0.098,0.3147 -0.25125,0.74375 -0.34058,0.95344 -0.0893,0.20969 -0.3122,0.68141 -0.49528,1.04826 -0.18307,0.36684 -0.41647,0.79554 -0.51864,0.95266 -0.10218,0.15711 -0.25887,0.42406 -0.3482,0.59321 l -0.1624,0.30756 0.17388,0.19384 c 0.0956,0.10661 0.21209,0.194 0.2588,0.19421 0.0467,2e-4 0.36053,-0.20254 0.69738,-0.45054 0.33686,-0.248 1.00946,-0.72553 1.49468,-1.06117 0.48521,-0.33565 1.24369,-0.79427 1.6855,-1.01917 0.44181,-0.22489 0.92788,-0.40835 1.08015,-0.40768 l 0.27686,10e-4 0.65245,-0.49277 c 0.35885,-0.27102 0.70768,-0.5685 0.77517,-0.66105 0.0675,-0.0926 0.18589,-0.14373 0.26311,-0.11371 0.0772,0.03 0.13987,0.17281 0.13923,0.31732 l -0.001,0.26274 -0.52674,0.34641 c -0.2897,0.19053 -0.52684,0.37118 -0.52697,0.40145 -1.3e-4,0.0303 0.13592,0.24639 0.30233,0.48028 l 0.30258,0.42525 0.0381,0.56054 c 0.0209,0.3083 -0.0126,0.71189 -0.0745,0.89686 -0.062,0.18497 -0.2418,0.51299 -0.39967,0.72892 -0.15787,0.21594 -0.58276,0.58208 -0.94419,0.81365 -0.36144,0.23157 -0.82335,0.60903 -1.02648,0.83879 -0.20313,0.22977 -0.48697,0.6494 -0.63076,0.93251 -0.14378,0.28311 -0.33032,0.79252 -0.41453,1.13202 -0.0842,0.3395 -0.3282,0.97185 -0.54221,1.40522 l -0.38911,0.78795 0.3672,0.59661 c 0.20196,0.32814 0.50062,0.87652 0.66369,1.21862 0.16308,0.3421 0.36613,0.81569 0.45121,1.05241 0.0851,0.23672 0.19382,0.55948 0.24162,0.71726 0.0478,0.15777 0.31946,1.21178 0.60367,2.34223 0.2842,1.13046 0.55395,2.2704 0.59944,2.53321 0.0455,0.2628 0.19136,1.03694 0.32417,1.7203 0.13281,0.68336 0.30396,1.58653 0.38033,2.00703 0.0764,0.42051 0.20554,1.23754 0.28706,1.81564 0.0815,0.57809 0.20703,1.43808 0.27892,1.91109 0.0719,0.47301 0.1756,1.28993 0.2305,1.81539 0.0549,0.52545 0.14006,1.53567 0.18927,2.24492 0.0492,0.70926 0.1226,1.76239 0.16307,2.34031 0.0405,0.57791 0.0483,7.38902 0.0174,15.13579 -0.0309,7.74677 -0.0343,14.34297 -0.008,14.65821 0.0267,0.31525 0.0135,0.68045 -0.0295,0.81157 z m -0.93308,0.81542 c -0.0315,-0.0832 -0.13116,-0.15163 -0.22142,-0.15203 -0.0903,-3.6e-4 -0.25178,0.0956 -0.35892,0.21329 -0.10714,0.1177 -0.26445,0.34262 -0.34957,0.49981 -0.0851,0.15719 -0.33572,0.71473 -0.55687,1.23897 -0.22116,0.52425 -0.45824,1.10982 -0.52685,1.30128 -0.0686,0.19146 -0.23127,0.5775 -0.36148,0.85786 -0.1302,0.28036 -0.38873,0.85881 -0.57451,1.28544 -0.18737,0.43029 -0.30608,0.82748 -0.26659,0.892 l 0.0712,0.11632 0.22753,-0.11989 c 0.12515,-0.0659 0.42506,-0.25169 0.66647,-0.41278 0.24142,-0.1611 0.83226,-0.54901 1.31297,-0.86203 0.48071,-0.31302 0.89254,-0.6335 0.91517,-0.71219 0.0226,-0.0787 0.0499,-1.00969 0.0607,-2.06891 0.0107,-1.05921 -0.006,-1.99393 -0.0378,-2.07714 z m 0.0105,-8.63671 -0.0818,-0.13038 -0.89692,0.44578 c -0.49331,0.24518 -0.99256,0.55933 -1.10945,0.69812 l -0.21253,0.25234 -0.006,0.42969 c -0.003,0.23633 -0.0529,0.70881 -0.11011,1.04995 -0.0572,0.34113 -0.16998,1.15711 -0.25054,1.81327 -0.0806,0.65617 -0.21275,1.72989 -0.29376,2.38605 -0.081,0.65617 -0.21084,1.70841 -0.28852,2.33833 -0.0777,0.62991 -0.21069,1.70363 -0.29559,2.38604 -0.0849,0.6824 -0.18041,1.38028 -0.21226,1.55084 -0.0318,0.17055 -0.0277,0.31023 0.009,0.31039 0.0369,1.6e-4 0.14823,-0.096 0.24733,-0.21378 0.0991,-0.11773 0.18178,-0.25088 0.18372,-0.29589 0.002,-0.045 0.44359,-0.94548 0.98144,-2.00106 0.53785,-1.05558 1.0604,-2.07583 1.16124,-2.26722 l 0.18333,-0.34799 -0.15535,-0.54326 c -0.0888,-0.31067 -0.13023,-0.67397 -0.0967,-0.84859 0.0323,-0.16793 0.12617,-0.40082 0.20868,-0.51752 0.0825,-0.11671 0.3302,-0.30254 0.55044,-0.41297 0.22022,-0.11043 0.43219,-0.24859 0.47104,-0.30701 0.0388,-0.0584 0.0761,-1.3524 0.0828,-2.87549 0.007,-1.52309 -0.0247,-2.82793 -0.0697,-2.89964 z m 0.0334,-8.98945 -0.0712,-0.23905 -0.0693,0.28618 c -0.0381,0.15739 -0.11168,0.3889 -0.16346,0.51445 -0.0518,0.12555 -0.15748,0.53332 -0.23491,0.90616 -0.0774,0.37283 -0.20751,0.9569 -0.28908,1.29793 -0.0816,0.34103 -0.20914,0.9206 -0.28351,1.28792 -0.0744,0.36733 -0.18586,0.92547 -0.24777,1.24033 -0.0619,0.31486 -0.17251,0.87301 -0.24578,1.24034 -0.0733,0.36733 -0.18086,0.89654 -0.23912,1.17603 -0.0583,0.27949 -0.10648,0.6338 -0.10715,0.78735 -7.2e-4,0.15356 0.0166,0.27927 0.0384,0.27937 0.0218,9e-5 0.39836,-0.13191 0.83686,-0.29334 0.43849,-0.16142 0.87284,-0.37914 0.96521,-0.48381 l 0.16795,-0.19031 0.007,-3.78525 c 0.004,-2.08189 -0.025,-3.89283 -0.0641,-4.0243 z m -0.0888,-43.94504 c -0.0469,-0.1218 -0.17667,-0.31854 -0.28829,-0.43721 l -0.20293,-0.21575 -0.33677,-0.001 c -0.18523,-8.3e-4 -0.43086,0.0466 -0.54583,0.10531 -0.11498,0.0587 -0.83375,0.47081 -1.59726,0.91573 -0.76351,0.44493 -1.6683,0.98681 -2.01064,1.20419 -0.34234,0.21738 -0.69776,0.42233 -0.78982,0.45546 -0.1,0.036 -0.16781,0.15876 -0.16845,0.30501 -7.2e-4,0.13464 0.0627,0.39935 0.14066,0.58824 0.0793,0.19202 0.13911,0.62249 0.13579,0.97634 l -0.006,0.63289 -0.16888,0.20024 c -0.0929,0.11013 -0.32869,0.27522 -0.52401,0.36686 -0.19532,0.0916 -0.52926,0.37275 -0.7421,0.62471 -0.24196,0.28644 -0.53804,0.51498 -0.79013,0.6099 -0.22174,0.0835 -0.61808,0.16535 -0.88076,0.18191 -0.26268,0.0166 -0.57141,0.035 -0.68607,0.041 -0.11525,0.006 -0.23506,0.0934 -0.26794,0.19544 -0.0327,0.10149 0.0105,0.42932 0.0961,0.7285 0.0856,0.29918 0.24335,0.70016 0.35066,0.89105 0.10732,0.19089 0.3056,0.47117 0.44064,0.62284 0.13503,0.15167 0.45993,0.37827 0.72198,0.50357 0.26206,0.1253 0.61879,0.22886 0.79273,0.23013 0.17394,0.001 0.55469,-0.1092 0.8461,-0.2455 0.29141,-0.13629 0.75284,-0.4673 1.0254,-0.73557 0.27256,-0.26827 0.65007,-0.68046 0.83892,-0.91598 0.18885,-0.23552 0.48001,-0.66902 0.64704,-0.96333 0.16703,-0.29431 0.3731,-0.72313 0.45794,-0.95293 0.0848,-0.22979 0.21389,-0.68743 0.28679,-1.01696 0.0729,-0.32954 0.24861,-0.81023 0.39049,-1.0682 l 0.25795,-0.46904 0.58189,-0.40769 c 0.32004,-0.22423 0.83779,-0.64291 1.15055,-0.93041 0.31276,-0.2875 0.64841,-0.69426 0.74589,-0.90392 0.0975,-0.20965 0.17867,-0.49656 0.18045,-0.63757 0.002,-0.14101 -0.0352,-0.35603 -0.0821,-0.47783 z m -4.8467,-7.88945 c -0.0945,-0.37623 -0.31122,-0.98042 -0.48167,-1.34263 -0.17045,-0.36221 -0.53219,-0.96034 -0.80386,-1.32918 -0.27168,-0.36884 -0.65851,-0.83037 -0.85964,-1.02561 -0.20112,-0.19525 -0.576,-0.44892 -0.83305,-0.56371 l -0.46737,-0.20872 -0.41748,0.0554 c -0.23041,0.0306 -0.64176,0.19832 -0.91801,0.3744 -0.27529,0.17548 -0.69485,0.5329 -0.93234,0.79428 -0.23749,0.26137 -0.63774,0.73818 -0.88944,1.05956 -0.2517,0.32138 -0.726,0.78794 -1.05399,1.03679 -0.32801,0.24885 -0.83419,0.68776 -1.12486,0.97535 l -0.52848,0.5229 -0.19342,0.57211 -0.19342,0.57212 0.0133,1.01399 c 0.008,0.63574 0.0724,1.20598 0.17169,1.52865 0.0871,0.28306 0.24301,0.69921 0.34643,0.92478 0.10341,0.22557 0.405,0.64963 0.67019,0.94235 0.26518,0.29273 0.73454,0.70146 1.043,0.90831 0.30847,0.20684 0.58114,0.37617 0.60594,0.37628 0.0248,1.1e-4 0.27608,0.17619 0.5584,0.39129 0.28232,0.21511 0.61625,0.52812 0.74207,0.69558 0.12581,0.16747 0.29458,0.45518 0.37504,0.63936 0.0805,0.18417 0.16928,0.40645 0.19738,0.49394 l 0.0511,0.15908 0.61307,0.0684 0.61307,0.0684 0.45204,-0.34193 0.45204,-0.34192 0.35801,0.002 0.358,0.002 0.1847,-0.21405 c 0.10158,-0.11773 0.2351,-0.30399 0.2967,-0.41393 0.0616,-0.10993 0.28359,-0.60314 0.4933,-1.09601 0.20971,-0.49287 0.4936,-1.19644 0.63087,-1.56349 0.13727,-0.36705 0.31687,-0.92906 0.39913,-1.24892 0.0823,-0.31986 0.19129,-0.87802 0.24231,-1.24036 0.051,-0.36233 0.0721,-1.08697 0.0469,-1.61032 -0.0252,-0.52334 -0.12317,-1.25935 -0.21764,-1.63559 z m -5.39574,9.15566 c -0.10959,-0.20665 -0.39376,-0.56642 -0.6315,-0.79951 -0.23773,-0.23308 -0.67221,-0.58012 -0.96551,-0.7712 -0.2933,-0.19107 -0.68335,-0.4198 -0.86679,-0.50828 -0.18343,-0.0885 -0.56954,-0.23612 -0.858,-0.32809 -0.28846,-0.092 -0.66533,-0.22722 -0.83749,-0.30056 -0.17215,-0.0733 -0.37218,-0.13359 -0.4445,-0.13391 -0.0723,-3.2e-4 -0.46766,-0.15711 -0.87854,-0.34844 -0.41088,-0.19132 -0.9729,-0.45321 -1.24892,-0.58196 -0.27602,-0.12876 -0.74761,-0.28065 -1.04797,-0.33754 -0.31066,-0.0588 -0.84906,-0.0764 -1.24873,-0.0407 l -0.7026,0.0627 -0.58054,0.29882 -0.58054,0.29881 -0.20123,0.38109 -0.20124,0.38109 0.0136,0.53257 c 0.007,0.29292 0.12614,0.87356 0.26368,1.29032 0.13754,0.41676 0.42256,1.08551 0.63337,1.48611 0.21082,0.40059 0.58769,0.97001 0.8375,1.26536 0.2498,0.29536 0.70374,0.75733 1.00875,1.02661 0.30502,0.26928 0.85549,0.67277 1.22328,0.89666 0.36779,0.22388 0.9046,0.51228 1.1929,0.64088 l 0.52419,0.23383 0.90718,7.5e-4 c 0.56933,4.8e-4 1.28096,-0.0777 1.91079,-0.21002 0.55199,-0.11593 1.12175,-0.25549 1.26615,-0.31014 l 0.26254,-0.0994 -0.0483,-0.49018 -0.0483,-0.49017 0.17147,-0.19024 c 0.0943,-0.10463 0.33764,-0.31339 0.54074,-0.46392 0.21968,-0.16282 0.46229,-0.47121 0.59892,-0.76132 0.12632,-0.2682 0.23084,-0.66015 0.23228,-0.87101 10e-4,-0.21086 -0.087,-0.55245 -0.19664,-0.75909 z m -0.44509,4.65806 -0.24219,-0.32043 -0.31026,-0.001 c -0.17064,-7.5e-4 -0.35126,0.0384 -0.40137,0.0871 -0.0501,0.0486 -0.28478,0.15705 -0.5215,0.24094 -0.23671,0.0839 -0.64552,0.21584 -0.90847,0.29321 -0.26295,0.0774 -1.07994,0.196 -1.81553,0.2636 l -1.33745,0.12292 -0.71735,0.26345 -0.71736,0.26346 -0.70363,0.69316 -0.70362,0.69315 0.0373,0.59952 0.0373,0.59952 0.52103,1.14461 c 0.28657,0.62953 0.68041,1.32944 0.87519,1.55536 0.19479,0.22591 0.55451,0.52934 0.79939,0.6743 l 0.44522,0.26355 0.72583,0.003 0.72582,0.003 0.41368,-0.27116 c 0.22753,-0.14914 0.56088,-0.42643 0.74077,-0.61621 0.17991,-0.18977 0.57251,-0.66747 0.87246,-1.06155 0.29995,-0.39408 0.59715,-0.80101 0.66047,-0.90429 0.0633,-0.10328 0.35456,-0.65942 0.64724,-1.23588 0.29267,-0.57645 0.65923,-1.34834 0.81456,-1.71531 0.15533,-0.36697 0.28745,-0.81354 0.29359,-0.99238 l 0.0112,-0.32516 z m -11.81977,-7.40588 c -0.0351,0.0349 -0.0354,0.0922 -7.2e-4,0.12732 0.0349,0.0352 0.0636,0.007 0.0639,-0.0634 3.1e-4,-0.07 -0.0282,-0.0988 -0.0634,-0.0639 z m -0.2133,0.21243 c -0.0466,-0.0291 -0.15146,0.0478 -0.23291,0.17093 -0.0815,0.12312 -0.20503,0.28452 -0.27462,0.35865 -0.0696,0.0741 -0.22342,0.27058 -0.34183,0.43654 -0.12697,0.17797 -0.17658,0.3259 -0.12094,0.36063 0.0519,0.0324 0.0946,-0.008 0.095,-0.09 3.6e-4,-0.0819 0.0556,-0.14863 0.12266,-0.14834 0.0671,3e-4 0.20719,-0.0946 0.31128,-0.21078 0.1041,-0.11623 0.26466,-0.31964 0.35681,-0.45203 0.0921,-0.13239 0.16795,-0.2704 0.16845,-0.30669 3.6e-4,-0.0363 -0.0372,-0.0898 -0.0839,-0.11891 z m 20.17039,26.89443 c -0.12884,0.23976 -0.41302,0.68538 -0.63152,0.99026 -0.2185,0.30489 -0.72864,1.04707 -1.13364,1.64929 -0.40501,0.60222 -0.80741,1.22355 -0.89423,1.38073 -0.0868,0.15718 -0.35819,0.64419 -0.60305,1.08224 -0.24485,0.43805 -0.59351,1.12408 -0.7748,1.5245 -0.18129,0.40042 -0.4026,0.89961 -0.49182,1.10931 -0.0892,0.20969 -0.34877,0.93908 -0.5768,1.62086 -0.22803,0.68178 -0.44764,1.43282 -0.48802,1.66899 -0.0404,0.23617 -0.23522,0.7759 -0.43295,1.19941 -0.22445,0.4807 -0.46365,0.84295 -0.63666,0.96414 -0.15242,0.10678 -0.41152,0.22261 -0.57577,0.2574 -0.16425,0.0348 -0.39483,0.16476 -0.51239,0.28881 l -0.21375,0.22554 -0.23704,1.16612 c -0.13038,0.64137 -0.2568,1.19778 -0.28095,1.23647 -0.0241,0.0387 -0.0866,0.34369 -0.13888,0.67778 -0.0522,0.33409 -0.18584,1.01527 -0.29688,1.51374 -0.11104,0.49846 -0.24386,1.20692 -0.29515,1.57434 -0.0513,0.36743 -0.13801,0.92569 -0.19272,1.24057 -0.0547,0.31489 -0.17114,1.25977 -0.25874,2.09973 l -0.15927,1.52719 0.0287,2.6262 c 0.0158,1.44441 0.0777,3.14207 0.1375,3.77259 0.0598,0.63052 0.17095,1.7268 0.24688,2.43617 0.0759,0.70937 0.20145,1.8272 0.27892,2.48405 0.0775,0.65686 0.19987,1.66724 0.272,2.24529 0.0721,0.57805 0.21809,1.76042 0.32437,2.62749 0.10628,0.86707 0.23342,1.92044 0.28254,2.34083 0.0491,0.42039 0.13143,1.08682 0.18294,1.48095 0.0515,0.39414 0.15133,1.29699 0.22183,2.00634 0.0705,0.70935 0.17213,2.12787 0.22584,3.15227 0.0538,1.02653 0.0679,2.74112 0.0313,3.81988 -0.0365,1.07653 -0.13319,2.66607 -0.21486,3.53231 -0.0816,0.86625 -0.21093,1.96147 -0.28728,2.43383 -0.0763,0.47236 -0.22829,1.35262 -0.33767,1.95613 -0.10937,0.60352 -0.26808,1.41398 -0.35269,1.80103 -0.0846,0.38705 -0.21823,0.82693 -0.29694,0.97751 -0.0787,0.15058 -0.17971,0.27362 -0.22445,0.27342 -0.0447,-2e-4 -0.13101,-0.0607 -0.19171,-0.13453 l -0.11036,-0.13417 0.14587,-1.08322 c 0.0802,-0.59576 0.24047,-1.55548 0.3561,-2.13271 0.11563,-0.57723 0.26879,-1.47898 0.34035,-2.00387 0.0716,-0.5249 0.21031,-1.79885 0.30833,-2.83101 l 0.17821,-1.87663 -0.14931,-3.61411 c -0.0821,-1.98776 -0.20576,-4.34489 -0.27475,-5.23805 -0.069,-0.89317 -0.21333,-2.48377 -0.32074,-3.53467 -0.1074,-1.0509 -0.25457,-2.50185 -0.32704,-3.22434 -0.0725,-0.72248 -0.19485,-1.92624 -0.27198,-2.67501 -0.0771,-0.74876 -0.19738,-1.96325 -0.26723,-2.69885 -0.0699,-0.73561 -0.18084,-1.76743 -0.24663,-2.29293 -0.077,-0.61493 -0.11548,-2.11259 -0.10801,-4.20219 l 0.0116,-3.24672 0.22807,-1.62239 c 0.12544,-0.89231 0.31528,-2.0947 0.42187,-2.67197 0.10659,-0.57727 0.25426,-1.39309 0.32815,-1.81294 0.0739,-0.41984 0.24602,-1.29262 0.38251,-1.93951 0.13649,-0.64688 0.27799,-1.48998 0.31445,-1.87355 l 0.0663,-0.69739 -0.39194,-0.42897 c -0.21557,-0.23593 -0.41824,-0.56349 -0.45037,-0.72791 -0.0321,-0.16443 -0.006,-0.50344 0.0575,-0.75337 0.0638,-0.24993 0.33907,-0.90464 0.61181,-1.45492 0.27275,-0.55028 0.67438,-1.32201 0.89252,-1.71497 0.21814,-0.39295 0.59858,-1.08958 0.84542,-1.54806 0.24685,-0.45848 0.65077,-1.20872 0.89762,-1.6672 0.24684,-0.45848 0.63685,-1.17129 0.86669,-1.58402 0.22984,-0.41273 0.61975,-1.03412 0.86647,-1.38086 0.24671,-0.34673 0.79721,-0.97268 1.22333,-1.39098 l 0.77475,-0.76055 0.81367,-0.45002 0.81367,-0.45002 0.35474,0.002 0.35473,0.002 0.098,0.18514 c 0.0539,0.10182 0.098,0.20304 0.0979,0.22494 -1e-4,0.0219 -0.10559,0.23596 -0.23442,0.47572 z m -13.84154,6.40633 c -0.0968,0.34097 -0.24149,0.79731 -0.32145,1.0141 -0.08,0.21679 -0.26194,0.60274 -0.40438,0.85767 -0.14243,0.25493 -0.37361,0.6134 -0.51372,0.79661 -0.1401,0.18321 -0.32814,0.44909 -0.41785,0.59085 -0.0897,0.14175 -0.31661,0.72088 -0.50421,1.28695 -0.18761,0.56607 -0.39949,1.22233 -0.47086,1.45837 -0.0714,0.23603 -0.19874,0.66519 -0.28307,0.95369 -0.0843,0.2885 -0.22134,0.74718 -0.30448,1.01929 -0.0831,0.27211 -0.15143,0.55694 -0.15176,0.63295 -3.4e-4,0.076 -0.0636,0.34698 -0.14063,0.60215 -0.077,0.25517 -0.20713,0.78594 -0.28915,1.17949 -0.082,0.39355 -0.21998,1.0805 -0.30656,1.52655 -0.0866,0.44605 -0.21924,1.42725 -0.29479,2.18044 l -0.13737,1.36944 0.0919,1.06545 c 0.0505,0.58599 0.17721,1.38811 0.28152,1.78248 0.10431,0.39436 0.24495,0.88916 0.31252,1.09954 0.0676,0.21038 0.17775,0.55464 0.24482,0.76502 0.0671,0.21038 0.15438,0.53305 0.19401,0.71705 0.0396,0.184 0.16044,0.63574 0.26849,1.00386 0.10804,0.36813 0.28094,1.01347 0.38421,1.43409 0.10328,0.42063 0.2471,1.00138 0.31961,1.29056 0.0725,0.28919 0.19692,0.8054 0.27646,1.14714 0.0796,0.34174 0.19064,0.85789 0.24689,1.147 0.0562,0.28912 0.16511,0.82674 0.24194,1.19473 0.0768,0.36799 0.20191,1.01312 0.27797,1.43362 0.0761,0.4205 0.17915,1.06554 0.22908,1.43341 0.0499,0.36787 0.13189,0.8624 0.18212,1.09897 0.0502,0.23657 0.13136,0.84332 0.18029,1.34833 0.0489,0.50502 0.10973,0.97798 0.1351,1.05102 0.0254,0.073 0.11325,0.9066 0.19528,1.85235 0.082,0.94574 0.18166,2.40723 0.22141,3.24775 0.0398,0.84051 0.0921,3.69839 0.11625,6.35082 0.0262,2.87989 -0.005,6.35871 -0.0768,8.63582 l -0.1208,3.81321 -0.14826,0.14697 -0.14827,0.14698 -0.16486,-0.10509 -0.16486,-0.10508 0.0288,-8.96578 c 0.0182,-5.66427 -0.008,-9.45823 -0.0724,-10.30312 -0.0557,-0.73554 -0.14195,-1.83171 -0.19179,-2.43592 -0.0498,-0.60422 -0.13218,-1.44253 -0.18298,-1.86293 -0.0508,-0.42039 -0.13994,-1.10834 -0.1981,-1.52876 -0.0582,-0.42043 -0.16006,-1.12991 -0.22645,-1.57664 -0.0664,-0.44672 -0.18149,-1.17775 -0.25578,-1.62451 -0.0743,-0.44676 -0.16129,-0.87686 -0.19331,-0.95578 -0.032,-0.0789 -0.0991,-0.40151 -0.14907,-0.71686 -0.05,-0.31534 -0.15331,-0.87443 -0.22967,-1.24242 -0.0764,-0.36798 -0.18517,-0.88412 -0.2418,-1.14698 -0.0566,-0.26285 -0.1616,-0.69303 -0.23325,-0.95596 -0.0717,-0.26292 -0.17051,-0.6501 -0.21967,-0.8604 -0.0492,-0.2103 -0.2004,-0.81257 -0.33607,-1.33838 -0.13567,-0.52581 -0.2821,-1.06361 -0.32539,-1.1951 -0.0433,-0.13149 -0.14513,-0.47572 -0.22631,-0.76494 -0.0812,-0.28922 -0.23675,-0.82706 -0.34569,-1.19518 -0.10894,-0.36813 -0.26065,-0.88446 -0.33713,-1.1474 -0.0765,-0.26294 -0.32836,-1.08052 -0.55974,-1.81683 -0.23139,-0.73632 -0.48366,-1.55389 -0.56062,-1.81684 -0.077,-0.26294 -0.23034,-0.77928 -0.34087,-1.14741 -0.11053,-0.36814 -0.23345,-0.75543 -0.27317,-0.86064 -0.0397,-0.10522 -0.16811,-0.44956 -0.28531,-0.7652 -0.11721,-0.31564 -0.3355,-0.84312 -0.4851,-1.17218 -0.1496,-0.32905 -0.27191,-0.61911 -0.2718,-0.64458 1.1e-4,-0.0255 -0.28392,-0.53152 -0.63117,-1.12456 -0.34725,-0.59304 -0.82311,-1.35842 -1.05747,-1.70084 -0.23436,-0.34241 -0.69745,-0.95235 -1.0291,-1.35541 l -0.60299,-0.73284 0.002,-0.39185 0.002,-0.39184 0.18624,8.3e-4 c 0.10243,4.3e-4 0.22033,0.0613 0.26201,0.13518 0.0417,0.0739 0.31101,0.38779 0.59852,0.69752 0.28751,0.30973 0.64035,0.70553 0.78409,0.87956 l 0.26135,0.31642 0.0559,-0.14379 c 0.0308,-0.0791 -0.007,-0.28674 -0.0842,-0.46145 -0.077,-0.1747 -0.48032,-1.39344 -0.8962,-2.7083 -0.41587,-1.31486 -0.84073,-2.69183 -0.94413,-3.05993 -0.11491,-0.40911 -0.2013,-1.06679 -0.22222,-1.69185 l -0.0342,-1.02257 0.14386,-0.0545 c 0.0791,-0.03 0.17476,-0.004 0.21253,0.0577 0.0378,0.0617 0.0958,0.28654 0.12887,0.49962 0.0331,0.21308 0.1281,0.60506 0.21108,0.87107 0.083,0.26601 0.39913,1.24867 0.70256,2.1837 0.30343,0.93503 0.55173,1.75259 0.55177,1.8168 4e-5,0.0642 0.0597,0.23228 0.13261,0.37349 0.0729,0.14122 0.1629,0.39804 0.20003,0.57071 0.0371,0.17267 0.0992,0.37995 0.13794,0.46063 0.0387,0.0807 0.16667,0.46939 0.28431,0.86382 0.11765,0.39443 0.24927,0.80324 0.29249,0.90847 0.0432,0.10523 0.22845,0.66468 0.4116,1.24322 0.18316,0.57854 0.37728,1.181 0.43138,1.3388 0.0541,0.1578 0.20467,0.63116 0.33458,1.0519 0.12992,0.42074 0.2707,0.831 0.31285,0.91169 0.0422,0.0807 0.10842,0.29443 0.14724,0.47498 0.0388,0.18055 0.10308,0.39428 0.14277,0.47496 0.0397,0.0807 0.24397,0.6846 0.45392,1.34203 0.20994,0.65744 0.41644,1.1955 0.45887,1.19568 0.0424,1.9e-4 0.12882,-0.30024 0.19198,-0.66761 0.0632,-0.36737 0.16139,-0.99004 0.2183,-1.3837 0.0569,-0.39366 0.17,-1.03775 0.25131,-1.4313 0.0813,-0.39355 0.20936,-0.97311 0.28453,-1.28791 0.0752,-0.3148 0.25162,-1.00158 0.3921,-1.52618 0.14048,-0.5246 0.29392,-1.06108 0.34096,-1.19217 0.0471,-0.1311 0.18391,-0.56022 0.30412,-0.9536 0.12022,-0.39339 0.34677,-1.10143 0.50345,-1.57344 l 0.28488,-0.85819 -0.066,-0.81198 c -0.0363,-0.4466 -0.0699,-1.17727 -0.0747,-1.62372 -0.005,-0.44645 0.0475,-1.15508 0.11613,-1.57472 0.0686,-0.41964 0.16591,-0.89191 0.21614,-1.04948 0.0502,-0.15757 0.16509,-0.544 0.25523,-0.85874 0.0901,-0.31473 0.3119,-0.95834 0.4928,-1.43024 0.1809,-0.4719 0.42375,-1.04751 0.53966,-1.27913 0.11592,-0.23163 0.28557,-0.46663 0.377,-0.52224 l 0.16623,-0.1011 0.20139,0.20317 0.20138,0.20316 0.17511,0.99083 0.17511,0.99083 -0.0177,1.43233 -0.0177,1.43232 z m -0.67575,-3.90567 c -0.0702,-0.0588 -0.15608,-0.0788 -0.19079,-0.0444 -0.0347,0.0344 -0.0637,0.13059 -0.0644,0.21375 -7.2e-4,0.0832 -0.0567,0.25838 -0.12459,0.38938 -0.0678,0.13101 -0.19719,0.4957 -0.28745,0.81044 -0.0903,0.31473 -0.2337,0.85125 -0.31873,1.19227 -0.085,0.34101 -0.18124,1.09658 -0.21379,1.67903 -0.0326,0.58244 -0.0294,1.2213 0.007,1.41968 l 0.066,0.36068 0.17371,-0.18482 c 0.0955,-0.10164 0.20615,-0.2888 0.24583,-0.41589 0.0397,-0.12709 0.10434,-0.2739 0.14371,-0.32625 0.0394,-0.0524 0.14498,-0.3169 0.23467,-0.58788 0.0897,-0.27099 0.222,-0.80756 0.29401,-1.19238 0.072,-0.38483 0.13806,-1.26377 0.14676,-1.95321 l 0.0159,-1.25352 z m -2.15875,45.33741 c -0.0957,0.60357 -0.23027,1.26905 -0.29911,1.47883 -0.0688,0.20979 -0.17862,0.51011 -0.24397,0.66739 -0.0654,0.15727 -0.25355,0.56468 -0.41821,0.90535 -0.16465,0.34067 -0.32856,0.79116 -0.36424,1.00109 -0.0357,0.20993 -0.12784,0.59627 -0.20481,0.85854 -0.077,0.26227 -0.27141,0.88451 -0.43209,1.38276 -0.16069,0.49825 -0.34879,1.03457 -0.41801,1.19184 -0.0692,0.15726 -0.26939,0.5861 -0.44482,0.95298 -0.17543,0.36688 -0.65029,1.22424 -1.05526,1.90524 -0.40497,0.681 -0.84889,1.51705 -0.98648,1.85789 -0.1376,0.34084 -0.38036,1.2207 -0.53947,1.95525 -0.15911,0.73455 -0.3418,1.52869 -0.40596,1.76476 -0.0642,0.23607 -0.19924,0.61148 -0.30015,0.83425 -0.10091,0.22277 -0.22715,0.40485 -0.28053,0.40462 -0.0534,-2.4e-4 -0.1398,-0.0973 -0.19206,-0.2157 l -0.095,-0.21528 0.1527,-0.52454 c 0.084,-0.28851 0.21986,-0.78209 0.30196,-1.09686 0.0821,-0.31477 0.21088,-0.91581 0.28621,-1.33565 0.0753,-0.41984 0.18606,-1.14988 0.24609,-1.62231 0.0616,-0.48468 0.0929,-1.58721 0.0718,-2.53026 l -0.0374,-1.6713 -0.17648,-0.47919 c -0.0971,-0.26356 -0.31342,-0.71572 -0.4808,-1.00479 -0.16738,-0.28908 -0.45565,-0.69521 -0.64062,-0.90252 -0.18497,-0.20731 -0.33619,-0.40454 -0.33604,-0.43829 1.5e-4,-0.0337 -0.23469,-0.3783 -0.52186,-0.76567 l -0.52212,-0.70431 0.001,-0.35496 c 7.2e-4,-0.20653 0.0545,-0.37504 0.12825,-0.40295 0.0792,-0.03 0.32071,0.24493 0.64381,0.73268 0.28442,0.42936 0.8149,1.22135 1.17884,1.75997 l 0.66171,0.97931 0.0345,-0.21165 c 0.0189,-0.1164 -0.0165,-0.44852 -0.0788,-0.73802 -0.0623,-0.2895 -0.1962,-0.82754 -0.29756,-1.19564 -0.10136,-0.36809 -0.31486,-1.01361 -0.47444,-1.43448 -0.15958,-0.42087 -0.416,-1.04509 -0.56981,-1.38715 -0.15381,-0.34206 -0.39993,-0.8803 -0.54693,-1.19607 -0.147,-0.31577 -0.35767,-0.78103 -0.46817,-1.03392 l -0.2009,-0.45978 0.0309,-0.4959 0.0309,-0.49589 0.13528,7.2e-4 c 0.0744,3.3e-4 0.17367,0.12968 0.22058,0.28745 0.0469,0.15777 0.12245,0.37296 0.16786,0.4782 0.0454,0.10524 0.16576,0.40658 0.26745,0.66963 0.10169,0.26305 0.21113,0.55974 0.2432,0.65931 0.0321,0.0996 0.0794,0.16011 0.10523,0.13454 0.0258,-0.0256 0.0513,-0.68196 0.0566,-1.45864 l 0.01,-1.41215 -0.27355,-0.58521 c -0.15046,-0.32187 -0.34384,-0.88632 -0.42974,-1.25435 -0.0859,-0.36803 -0.15432,-0.86251 -0.15204,-1.09884 0.002,-0.23634 0.0408,-0.48702 0.0857,-0.55707 0.0448,-0.0701 0.1808,-0.11243 0.30215,-0.0942 l 0.22063,0.0332 0.22428,0.4307 c 0.12335,0.23689 0.26286,0.44438 0.31001,0.46109 0.0472,0.0167 0.11543,-0.12417 0.15173,-0.31307 0.0363,-0.18889 0.0409,-0.47201 0.0101,-0.62914 -0.0307,-0.15713 0.0115,-0.5744 0.0938,-0.92727 0.0823,-0.35287 0.2325,-0.81311 0.33376,-1.02275 0.10127,-0.20964 0.30759,-0.52774 0.4585,-0.70689 l 0.27437,-0.32572 0.15953,0.062 0.15953,0.062 -0.004,0.96315 -0.004,0.96316 -0.20344,0.44746 c -0.1119,0.2461 -0.31081,0.58907 -0.44203,0.76215 -0.1316,0.17359 -0.27594,0.53692 -0.32189,0.81029 -0.0458,0.27257 -0.11426,0.62138 -0.1521,0.77514 l -0.0688,0.27954 0.16275,-0.13589 c 0.0895,-0.0747 0.3226,-0.30083 0.51797,-0.50242 0.19538,-0.20158 0.47529,-0.45145 0.62203,-0.55526 l 0.2668,-0.18874 0.14497,0.12139 0.14497,0.1214 -0.0657,0.37868 c -0.0361,0.20828 -0.13749,0.5335 -0.22526,0.72272 -0.0878,0.18923 -0.24394,0.47259 -0.34707,0.6297 -0.10312,0.15711 -0.28518,0.3791 -0.40458,0.49331 -0.11939,0.11421 -0.37323,0.32567 -0.56407,0.46992 l -0.347,0.26227 0.0361,1.81961 c 0.0198,1.00078 0.08,1.94871 0.13366,2.10651 0.0537,0.1578 0.21129,0.63118 0.35023,1.05197 0.13895,0.42078 0.35116,1.10926 0.4716,1.52996 0.12044,0.4207 0.28351,1.10897 0.36238,1.52948 0.0789,0.42052 0.19198,1.28067 0.25134,1.91145 0.0594,0.63078 0.0891,1.60191 0.0661,2.15807 l -0.0419,1.0112 0.14528,-0.0397 c 0.0799,-0.0219 0.21417,-0.1758 0.29836,-0.3421 0.0842,-0.16628 0.35051,-0.67144 0.59182,-1.12257 0.24131,-0.45112 0.59518,-1.17692 0.78639,-1.61288 0.1912,-0.43596 0.34794,-0.86282 0.34832,-0.94857 3.6e-4,-0.0858 0.0641,-0.23906 0.14169,-0.34067 0.0776,-0.10161 0.14255,-0.27068 0.14442,-0.37571 0.002,-0.10504 0.0668,-0.38407 0.14431,-0.62008 0.0775,-0.23601 0.21224,-0.74259 0.29943,-1.12575 l 0.15851,-0.69664 -0.0941,-0.11477 c -0.0517,-0.0631 -0.14755,-0.35135 -0.21292,-0.6405 -0.0667,-0.29494 -0.11893,-1.1755 -0.11903,-2.00588 -9e-5,-0.81409 0.0537,-1.83279 0.11949,-2.26379 0.0658,-0.43099 0.19107,-1.01057 0.27834,-1.28794 0.0873,-0.27737 0.21919,-0.63945 0.29315,-0.80463 0.074,-0.16518 0.13462,-0.33398 0.1348,-0.37511 1.8e-4,-0.0411 0.0913,-0.26057 0.20242,-0.48764 0.11116,-0.22707 0.27953,-0.45386 0.37416,-0.50397 l 0.17206,-0.0911 0.0882,0.11775 c 0.0485,0.0648 0.15559,0.37587 0.2379,0.69137 0.0823,0.31548 0.19458,0.8961 0.24948,1.29025 0.0549,0.39415 0.1181,1.01752 0.14045,1.38527 0.0238,0.39091 -0.0316,1.12445 -0.13332,1.76605 z m -0.5792,-3.61704 c -0.0569,-0.16565 -0.15653,-0.30142 -0.22132,-0.30171 -0.0648,-2.8e-4 -0.17194,0.20337 -0.23811,0.45255 -0.0662,0.24919 -0.18367,0.71062 -0.26113,1.02542 -0.0775,0.31478 -0.18848,0.80847 -0.24669,1.09709 -0.061,0.30248 -0.0936,1.19988 -0.0769,2.11863 0.0159,0.87664 0.0539,1.61908 0.0845,1.64988 0.0305,0.0308 0.11702,0.0327 0.19221,0.004 0.0752,-0.0285 0.23,-0.36183 0.34403,-0.74081 0.11404,-0.37897 0.25948,-0.94665 0.3232,-1.26149 0.0637,-0.31485 0.1293,-0.61537 0.14574,-0.66782 0.0164,-0.0524 0.0362,-0.76573 0.0439,-1.58507 0.008,-0.85635 -0.0299,-1.61777 -0.0894,-1.7909 z m -4.82479,-0.95851 c -0.0351,0.0349 -0.0354,0.0922 -7.2e-4,0.12732 0.0349,0.0352 0.0636,0.007 0.0639,-0.0634 3e-4,-0.07 -0.0282,-0.0988 -0.0634,-0.0639 z m -0.22414,0.30141 c -0.0553,-0.0345 -0.0929,0.053 -0.0897,0.20883 l 0.006,0.26827 0.0829,-0.19063 c 0.0456,-0.10484 0.086,-0.19881 0.0897,-0.20883 0.004,-0.01 -0.036,-0.045 -0.0884,-0.0776 z m -0.0466,-3.79607 c -0.0268,0.0655 -0.0272,0.17296 -0.001,0.23873 0.0262,0.0658 0.0481,0.0121 0.0487,-0.11915 7.2e-4,-0.1313 -0.0209,-0.18511 -0.0477,-0.11958 z m -0.22501,0.40486 c -0.0525,-2.3e-4 -0.0933,0.18222 -0.0906,0.40545 l 0.005,0.40587 0.0829,-0.19062 c 0.0456,-0.10484 0.0863,-0.2873 0.0906,-0.40545 0.004,-0.11816 -0.0353,-0.21502 -0.0878,-0.21525 z m -0.0653,4.01044 c -0.0263,-1.1e-4 -0.0478,0.0213 -0.048,0.0475 -1.2e-4,0.0263 0.0213,0.0478 0.0475,0.048 0.0263,1.1e-4 0.0478,-0.0213 0.048,-0.0475 1.2e-4,-0.0262 -0.0213,-0.0478 -0.0475,-0.048 z m -1.1882,-1.24663 c -0.0525,-2.3e-4 -0.0957,0.0426 -0.0959,0.0951 -2.2e-4,0.0525 0.0426,0.0957 0.0951,0.0959 0.0525,2.4e-4 0.0957,-0.0426 0.0959,-0.0951 2.3e-4,-0.0525 -0.0426,-0.0957 -0.0951,-0.0959 z m 5.88858,-57.36575 c -0.097,0.55105 -0.24193,1.195 -0.32209,1.43099 -0.0802,0.236 -0.20286,0.55775 -0.27267,0.71501 -0.0698,0.15726 -0.32061,0.58588 -0.55733,0.95249 -0.23673,0.36661 -0.65796,0.89117 -0.93608,1.16569 -0.27813,0.27452 -0.57051,0.49884 -0.64974,0.49849 -0.0792,-3.5e-4 -0.29174,0.12789 -0.47224,0.28497 -0.21196,0.18447 -0.53845,0.70832 -0.92204,1.47943 -0.32663,0.65662 -0.74584,1.54462 -0.93157,1.97334 -0.18572,0.42872 -0.48014,1.21017 -0.65425,1.73655 -0.17412,0.52639 -0.38632,1.19311 -0.47157,1.4816 -0.0852,0.28849 -0.20538,0.7714 -0.26697,1.07313 -0.0616,0.30173 -0.14937,0.54843 -0.19506,0.54823 -0.0457,-2e-4 -0.11578,-0.0538 -0.15574,-0.11908 -0.04,-0.0653 -0.0591,-0.56223 -0.0424,-1.1043 l 0.0302,-0.98557 0.22498,-0.68541 c 0.12374,-0.37697 0.35812,-1.03654 0.52085,-1.4657 0.16272,-0.42917 0.33497,-0.85813 0.38276,-0.95326 0.0478,-0.0951 0.15633,-0.32306 0.24119,-0.50651 0.0849,-0.18345 0.27933,-0.59083 0.43216,-0.90529 0.15283,-0.31446 0.47411,-0.93924 0.71394,-1.38839 l 0.43607,-0.81665 0.0694,-0.75678 c 0.0382,-0.41622 0.13759,-0.97134 0.22088,-1.23358 0.0833,-0.26224 0.28588,-0.73404 0.45019,-1.04845 0.16431,-0.31441 0.44645,-0.78587 0.62696,-1.04768 0.18051,-0.26182 0.56142,-0.76109 0.84646,-1.10949 0.28505,-0.34841 0.71355,-0.81189 0.95224,-1.02998 l 0.43396,-0.39651 0.20815,0.13893 0.20814,0.13893 0.0138,0.46647 c 0.008,0.25656 -0.0656,0.91733 -0.16256,1.46838 z m -0.80652,-0.57649 c -0.0757,-3.4e-4 -0.33793,0.25731 -0.5827,0.57253 -0.24476,0.31523 -0.63339,0.94736 -0.8636,1.40474 -0.23022,0.45739 -0.51305,1.16918 -0.62851,1.58178 -0.12002,0.4289 -0.17429,0.78612 -0.12671,0.83412 0.0476,0.048 0.16691,0.0259 0.27862,-0.0516 0.10746,-0.0746 0.37126,-0.36308 0.58621,-0.64113 0.21496,-0.27805 0.52623,-0.75503 0.69171,-1.05996 0.16549,-0.30493 0.38432,-0.79814 0.4863,-1.09604 0.10198,-0.29789 0.204,-0.64897 0.22672,-0.78018 0.0227,-0.1312 0.0477,-0.3567 0.0555,-0.5011 0.009,-0.171 -0.0339,-0.26275 -0.1235,-0.26314 z m -2.65736,-17.51489 c -0.10299,0.4378 -0.31852,1.00518 -0.48891,1.28702 -0.16759,0.27723 -0.53091,0.7233 -0.80737,0.99126 l -0.50265,0.48719 -0.10399,0.41733 c -0.0572,0.22954 -0.19541,0.73923 -0.30716,1.13265 -0.11174,0.39342 -0.26819,0.95137 -0.34767,1.23989 -0.0795,0.28852 -0.19728,0.76069 -0.26178,1.04928 l -0.11727,0.5247 -0.20997,0.0289 -0.20998,0.0289 0.0564,-1.03229 c 0.031,-0.56776 0.0924,-1.16105 0.13643,-1.31842 0.044,-0.15737 0.17403,-0.52206 0.28893,-0.81043 0.1149,-0.28836 0.23176,-0.59809 0.2597,-0.68828 l 0.0508,-0.16399 -0.34371,-0.20483 -0.34371,-0.20483 0.001,-0.32004 c 7.2e-4,-0.20378 0.0614,-0.35328 0.16656,-0.41153 l 0.16516,-0.0915 -0.16324,-0.34621 c -0.0898,-0.19042 -0.16241,-0.53455 -0.1614,-0.76474 0.001,-0.24832 0.0505,-0.4357 0.12138,-0.46079 0.0658,-0.0233 0.1902,-0.006 0.27654,0.0391 l 0.15698,0.0814 0.072,-0.78563 c 0.0396,-0.4321 0.15182,-1.08609 0.24935,-1.45332 0.0975,-0.36722 0.23044,-0.81784 0.29535,-1.00138 0.0649,-0.18354 0.20776,-0.56966 0.31743,-0.85805 0.10967,-0.28839 0.38731,-0.88878 0.61698,-1.3342 0.22967,-0.44543 0.45853,-0.85099 0.50857,-0.90125 0.058,-0.0582 0.1622,-0.0195 0.2873,0.10666 0.10797,0.10892 0.2776,0.51332 0.37697,0.89867 l 0.18066,0.70063 -0.016,1.67752 -0.016,1.67753 z m -0.51549,-3.82099 -0.0581,-0.3614 -0.1787,0.1603 c -0.0983,0.0882 -0.17917,0.20736 -0.17975,0.26487 -7.2e-4,0.0575 -0.0574,0.21174 -0.12629,0.34275 -0.0689,0.131 -0.20137,0.46798 -0.29441,0.74885 -0.093,0.28088 -0.25475,0.96527 -0.35935,1.52087 -0.1046,0.55561 -0.19145,1.29919 -0.193,1.6524 -0.001,0.35322 0.0212,0.70555 0.0505,0.78295 0.0303,0.08 0.12836,0.12145 0.22713,0.0961 0.0967,-0.0249 0.30624,-0.31319 0.47242,-0.65027 0.16422,-0.3331 0.34639,-0.79055 0.40481,-1.01657 0.0584,-0.22601 0.14168,-0.56118 0.185,-0.74482 0.0433,-0.18363 0.0853,-0.80654 0.0933,-1.38424 0.008,-0.5777 -0.0116,-1.213 -0.0436,-1.41177 z m -0.60443,66.58322 c -0.0454,0.0786 -0.11477,0.41546 -0.15407,0.74862 -0.0393,0.33315 -0.13145,0.71949 -0.20477,0.85854 -0.0733,0.13904 -0.1364,0.31725 -0.14017,0.39601 -0.004,0.0788 -0.11034,0.33613 -0.23682,0.57192 -0.12649,0.23579 -0.27083,0.51448 -0.32076,0.6193 -0.0499,0.10483 -0.27168,0.3936 -0.49278,0.64173 -0.22111,0.24813 -0.44375,0.59975 -0.49476,0.78139 l -0.0927,0.33024 -0.13969,-0.0543 -0.13969,-0.0543 0.004,-0.5866 0.004,-0.5866 0.32526,-0.20861 0.32526,-0.2086 0.40565,-0.82503 c 0.2231,-0.45377 0.46976,-1.04572 0.54813,-1.31546 0.0784,-0.26974 0.17993,-0.68364 0.22571,-0.91979 0.0458,-0.23614 0.0866,-0.60943 0.0907,-0.82953 0.004,-0.2201 -0.031,-0.42418 -0.078,-0.45352 -0.047,-0.0293 -0.20269,0.16847 -0.34597,0.43957 -0.14327,0.2711 -0.29302,0.56032 -0.33278,0.64271 -0.0398,0.0824 -0.14225,0.29988 -0.22775,0.48333 -0.0855,0.18345 -0.18491,0.46234 -0.22092,0.61974 -0.036,0.15741 -0.0982,0.32902 -0.13818,0.38137 -0.04,0.0523 -0.11944,0.39014 -0.17655,0.75066 -0.0571,0.36051 -0.12983,0.68124 -0.16159,0.71272 -0.0318,0.0315 -0.1002,-0.006 -0.15207,-0.0836 -0.0521,-0.0778 -0.0761,-0.50432 -0.0535,-0.9524 0.0258,-0.51303 0.1057,-0.95173 0.21724,-1.19272 0.097,-0.20966 0.32543,-0.68135 0.50751,-1.0482 0.18209,-0.36685 0.38053,-0.75444 0.44099,-0.86131 0.0605,-0.10687 0.27412,-0.41533 0.47481,-0.68547 0.21364,-0.28758 0.41688,-0.47095 0.49034,-0.44239 0.069,0.0268 0.17379,0.15608 0.23285,0.28722 0.0591,0.13114 0.10443,0.61242 0.10083,1.06949 -0.004,0.45708 -0.0437,0.89534 -0.0892,0.97393 z" />
      <path
         style="fill:none;stroke:#00ff00;stroke-width:0.274061;stroke-dasharray:none;stroke-opacity:1"
         d="m 127.06852,70.710091 c -0.0503,0.19845 -0.14586,0.42755 -0.21233,0.50909 -0.0665,0.0815 -0.28973,0.31551 -0.49613,0.51991 -0.2064,0.2044 -0.44563,0.37134 -0.53162,0.37096 -0.086,-3.6e-4 -0.21026,0.0528 -0.27617,0.11816 l -0.11983,0.11884 -5.41358,0.003 -5.41358,0.003 -0.53472,-0.20264 c -0.29409,-0.11146 -0.6669,-0.32444 -0.82845,-0.4733 -0.16155,-0.14886 -0.38165,-0.43645 -0.48911,-0.63907 -0.12475,-0.23523 -0.19461,-0.54587 -0.19324,-0.85924 0.001,-0.26994 0.0295,-0.62459 0.063,-0.78811 0.0335,-0.16364 0.26038,-0.50874 0.50471,-0.76762 0.2855,-0.30251 0.59745,-0.52243 0.87425,-0.61633 l 0.43036,-0.14601 5.44302,0.0239 5.44302,0.0239 0.3343,0.1194 c 0.18386,0.0657 0.46699,0.21512 0.62917,0.33211 0.16218,0.117 0.40506,0.3585 0.53973,0.53668 l 0.24485,0.32395 0.0469,0.56408 c 0.0258,0.31024 0.006,0.72644 -0.0445,0.92489 z"
         id="path606" />
      <path
         style="fill:none;stroke:#ff0000;stroke-width:0.417617;stroke-dasharray:none;stroke-opacity:1"
         d="m 135.11639,75.779531 c -0.0821,-0.44679 -0.2138,-1.07047 -0.29259,-1.38594 -0.0788,-0.31548 -0.20311,-0.71497 -0.27626,-0.88777 -0.0731,-0.17279 -0.13271,-0.38128 -0.13234,-0.46331 3.5e-4,-0.082 -0.058,-0.26345 -0.12962,-0.40317 -0.0716,-0.13973 -0.22355,-0.46931 -0.33756,-0.73242 -0.11402,-0.26311 -0.26429,-0.58606 -0.33396,-0.71767 -0.0697,-0.1316 -0.20525,-0.38807 -0.30131,-0.56992 -0.096,-0.18185 -0.2281,-0.38962 -0.29344,-0.4617 -0.0653,-0.0721 -0.11854,-0.18786 -0.11823,-0.25727 3e-4,-0.0694 -0.0638,-0.15121 -0.14245,-0.18179 -0.0786,-0.0306 -0.14278,-0.10447 -0.14252,-0.16421 2.7e-4,-0.0598 -0.13717,-0.2873 -0.30541,-0.50568 -0.16824,-0.21838 -0.414,-0.52363 -0.54612,-0.67832 -0.13212,-0.15469 -0.56183,-0.60779 -0.95491,-1.00687 -0.39309,-0.39908 -0.84238,-0.83482 -0.99844,-0.9683 -0.15605,-0.13349 -0.45505,-0.37475 -0.66443,-0.53614 -0.20937,-0.16139 -0.45576,-0.32104 -0.54752,-0.35478 -0.0918,-0.0337 -0.16668,-0.10066 -0.16647,-0.1487 2.1e-4,-0.048 -0.0747,-0.11368 -0.16647,-0.14586 -0.0918,-0.0322 -0.2954,-0.14302 -0.45252,-0.24632 -0.15711,-0.1033 -0.50811,-0.29871 -0.78,-0.43425 -0.27189,-0.13554 -0.5364,-0.24662 -0.58779,-0.24685 -0.0514,-2.2e-4 -0.10763,-0.0327 -0.12497,-0.0722 -0.0173,-0.0395 -0.26826,-0.16949 -0.55762,-0.28893 -0.28936,-0.11944 -0.58973,-0.21881 -0.66749,-0.22082 -0.0778,-0.002 -0.22451,-0.0671 -0.32612,-0.14467 -0.10161,-0.0776 -0.29471,-0.14176 -0.4291,-0.14268 -0.13439,-10e-4 -0.36715,-0.0664 -0.51724,-0.1455 -0.15009,-0.0791 -0.41058,-0.14446 -0.57886,-0.14519 -0.16829,-7.2e-4 -0.51762,-0.0623 -0.77631,-0.13678 -0.25868,-0.0745 -1.00737,-0.16017 -1.66376,-0.19038 -0.65638,-0.0302 -1.66625,-0.0237 -2.24416,0.0145 -0.5779,0.0382 -1.30879,0.12066 -1.62419,0.18319 -0.3154,0.0625 -0.70257,0.15696 -0.86036,0.20985 -0.1578,0.0529 -0.47867,0.13455 -0.71306,0.18148 -0.23439,0.0469 -0.46894,0.12772 -0.52123,0.17955 -0.0523,0.0518 -0.17653,0.0939 -0.27609,0.0934 -0.0996,-3.6e-4 -0.29534,0.0566 -0.43505,0.12683 -0.13972,0.0702 -0.40472,0.19418 -0.5889,0.27551 -0.18419,0.0813 -0.55018,0.24741 -0.81332,0.36904 -0.26314,0.12163 -0.52156,0.25523 -0.57426,0.29689 -0.0527,0.0417 -0.3544,0.24565 -0.67044,0.45332 -0.31604,0.20767 -0.77765,0.51336 -1.02581,0.67932 -0.24815,0.16596 -0.98163,0.83861 -1.62994,1.49479 -0.64831,0.65618 -1.24365,1.29412 -1.32298,1.41765 -0.0793,0.12354 -0.28469,0.40986 -0.45638,0.63627 -0.17169,0.22642 -0.3123,0.44309 -0.31247,0.4815 -1.7e-4,0.0384 -0.0611,0.1374 -0.13535,0.21999 -0.0743,0.0826 -0.33424,0.53437 -0.57769,1.00395 -0.24345,0.46958 -0.59647,1.30598 -0.78448,1.85868 -0.18802,0.5527 -0.40577,1.198 -0.48391,1.434 -0.0781,0.23601 -0.14251,0.58259 -0.14308,0.77018 -7.2e-4,0.1876 -0.0665,0.53109 -0.14658,0.76331 l -0.14557,0.42222 -0.25849,64.504699 -0.25849,64.5047 0.13063,0.3348 c 0.0718,0.18414 0.16822,0.39942 0.21414,0.47841 0.0459,0.079 0.12955,0.26198 0.18581,0.40666 0.0563,0.14468 0.14108,0.26323 0.18846,0.26343 0.0474,2.1e-4 0.0859,0.0519 0.0856,0.11488 -2.8e-4,0.063 0.22354,0.3267 0.49736,0.58605 0.27384,0.25935 0.58429,0.50989 0.68989,0.55675 0.10561,0.0469 0.25631,0.12245 0.33489,0.16798 0.0786,0.0455 0.29292,0.16475 0.47631,0.26492 l 0.33343,0.18215 12.27067,0.0538 12.27068,0.0538 0.66985,-0.31841 0.66985,-0.31841 0.64747,-0.66079 c 0.35612,-0.36343 0.64769,-0.70834 0.64795,-0.76647 2.5e-4,-0.0581 0.0575,-0.17327 0.12722,-0.25588 0.0697,-0.0826 0.18886,-0.32182 0.26476,-0.53157 l 0.138,-0.38137 0.15427,-24.25467 c 0.0849,-13.34006 0.22446,-42.36707 0.31022,-64.50447 l 0.15595,-40.249809 z"
         id="path594" />
    </g>
  </g>
</svg>
