<?xml version="1.0" encoding="UTF-8" standalone="no"?>
<!-- Created with Inkscape (http://www.inkscape.org/) -->

<svg
   width="28.754816mm"
   height="120mm"
   viewBox="0 0 28.754816 120"
   version="1.1"
   id="svg1"
   xml:space="preserve"
   xmlns="http://www.w3.org/2000/svg"
   xmlns:svg="http://www.w3.org/2000/svg"><defs
     id="defs1" /><g
     id="layer1"
     transform="translate(-106.66376,-72.290312)"><g
       id="g110"><path
         style="fill:none;stroke:#ff0000;stroke-width:0.221385;stroke-dasharray:none;stroke-opacity:1"
         d="m 115.6833,98.887901 c 0,-0.36277 0.0141,-0.36121 -0.58079,-0.0644 -0.60806,0.30335 -0.59906,0.36645 0.0523,0.36645 0.42782,0 0.52849,-0.0576 0.52849,-0.302 z"
         id="path110" /><path
         id="path57"
         style="fill:none;stroke:#0000ff;stroke-width:0.4;stroke-dasharray:none;stroke-opacity:1"
         d="m 119.11849,167.92107 c 0.26991,-0.19252 0.49074,-0.40206 0.49074,-0.46565 0,-0.0962 -2.34499,-1.4797 -3.59567,-2.12137 -0.32277,-0.1656 -0.44189,-0.0883 -1.57234,1.01958 l -1.22312,1.19875 0.38253,0.25063 c 0.58628,0.38416 1.54561,0.52534 3.36615,0.4954 1.47012,-0.0242 1.71736,-0.0676 2.15171,-0.37734 z m 8.90884,0.12699 c 0.26991,-0.10116 0.49074,-0.2607 0.49074,-0.35443 0,-0.24822 -2.14346,-2.36698 -2.39457,-2.36698 -0.54603,0 -3.79631,1.89209 -3.79631,2.20995 0,0.097 0.22083,0.32246 0.49074,0.50105 0.45736,0.30263 0.63454,0.32028 2.6047,0.25956 1.16268,-0.0359 2.3348,-0.14794 2.6047,-0.24915 z m 2.4681,-1.5528 c 1.20167,-1.10858 1.39906,-1.86014 0.74315,-2.82958 -0.14047,-0.20763 -0.2981,-0.4959 -0.35029,-0.64061 -0.13687,-0.37948 -1.84955,-2.87528 -2.17553,-3.1703 -0.25674,-0.23235 -0.36786,-0.22587 -1.63182,0.0952 l -1.35631,0.34449 0.0406,0.5909 c 0.0223,0.32499 0.26015,1.21437 0.52849,1.97639 0.45671,1.29694 0.57475,1.47723 1.84687,2.82052 0.74744,0.78925 1.42692,1.4391 1.50997,1.44408 0.083,0.005 0.46324,-0.27898 0.84488,-0.63105 z m -16.74955,-0.97988 1.44105,-1.47222 0.48638,-1.54443 c 0.26752,-0.84946 0.4633,-1.66433 0.43509,-1.81083 -0.0665,-0.34532 -0.59687,-0.59186 -1.82882,-0.8501 l -0.99461,-0.20849 -0.36394,0.39496 c -0.52581,0.57063 -2.67363,4.21198 -2.67363,4.53279 0,0.47376 1.50956,2.40109 1.89695,2.42192 0.0883,0.005 0.80895,-0.65388 1.60153,-1.4636 z m 6.69197,-1.51752 c -10e-4,-1.2116 -0.0698,-2.18463 -0.16578,-2.34859 -0.22055,-0.37667 -1.75944,-0.87909 -2.51964,-0.82261 l -0.61326,0.0455 -0.48053,1.50997 c -0.26429,0.8305 -0.4496,1.59252 -0.41182,1.69342 0.19697,0.52588 3.76282,2.41309 4.0419,2.13914 0.0863,-0.0847 0.1502,-1.0346 0.14913,-2.21688 z m 2.34233,1.93277 c 0.42255,-0.24914 0.80252,-0.45299 0.84438,-0.45299 0.13365,0 1.79435,-1.09131 1.89186,-1.24322 0.11016,-0.17154 -0.0326,-0.82036 -0.52372,-2.38072 l -0.35642,-1.13247 -0.64627,0.0427 c -0.90855,0.0601 -2.28322,0.55259 -2.46896,0.88448 -0.21988,0.3929 -0.20846,3.8063 0.0144,4.31991 0.0991,0.22839 0.24686,0.41524 0.32831,0.41524 0.0814,0 0.49381,-0.20384 0.91636,-0.45299 z m 9.57218,-2.9568 c 0.15852,-0.41311 0.10188,-5.4997 -0.0647,-5.81097 -0.23388,-0.43701 -0.44605,-0.36245 -1.30969,0.46027 -1.22716,1.16901 -1.29999,1.32475 -0.99418,2.12619 0.14059,0.36845 0.52338,1.11158 0.85065,1.65138 0.32725,0.53982 0.70436,1.16791 0.83803,1.39578 0.27254,0.46465 0.54257,0.53509 0.67985,0.17735 z m -20.89127,-2.54904 0.75205,-1.50545 -1.00154,-0.94878 c -0.55085,-0.52181 -1.09196,-0.94877 -1.20248,-0.94877 -0.15777,0 -0.21054,0.55964 -0.24558,2.6047 -0.0246,1.43259 -0.0172,2.77096 0.0164,2.97414 0.0607,0.36758 0.0632,0.36684 0.49507,-0.15048 0.23872,-0.28595 0.77245,-1.19736 1.18608,-2.02536 z m 11.09283,-0.20994 c 0.58147,-0.15109 1.21152,-0.37075 1.40011,-0.48816 0.39522,-0.24603 0.38346,-0.3761 -0.21614,-2.38942 -0.35845,-1.20358 -0.44025,-1.33269 -1.56424,-2.4688 l -1.186,-1.19882 -0.50046,0.38192 c -1.10407,0.84257 -1.96954,2.05261 -2.41391,3.37499 -0.70976,2.11214 -0.65655,2.24085 1.14661,2.77381 1.18543,0.35036 2.02726,0.35402 3.33403,0.0144 z m -5.77937,-1.51482 c 0.47849,-0.85989 0.76627,-2.26208 0.67183,-3.27342 -0.0844,-0.90381 -0.60444,-2.55209 -0.85383,-2.70622 -0.1798,-0.11112 -1.96597,0.32003 -2.74846,0.66343 -0.91189,0.4002 -3.0776,2.60709 -2.88906,2.94401 0.29071,0.51944 1.75408,1.8953 2.3416,2.20153 0.74301,0.38727 2.14699,0.7497 2.75231,0.71047 0.3297,-0.0214 0.51301,-0.15773 0.72561,-0.5398 z m 10.35835,0.30213 c 0.56483,-0.15652 1.30369,-0.42576 1.64193,-0.59831 0.62433,-0.31852 2.1592,-1.89929 2.1592,-2.22377 0,-0.23889 -2.21065,-2.44479 -2.70356,-2.69776 -0.58277,-0.29908 -2.72826,-0.87333 -2.94794,-0.78903 -0.10488,0.0403 -0.34546,0.55441 -0.53458,1.14259 -0.4713,1.46577 -0.39336,3.31665 0.19297,4.58263 0.46677,1.00783 0.56597,1.03425 2.19198,0.58365 z m 5.3111,-6.91592 c 0,-2.64624 -0.0252,-2.93572 -0.26424,-3.02964 -0.44359,-0.17435 -1.89399,-0.1188 -2.45371,0.094 -0.82152,0.31226 -1.27477,0.53544 -1.3791,0.67904 -0.20258,0.27887 0.55619,2.76124 0.97509,3.19003 0.0977,0.1 0.48718,0.51473 0.86565,0.92173 0.37847,0.40701 0.91362,0.92967 1.18921,1.16147 0.4747,0.39929 0.51598,0.40799 0.7841,0.16535 0.25813,-0.23361 0.283,-0.51331 0.283,-3.18191 z m -20.85527,1.85257 c 1.10901,-1.05679 1.63829,-2.07385 1.7788,-3.41813 0.10933,-1.04606 0.15342,-1.01396 -1.97359,-1.43639 -1.01984,-0.20253 -1.35387,-0.22044 -1.49424,-0.08 -0.18711,0.1871 -0.28919,4.37667 -0.13909,5.70834 l 0.074,0.65665 0.39513,-0.25596 c 0.21732,-0.14078 0.82886,-0.66927 1.35897,-1.17443 z m 7.75626,-0.16191 c 0.39448,-0.37004 0.71447,-0.72562 0.7111,-0.79017 -0.003,-0.0646 -0.2049,-0.34985 -0.44784,-0.63397 -0.44107,-0.51588 -0.44259,-0.51633 -1.06689,-0.31029 -0.34385,0.11352 -0.6548,0.28351 -0.691,0.37785 -0.0899,0.23415 0.22621,1.59874 0.4261,1.83959 0.23246,0.2801 0.27603,0.2604 1.06853,-0.48301 z m 4.34062,0.37697 c 0.0886,-0.16553 0.17591,-0.65682 0.19406,-1.09175 l 0.033,-0.79076 -0.64106,-0.2246 -0.64106,-0.22461 -0.43764,0.52361 c -0.40459,0.48406 -0.42197,0.55396 -0.23017,0.92556 0.22789,0.44152 1.08824,1.17919 1.37837,1.18184 0.10089,7.3e-4 0.25592,-0.13376 0.34451,-0.29929 z m -8.12076,-2.22391 c 0.8508,-0.26819 1.01176,-0.60784 0.61222,-1.29194 -0.25206,-0.43158 -0.35948,-0.48662 -0.94986,-0.48662 h -0.66567 l -0.26038,0.8305 c -0.14321,0.45676 -0.26453,0.95069 -0.26961,1.0976 -0.0102,0.29426 0.18614,0.27512 1.5333,-0.14954 z m 12.0744,-0.34408 c -0.0775,-0.84765 -0.4979,-1.5795 -0.93314,-1.62451 -0.81214,-0.084 -1.51332,0.742 -1.27417,1.50099 0.0979,0.31071 1.18445,0.72139 1.80266,0.68136 0.42174,-0.0274 0.44965,-0.0659 0.40465,-0.55784 z m -6.15212,0.01 c 0.3704,-0.3866 0.41077,-0.51633 0.3172,-1.01922 -0.13453,-0.72298 -0.65359,-1.94756 -0.91879,-2.16766 -0.15985,-0.13266 -0.2638,0.0383 -0.51195,0.84164 -0.41236,1.33508 -0.4066,2.08378 0.0191,2.48038 0.43867,0.40867 0.59153,0.38979 1.09444,-0.13514 z m -3.10944,-0.54666 c 0.3226,-0.12908 0.65881,-0.39328 0.74713,-0.58714 0.25062,-0.55006 0.53184,-2.15872 0.42572,-2.43526 -0.083,-0.21626 -0.16973,-0.19263 -0.65684,0.1789 -0.5538,0.4224 -1.36068,1.26381 -1.59354,1.66174 -0.14293,0.24424 0.14579,1.41645 0.34887,1.41645 0.0782,0 0.40607,-0.1056 0.72866,-0.23469 z m 6.0672,-0.15264 c 0.081,-0.21303 0.14436,-0.53578 0.14082,-0.71724 -0.007,-0.37365 -0.84799,-1.36015 -1.69063,-1.98382 -0.48879,-0.36178 -0.57729,-0.38476 -0.65923,-0.17125 -0.0879,0.22912 0.21146,1.68471 0.51561,2.50689 0.077,0.2081 0.34757,0.4356 0.64677,0.54378 0.75339,0.27239 0.88373,0.25018 1.04666,-0.17836 z m -6.84896,-2.68295 c 0.52598,-0.52598 0.95632,-1.03559 0.95632,-1.13248 0,-0.26563 -0.82802,-0.21217 -1.96692,0.12701 -1.0746,0.32003 -1.2566,0.45545 -1.40096,1.04246 -0.15049,0.61195 0.12748,0.91932 0.8314,0.91932 0.5648,0 0.71437,-0.0905 1.58016,-0.95631 z m 9.01626,0.65764 c 0.11088,-0.11088 0.092,-0.34875 -0.0625,-0.78979 -0.21501,-0.61374 -0.25026,-0.63858 -1.27809,-0.90038 -1.17457,-0.29917 -2.03846,-0.35359 -2.03846,-0.1284 0,0.16941 1.50436,1.70576 1.91563,1.95637 0.30944,0.18857 1.22305,0.10248 1.46338,-0.1378 z m -12.36087,-0.91483 0.27485,-0.60953 -0.51617,-0.44132 c -0.28389,-0.24274 -0.57325,-0.44408 -0.64303,-0.44746 -0.24808,-0.012 -1.28951,0.831 -1.53186,1.23999 -0.23754,0.40088 -0.23391,0.42035 0.10223,0.54801 0.5555,0.21099 0.91461,0.28358 1.49582,0.30231 0.49485,0.016 0.56782,-0.0368 0.81816,-0.592 z m 15.07795,0.46665 c 0.72121,-0.16732 0.92611,-0.35752 0.77051,-0.71523 -0.0656,-0.15091 -0.10584,-0.37632 -0.0893,-0.50089 0.0242,-0.18199 0.004,-0.18678 -0.10668,-0.0244 -0.10728,0.15854 -0.25424,0.099 -0.6812,-0.27587 -0.61321,-0.5384 -0.92801,-0.51965 -1.53935,0.0917 -0.35702,0.35701 -0.36293,0.3939 -0.14615,0.91272 0.12425,0.29735 0.2259,0.56633 0.2259,0.59772 0,0.10488 0.9745,0.0515 1.56619,-0.0858 z m 3.08787,-2.71392 c -0.0268,-1.23905 -0.0992,-2.30317 -0.16097,-2.36473 -0.19345,-0.19271 -1.16301,0.43213 -1.93769,1.24879 -0.76691,0.80846 -0.90815,1.23208 -0.51859,1.55539 0.12366,0.1026 0.18759,0.24684 0.14209,0.32047 -0.0455,0.0737 -0.0108,0.1339 0.0772,0.1339 0.088,0 0.28816,0.12825 0.44491,0.28501 0.48306,0.48305 1.43157,1.07396 1.7239,1.07396 0.25951,0 0.27461,-0.14838 0.22919,-2.25279 z m -21.4959,1.48714 c 0.87089,-0.71965 1.43967,-1.3518 1.43994,-1.60031 2.3e-4,-0.22348 -2.11499,-2.16395 -2.35881,-2.16395 -0.0998,0 -0.22596,0.26365 -0.28041,0.5859 -0.10163,0.6015 -0.0782,3.47678 0.0299,3.67977 0.12451,0.23367 0.44733,0.0953 1.16936,-0.50141 z m 10.49676,-0.66717 c 0.75251,-0.38914 0.79499,-1.3304 0.0811,-1.79813 -0.65092,-0.4265 -1.44817,-0.0283 -1.66238,0.83029 -0.0796,0.31891 -0.009,0.46801 0.37731,0.79273 0.5524,0.46482 0.62366,0.47519 1.20393,0.17511 z m -3.73398,-0.5509 c 0.66677,-0.26796 0.49524,-0.5467 -0.52849,-0.85882 -1.69167,-0.51576 -1.93891,-0.51941 -2.50328,-0.0368 -0.45849,0.392 -0.48498,0.45924 -0.302,0.76654 0.35401,0.59457 0.94973,0.74544 1.99826,0.50609 0.50615,-0.11556 1.10712,-0.28517 1.33551,-0.37694 z m 9.4635,0.23383 c 0.25551,-0.215 0.46458,-0.47588 0.46458,-0.57973 0,-0.1038 -0.23163,-0.39957 -0.51473,-0.65719 l -0.51472,-0.46838 -1.45269,0.4785 c -1.02623,0.33804 -1.44031,0.54283 -1.4105,0.69764 0.0232,0.1205 0.0762,0.21122 0.1177,0.20158 0.0415,-0.01 0.55114,0.14266 1.13248,0.33848 1.36861,0.46099 1.61856,0.45973 2.17788,-0.0108 z m -13.28777,-1.81197 c 0.53184,-0.4475 0.58415,-0.8792 0.1716,-1.41607 -0.28241,-0.36751 -0.29909,-0.36989 -1.24237,-0.17715 -1.15865,0.23676 -1.28984,0.34487 -0.97222,0.80118 0.25389,0.36476 1.26779,1.18295 1.4659,1.18295 0.0619,0 0.32157,-0.17589 0.57709,-0.39091 z m 15.008,0.21952 c 0.46212,-0.24017 1.33159,-1.20196 1.26589,-1.40031 -0.0571,-0.17232 -1.26251,-0.50281 -1.92497,-0.52776 -0.30772,-0.012 -0.42287,0.0905 -0.57422,0.50903 -0.21464,0.59356 -0.0853,0.97049 0.4654,1.3562 0.39922,0.27962 0.35735,0.2762 0.7679,0.0628 z m -10.48866,-0.2647 c 0.27928,-0.17698 0.07,-0.52264 -0.84383,-1.39336 -0.82603,-0.78712 -1.20814,-0.9544 -1.85535,-0.81225 -0.41657,0.0916 -0.4496,0.14808 -0.4496,0.76998 0,0.59133 0.0494,0.69099 0.41524,0.83727 0.31923,0.12766 1.92829,0.59392 2.45371,0.71102 0.0415,0.01 0.16745,-0.0415 0.27983,-0.11268 z m 7.98328,-0.65297 c 0.28382,-0.22929 0.40831,-1.14264 0.19136,-1.40405 -0.10296,-0.1241 -0.43396,-0.22483 -0.73875,-0.22483 -0.47226,0 -0.69898,0.13978 -1.56697,0.96611 -0.55817,0.53136 -1.01484,1.03625 -1.01484,1.12198 0,0.0857 0.15288,0.17757 0.33974,0.20412 0.40074,0.0569 2.52246,-0.44763 2.78946,-0.66333 z m -6.75714,-0.83615 c -0.002,-0.31143 -0.1576,-1.00642 -0.34533,-1.54444 -0.31871,-0.91339 -0.38098,-0.98964 -0.93973,-1.15051 -0.72129,-0.20768 -0.93013,-0.0808 -1.06689,0.64824 -0.0935,0.49846 -0.0418,0.58527 0.93569,1.57029 0.56907,0.57347 1.12143,1.04267 1.22747,1.04267 0.12283,0 0.19134,-0.20548 0.18879,-0.56625 z m 3.78381,-0.22863 c 1.29052,-1.22136 1.3687,-1.37108 1.08847,-2.08448 -0.26538,-0.67558 -0.21617,-0.65717 -1.01784,-0.38088 -0.57777,0.19911 -0.61834,0.25638 -0.9345,1.31895 -0.37902,1.27382 -0.43425,1.94225 -0.16024,1.93914 0.10382,-0.001 0.56466,-0.3579 1.02411,-0.79273 z m -1.96399,-0.29986 c 0.0916,-0.35295 0.2297,-0.87955 0.30697,-1.17022 0.21702,-0.81639 0.17142,-1.16897 -0.19538,-1.5107 -0.43339,-0.40376 -0.98436,-0.33706 -1.3569,0.16426 -0.27847,0.37474 -0.28005,0.42784 -0.0403,1.35306 0.24395,0.94141 0.71494,1.80534 0.98423,1.80534 0.0742,0 0.20981,-0.28878 0.30138,-0.64174 z m -8.88052,-0.37127 c 0.97986,-0.31127 1.07503,-0.46106 0.85789,-1.35011 -0.33985,-1.39145 -1.01102,-2.6429 -1.84619,-3.44231 -0.86968,-0.83245 -1.54614,-1.25542 -1.72385,-1.07784 -0.0624,0.0624 -0.12448,1.43275 -0.13794,3.04527 -0.0216,2.58874 0.005,2.94942 0.2265,3.08178 0.30602,0.18279 1.6557,0.0508 2.62359,-0.25679 z m 19.60741,0.25271 c 0.27262,-0.14591 0.29206,-0.34255 0.29206,-2.95437 0,-2.8784 -0.0882,-3.3822 -0.59214,-3.3822 -0.15519,0 -0.8412,0.5911 -1.5424,1.32902 -1.17419,1.23567 -1.29206,1.41924 -1.67813,2.61369 -0.22838,0.70658 -0.41525,1.36317 -0.41525,1.45912 0,0.24983 0.46044,0.463 1.70408,0.78893 1.2556,0.32906 1.82043,0.36596 2.23178,0.14581 z m -16.06734,-1.10064 c 0.0193,-0.0193 0.10006,-0.32406 0.1794,-0.67716 l 0.14425,-0.64203 -0.58295,-0.2974 c -0.32063,-0.16357 -0.83233,-0.29741 -1.1371,-0.29741 h -0.55415 l 0.0763,0.67732 c 0.042,0.37252 0.19329,0.85579 0.33623,1.07394 0.23329,0.35605 0.32349,0.38647 0.88136,0.29726 0.34181,-0.0547 0.63729,-0.1152 0.65662,-0.13452 z m 11.28461,-0.40707 c 0.13358,-0.33388 0.24289,-0.85105 0.24289,-1.14929 v -0.54223 l -0.55494,0.10404 c -0.83507,0.15666 -1.71003,0.54237 -1.71003,0.75385 0,0.1032 0.0764,0.4069 0.1699,0.67495 0.17834,0.5116 0.54416,0.7401 1.21043,0.7561 0.32826,0.008 0.44184,-0.0979 0.64175,-0.59748 z m -7.67801,-1.87948 0.39934,-0.52355 -0.54987,-0.67105 c -0.50626,-0.61782 -0.81583,-0.84879 -1.13757,-0.84879 -0.16008,0 -0.60583,1.30278 -0.60583,1.77064 0,0.25936 0.13511,0.41662 0.49074,0.57119 0.74054,0.32187 0.96676,0.27376 1.40319,-0.29844 z m 3.56989,0.37771 c 0.19226,-0.0802 0.47191,-0.24308 0.62144,-0.36195 0.26155,-0.20791 0.26097,-0.24967 -0.0149,-1.0999 -0.15773,-0.48606 -0.38199,-0.89962 -0.49836,-0.919 -0.3766,-0.0628 -1.49506,1.12351 -1.49506,1.58567 0,0.23151 0.67051,0.94103 0.88929,0.94103 0.0814,0 0.30534,-0.0656 0.4976,-0.14585 z m -6.35437,-1.02438 c 0.0874,-0.22839 0.26585,-0.88652 0.39647,-1.46251 0.27967,-1.23319 0.11504,-2.75276 -0.43735,-4.03683 l -0.32898,-0.76472 -0.76652,0.0936 c -0.42159,0.0515 -1.20819,0.23204 -1.74801,0.40132 -0.83775,0.26271 -1.14181,0.46666 -2.07621,1.39261 -0.6021,0.59664 -1.09473,1.13978 -1.09473,1.20694 0,0.21774 2.44212,2.66657 2.77375,2.78137 1.05733,0.36605 2.48408,0.76903 2.77914,0.78496 0.24441,0.0132 0.38933,-0.10116 0.50244,-0.39669 z m 9.91254,0.0491 c 0.67284,-0.20138 1.38128,-0.44988 1.57433,-0.5522 0.67057,-0.35544 2.54044,-2.29131 2.54044,-2.63012 0,-0.21467 -0.37497,-0.66171 -1.09472,-1.3051 -1.37614,-1.23013 -1.22381,-1.14811 -2.94184,-1.58407 -1.15465,-0.293 -1.47603,-0.32845 -1.57638,-0.17388 -0.19243,0.29641 -0.83249,2.37887 -0.94979,3.09017 -0.16233,0.98423 0.57044,3.52137 1.01702,3.52137 0.11424,0 0.7581,-0.16477 1.43094,-0.36617 z m -4.81391,-1.71004 c 0.56934,-0.56058 1.1908,-1.32501 1.38102,-1.69872 0.6639,-1.30436 0.95033,-2.97362 0.56404,-3.28717 -0.33136,-0.26896 -2.44632,-0.78966 -3.21833,-0.79236 -1.00767,-0.004 -2.91919,0.71826 -3.02566,1.14247 -0.0823,0.32789 0.34051,2.01479 0.74857,2.98662 0.23276,0.55434 2.12466,2.66839 2.38798,2.66839 0.07,0 0.59304,-0.45865 1.16238,-1.01923 z m 10.16252,-2.40161 c 0.24521,-0.22192 0.27613,-0.51577 0.27613,-2.62358 0,-2.59558 -0.0845,-3.31741 -0.38812,-3.31741 -0.10968,0 -0.28803,0.1638 -0.39636,0.36399 -0.10836,0.2002 -0.55372,0.98044 -0.98973,1.73386 -0.43601,0.75342 -0.79274,1.50137 -0.79274,1.66212 0,0.32309 1.61219,2.43092 1.8593,2.43092 0.0854,0 0.27965,-0.11244 0.43152,-0.2499 z m -21.17029,-0.67655 c 1.2019,-1.05795 1.27671,-1.26217 0.78117,-2.13217 -0.94498,-1.65907 -1.76449,-2.97982 -1.84939,-2.98052 -0.15107,-0.001 -0.27103,2.24022 -0.20198,3.77417 0.0355,0.78897 0.0652,1.58737 0.0658,1.77422 10e-4,0.50454 0.23002,0.42198 1.20441,-0.4357 z m 3.39522,-2.01742 c 0.58614,-0.0995 1.74349,-0.60844 1.74349,-0.76676 0,-0.0443 -0.20594,-0.87529 -0.45765,-1.84664 l -0.45766,-1.76611 -1.31341,-1.32122 c -0.72238,-0.72667 -1.4196,-1.32123 -1.54937,-1.32123 -0.28944,0 -1.33919,1.08027 -1.79863,1.85092 l -0.33828,0.56743 0.71174,1.32002 c 1.30502,2.42037 2.17551,3.57203 2.61041,3.4536 0.13882,-0.0378 0.52103,-0.11436 0.84936,-0.17001 z m 15.13205,-1.02994 c 0.79626,-1.18081 0.77304,-1.14342 1.61151,-2.59466 0.42042,-0.72767 0.55428,-1.10536 0.4869,-1.37382 -0.1092,-0.43524 -1.72724,-2.17453 -2.02288,-2.17453 -0.11172,0 -0.7237,0.531 -1.35995,1.18001 -1.45823,1.48745 -2.24708,2.91808 -2.58378,4.68582 -0.1242,0.65212 -0.12139,0.65802 0.42446,0.89391 0.63984,0.2765 2.28102,0.61752 2.53775,0.52733 0.097,-0.0341 0.50465,-0.5489 0.90599,-1.14406 z m -11.19909,-0.0218 c 0.33219,-0.0528 0.92174,-0.19848 1.31011,-0.32362 l 0.70612,-0.22754 0.10713,-1.00027 c 0.1108,-1.03466 0.0116,-3.23759 -0.16666,-3.70152 -0.0559,-0.14533 -0.17921,-0.26258 -0.27413,-0.26055 -0.0949,0.002 -0.98798,0.43761 -1.98456,0.96799 -2.0534,1.0928 -1.98512,0.96477 -1.51147,2.83422 0.35636,1.40651 0.6361,1.96495 0.94218,1.88083 0.14701,-0.0403 0.53909,-0.11664 0.87128,-0.16954 z m 6.72887,-1.1591 c 0.22196,-0.63433 0.44825,-1.39159 0.50288,-1.68282 0.0925,-0.49333 0.0552,-0.56211 -0.54627,-1.00679 -0.80871,-0.59786 -2.6362,-1.50344 -3.13705,-1.55449 -0.35148,-0.0358 -0.38426,0.0187 -0.47581,0.792 -0.12973,1.09591 -0.15078,3.02017 -0.0391,3.5784 0.0757,0.37848 0.20582,0.48212 0.86824,0.69158 0.42856,0.13552 0.88112,0.27966 1.00569,0.32032 0.12457,0.0407 0.49456,0.0606 0.82221,0.0445 l 0.5957,-0.0294 z m -8.03798,-3.8518 c 2.4823,-1.33053 2.83026,-1.62002 2.3603,-1.96368 -0.40995,-0.29974 -4.13977,-0.27902 -5.17622,0.0288 -0.43031,0.12779 -0.78239,0.27908 -0.78239,0.3362 0,0.10404 2.1345,2.30041 2.23556,2.30041 0.0295,0 0.64275,-0.31577 1.36275,-0.70169 z m 10.40843,-0.38923 c 0.5181,-0.55848 0.942,-1.10767 0.942,-1.2204 0,-0.35924 -1.07395,-0.5829 -3.17094,-0.66036 -1.66475,-0.0614 -2.1434,-0.0305 -2.6108,0.16929 -0.88005,0.37608 -0.67678,0.58225 1.93131,1.95878 0.58134,0.30682 1.12445,0.62508 1.20691,0.70722 0.30485,0.30369 0.78324,0.0353 1.70152,-0.95453 z" /><path
         style="fill:none;stroke:#ff0000;stroke-width:0.221385;stroke-dasharray:none;stroke-opacity:1"
         d="m 111.53087,191.99213 c -2.35902,-0.5868 -4.1471,-2.50519 -4.60998,-4.94595 -0.0923,-0.48673 -0.14643,-15.82809 -0.14643,-41.5049 v -40.73276 l 0.31255,-1.03514 c 0.70559,-2.33687 2.35572,-3.856029 4.67036,-4.299619 1.22533,-0.23483 1.36206,-0.34752 0.78424,-0.64632 -0.96014,-0.49651 -1.356,-1.50024 -1.00172,-2.53998 0.32343,-0.94922 0.93554,-1.4925 1.79014,-1.58882 l 0.68964,-0.0778 -0.11192,-0.62225 c -0.18454,-1.02604 -0.0904,-3.42494 0.17555,-4.47268 0.28004,-1.10333 1.04367,-2.78064 1.69488,-3.7228 0.23849,-0.34504 1.1131,-1.3538 1.94359,-2.24168 1.80081,-1.92527 1.91381,-2.13838 1.70197,-3.20978 -0.0861,-0.43536 -0.20493,-0.79157 -0.2641,-0.79157 -0.16821,0 -0.54556,0.47765 -0.83505,1.05698 -0.45865,0.91788 -2.44202,3.82341 -3.08635,4.52134 -1.31169,1.42081 -2.55264,1.87629 -3.35089,1.2299 -0.30162,-0.24422 -0.35647,-0.42552 -0.35647,-1.17811 0,-0.70709 0.10207,-1.09055 0.49779,-1.87018 0.27378,-0.5394 0.69561,-1.21252 0.93741,-1.49582 0.53075,-0.62186 0.4784,-0.74983 -0.12962,-0.31687 -1.42652,1.01576 -2.98059,1.35161 -3.41098,0.73712 -0.98216,-1.40222 1.07065,-4.166971 4.37036,-5.886067 0.90478,-0.471383 2.7862,-1.122299 3.62393,-1.253771 0.3322,-0.0522 0.7919,-0.129816 1.02156,-0.17262 0.22966,-0.04284 0.77325,-0.381948 1.20798,-0.753659 1.42006,-1.214184 3.22782,-1.778076 5.69782,-1.77732 1.82079,5.64e-4 2.95542,0.282516 3.90495,0.970344 0.8257,0.59814 0.97954,0.937619 0.88706,1.957523 -0.10908,1.202855 -0.71654,2.304359 -2.00612,3.63763 -0.60798,0.62857 -1.15127,1.3255 -1.20729,1.54871 -0.14666,0.58435 0.0332,1.34631 0.46982,1.98961 0.55814,0.82247 0.849,2.08399 0.73466,3.18644 -0.0715,0.68988 -0.0361,1.03672 0.14071,1.37874 0.25183,0.48697 1.06844,1.24793 1.33922,1.24793 0.29802,0 1.18953,0.77905 1.33781,1.16907 0.16609,0.43687 -0.045,1.26135 -0.39786,1.55423 -0.36015,0.29891 -1.62089,0.23987 -2.20224,-0.10308 -0.76227,-0.44975 -1.33975,-0.56951 -1.33975,-0.27784 0,0.12876 0.0966,0.2712 0.21477,0.31653 0.37749,0.14485 0.69122,1.21878 0.69122,2.36606 0,1.19651 -0.37928,2.15605 -1.20695,3.05345 -0.22977,0.24914 -0.49503,0.60356 -0.58945,0.78758 -0.14672,0.28597 -0.12193,0.3657 0.17063,0.54871 0.18825,0.11772 0.81338,0.25914 1.38917,0.31419 1.35535,0.12955 2.72782,0.66088 2.7287,1.05638 3.5e-4,0.15859 0.10224,0.31998 0.2265,0.35864 0.93769,0.29186 2.15096,1.020169 2.80322,1.682789 0.98131,0.99686 1.52905,2.09203 1.72013,3.43928 0.21675,1.52831 0.19463,81.68542 -0.0228,82.71283 -0.24534,1.15915 -0.82599,2.18472 -1.74025,3.0738 -0.96071,0.93422 -2.07035,1.49279 -3.31812,1.67029 -1.49047,0.212 -17.66664,0.16952 -18.54396,-0.0487 z"
         id="path111" /></g></g></svg>
