<?xml version="1.0" encoding="UTF-8" standalone="no"?>
<!-- Created with Inkscape (http://www.inkscape.org/) -->

<svg
   width="48.045387mm"
   height="140.00002mm"
   viewBox="0 0 48.045387 140.00002"
   version="1.1"
   id="svg1"
   xmlns="http://www.w3.org/2000/svg"
   xmlns:svg="http://www.w3.org/2000/svg">
  <defs
     id="defs1" />
  <g
     id="layer1"
     transform="translate(-109.77254,-13.385755)">
    <g
       id="g22"
       transform="matrix(0.51872381,0,0,0.51872381,-7.6275359,-66.741473)"
       style="stroke-width:1.07647;stroke-dasharray:none">
      <path
         id="path23"
         style="fill:none;stroke:#0000ff;stroke-width:1.07647;stroke-dasharray:none;stroke-opacity:1"
         d="m 293.03663,412.41358 c -0.15874,-0.45536 -1.46771,-2.74731 -2.90882,-5.09323 -5.48458,-8.92809 -7.1484,-13.62493 -6.84967,-19.33612 0.16849,-3.2212 0.44525,-3.56526 1.71106,-2.1271 3.02992,3.44245 6.32212,10.10768 7.26671,14.7118 l 0.34721,1.69237 0.18233,-2.67926 c 0.28199,-4.14362 0.95887,-8.23679 2.08763,-12.62419 0.56758,-2.20613 1.09244,-4.24926 1.16636,-4.54031 0.10359,-0.40786 -0.15253,-0.71613 -1.11734,-1.34481 -1.86662,-1.21632 -2.82692,-3.2245 -2.82087,-5.89902 0.006,-2.6875 0.4678,-4.15251 1.69572,-5.38043 1.77552,-1.77552 3.43763,-1.08596 4.23342,1.7563 l 0.345,1.23221 0.73934,-1.29454 c 0.93655,-1.63984 1.94075,-2.13283 3.11137,-1.52748 1.13408,0.58646 1.63074,1.41582 1.63074,2.72317 v 1.12787 l 0.85989,-0.52429 c 2.02887,-1.23703 3.90261,-0.25009 3.90261,2.05559 0,3.75022 -4.00907,7.26711 -8.33438,7.3112 -1.01865,0.0104 -2.16461,-0.0667 -2.54659,-0.17132 -0.69133,-0.18934 -0.69827,-0.17599 -1.51575,2.91538 -1.58562,5.99611 -2.72287,12.89115 -2.66906,16.18227 0.0144,0.87935 0.0673,0.81531 0.74846,-0.90584 1.47838,-3.73544 3.45983,-6.71872 6.14473,-9.25152 1.58571,-1.49588 4.2077,-3.30631 4.79915,-3.31371 0.61865,-0.008 -0.2275,3.06046 -3.10043,11.24231 -1.5925,4.53529 -3.13089,7.81508 -4.46669,9.5228 -0.87114,1.11369 -4.02438,4.36782 -4.2324,4.36782 -0.0666,0 -0.25099,-0.37256 -0.40973,-0.82792 z m 5.16828,-5.99055 c 0.58428,-0.97927 1.37912,-2.61392 1.76631,-3.63257 1.66678,-4.38509 4.11916,-11.47183 4.29593,-12.41411 l 0.19193,-1.02306 -1.1655,0.80189 c -4.78301,3.29079 -8.38402,9.09027 -9.47744,15.26356 -0.35762,2.01906 -0.35078,3.71534 0.0204,5.04464 l 0.29548,1.05833 1.5053,-1.6591 c 0.82791,-0.9125 1.98334,-2.46032 2.56763,-3.43958 z m -5.57541,1.85754 c -0.58056,-5.02464 -1.6617,-9.71254 -3.0253,-13.11796 -1.31512,-3.28436 -4.85603,-9.06711 -5.36093,-8.75507 -0.3679,0.22737 -0.25711,4.83545 0.16403,6.82325 0.82167,3.87825 2.77714,7.95106 7.1623,14.91749 0.57251,0.9095 1.08474,1.65364 1.1383,1.65364 0.0536,0 0.0183,-0.68461 -0.0784,-1.52135 z m 10.72606,-27.2448 c 2.8077,-1.24198 4.85599,-4.68481 4.04482,-6.79867 -0.36306,-0.94614 -3.14008,-0.0793 -3.8208,1.19263 -0.1488,0.27804 -0.45883,0.50552 -0.68896,0.50552 -0.32163,0 -0.37875,-0.1683 -0.24695,-0.7276 0.462,-1.96047 0.47984,-2.9772 0.0634,-3.61277 -0.99984,-1.52595 -2.35651,-1.02329 -3.48976,1.293 -0.39559,0.80857 -0.82272,1.53406 -0.94916,1.61221 -0.2761,0.17063 -0.67173,-0.73305 -0.87754,-2.00442 -0.22969,-1.41888 -1.0833,-2.64583 -1.84075,-2.64583 -0.79978,0 -1.89291,1.24911 -2.26472,2.5879 -0.44656,1.6079 -0.32966,4.54489 0.22995,5.77719 1.3571,2.98843 6.27478,4.39812 9.84048,2.82084 z m -44.03887,8.33432 c -0.24399,-1.49557 -0.65565,-3.49312 -0.91481,-4.439 l -0.47119,-1.7198 -1.08747,0.068 c -0.59811,0.0374 -2.26028,0.50363 -3.69371,1.03611 -2.21323,0.82216 -2.94536,0.97098 -4.85519,0.98688 -2.59724,0.0216 -4.56825,-0.67551 -5.69465,-2.01416 -0.86897,-1.03271 -0.82653,-1.84778 0.15436,-2.96496 1.29122,-1.47061 3.2711,-2.10811 6.59862,-2.12467 2.50299,-0.0125 2.93424,0.0593 4.35446,0.72411 0.86699,0.40586 1.96832,1.0369 2.4474,1.40232 0.576,0.43933 0.87106,0.54396 0.87106,0.30887 0,-0.78904 -3.1942,-6.80647 -3.77087,-7.1038 -0.32712,-0.16866 -0.85954,-0.54774 -1.18317,-0.84239 -0.65511,-0.59648 -0.70154,-0.5398 -0.99342,1.21296 -0.2064,1.23938 -1.68598,2.95168 -2.89543,3.35083 -1.11479,0.36792 -1.95973,0.0546 -2.91529,-1.08101 -0.67124,-0.79772 -0.72276,-1.01543 -0.62977,-2.66109 l 0.10127,-1.79229 -0.66968,0.4327 c -1.48665,0.96055 -1.7633,1.09518 -2.61649,1.27338 -1.10789,0.23139 -2.74512,-0.45082 -3.22247,-1.34275 -0.91899,-1.71714 0.17248,-3.91476 2.76129,-5.55975 l 0.76702,-0.48738 -0.88964,-0.23053 c -2.55724,-0.66265 -3.84931,-3.03511 -2.70654,-4.96968 0.90781,-1.5368 3.01039,-1.96496 5.06689,-1.03179 1.05834,0.48024 1.13768,0.48518 0.96948,0.0603 -0.10076,-0.25449 -0.31211,-1.0663 -0.46967,-1.80402 -0.24761,-1.15937 -0.21761,-1.48237 0.22115,-2.38125 0.68601,-1.40538 1.63199,-1.84673 2.85921,-1.33397 1.0292,0.43003 2.17782,1.97279 2.43824,3.27493 0.21938,1.09689 0.45359,1.07786 1.17894,-0.0958 1.1382,-1.84165 3.51095,-3.05398 5.16479,-2.63889 2.47503,0.62119 2.62305,3.64612 0.30192,6.16992 l -0.5475,0.59531 h 1.91855 c 1.76773,0 1.97936,0.0608 2.69196,0.7734 2.05809,2.05809 -0.0532,5.02604 -3.58637,5.04162 l -1.31705,0.006 0.95182,0.78457 c 2.43183,2.00452 2.34011,5.24431 -0.16176,5.71367 l -0.89507,0.16791 1.27165,2.5539 c 1.73457,3.48359 2.55067,5.86673 3.30731,9.65778 0.7459,3.73724 0.90763,5.51815 0.5131,5.64966 -0.16682,0.0556 -0.45865,-1.00396 -0.72328,-2.62599 z m -6.00853,-6.09762 2.50031,-0.92156 -1.95789,-0.33024 c -1.1183,-0.18862 -3.06979,-0.2767 -4.55082,-0.20538 -1.92319,0.0926 -2.59294,0.042 -2.59294,-0.19579 0,-0.92843 6.67574,-0.7457 9.65729,0.26434 0.93087,0.31535 -0.9434,-1.14108 -2.38125,-1.85039 -2.99448,-1.47721 -6.42278,-1.45484 -9.36499,0.0611 -2.3709,1.22158 -2.25854,2.44802 0.33784,3.68763 1.96806,0.93962 4.90677,0.76029 8.35245,-0.50971 z m -4.42163,-7.33002 c 1.00599,-0.79131 1.52687,-2.13469 1.50586,-3.88364 -0.0288,-2.39338 -0.14257,-2.5397 -1.97532,-2.5397 h -1.56691 l -0.74725,1.55442 c -1.33728,2.7818 -0.66392,5.39089 1.39129,5.39089 0.40081,0 1.02736,-0.23489 1.39233,-0.52197 z m 7.73248,-3.52716 c 0.43226,-0.65972 0.22417,-1.9611 -0.44191,-2.76368 -0.3916,-0.47185 -3.01861,-2.44761 -3.25439,-2.44761 -0.0862,0 -0.5703,0.40168 -1.07579,0.89261 -0.82566,0.80187 -0.8909,0.96676 -0.64176,1.62206 0.74797,1.96731 2.37655,3.30352 4.02837,3.30518 0.73814,7.4e-4 1.08652,-0.15229 1.38548,-0.60856 z M 243.017,371.73546 c 0.64695,-0.41811 1.62655,-1.23068 2.17688,-1.80571 l 1.00059,-1.0455 -0.5399,-0.68637 c -0.29694,-0.37751 -0.61089,-1.04132 -0.69765,-1.47515 -0.14841,-0.74204 -0.20682,-0.7747 -0.98586,-0.55127 -3.88064,1.11295 -6.32416,4.14346 -4.67258,5.79504 0.78682,0.78681 2.28789,0.69355 3.71852,-0.23104 z m 7.0282,-3.4503 c 1.31625,-0.59774 1.95328,-1.43851 1.95328,-2.57801 0,-1.89024 -1.09836,-3.00219 -2.96342,-3.00008 -1.65609,0.002 -3.38658,1.62997 -3.38658,3.1862 0,0.86711 0.80721,2.04406 1.70621,2.48774 1.04195,0.51423 1.37303,0.50243 2.69051,-0.0958 z m 8.14491,-1.97925 c 1.73818,-0.72626 2.25671,-2.36584 1.04873,-3.31604 -0.85551,-0.67294 -2.03938,-0.69955 -4.73838,-0.10649 -1.82577,0.40118 -1.9961,0.49257 -1.84931,0.99219 0.0889,0.30267 0.23134,0.93226 0.31649,1.39909 0.10949,0.60031 0.35821,0.92338 0.8496,1.10359 1.04444,0.38304 3.37528,0.34448 4.37287,-0.0723 z m -12.75615,-2.40807 0.71151,-1.17277 -1.01524,-0.80409 c -1.24625,-0.98705 -3.09323,-1.84747 -3.97966,-1.85393 -0.94432,-0.007 -2.33861,0.92179 -2.53023,1.68528 -0.22324,0.88945 0.36671,2.00403 1.44488,2.72982 0.73117,0.49219 1.24986,0.60362 2.77812,0.59682 l 1.8791,-0.008 z m 8.32031,-2.23721 c 3.43353,-2.31362 4.09757,-5.83371 1.10048,-5.83371 -2.30012,0 -4.42376,2.18898 -5.09689,5.25371 -0.15449,0.70341 -0.1056,0.83171 0.31695,0.83171 0.27479,0 0.73073,0.1748 1.01321,0.38846 0.74593,0.56419 0.95255,0.51458 2.66625,-0.64017 z m -5.13327,-0.14517 c 0.3212,-0.43721 0.22794,-2.0672 -0.20092,-3.51131 -0.88726,-2.98773 -2.99197,-3.98434 -3.81924,-1.80847 -0.48085,1.26473 0.19546,3.52711 1.63741,5.47745 0.47556,0.64322 0.59081,0.6777 1.35408,0.40499 0.45885,-0.16394 0.92175,-0.41714 1.02867,-0.56266 z m 0.6614,-127.40828 c -2.27682,-0.5636 -4.46542,-2.30002 -4.8549,-3.85183 -0.13732,-0.54714 -0.27896,-0.64356 -0.73143,-0.49794 -2.91728,0.93886 -4.89306,0.79307 -6.55667,-0.48382 -1.84737,-1.41792 -2.19284,-2.07565 -2.2938,-4.36714 -0.08,-1.81642 -0.01,-2.18425 0.66031,-3.45753 0.82735,-1.5721 2.02338,-2.41159 3.43579,-2.41159 0.79704,0 0.85738,-0.0713 1.12769,-1.33166 0.34616,-1.61408 1.07922,-3.09811 1.91532,-3.87744 0.90792,-0.84626 2.85523,-1.65759 3.9945,-1.66426 0.54571,-0.003 0.99406,-0.0951 0.99634,-0.20425 0.0165,-0.79216 1.13005,-5.28267 1.65716,-6.68295 1.74918,-4.64674 4.01808,-8.27687 6.9062,-11.04958 2.50037,-2.40046 4.58682,-3.54989 8.47027,-4.6663 3.42447,-0.98446 6.3778,-1.30511 10.47889,-1.13772 4.33188,0.17681 6.38872,0.70516 10.45104,2.68459 4.5899,2.2365 8.0751,5.25733 10.69403,9.26913 1.9172,2.93685 2.82742,5.58009 3.60832,10.47838 l 0.4039,2.53356 1.83758,1.87807 1.83757,1.87808 1.98304,-0.14998 c 2.43039,-0.18381 3.94617,0.31406 5.60144,1.83984 2.76257,2.54645 2.79907,7.54434 0.0718,9.83914 -1.93139,1.62516 -4.05917,2.23655 -5.75288,1.65302 -1.0387,-0.35786 -1.06789,-0.35134 -1.22467,0.27331 -0.27238,1.08525 -2.29896,2.87192 -3.83702,3.38278 -2.20518,0.73244 -4.99195,0.47242 -7.12576,-0.66489 -0.92331,-0.49212 -2.09615,-1.3941 -2.60629,-2.0044 l -0.92753,-1.10962 -1.16798,0.89154 c -1.49521,1.14132 -2.94847,1.52593 -5.1713,1.36859 -2.27427,-0.16099 -4.33388,-1.14839 -5.74916,-2.75624 -1.70311,-1.93483 -1.76635,-3.96092 -0.1809,-5.79502 0.86261,-0.99789 0.87453,-1.04424 0.49942,-1.94201 -0.52544,-1.25755 -0.46635,-3.22135 0.13783,-4.58099 1.15447,-2.59798 3.12448,-3.99696 5.66757,-4.02476 1.47172,-0.0161 1.50562,-0.0331 1.35559,-0.67796 -0.0846,-0.3638 -0.62381,-1.63606 -1.19819,-2.82723 -2.56819,-5.32609 -7.10013,-8.11754 -11.77914,-7.2554 -2.35928,0.43471 -3.99476,1.32389 -5.50028,2.99039 -1.39368,1.54269 -2.11354,2.99795 -3.01376,6.09257 l -0.59432,2.04305 0.66731,0.8749 c 0.83648,1.09667 1.73881,3.06237 1.74646,3.8046 0.005,0.49836 0.18821,0.57671 1.5834,0.67763 1.76903,0.12796 2.41226,0.55272 3.21306,2.12176 0.96571,1.89212 0.44408,4.80918 -1.20435,6.735 -2.05692,2.40304 -5.84082,3.40041 -8.47689,2.23434 -0.70213,-0.31058 -1.29292,-0.53349 -1.31287,-0.49534 -1.01605,1.94326 -2.43766,3.27154 -4.24917,3.97023 -1.37751,0.53129 -4.22748,0.76652 -5.49262,0.45335 z m 4.4195,-1.16106 c 2.10454,-0.63337 3.21434,-1.54513 4.03963,-3.31876 0.7685,-1.65156 1.29553,-1.96192 1.96362,-1.15634 1.50608,1.81605 5.88812,1.33827 7.95571,-0.86742 1.89434,-2.02086 2.31672,-5.25961 0.87405,-6.70211 -0.5689,-0.56885 -0.91825,-0.67443 -2.24751,-0.67926 -0.86564,-0.003 -1.6775,-0.12221 -1.80412,-0.26458 -0.12662,-0.14238 -0.37228,-0.91371 -0.5459,-1.71407 -0.65252,-3.00796 -2.9025,-4.92964 -6.11264,-5.22072 -2.43841,-0.22111 -4.71417,0.94091 -5.29613,2.70425 -0.43284,1.31153 -1.08086,1.19813 -2.22082,-0.38861 -1.17178,-1.63103 -2.38928,-2.20767 -4.33785,-2.05454 -2.64606,0.20796 -4.28593,1.96025 -4.85433,5.1871 l -0.28617,1.6246 -1.2285,9.9e-4 c -2.53935,0.002 -3.91995,1.85832 -3.695,4.96813 0.25775,3.56341 3.38752,5.17669 7.24375,3.73389 0.8194,-0.30658 1.57809,-0.4554 1.68599,-0.33073 0.10789,0.12467 0.40073,0.78289 0.65074,1.46269 0.99695,2.71084 4.70517,4.07194 8.21548,3.01549 z m -2.76175,-9.14629 c -0.55202,-0.55202 -0.70324,-1.44869 -0.28764,-1.70554 0.13283,-0.0821 0.46349,0.15544 0.73478,0.52787 0.58422,0.802 1.40494,0.64909 1.40494,-0.26175 0,-0.76965 0.26185,-1.0089 0.70326,-0.64256 0.54339,0.45098 0.42458,1.24278 -0.29435,1.96171 -0.78738,0.78738 -1.55315,0.82811 -2.26099,0.12027 z m -5.73163,-1.47208 c -0.44224,-1.15246 1.11423,-2.33327 2.26428,-1.71778 0.63911,0.34204 1.01468,1.51502 0.61353,1.91618 -0.32859,0.32859 -0.85035,0.0626 -0.85035,-0.43342 0,-0.68418 -0.79807,-0.68956 -1.10885,-0.007 -0.34215,0.75095 -0.68842,0.84235 -0.91861,0.2425 z m 10.75871,-0.36525 c 0,-0.28293 0.26973,-0.82799 0.59939,-1.21125 0.48852,-0.56793 0.73714,-0.66226 1.34408,-0.50992 0.80303,0.20154 1.39922,1.15238 1.14233,1.82183 -0.22137,0.57688 -0.53292,0.51591 -0.84024,-0.16444 -0.38052,-0.84239 -0.88167,-0.88693 -1.17905,-0.10477 -0.30359,0.79851 -1.06651,0.91908 -1.06651,0.16855 z m 43.76576,10.93229 c 1.5321,-0.52204 2.89952,-1.82894 3.33827,-3.19052 0.52604,-1.63244 0.73439,-1.7612 1.63017,-1.00745 1.77014,1.48947 5.43662,0.17982 6.58671,-2.35274 1.50533,-3.31485 -0.38766,-7.38131 -3.76084,-8.07891 -1.15295,-0.23844 -1.72146,-0.21548 -3.00903,0.12148 l -1.5875,0.41546 -0.66145,-0.78717 c -0.36381,-0.43295 -1.10634,-1.32112 -1.65007,-1.97372 -1.26822,-1.52215 -2.85593,-2.28425 -5.14245,-2.46837 -1.60065,-0.12889 -1.91067,-0.0742 -2.72133,0.47971 -0.83126,0.56804 -2.0576,1.99983 -2.82039,3.29289 -0.27367,0.46393 -0.38203,0.40952 -1.4552,-0.73061 -1.30949,-1.39118 -2.25455,-1.93107 -3.8417,-2.19466 -2.34042,-0.38868 -4.46904,0.81877 -5.55513,3.15113 -0.71787,1.54161 -0.79256,2.93702 -0.22936,4.28495 0.52193,1.24916 0.53505,1.19095 -0.51126,2.2683 -2.28131,2.349 -1.05864,5.39231 2.74743,6.8385 2.65178,1.0076 5.38767,0.52334 7.40263,-1.31028 0.49915,-0.45423 1.04851,-0.82587 1.22079,-0.82587 0.17228,0 0.64066,0.47247 1.04084,1.04994 1.97843,2.85487 5.74345,4.12035 8.97887,3.01794 z m -5.78305,-8.36008 c -0.52391,-0.74799 -0.54684,-2.0578 -0.036,-2.0578 0.20672,0 0.4543,0.35719 0.55019,0.79375 0.19473,0.8866 1.16714,1.14997 1.22114,0.33073 0.0705,-1.06993 0.11659,-1.21619 0.41459,-1.31622 0.42981,-0.14427 0.91437,0.83906 0.70435,1.42934 -0.51646,1.45158 -2.09441,1.90502 -2.85425,0.8202 z m -4.59229,-0.52322 c -0.44214,-0.44213 -0.39695,-1.66843 0.0759,-2.06089 1.01966,-0.84625 2.38058,0.62095 1.72032,1.85466 -0.31156,0.58215 -1.30615,0.69635 -1.79626,0.20623 z m 9.1193,-0.91722 c -0.59395,-0.59396 0.36138,-1.73313 1.74457,-2.08029 0.95166,-0.23885 1.14369,0.30664 0.26971,0.76615 l -0.73546,0.38668 0.72761,0.18373 c 1.25549,0.31704 0.8942,0.92012 -0.55122,0.92012 -0.70335,0 -1.35819,-0.0794 -1.45521,-0.17639 z m -8.45472,-10.55435 c -2.00942,-9.25963 -8.70966,-14.693 -17.34447,-14.06501 -4.28676,0.31177 -7.35282,1.93063 -10.23254,5.40272 -1.39944,1.68731 -3.5971,5.70309 -3.9704,7.25508 -0.1501,0.62404 -0.0779,0.71125 0.71322,0.86133 0.48413,0.0918 1.22537,0.34706 1.6472,0.56716 0.42184,0.2201 0.79264,0.36828 0.82401,0.3293 0.0314,-0.039 0.32605,-0.90432 0.65485,-1.92296 1.41695,-4.38977 3.51987,-7.15877 6.58136,-8.66593 1.40499,-0.69168 2.07909,-0.85016 4.00848,-0.94241 3.77688,-0.18057 6.30456,0.92734 9.17955,4.0235 1.67178,1.80039 3.32104,4.82748 3.8289,7.02765 0.26191,1.13465 0.45509,1.43074 1.12662,1.72677 0.44578,0.19651 1.16263,0.64974 1.59299,1.00718 l 0.78247,0.64988 0.51492,-0.65462 c 0.49519,-0.62952 0.49875,-0.72916 0.0928,-2.59964 z m -37.88712,1.53647 c 0.35222,-0.40018 0.64416,-0.98023 0.64876,-1.28899 0.005,-0.30876 0.30649,-1.73751 0.67086,-3.175 0.84048,-3.31578 3.0699,-7.8832 4.95747,-10.15638 1.73758,-2.09256 4.75136,-4.44446 7.1032,-5.54322 5.49147,-2.56557 12.66094,-2.03201 18.62996,1.38647 2.54346,1.45664 6.52153,5.50379 7.98894,8.12764 1.25753,2.24858 2.41928,5.51335 2.64745,7.43993 0.13433,1.13417 0.24202,1.31823 0.8442,1.44292 0.37963,0.0786 1.13672,0.24258 1.68243,0.3644 l 0.99219,0.22148 v -0.9161 c 0,-1.35442 -1.24587,-6.03314 -2.17174,-8.15575 -1.12822,-2.5865 -2.25837,-4.20743 -4.55729,-6.53637 -5.6484,-5.72215 -13.30387,-8.47716 -21.27331,-7.65571 -9.92554,1.02307 -15.01759,4.4108 -19.08249,12.69553 -1.2913,2.63181 -2.00521,4.74698 -2.56666,7.60446 l -0.45496,2.31552 0.64528,0.41849 c 0.3549,0.23017 1.06205,0.80222 1.57145,1.27123 0.5094,0.469 0.96165,0.85596 1.00501,0.85989 0.0434,0.004 0.36702,-0.32026 0.71925,-0.72044 z m 40.93993,-1.52942 c 0.5159,-0.12876 0.72761,-0.34953 0.72761,-0.75878 0,-2.13696 -2.24279,-7.33332 -4.40872,-10.21465 -2.31506,-3.0797 -6.15411,-5.7777 -10.09927,-7.09754 -1.82072,-0.60911 -2.44849,-0.67976 -6.12951,-0.68977 -4.85079,-0.0132 -6.29812,0.37485 -9.40264,2.52101 -4.66976,3.2282 -7.70027,7.69298 -9.24366,13.61843 -0.54466,2.09111 -0.53157,2.60987 0.0593,2.35027 0.25466,-0.11188 0.91837,-0.25703 1.4749,-0.32256 0.62274,-0.0733 1.06893,-0.28579 1.16025,-0.55249 2.37535,-6.9376 6.20868,-11.43656 11.35093,-13.32194 2.38746,-0.87535 7.26594,-0.98205 10.04475,-0.21969 6.54738,1.79625 10.92473,6.95171 12.67146,14.92391 0.15191,0.6933 0.204,0.723 0.61645,0.35135 0.24779,-0.22328 0.77795,-0.48768 1.17813,-0.58755 z m -24.98998,127.55981 c 0.39296,-0.20586 1.08953,-0.77141 1.54793,-1.25677 1.05043,-1.11218 3.27138,-5.55247 4.08074,-8.15851 0.76555,-2.46494 0.98944,-2.8087 1.49807,-2.30008 0.32003,0.32004 0.25278,0.73282 -0.47893,2.93947 -0.46819,1.41193 -1.29629,3.45302 -1.84023,4.53575 l -0.98897,1.96861 0.82918,-0.005 c 1.6304,-0.01 6.14797,-0.77367 7.64889,-1.29381 5.13939,-1.78101 8.20778,-5.09202 8.58618,-9.26511 l 0.13936,-1.53691 -1.28043,-0.19202 c -2.84471,-0.42659 -4.34295,-1.54217 -4.34295,-3.23374 0,-1.17175 0.9041,-2.01951 2.94883,-2.76505 0.852,-0.31066 1.54726,-0.69771 1.54503,-0.86011 -0.009,-0.64486 -0.45879,-0.89326 -1.95044,-1.0768 -3.07471,-0.37833 -5.37609,-1.43168 -5.96846,-2.73181 -0.90986,-1.99691 0.48395,-3.90437 3.21398,-4.39843 l 0.97956,-0.17727 -0.91399,-1.51173 c -0.50269,-0.83146 -1.01398,-1.67167 -1.13619,-1.86715 -0.18384,-0.29406 -0.44414,-0.28007 -1.50783,0.0811 -2.89155,0.9817 -6.25361,1.26128 -13.35007,1.11015 -6.45749,-0.13752 -10.17403,-0.512 -12.77221,-1.28692 -0.93339,-0.27839 -1.05113,-0.24763 -1.81236,0.47356 -1.05047,0.99524 -2.4564,3.02026 -2.09689,3.02026 0.15251,0 0.75354,0.47625 1.33562,1.05834 0.83719,0.83718 1.05834,1.25458 1.05834,1.99751 0,2.18116 -1.46425,3.33094 -4.70126,3.69162 -1.21084,0.13491 -1.72864,0.31577 -1.91822,0.67002 -0.38662,0.72239 -0.33823,0.7846 0.61029,0.7846 1.26701,0 3.18077,1.0457 3.47308,1.89772 0.50632,1.47584 -1.32917,2.91307 -4.17425,3.26854 l -1.54546,0.19309 0.10569,3.07501 c 0.0857,2.49194 0.22279,3.33941 0.7232,4.4694 1.15285,2.60324 4.07684,4.66512 7.40059,5.21858 1.06741,0.17774 1.14773,0.15285 0.96525,-0.29913 -0.97499,-2.41491 -1.57593,-4.21708 -2.01029,-6.02874 -0.66015,-2.75336 -0.66114,-3.32781 -0.006,-3.32781 0.41154,0 0.56626,0.29468 0.79877,1.52136 0.48505,2.55905 2.10739,7.29524 3.01922,8.8142 2.08638,3.47556 4.74043,3.44296 6.25613,-0.0768 0.48504,-1.12637 0.63965,-2.1343 0.80249,-5.23162 0.2608,-4.96085 0.42338,-5.82084 1.10041,-5.82084 0.49214,0 0.51085,0.1184 0.32396,2.05052 -0.3176,3.28351 -0.24386,9.33866 0.12727,10.45023 0.55838,1.67239 2.07148,2.25361 3.67708,1.41245 z m 23.07176,-8.01765 c 3.86903,-1.27709 6.86137,-4.40488 8.6169,-9.00695 2.15031,-5.63697 3.81109,-7.85011 6.48724,-8.64484 0.76784,-0.22803 1.795,-0.41459 2.28258,-0.41459 1.18921,0 2.55587,-0.59997 3.0839,-1.35384 0.66004,-0.94233 0.55761,-2.83559 -0.21492,-3.97248 -0.97966,-1.4417 -2.75091,-2.19457 -5.17445,-2.1994 -2.26148,-0.005 -3.75816,0.54237 -5.37896,1.96545 l -0.98645,0.86611 1.04572,0.8951 c 0.6032,0.51631 1.1202,1.23418 1.22171,1.69638 0.38203,1.73932 -1.52751,3.07254 -4.0307,2.81419 l -1.38563,-0.14301 -0.51937,1.76627 c -0.81999,2.78864 -0.89893,3.22148 -0.58755,3.22148 0.15624,0 0.70492,0.36952 1.21931,0.82116 0.7683,0.67458 0.93525,1.00409 0.93525,1.84598 0,1.33887 -0.89323,1.98006 -2.68012,1.92386 -1.12916,-0.0355 -1.27538,0.0299 -1.55028,0.69357 -0.36235,0.87481 -2.25238,2.84002 -2.94182,3.05884 -0.29674,0.0942 -0.6038,0.59086 -0.78125,1.26369 -0.16079,0.60969 -0.58016,1.62954 -0.93194,2.26633 -0.35177,0.63679 -0.63959,1.2118 -0.63959,1.27779 0,0.16091 1.44502,-0.1574 2.91042,-0.64109 z m -2.14207,-8.60753 c -0.014,-0.47294 -0.1628,-1.41878 -0.33073,-2.10186 l -0.30533,-1.24197 -1.38968,0.47392 c -1.47656,0.50354 -2.44678,1.20783 -2.44678,1.77613 0,0.89946 1.8488,1.88017 3.63802,1.92982 0.80358,0.0223 0.85824,-0.0325 0.8345,-0.83604 z m 7.3959,-0.69862 c 0.49163,-0.31151 0.17011,-1.20437 -0.62015,-1.72216 -0.72624,-0.47586 -0.81083,-0.39917 -1.06724,0.96759 -0.17953,0.957 -0.16039,0.99004 0.5713,0.98612 0.41637,-0.002 0.91862,-0.10642 1.11609,-0.23155 z m -47.89986,-0.8308 c 0.55168,-0.33635 0.84545,-0.70394 0.79052,-0.98918 -0.10625,-0.55169 -1.2504,-1.13144 -2.58661,-1.31067 -0.92602,-0.1242 -0.9982,-0.0827 -1.14673,0.65995 -0.0872,0.43586 -0.23669,1.10403 -0.33226,1.48481 -0.16957,0.67564 -0.14278,0.6923 1.1117,0.69134 0.82317,-6.4e-4 1.60117,-0.19348 2.16338,-0.53625 z m 38.43746,-6.14349 c -0.12469,-0.32743 -0.60661,-1.39899 -1.07093,-2.38125 -0.80267,-1.69806 -0.88926,-1.78594 -1.75961,-1.78594 -1.30233,0 -2.69831,0.65436 -3.052,1.43062 -0.7166,1.57277 1.83143,3.21653 5.12362,3.3053 0.91672,0.0247 0.96979,-0.015 0.75892,-0.56873 z m -36.81645,-0.30341 c 1.18195,-0.42702 1.9523,-1.44618 1.73812,-2.29951 -0.19032,-0.75829 -1.89643,-2.02923 -2.24472,-1.67217 -0.28419,0.29135 -1.94897,3.23163 -2.19583,3.87821 -0.14947,0.3915 -0.0248,0.45991 0.80711,0.44289 0.54113,-0.0111 1.39403,-0.16831 1.89532,-0.34942 z m 50.42562,-2.54959 c 0.55958,-0.61832 0.33428,-1.32409 -0.65652,-2.05661 l -0.77559,-0.57342 -0.50911,0.72406 c -0.28001,0.39824 -0.70272,1.10321 -0.93935,1.5666 l -0.43025,0.84254 0.72542,0.0835 c 1.19035,0.13704 2.12172,-0.0743 2.5854,-0.58667 z m -22.65944,-6.5143 c 2.37973,-0.47799 4.19014,-1.17185 6.11509,-2.34368 1.4903,-0.90724 3.3798,-2.65835 3.13384,-2.90431 -0.0755,-0.0755 -0.84127,-0.26252 -1.7017,-0.41559 -2.27787,-0.40523 -2.49048,-0.49576 -2.49048,-1.06039 0,-0.63702 0.42964,-0.64618 3.07245,-0.0655 l 2.02916,0.44587 0.4919,-0.60748 c 0.27055,-0.33411 0.49191,-0.69716 0.49191,-0.80678 0,-0.26822 -2.07073,-0.53582 -4.14627,-0.53582 -1.30657,0 -1.72814,-0.0963 -1.85371,-0.42358 -0.26273,-0.68465 0.22312,-0.7747 3.39319,-0.62892 1.65201,0.076 3.04344,0.11557 3.09206,0.088 0.0486,-0.0276 0.15359,-0.53622 0.23327,-1.13032 0.10938,-0.81546 0.0553,-1.07738 -0.22068,-1.06873 -0.20106,0.006 -1.73479,0.176 -3.40828,0.37712 -3.01266,0.36206 -3.64893,0.27402 -3.36509,-0.46564 0.16735,-0.43611 1.15314,-0.61589 4.79071,-0.87371 l 2.61623,-0.18542 -0.15454,-2.40846 c -0.1742,-2.71474 -0.67645,-4.8311 -1.70057,-7.16576 -0.83872,-1.91202 -2.89649,-4.99361 -4.09638,-6.13448 -0.91544,-0.87042 -4.39412,-3.26344 -4.74398,-3.26344 -0.11283,0 -0.33845,0.49507 -0.50138,1.10015 -0.39291,1.45912 -1.59977,2.66729 -2.55296,2.55569 -1.03534,-0.12121 -1.67574,-1.38274 -1.80115,-3.54811 -0.10574,-1.82567 -0.33671,-2.2128 -1.32471,-2.22034 -0.46119,-0.004 -0.54091,0.19518 -0.6087,1.5173 -0.18603,3.62778 -1.48587,5.69873 -3.79355,6.04402 -2.2056,0.33001 -3.40143,-1.74198 -3.40143,-5.8936 0,-1.78 -0.0759,-2.20094 -0.39687,-2.20094 -0.29545,0 -0.39984,0.32119 -0.40849,1.25677 -0.0134,1.44612 -0.51999,3.0421 -1.20648,3.80066 -0.33811,0.37361 -0.74249,0.50177 -1.4057,0.44551 -1.09193,-0.0926 -1.97978,-1.19787 -2.44435,-3.04284 -0.15749,-0.62545 -0.36059,-1.13718 -0.45134,-1.13718 -0.0907,0 -1.297,0.55953 -2.68057,1.2434 -2.07698,1.02662 -2.91001,1.63785 -4.77789,3.50573 -1.88473,1.88473 -2.46688,2.68185 -3.48787,4.77587 -1.1503,2.35922 -1.75634,3.9374 -2.15216,5.6044 -0.1388,0.58458 -0.0635,0.73857 0.42735,0.87401 2.18779,0.60366 4.43229,1.56131 4.43229,1.89111 0,0.66112 -0.61962,0.65401 -2.63129,-0.0302 -2.61383,-0.88902 -2.70995,-0.87737 -2.6102,0.31636 l 0.0821,0.98276 2.44739,0.51467 c 2.01383,0.4235 2.4474,0.60094 2.4474,1.00161 0,0.59371 -0.54417,0.61055 -2.91042,0.0901 -0.94588,-0.20806 -1.80909,-0.38247 -1.91823,-0.38758 -0.10914,-0.005 -0.19844,0.39124 -0.19844,0.88078 0,0.85831 0.0438,0.89609 1.22756,1.05834 0.67515,0.0925 1.62765,0.16825 2.11666,0.16825 0.70636,0 0.88912,0.10648 0.88912,0.51804 0,0.46008 -0.21657,0.52668 -1.93587,0.59531 l -1.93586,0.0773 0.21828,0.8392 c 0.35301,1.35723 2.35831,4.09984 3.78574,5.17768 1.5752,1.18943 4.4924,2.36523 7.40833,2.986 4.22291,0.89899 16.43537,1.02831 20.47554,0.2168 z m -10.69638,-8.5751 c -0.0957,-0.1548 -0.0912,-1.21603 0.01,-2.35829 0.17136,-1.93582 0.14618,-2.09699 -0.37083,-2.37369 -2.47563,-1.32491 -0.80024,-3.96722 2.03192,-3.2046 2.08301,0.5609 2.53684,2.15208 0.85299,2.99069 -1.03527,0.51559 -1.25821,1.03539 -1.29655,3.0229 -0.0145,0.75208 -0.0986,1.55575 -0.18697,1.78593 -0.18316,0.4773 -0.78146,0.55612 -1.04045,0.13706 z m 12.57813,-6.67113 c 0,-0.87534 -0.72881,-1.77866 -1.43505,-1.77866 -0.42185,0 -0.83222,0.33384 -1.32417,1.07723 -0.56945,0.86049 -0.78658,1.01607 -1.07916,0.77326 -0.68148,-0.56559 0.40376,-2.45399 1.69368,-2.94713 1.00548,-0.3844 2.28891,0.17626 2.78196,1.2153 0.60442,1.27373 0.55718,2.26259 -0.10809,2.26259 -0.37427,0 -0.52917,-0.17639 -0.52917,-0.60259 z m -20.11416,-2.72238 c -0.40376,-1.22341 -1.36663,-1.71416 -2.08597,-1.06316 -0.27854,0.25208 -0.57895,0.74722 -0.66757,1.10031 -0.176,0.70126 -0.87478,0.86773 -1.10659,0.26363 -0.25178,-0.65612 0.72547,-2.30753 1.57752,-2.6658 1.48753,-0.62545 3.12262,0.53433 3.5143,2.49272 0.13981,0.69907 0.0856,0.81602 -0.37852,0.81602 -0.38644,0 -0.631,-0.27051 -0.85317,-0.94372 z m 31.78631,-6.43084 c 0.70546,-1.89264 0.85468,-2.67669 0.87321,-4.58805 0.0301,-3.10172 -0.13601,-3.26656 -3.22941,-3.20528 -1.58833,0.0315 -2.89478,0.23702 -4.20395,0.66146 l -1.89946,0.6158 1.1666,1.00608 c 1.10672,0.95443 1.2178,0.99185 2.16404,0.72908 1.48539,-0.4125 2.86196,-0.34632 3.28015,0.1577 0.50861,0.61298 0.3936,2.37831 -0.25057,3.84613 l -0.54466,1.24108 0.57184,1.35351 c 0.69441,1.64363 0.82473,1.52934 2.07221,-1.81751 z m -2.75289,-2.64757 0.14625,-1.09037 h -1.22546 c -0.67401,0 -1.22546,0.0956 -1.22546,0.21246 0,0.11685 0.37321,0.71995 0.82936,1.34022 0.94102,1.27958 1.25487,1.18123 1.47531,-0.46231 z m -38.05583,-3.51027 c 0.0511,-2.26293 0.44541,-2.98316 1.68947,-3.08627 0.65906,-0.0546 1.34529,0.11644 2.04525,0.50984 l 1.05341,0.59204 1.33154,-0.62366 c 0.73235,-0.34302 1.23989,-0.70884 1.12787,-0.81294 -0.36118,-0.33565 -5.1962,-2.03539 -6.30153,-2.21529 -1.34631,-0.21912 -2.35725,0.48417 -2.7551,1.91665 -0.31291,1.12666 -0.37411,6.74555 -0.0767,7.04471 0.10914,0.10979 0.56987,-0.22943 1.02384,-0.75384 0.71618,-0.82728 0.83025,-1.16755 0.86198,-2.57124 z m 19.12469,2.92644 c 0.77599,-0.4153 1.5388,-2.34124 1.72745,-4.36147 0.12623,-1.35183 0.0788,-1.80588 -0.20775,-1.98727 -0.20425,-0.12932 -1.30726,-0.23694 -2.45115,-0.23917 l -2.07979,-0.004 0.0988,2.88637 c 0.0811,2.36953 0.18844,2.98544 0.59944,3.43959 0.54856,0.60615 1.47775,0.71301 2.313,0.266 z m 7.75613,-2.34549 c 0.22202,-0.42933 0.40367,-1.13097 0.40367,-1.5592 0,-0.65274 -0.16038,-0.84276 -0.99219,-1.1756 l -0.99219,-0.39701 -0.0791,1.42015 c -0.12935,2.3211 0.83203,3.31249 1.65985,1.71166 z m -23.41649,-1.81072 c 0.3086,-0.2062 -0.73134,-0.58242 -1.43821,-0.5203 -0.66318,0.0583 -0.81323,0.21103 -0.97096,0.98843 -0.1026,0.50573 -0.12956,1.01172 -0.0599,1.12443 0.0696,0.1127 0.62565,-0.18078 1.23554,-0.65219 0.60989,-0.4714 1.16498,-0.89457 1.23353,-0.94037 z m 8.96102,1.12368 c 0.16888,-0.37065 0.30706,-1.27165 0.30706,-2.00221 0,-1.14047 -0.0655,-1.30906 -0.46302,-1.19228 -0.25467,0.0748 -0.90951,0.21514 -1.45521,0.31186 -1.1179,0.19812 -1.09168,0.13921 -0.69983,1.57216 0.52904,1.93469 1.71911,2.60952 2.311,1.31047 z" />
      <path
         id="path492-5"
         style="fill:none;stroke:#00ff00;stroke-width:0.496486;stroke-linejoin:bevel"
         d="m 249.53864,168.95017 a 6.6198147,6.6198147 0 0 1 -6.61981,6.61981 6.6198147,6.6198147 0 0 1 -6.61982,-6.61981 6.6198147,6.6198147 0 0 1 6.61982,-6.61983 6.6198147,6.6198147 0 0 1 6.61981,6.61983 z" />
      <path
         style="fill:none;stroke:#ff0000;stroke-width:1.07647;stroke-dasharray:none;stroke-opacity:1"
         d="M 226.86307,289.4165 V 155.00816 h 45.77291 45.77292 V 289.4165 423.82484 h -45.77292 -45.77291 z"
         id="path21" />
    </g>
  </g>
</svg>
