<?xml version="1.0" encoding="UTF-8" standalone="no"?>
<!-- Created with Inkscape (http://www.inkscape.org/) -->

<svg
   width="30.818535mm"
   height="140.12206mm"
   viewBox="0 0 30.818535 140.12206"
   version="1.1"
   id="svg1"
   xmlns="http://www.w3.org/2000/svg"
   xmlns:svg="http://www.w3.org/2000/svg">
  <defs
     id="defs1" />
  <g
     id="layer1"
     transform="translate(-14.175235,-6.976713)">
    <g
       id="g492"
       transform="matrix(0.92653327,0,0,0.92653327,-129.83664,-49.186415)">
      <path
         id="path478"
         style="fill:none;stroke:#0000ff;stroke-width:0.3;stroke-dasharray:none;stroke-opacity:1"
         d="m 172.99912,210.0667 c -0.7276,-0.12326 -1.84469,-0.4142 -2.48242,-0.64653 -0.63772,-0.23233 -1.76882,-0.77678 -2.51354,-1.20989 -0.74472,-0.4331 -1.90061,-1.29603 -2.56865,-1.91761 -0.66804,-0.62157 -1.58813,-1.66592 -2.04465,-2.32076 -0.45652,-0.65485 -1.117,-1.905 -1.46773,-2.77813 -0.35072,-0.87312 -0.72002,-2.20016 -0.82065,-2.94897 l -0.18296,-1.36148 0.4767,-0.55675 c 0.2622,-0.30622 0.59908,-0.55314 0.74864,-0.54873 0.14956,0.004 1.02158,1.53668 1.93781,3.40503 1.08511,2.21269 2.06998,3.81871 2.82496,4.60666 0.63749,0.66532 1.61425,1.49138 2.17058,1.83569 0.55632,0.34431 1.60681,0.85731 2.33441,1.13999 l 1.32292,0.51398 3.04271,-0.0123 3.04271,-0.0123 2.04589,-0.96049 c 1.22399,-0.57464 2.61696,-1.50058 3.46738,-2.30488 l 1.42147,-1.34437 0.69982,0.55047 c 0.3849,0.30277 0.69981,0.78709 0.69981,1.07628 0,0.28919 -0.59402,1.15389 -1.32005,1.92156 -0.72603,0.76767 -1.91157,1.71771 -2.63453,2.1112 -0.72297,0.39348 -2.00265,0.95219 -2.84375,1.24157 -0.86828,0.29873 -2.50277,0.57343 -3.78161,0.63555 -1.23879,0.0602 -2.84766,0.009 -3.57527,-0.11471 z m 6.66409,-11.07021 c -0.39103,-0.40814 -0.71096,-0.86325 -0.71096,-1.01135 0,-0.14809 0.34353,-0.91549 0.76341,-1.70531 0.41987,-0.78983 0.84302,-1.88801 0.94031,-2.44041 l 0.17691,-1.00437 0.64718,-0.29487 0.64719,-0.29488 0.66146,0.30138 0.66146,0.30138 v 1.01598 c 0,0.5588 -0.18532,1.64 -0.41181,2.40269 -0.23568,0.79361 -0.81466,1.83262 -1.35371,2.42927 -0.51804,0.57342 -1.02483,1.04257 -1.12619,1.04257 -0.10136,0 -0.50422,-0.33393 -0.89525,-0.74208 z m -9.00458,-1.95026 -0.75298,-0.2791 0.11202,-0.82938 c 0.0616,-0.45616 0.32393,-1.90095 0.58291,-3.21064 0.25899,-1.30968 0.52094,-2.65319 0.58212,-2.98556 0.0612,-0.33237 0.40072,-0.73621 0.75455,-0.89742 l 0.64332,-0.29312 0.70431,0.46148 0.7043,0.46148 -0.18669,2.42032 c -0.11216,1.45392 -0.41565,3.00137 -0.76009,3.87553 l -0.57338,1.45521 -0.5287,0.0502 c -0.29078,0.0276 -0.86754,-0.0754 -1.28169,-0.22895 z m -3.87721,-20.22067 c -0.36381,-0.0618 -1.13771,-0.24221 -1.7198,-0.40083 -0.58208,-0.15861 -1.59411,-0.52871 -2.24895,-0.82243 -0.65485,-0.29372 -1.7647,-0.95274 -2.46634,-1.46449 -0.70164,-0.51174 -1.74344,-1.54994 -2.3151,-2.30711 -0.57167,-0.75717 -1.0394,-1.54065 -1.0394,-1.74108 0,-0.20042 0.31618,-0.63609 0.70261,-0.96814 0.38644,-0.33206 0.77746,-0.60374 0.86894,-0.60374 0.0915,0 0.8171,0.66464 1.61249,1.47697 0.79539,0.81234 2.16055,1.84161 3.03367,2.28727 0.87313,0.44566 2.24234,0.96741 3.04271,1.15943 0.80036,0.19203 1.99099,0.34915 2.64583,0.34915 0.65485,0 1.88787,-0.16655 2.74006,-0.37012 0.85219,-0.20356 2.20143,-0.69999 2.9983,-1.10317 0.80669,-0.40814 2.05491,-1.38917 2.81619,-2.21334 0.75203,-0.81416 1.68259,-2.12919 2.06791,-2.9223 0.38532,-0.79311 1.09614,-2.33498 1.5796,-3.42639 0.48346,-1.09141 1.0314,-2.07959 1.21765,-2.19596 0.18624,-0.11637 0.33863,-0.41072 0.33863,-0.65411 v -0.44252 l 0.59531,0.59582 0.59531,0.59583 -0.0261,1.3812 c -0.0144,0.75966 -0.29273,2.1551 -0.61858,3.10099 -0.32584,0.94588 -1.02466,2.43417 -1.55293,3.30729 -0.52827,0.87313 -1.43781,2.1064 -2.0212,2.74061 -0.58338,0.63421 -1.54027,1.48307 -2.12641,1.88634 -0.58615,0.40328 -1.48184,0.96657 -1.99044,1.25177 -0.50859,0.28519 -1.52003,0.70921 -2.24763,0.94225 -0.72761,0.23304 -2.33495,0.47986 -3.57188,0.54848 -1.23693,0.0686 -2.54661,0.0742 -2.91041,0.0123 z m -3.90971,-12.6106 c -0.3093,-0.32923 -0.79496,-1.1329 -1.07924,-1.78593 -0.28428,-0.65303 -0.65699,-1.87803 -0.82824,-2.72221 l -0.31136,-1.53488 0.42454,-0.64794 0.42454,-0.64793 0.7215,0.004 c 0.39683,0.002 0.85518,0.0915 1.01856,0.19844 0.16338,0.10691 0.43056,0.82203 0.59374,1.58914 0.16318,0.76712 0.59505,1.98355 0.95972,2.70319 0.36467,0.71963 0.66303,1.52975 0.66303,1.80027 0,0.27051 -0.27557,0.75072 -0.61237,1.06713 -0.3368,0.3164 -0.79229,0.57528 -1.01221,0.57528 -0.21992,0 -0.65291,-0.26937 -0.96221,-0.59861 z m 9.26878,-2.11337 c -0.14409,-0.1819 -0.46215,-0.94455 -0.70681,-1.69478 -0.28398,-0.87078 -0.46408,-2.39608 -0.49803,-4.21791 l -0.0532,-2.85386 0.72532,-0.4123 0.72532,-0.41229 0.4653,0.2905 c 0.25592,0.15978 0.54624,0.69556 0.64515,1.19063 0.0989,0.49506 0.42725,2.20981 0.72964,3.81053 0.30239,1.60073 0.54888,3.11572 0.54776,3.36665 -0.001,0.25092 -0.35331,0.63787 -0.78265,0.85989 -0.42933,0.22202 -0.95053,0.40367 -1.15822,0.40367 -0.20769,0 -0.49551,-0.14883 -0.63959,-0.33073 z m -0.30616,-18.48586 -1.95855,-0.22711 -2.23417,-1.0814 -2.23417,-1.0814 -1.90149,-1.89831 -1.90149,-1.89831 -0.81471,-1.71979 c -0.44809,-0.94589 -0.95828,-2.32925 -1.13375,-3.07413 l -0.31904,-1.35434 0.40144,-0.96077 c 0.22079,-0.52842 0.5861,-0.96076 0.81181,-0.96076 0.23398,0 0.41037,0.22744 0.41037,0.52916 0,0.29104 0.0895,0.52917 0.19889,0.52917 0.10939,0 0.4551,0.50602 0.76823,1.12448 0.31314,0.61846 0.90107,1.8267 1.30652,2.68497 0.40544,0.85827 1.36519,2.23882 2.13276,3.06789 0.89452,0.96619 1.99883,1.80438 3.07575,2.33455 0.92409,0.45492 2.52684,0.97233 3.56166,1.14978 l 1.88151,0.32264 2.04279,-0.31758 c 1.21478,-0.18886 2.7315,-0.65664 3.74191,-1.15406 0.93451,-0.46006 2.31152,-1.41143 3.06002,-2.11416 0.74849,-0.70272 1.42617,-1.27768 1.50595,-1.27768 0.0798,0 0.47382,0.30486 0.87566,0.67747 0.40481,0.37536 0.65167,0.81782 0.55358,0.99219 -0.0974,0.17309 -0.46708,0.70676 -0.82156,1.18592 -0.35448,0.47917 -1.22509,1.33013 -1.93469,1.89103 -0.70959,0.5609 -2.09863,1.3232 -3.08676,1.69399 -0.98813,0.37079 -2.50307,0.79975 -3.36654,0.95324 -0.86347,0.15349 -1.81597,0.26363 -2.11667,0.24475 -0.30069,-0.0189 -1.42806,-0.13652 -2.50526,-0.26143 z m 6.25802,-11.16692 c -0.40018,-0.32766 -0.7276,-0.7419 -0.7276,-0.92054 0,-0.17864 0.34425,-0.94807 0.76499,-1.70985 0.42075,-0.76178 0.8484,-1.86103 0.95033,-2.44278 0.10193,-0.58175 0.32323,-1.14548 0.49178,-1.25272 0.16854,-0.10725 0.61005,-0.19682 0.98113,-0.19905 0.37108,-0.002 0.81756,0.13883 0.99219,0.31345 0.17462,0.17463 0.3175,0.80826 0.3175,1.40808 0,0.59982 -0.18192,1.62447 -0.40426,2.277 -0.22234,0.65254 -0.76679,1.62625 -1.20989,2.1638 -0.4431,0.53756 -0.94579,0.97309 -1.1171,0.96786 -0.1713,-0.005 -0.63888,-0.2776 -1.03907,-0.60525 z m -8.86354,-1.89636 c -0.51664,-0.22456 -0.85827,-0.56368 -0.85583,-0.84954 0.002,-0.26169 0.24036,-1.41361 0.52916,-2.55982 0.28881,-1.14621 0.52511,-2.42053 0.52511,-2.83182 0,-0.41129 0.13817,-1.05106 0.30705,-1.42171 l 0.30705,-0.6739 h 0.87427 0.87426 l 0.30934,0.57801 0.30934,0.57801 -0.16365,2.00167 c -0.09,1.10093 -0.33645,2.5608 -0.54766,3.24417 -0.2112,0.68336 -0.51489,1.48703 -0.67486,1.78593 -0.15996,0.2989 -0.43548,0.5388 -0.61226,0.5331 -0.17678,-0.006 -0.70838,-0.17854 -1.18132,-0.3841 z m -3.63802,-19.29216 c -0.87312,-0.20097 -2.28198,-0.67355 -3.13079,-1.05016 -0.84881,-0.37662 -2.01032,-1.05465 -2.58113,-1.50674 -0.5708,-0.45209 -1.45593,-1.33222 -1.96694,-1.95584 -0.51102,-0.62363 -0.86382,-1.30402 -0.78402,-1.51199 0.0798,-0.20797 0.49789,-0.58652 0.92907,-0.84122 l 0.78397,-0.4631 1.27252,1.27251 c 0.69988,0.69989 1.90057,1.59837 2.6682,1.99663 0.76763,0.39826 2.08808,0.90353 2.93435,1.12282 0.84626,0.21929 2.23842,0.3987 3.09369,0.3987 0.85527,0 2.34099,-0.21793 3.3016,-0.4843 0.96061,-0.26637 2.28164,-0.79789 2.93562,-1.18114 0.65397,-0.38326 1.77964,-1.34304 2.50149,-2.13285 0.82881,-0.90685 1.83802,-2.51168 2.73874,-4.35507 0.78448,-1.60548 1.51941,-2.861515 1.6332,-2.79119 0.11379,0.07032 0.20689,-0.05776 0.20689,-0.284627 0,-0.22687 0.0702,-0.41249 0.15603,-0.41249 0.0858,0 0.37951,0.267891 0.65265,0.595312 0.27315,0.327422 0.50059,0.918574 0.50543,1.313671 0.005,0.395096 -0.18257,1.282044 -0.41647,1.970984 -0.2339,0.68894 -0.73611,1.9135 -1.116,2.72123 -0.44035,0.93625 -1.41311,2.18808 -2.68358,3.45345 -1.26081,1.25574 -2.56046,2.25923 -3.53805,2.73181 -0.84987,0.41083 -2.10002,0.91711 -2.77813,1.12508 -0.67811,0.20796 -2.24495,0.43567 -3.48188,0.50602 -1.42166,0.0808 -2.83294,-0.007 -3.83646,-0.2375 z M 162.6638,99.924504 c -0.39879,-0.472943 -0.88753,-1.247576 -1.08608,-1.721407 -0.19855,-0.473831 -0.43508,-1.570219 -0.52562,-2.436417 l -0.16461,-1.574907 0.6785,-0.309142 c 0.37317,-0.170027 0.96539,-0.237134 1.31604,-0.149125 l 0.63756,0.160017 0.3136,1.394917 c 0.17248,0.767205 0.60873,1.913087 0.96945,2.546404 0.36072,0.633317 0.65586,1.309285 0.65586,1.502151 0,0.192865 -0.31371,0.597431 -0.69714,0.899035 -0.38343,0.3016 -0.84909,0.54837 -1.03481,0.54837 -0.18573,0 -0.66396,-0.38695 -1.06275,-0.859896 z m 8.87491,-2.459541 c -0.29351,-0.684735 -0.67547,-2.367798 -0.8488,-3.74014 l -0.31515,-2.495168 0.27153,-0.430466 c 0.14934,-0.236757 0.45351,-0.545253 0.67592,-0.685547 0.22241,-0.140295 0.69916,-0.181097 1.05945,-0.09067 l 0.65506,0.16441 0.6133,2.983406 c 0.33731,1.640873 0.6666,3.347212 0.73175,3.791864 0.0711,0.485152 -0.023,0.922619 -0.23522,1.093927 -0.19452,0.157008 -0.74079,0.368244 -1.21393,0.469413 l -0.86025,0.183945 z" />
      <path
         style="display:inline;fill:none;stroke:#ff0000;stroke-width:0.431717;stroke-dasharray:none;stroke-opacity:1"
         d="m 159.00922,211.25612 c -0.56393,-0.20101 -1.41045,-0.73875 -1.88115,-1.19497 -0.4707,-0.45623 -0.99656,-1.2688 -1.16856,-1.80573 l -0.31274,-0.97622 0.0772,-66.80729 0.0772,-66.807302 0.48647,-1.322916 c 0.26756,-0.727605 0.78006,-1.93269 1.13889,-2.677967 0.35883,-0.745278 1.28987,-2.127872 2.06899,-3.072431 0.82585,-1.001216 2.21603,-2.24886 3.33369,-2.991879 1.0683,-0.710203 2.90044,-1.60493 4.138,-2.020798 l 2.22088,-0.7463 2.69925,0.0031 c 1.48458,0.0017 3.31295,0.166545 4.06304,0.366263 0.75009,0.199717 2.24217,0.785601 3.31574,1.301965 1.15924,0.557575 2.66519,1.592413 3.70827,2.548206 0.96598,0.885149 2.21733,2.35168 2.78077,3.258956 0.56344,0.907277 1.22491,2.125845 1.46994,2.707928 0.24503,0.582083 0.62699,1.869393 0.84881,2.860689 l 0.4033,1.802356 -0.006,65.79869 -0.006,65.79869 -0.49325,1.08612 c -0.27128,0.59736 -0.77469,1.35583 -1.11867,1.68547 -0.34398,0.32965 -1.10167,0.82054 -1.68375,1.09088 l -1.05834,0.49153 -12.03854,-0.006 -12.03854,-0.006 z"
         id="path476" />
      <path
         id="path492"
         style="fill:none;stroke:#00ff00;stroke-width:0.3;stroke-linejoin:bevel"
         d="m 176.06198,71.667778 a 4,4 0 0 1 -4,4 4,4 0 0 1 -4,-4 4,4 0 0 1 4,-4 4,4 0 0 1 4,4 z" />
    </g>
  </g>
</svg>
