<?xml version="1.0" encoding="UTF-8" standalone="no"?>
<!-- Created with Inkscape (http://www.inkscape.org/) -->

<svg
   width="31.576794mm"
   height="119.99998mm"
   viewBox="0 0 31.576794 119.99998"
   version="1.1"
   id="svg1"
   xml:space="preserve"
   xmlns="http://www.w3.org/2000/svg"
   xmlns:svg="http://www.w3.org/2000/svg"><defs
     id="defs1" /><g
     id="layer1"
     transform="translate(-62.955663,-68.690641)"><g
       id="g56"><path
         style="fill:none;stroke:#ff0000;stroke-width:0.182989;stroke-dasharray:none;stroke-opacity:1"
         d="m 82.519083,96.249504 c 0.2546,-0.16178 0.3289,-3.19507 0.1182,-4.82569 -0.0998,-0.77288 -0.24635,-1.44527 -0.32554,-1.4942 -0.0792,-0.049 -1.32123,-0.12319 -2.7601,-0.16501 -1.43887,-0.0419 -2.74062,-0.11208 -2.89277,-0.15617 -0.21547,-0.0624 -0.35201,0.0108 -0.61746,0.32937 -0.18746,0.22525 -0.68007,0.77341 -1.0947,1.21815 -1.157411,1.24147 -1.251228,1.73829 -0.67111,3.5541 0.58834,1.84159 0.0478,1.63879 4.36227,1.63661 2.05222,-0.001 3.79876,-0.0448 3.88121,-0.0972 z"
         id="path56" /><path
         style="fill:none;stroke:#ff0000;stroke-width:0.182989;stroke-dasharray:none;stroke-opacity:1"
         d="m 73.681445,96.132504 c 0.05448,-0.0545 -0.1002,-0.70885 -0.343549,-1.45425 -0.55277,-1.69277 -0.616514,-3.02393 -0.187273,-3.91063 0.549446,-1.13501 0.201949,-1.13445 -0.869559,0.001 -0.893691,0.94737 -1.625022,2.26324 -1.895719,3.41096 -0.221929,0.94096 -0.235069,2.00288 -0.0258,2.08535 0.243565,0.096 3.211776,-0.0227 3.3219,-0.13283 z"
         id="path55" /><path
         id="path2"
         style="fill:none;stroke:#0000ff;stroke-width:0.4;stroke-dasharray:none;stroke-opacity:1"
         d="m 75.226713,164.54714 c 0.30096,-0.1893 0.525,-0.41945 0.50616,-0.51999 -0.0186,-0.0992 -0.36689,-0.36998 -0.774,-0.60174 -1.757382,-1.00041 -2.949574,-1.62598 -3.098747,-1.62598 -0.144936,0 -2.28638,2.11152 -2.368545,2.33547 -0.04572,0.12451 0.8476,0.52164 1.426038,0.63396 0.253405,0.0492 1.205116,0.0959 2.114924,0.10368 1.60303,0.0138 1.67091,0.004 2.19417,-0.32539 z m 9.02573,0.0482 c 0.22074,-0.11496 0.40134,-0.27816 0.40134,-0.36274 0,-0.27441 -2.14466,-2.30975 -2.43381,-2.30975 -0.26984,0 -1.02723,0.37809 -2.50589,1.25094 -1.43378,0.84634 -1.47397,0.91975 -0.77182,1.40959 l 0.4631,0.32308 2.22286,-0.051 c 1.77505,-0.0408 2.30372,-0.0932 2.62422,-0.26005 z m 2.46507,-1.65367 c 0.39816,-0.39054 0.82088,-0.91664 0.93935,-1.16908 0.21412,-0.45619 0.21322,-0.46333 -0.14712,-1.17317 -0.3774,-0.74345 -1.16707,-2.10552 -1.34481,-2.31959 -0.0564,-0.0679 -0.36391,-0.52813 -0.68336,-1.02269 -0.31947,-0.49457 -0.66425,-0.93121 -0.76621,-0.97033 -0.1992,-0.0764 -1.83605,0.26487 -2.19015,0.45669 -0.11796,0.0638 -0.32633,0.11616 -0.46309,0.11616 -0.35382,0 -0.32452,0.24765 0.26336,2.22536 l 0.51203,1.72253 1.37124,1.42144 c 0.75417,0.78179 1.46429,1.42174 1.57803,1.4221 0.11376,3.7e-4 0.53256,-0.31888 0.93073,-0.70942 z m -16.891166,-0.65806 c 0.682166,-0.68455 1.343009,-1.3931 1.468541,-1.57452 0.334021,-0.48278 1.077088,-3.15458 1.02388,-3.68152 -0.01452,-0.14337 -1.508922,-0.57874 -2.443089,-0.71176 l -0.51473,-0.0733 -0.504086,0.75486 c -0.277237,0.41518 -0.504074,0.79731 -0.504074,0.84917 0,0.0518 -0.08652,0.16614 -0.192385,0.25396 -0.10584,0.0878 -0.272137,0.33079 -0.369637,0.53997 -0.09744,0.20916 -0.399337,0.71372 -0.670766,1.12126 -0.770583,1.15698 -0.786915,1.22566 -0.444602,1.8687 0.387241,0.72742 1.433753,1.89362 1.70139,1.89597 0.115081,0.001 0.767391,-0.55825 1.449558,-1.2428 z m 6.698736,0.0613 c 0.1008,-0.57772 0.0359,-3.85317 -0.0823,-4.1491 -0.124,-0.31061 -1.748,-0.82823 -2.628549,-0.83781 -0.469418,-0.005 -0.45437,-0.034 -1.035616,1.9833 -0.445142,1.54484 -0.522038,1.32519 0.760815,2.17312 0.80019,0.52891 2.60161,1.40541 2.77813,1.35174 0.0677,-0.0205 0.16104,-0.25515 0.20748,-0.52125 z m 2.6655,-0.002 c 0.59357,-0.31253 1.39876,-0.765 1.7893,-1.00548 0.81837,-0.50393 0.85582,-0.64827 0.47561,-1.83279 -0.12895,-0.40176 -0.32418,-1.04719 -0.43384,-1.43427 -0.10968,-0.3871 -0.24032,-0.72837 -0.29037,-0.75839 -0.1032,-0.0619 -1.41705,0.20321 -2.25212,0.4544 -0.81343,0.24468 -0.91018,0.51984 -0.91896,2.61318 -0.007,1.67632 0.14207,2.5316 0.44131,2.5316 0.0604,0 0.59549,-0.25571 1.18907,-0.56825 z m 9.29147,-5.54061 c 0,-2.61551 -0.0198,-2.88569 -0.22456,-3.07104 -0.20949,-0.18958 -0.24885,-0.18465 -0.58659,0.0734 -0.19911,0.15218 -0.55502,0.45731 -0.7909,0.67805 -0.23588,0.22074 -0.46573,0.40135 -0.51077,0.40135 -0.045,0 -0.17606,0.19842 -0.29114,0.44093 -0.19569,0.41238 -0.19591,0.47434 -0.004,0.95707 0.11316,0.28388 0.45902,0.93291 0.76869,1.44233 0.56305,0.92625 0.84727,1.41604 1.13332,1.95298 0.12242,0.22979 0.1869,0.25709 0.32889,0.13924 0.1439,-0.1194 0.17663,-0.67804 0.17663,-3.0144 z m -21.75857,2.06448 c 0.672171,-0.99588 1.757023,-3.21046 1.676058,-3.42146 -0.0372,-0.0967 -0.18786,-0.25549 -0.334981,-0.3528 -0.14712,-0.0973 -0.624506,-0.4964 -1.060852,-0.8869 -1.107076,-0.99072 -1.121236,-0.96192 -1.119088,2.27666 0.0012,2.5053 0.05028,3.09459 0.255097,3.09459 0.05748,0 0.320161,-0.31954 0.583766,-0.71009 z m 11.53438,-1.94196 c 1.0061,-0.19252 2.01535,-0.59909 2.11194,-0.85078 0.14534,-0.37879 -0.74504,-3.1516 -1.17194,-3.64959 -0.58163,-0.67849 -1.98416,-1.98603 -2.13031,-1.98603 -0.27094,0 -2.04372,1.8555 -2.34138,2.45064 -0.43835,0.87645 -0.81622,2.16819 -0.81622,2.79023 0,0.52102 0.031,0.57392 0.46309,0.79314 0.5463,0.27707 1.50537,0.49211 2.7477,0.61606 0.10188,0.01 0.61358,-0.0635 1.13712,-0.16367 z m -5.306201,-1.51583 c 0.904324,-2.08682 0.9385,-3.41331 0.141577,-5.49541 -0.12348,-0.32262 -0.282013,-0.58659 -0.352285,-0.58659 -0.327746,0 -1.808383,0.382 -2.479282,0.63963 -0.895323,0.34384 -0.963099,0.39527 -2.209136,1.67639 -1.144468,1.1767 -1.144432,1.13695 -0.0024,2.36246 1.028104,1.10272 2.625406,1.82994 4.075743,1.85558 0.607407,0.0108 0.630087,-0.002 0.825243,-0.45206 z m 10.116321,0.27374 c 1.10777,-0.23303 1.97266,-0.63438 2.68268,-1.24488 0.5997,-0.51566 1.24948,-1.35247 1.24948,-1.60914 0,-0.17633 -1.90865,-2.2952 -2.33903,-2.59664 -0.14014,-0.0982 -0.79651,-0.32096 -1.4586,-0.49512 -1.85682,-0.48841 -1.7901,-0.48785 -2.03244,-0.0173 -0.35104,0.68166 -0.62161,1.96281 -0.61523,2.91302 0.006,0.95614 0.11316,1.39885 0.60988,2.52932 0.36047,0.82043 0.41178,0.83447 1.90326,0.52073 z m -14.639258,-5.63877 c 0.557235,-0.60506 0.9148,-1.44148 1.165709,-2.72689 0.207985,-1.06545 0.172296,-1.10225 -1.393865,-1.43755 -1.46625,-0.31389 -2.138864,-0.33248 -2.242677,-0.0619 -0.144624,0.37689 -0.08388,5.92094 0.06648,6.07134 0.106321,0.10632 0.359641,-0.037 1.018816,-0.57585 0.482546,-0.39451 1.106044,-0.96559 1.385525,-1.26908 z m 20.024628,-1.30825 0.033,-2.96942 -0.37953,-0.0834 c -0.77731,-0.17072 -3.03549,0.27598 -3.61546,0.71518 -0.2005,0.15183 -0.15131,0.43087 0.37475,2.12618 0.22945,0.73945 0.86458,1.53418 2.30402,2.88294 0.66473,0.62286 0.71982,0.64986 0.97728,0.47899 0.26726,-0.17736 0.27353,-0.24197 0.3059,-3.1505 z m -13.40788,2.16581 c 0.16894,-0.15282 0.51049,-0.45982 0.759,-0.68221 0.2485,-0.22239 0.45101,-0.47246 0.44999,-0.55572 -0.001,-0.0833 -0.18394,-0.3666 -0.40652,-0.62966 -0.37948,-0.44849 -0.43514,-0.47303 -0.89349,-0.39398 -0.26883,0.0463 -0.59726,0.1648 -0.72983,0.26315 -0.2231,0.16553 -0.23067,0.23927 -0.10188,0.99155 0.0766,0.44701 0.23532,0.91893 0.35279,1.04872 0.25973,0.287 0.20164,0.29127 0.56988,-0.0419 z m 4.83218,-0.24699 c 0.26616,-0.64009 0.34696,-1.3833 0.17414,-1.60164 -0.0839,-0.10596 -0.36673,-0.26057 -0.62861,-0.34362 -0.58987,-0.18706 -0.94554,-0.0305 -1.26083,0.55494 -0.21055,0.39097 -0.20907,0.41205 0.0548,0.78265 0.34861,0.48957 1.00405,1.00589 1.27915,1.00766 0.1261,6.1e-4 0.28322,-0.16401 0.38135,-0.39999 z m -8.466316,-1.93966 c 0.493585,-0.15081 0.979887,-0.35665 1.080664,-0.45743 0.332917,-0.33291 -0.08016,-1.349 -0.590367,-1.45234 -0.151968,-0.0308 -0.422761,-0.0866 -0.601778,-0.12426 -0.419833,-0.0881 -0.51767,0.0428 -0.848271,1.13508 -0.249085,0.82292 -0.262693,1.35842 -0.0312,1.22644 0.05148,-0.0293 0.49733,-0.17667 0.990916,-0.32749 z m 12.397486,-0.47627 c -0.0233,-0.29297 -0.12014,-0.68196 -0.21534,-0.86445 -0.0952,-0.18247 -0.17344,-0.39475 -0.17386,-0.47174 -9.7e-4,-0.18057 -0.44329,-0.26308 -1.03809,-0.19365 -0.39371,0.046 -0.49764,0.12171 -0.64238,0.46812 -0.21984,0.52616 -0.22019,0.96899 -9.1e-4,1.15099 0.27639,0.22939 1.21229,0.48832 1.68061,0.46496 0.43095,-0.0215 0.4321,-0.0232 0.38997,-0.55423 z m -6.30949,0.19307 c 0.62688,-0.65804 0.64685,-0.74432 0.37556,-1.62262 -0.28639,-0.92726 -0.53571,-1.44828 -0.79666,-1.66484 -0.15379,-0.12763 -0.22009,-0.049 -0.42396,0.50296 -0.13292,0.35984 -0.31637,0.95084 -0.40766,1.31333 -0.15222,0.60439 -0.14591,0.69622 0.0762,1.10683 0.13932,0.25757 0.37334,0.48385 0.55093,0.53267 0.16981,0.0467 0.32046,0.0905 0.3348,0.0972 0.0143,0.007 0.14518,-0.11268 0.29076,-0.26554 z m -2.8697,-0.71271 c 0.63608,-0.27364 0.65475,-0.30954 1.076,-2.069 0.11832,-0.49415 0.18204,-0.9315 0.14165,-0.97189 -0.18697,-0.18698 -0.7251,0.14421 -1.55279,0.95564 l -0.901877,0.88419 0.0834,0.55589 c 0.153073,1.02076 0.208513,1.05176 1.153657,0.64517 z m 5.92762,0.0335 c 0.061,-0.11892 0.14559,-0.44362 0.18797,-0.72166 0.076,-0.49852 0.0647,-0.51758 -0.81665,-1.3699 -0.88442,-0.85537 -1.40866,-1.23203 -1.53667,-1.10403 -0.1134,0.1134 0.0985,1.33719 0.37683,2.17678 0.2603,0.78505 0.27972,0.80732 0.88361,1.0134 0.77642,0.26495 0.77174,0.26492 0.90491,0.006 z M 73.81233,144.9004 c 1.029793,-0.99448 1.187723,-1.37942 0.564593,-1.37602 -0.511517,0.004 -2.491681,0.60983 -2.710921,0.83106 -0.118321,0.1194 -0.250693,0.44238 -0.29417,0.71774 -0.06996,0.44291 -0.0456,0.51673 0.210709,0.63997 0.159385,0.0767 0.500558,0.14309 0.758187,0.14768 0.421622,0.007 0.568622,-0.0884 1.471602,-0.96043 z m 8.657583,0.82681 c 0.41312,-0.21744 0.43873,-0.32971 0.21682,-0.95034 l -0.20554,-0.57481 -1.16743,-0.33137 c -1.22698,-0.34826 -1.97014,-0.43241 -1.97014,-0.2231 0,0.18194 1.74683,1.98676 2.03761,2.10528 0.35938,0.14648 0.78051,0.13656 1.08868,-0.0257 z m 3.42453,-0.78716 c 0.192,-0.0992 0.38065,-0.2316 0.41923,-0.29403 0.0918,-0.14853 -1.39661,-1.49421 -1.65005,-1.49182 -0.10728,0.001 -0.40901,0.18286 -0.6705,0.40411 -0.47097,0.3985 -0.47413,0.40713 -0.33634,0.9188 0.21218,0.78801 0.3617,0.88289 1.18726,0.75343 0.38572,-0.0605 0.8584,-0.19122 1.0504,-0.29049 z m -15.507202,-0.0527 c 0.328501,-0.63525 0.243457,-1.01312 -0.317293,-1.40997 l -0.500438,-0.35415 -0.43649,0.23065 c -0.463382,0.24488 -1.15072,0.98696 -1.15072,1.24241 0,0.2969 0.870339,0.62802 1.69485,0.64479 0.457694,0.01 0.54479,-0.0341 0.710091,-0.35373 z m 18.094812,-2.53044 c 0,-1.4171 -0.0476,-2.30678 -0.12616,-2.3553 -0.29776,-0.18402 -2.71417,1.90208 -2.71417,2.34317 0,0.43068 2.11544,2.28945 2.60558,2.28945 0.22218,0 0.23475,-0.1219 0.23475,-2.27732 z m -21.601825,1.72667 c 0.872391,-0.62675 1.180468,-0.91464 1.551161,-1.44955 l 0.332438,-0.47972 -0.272197,-0.19065 c -0.149713,-0.10488 -0.367238,-0.28636 -0.483386,-0.40331 -0.116161,-0.117 -0.559982,-0.51088 -0.986308,-0.87538 -0.570866,-0.48809 -0.811479,-0.62639 -0.913071,-0.52481 -0.156937,0.15693 -0.305917,3.52111 -0.178429,4.02907 0.1056,0.42087 0.237325,0.40622 0.949792,-0.1056 z M 77.930543,142.947 c 0.35185,-0.40913 0.36701,-0.54497 0.11508,-1.03208 -0.3594,-0.69499 -1.16834,-0.83184 -1.71078,-0.28941 -0.43651,0.43651 -0.43131,0.96988 0.014,1.43825 0.28926,0.30421 0.40933,0.348 0.80995,0.29539 0.31353,-0.0412 0.57079,-0.17858 0.77167,-0.41215 z m -4.79066,-0.0124 c 0.86736,-0.24072 1.26402,-0.44565 1.26402,-0.65301 0,-0.16058 -1.292844,-0.59804 -2.219835,-0.75114 -0.852496,-0.14078 -0.857812,-0.1399 -1.285061,0.21539 -0.48365,0.40218 -0.533438,0.61639 -0.226633,0.97509 0.511118,0.59755 0.948039,0.63537 2.467509,0.21367 z m 9.91097,0.15466 c 0.35282,-0.18245 0.61499,-0.5236 0.61499,-0.80026 0,-0.22594 -0.77506,-0.86561 -1.04882,-0.86561 -0.27929,0 -1.90583,0.42404 -2.43983,0.63607 -0.49219,0.19543 -0.41705,0.44377 0.18523,0.61233 0.28866,0.0808 0.83049,0.24577 1.20405,0.36663 0.85289,0.27593 1.03692,0.28223 1.48438,0.0508 z m -12.524328,-2.47488 c 0.0714,-0.28449 -0.08568,-0.69284 -0.409537,-1.06478 -0.130393,-0.14973 -0.304513,-0.18917 -0.632463,-0.14321 -0.612854,0.0859 -1.625718,0.41051 -1.625718,0.52102 0,0.21174 0.663867,0.96217 1.125401,1.27214 l 0.501361,0.33671 0.485414,-0.32123 c 0.266965,-0.17668 0.516962,-0.44698 0.555542,-0.60065 z m 15.500868,-0.2326 c 0.12695,-0.20821 0.21257,-0.43412 0.19027,-0.50204 -0.0384,-0.11688 -1.50364,-0.52403 -1.96357,-0.54565 -0.23276,-0.0108 -0.58825,0.68804 -0.58825,1.15666 0,0.30968 0.40823,0.73918 0.86452,0.90958 0.25622,0.0956 0.39,0.0511 0.78744,-0.26235 0.26332,-0.2077 0.58264,-0.54799 0.70959,-0.7562 z m -11.38626,0.67978 c 0.23843,-0.15091 -0.0556,-0.59284 -0.944916,-1.42052 -0.903303,-0.84062 -1.265249,-0.99062 -1.825471,-0.75654 -0.401977,0.16795 -0.430657,0.21717 -0.430657,0.73911 0,0.82938 0.293017,0.98125 2.963814,1.53618 0.034,0.007 0.14072,-0.0372 0.23723,-0.0983 z m 6.67048,-0.26366 c 1.13448,-0.30974 1.52181,-0.66146 1.46551,-1.3308 -0.0338,-0.40284 -0.0846,-0.45875 -0.53144,-0.58638 -0.38467,-0.10992 -0.5633,-0.10608 -0.80733,0.0172 -0.49243,0.24876 -1.97124,1.70558 -1.97124,1.94192 0,0.29608 0.66146,0.28103 1.8445,-0.042 z m -1.53519,-1.65618 c 0.577,-0.57571 1.04826,-1.11754 1.04724,-1.20405 -0.005,-0.37537 -0.36218,-1.14876 -0.54883,-1.18649 -0.1122,-0.0227 -0.44848,0.0737 -0.74729,0.21413 -0.46205,0.21719 -0.56447,0.33418 -0.68476,0.7822 -0.0778,0.28975 -0.1912,0.65394 -0.252,0.80932 -0.0608,0.15537 -0.14623,0.58606 -0.18983,0.95706 -0.11232,0.95532 0.10356,0.89693 1.37547,-0.37217 z m -3.89061,0.674 c 0,-0.30861 -0.43802,-1.96272 -0.63318,-2.39103 -0.0996,-0.21864 -0.33148,-0.37798 -0.75435,-0.51845 -0.713205,-0.23689 -0.814006,-0.17932 -1.042787,0.59552 l -0.153348,0.51937 1.021915,1.02191 c 1.04329,1.0433 1.56175,1.29981 1.56175,0.77268 z m 1.77145,-1.05666 c 0.46954,-1.71565 0.43248,-2.11428 -0.23494,-2.52677 l -0.43977,-0.2718 -0.31273,0.29247 c -0.49012,0.4584 -0.54593,0.64356 -0.41059,1.36263 0.18345,0.97474 0.76912,2.11655 1.04362,2.0346 0.0662,-0.0198 0.22567,-0.42077 0.35441,-0.89113 z m -9.674963,0.13012 c 1.554126,-0.31488 1.879375,-0.56315 1.712238,-1.30701 -0.339565,-1.51132 -0.946887,-2.76731 -1.69179,-3.49874 -0.612182,-0.60113 -1.595058,-1.3031 -1.825795,-1.30399 -0.07596,-2.9e-4 -0.172657,0.20788 -0.214753,0.46258 -0.10776,0.65158 -0.09468,5.37271 0.01524,5.5447 0.08268,0.12939 0.41105,0.22986 0.893427,0.27339 0.101881,0.01 0.602019,-0.0677 1.111433,-0.17093 z m 20.351563,0.0396 c 0.19178,-0.19178 0.21029,-5.67967 0.0204,-6.03456 -0.0703,-0.13137 -0.22835,-0.23886 -0.3512,-0.23886 -0.30498,0 -2.49969,2.16672 -2.81446,2.77858 -0.13977,0.27168 -0.40676,0.98847 -0.59331,1.59287 -0.39024,1.26424 -0.427,1.19108 0.79949,1.59115 1.27487,0.41583 2.68499,0.56496 2.93912,0.31082 z M 71.790502,137.9583 c 0.541358,-0.11604 0.618026,-0.17309 0.685287,-0.5094 0.168552,-0.84274 0.11724,-0.95732 -0.572595,-1.27849 -0.711386,-0.33119 -1.389521,-0.39569 -1.487093,-0.14144 -0.03432,0.0895 -0.015,0.40909 0.0432,0.71009 0.05808,0.301 0.108,0.58145 0.111,0.62323 0.006,0.0926 0.49865,0.72674 0.563978,0.72674 0.02568,0 0.321002,-0.0588 0.656259,-0.13073 z m 11.714481,-0.45586 c 0.25644,-0.60281 0.35641,-1.57717 0.17341,-1.69028 -0.16512,-0.102 -1.43711,0.24385 -1.83406,0.49874 -0.31615,0.20302 -0.36525,0.67775 -0.12349,1.19418 0.17396,0.3716 0.30225,0.4258 1.05599,0.44613 0.50134,0.0136 0.5422,-0.012 0.72815,-0.44877 z m -7.84003,-1.62813 c 0.11244,-0.13135 0.29765,-0.38101 0.41152,-0.5548 0.20163,-0.3077 0.19647,-0.32808 -0.19754,-0.77997 -0.51968,-0.59602 -1.00728,-1.0194 -1.17429,-1.01959 -0.21068,-2.4e-4 -0.53942,0.81211 -0.62568,1.54606 -0.0437,0.37216 -0.058,0.67749 -0.0317,0.67852 0.0263,0.001 0.27015,0.082 0.54185,0.17981 0.66379,0.23915 0.83501,0.23119 1.07579,-0.05 z m 4.21424,-0.16647 c 0.30964,-0.21588 0.34104,-0.29619 0.2704,-0.6913 -0.1002,-0.56024 -0.32853,-1.26358 -0.47558,-1.4649 -0.14691,-0.20112 -0.97095,0.43919 -1.40043,1.08819 -0.29733,0.4493 -0.3005,0.47559 -0.095,0.78914 0.43764,0.66792 1.00838,0.76152 1.70065,0.27887 z m -6.905546,-0.41061 c 0.1074,-0.0413 0.195336,-0.18242 0.195336,-0.31378 0,-0.13135 0.113281,-0.58945 0.251725,-1.01798 0.333554,-1.03245 0.363242,-1.77098 0.116761,-2.90412 -0.295741,-1.35968 -0.649011,-2.20748 -0.971368,-2.33119 -0.252253,-0.0968 -2.330709,0.39389 -2.998967,0.708 -0.645363,0.30336 -2.449281,2.04223 -2.449281,2.36096 0,0.11796 0.541814,0.76348 1.204048,1.43453 1.200785,1.21677 1.207073,1.22101 2.315481,1.55816 0.611282,0.18593 1.250356,0.38667 1.420157,0.44608 0.390505,0.13663 0.667863,0.15461 0.916096,0.0594 z m 9.680076,-0.23224 c 0.59063,-0.16897 1.2773,-0.37961 1.52594,-0.46808 0.50446,-0.17953 2.3131,-1.76696 2.77491,-2.43552 l 0.29856,-0.43223 -1.20706,-1.14105 c -0.66388,-0.62758 -1.29503,-1.14161 -1.40258,-1.14231 -0.10752,-6.1e-4 -0.2347,-0.0404 -0.28257,-0.0883 -0.0941,-0.0941 -2.20334,-0.65358 -2.60921,-0.69216 -0.21067,-0.02 -0.3249,0.20346 -0.77695,1.52017 -0.46293,1.34835 -0.52181,1.6374 -0.46542,2.2846 0.0907,1.04122 0.6917,2.90208 0.93727,2.90208 0.0733,0 0.61648,-0.13825 1.20711,-0.3072 z m -5.0329,-1.25263 c 0.81894,-0.58835 1.67454,-1.64598 2.11883,-2.61913 0.38886,-0.85178 0.72112,-2.65836 0.52437,-2.85119 -0.24405,-0.23916 -2.13519,-0.66489 -3.18827,-0.71773 -0.96087,-0.0482 -1.20533,-0.0145 -1.99998,0.27525 -0.49791,0.18161 -0.97097,0.4093 -1.05121,0.50601 -0.204193,0.24602 -0.0911,1.13675 0.30901,2.43265 0.31653,1.02529 0.39383,1.14867 1.40668,2.24493 0.58947,0.63799 1.11331,1.16397 1.16409,1.1688 0.0508,0.005 0.3732,-0.19297 0.71648,-0.43959 z m 10.6015,-2.93406 c 0.27278,-0.29038 0.27663,-0.33936 0.23763,-3.01965 -0.0247,-1.69641 -0.0889,-2.77363 -0.17016,-2.85475 -0.17097,-0.17065 -0.39822,0.14608 -1.53108,2.13397 -1.01117,1.77434 -1.00601,1.68619 -0.15352,2.62367 0.25119,0.27622 0.61951,0.7069 0.81851,0.95706 0.199,0.25017 0.39771,0.45485 0.44157,0.45485 0.0439,0 0.20454,-0.13283 0.35705,-0.29515 z m -21.02515,-0.60017 c 0.451297,-0.4245 0.918795,-0.93127 1.03888,-1.12612 0.216565,-0.35139 0.214897,-0.35972 -0.202933,-1.01289 -0.231709,-0.36222 -0.421286,-0.69199 -0.421286,-0.73283 0,-0.0408 -0.241753,-0.4464 -0.53723,-0.90125 -0.295465,-0.45485 -0.606254,-0.958 -0.69065,-1.11812 -0.332449,-0.63079 -0.438002,-0.0793 -0.48287,2.52275 -0.04608,2.67069 -0.0024,3.14029 0.292801,3.14029 0.10056,0 0.55199,-0.34732 1.003288,-0.77183 z m 3.920883,-2.20254 c 1.396349,-0.40969 1.381337,-0.36607 0.814167,-2.36469 -0.264721,-0.93281 -0.534578,-1.79418 -0.599691,-1.91413 -0.20214,-0.37241 -2.564613,-2.62621 -2.752846,-2.62621 -0.274693,0 -1.178824,0.9581 -1.675146,1.77511 l -0.44651,0.73505 0.354889,0.68993 c 0.492698,0.95784 1.904108,3.21278 2.267601,3.62287 0.373369,0.42122 0.820263,0.43922 2.037536,0.0821 z m 14.116417,-0.26731 c 0.51079,-0.71379 1.99575,-3.11794 2.33395,-3.77865 0.21334,-0.4168 0.24928,-0.61038 0.16054,-0.86492 -0.15456,-0.44337 -1.64623,-1.99415 -1.91812,-1.99415 -0.55996,0 -1.9275,1.34665 -2.79238,2.7497 -0.53019,0.8601 -1.17038,2.44799 -1.20656,2.9927 -0.0491,0.73871 -0.0252,0.77187 0.71164,0.9879 0.39054,0.11448 0.82123,0.25484 0.95707,0.31187 0.13584,0.057 0.50153,0.1074 0.81264,0.11208 0.52793,0.008 0.59069,-0.0266 0.94122,-0.51648 z m -9.29511,-0.97318 c 0.6276,-0.21851 0.69906,-0.47502 0.6836,-2.45373 -0.0154,-1.96244 -0.11388,-2.63887 -0.39244,-2.69242 -0.11605,-0.0223 -0.78291,0.27832 -1.48191,0.66804 -0.69899,0.38975 -1.54051,0.84081 -1.870031,1.00237 -0.58877,0.28866 -0.597734,0.30166 -0.517382,0.75049 0.045,0.25121 0.130381,0.62347 0.189817,0.82723 0.0594,0.20376 0.173545,0.62054 0.253585,0.9262 0.08004,0.30564 0.251533,0.78143 0.381109,1.0573 l 0.235597,0.50159 1.016155,-0.20897 c 0.55887,-0.11496 1.23473,-0.28508 1.5019,-0.3781 z m 5.30347,-0.97182 c 0.25817,-0.67626 0.44772,-1.39283 0.4475,-1.69172 l -3.7e-4,-0.51855 -1.26579,-0.74676 c -1.48079,-0.87359 -2.48368,-1.24664 -2.71847,-1.0112 -0.11004,0.11028 -0.15163,0.75935 -0.1488,2.32051 0.005,2.45606 -0.0476,2.3262 1.08416,2.70067 0.89534,0.29623 1.84386,0.41512 2.0148,0.25251 0.0764,-0.0727 0.34063,-0.66022 0.58697,-1.30546 z m -8.297291,-3.48867 c 0.499622,-0.28866 1.176241,-0.66377 1.503621,-0.83357 0.32736,-0.1698 0.79708,-0.48181 1.0438,-0.69336 l 0.44858,-0.38463 -0.5369,-0.2739 c -0.49462,-0.25235 -0.67994,-0.271 -2.353008,-0.23676 -2.00246,0.0409 -3.340429,0.31411 -3.340429,0.68196 0,0.23185 1.950404,2.26511 2.172812,2.26511 0.08424,0 0.561914,-0.23619 1.061524,-0.52485 z m 10.649671,-0.59134 c 0.59179,-0.6139 1.05396,-1.18228 1.02702,-1.26307 -0.10428,-0.31282 -1.16526,-0.48915 -3.31838,-0.55148 -2.12872,-0.0617 -2.18527,-0.0568 -2.56247,0.22217 -0.21214,0.15684 -0.38572,0.3253 -0.38572,0.37437 0,0.11724 1.29151,0.92781 2.5316,1.58892 0.54337,0.28967 1.04073,0.57586 1.10526,0.63597 0.26797,0.24966 0.58091,0.053 1.60269,-1.00688 z" /><path
         style="fill:none;stroke:#ff0000;stroke-width:0.182989;stroke-dasharray:none;stroke-opacity:1"
         d="m 67.92056,188.41598 c -0.407522,-0.0892 -1.073981,-0.31995 -1.48101,-0.51298 -0.958084,-0.45434 -2.240096,-1.7231 -2.689462,-2.66163 -0.755031,-1.57694 -0.704067,1.53552 -0.701259,-42.83026 0.0024,-33.29029 0.03192,-40.68911 0.166537,-41.24648 0.363001,-1.503676 1.107724,-2.676056 2.339769,-3.683356 0.61325,-0.50137 2.27174,-1.12897 2.990159,-1.13152 0.593822,-0.002 0.778383,-0.22722 0.912231,-1.11276 0.06672,-0.44148 0.208537,-1.24727 0.315121,-1.79064 0.106561,-0.54337 0.226249,-1.34916 0.265933,-1.79064 0.06144,-0.68373 0.131893,-0.86677 0.475238,-1.23493 0.786855,-0.8437 0.816471,-1.1131 0.43745,-3.97985 -0.217789,-1.64718 -0.223261,-1.87669 -0.05796,-2.43312 0.248689,-0.83742 0.642986,-1.2638 1.560486,-1.68748 0.726878,-0.33564 0.876543,-0.35874 2.32064,-0.35812 1.03359,4.5e-4 1.92643,0.0788 2.70205,0.23735 1.22396,0.25007 1.56841,0.23636 4.83099,-0.19227 0.79089,-0.10392 1.376,-0.10128 2.37312,0.0108 1.27758,0.1434 1.57864,0.11988 1.57864,-0.12354 0,-0.0629 0.17497,-0.39872 0.38882,-0.74627 0.35609,-0.57872 0.37948,-0.67991 0.27787,-1.20214 -0.0959,-0.49295 -0.16275,-0.58498 -0.49297,-0.67893 -0.44527,-0.1267 -0.79118,-0.64102 -0.79118,-1.17639 0,-0.48825 0.16199,-0.57358 0.63802,-0.3361 0.49891,0.2489 0.5969,0.24365 0.5969,-0.0319 0,-0.26909 -0.3967,-0.65312 -0.97911,-0.94784 -0.59988,-0.30357 -2.00511,-0.80258 -2.26007,-0.80258 -0.4611,0 -0.92745,-0.647174 -1.24585,-1.728894 -0.40652,-1.381157 -0.47926,-1.847779 -0.46697,-2.995679 0.0108,-1.0054 0.18814,-1.601922 0.64447,-2.167352 l 0.26826,-0.332378 -0.0881,0.308725 c -0.26648,0.934132 -0.31275,1.275005 -0.31544,2.323605 -0.004,1.316189 0.1235,1.701354 0.49493,1.502574 0.27075,-0.144901 0.5791,-0.683871 0.81129,-1.41807 l 0.15623,-0.49397 0.008,0.40841 c 0.013,0.642662 -0.24507,1.530258 -0.57347,1.972411 -0.34362,0.462626 -0.31014,0.91354 0.10716,1.44411 0.29032,0.369073 0.92212,0.725778 1.09561,0.618558 0.0659,-0.0408 0.11988,-0.317597 0.11988,-0.615222 0,-0.852159 0.31203,-0.859011 0.4898,-0.0108 0.0712,0.339517 0.1223,0.377113 0.46735,0.343405 0.35872,-0.03504 0.39382,-0.0048 0.47315,0.418917 0.0632,0.33706 0.2997,0.67336 0.90223,1.28313 0.4491,0.45449 0.90454,0.95697 1.01209,1.11663 l 0.19555,0.29028 0.42191,-0.26773 c 0.23205,-0.14725 0.69976,-0.55066 1.03936,-0.89646 0.33962,-0.3458 0.99616,-0.85139 1.45899,-1.12354 0.92303,-0.54275 1.31842,-1.048988 1.31913,-1.688986 7.3e-4,-0.642746 0.30266,-0.410378 0.34684,0.266917 0.041,0.629318 0.0976,0.688274 0.34616,0.360841 0.24623,-0.324373 0.20533,-0.742623 -0.11556,-1.181428 -0.37217,-0.50897 -0.60773,-1.273553 -0.55614,-1.805119 0.0653,-0.672038 0.30496,-0.588914 0.39075,0.135481 0.0461,0.389197 0.17052,0.740354 0.31273,0.882555 0.23257,0.232573 0.23988,0.232477 0.47919,-0.0072 0.45251,-0.45251 0.4746,-2.387469 0.0403,-3.528121 -0.19469,-0.51131 -0.16211,-0.643743 0.1,-0.406538 0.61805,0.559334 0.85229,2.914331 0.49643,4.991215 -0.19014,1.109728 -0.21806,1.171192 -0.80251,1.766803 -0.63384,0.64593 -1.89863,1.34396 -2.4352,1.34396 -0.38307,0 -1.13911,0.60013 -0.96959,0.76964 0.0746,0.0746 0.21001,0.0683 0.3698,-0.0173 0.27594,-0.14768 0.87664,-0.1781 1.18445,-0.06 0.22398,0.0859 0.25434,0.44851 0.0668,0.79876 -0.0707,0.13201 -0.47354,0.40865 -0.89532,0.61475 l -0.76686,0.37473 -0.38816,1.07515 c -0.21348,0.59134 -0.5034,1.679 -0.64425,2.41704 -0.31834,1.66791 -0.53228,2.11056 -1.61957,3.35083 -0.47635,0.54338 -1.08162,1.2658 -1.34506,1.60541 -0.43538,0.56125 -0.6531,0.79329 -1.44724,1.54241 -0.14167,0.13364 -0.41953,0.75821 -0.61746,1.38791 -0.34044,1.08313 -0.3586,1.25043 -0.33633,3.09933 0.0132,1.09204 0.0784,2.02046 0.14783,2.10413 0.0774,0.0932 0.55806,0.16116 1.27312,0.17998 1.46324,0.0385 2.17187,0.21666 3.37172,0.84774 0.61844,0.32527 1.84522,1.61066 2.19081,2.29545 0.76833,1.522466 0.71126,-1.92461 0.71126,42.960866 0,40.07047 -0.005,40.93644 -0.23862,41.75353 -0.6207,2.1705 -2.26174,3.72609 -4.4756,4.24255 -1.01484,0.23675 -17.599402,0.22734 -18.687602,-0.0108 z"
         id="path113" /></g></g></svg>
