<?xml version="1.0" encoding="UTF-8" standalone="no"?>
<!-- Created with Inkscape (http://www.inkscape.org/) -->

<svg
   width="44.341038mm"
   height="22.673077mm"
   viewBox="0 0 44.341038 22.673077"
   version="1.1"
   id="svg1"
   xml:space="preserve"
   xmlns="http://www.w3.org/2000/svg"
   xmlns:svg="http://www.w3.org/2000/svg"><defs
     id="defs1" /><g
     id="layer1"
     transform="translate(-53.624669,-95.012792)"><path
       style="fill:#0000ff;fill-opacity:1;stroke:none;stroke-width:0.655364"
       d="m 82.717047,117.50966 c 0.02143,-0.15145 0.164313,-0.26879 0.5798,-0.47612 0.30325,-0.15131 0.990333,-0.38875 1.526853,-0.52762 0.536527,-0.13887 1.45264,-0.33027 2.035815,-0.42534 0.583176,-0.0951 1.728319,-0.21155 2.544764,-0.25882 0.816446,-0.0473 1.994416,-0.12474 2.617719,-0.17212 0.623303,-0.0474 1.395007,-0.1412 1.714896,-0.20849 0.31989,-0.0673 0.749822,-0.20141 0.95539,-0.29804 0.205574,-0.0966 0.461474,-0.26905 0.568659,-0.38314 0.107184,-0.1141 0.178829,-0.22051 0.159207,-0.23647 -0.0196,-0.016 -0.646424,-0.27067 -1.392884,-0.56601 -0.746465,-0.29534 -1.952623,-0.79446 -2.680345,-1.10915 -0.727729,-0.31468 -1.682017,-0.75118 -2.120639,-0.96999 -0.438621,-0.2188 -1.476888,-0.78038 -2.30726,-1.24795 -0.830372,-0.46756 -1.799812,-0.96274 -2.154311,-1.10039 -0.354499,-0.13765 -0.934765,-0.30642 -1.289474,-0.37503 -0.476561,-0.0922 -0.914809,-0.10972 -1.678655,-0.0672 l -1.033724,0.0576 0.04561,0.90069 c 0.0251,0.49538 0.11809,1.25986 0.206675,1.69884 0.08859,0.43898 0.161063,0.9381 0.161063,1.10915 0,0.21364 -0.05977,0.36631 -0.190855,0.48765 -0.178875,0.16556 -0.271753,0.175 -1.479228,0.15026 -0.708599,-0.0145 -1.328888,-0.0514 -1.378413,-0.082 -0.04955,-0.0306 -0.09005,-0.15828 -0.09005,-0.28371 0,-0.12543 0.117926,-0.58202 0.26206,-1.01465 0.262054,-0.7866 0.262054,-0.7866 -0.249661,-1.84517 -0.297522,-0.61547 -0.561987,-1.05856 -0.631816,-1.05856 -0.0901,0 -0.134284,0.18538 -0.176903,0.74223 -0.03126,0.40822 -0.0802,1.09925 -0.108803,1.53562 -0.0407,0.62086 -0.01802,0.92984 0.104249,1.42081 0.111687,0.44851 0.130168,0.65348 0.06482,0.71885 -0.05027,0.0503 -0.220163,0.11969 -0.377489,0.15424 -0.157333,0.0345 -0.909016,0.0531 -1.670411,0.0413 -0.913872,-0.0142 -1.425579,-0.0558 -1.505652,-0.1222 -0.06672,-0.0554 -0.121294,-0.16488 -0.121294,-0.24336 0,-0.0785 0.17177,-0.38664 0.381716,-0.68479 0.263135,-0.37368 0.38171,-0.62782 0.38171,-0.81809 0,-0.15181 -0.07481,-0.66922 -0.166246,-1.14979 -0.09143,-0.48057 -0.191943,-1.08371 -0.223348,-1.34031 -0.03139,-0.25659 -0.09156,-0.51026 -0.133668,-0.5637 -0.04207,-0.0534 -0.216938,-0.12349 -0.388519,-0.15568 -0.171574,-0.0322 -0.561476,-0.0567 -0.866437,-0.0546 -0.304967,0.002 -1.111818,0.10825 -1.793009,0.23576 -1.238532,0.23182 -1.238532,0.23182 -1.168376,0.53347 0.0386,0.1659 0.07107,0.48209 0.07218,0.70265 0.0013,0.25555 -0.154974,0.88626 -0.430836,1.73892 -0.238074,0.73585 -0.490972,1.47881 -0.561994,1.65101 -0.07103,0.1722 -0.183902,0.33412 -0.250834,0.3598 -0.06693,0.0257 -0.662094,0.025 -1.322589,-0.001 -0.660489,-0.0264 -1.230773,-0.0666 -1.267296,-0.0891 -0.0365,-0.0225 -0.0664,-0.12495 -0.0664,-0.22751 0,-0.10451 0.203917,-0.42029 0.463919,-0.71841 0.265003,-0.30385 0.498679,-0.6673 0.544981,-0.84763 0.04456,-0.17363 0.148059,-0.70822 0.229947,-1.18796 0.148879,-0.87227 0.148879,-0.87227 -0.26611,-1.29359 -0.330028,-0.33506 -0.471901,-0.42132 -0.692936,-0.42132 -0.277946,0 -0.277946,0 -0.224475,0.75334 0.05348,0.75335 0.05348,0.75335 -0.459417,1.84715 -0.282088,0.60158 -0.540262,1.28366 -0.573724,1.51573 -0.03349,0.23207 -0.119342,0.48874 -0.190849,0.57038 -0.09811,0.11203 -0.256837,0.14738 -0.647021,0.14409 -0.284355,-0.003 -0.777464,-0.0333 -1.095794,-0.0687 -0.352278,-0.0391 -0.609042,-0.11213 -0.656098,-0.18651 -0.04253,-0.0672 -0.0779,-0.16612 -0.07862,-0.21981 -6.55e-4,-0.0537 0.16388,-0.3209 0.365758,-0.59378 0.201885,-0.27288 0.411464,-0.61067 0.465741,-0.75063 0.05426,-0.13996 0.194466,-0.74053 0.31154,-1.33461 0.117081,-0.59407 0.212869,-1.34319 0.212869,-1.6647 0,-0.32151 -0.02379,-0.70365 -0.05295,-0.84921 -0.04312,-0.21546 -0.110095,-0.27992 -0.360509,-0.34686 -0.169169,-0.0452 -0.78548,-0.15862 -1.369586,-0.252 -0.584106,-0.0934 -1.404791,-0.26835 -1.823746,-0.3888 -0.41896,-0.12046 -1.227168,-0.44743 -1.796024,-0.72661 -0.568855,-0.27919 -1.262695,-0.67931 -1.54186,-0.88916 -0.279172,-0.20986 -0.7074,-0.59991 -0.951621,-0.86678 -0.244221,-0.26686 -0.607981,-0.74067 -0.808352,-1.0529 -0.200377,-0.31223 -0.481043,-0.79891 -0.623709,-1.08152 -0.14266,-0.28261 -0.314195,-0.75241 -0.381199,-1.044 -0.067,-0.29158 -0.147529,-1.0073 -0.178954,-1.59047 -0.03611,-0.67034 -0.02117,-1.29431 0.0407,-1.69652 0.05708,-0.371 0.216985,-0.88865 0.383637,-1.24186 0.194604,-0.41243 0.48008,-0.81021 0.894768,-1.24678 0.3877,-0.40814 0.722171,-0.6795 0.920478,-0.7468 0.171318,-0.0581 0.578686,-0.10418 0.905267,-0.10234 0.467647,0.003 0.686028,0.0503 1.028062,0.22437 0.238854,0.12155 0.534685,0.34033 0.657395,0.48616 0.140628,0.16713 0.223112,0.36693 0.223112,0.54043 0,0.1514 -0.05951,0.44998 -0.132285,0.66352 -0.07277,0.21354 -0.196819,0.44306 -0.275685,0.51006 -0.07887,0.067 -0.353333,0.16706 -0.609934,0.22238 -0.256594,0.0553 -0.714654,0.10934 -1.017904,0.12005 -0.551364,0.0195 -0.551364,0.0195 -0.753079,0.42622 -0.110939,0.22372 -0.220536,0.57381 -0.243546,0.77798 -0.02766,0.24562 0.02176,0.58052 0.146061,0.98986 0.103351,0.34026 0.29574,0.82994 0.427533,1.08818 0.131794,0.25824 0.462202,0.68475 0.73425,0.9478 0.272041,0.26305 0.656143,0.57799 0.853559,0.69988 0.197415,0.12189 0.641424,0.31644 0.986682,0.43234 0.345259,0.1159 0.947165,0.23518 1.337571,0.26506 0.441427,0.0338 0.902272,0.0154 1.21878,-0.0486 0.279925,-0.0566 0.720402,-0.20704 0.978831,-0.33426 0.25843,-0.1272 1.20524,-0.74412 2.104026,-1.37092 0.898778,-0.6268 2.117807,-1.47205 2.708945,-1.87834 0.591145,-0.40628 1.53382,-0.96727 2.094837,-1.24664 0.561018,-0.27936 1.515319,-0.70402 2.120665,-0.94367 0.605346,-0.23965 1.521459,-0.53457 2.035808,-0.65537 0.760497,-0.17862 1.149089,-0.21991 2.080328,-0.22104 0.964492,-0.001 1.291544,0.0349 2.073177,0.22897 0.510417,0.1267 1.273843,0.39451 1.696507,0.59514 0.422664,0.20062 1.207448,0.66294 1.743968,1.02736 0.53652,0.36443 1.299953,0.92057 1.696514,1.23588 0.396554,0.31532 1.123024,0.98759 1.61437,1.49394 0.491346,0.50635 1.254812,1.35961 1.696586,1.89613 0.441781,0.53652 1.03088,1.26178 1.309115,1.61169 0.278228,0.3499 0.69808,0.842 0.932995,1.09354 0.234922,0.25155 0.847012,0.8216 1.360207,1.2668 0.513189,0.44518 1.352966,1.11759 1.866155,1.49423 0.513195,0.37663 1.524743,1.07134 2.247877,1.54378 0.723135,0.47245 1.677423,1.06906 2.120639,1.32581 0.443209,0.25675 1.017328,0.67153 1.275816,0.92174 0.258482,0.25021 0.543179,0.60761 0.632649,0.79422 0.09697,0.20228 0.176345,0.58638 0.19653,0.95111 0.02805,0.50712 0.0013,0.67953 -0.157805,1.00772 -0.105422,0.21776 -0.405349,0.61243 -0.666511,0.87704 -0.261163,0.26461 -0.658457,0.56629 -0.882886,0.67042 -0.224423,0.10412 -0.77791,0.25207 -1.229967,0.32878 -0.6834,0.11596 -1.608236,0.14247 -5.487327,0.15728 -4.483919,0.0171 -4.696742,0.0251 -5.471237,0.20576 -0.443216,0.10337 -0.933153,0.20764 -1.088756,0.23171 -0.258777,0.0401 -0.280483,0.0266 -0.254471,-0.15721 z m 2.215398,-0.41568 c 0.543899,-0.0598 2.306768,-0.0856 4.807184,-0.0702 3.342957,0.0206 4.095616,0.003 4.908902,-0.11774 0.571609,-0.0845 1.14437,-0.22617 1.414478,-0.34983 0.249648,-0.11429 0.62854,-0.36877 0.841979,-0.56551 0.219782,-0.2026 0.503221,-0.59163 0.65362,-0.89713 0.234889,-0.47713 0.258731,-0.59081 0.206485,-0.98464 -0.03251,-0.24488 -0.15593,-0.62322 -0.274328,-0.84075 -0.118398,-0.21754 -0.354467,-0.53003 -0.524593,-0.69443 -0.170125,-0.1644 -0.920065,-0.66899 -1.666524,-1.12132 -0.746465,-0.45233 -1.982042,-1.24737 -2.745724,-1.76676 -0.763689,-0.51939 -1.775229,-1.25431 -2.247878,-1.63316 -0.472648,-0.37885 -1.262263,-1.08502 -1.754703,-1.56927 -0.49244,-0.48425 -1.427389,-1.54846 -2.07766,-2.3649 -0.662114,-0.83132 -1.761041,-2.06669 -2.497669,-2.80779 -1.025815,-1.03204 -1.576006,-1.50601 -2.499433,-2.15318 -0.651241,-0.45643 -1.414668,-0.95612 -1.696507,-1.11044 -0.281839,-0.15432 -0.81056,-0.39952 -1.174929,-0.54489 -0.364376,-0.14537 -1.01329,-0.34239 -1.442036,-0.43783 -0.511937,-0.11396 -1.085289,-0.17371 -1.670207,-0.17405 -0.650475,-3.8e-4 -1.153735,0.0585 -1.866161,0.21838 -0.53652,0.12039 -1.563291,0.45017 -2.281714,0.73282 -0.718423,0.28266 -1.645677,0.68924 -2.060568,0.90352 -0.414885,0.21428 -1.163087,0.66247 -1.662664,0.99598 -0.499577,0.3335 -1.685274,1.15323 -2.634876,1.8216 -0.949603,0.66838 -1.999318,1.36116 -2.332702,1.5395 -0.333383,0.17835 -0.771146,0.3677 -0.972821,0.42078 -0.201669,0.0531 -0.716981,0.0954 -1.145144,0.094 -0.493639,-10e-4 -1.020571,-0.0646 -1.440148,-0.1722 -0.363923,-0.0933 -0.919534,-0.30517 -1.234685,-0.47078 -0.315158,-0.16561 -0.76905,-0.50068 -1.008657,-0.7446 -0.239601,-0.24392 -0.572834,-0.67252 -0.740509,-0.95244 -0.167681,-0.27993 -0.402269,-0.81432 -0.521315,-1.18756 -0.160538,-0.50332 -0.204415,-0.78437 -0.169864,-1.08807 0.02562,-0.22521 0.139848,-0.61319 0.253842,-0.86218 0.113987,-0.24899 0.293288,-0.49876 0.398441,-0.55504 0.117691,-0.063 0.351341,-0.0833 0.607791,-0.053 0.259459,0.0307 0.614318,-10e-4 0.940775,-0.0844 0.288294,-0.0736 0.552229,-0.17707 0.586517,-0.22998 0.03428,-0.0529 0.121334,-0.29693 0.193444,-0.54228 0.08805,-0.29958 0.104793,-0.49459 0.05099,-0.59378 -0.04404,-0.0812 -0.188371,-0.25065 -0.320682,-0.37647 -0.132312,-0.12582 -0.38249,-0.28805 -0.555939,-0.36051 -0.173455,-0.0725 -0.546855,-0.13173 -0.829775,-0.13173 -0.282921,0 -0.63723,0.0522 -0.787361,0.11608 -0.150124,0.0638 -0.5253,0.3791 -0.833727,0.70055 -0.308421,0.32145 -0.661826,0.78388 -0.785342,1.02763 -0.123516,0.24374 -0.283307,0.6633 -0.355102,0.93234 -0.08443,0.31643 -0.129828,0.85527 -0.128543,1.52587 0.0013,0.57018 0.04103,1.28092 0.08868,1.57942 0.04771,0.29849 0.13992,0.69356 0.204965,0.87792 0.06501,0.18436 0.223079,0.54242 0.351183,0.79569 0.128104,0.25328 0.380111,0.67759 0.560015,0.94291 0.179903,0.26533 0.544102,0.71681 0.809334,1.00328 0.265226,0.28648 0.713947,0.68526 0.997156,0.88617 0.283208,0.20092 0.833609,0.52473 1.223111,0.71959 0.389496,0.19486 1.09567,0.4828 1.569269,0.63987 0.473598,0.15706 1.204636,0.34719 1.624521,0.4225 0.419885,0.0753 1.081049,0.19804 1.469254,0.27271 0.388204,0.0747 0.760379,0.19033 0.827049,0.25701 0.09199,0.092 0.121222,0.37381 0.121222,1.16869 0,0.80156 -0.0502,1.2797 -0.213871,2.03668 -0.117631,0.54406 -0.29454,1.14831 -0.393133,1.34278 -0.09859,0.19448 -0.288635,0.47897 -0.422316,0.63222 -0.133688,0.15325 -0.243062,0.33456 -0.243062,0.40292 0,0.0684 0.02864,0.12675 0.06364,0.12977 0.035,0.003 0.273562,0.0214 0.530157,0.0408 0.256601,0.0195 0.662428,0.055 0.901852,0.0789 0.327747,0.0328 0.462005,0.0114 0.543362,-0.0866 0.05944,-0.0716 0.138701,-0.32407 0.176162,-0.56102 0.03749,-0.23696 0.276976,-0.86034 0.532266,-1.3853 0.255284,-0.52496 0.490186,-1.09318 0.521991,-1.26273 0.03179,-0.16953 0.01029,-0.5603 -0.04784,-0.86837 -0.08785,-0.46557 -0.0862,-0.57217 0.0098,-0.63148 0.0635,-0.0393 0.288098,-0.0497 0.499086,-0.0233 0.317065,0.0397 0.461684,0.12454 0.833623,0.48908 0.450005,0.44105 0.450005,0.44105 0.272559,1.49577 -0.0976,0.5801 -0.214796,1.17158 -0.260448,1.31441 -0.04568,0.14283 -0.273274,0.48472 -0.50583,0.75976 -0.232555,0.27504 -0.422827,0.55358 -0.422827,0.61897 0,0.0805 0.0616,0.10391 0.190855,0.0725 0.104969,-0.0256 0.582618,-0.0195 1.061433,0.0135 0.478815,0.033 0.944189,0.0326 1.034158,-6.2e-4 0.113489,-0.042 0.218596,-0.25024 0.34322,-0.68006 0.0988,-0.34075 0.316167,-1.03603 0.483049,-1.54508 0.287895,-0.87816 0.300615,-0.96542 0.248599,-1.70547 l -0.05485,-0.77996 1.167196,-0.24212 c 0.879092,-0.18236 1.408914,-0.24297 2.146427,-0.24551 0.789674,-0.003 1.022603,0.025 1.203327,0.14345 0.171259,0.11222 0.237123,0.24222 0.279335,0.55137 0.03041,0.22249 0.147346,0.91651 0.259917,1.54227 0.112572,0.62576 0.204677,1.22252 0.204677,1.32614 0,0.10362 -0.174805,0.44369 -0.388454,0.75572 -0.213648,0.31202 -0.367534,0.62183 -0.341962,0.68846 0.03768,0.0982 0.308283,0.12093 1.427566,0.11999 0.759592,-6.4e-4 1.466959,-0.0242 1.571929,-0.0523 0.104976,-0.0281 0.190959,-0.1135 0.191084,-0.1897 1.18e-4,-0.0762 -0.06305,-0.39923 -0.14034,-0.71784 -0.121465,-0.50057 -0.127239,-0.70228 -0.04253,-1.48445 0.05394,-0.49783 0.09799,-1.18189 0.09793,-1.52014 -1.25e-4,-0.61498 -1.25e-4,-0.61498 0.342034,-0.61498 0.342159,0 0.342159,0 0.904317,1.14419 0.562151,1.14419 0.562151,1.14419 0.299455,1.81531 -0.144482,0.36911 -0.286656,0.79896 -0.315944,0.95524 -0.05328,0.28412 -0.05328,0.28412 1.267433,0.30958 1.320689,0.0255 1.320689,0.0255 1.408279,-0.20491 0.06606,-0.17376 0.04581,-0.44061 -0.08233,-1.08578 -0.09345,-0.47047 -0.20484,-1.31347 -0.247517,-1.87331 -0.04266,-0.55985 -0.05086,-1.04736 -0.01809,-1.08337 0.0327,-0.036 0.611848,-0.0893 1.286938,-0.11848 0.985071,-0.0425 1.352362,-0.025 1.860079,0.0888 0.347952,0.078 0.950913,0.27266 1.339917,0.43256 0.388998,0.1599 1.278274,0.62051 1.976171,1.02358 0.69789,0.40307 1.925556,1.04953 2.728154,1.43657 0.802591,0.38705 2.356288,1.06815 3.452659,1.51355 1.096364,0.44541 2.098369,0.84952 2.226663,0.89804 0.144396,0.0546 0.23327,0.15113 0.23327,0.25334 0,0.0908 -0.161344,0.30325 -0.358543,0.47205 -0.224973,0.19256 -0.564694,0.3682 -0.911873,0.47144 -0.304331,0.0905 -0.803502,0.20302 -1.109262,0.25004 -0.305766,0.0471 -1.584505,0.14547 -2.84165,0.21876 -1.448045,0.0844 -2.736484,0.20951 -3.515691,0.34132 -0.676486,0.11443 -1.664211,0.32393 -2.194957,0.46555 -0.53074,0.14161 -1.151022,0.35175 -1.378413,0.46698 -0.227385,0.11522 -0.413423,0.22281 -0.413423,0.23909 0,0.0163 0.251109,-0.04 0.558022,-0.12515 0.306913,-0.0851 0.94451,-0.19725 1.416877,-0.24924 z"
       id="path166" /></g></svg>
