<?xml version="1.0" encoding="UTF-8" standalone="no"?>
<!-- Created with Inkscape (http://www.inkscape.org/) -->

<svg
   width="21.414333mm"
   height="41.171738mm"
   viewBox="0 0 21.414333 41.171738"
   version="1.1"
   id="svg1"
   xml:space="preserve"
   sodipodi:docname="svg_flower06.svg"
   inkscape:version="1.3.2 (091e20e, 2023-11-25)"
   xmlns:inkscape="http://www.inkscape.org/namespaces/inkscape"
   xmlns:sodipodi="http://sodipodi.sourceforge.net/DTD/sodipodi-0.dtd"
   xmlns="http://www.w3.org/2000/svg"
   xmlns:svg="http://www.w3.org/2000/svg"><sodipodi:namedview
     id="namedview1"
     pagecolor="#ffffff"
     bordercolor="#000000"
     borderopacity="0.25"
     inkscape:showpageshadow="2"
     inkscape:pageopacity="0.0"
     inkscape:pagecheckerboard="0"
     inkscape:deskcolor="#d1d1d1"
     inkscape:document-units="mm"
     inkscape:zoom="0.66157829"
     inkscape:cx="-61.217245"
     inkscape:cy="49.880718"
     inkscape:window-width="1312"
     inkscape:window-height="449"
     inkscape:window-x="0"
     inkscape:window-y="38"
     inkscape:window-maximized="0"
     inkscape:current-layer="svg1" /><defs
     id="defs1" /><g
     id="layer1"
     transform="translate(-30.086241,-46.727866)"><path
       id="path154"
       style="fill:#0000ff;fill-opacity:1;stroke:none"
       d="m 119.42016,237.34317 c -0.53258,-0.80542 -1.03433,-1.75753 -1.02987,-1.95426 0.002,-0.0783 0.24353,0.29353 0.53723,0.8264 0.2937,0.53286 0.66584,1.11451 0.82697,1.29256 0.16113,0.17805 0.25175,0.36495 0.20137,0.41532 -0.0504,0.0504 -0.29144,-0.21063 -0.5357,-0.58002 z m -1.2783,-2.45986 c -0.17189,-0.44795 -0.12118,-0.56353 0.0888,-0.20242 0.10398,0.17881 0.15152,0.36262 0.10566,0.40849 -0.0459,0.0459 -0.13337,-0.0469 -0.19447,-0.20607 z m -0.88118,-2.79619 c -0.16428,-0.654 -0.29146,-1.29286 -0.28261,-1.41968 0.009,-0.12683 0.16723,0.33053 0.35198,1.01635 0.18474,0.68581 0.31191,1.32467 0.2826,1.41967 -0.0293,0.095 -0.1877,-0.36235 -0.35197,-1.01634 z m -0.4487,-2.09561 c 0,-0.24493 0.0404,-0.34513 0.0898,-0.22267 0.0494,0.12247 0.0494,0.32287 0,0.44534 -0.0494,0.12247 -0.0898,0.0223 -0.0898,-0.22267 z m -0.17153,-0.97974 c 0.004,-0.29392 0.0435,-0.39259 0.0887,-0.21927 0.0452,0.17331 0.0422,0.4138 -0.007,0.5344 -0.0488,0.1206 -0.0858,-0.0212 -0.0821,-0.31513 z m -0.43051,-0.95597 c -0.1687,-0.17122 -1.01038,-0.72362 -1.87041,-1.22755 -5.56002,-3.25782 -7.2176,-4.56775 -8.39478,-6.63412 -0.76872,-1.34938 -0.70903,-1.56145 0.0723,-0.25672 0.80535,1.34492 2.31366,2.88138 3.90868,3.98165 1.26002,0.86918 5.30935,3.2223 5.54504,3.2223 0.0702,0 -1.35382,-1.503 -3.16449,-3.34001 -2.85274,-2.89425 -4.4291,-4.71671 -4.4291,-5.12059 0,-0.0623 0.47229,0.47324 1.04952,1.18997 1.38306,1.71729 6.60866,6.89552 6.61592,6.55594 0.005,-0.21233 0.0527,-0.20305 0.2423,0.0467 0.39093,0.51498 0.47353,0.36148 0.35377,-0.65744 -0.0835,-0.7102 -0.0482,-1.03486 0.13205,-1.21499 0.20917,-0.20906 0.24595,0.0557 0.24595,1.77078 0,1.10913 0,2.01184 0,2.00601 0,-0.006 -0.13802,-0.15069 -0.30671,-0.32192 z m -2.25766,-4.79637 c -1.24015,-2.4713 -2.89272,-4.86489 -4.39814,-6.37031 -1.30748,-1.30748 -3.10991,-2.47701 -4.13273,-2.68157 l -0.55681,-0.11137 -0.0611,1.40124 -0.0611,1.40123 -0.0358,-1.49291 -0.0358,-1.49292 0.60603,0.0983 c 2.28808,0.3713 5.2092,2.97335 7.36317,6.55891 0.98209,1.6348 2.41958,4.43367 2.27713,4.43367 -0.0492,0 -0.48334,-0.78494 -0.96478,-1.74432 z m 1.99185,0.40832 c 0.001,-0.48987 0.0359,-0.66913 0.0769,-0.39835 0.0409,0.27077 0.0399,0.67157 -0.002,0.89067 -0.0423,0.21909 -0.0758,-0.002 -0.0744,-0.49232 z m 0.66159,0.37057 c 0,-0.29414 0.72815,-2.59725 0.82115,-2.59725 0.0514,0 0.0426,0.16032 -0.0195,0.35627 -0.16062,0.50608 0.17039,0.44149 0.52704,-0.10283 0.16545,-0.25251 0.87607,-1.10726 1.57916,-1.89946 3.42156,-3.85519 4.45481,-5.07546 4.96746,-5.86661 0.30624,-0.47262 0.59516,-0.82093 0.64206,-0.77404 0.20906,0.20907 -1.53255,2.40964 -4.66921,5.89966 -1.89303,2.10629 -3.04828,3.60249 -2.89778,3.75299 0.19734,0.19734 4.47857,-2.02915 5.49704,-2.8588 1.10876,-0.90318 2.04973,-2.10334 2.93124,-3.73865 0.32385,-0.60076 0.59063,-1.02164 0.59285,-0.9353 0.0121,0.4691 -1.61516,3.08061 -2.45646,3.94228 -1.20541,1.23459 -2.34515,1.97278 -4.92386,3.18913 -1.12707,0.53162 -2.12964,1.12776 -2.29594,1.36518 -0.16236,0.23181 -0.2952,0.35215 -0.2952,0.26743 z m -0.83366,-2.59725 c 0,-0.63683 0.0323,-0.89735 0.0718,-0.57893 0.0395,0.31841 0.0395,0.83945 0,1.15787 -0.0395,0.31841 -0.0718,0.0579 -0.0718,-0.57894 z m 1.81097,-0.5344 c 0.26092,-0.98561 1.94109,-4.10219 3.02505,-5.61123 1.31316,-1.82812 3.39804,-4.01648 5.33255,-5.59723 1.33441,-1.09038 2.06814,-1.36463 2.06295,-0.77106 -0.002,0.24952 -0.0341,0.26211 -0.16016,0.0631 -0.21766,-0.34375 -0.43191,-0.23011 -2.08717,1.10707 -2.888,2.33302 -5.45854,5.57686 -7.22469,9.11706 -0.58654,1.17569 -1.01338,1.93721 -0.94853,1.69228 z m -1.97875,-3.02828 c 0,-1.1267 0.0289,-1.58762 0.0643,-1.02427 0.0354,0.56335 0.0354,1.48519 0,2.04854 -0.0353,0.56335 -0.0643,0.10243 -0.0643,-1.02427 z m -10.72729,-0.5344 c 0,-0.24494 0.0404,-0.34514 0.0898,-0.22267 0.0494,0.12246 0.0494,0.32287 0,0.44533 -0.0494,0.12247 -0.0898,0.0223 -0.0898,-0.22266 z m 10.53881,-3.38455 c 0,-0.63683 0.0323,-0.89735 0.0718,-0.57894 0.0395,0.31842 0.0395,0.83946 0,1.15787 -0.0395,0.31842 -0.0718,0.0579 -0.0718,-0.57893 z m 11.28178,0.71253 c 0.062,-0.24493 0.22268,-0.72589 0.35712,-1.0688 0.20917,-0.53353 0.22981,-0.54922 0.14305,-0.10874 -0.0558,0.2831 -0.21646,0.76406 -0.35712,1.0688 -0.19236,0.41678 -0.22781,0.44372 -0.14305,0.10874 z m 0.61025,-2.06338 c 0.009,-0.20752 0.0508,-0.24973 0.10762,-0.10763 0.0515,0.12859 0.0451,0.28223 -0.0141,0.34143 -0.0592,0.0592 -0.10129,-0.046 -0.0936,-0.2338 z m -12.08226,-0.6977 c 0.002,-0.39189 0.0384,-0.53124 0.0811,-0.30965 0.0426,0.22158 0.041,0.54222 -0.004,0.71253 -0.0446,0.17031 -0.0794,-0.011 -0.0775,-0.40288 z m 12.27446,-0.0891 c 0,-0.24494 0.0404,-0.34514 0.0898,-0.22267 0.0494,0.12247 0.0494,0.32287 0,0.44533 -0.0494,0.12247 -0.0898,0.0223 -0.0898,-0.22266 z m 0.17813,-0.89067 c 0,-0.24494 0.0404,-0.34514 0.0898,-0.22267 0.0494,0.12247 0.0494,0.32287 0,0.44533 -0.0494,0.12247 -0.0898,0.0223 -0.0898,-0.22266 z m -12.65499,-0.13206 c -0.0114,-0.2196 -0.29531,-0.75908 -0.63099,-1.19885 -0.33569,-0.43977 -0.66173,-0.9615 -0.72454,-1.15941 -0.17276,-0.5443 -0.32114,-0.44343 -0.76229,0.51819 -0.4565,0.99508 -1.25458,1.59019 -2.30435,1.7183 -0.58905,0.0719 -0.5623,0.0501 0.20937,-0.1704 1.06545,-0.30447 1.73133,-0.98993 2.17491,-2.23884 0.17573,-0.49479 0.36204,-0.89962 0.41402,-0.89962 0.052,0 0.23454,0.39425 0.40568,0.8761 0.21798,0.61374 0.59057,1.12795 1.24421,1.71712 0.58122,0.52388 0.78738,0.79527 0.54674,0.7197 -0.28559,-0.0897 -0.40792,-0.0381 -0.4692,0.19783 -0.065,0.25013 -0.0874,0.2328 -0.10356,-0.0801 z m 1.71977,-0.0223 c 0.98216,-0.17785 1.61941,-0.66454 2.12705,-1.62451 0.22426,-0.42407 0.40774,-0.67429 0.40774,-0.55604 0,0.37407 -0.48339,1.15879 -1.03936,1.68727 -0.40701,0.38688 -0.74459,0.52482 -1.39644,0.57062 l -0.85968,0.0604 z m -7.93651,-0.47992 c -0.49488,-0.34663 -0.93512,-1.17639 -0.91105,-1.71715 0.0138,-0.31028 0.0515,-0.26948 0.15541,0.16819 0.165,0.69503 0.45121,1.06411 1.16236,1.49891 0.29392,0.17971 0.41196,0.32704 0.2623,0.3274 -0.14965,3.7e-4 -0.45071,-0.12444 -0.66902,-0.27735 z m 19.0358,-0.3603 c 0.009,-0.20751 0.0508,-0.24972 0.10763,-0.10762 0.0514,0.12859 0.0451,0.28223 -0.0141,0.34142 -0.0592,0.0592 -0.10129,-0.046 -0.0936,-0.2338 z m -8.53637,-2.03369 c 0,-0.24494 0.0404,-0.34514 0.0898,-0.22267 0.0494,0.12246 0.0494,0.32287 0,0.44533 -0.0494,0.12247 -0.0898,0.0223 -0.0898,-0.22266 z m -14.18979,-0.7067 c 1.96102,-0.56624 2.41882,-0.62682 2.59804,-0.34378 0.0867,0.13688 0.15373,0.36911 0.14902,0.51607 -0.005,0.14923 -0.0797,0.0902 -0.16967,-0.1336 -0.1875,-0.46647 -0.51189,-0.49462 -1.54647,-0.13418 -0.41273,0.1438 -1.09409,0.30512 -1.51414,0.35849 -0.57872,0.0735 -0.46167,0.01 0.48322,-0.263 z m -2.26903,-0.0189 c -0.17025,-0.0992 -0.40157,-0.35727 -0.51405,-0.57352 l -0.20449,-0.39317 0.42498,0.37647 c 0.23374,0.20707 0.5853,0.46515 0.78124,0.57352 0.24511,0.13557 0.2729,0.19705 0.0891,0.19705 -0.14696,0 -0.4065,-0.0812 -0.57675,-0.18035 z m 16.65015,-0.52135 c 0,-0.34291 0.0367,-0.48319 0.0815,-0.31174 0.0448,0.17146 0.0448,0.45202 0,0.62347 -0.0448,0.17145 -0.0815,0.0312 -0.0815,-0.31173 z m -6.06976,0 c 0,-0.24494 0.0404,-0.34514 0.0898,-0.22267 0.0494,0.12247 0.0494,0.32287 0,0.44533 -0.0494,0.12247 -0.0898,0.0223 -0.0898,-0.22266 z m -11.40491,-1.09857 c -0.0131,-0.35928 0.13862,-1.03216 0.33714,-1.49528 0.40538,-0.94571 2.21106,-2.81723 3.25109,-3.36962 0.79073,-0.41999 0.82964,-0.57476 0.17332,-0.6894 -0.26943,-0.0471 -0.12915,-0.0659 0.31173,-0.0418 0.44089,0.0241 1.12225,-0.0725 1.51414,-0.21473 0.3919,-0.1422 1.14744,-0.35126 1.67898,-0.46458 1.16708,-0.24881 1.38457,-0.59532 0.42514,-0.67734 l -0.67904,-0.058 0.68649,-0.0979 c 0.52553,-0.0749 0.70682,-0.0327 0.77322,0.18024 0.32136,1.03051 0.96908,1.65118 2.17156,2.08091 0.41614,0.14871 0.51455,0.23288 0.27819,0.23793 -0.2862,0.006 -0.48923,0.30814 -0.93333,1.38836 -0.57838,1.40685 -1.69586,3.06571 -2.16991,3.22115 -0.14443,0.0474 0.0788,-0.30178 0.49613,-0.77585 0.73431,-0.83422 1.66899,-2.545 1.90142,-3.48023 0.0967,-0.38911 0.0222,-0.5051 -0.50824,-0.79073 l -0.62156,-0.33474 -1.01374,0.67309 c -0.55756,0.3702 -1.36488,0.99676 -1.79406,1.39235 -0.42917,0.3956 -0.78031,0.63721 -0.78031,0.5369 0,-0.24398 0.99311,-1.10243 2.30973,-1.99653 0.59115,-0.40144 1.07482,-0.79175 1.07482,-0.86734 0,-0.0756 -0.10044,-0.2748 -0.22319,-0.44267 -0.20998,-0.28717 -0.30624,-0.28398 -1.62766,0.054 -2.14727,0.54917 -3.57614,1.33779 -5.04663,2.78528 -1.35566,1.33446 -1.62969,1.7971 -1.83508,3.09815 -0.12461,0.78931 -0.12692,0.79159 -0.15035,0.14837 z m 11.61193,-0.68278 c 0,-0.63683 0.0323,-0.89735 0.0718,-0.57893 0.0395,0.31841 0.0395,0.83946 0,1.15787 -0.0395,0.31842 -0.0718,0.0579 -0.0718,-0.57894 z m 2.39324,0.66782 c -0.39482,-0.60257 -1.41291,-2.65528 -1.34858,-2.71906 0.0309,-0.0306 0.43034,0.65883 0.88762,1.53217 0.81741,1.56113 0.97932,1.97801 0.46096,1.18689 z m 3.60631,0.0623 c 0,-0.18498 0.33885,-0.45277 0.43922,-0.34711 0.0326,0.0343 -0.0529,0.16573 -0.18999,0.29206 -0.13708,0.12633 -0.24923,0.1511 -0.24923,0.055 z m 0.97974,-0.007 c -0.20051,-0.08 0.19972,-0.10364 0.91541,-0.054 1.08371,0.0751 1.37515,0.03 1.9716,-0.30522 0.38496,-0.21635 0.83261,-0.60725 0.99479,-0.86865 0.16218,-0.26141 0.297,-0.38589 0.29961,-0.27664 0.009,0.37483 -0.74102,1.14646 -1.36948,1.40905 -0.66843,0.27929 -2.21943,0.33196 -2.81193,0.0955 z m 4.22088,-2.23758 c 0.004,-0.29392 0.0435,-0.39259 0.0887,-0.21927 0.0452,0.17332 0.0422,0.4138 -0.007,0.5344 -0.0488,0.1206 -0.0857,-0.0212 -0.0821,-0.31513 z m -11.25896,-1.29183 -0.0873,-1.1137 0.71254,-0.22823 c 0.60031,-0.19229 0.78267,-0.3745 1.15787,-1.15688 0.24493,-0.51076 0.52149,-0.92893 0.61456,-0.92928 0.0931,-3.5e-4 0.073,0.0956 -0.0445,0.21313 -0.36168,0.36168 -0.2383,0.81579 0.27611,1.01624 l 0.48987,0.19088 -0.55056,-0.0949 c -0.36889,-0.0636 -0.6246,-0.006 -0.77498,0.17554 -0.18802,0.22655 -0.0915,0.42244 0.59508,1.20726 1.11603,1.2758 1.04294,1.48332 -0.087,0.24699 -0.76835,-0.8407 -0.9584,-0.96411 -1.24694,-0.80969 -0.18723,0.1002 -0.34674,0.31965 -0.35448,0.48766 -0.009,0.18577 -0.0493,0.21822 -0.10391,0.0828 -0.20476,-0.50744 -0.40208,-0.15892 -0.45385,0.80161 l -0.0552,1.02427 z m 10.78234,0.0282 c -0.38394,-0.71293 -1.93454,-1.90663 -2.88353,-2.21982 -0.33957,-0.11207 -0.57861,-0.24255 -0.53121,-0.28996 0.11721,-0.11721 1.61207,0.55569 2.261,1.01777 l 0.52631,0.37477 0.75733,-0.50637 c 0.41653,-0.2785 1.01785,-0.89414 1.33626,-1.36808 0.68369,-1.01764 0.7688,-0.90954 0.13518,0.17166 -0.24407,0.41647 -0.73978,0.94455 -1.10159,1.17352 -0.3618,0.22897 -0.72885,0.46459 -0.81566,0.5236 -0.0868,0.059 0.0482,0.41088 0.29998,0.78193 0.40102,0.59093 0.5638,0.98118 0.40926,0.98118 -0.0267,0 -0.20371,-0.28809 -0.39333,-0.6402 z m -4.46596,-0.41995 c -0.0932,-0.0932 -0.61026,-0.41241 -1.14897,-0.70931 -0.53871,-0.2969 -0.91054,-0.54128 -0.82628,-0.54305 0.2714,-0.006 2.25161,1.10991 2.25161,1.26853 0,0.19743 -0.0667,0.19353 -0.27636,-0.0162 z m -15.84478,-1.96813 c -0.45393,-0.19505 0.0144,-0.19505 0.62347,0 0.358,0.11466 0.37547,0.14365 0.0891,0.14786 -0.19595,0.003 -0.51659,-0.0636 -0.71254,-0.14786 z m -1.29061,-0.44334 c -0.64337,-0.27965 -1.47047,-1.03537 -1.47047,-1.34357 0,-0.10994 0.19981,0.0376 0.44401,0.32778 0.24421,0.29022 0.78529,0.69318 1.20241,0.89546 0.85324,0.41378 0.71566,0.50788 -0.17595,0.12033 z m 17.55649,0.14352 c 0.12859,-0.0515 0.28223,-0.0451 0.34142,0.0141 0.0592,0.0592 -0.046,0.10129 -0.2338,0.0936 -0.20752,-0.009 -0.24973,-0.0508 -0.10762,-0.10763 z m -0.71254,-0.17813 c 0.12859,-0.0515 0.28223,-0.0451 0.34142,0.0141 0.0592,0.0592 -0.046,0.1013 -0.2338,0.0936 -0.20751,-0.009 -0.24972,-0.0508 -0.10762,-0.10762 z m -0.98748,-0.17989 c 0.17332,-0.0452 0.4138,-0.0422 0.5344,0.007 0.1206,0.0488 -0.0212,0.0857 -0.31513,0.0821 -0.29392,-0.004 -0.39259,-0.0435 -0.21927,-0.0887 z m -1.96287,-0.18228 c 0.26943,-0.0408 0.71031,-0.0408 0.97974,0 0.26943,0.0408 0.049,0.0742 -0.48987,0.0742 -0.53886,0 -0.7593,-0.0334 -0.48987,-0.0742 z m -8.6395,-0.52479 c 0.12246,-0.0494 0.32286,-0.0494 0.44533,0 0.12247,0.0494 0.0223,0.0898 -0.22267,0.0898 -0.24493,0 -0.34513,-0.0404 -0.22266,-0.0898 z m 2.37558,-0.61978 c -0.0115,-0.35289 -0.13193,-0.49983 -0.48166,-0.58761 -0.2565,-0.0644 -0.42794,-0.15547 -0.38098,-0.20243 0.047,-0.047 0.29544,-0.006 0.55218,0.0921 0.38567,0.14663 0.49795,0.11927 0.64605,-0.15746 0.15333,-0.2865 0.0572,-0.40669 -0.66476,-0.83089 -0.4642,-0.27277 -1.40513,-0.725 -2.09095,-1.00494 -0.68581,-0.27995 -1.01978,-0.46142 -0.74214,-0.40327 0.57221,0.11985 0.56346,0.0928 -0.36336,-1.1246 -0.32273,-0.4239 -0.58677,-0.85356 -0.58677,-0.9548 0,-0.10125 0.35193,0.29397 0.78206,0.87827 0.85432,1.1605 1.25102,1.48236 2.89408,2.348 0.96149,0.50656 1.13856,0.54763 1.46961,0.34089 0.48597,-0.30349 0.47652,-0.37876 -0.1353,-1.07838 -0.63412,-0.72511 -1.62837,-2.28209 -1.61877,-2.53495 0.004,-0.10329 0.1355,0.0527 0.29239,0.34661 0.32183,0.6029 1.14892,1.72082 1.80648,2.4417 0.55605,0.60958 1.08847,0.42536 0.98936,-0.34232 -0.0567,-0.43907 -0.0431,-0.42955 0.11765,0.0828 0.2103,0.67 0.64536,0.75821 0.87852,0.17814 l 0.1611,-0.40081 0.0113,0.39029 c 0.006,0.21466 0.0824,0.43422 0.16925,0.48791 0.25745,0.15912 0.58128,-0.36611 1.12336,-1.82206 0.28094,-0.75453 0.46225,-1.1314 0.40293,-0.83748 -0.0593,0.29392 -0.30914,1.03892 -0.55513,1.65554 -0.35415,0.88772 -0.40293,1.17455 -0.23431,1.37773 0.17771,0.21412 0.41923,0.0357 1.45913,-1.0778 0.68539,-0.73391 1.49827,-1.50612 1.8064,-1.71602 0.30812,-0.2099 -0.18126,0.37331 -1.08752,1.29601 -1.5158,1.54331 -1.91641,2.11629 -1.47964,2.11629 0.0924,0 0.86079,-0.33548 1.70742,-0.74552 1.62988,-0.78938 2.82746,-1.89862 3.7714,-3.49321 0.24911,-0.42081 0.48998,-0.72806 0.53527,-0.68277 0.11518,0.11518 -1.04478,1.864 -1.697,2.55847 -0.62938,0.67016 -0.52548,0.81823 0.39569,0.56388 0.3637,-0.10043 0.79706,-0.1468 0.96302,-0.10305 0.22569,0.0595 0.20545,0.0847 -0.0803,0.1002 -0.70353,0.038 -2.81151,0.75673 -4.11585,1.40322 -1.04878,0.51982 -1.29147,0.71786 -1.29147,1.05385 0,0.48408 0.14748,0.50024 1.31978,0.14461 0.48095,-0.1459 1.04207,-0.26086 1.24694,-0.25547 0.20487,0.005 -0.18863,0.15871 -0.87445,0.3407 -0.68581,0.18199 -1.38722,0.38655 -1.55867,0.45458 -0.25088,0.0996 -0.31174,0.029 -0.31174,-0.36165 0,-0.32628 -0.22666,-0.71201 -0.69158,-1.17693 -0.60784,-0.60784 -0.7933,-0.69158 -1.53175,-0.69158 -1.43024,0 -2.38634,0.67046 -2.77231,1.94408 l -0.13962,0.46073 z m 16.06169,-0.24198 c 0.002,-0.3919 0.0385,-0.53124 0.0811,-0.30966 0.0426,0.22158 0.041,0.54222 -0.004,0.71254 -0.0446,0.17031 -0.0795,-0.011 -0.0775,-0.40288 z m -25.30525,-0.35627 c 0.004,-0.29392 0.0436,-0.3926 0.0887,-0.21928 0.0452,0.17332 0.0422,0.4138 -0.007,0.5344 -0.0488,0.12061 -0.0858,-0.0212 -0.0821,-0.31512 z m 18.00136,-0.0385 c 0.26943,-0.0408 0.71031,-0.0408 0.97974,0 0.26943,0.0408 0.049,0.0742 -0.48987,0.0742 -0.53886,0 -0.7593,-0.0334 -0.48987,-0.0742 z m -10.23158,-0.35037 c 0.12859,-0.0515 0.28223,-0.0451 0.34142,0.0141 0.0592,0.0592 -0.046,0.1013 -0.2338,0.0936 -0.20751,-0.009 -0.24972,-0.0507 -0.10762,-0.10762 z m -0.71254,-0.17813 c 0.12859,-0.0515 0.28223,-0.0451 0.34143,0.0141 0.0592,0.0592 -0.046,0.10129 -0.2338,0.0936 -0.20752,-0.009 -0.24973,-0.0508 -0.10763,-0.10762 z m 17.68155,-0.45807 c -0.23785,-0.29304 -0.67874,-0.68298 -0.97973,-0.86653 -0.301,-0.18355 -0.46712,-0.33373 -0.36914,-0.33373 0.34094,0 1.31862,0.69721 1.61766,1.1536 0.42625,0.65054 0.24668,0.68172 -0.26879,0.0467 z m -24.58132,0.17946 c -0.0225,-0.49688 1.19557,-1.71015 1.91842,-1.91093 0.35776,-0.0994 1.13143,-0.16902 1.71927,-0.15478 l 1.06881,0.0259 -1.33601,0.11755 c -1.82668,0.16073 -2.79796,0.74728 -3.25602,1.96629 -0.0799,0.21261 -0.10328,0.20361 -0.11447,-0.044 z m 5.73416,0.0987 c 0.17332,-0.0452 0.4138,-0.0422 0.5344,0.007 0.1206,0.0488 -0.0212,0.0858 -0.31512,0.0821 -0.29393,-0.004 -0.3926,-0.0435 -0.21928,-0.0887 z m 16.84142,-1.60144 c 0.12859,-0.0515 0.28223,-0.0451 0.34142,0.0141 0.0592,0.0592 -0.046,0.10129 -0.2338,0.0936 -0.20752,-0.009 -0.24973,-0.0508 -0.10762,-0.10762 z m -1.78929,-0.18555 c 0.32017,-0.0396 0.80114,-0.0388 1.06881,0.002 0.26767,0.0406 0.006,0.0731 -0.58213,0.0721 -0.58784,-0.001 -0.80685,-0.0343 -0.48668,-0.0739 z m -15.84599,-0.17072 c 0.12859,-0.0515 0.28223,-0.0451 0.34142,0.0141 0.0592,0.0592 -0.046,0.10129 -0.2338,0.0936 -0.20752,-0.009 -0.24973,-0.0508 -0.10762,-0.10762 z m 7.72129,-0.23459 c 0,-0.24493 0.0404,-0.34513 0.0898,-0.22266 0.0494,0.12246 0.0494,0.32287 0,0.44533 -0.0494,0.12247 -0.0898,0.0223 -0.0898,-0.22267 z m -1.43913,-0.10391 c 0.009,-0.20751 0.0507,-0.24972 0.10762,-0.10762 0.0515,0.12859 0.0451,0.28223 -0.0141,0.34142 -0.0592,0.0592 -0.1013,-0.046 -0.0936,-0.2338 z m -0.25926,-0.70458 c -0.1719,-0.44795 -0.12119,-0.56353 0.0888,-0.20242 0.10398,0.17881 0.15152,0.36262 0.10566,0.40849 -0.0459,0.0459 -0.13337,-0.0469 -0.19446,-0.20607 z m 1.91346,-1.59632 c 4.6e-4,-0.97973 0.0304,-1.35781 0.0665,-0.84016 0.0361,0.51764 0.0357,1.31925 -8.5e-4,1.78134 -0.0366,0.46209 -0.0661,0.0386 -0.0656,-0.94118 z m 1.55221,0.34143 c 0.009,-0.20752 0.0508,-0.24973 0.10762,-0.10763 0.0515,0.1286 0.0451,0.28224 -0.0141,0.34143 -0.0592,0.0592 -0.10129,-0.046 -0.0936,-0.2338 z m -9.70037,-0.17018 c -0.0611,-0.1592 -0.10418,-0.42318 -0.0958,-0.58662 0.008,-0.16344 0.0859,-0.0607 0.17224,0.22829 0.16792,0.56223 0.10854,0.84047 -0.0765,0.35833 z m 15.66684,-0.79472 c 0.0655,-0.24493 0.19342,-0.56557 0.28422,-0.71253 0.11473,-0.1857 0.12876,-0.13137 0.046,0.17813 -0.0655,0.24494 -0.19341,0.56558 -0.28421,0.71254 -0.11474,0.1857 -0.12876,0.13137 -0.046,-0.17814 z m -15.91472,-0.71253 c 0,-0.34291 0.0367,-0.48319 0.0815,-0.31174 0.0448,0.17146 0.0448,0.45202 0,0.62347 -0.0448,0.17146 -0.0815,0.0312 -0.0815,-0.31173 z m 8.17333,-0.91281 c -0.0287,-0.65429 -0.50519,-1.94213 -0.87131,-2.3548 -0.16888,-0.19035 -0.54753,-0.49463 -0.84145,-0.67618 -0.29392,-0.18156 -0.45424,-0.3301 -0.35627,-0.3301 0.51142,0 1.39173,0.79189 1.72973,1.55599 l 0.36949,0.83528 0.2864,-0.4199 c 0.15752,-0.23095 0.5389,-0.68913 0.84752,-1.01817 0.74579,-0.79516 1.28649,-0.77886 2.22275,0.067 0.5777,0.52192 0.93283,0.68923 1.64825,0.77652 l 0.9119,0.11127 -0.8353,0.0251 c -0.73585,0.0221 -0.93333,-0.0598 -1.65858,-0.68745 -0.4528,-0.3919 -1.00307,-0.71254 -1.22283,-0.71254 -0.71886,0 -1.83749,1.43348 -2.08515,2.67201 -0.10347,0.51747 -0.12815,0.54399 -0.14515,0.156 z m 8.20841,-0.0669 c 0.004,-0.29392 0.0436,-0.3926 0.0887,-0.21928 0.0452,0.17332 0.0422,0.4138 -0.007,0.5344 -0.0488,0.12061 -0.0858,-0.0212 -0.0821,-0.31512 z m -16.24493,-0.0254 c 0,-0.10656 0.16614,-0.40496 0.3692,-0.6631 0.30089,-0.38253 0.50687,-0.46524 1.11333,-0.44707 l 0.74415,0.0223 -0.75377,0.12284 c -0.41456,0.0676 -0.78183,0.15773 -0.81613,0.20037 -0.0343,0.0426 -0.19612,0.27573 -0.35958,0.51797 -0.16346,0.24224 -0.2972,0.35325 -0.2972,0.24669 z m 15.7267,-1.0622 c -0.21694,-0.23459 -0.32286,-0.42653 -0.23539,-0.42653 0.20921,0 0.7189,0.5142 0.7189,0.72526 0,0.21548 -0.0186,0.20397 -0.48351,-0.29873 z m -12.85661,0.0325 c 0.2559,-0.14658 0.56928,-0.53027 0.69641,-0.85265 0.37163,-0.94242 1.05024,-1.56859 1.67725,-1.54763 l 0.54561,0.0182 -0.61477,0.14473 c -0.66219,0.1559 -0.90399,0.40452 -1.46961,1.51108 -0.43555,0.85207 -0.31987,0.73365 -0.85483,0.87505 l -0.44534,0.1177 z m 11.42517,-0.58183 c 0.17146,-0.0448 0.45202,-0.0448 0.62347,0 0.17146,0.0448 0.0312,0.0815 -0.31173,0.0815 -0.34291,0 -0.48319,-0.0367 -0.31174,-0.0815 z m -1.09158,49.12201 c -0.8087,-1.25121 -1.81336,-4.17379 -2.33108,-6.78115 -0.44067,-2.21934 -0.43709,-2.21525 -3.4204,-3.90407 -4.07883,-2.30897 -5.5523,-3.44546 -7.02627,-5.41932 -0.91721,-1.22827 -1.62941,-3.29062 -1.78921,-5.18108 -0.16756,-1.98229 0.26034,-2.19239 2.34485,-1.15134 2.6559,1.32642 5.27653,4.6222 7.94242,9.98861 0.61742,1.24287 1.17162,2.22946 1.23155,2.19242 0.0599,-0.037 0.006,-0.92561 -0.12087,-1.9746 -0.12641,-1.04899 -0.35224,-4.32015 -0.50184,-7.26925 -0.33624,-6.62841 -0.37849,-6.90638 -1.21627,-8.00311 -0.36124,-0.47288 -0.65679,-0.97388 -0.65679,-1.11333 0,-0.48703 -0.27037,-0.2322 -0.67963,0.64056 -0.22683,0.48373 -0.65791,1.05432 -0.95796,1.26797 -0.74174,0.52816 -2.01556,0.62271 -2.8031,0.20805 -0.87496,-0.46068 -1.23547,-1.05674 -1.40671,-2.32585 -0.0827,-0.61246 -0.2027,-1.16601 -0.26679,-1.2301 -0.0641,-0.0641 -0.53827,0.0211 -1.05372,0.18922 -2.06658,0.6742 -3.49244,0.50126 -4.15074,-0.50344 -0.36314,-0.55421 -0.37626,-1.61962 -0.0301,-2.44174 0.36432,-0.86518 1.79,-2.37792 3.04297,-3.2288 l 1.08124,-0.73425 -1.29865,-0.21882 c -1.51732,-0.25566 -3.06708,-0.96113 -3.60321,-1.64022 -0.49129,-0.6223 -0.41138,-2.03717 0.16041,-2.84017 0.8287,-1.16381 3.02304,-1.64968 5.02086,-1.11173 0.4105,0.11054 0.77844,0.1689 0.81765,0.12969 0.0392,-0.0392 -0.20253,-0.42523 -0.53718,-0.85784 -1.26393,-1.63385 -1.53826,-3.97616 -0.57814,-4.93628 0.41704,-0.41704 0.58574,-0.46184 1.59851,-0.42444 l 1.13226,0.0418 0.32585,-0.7226 c 0.17921,-0.39743 0.52398,-0.92074 0.76615,-1.1629 0.91328,-0.91329 2.56644,-0.36435 3.38881,1.12526 0.45596,0.82592 0.66352,0.92725 0.82931,0.40488 0.0603,-0.18991 0.38911,-0.59072 0.73074,-0.89067 0.77805,-0.68314 1.46085,-0.71086 2.0473,-0.0831 0.77504,0.8296 1.27351,0.98259 2.79146,0.85676 1.19347,-0.0989 1.43722,-0.069 1.79324,0.22026 1.04963,0.85282 0.49716,3.1778 -1.32236,5.56493 l -1.0022,1.31486 0.8672,-0.15698 c 0.47696,-0.0864 1.58864,-0.15221 2.47041,-0.14638 1.77157,0.0117 2.31478,0.20538 3.20641,1.14306 0.47864,0.50336 0.5344,0.68 0.5344,1.69283 0,0.97183 -0.0761,1.23907 -0.54102,1.90061 -0.29756,0.42338 -0.8186,0.95614 -1.15787,1.18392 -0.78721,0.52852 -0.81168,0.62037 -0.33649,1.26311 0.22881,0.30947 0.42799,0.89378 0.47639,1.3975 0.072,0.74925 0.0179,0.94328 -0.40254,1.4429 -0.26714,0.31748 -0.71267,0.6946 -0.99005,0.83804 -0.57051,0.29503 -2.40648,0.34824 -3.08707,0.0895 -0.57787,-0.21971 -0.63918,-0.11187 -0.83841,1.47483 -0.19857,1.58142 -0.89014,3.0576 -1.64932,3.52052 -0.60482,0.3688 -1.7169,0.44943 -2.25163,0.16325 -0.46268,-0.24762 -0.51454,-0.0705 -0.33921,1.15835 0.0839,0.58785 0.23219,2.95258 0.32961,5.25496 0.20957,4.95262 0.37909,7.30352 0.52665,7.30346 0.059,-2e-5 0.37506,-0.86174 0.7023,-1.91494 0.78508,-2.52671 1.57283,-4.19799 2.9544,-6.26794 1.57255,-2.3561 3.39989,-4.3982 5.51915,-6.1678 2.70468,-2.25844 3.04386,-2.05842 2.32035,1.36828 -0.78136,3.70074 -2.06114,6.30786 -4.0256,8.20084 -0.8076,0.77821 -1.6639,1.32035 -3.75922,2.38003 -1.49236,0.75475 -2.8071,1.44797 -2.92164,1.5405 -0.11454,0.0925 -0.30778,0.72513 -0.42942,1.40579 -0.26895,1.50498 -0.0654,3.15988 0.82936,6.74173 0.59834,2.3953 1.4962,4.58741 2.32287,5.67123 0.24353,0.31928 0.35679,0.58052 0.2517,0.58052 -0.1051,0 -0.49844,-0.47554 -0.8741,-1.05676 z m -6.99324,-13.32758 c -2.96312,-3.00622 -4.69524,-5.03229 -4.30222,-5.03229 0.0792,0 0.55946,0.54109 1.06725,1.20241 1.09047,1.42016 6.46564,6.82095 6.46564,6.49645 0,-0.38215 -2.78538,-5.49813 -3.77814,-6.93942 -1.3875,-2.01436 -3.27852,-3.80144 -4.83783,-4.5719 -1.8418,-0.91006 -1.89395,-0.8944 -1.89395,0.56862 0,3.15128 1.63408,6.07382 4.56575,8.16581 1.22922,0.87716 5.57685,3.44317 5.84129,3.44759 0.0904,0.002 -1.31713,-1.50026 -3.12779,-3.33727 z m 7.56386,-1.70911 c 3.84998,-1.84137 5.51008,-3.6257 6.96194,-7.48293 0.79305,-2.10693 1.42795,-5.63762 1.01378,-5.63762 -0.34483,0 -2.4676,1.75493 -4.09602,3.38626 -0.94105,0.94272 -2.21989,2.4302 -2.84188,3.30551 -1.14649,1.61342 -2.94692,5.06759 -3.15077,6.04482 -0.10361,0.49672 -0.0508,0.46541 0.74909,-0.44395 0.4733,-0.53809 1.54594,-1.7405 2.38363,-2.67201 2.1545,-2.39582 3.40651,-3.90378 3.88349,-4.67741 0.22652,-0.3674 0.48932,-0.668 0.58401,-0.668 0.40342,0 -1.30976,2.19672 -4.37142,5.60528 -2.58816,2.88141 -3.59145,4.19209 -3.20892,4.19209 0.0564,0 0.99826,-0.42842 2.09307,-0.95204 z m -1.90816,-11.50061 c 0.71224,-0.43431 1.29979,-1.65651 1.52821,-3.1789 0.33243,-2.21571 0.25399,-2.06628 0.99886,-1.90278 0.36252,0.0796 1.1544,0.14953 1.75973,0.15546 1.29287,0.0127 1.91637,-0.34347 2.43751,-1.39233 0.31485,-0.63367 0.31655,-0.70727 0.0334,-1.44856 -0.61193,-1.60231 -2.38182,-2.73823 -5.15978,-3.31156 -0.89001,-0.18368 -2.07912,-0.33503 -2.64247,-0.33631 -0.86838,-0.002 -1.02427,0.0464 -1.02427,0.31824 0,0.24361 0.31008,0.41353 1.29147,0.70769 1.34404,0.40287 3.16188,1.34771 3.16188,1.64342 0,0.0938 -0.38076,-0.0709 -0.84614,-0.36611 -0.46537,-0.29519 -1.48531,-0.73866 -2.26652,-0.98549 -1.32073,-0.4173 -1.43582,-0.42767 -1.64048,-0.14778 -0.18787,0.25693 -0.0911,0.44573 0.66054,1.28908 0.48436,0.54344 0.83934,1.02938 0.78885,1.07987 -0.0505,0.0505 -0.45626,-0.32484 -0.90171,-0.83406 -0.82227,-0.93998 -1.02891,-1.04619 -1.4799,-0.76073 -0.21134,0.13378 -0.17289,0.3773 0.23701,1.50116 0.26909,0.73782 0.76337,1.7967 1.0984,2.35306 0.66848,1.11013 0.68266,1.14654 0.44626,1.14654 -0.19766,0 -1.9763,-3.53807 -1.97539,-3.92944 3.6e-4,-0.15273 -0.12373,-0.43329 -0.27575,-0.62347 -0.25537,-0.31948 -0.27053,-0.2577 -0.1993,0.81209 0.0424,0.63683 10e-4,2.0928 -0.0915,3.2355 -0.15717,1.9371 -0.14282,2.13749 0.21222,2.9628 0.41097,0.95531 1.02208,1.63296 1.86908,2.07258 0.71007,0.36854 1.30661,0.35047 1.9797,-0.06 z m -6.10614,-0.31781 c 0.67322,-0.34414 1.48064,-2.09117 1.71322,-3.70695 0.25509,-1.77214 0.2385,-4.95361 -0.0272,-5.21933 -0.28313,-0.28312 -0.85505,-0.2738 -0.85505,0.0139 0,0.80406 -2.20897,4.40379 -2.70239,4.40379 -0.10156,0 0.0589,-0.27737 0.35654,-0.61639 0.68348,-0.77845 1.328,-1.88241 1.79341,-3.07187 l 0.36278,-0.92717 -0.53593,-0.38162 -0.53593,-0.38162 -0.9775,0.59242 c -0.53762,0.32584 -1.37983,0.94438 -1.87158,1.37455 -0.49175,0.43017 -0.93384,0.74238 -0.98243,0.69379 -0.12379,-0.12379 1.38506,-1.42623 2.54161,-2.1939 0.97903,-0.64985 1.07985,-0.87764 0.53931,-1.2186 -0.21777,-0.13737 -0.62487,-0.1046 -1.50354,0.12102 -4.44352,1.14102 -8.04685,5.09312 -6.39479,7.01376 0.36172,0.42053 0.58225,0.49926 1.55867,0.55648 0.81659,0.0479 1.42219,-0.0332 2.14738,-0.28727 1.2867,-0.45087 1.53874,-0.29545 1.69005,1.04217 0.15362,1.35806 0.48714,1.9272 1.36427,2.32806 0.79356,0.36266 1.41606,0.32636 2.31911,-0.13526 z m 13.00217,-9.77949 c 0.88652,-0.6503 1.71794,-2.04486 1.72152,-2.88754 0.005,-1.12599 -1.13248,-2.22881 -2.61602,-2.53679 -1.3045,-0.27082 -2.54583,-0.12039 -4.57926,0.55493 -2.21303,0.73497 -3.3859,1.38725 -3.462,1.92537 -0.0517,0.36562 -0.002,0.41027 0.35627,0.32175 1.99253,-0.49193 2.67857,-0.63634 3.48912,-0.73444 0.51436,-0.0623 0.9352,-0.0419 0.9352,0.0452 0,0.0871 -0.54108,0.20547 -1.20241,0.26296 -2.6968,0.23443 -4.46936,1.22524 -2.59359,1.44974 3.73832,0.44743 4.80643,0.72958 6.04957,1.59807 0.47508,0.33191 0.90386,0.60973 0.95284,0.61739 0.049,0.008 0.47593,-0.26985 0.94876,-0.61669 z m -10.07222,0.1833 c 1.38018,-0.96671 1.19745,-3.65905 -0.30092,-4.43389 -1.57409,-0.81399 -3.75754,0.38921 -3.75754,2.07061 0,0.96534 0.43305,1.63385 1.41121,2.17855 0.93846,0.52257 2.0538,0.60041 2.64725,0.18473 z m -6.33341,-0.95848 c 0.61439,-0.1902 1.34079,-0.39295 1.61423,-0.45055 0.81282,-0.17124 0.4021,-0.39033 -0.97097,-0.51794 -1.21163,-0.11261 -1.55522,-0.20082 -1.38175,-0.35475 0.0408,-0.0362 0.59527,-0.002 1.2321,0.0767 1.23375,0.15187 1.31739,0.12389 1.50726,-0.50428 0.10395,-0.34389 0.0251,-0.445 -0.52727,-0.67577 -0.35723,-0.14926 -1.24491,-0.36612 -1.97262,-0.4819 -0.72772,-0.11579 -1.32312,-0.27107 -1.32312,-0.34509 0,-0.18355 1.44572,0.0233 2.84407,0.40683 0.63349,0.17377 1.21465,0.2771 1.29148,0.22963 0.39681,-0.24525 -0.01,-0.61131 -1.419,-1.27708 -2.86009,-1.35136 -4.63156,-1.58958 -6.24274,-0.8395 -0.79114,0.36832 -1.00204,0.57205 -1.30787,1.26344 -0.69923,1.58071 -0.11633,2.49608 2.07298,3.25533 1.86499,0.64678 3.01424,0.70069 4.58322,0.21496 z m 8.68068,-3.46868 c 1.69737,-0.81344 2.67343,-1.64687 3.61852,-3.08976 0.97898,-1.49463 1.37633,-2.50109 1.37633,-3.48614 0,-1.30241 -0.24483,-1.46356 -2.13554,-1.4057 l -1.62766,0.0498 -0.81549,-0.71782 c -0.95679,-0.84219 -1.25788,-0.87993 -2.005,-0.25127 -1.02601,0.86333 -1.13023,1.27555 -1.16567,4.61027 -0.0177,1.66556 -0.0943,3.20865 -0.17021,3.42909 -0.10405,0.30218 -0.0703,0.4008 0.13701,0.4008 0.29002,0 1.32194,-2.41759 1.49983,-3.51384 0.0521,-0.32078 0.16232,-0.58325 0.24503,-0.58325 0.23566,0 -0.0119,1.01729 -0.66542,2.73389 -0.55359,1.4542 -0.61605,1.8976 -0.2673,1.8976 0.0737,0 0.86963,-0.73571 1.76883,-1.6349 0.89919,-0.8992 1.67498,-1.59482 1.72396,-1.54584 0.049,0.049 -0.63147,0.80961 -1.51213,1.69027 -2.16015,2.16015 -2.16119,2.45007 -0.005,1.41678 z m -5.44477,-0.015 c 0.3263,-0.247 0.32039,-0.27703 -0.17813,-0.90477 -1.33549,-1.68166 -1.9882,-2.74738 -1.68265,-2.74738 0.098,0 0.3121,0.26052 0.47585,0.57894 0.57796,1.12389 1.85749,2.62748 2.23595,2.62748 0.33338,0 0.35525,-0.0722 0.24485,-0.80842 -0.0667,-0.44463 -0.24029,-1.09337 -0.38581,-1.44165 -0.14552,-0.34828 -0.2341,-0.72469 -0.19685,-0.83646 0.069,-0.20708 0.45095,0.75259 0.87387,2.19586 0.29692,1.01323 0.69498,1.05179 0.91962,0.0891 0.31275,-1.34037 0.23996,-5.05567 -0.12205,-6.229 -0.7615,-2.46815 -2.93583,-3.15788 -3.87022,-1.22769 -0.60006,1.23954 -0.76391,1.34173 -1.93829,1.20887 -0.96207,-0.10885 -1.04285,-0.0876 -1.40101,0.36768 -0.86394,1.09832 -0.58393,2.86852 0.73657,4.65652 0.61791,0.83668 1.07176,1.21198 2.2724,1.87908 0.82515,0.45847 1.54035,0.83668 1.58934,0.84047 0.049,0.004 0.24094,-0.10808 0.42656,-0.24859 z m 8.00561,41.54942 c -1.0061,-1.12481 -2.07083,-3.97783 -2.7669,-7.41412 -0.47078,-2.32404 -0.28478,-2.11617 -3.52766,-3.94249 -4.24026,-2.388 -6.66171,-4.4908 -7.68196,-6.67102 -0.92893,-1.98508 -1.36446,-5.13414 -0.77744,-5.62132 0.21807,-0.18099 0.42942,-0.16294 1.11334,0.0951 3.18251,1.20066 5.80434,4.19012 8.71638,9.93859 0.7354,1.45171 1.37491,2.60165 1.42114,2.55543 0.0462,-0.0462 -0.0394,-1.31415 -0.19034,-2.81761 -0.1509,-1.50345 -0.3585,-4.6574 -0.46132,-7.00877 -0.24197,-5.53342 -0.3606,-6.34349 -1.04269,-7.12035 -0.2922,-0.33279 -0.58383,-0.77067 -0.64806,-0.97305 -0.13032,-0.41059 -0.44905,-0.50109 -0.44905,-0.1275 0,0.13226 -0.24545,0.57931 -0.54545,0.99344 -1.65277,2.28159 -4.97671,1.29947 -4.97671,-1.47046 0,-1.15443 -0.25927,-1.28516 -1.63067,-0.82224 -2.19297,0.74026 -3.8896,0.15763 -4.15743,-1.42767 -0.23572,-1.39518 1.30851,-3.6612 3.39805,-4.98635 0.88558,-0.56162 0.86238,-0.61197 -0.37103,-0.80529 -2.06407,-0.3235 -3.71458,-1.36547 -3.87303,-2.44504 -0.21482,-1.46364 0.7527,-2.82702 2.33199,-3.28613 0.83976,-0.24413 1.20992,-0.25989 2.26197,-0.0963 0.69184,0.10756 1.41325,0.25518 1.60314,0.32805 0.27204,0.10439 0.22795,-0.0167 -0.20793,-0.57115 -0.87953,-1.11873 -1.18419,-1.86457 -1.27392,-3.11867 -0.0616,-0.86073 -0.008,-1.31823 0.20374,-1.72693 0.39709,-0.76789 0.57146,-0.84579 1.89325,-0.84579 h 1.15788 l 0.35627,-0.73324 c 0.45294,-0.93223 0.77579,-1.31431 1.26899,-1.50182 0.90563,-0.34432 2.55885,0.60245 3.03284,1.73687 0.13495,0.32299 0.27372,0.58726 0.30837,0.58726 0.0346,0 0.27372,-0.31841 0.53125,-0.70757 0.53205,-0.80398 1.38817,-1.32365 1.90854,-1.15849 0.19369,0.0615 0.72243,0.43223 1.17498,0.82392 0.80032,0.69266 0.8477,0.70841 1.73202,0.57564 1.86984,-0.28072 2.6813,0.0286 2.88203,1.09857 0.25208,1.34368 -0.40742,3.01353 -1.93653,4.90334 -0.77075,0.95255 -0.83854,1.09404 -0.46869,0.97822 0.82648,-0.25883 3.61736,-0.32289 4.43733,-0.10186 1.02772,0.27703 2.31016,1.51028 2.33853,2.24883 0.0643,1.67398 -0.6972,2.99583 -2.25078,3.907 -0.30002,0.17596 -0.2907,0.23611 0.15427,0.99539 1.3646,2.32851 -0.47359,4.44213 -3.39378,3.9023 -0.55423,-0.10245 -1.06736,-0.18628 -1.14029,-0.18628 -0.0729,0 -0.18458,0.46092 -0.24811,1.02427 -0.36288,3.21799 -1.64157,4.72461 -3.64974,4.30036 -0.34224,-0.0723 -0.6451,-0.10862 -0.67302,-0.0807 -0.0279,0.0279 0.0294,1.16406 0.12744,2.52477 0.098,1.36071 0.26617,4.26557 0.37369,6.45524 0.10752,2.18968 0.24236,4.10337 0.29964,4.25266 0.0592,0.1542 0.42575,-0.68043 0.84884,-1.93269 1.05501,-3.1226 2.11144,-5.12599 4.02725,-7.6372 1.64002,-2.14972 5.83598,-6.05656 6.50476,-6.05656 0.58286,0 0.65074,0.76627 0.24618,2.77914 -0.90065,4.48121 -2.48367,7.38809 -5.05367,9.28002 -0.57613,0.42412 -2.11485,1.28556 -3.41938,1.91432 -2.28615,1.10188 -2.37842,1.16778 -2.55298,1.82356 -0.37209,1.39782 -0.3951,2.14942 -0.11629,3.79771 0.77107,4.5585 1.66789,7.39086 2.84839,8.99578 0.21619,0.29392 0.45224,0.6346 0.52457,0.75707 0.22051,0.37342 -0.16096,0.24809 -0.54221,-0.17813 z m -7.65291,-14.25074 c -3.05823,-3.10275 -4.35425,-4.63402 -4.12019,-4.86808 0.0463,-0.0464 0.64706,0.61919 1.33494,1.47897 1.10161,1.37692 5.9536,6.28379 6.21351,6.28379 0.0541,0 -0.47661,-1.1022 -1.17941,-2.44934 -2.65788,-5.09467 -4.7778,-7.65603 -7.4197,-8.96477 -0.80961,-0.40106 -1.55551,-0.67759 -1.65756,-0.61452 -0.26121,0.16144 -0.22518,1.74788 0.0715,3.14757 0.59123,2.78938 2.44248,5.06126 5.82033,7.14275 2.18634,1.34726 3.7947,2.24084 4.06277,2.25722 0.13954,0.009 -1.26725,-1.52759 -3.12618,-3.41359 z m 8.31344,-1.76962 c 1.84387,-0.92179 2.40836,-1.30708 3.45813,-2.36028 1.44626,-1.45098 2.2719,-2.76572 2.96264,-4.71766 0.64357,-1.81864 1.34274,-5.31829 1.10918,-5.55185 -0.41674,-0.41673 -4.96401,3.8036 -6.70782,6.22555 -1.39099,1.93192 -3.71712,6.45945 -3.45392,6.72264 0.0336,0.0336 0.3484,-0.31747 0.69951,-0.78023 0.3511,-0.46275 1.58091,-1.88345 2.7329,-3.15711 1.98402,-2.19355 3.72482,-4.33692 3.86575,-4.7597 0.0353,-0.10583 0.16812,-0.15776 0.29521,-0.1154 0.31671,0.10557 -1.3923,2.35722 -3.90304,5.14231 -2.12504,2.35723 -3.55998,4.09833 -3.56016,4.31975 -2.1e-4,0.24932 0.29535,0.13495 2.50162,-0.96802 z m -2.3236,-11.35936 c 0.73451,-0.516 1.1413,-1.42945 1.43168,-3.21483 l 0.27524,-1.69227 0.61615,0.0412 c 2.76465,0.18498 3.54324,0.0131 4.15237,-0.91652 0.36261,-0.55341 0.37871,-1.56086 0.0356,-2.22445 -0.86492,-1.67258 -3.92336,-2.99169 -7.16897,-3.09198 -1.85153,-0.0572 -1.86919,0.27579 -0.0487,0.91836 1.46359,0.5166 3.02242,1.35762 3.02242,1.63065 0,0.0947 -0.42575,-0.0681 -0.9461,-0.3618 -1.02932,-0.58091 -2.82977,-1.25044 -3.3626,-1.25044 -0.66537,0 -0.55625,0.52738 0.29811,1.44076 0.46214,0.49406 0.78762,0.95092 0.72329,1.01525 -0.0643,0.0643 -0.50671,-0.32168 -0.98307,-0.85779 -0.74259,-0.83575 -0.91265,-0.9463 -1.19255,-0.77523 -0.20648,0.12619 -0.30396,0.35531 -0.26527,0.62347 0.0858,0.59477 0.70841,2.02392 1.40059,3.215 0.63281,1.08892 0.67673,1.21697 0.41737,1.21697 -0.2554,0 -1.42802,-2.19001 -1.86105,-3.47574 -0.52518,-1.55936 -0.64203,-1.58686 -0.51924,-0.12222 0.0578,0.68961 0.007,2.1463 -0.11389,3.23707 l -0.219,1.98323 0.47696,0.97486 c 0.94222,1.92583 2.50844,2.61535 3.83071,1.68643 z m -5.875,-0.45703 c 0.29147,-0.27925 0.682,-0.91411 0.86783,-1.41081 0.55477,-1.48274 0.90682,-5.2377 0.62377,-6.65297 -0.12404,-0.62017 -0.74083,-0.90968 -0.90551,-0.42502 -0.0557,0.16385 -0.36987,0.86963 -0.69823,1.56839 -0.58177,1.23803 -2.18583,3.2498 -2.19996,2.75913 -0.004,-0.13509 0.28039,-0.5638 0.63173,-0.95269 0.66644,-0.73766 1.85507,-3.01693 1.85507,-3.55719 0,-0.1717 -0.22719,-0.42967 -0.50486,-0.57326 -0.46063,-0.2382 -0.55819,-0.22899 -1.11334,0.10508 -0.33466,0.20139 -1.15503,0.80566 -1.82305,1.34283 -0.66802,0.53716 -1.26871,0.92253 -1.33487,0.85637 -0.14143,-0.14143 0.65745,-0.84251 2.31981,-2.03585 1.0683,-0.76688 1.17079,-0.89184 0.96372,-1.17503 -0.18505,-0.25307 -0.37199,-0.29213 -0.92823,-0.19392 -2.99017,0.52792 -6.24454,2.71115 -7.17426,4.81293 -0.44724,1.01106 -0.4697,1.37233 -0.12659,2.03584 0.51245,0.99096 1.75734,1.16576 3.72979,0.52373 l 1.22255,-0.39794 0.33613,0.41509 c 0.22088,0.27279 0.33652,0.69842 0.33729,1.2415 0.002,1.54456 0.90874,2.38932 2.45212,2.28499 0.73874,-0.0499 1.05223,-0.17182 1.46909,-0.5712 z m 2.51333,-9.27152 c 1.47563,-0.76308 1.34877,-3.56727 -0.19824,-4.38189 -1.17437,-0.6184 -2.55138,-0.23941 -3.34279,0.92001 -0.79614,1.16635 -0.28552,2.59114 1.19705,3.34011 0.93317,0.47142 1.60076,0.5061 2.34398,0.12177 z m 9.95429,-0.12177 c 0.84688,-0.57654 1.60487,-1.58714 1.78777,-2.38359 0.12967,-0.56466 0.0869,-0.83411 -0.23664,-1.49083 -0.58069,-1.17869 -1.51574,-1.60321 -3.53125,-1.60321 -1.76981,0 -3.27124,0.39238 -5.23597,1.36836 -1.45606,0.7233 -1.5951,0.83574 -1.46208,1.18239 0.0856,0.22302 0.25955,0.21454 1.25356,-0.0611 1.4701,-0.40764 3.42504,-0.62393 3.56677,-0.3946 0.0622,0.10066 -0.39196,0.22258 -1.09145,0.293 -1.95356,0.19666 -3.60281,0.68998 -3.60281,1.07766 0,0.14231 0.62329,0.28418 1.82588,0.41559 2.18189,0.23843 3.85226,0.72594 4.94322,1.44274 0.98371,0.64632 1.05072,0.65209 1.783,0.15358 z m -16.55149,-0.81953 c 0.5297,-0.18131 1.26369,-0.38534 1.6311,-0.45341 0.83024,-0.1538 0.87662,-0.46387 0.0694,-0.46387 -0.96495,0 -2.25154,-0.21423 -2.25154,-0.37491 0,-0.0816 0.64129,-0.0989 1.42508,-0.0385 l 1.42507,0.1099 v -0.53734 c 0,-0.50231 -0.067,-0.55613 -1.02833,-0.82586 -0.56559,-0.1587 -1.40727,-0.34048 -1.87041,-0.40396 -0.46314,-0.0635 -0.84208,-0.1922 -0.84208,-0.28605 0,-0.2295 1.59059,-0.004 2.93922,0.41579 0.58784,0.18319 1.08026,0.33411 1.09428,0.33537 0.014,0.001 0.071,-0.11638 0.12668,-0.26144 0.20636,-0.53778 -3.25746,-2.06982 -5.23887,-2.31714 -1.87028,-0.23345 -3.45296,0.5944 -3.88347,2.03129 -0.47873,1.59788 0.81147,2.73835 3.63119,3.20977 1.38345,0.23129 1.74159,0.21325 2.77269,-0.13969 z m 9.1505,-3.61647 c 1.24464,-0.59722 1.74734,-0.96608 2.60973,-1.91494 1.2273,-1.35036 2.29572,-3.38299 2.29572,-4.36752 0,-1.35361 -0.58103,-1.75689 -2.17186,-1.50742 -1.2086,0.18952 -1.71736,0.0303 -2.67916,-0.83866 -0.52234,-0.4719 -0.78714,-0.59569 -1.08215,-0.50589 -0.58753,0.17885 -1.00816,0.61267 -1.46223,1.50805 -0.36985,0.72931 -0.39549,0.93692 -0.26381,2.13646 0.13039,1.18785 -0.0603,4.4689 -0.28045,4.82509 -0.1537,0.2487 0.31888,0.38268 0.47933,0.13589 0.0878,-0.13502 0.4119,-1.04709 0.72026,-2.02683 0.30837,-0.97974 0.63663,-1.8615 0.72949,-1.95947 0.30407,-0.32085 -0.0624,1.37009 -0.59835,2.76107 -0.47535,1.23365 -0.6362,1.95948 -0.43422,1.95948 0.0452,0 0.84784,-0.76562 1.78361,-1.70139 0.93576,-0.93576 1.77809,-1.65398 1.87184,-1.59604 0.0938,0.0579 -0.58862,0.84857 -1.5164,1.75695 -1.42659,1.39677 -1.95437,2.07488 -1.6149,2.07488 0.0396,0 0.76567,-0.33287 1.61355,-0.73971 z m -5.58394,0.0162 c 0.34001,-0.18197 0.33198,-0.21347 -0.21261,-0.83372 -0.79285,-0.90301 -1.80364,-2.52016 -1.72418,-2.75852 0.0365,-0.10968 0.4362,0.35558 0.8881,1.0339 0.95722,1.43684 1.80679,2.30333 2.08796,2.12956 0.24653,-0.15236 0.0784,-1.14195 -0.37415,-2.20248 -0.37801,-0.88581 -0.38448,-0.92044 -0.17193,-0.92044 0.18126,0 0.83374,1.59302 1.00322,2.44935 0.12284,0.62066 0.53466,0.77942 0.69309,0.2672 0.053,-0.17145 0.17511,-1.01354 0.2713,-1.8713 0.22294,-1.98803 -0.008,-4.12156 -0.58285,-5.37642 -0.35674,-0.77923 -0.5735,-1.00766 -1.28128,-1.35029 -0.7736,-0.3745 -0.89431,-0.3887 -1.31348,-0.15458 -0.25387,0.1418 -0.67341,0.6481 -0.93231,1.12512 -0.58874,1.08476 -0.84956,1.2302 -1.93779,1.08053 -0.7803,-0.10732 -0.91935,-0.0724 -1.32472,0.33301 -0.38899,0.38898 -0.45292,0.61084 -0.45292,1.57179 0,1.96663 1.28986,3.82232 3.51343,5.05467 1.16346,0.64481 1.35447,0.68842 1.85112,0.42262 z m 7.82493,41.43814 c -1.08382,-1.57527 -1.87767,-3.77805 -2.59589,-7.20304 -0.23369,-1.11439 -0.44832,-2.04215 -0.47695,-2.06169 -0.0286,-0.0195 -0.30114,-0.20728 -0.60557,-0.4172 -0.30443,-0.20992 -1.62708,-0.99463 -2.93921,-1.74381 -2.7603,-1.57601 -4.43994,-2.77207 -5.48497,-3.90579 -1.79584,-1.94825 -2.56908,-3.89023 -2.58846,-6.50088 l -0.0126,-1.69227 0.62347,0.0168 c 1.79114,0.0481 4.82855,2.5398 6.93354,5.68774 0.65901,0.98555 1.7797,2.9379 2.49041,4.33857 0.71071,1.40066 1.31706,2.51959 1.34745,2.48649 0.0304,-0.0331 -0.0538,-1.10225 -0.18719,-2.37591 -0.13334,-1.27366 -0.32668,-4.31059 -0.42964,-6.74872 -0.2481,-5.87533 -0.36508,-6.65243 -1.15773,-7.69087 -0.34349,-0.44999 -0.62453,-0.93227 -0.62453,-1.07173 0,-0.45965 -0.28083,-0.26426 -0.50292,0.34992 -0.25529,0.70598 -1.00217,1.50416 -1.63469,1.74697 -0.68125,0.26152 -1.85648,0.20584 -2.4819,-0.11757 -0.77767,-0.40215 -1.25745,-1.25755 -1.25825,-2.24336 -3.7e-4,-0.44665 -0.10087,-0.94408 -0.22334,-1.1054 -0.20587,-0.27118 -0.29656,-0.26747 -1.2024,0.0492 -0.53886,0.18838 -1.40456,0.34512 -1.92379,0.34832 -3.60214,0.0222 -3.24848,-3.86186 0.59252,-6.50726 1.10759,-0.76283 1.11508,-0.74712 -0.53914,-1.1301 -2.46163,-0.56991 -3.63943,-1.70991 -3.37748,-3.26907 0.16905,-1.00616 1.28849,-2.14857 2.4008,-2.45005 0.75369,-0.20428 2.14619,-0.15687 3.47056,0.11818 l 0.5344,0.11098 -0.38115,-0.4252 c -1.52481,-1.70101 -1.85758,-4.54993 -0.64305,-5.50528 0.41573,-0.32702 0.62185,-0.36232 1.51201,-0.25901 l 1.03067,0.11962 0.35622,-0.80529 c 0.19592,-0.44292 0.60944,-1.01837 0.91894,-1.2788 0.46716,-0.39309 0.671,-0.45369 1.20029,-0.35686 0.97931,0.17916 1.66574,0.65805 2.12051,1.47937 0.22778,0.41138 0.46826,0.74746 0.5344,0.74684 0.0661,-6.2e-4 0.25585,-0.23943 0.42157,-0.53069 0.32699,-0.57467 1.29245,-1.24779 1.79125,-1.24886 0.17117,-3.7e-4 0.61205,0.26739 0.97974,0.59502 1.00589,0.8963 1.20845,0.96668 2.29266,0.79666 1.77851,-0.27889 2.7534,0.33261 2.76972,1.73731 0.0106,0.91301 -0.75811,2.78826 -1.5937,3.88781 -0.36441,0.47952 -0.76358,1.00712 -0.88706,1.17245 -0.20959,0.28063 -0.14449,0.28382 0.97974,0.0479 1.84923,-0.38802 3.83767,-0.0716 4.83766,0.76985 0.28992,0.24395 0.66375,0.80128 0.83073,1.2385 0.26113,0.68375 0.27234,0.90658 0.0802,1.59294 -0.12288,0.4389 -0.40745,1.04742 -0.63237,1.35229 -0.38807,0.52599 -1.34824,1.33293 -1.74239,1.46431 -0.10032,0.0334 -0.003,0.30381 0.21685,0.60082 0.46678,0.63135 0.72458,1.61916 0.59689,2.28711 -0.0495,0.25922 -0.34222,0.73864 -0.65038,1.06538 -0.87581,0.92863 -2.16923,1.15699 -4.0285,0.71124 -0.44148,-0.10584 -0.45192,-0.0835 -0.65413,1.39936 -0.11301,0.82881 -0.36853,1.82653 -0.56782,2.21716 -0.6956,1.3635 -2.02147,2.07061 -3.10795,1.65753 -0.71104,-0.27034 -0.71295,-0.2685 -0.59069,0.56712 0.0609,0.41639 0.23252,3.16188 0.38133,6.1011 0.36365,7.18255 0.33182,7.05985 1.17491,4.52916 1.64107,-4.92599 4.7039,-9.22568 9.00851,-12.64639 1.47887,-1.17521 1.9499,-1.30462 2.13043,-0.58534 0.1833,0.73034 -0.58509,4.23505 -1.34167,6.11947 -1.06961,2.66408 -2.39238,4.45475 -4.2192,5.71163 -0.79226,0.54509 -3.86463,2.12642 -4.13142,2.12642 -0.0897,0 -0.48505,0.23319 -0.87849,0.51819 -0.6682,0.48404 -0.72743,0.59965 -0.89882,1.75441 -0.14871,1.00197 -0.12265,1.60418 0.13752,3.1781 0.72105,4.36195 1.68052,7.25099 2.97193,8.94871 0.30286,0.39814 0.39279,0.65306 0.27275,0.7731 -0.12005,0.12005 -0.36575,-0.0922 -0.74514,-0.6436 z m -7.33538,-13.77184 c -2.87522,-2.92059 -4.25089,-4.54511 -4.25089,-5.01985 0,-0.39131 0.34016,-0.16915 0.73104,0.47743 0.40338,0.66728 6.5779,7.04571 6.70115,6.92246 0.10605,-0.10605 -2.51615,-4.95942 -3.31533,-6.13627 -1.21516,-1.7894 -2.41652,-3.13202 -3.61077,-4.03532 -1.20336,-0.91019 -2.91524,-1.76748 -3.19014,-1.59759 -0.24201,0.14958 -0.19775,1.59538 0.0905,2.95513 0.54156,2.55499 2.16179,4.76797 4.80304,6.5602 0.88908,0.60328 4.93238,3.01381 5.07959,3.02833 0.041,0.004 -1.32613,-1.41548 -3.03815,-3.15452 z m 7.73709,-1.79912 c 0.99958,-0.47516 2.31852,-1.23659 2.93097,-1.69207 1.7531,-1.30377 3.26292,-3.56924 4.1137,-6.17258 0.33006,-1.00996 1.09651,-4.38556 1.09651,-4.82923 0,-0.38604 -0.59961,-0.0771 -1.92073,0.98953 -3.41102,2.754 -6.61278,7.04729 -8.04445,10.78693 l -0.37508,0.97974 0.85038,-0.97761 c 0.4677,-0.53769 1.57604,-1.78018 2.46297,-2.76108 2.02447,-2.23898 3.28003,-3.75913 3.80078,-4.60172 0.4059,-0.65676 0.73253,-0.84986 0.73193,-0.4327 -5.1e-4,0.35719 -1.89019,2.77728 -3.99684,5.11872 -1.88585,2.09601 -3.66261,4.22017 -3.66261,4.37872 0,0.1516 0.2178,0.0665 2.01247,-0.78665 z m -1.78484,-11.60616 c 0.66662,-0.52437 1.14991,-1.68399 1.36667,-3.27924 0.23289,-1.71399 0.36523,-1.91217 1.13036,-1.69273 1.65596,0.47492 3.42881,0.0566 3.98158,-0.93957 1.06033,-1.91078 -1.45843,-4.29627 -5.20044,-4.92527 -2.29152,-0.38519 -3.23623,-0.41829 -3.35168,-0.11742 -0.0592,0.1542 -0.009,0.31113 0.11208,0.34874 2.52603,0.78638 4.40582,1.66502 4.40582,2.05934 0,0.28727 -0.3244,0.20068 -1.05194,-0.28078 -0.71199,-0.47117 -2.9061,-1.31567 -3.43544,-1.32227 -0.59577,-0.007 -0.51028,0.37277 0.28934,1.28687 0.7232,0.82672 1.0088,1.38138 0.7113,1.38138 -0.0562,0 -0.50134,-0.43673 -0.98919,-0.97052 -0.89369,-0.97784 -1.4025,-1.13229 -1.4025,-0.42573 0,0.45713 0.96962,2.73318 1.5228,3.57458 0.46232,0.7032 0.5464,1.02809 0.26605,1.02809 -0.24895,0 -1.07454,-1.47759 -1.71989,-3.07816 -0.30888,-0.76604 -0.59103,-1.42259 -0.62701,-1.45901 -0.036,-0.0364 -0.04,0.73388 -0.009,1.71177 0.0311,0.97789 -0.0322,2.35017 -0.14069,3.0495 -0.1935,1.24713 -0.18662,1.29318 0.35857,2.40061 0.37578,0.76332 0.7676,1.26787 1.2095,1.55746 0.83507,0.54726 1.9446,0.58708 2.57354,0.0924 z m -6.31673,-0.18279 c 1.338,-0.81574 1.99994,-3.6705 1.84715,-7.96616 -0.0309,-0.86992 -0.0644,-0.9352 -0.4786,-0.9352 -0.26054,0 -0.44534,0.10231 -0.44534,0.24657 0,0.13562 -0.31658,0.87909 -0.70352,1.65217 -0.81038,1.6191 -1.79749,2.85945 -2.11799,2.66137 -0.14891,-0.092 0.006,-0.38323 0.50823,-0.95343 0.70585,-0.8019 1.63699,-2.52059 1.86708,-3.44626 0.0984,-0.39604 0.0366,-0.49555 -0.42721,-0.68767 -0.4855,-0.20111 -0.62206,-0.17771 -1.30405,0.22346 -0.41896,0.24645 -1.23924,0.86692 -1.82284,1.37882 -0.70485,0.61826 -1.08765,0.85106 -1.1402,0.69341 -0.0921,-0.27642 1.01163,-1.29809 2.39288,-2.21491 1.01434,-0.67328 1.05817,-0.73574 0.80121,-1.1417 -0.13678,-0.21609 -0.3339,-0.20975 -1.37781,0.0443 -4.4369,1.07982 -8.24139,5.20062 -6.45276,6.98925 0.65485,0.65485 1.62859,0.74018 3.1552,0.27649 0.6842,-0.20782 1.36901,-0.37786 1.52181,-0.37786 0.39066,0 0.64662,0.56298 0.64662,1.42221 0,1.95939 1.91683,3.11874 3.53014,2.13513 z m 2.58658,-9.44945 c 0.57006,-0.15829 0.74308,-0.32422 1.04149,-0.99882 0.87402,-1.97587 -0.48073,-3.99312 -2.44098,-3.63466 -0.96497,0.17645 -1.59834,0.62281 -1.95738,1.37943 -0.56968,1.20052 0.0361,2.40275 1.55916,3.09407 0.89071,0.4043 0.91127,0.40613 1.79771,0.15998 z m 10.0578,-0.0595 c 1.10936,-0.57956 1.99516,-1.96649 1.99516,-3.12389 0,-0.95217 -0.94968,-2.05242 -2.0232,-2.34398 -1.16435,-0.31622 -3.5504,-0.0976 -5.10216,0.46752 -1.90385,0.69332 -3.38455,1.47231 -3.38455,1.7806 0,0.34465 0.20354,0.33468 1.87041,-0.0916 1.43258,-0.3664 3.11734,-0.4755 3.11734,-0.20188 0,0.0849 -0.66132,0.2407 -1.4696,0.3462 -2.25273,0.29403 -3.96332,0.93939 -3.11735,1.1761 0.12247,0.0343 0.98887,0.14985 1.92534,0.25686 2.0781,0.23746 3.73421,0.73127 4.79922,1.43102 0.97154,0.63833 0.81362,0.60388 1.38939,0.30308 z m -16.3979,-0.99154 c 0.56374,-0.1937 1.34562,-0.42227 1.73752,-0.50795 l 0.71254,-0.15578 -0.62347,-0.10768 c -0.34291,-0.0592 -1.00424,-0.15621 -1.46961,-0.21551 -1.45323,-0.18517 -0.97177,-0.46107 0.57894,-0.33174 l 1.42507,0.11884 v -0.46468 c 0,-0.26251 -0.13563,-0.53466 -0.31174,-0.62554 -0.31783,-0.164 -1.55924,-0.45653 -2.76108,-0.65061 -0.3674,-0.0593 -0.668,-0.19473 -0.668,-0.30089 0,-0.23842 1.43108,-0.0747 2.90417,0.33215 0.73569,0.20322 1.08884,0.23047 1.22479,0.0945 0.23343,-0.23342 -2.11967,-1.4628 -3.6532,-1.90861 -3.02538,-0.8795 -5.4609,0.16648 -5.46285,2.34613 -5.7e-4,0.6333 0.0916,0.82017 0.61907,1.25494 0.74835,0.61686 2.0984,1.12442 3.45497,1.29894 0.55117,0.0709 1.06192,0.13944 1.13501,0.15228 0.0731,0.0128 0.59413,-0.13512 1.15787,-0.32881 z m 11.5837,-5.23601 c 2.0605,-2.23538 3.06533,-4.92496 2.17324,-5.81704 -0.31673,-0.31674 -0.55311,-0.35488 -1.93168,-0.31173 l -1.57079,0.0492 -0.74084,-0.668 c -0.96149,-0.86696 -1.4176,-0.85776 -2.23322,0.045 -0.35431,0.39218 -0.65901,0.81302 -0.6771,0.93521 -0.0181,0.12218 -0.0394,1.26424 -0.0472,2.5379 -0.008,1.27366 -0.0783,2.83678 -0.15642,3.47361 -0.13291,1.08311 -0.12349,1.13487 0.14585,0.80161 0.15837,-0.19595 0.54416,-1.1779 0.85733,-2.18211 0.53324,-1.70992 0.83659,-2.25454 0.83659,-1.50197 0,0.4384 -0.48838,2.07002 -0.92838,3.10161 -0.6602,1.54784 -0.28344,1.46545 1.53922,-0.3366 0.97433,-0.96331 1.78896,-1.63295 1.90172,-1.56326 0.1197,0.074 -0.44055,0.76239 -1.42485,1.7508 -0.89216,0.89589 -1.62212,1.72839 -1.62212,1.85 0,0.42063 3.08037,-1.29815 3.87869,-2.16423 z m -7.97913,1.67507 c 0.225,-0.14227 0.20459,-0.24022 -0.13864,-0.66528 -0.74353,-0.92078 -1.81748,-2.6 -1.81748,-2.8418 0,-0.48846 0.33728,-0.21307 0.85193,0.69562 0.69875,1.23373 1.87563,2.54614 2.13787,2.38407 0.24736,-0.15288 0.12068,-0.92467 -0.35195,-2.14428 -0.20219,-0.52176 -0.27354,-0.93854 -0.17718,-1.0349 0.18391,-0.18391 0.84479,1.36198 1.02531,2.39832 0.0666,0.38267 0.21857,0.668 0.35566,0.668 0.36813,0 0.52265,-1.10596 0.52265,-3.74081 0,-2.90504 -0.28927,-3.97381 -1.30131,-4.80802 -1.13338,-0.93423 -2.20859,-0.63281 -2.8011,0.78526 -0.35019,0.83812 -0.67335,1.03329 -1.6364,0.98831 -1.33394,-0.0623 -1.44931,-0.027 -1.73825,0.53172 -0.45349,0.87696 -0.34677,2.12914 0.28603,3.35612 0.6959,1.34931 1.42925,2.06783 2.96272,2.90277 1.34171,0.73054 1.44694,0.76088 1.82014,0.5249 z"
       transform="matrix(0.7885942,0,0,0.7885942,-49.554011,-99.841926)" /></g></svg>
