<?xml version="1.0" encoding="UTF-8" standalone="no"?>
<!-- Created with Inkscape (http://www.inkscape.org/) -->

<svg
   width="25.3211mm"
   height="44.014732mm"
   viewBox="0 0 25.3211 44.014732"
   version="1.1"
   id="svg1"
   xml:space="preserve"
   sodipodi:docname="svg_flower01.svg"
   inkscape:version="1.3.2 (091e20e, 2023-11-25)"
   xmlns:inkscape="http://www.inkscape.org/namespaces/inkscape"
   xmlns:sodipodi="http://sodipodi.sourceforge.net/DTD/sodipodi-0.dtd"
   xmlns="http://www.w3.org/2000/svg"
   xmlns:svg="http://www.w3.org/2000/svg"><sodipodi:namedview
     id="namedview1"
     pagecolor="#ffffff"
     bordercolor="#000000"
     borderopacity="0.25"
     inkscape:showpageshadow="2"
     inkscape:pageopacity="0.0"
     inkscape:pagecheckerboard="0"
     inkscape:deskcolor="#d1d1d1"
     inkscape:document-units="mm"
     inkscape:zoom="1.4186538"
     inkscape:cx="47.932766"
     inkscape:cy="83.177447"
     inkscape:window-width="1312"
     inkscape:window-height="449"
     inkscape:window-x="0"
     inkscape:window-y="38"
     inkscape:window-maximized="0"
     inkscape:current-layer="svg1" /><defs
     id="defs1" /><g
     id="layer1"
     transform="translate(-47.172296,-4.2925051)"><path
       style="fill:#0000ff;fill-opacity:1;stroke:none;stroke-width:0.163037;stroke-dasharray:none;stroke-opacity:1"
       d="m 53.242179,47.936535 c -0.0785,-0.203877 -0.179218,-0.556689 -0.223817,-0.784019 -0.04459,-0.22733 -0.134375,-1.592118 -0.199492,-3.032866 L 52.70049,41.500107 52.407301,40.623948 C 52.246057,40.14206 51.906656,39.353517 51.653085,38.871621 51.399514,38.389733 50.67325,37.390269 50.03916,36.65058 49.405077,35.910891 48.682425,34.97012 48.433281,34.559977 48.184128,34.149825 47.817198,33.329579 47.617877,32.737194 l -0.36239,-1.077058 -0.0657,-1.347942 c -0.04125,-0.846266 -0.0086,-1.494072 0.08789,-1.740575 0.09227,-0.235823 0.20245,-0.343492 0.275866,-0.269589 0.06725,0.06768 0.187354,0.547647 0.266956,1.066605 0.07964,0.518957 0.277798,1.307503 0.440436,1.752324 l 0.295708,0.808764 1.735289,1.792644 1.735297,1.792646 0.455468,0.970639 c 0.250506,0.533847 0.457652,0.890148 0.46031,0.791788 0.0024,-0.09837 0.132092,-1.008235 0.287621,-2.021916 0.161178,-1.050519 0.250979,-2.117333 0.208834,-2.480873 -0.04068,-0.350798 -0.243047,-1.139341 -0.449729,-1.752325 l -0.375783,-1.114515 -0.0094,-2.898074 -0.0094,-2.898074 -0.174791,-0.606574 c -0.09614,-0.333615 -0.264584,-0.780351 -0.374333,-0.992746 l -0.199532,-0.386172 0.156328,-0.153004 0.156328,-0.153005 0.334681,0.404382 c 0.184085,0.222411 0.506042,0.737999 0.715471,1.145751 0.209437,0.407752 0.534238,1.228078 0.721779,1.822946 0.18755,0.594867 0.383406,1.307591 0.435227,1.583831 0.05185,0.276239 0.157396,0.502253 0.234618,0.502253 h 0.140391 l -0.08359,-1.920817 c -0.04598,-1.056448 -0.209633,-2.770019 -0.36367,-3.807934 -0.154045,-1.037915 -0.336508,-2.100366 -0.40548,-2.361002 -0.06896,-0.260636 -0.33919,-0.700544 -0.600489,-0.977571 -0.261299,-0.277027 -0.475089,-0.554921 -0.475089,-0.617543 0,-0.06262 -0.106153,-0.235285 -0.23589,-0.383698 -0.129744,-0.148413 -0.452647,-0.310077 -0.717573,-0.359254 -0.264918,-0.04918 -0.760403,-0.266172 -1.10106,-0.482212 -0.340657,-0.21604 -0.876127,-0.715723 -1.189924,-1.110408 -0.313796,-0.394685 -0.749137,-1.09688 -0.967419,-1.560435 -0.21829,-0.463554 -0.428566,-1.079006 -0.467287,-1.367668 l -0.07043,-0.524841 0.232172,-0.393042 c 0.127699,-0.216173 0.407624,-0.510583 0.622059,-0.654244 0.214442,-0.143662 0.390065,-0.332371 0.390277,-0.419353 2.12e-4,-0.08698 0.15742,-0.3447765 0.349355,-0.5728755 l 0.348964,-0.4147246 h 0.429805 c 0.236395,0 0.568966,0.097472 0.739054,0.2166057 l 0.309248,0.2166057 0.302311,-0.2840027 c 0.173079,-0.1626014 0.471453,-0.2803302 0.698,-0.2754105 0.21763,0.00473 0.85062,0.2321911 1.406649,0.5054782 l 1.010958,0.4968857 0.31572,0.47178 0.315713,0.471779 -0.0525,1.213147 -0.0525,1.213147 -0.362129,0.786645 c -0.199166,0.432655 -0.55576,1.031128 -0.792415,1.32994 l -0.430303,0.543295 0.158553,0.592812 c 0.08721,0.326046 0.158896,0.880063 0.159303,1.231149 4.16e-4,0.351086 0.05861,0.850638 0.129313,1.110117 0.07068,0.259479 0.259807,1.229997 0.42021,2.156706 0.176528,1.01986 0.325006,2.616022 0.376167,4.043825 l 0.08452,2.358898 0.455321,-1.280544 c 0.250424,-0.7043 0.578144,-1.504623 0.72826,-1.778496 l 0.27294,-0.497952 -0.08038,-1.456563 c -0.04418,-0.80111 -0.261494,-2.427082 -0.482849,-3.613271 -0.221355,-1.186188 -0.421915,-2.393606 -0.445694,-2.683151 -0.0247,-0.300973 0.02054,-0.54835 0.105729,-0.577592 0.08192,-0.02813 0.515922,0.572712 0.964452,1.335208 0.448531,0.762497 0.885151,1.628988 0.970272,1.925535 0.08511,0.296547 0.197031,1.015845 0.248689,1.59844 l 0.09393,1.059262 0.787394,-1.148444 c 0.433066,-0.631645 0.933491,-1.285694 1.112049,-1.453443 0.178566,-0.16775 0.324655,-0.370248 0.324655,-0.449995 0,-0.07975 -0.205524,-0.308983 -0.456715,-0.50941 C 59.518832,18.02026 59.17996,17.5808 59.016964,17.244109 l -0.296343,-0.612166 0.04117,-1.087142 0.04117,-1.087144 -0.425778,-0.269585 C 58.14299,14.0398 57.826429,13.660355 57.673704,13.344861 l -0.277692,-0.573625 0.0024,-0.867303 0.0024,-0.867303 0.301064,-0.491048 c 0.16568,-0.270076 0.409843,-0.6424001 0.542678,-0.8273864 0.132834,-0.1849856 0.450071,-0.8383509 0.704987,-1.4519224 0.254908,-0.6135722 0.595133,-1.255733 0.75605,-1.4270243 0.160917,-0.1712912 0.55558,-0.4118788 0.877023,-0.5346389 l 0.584446,-0.2232005 0.810586,0.091707 0.810578,0.091708 V 5.8837413 c 0,-0.2095959 0.09499,-0.5167065 0.2111,-0.6824684 0.116098,-0.1657627 0.434549,-0.4144858 0.707669,-0.5527197 0.273111,-0.1382331 0.683156,-0.2915675 0.911212,-0.3407426 0.256978,-0.055408 1.02581,0.041843 2.021916,0.2557728 0.883993,0.1898505 1.920466,0.4351507 2.303268,0.5451124 0.449533,0.1291308 0.817564,0.3444036 1.039286,0.6079068 0.188813,0.2243874 0.3825,0.6169692 0.430417,0.8724037 0.04793,0.2554345 0.02217,0.6506689 -0.05715,0.8782983 l -0.144279,0.413872 0.163607,0.050036 c 0.08999,0.027521 0.325748,0.085412 0.523911,0.1286506 0.198155,0.043237 0.538453,0.2285308 0.756213,0.4117605 l 0.395918,0.3331451 0.221045,0.787789 c 0.133691,0.4764702 0.221037,1.2911722 0.221037,2.0615932 v 1.273804 l -0.24956,0.465339 c -0.13726,0.255937 -0.407706,0.583407 -0.600986,0.727712 -0.210668,0.157286 -0.65059,0.287183 -1.098378,0.324316 l -0.746953,0.06195 v 0.526814 c 0,0.289748 -0.08446,0.722003 -0.187696,0.960566 -0.103226,0.238564 -0.418833,0.66678 -0.701351,0.951593 -0.28251,0.284812 -0.779275,0.700592 -1.103922,0.923955 -0.324646,0.223362 -0.93283,0.526514 -1.351517,0.67367 L 65.69178,18.811427 65.193491,18.662136 C 64.919435,18.580026 64.5366,18.324351 64.342741,18.093971 64.14889,17.86359 63.94957,17.715813 63.899803,17.765577 c -0.04973,0.04977 -0.218453,0.344659 -0.374862,0.655321 -0.156409,0.31066 -0.481749,0.680106 -0.72297,0.820987 -0.241229,0.140883 -0.67463,0.25615 -0.96314,0.25615 -0.288501,0 -0.687444,-0.106729 -0.886528,-0.237175 l -0.361974,-0.237174 -0.250384,0.319889 c -0.137709,0.175939 -0.664016,0.926462 -1.169568,1.66783 -0.505552,0.741368 -1.111503,1.688941 -1.346554,2.105718 -0.23505,0.416776 -0.427368,0.817746 -0.427368,0.891043 0,0.07329 0.621742,-0.07184 1.381648,-0.322528 0.759897,-0.250687 1.545987,-0.575835 1.746865,-0.722551 0.200869,-0.146715 0.428338,-0.266755 0.505479,-0.266755 0.07712,0 0.140252,0.191203 0.140252,0.424894 v 0.424895 l -0.707669,0.706346 -0.707669,0.706347 -0.732141,0.2167 c -0.402668,0.119186 -0.99807,0.216701 -1.323101,0.216701 -0.325038,0 -0.714598,0.06616 -0.8657,0.14703 -0.151103,0.08087 -0.443468,0.520633 -0.649701,0.977258 -0.206234,0.456625 -0.651854,1.679431 -0.990253,2.717345 -0.338399,1.037916 -0.705989,2.251063 -0.816863,2.695883 -0.110873,0.444824 -0.324165,1.445666 -0.47398,2.224101 -0.149814,0.778443 -0.335073,2.004365 -0.411684,2.72427 -0.07663,0.719913 -0.134513,1.720771 -0.12866,2.224114 0.0057,0.503343 0.04337,0.824183 0.08327,0.712984 0.03994,-0.111207 0.24793,-0.647729 0.462192,-1.192263 0.214255,-0.544543 0.60194,-1.352455 0.861519,-1.79536 l 0.471959,-0.805279 0.0697,-2.113682 c 0.03831,-1.162525 0.156825,-2.659595 0.263353,-3.326826 0.10652,-0.667231 0.303134,-1.572389 0.436914,-2.011463 0.133788,-0.439074 0.312452,-0.821385 0.397035,-0.849581 0.08459,-0.0282 0.288306,0.300718 0.452704,0.730919 l 0.298912,0.782183 -0.0024,1.145751 c -0.0016,0.630163 -0.103023,1.562319 -0.225789,2.071461 -0.122759,0.509139 -0.201334,0.947569 -0.174613,0.974283 0.02674,0.02674 0.287491,-0.268383 0.579498,-0.655791 0.291999,-0.387408 1.046501,-1.243759 1.676662,-1.902999 0.630161,-0.659242 1.673091,-1.599575 2.317616,-2.089633 0.644533,-0.490057 1.332205,-1.003986 1.528184,-1.142064 l 0.356325,-0.25105 -0.08127,-0.288126 c -0.04467,-0.158469 -0.168042,-0.955357 -0.274106,-1.770862 -0.106071,-0.815504 -0.286439,-1.786023 -0.400817,-2.156706 -0.114387,-0.370684 -0.208622,-0.923584 -0.209421,-1.228668 -8.15e-4,-0.357172 0.0971,-0.680012 0.275353,-0.906611 0.155618,-0.197843 0.524456,-0.418559 0.842459,-0.504137 0.311107,-0.08372 0.827778,-0.305789 1.148154,-0.493481 l 0.582505,-0.341257 0.519615,0.15568 c 0.285787,0.08563 0.678558,0.344581 0.872833,0.57546 l 0.353219,0.41978 0.454367,-0.24469 0.454359,-0.244689 0.547314,0.16398 c 0.301023,0.09019 0.817654,0.38941 1.148072,0.664938 0.33041,0.275527 0.801847,0.62412 1.047625,0.77465 l 0.446884,0.273691 -0.01418,0.602471 c -0.0082,0.331359 -0.06032,0.73895 -0.116815,0.905758 l -0.102648,0.303286 h 0.280619 c 0.154338,0 0.493552,0.186963 0.753808,0.415472 0.261763,0.22983 0.53291,0.631736 0.606839,0.899479 l 0.133641,0.484007 -0.140929,0.953941 c -0.07752,0.524668 -0.182462,1.103708 -0.23324,1.286757 -0.05079,0.183047 -0.303811,0.476804 -0.562314,0.652793 l -0.470002,0.319978 -0.634539,-0.07288 -0.634547,-0.07289 0.07834,0.838973 0.07834,0.838973 -0.357303,0.424632 c -0.196516,0.233548 -0.539692,0.464692 -0.762612,0.513653 -0.228651,0.05022 -0.502284,0.245477 -0.627814,0.447991 -0.122383,0.197433 -0.3432,0.495449 -0.490708,0.66226 -0.164218,0.185699 -0.422762,0.303281 -0.666869,0.303281 h -0.398665 l -0.433034,-0.459144 c -0.283121,-0.300197 -0.538257,-0.801836 -0.736991,-1.449038 -0.167186,-0.544439 -0.326709,-1.066621 -0.354499,-1.160405 -0.0278,-0.09378 -0.218787,-0.234485 -0.424425,-0.312669 -0.205638,-0.07818 -0.486608,-0.244082 -0.624374,-0.368661 -0.137766,-0.124579 -0.368593,-0.457942 -0.512962,-0.740806 -0.144369,-0.282863 -0.316935,-0.495164 -0.383487,-0.471779 -0.06652,0.02339 -0.654397,0.46712 -1.306307,0.986077 -0.651927,0.518958 -1.603499,1.337832 -2.114611,1.819721 -0.511112,0.48189 -1.305549,1.361421 -1.765426,1.954514 -0.459879,0.593095 -1.140304,1.533287 -1.512061,2.089315 -0.371756,0.556021 -0.80717,1.268744 -0.967582,1.583828 -0.160412,0.315077 -0.257541,0.572871 -0.215852,0.572871 0.04166,0 0.331046,-0.184868 0.643017,-0.41082 0.311962,-0.225953 1.126445,-0.756703 1.80996,-1.179449 0.683508,-0.422746 1.664899,-1.147737 2.180853,-1.611088 0.515954,-0.463358 0.980666,-0.842467 1.032691,-0.842467 0.05201,0 0.06049,0.210032 0.01883,0.466741 -0.04166,0.256701 -0.258194,0.848109 -0.481195,1.314239 -0.223002,0.46613 -0.653997,1.181128 -0.957767,1.588874 -0.30377,0.407755 -0.913202,1.110223 -1.354297,1.561061 -0.441097,0.45082 -1.121286,0.974739 -1.511523,1.164261 -0.390244,0.189522 -0.982492,0.388916 -1.316105,0.443101 -0.333614,0.05421 -0.772354,0.183368 -0.974976,0.287059 -0.202622,0.103691 -0.457791,0.361387 -0.567034,0.57265 -0.109251,0.211255 -0.261462,0.77131 -0.338252,1.244557 -0.07679,0.473255 -0.138997,1.345713 -0.138239,1.938808 7.58e-4,0.593095 0.05886,1.593945 0.12906,2.224106 0.07027,0.630161 0.16858,1.4642 0.218575,1.853418 l 0.09089,0.707669 h -0.204611 c -0.112536,0 -0.26884,-0.166811 -0.347334,-0.370681 z m -0.83355,-8.862716 c 0,-0.03709 -0.03032,-0.06742 -0.06741,-0.06742 -0.03709,0 -0.06742,0.03032 -0.06742,0.06742 0,0.03709 0.03032,0.06742 0.06742,0.06742 0.03709,0 0.06741,-0.03033 0.06741,-0.06742 z m 4.359129,-0.57993 c 0.42017,-0.235661 1.059543,-0.809086 1.614553,-1.447994 0.50539,-0.581796 1.12713,-1.413112 1.381639,-1.847369 0.254508,-0.434256 0.462747,-0.851019 0.462747,-0.926154 0,-0.07516 -0.257794,0.07214 -0.572879,0.327345 -0.315084,0.25516 -1.240106,0.862831 -2.055608,1.350384 -0.81551,0.487545 -1.751911,1.161098 -2.080903,1.496775 -0.328991,0.335684 -0.56259,0.64591 -0.519109,0.6894 0.04353,0.04345 0.421573,-0.114239 0.840194,-0.350496 0.418621,-0.236248 0.802108,-0.388573 0.852185,-0.338497 0.05005,0.05005 0.02372,0.13325 -0.05861,0.184827 -0.08232,0.0516 -0.550648,0.366237 -1.040753,0.699264 -0.490105,0.333027 -0.891094,0.642422 -0.891094,0.687542 0,0.04516 0.308694,0.03326 0.685986,-0.02641 0.377283,-0.05967 0.999023,-0.284018 1.381638,-0.498623 z m -4.493919,0.310341 c 0,-0.03709 -0.03033,-0.06742 -0.06742,-0.06742 -0.03709,0 -0.06742,0.03032 -0.06742,0.06742 0,0.03709 0.03032,0.06742 0.06742,0.06742 0.03709,0 0.06742,-0.03032 0.06742,-0.06742 z M 52.54783,37.631939 C 52.385152,37.09051 52.094596,36.375822 51.902156,36.043733 51.709724,35.711652 50.873875,34.740116 50.044719,33.884768 49.215555,33.029412 48.405353,32.071233 48.244264,31.755472 48.083176,31.439711 47.847262,30.743169 47.720012,30.207601 l -0.231366,-0.973761 -0.04231,0.590602 c -0.02323,0.32483 0.05641,1.077653 0.176993,1.672938 0.120622,0.595286 0.391932,1.463043 0.602918,1.928358 0.210977,0.465315 0.565329,1.107607 0.787443,1.42733 0.222113,0.319715 0.788722,1.007762 1.259124,1.528991 0.470402,0.521228 1.056999,1.188456 1.303535,1.482737 0.246545,0.294273 0.403728,0.444063 0.349298,0.332856 -0.05445,-0.1112 -0.483615,-0.759018 -0.95374,-1.43959 -0.470124,-0.680564 -0.854769,-1.277034 -0.854769,-1.325472 0,-0.04842 0.05396,-0.06782 0.119922,-0.04312 0.06595,0.0247 0.526364,0.56052 1.023129,1.190681 0.496772,0.630161 1.023283,1.379095 1.170033,1.664295 0.146749,0.285192 0.2998,0.485556 0.34011,0.445237 0.04027,-0.04027 -0.05983,-0.516288 -0.222496,-1.057717 z m -0.40879,0.902701 c 0,-0.03709 -0.03033,-0.06742 -0.06742,-0.06742 -0.03709,0 -0.06741,0.03032 -0.06741,0.06742 0,0.03709 0.03032,0.06742 0.06741,0.06742 0.03709,0 0.06742,-0.03032 0.06742,-0.06742 z m 3.983337,-6.503821 c 0.03611,-0.166808 0.13312,-0.303286 0.2156,-0.303286 h 0.149978 l -0.0763,0.572875 c -0.04524,0.339689 -0.03016,0.490571 0.03701,0.370682 0.06228,-0.111207 0.179666,-0.56211 0.260769,-1.002013 0.08111,-0.439902 0.147116,-1.046475 0.146708,-1.347941 -4.15e-4,-0.301465 -0.06391,-0.775584 -0.141132,-1.053597 -0.0772,-0.278013 -0.183025,-0.505259 -0.23514,-0.504992 -0.05209,2.67e-4 -0.20788,0.440034 -0.346135,0.977257 -0.138891,0.539677 -0.272508,1.610121 -0.298602,2.392111 l -0.0472,1.415343 0.13444,-0.606578 c 0.07394,-0.333614 0.163974,-0.743053 0.200071,-0.909861 z m 11.61966,-0.121198 0.307911,-0.55928 0.569879,-0.228021 c 0.313438,-0.125412 0.614624,-0.298338 0.669306,-0.38428 0.0547,-0.08594 0.100357,-0.38614 0.10149,-0.667106 8.16e-4,-0.280966 -0.114859,-0.740035 -0.257761,-1.020151 -0.142909,-0.280117 -0.505495,-0.731252 -0.80576,-1.002523 -0.300264,-0.271271 -0.755243,-0.580674 -1.011064,-0.687562 -0.255821,-0.106889 -0.605958,-0.205968 -0.778068,-0.220176 -0.172118,-0.01421 -0.387196,-0.01912 -0.477942,-0.01092 -0.102909,0.0093 -0.0095,0.281198 0.248101,0.72259 0.2272,0.389219 0.601475,0.904806 0.831707,1.14575 l 0.418622,0.438082 h -0.214606 c -0.118038,0 -0.461434,-0.288123 -0.763109,-0.640272 l -0.548496,-0.640273 -0.0049,0.352506 c -0.0024,0.193878 -0.133209,0.515868 -0.29027,0.715534 l -0.285559,0.363029 0.0849,0.530933 c 0.04671,0.292014 0.228814,0.856349 0.404715,1.254079 0.175892,0.39773 0.463326,0.824302 0.638737,0.947937 0.175411,0.123639 0.439335,0.207831 0.586492,0.187092 0.152521,-0.02152 0.399953,-0.278161 0.575478,-0.596976 z M 53.47502,27.953296 c 0.0622,0 0.150972,0.189554 0.197307,0.421232 0.0463,0.231677 0.08851,0.823086 0.09372,1.314243 l 0.0095,0.893011 0.115845,-0.269588 c 0.06375,-0.148274 0.12011,-0.887361 0.125319,-1.642417 0.0049,-0.755054 -0.07858,-1.791263 -0.186123,-2.302684 C 53.723008,25.855672 53.4846,25.047996 53.3008,24.572258 l -0.334184,-0.864978 -0.04214,1.887118 c -0.02323,1.037915 -0.0419,2.281391 -0.04158,2.763281 3.43e-4,0.481889 0.09092,1.179448 0.201269,1.550132 l 0.200641,0.673971 0.03856,-1.314243 c 0.0212,-0.722834 0.08946,-1.314243 0.151649,-1.314243 z m 11.982009,0.523408 0.04076,-0.487549 -0.445147,-0.355624 c -0.244833,-0.195594 -0.53816,-0.443059 -0.651829,-0.549923 -0.113678,-0.106864 -0.311115,-0.485653 -0.438748,-0.841754 -0.127642,-0.3561 -0.231773,-0.810683 -0.231407,-1.010184 3.67e-4,-0.199501 0.0613,-0.400218 0.135459,-0.446037 0.07418,-0.04582 0.134799,-0.379434 0.134799,-0.741368 0,-0.361933 -0.05796,-0.693901 -0.128872,-0.737707 -0.07092,-0.04381 -0.234545,0.08162 -0.363694,0.278733 l -0.234822,0.35838 0.0159,0.89276 c 0.0087,0.491019 0.141948,1.465546 0.295993,2.165616 l 0.280073,1.272855 0.368455,0.384589 0.368462,0.384589 0.406908,-0.03991 0.406907,-0.03991 z m 5.634524,0.01047 c 0.202663,-0.07705 0.444568,-0.243859 0.537581,-0.370684 0.093,-0.126825 0.210684,-0.783346 0.261511,-1.458938 l 0.09242,-1.228347 -0.153434,-0.286692 c -0.08439,-0.15768 -0.343657,-0.385061 -0.576155,-0.505291 l -0.422722,-0.218599 -0.608697,0.06861 c -0.341538,0.03849 -1.146409,0.340899 -1.833813,0.688984 -0.673806,0.341205 -1.340137,0.620374 -1.48074,0.620374 -0.140595,0 -0.215543,0.04008 -0.166558,0.08907 0.04899,0.04898 0.316886,0.09698 0.595336,0.106648 l 0.506278,0.01758 v 0.331431 0.331432 l -0.370688,-0.02538 c -0.203878,-0.01396 -0.37068,-3.5e-4 -0.37068,0.03024 0,0.03059 0.197135,0.155711 0.438079,0.278052 0.240944,0.122341 0.703879,0.437805 1.028746,0.70103 0.324858,0.263226 0.807781,0.589288 1.073148,0.724583 0.265375,0.135294 0.617371,0.24599 0.782209,0.24599 0.164839,0 0.465519,-0.06305 0.668182,-0.140094 z m -5.068722,-3.162363 c 0,-0.03707 -0.03032,-0.0674 -0.06741,-0.0674 -0.03709,0 -0.06742,0.03032 -0.06742,0.0674 0,0.03707 0.03032,0.0674 0.06742,0.0674 0.03709,0 0.06741,-0.03033 0.06741,-0.0674 z m 1.152662,-0.344621 0.250889,-0.277223 0.29336,0.07363 c 0.183212,0.04599 0.732515,-0.129255 1.462879,-0.466683 l 1.169503,-0.540313 0.197348,-0.47232 0.197348,-0.472319 -0.139682,-0.260995 c -0.07679,-0.143547 -0.412548,-0.381697 -0.746056,-0.529222 -0.3335,-0.147527 -0.643465,-0.364893 -0.688805,-0.483038 -0.04532,-0.118144 -0.315159,-0.333538 -0.599609,-0.478654 -0.28445,-0.145116 -0.636511,-0.263846 -0.782356,-0.263846 -0.145844,0 -0.385753,0.153286 -0.533122,0.340636 -0.147369,0.187351 -0.463554,0.869746 -0.702623,1.516435 -0.239077,0.646688 -0.445204,1.477512 -0.45806,1.846274 l -0.0234,0.670477 0.155064,-0.37935 c 0.08528,-0.208642 0.238735,-0.431066 0.341008,-0.494273 0.108892,-0.06729 0.257655,-0.05542 0.358966,0.02866 0.09516,0.07897 0.173014,0.223708 0.173014,0.321631 0,0.09792 -0.134815,0.272469 -0.29958,0.387878 l -0.29958,0.209835 h 0.211288 c 0.116212,0 0.32419,-0.124751 0.462176,-0.277223 z m -8.290221,-0.25203 c 0.375856,-0.142815 0.896082,-0.421899 1.156044,-0.620186 0.25997,-0.198286 0.448196,-0.384999 0.418279,-0.414914 -0.02992,-0.02992 -0.231031,1.57e-4 -0.446933,0.06683 -0.215901,0.06667 -0.805515,0.226282 -1.310261,0.354689 l -0.917726,0.233469 0.06473,0.168669 c 0.03562,0.09277 -0.0033,0.236718 -0.08649,0.319889 l -0.151225,0.15122 h 0.295105 c 0.162304,0 0.602625,-0.116849 0.978482,-0.259665 z m 6.155834,-0.815308 c -0.03497,-0.133719 -0.01647,-0.319337 0.04108,-0.412484 0.05755,-0.09315 0.197071,-0.133898 0.310014,-0.09056 0.112936,0.04333 0.226874,0.218985 0.253204,0.390326 l 0.04785,0.31153 0.366971,-1.078813 c 0.201831,-0.593347 0.366971,-1.30111 0.366971,-1.572807 0,-0.271697 -0.03766,-0.592184 -0.08374,-0.712195 -0.04606,-0.12001 -0.25534,-0.306943 -0.465086,-0.415407 -0.209739,-0.108463 -0.493896,-0.197206 -0.63145,-0.197206 -0.137546,0 -0.457652,0.153134 -0.711337,0.340298 -0.253685,0.187164 -0.692319,0.377247 -0.974731,0.422407 -0.298496,0.04773 -0.596046,0.199991 -0.710685,0.363665 -0.108469,0.154857 -0.197218,0.531967 -0.197218,0.838024 0,0.306056 0.06807,0.751735 0.151274,0.990398 l 0.151265,0.433931 0.361591,-0.346419 c 0.198872,-0.190532 0.462283,-0.346421 0.585351,-0.346421 0.123076,0 0.284638,0.113718 0.359015,0.252706 0.07435,0.138989 0.174963,0.501077 0.223507,0.804641 l 0.08826,0.551934 0.265717,-0.14221 c 0.163819,-0.08767 0.241343,-0.235453 0.202149,-0.385337 z m -7.732637,-3.845014 c 0.06114,0.22241 0.131359,0.46504 0.156092,0.539177 0.0247,0.07414 0.04973,-0.05285 0.05559,-0.282185 0.0057,-0.229338 -0.110938,-0.770358 -0.25953,-1.202266 -0.1486,-0.431908 -0.45969,-1.080612 -0.691316,-1.441566 -0.231618,-0.360953 -0.445612,-0.631798 -0.475529,-0.601877 -0.02992,0.02992 0.175011,1.199882 0.455418,2.599913 l 0.509824,2.54551 0.06913,-1.280544 0.06913,-1.280544 z m 5.383612,-1.314913 c 0.236509,-0.190302 0.501436,-0.648868 0.713815,-1.235542 0.203617,-0.562453 0.396693,-1.512031 0.4862,-2.391234 l 0.148478,-1.458308 -0.457905,-0.412958 -0.457905,-0.412957 -0.608045,0.06444 c -0.334413,0.03544 -0.957091,0.195044 -1.383734,0.354669 -0.426634,0.159626 -0.964973,0.449493 -1.196314,0.644148 -0.231333,0.194655 -0.503343,0.551939 -0.604467,0.793963 -0.101123,0.242026 -0.183865,0.747229 -0.183865,1.122675 0,0.375447 0.08263,0.88038 0.183612,1.122075 0.100985,0.241695 0.620029,0.815991 1.153428,1.276215 l 0.969816,0.83677 0.430409,-6.69e-4 c 0.243682,-3.79e-4 0.593551,-0.131954 0.806477,-0.303287 z m 4.121413,-0.844133 c 0.397793,-0.18518 0.953952,-0.519402 1.235908,-0.742714 0.281956,-0.223313 0.704457,-0.692947 0.938896,-1.043632 l 0.426251,-0.637609 -0.07883,-0.59566 C 69.292353,14.561565 69.103328,14.031559 68.915697,13.711388 68.728059,13.391216 68.352389,12.9783 68.080868,12.793797 l -0.493667,-0.335459 -0.219904,0.199007 c -0.120941,0.109453 -0.309142,0.199006 -0.418213,0.199006 -0.10908,0 -0.265824,-0.06751 -0.348328,-0.150008 -0.0825,-0.08251 -0.213872,-0.110536 -0.291934,-0.0623 l -0.141923,0.08771 0.223189,0.468026 0.223181,0.468026 -0.156353,0.156355 -0.15636,0.156356 -0.549743,-0.181432 -0.549744,-0.181433 -0.364167,0.127325 -0.364159,0.127325 -0.03587,0.604071 c -0.01973,0.33224 -0.09552,1.009678 -0.168392,1.505418 l -0.132492,0.901345 0.133315,0.350664 c 0.07337,0.192865 0.294444,0.499984 0.491368,0.682486 l 0.358037,0.331822 0.485801,-0.0013 c 0.267184,-7.24e-4 0.811262,-0.152828 1.209055,-0.338008 z m -15.203011,-2.0976 c -0.327777,-0.296313 -0.737219,-0.73021 -0.909859,-0.964219 -0.172648,-0.234007 -0.313739,-0.519834 -0.313536,-0.635169 2.12e-4,-0.123085 0.22054,0.04084 0.533424,0.396871 0.293189,0.333615 0.535657,0.557034 0.538812,0.496484 0.0033,-0.06055 -0.139209,-0.303178 -0.316373,-0.539176 -0.177172,-0.235998 -0.500678,-0.793032 -0.718902,-1.237852 -0.218225,-0.444821 -0.53525,-1.157545 -0.70449,-1.583832 -0.16924,-0.426286 -0.386258,-0.775067 -0.482263,-0.775067 -0.096,0 -0.337608,0.193782 -0.536896,0.430624 l -0.362349,0.430624 0.07777,0.479237 c 0.04272,0.263581 0.272279,0.862526 0.510044,1.330991 0.237756,0.468465 0.671197,1.123168 0.963204,1.454896 0.291999,0.33173 0.811548,0.749326 1.154561,0.927993 0.343013,0.178667 0.744972,0.325186 0.893246,0.325597 l 0.269589,7.48e-4 z m 1.677656,-1.539503 c -0.04483,-0.44482 -0.145698,-1.233366 -0.224086,-1.752323 -0.07842,-0.518958 -0.2238,-1.072103 -0.32313,-1.229212 -0.09933,-0.157109 -0.520699,-0.477593 -0.936385,-0.712188 -0.415679,-0.234594 -0.788112,-0.510798 -0.827632,-0.6137855 -0.03954,-0.1029879 -0.158871,-0.2206417 -0.26522,-0.2614522 -0.106349,-0.040808 -0.345744,-0.00481 -0.531989,0.080084 -0.186236,0.084857 -0.377242,0.3081697 -0.424441,0.4962507 -0.04981,0.198408 0.01467,0.627254 0.153654,1.021546 0.131725,0.373769 0.459918,1.131161 0.729336,1.683092 0.281214,0.576102 0.79403,1.322442 1.204043,1.752324 l 0.714198,0.748812 -0.08399,-0.47178 c -0.04622,-0.259478 -0.113881,-0.57793 -0.15041,-0.707669 -0.03652,-0.129739 -0.0065,-0.235889 0.0666,-0.235889 0.0732,0 0.236982,0.31845 0.36402,0.707669 0.12703,0.389218 0.263215,0.763532 0.302621,0.83181 0.03937,0.06828 0.126255,-0.02271 0.192994,-0.202191 0.06676,-0.179483 0.08465,-0.690276 0.03978,-1.135098 z m 1.623283,-0.521923 c 0.15019,-0.410805 0.254289,-1.056136 0.256604,-1.590721 l 0.0041,-0.899497 -0.275785,-0.381047 C 54.739476,10.661799 54.16566,10.277332 53.565872,9.9870855 L 52.51122,9.4767186 52.190429,9.6869064 c -0.17643,0.1156036 -0.320783,0.2666009 -0.320783,0.3355506 0,0.06895 0.202361,0.221392 0.449696,0.33876 0.247343,0.117369 0.575911,0.438666 0.73016,0.713994 0.168629,0.301 0.374398,1.114381 0.516085,2.039999 0.148298,0.968856 0.270429,1.443463 0.329513,1.280545 0.0516,-0.142373 0.136348,-0.546982 0.188226,-0.899132 0.05185,-0.35215 0.158268,-0.640272 0.236403,-0.640272 h 0.142062 l -0.09291,0.775066 c -0.05111,0.426287 -0.123541,0.92671 -0.160966,1.112053 l -0.06807,0.336984 0.259513,-0.319731 c 0.142739,-0.175852 0.37324,-0.630783 0.512237,-1.010957 z m 16.055122,0.184938 c 0.105722,0 0.280114,-0.210352 0.387539,-0.46745 0.107425,-0.257097 0.195309,-0.785052 0.195309,-1.173233 V 11.58824 L 70.94063,10.336847 C 70.592742,9.6217219 70.18881,8.991726 69.998049,8.866735 L 69.66424,8.6480139 69.292573,8.7407288 c -0.204415,0.05099 -0.686295,0.3350646 -1.070841,0.6312714 -0.384547,0.2962075 -0.851419,0.7381628 -1.037501,0.9821228 l -0.338317,0.443564 0.329823,0.15028 c 0.181411,0.08265 0.329832,0.235139 0.329832,0.338857 0,0.103717 -0.09415,0.266712 -0.209217,0.362212 l -0.209217,0.173636 0.666225,0.384642 c 0.366417,0.211553 0.928543,0.671596 1.249155,1.022317 0.320611,0.350722 0.676039,0.681179 0.789839,0.734349 0.1138,0.05318 0.381294,0.06834 0.59444,0.0337 0.213146,-0.03464 0.474029,-0.06297 0.57975,-0.06297 z M 58.645428,13.429227 c -0.05698,-0.203877 -0.100349,-0.706152 -0.09631,-1.116168 0.0049,-0.4863 0.113375,-0.964502 0.312313,-1.375447 0.167724,-0.346481 0.789872,-1.152088 1.382535,-1.7902373 0.592671,-0.6381499 1.255839,-1.4413574 1.473713,-1.7849059 0.217866,-0.3435493 0.39613,-0.6807068 0.39613,-0.7492393 0,-0.069339 -0.369531,-0.097876 -0.833142,-0.064342 L 60.447533,6.6091535 60.028855,7.093485 C 59.79859,7.3598666 59.473829,7.961777 59.307165,8.4310617 59.140501,8.9003473 58.7333,9.7036746 58.40227,10.216234 L 57.8004,11.14816 v 0.710527 c 0,0.39079 0.06489,0.881173 0.144174,1.089739 0.07932,0.208568 0.240341,0.485474 0.357882,0.615349 0.117533,0.129875 0.266109,0.236137 0.330166,0.236137 0.06407,0 0.06986,-0.166808 0.0128,-0.370684 z m 1.417678,-0.119542 c 0.243642,-0.164817 0.941203,-0.462496 1.550137,-0.661509 0.608925,-0.199013 1.235899,-0.442233 1.393279,-0.54049 l 0.286154,-0.178648 -0.06611,-0.345883 c -0.03636,-0.190236 0.0091,-0.436521 0.101042,-0.5473 0.09194,-0.110779 0.287793,-0.201416 0.435243,-0.201416 H 64.03093 L 63.938766,10.32896 C 63.888061,10.050948 63.623534,9.1596269 63.350888,8.3482481 63.07825,7.5368692 62.790449,6.8531168 62.711344,6.8287991 c -0.07907,-0.024317 -0.342492,0.2623611 -0.585286,0.6370643 -0.242802,0.3747032 -0.923032,1.2010953 -1.511635,1.8364263 -0.588604,0.6353321 -1.201956,1.4067823 -1.36302,1.7143323 l -0.29283,0.559184 -0.0065,0.888729 c -0.0041,0.560334 0.06171,0.970699 0.177564,1.110567 0.101066,0.122012 0.252715,0.179632 0.33698,0.128045 0.08427,-0.05158 0.352567,-0.228645 0.596209,-0.393462 z m 5.555345,-0.790319 c 0,-0.03707 -0.03032,-0.0674 -0.06741,-0.0674 -0.03709,0 -0.06742,0.03033 -0.06742,0.0674 0,0.03707 0.03033,0.0674 0.06742,0.0674 0.03709,0 0.06741,-0.03033 0.06741,-0.0674 z m 6.334074,-2.5671076 -0.152227,-0.7333 -0.405407,-0.4054068 -0.405407,-0.4054071 h -0.417513 -0.417512 l 0.281132,0.3032866 c 0.154616,0.1668077 0.559469,0.8464366 0.899653,1.5102869 0.340192,0.663851 0.629134,1.300753 0.642079,1.415339 0.01296,0.114586 0.04695,-0.05263 0.07549,-0.37158 0.02861,-0.318956 -0.01655,-0.909903 -0.100292,-1.3132186 z m -5.660104,0.1764896 c 0,-0.07399 0.134056,-0.09946 0.2979,-0.05661 l 0.297901,0.0779 0.904699,-0.8734183 c 0.497588,-0.4803793 1.117698,-0.9624103 1.378019,-1.0711794 0.26032,-0.108769 0.568354,-0.333454 0.684509,-0.4992998 0.116164,-0.1658467 0.211206,-0.4730266 0.211206,-0.6826225 0,-0.2095959 -0.08831,-0.5518646 -0.196247,-0.7605956 C 69.762469,6.0541856 69.463656,5.7835186 69.206384,5.6614351 68.949112,5.5393524 68.425821,5.3801446 68.043508,5.3076405 67.661195,5.2351381 66.799,5.0468331 66.127525,4.8891889 L 64.906657,4.6025638 64.369924,4.7633751 c -0.29521,0.088446 -0.680971,0.3050408 -0.857255,0.4813227 L 63.192155,5.56521 v 0.5079987 c 0,0.2793985 0.210089,1.1465231 0.466864,1.9269431 0.256775,0.7804199 0.53207,1.6767392 0.611771,1.9918199 0.07972,0.3150813 0.196736,0.5728753 0.260084,0.5728753 0.06334,0 0.150092,-0.09099 0.192767,-0.202191 0.04272,-0.111206 0.168343,-0.202192 0.279265,-0.202192 0.110922,0 0.256269,0.106151 0.323,0.23589 0.06676,0.12974 0.09103,0.321021 0.05405,0.42507 -0.03701,0.104049 0.153149,0.02103 0.422591,-0.184491 0.269451,-0.205519 0.489909,-0.434204 0.489909,-0.508188 z"
       id="path246" /></g></svg>
