<?xml version="1.0" encoding="UTF-8" standalone="no"?>
<!-- Created with Inkscape (http://www.inkscape.org/) -->

<svg
   width="40.273998mm"
   height="33.517845mm"
   viewBox="0 0 40.273998 33.517845"
   version="1.1"
   id="svg1"
   xml:space="preserve"
   xmlns="http://www.w3.org/2000/svg"
   xmlns:svg="http://www.w3.org/2000/svg"><defs
     id="defs1" /><g
     id="layer1"
     transform="translate(-4.8466235,-90.588643)"><path
       style="fill:#0000ff;fill-opacity:1;stroke:none;stroke-width:0.757003"
       d="m 17.720892,123.91372 c -0.8117,-0.36865 -1.71898,-1.49763 -2.11049,-2.62619 l -0.17123,-0.49356 -5.29625,-0.0255 c -5.2141893,-0.0251 -5.2962463,-0.0286 -5.2962463,-0.22209 0,-0.19379 0.07333,-0.19657 5.1764463,-0.19657 2.84704,0 5.19718,-0.0335 5.22253,-0.0745 0.0254,-0.041 0.003,-0.31045 -0.0492,-0.59874 -0.11604,-0.63845 0.0279,-1.44143 0.34128,-1.90447 0.56609,-0.83632 1.77397,-0.99217 2.92688,-0.37768 0.77501,0.41308 1.48255,1.19293 1.98832,2.19154 l 0.38801,0.76607 4.16809,-0.0258 4.1681,-0.0257 0.29688,-0.59505 c 1.0211,-2.04666 2.79531,-3.13461 4.17306,-2.55895 0.8874,0.37077 1.15188,0.86682 1.15537,2.1669 l 0.003,0.9871 5.15759,0.0256 c 5.07553,0.0252 5.15759,0.0287 5.15759,0.2221 0,0.19376 -0.0744,0.19657 -5.2563,0.19879 l -5.2563,0.003 -0.37293,0.86954 c -0.46034,1.07332 -1.13142,1.86487 -1.89977,2.24079 -0.74386,0.36394 -1.61928,0.32146 -2.24125,-0.10874 -0.63259,-0.43756 -1.0105,-1.25485 -1.02485,-2.21642 l -0.0111,-0.74033 -4.04861,-0.0257 -4.0486,-0.0258 -0.0438,0.86479 c -0.0481,0.94843 -0.24027,1.4498 -0.73642,1.9207 -0.60659,0.57572 -1.67304,0.74299 -2.45953,0.38578 z m 1.77554,-0.44492 c 0.76574,-0.45001 1.1015,-1.17398 1.0193,-2.1979 -0.0724,-0.90231 -0.66743,-2.10683 -1.39387,-2.82176 -0.66868,-0.65808 -1.11757,-0.88674 -1.8492,-0.94193 -1.41431,-0.1067 -1.93704,0.85504 -1.50759,2.77374 0.31765,1.41921 1.31709,2.87331 2.25937,3.28718 0.46398,0.20379 1.02002,0.16626 1.47199,-0.0993 z m -1.68634,-0.99894 c -0.63561,-0.50101 -0.80571,-1.66151 -0.31944,-2.17913 0.17111,-0.18213 0.32561,-0.23707 0.66664,-0.23707 0.3959,0 0.48899,0.0471 0.861,0.4353 0.4469,0.46643 0.60972,0.97923 0.48754,1.53555 -0.14975,0.68183 -1.08434,0.92728 -1.69574,0.44535 z m -1.50167,-1.88629 c -0.37919,-0.26561 -0.2143,-0.82605 0.24304,-0.82605 0.28715,0 0.4579,0.22456 0.41899,0.55097 -0.0407,0.34097 -0.37162,0.47848 -0.66203,0.27508 z m 1.92049,-1.17858 c -0.31565,-0.31565 -0.12291,-0.73327 0.33844,-0.73327 0.29647,0 0.49354,0.16273 0.49354,0.40753 0,0.22448 -0.26313,0.48086 -0.49354,0.48086 -0.10083,0 -0.25313,-0.0698 -0.33844,-0.15512 z m -1.3633,-0.16568 c -0.2783,-0.21449 -0.26264,-0.61178 0.0303,-0.76855 0.15871,-0.0849 0.25737,-0.0743 0.44419,0.0481 0.2995,0.19624 0.3083,0.48871 0.0208,0.69011 -0.26486,0.18551 -0.29168,0.18716 -0.49525,0.0303 z m 15.20819,4.27777 c 1.24828,-0.63683 2.28337,-2.58544 2.28544,-4.30245 0.002,-1.24177 -0.43565,-1.72874 -1.54983,-1.72646 -1.73332,0.003 -3.64412,2.64746 -3.28435,4.54447 0.11506,0.60675 0.19047,0.74935 0.60792,1.14963 0.57698,0.55323 1.27622,0.67386 1.94082,0.33481 z m -1.14511,-0.86433 c -0.20948,-0.0843 -0.41745,-0.59143 -0.41745,-1.01801 0,-0.88224 0.60015,-1.58108 1.35781,-1.58108 0.57017,0 0.91252,0.41204 0.91252,1.09828 0,0.89134 -0.57523,1.57309 -1.31548,1.55909 -0.22657,-0.004 -0.4684,-0.0306 -0.5374,-0.0583 z m 2.24378,-2.08889 c -0.17233,-0.13954 -0.20824,-0.24049 -0.15751,-0.44269 0.0863,-0.34376 0.4879,-0.45613 0.75768,-0.21197 0.24554,0.2222 0.24451,0.38953 -0.003,0.63801 -0.24314,0.24313 -0.31406,0.24511 -0.5962,0.0167 z m -2.06402,-1.14585 c -0.0649,-0.0782 -0.10361,-0.26693 -0.0861,-0.41952 0.0254,-0.22123 0.088,-0.28386 0.30923,-0.30923 0.49679,-0.0569 0.74397,0.37825 0.4065,0.71573 -0.19369,0.19369 -0.47484,0.19951 -0.62962,0.013 z m 1.4757,-0.25274 c -0.10858,-0.10859 -0.19742,-0.24184 -0.19742,-0.29613 0,-0.14829 0.37486,-0.49356 0.53585,-0.49356 0.1994,0 0.45126,0.27628 0.45126,0.49501 0,0.17042 -0.33699,0.4921 -0.51552,0.4921 -0.0423,0 -0.16559,-0.0888 -0.27417,-0.19742 z m -20.28488,-10.8939 c -0.59745,-0.27998 -1.37054,-1.08503 -1.65128,-1.71952 -0.11331,-0.2561 -0.23232,-0.70994 -0.26447,-1.00854 l -0.0585,-0.54291 -2.7392003,-0.0263 c -2.649945,-0.0254 -2.739198,-0.0326 -2.739198,-0.22056 0,-0.18808 0.0895,-0.19517 2.787278,-0.22054 l 2.7872503,-0.0262 0.1186,-0.24678 c 0.27972,-0.58207 1.25165,-1.18452 1.91098,-1.18452 0.2308,0 0.25067,-0.12619 0.0465,-0.29561 -0.27405,-0.22744 -0.71854,-1.13107 -0.97533,-1.98285 -0.14048,-0.46594 -0.34528,-1.554216 -0.45511,-2.418386 -0.10984,-0.86417 -0.24368,-1.83774 -0.29744,-2.16348 -0.0538,-0.32575 -0.098,-1.13473 -0.0983,-1.79776 -4.7e-4,-0.9896 0.0373,-1.30779 0.21091,-1.77677 0.25165,-0.67981 0.77132,-1.21992 1.33675,-1.38933 0.65848,-0.19728 1.76077,-0.14676 2.74634,0.12585 1.07621,0.29769 1.19399,0.30044 2.17093,0.0505 0.93368,-0.23879 1.73029,-0.25172 2.35677,-0.0383 0.45587,0.15533 0.48062,0.15314 1.02936,-0.0909 1.10475,-0.49125 2.44862,-0.70991 4.36259,-0.70982 1.89005,9e-5 3.26687,0.20638 4.72692,0.70827 0.70858,0.24357 0.74306,0.24616 1.22054,0.0919 0.66642,-0.21523 1.46135,-0.19943 2.39961,0.0477 0.86511,0.22786 1.16373,0.21425 2.3136,-0.10547 0.45647,-0.12691 1.04078,-0.20699 1.52395,-0.20883 0.66664,-0.003 0.86559,0.0384 1.33258,0.27456 0.49364,0.24959 0.58376,0.34692 0.89444,0.966 l 0.34548,0.68846 v 1.38445 c 0,0.83338 -0.0684,1.81666 -0.1717,2.47026 -0.0944,0.59719 -0.24148,1.59664 -0.32678,2.22098 -0.18707,1.369346 -0.601,2.617716 -1.11717,3.369176 l -0.38186,0.55594 0.43149,0.0591 c 0.78664,0.10782 1.48293,0.58696 1.70507,1.17332 l 0.10284,0.27146 h 2.61826 c 2.54502,0 2.61826,0.005 2.61826,0.19574 0,0.18944 -0.0818,0.1966 -2.53602,0.2221 l -2.53601,0.0264 -0.12055,0.65334 c -0.14565,0.78954 -0.3802,1.26969 -0.91841,1.88016 -0.78862,0.89452 -1.92193,1.20742 -2.78269,0.7683 -1.07658,-0.54924 -1.39435,-1.62433 -0.92487,-3.12906 0.0685,-0.2195 0.0585,-0.2221 -0.8606,-0.2221 h -0.92989 l -0.33808,0.34882 c -0.63014,0.65013 -1.69867,1.11995 -3.40228,1.49595 -0.52841,0.11664 -1.5584,0.16356 -4.37836,0.19953 -4.02178,0.0513 -5.10614,-0.0192 -6.44125,-0.41884 -1.11517,-0.33379 -1.64464,-0.61482 -2.179,-1.15658 -0.46005,-0.46643 -0.46589,-0.46888 -1.12199,-0.46888 h -0.65953 l 0.0641,0.27146 c 0.14625,0.61997 0.17696,1.58815 0.0615,1.93807 -0.37904,1.14848 -1.65933,1.65333 -2.81702,1.11081 z m 0.58683,-0.67056 c -0.1618,-0.45858 -0.1641,-0.44649 0.0939,-0.49344 0.14437,-0.0263 0.22017,0.0635 0.33142,0.39263 0.17915,0.52993 0.32024,0.58828 0.76213,0.31518 0.38804,-0.23982 0.4366,-0.47089 0.19594,-0.93239 -0.13612,-0.26103 -0.13552,-0.30435 0.006,-0.44419 0.14274,-0.14088 0.16594,-0.13926 0.25505,0.0178 0.1572,0.27702 0.28564,0.20022 0.28564,-0.17079 0,-0.44997 -0.44824,-1.53072 -0.82388,-1.98643 -0.78177,-0.94842 -2.27332,-0.95685 -2.94322,-0.0167 -0.32,0.44915 -0.32381,1.41724 -0.009,2.05793 0.42492,0.86226 1.28861,1.65244 1.82129,1.66624 0.15495,0.003 0.15683,-0.0283 0.0237,-0.40587 z m 23.98297,0.18815 c 0.079,-0.12216 0.17369,-0.34425 0.2104,-0.49355 0.072,-0.29295 0.11692,-0.31683 0.33557,-0.17848 0.11702,0.074 0.12195,0.15584 0.0278,0.46235 -0.133,0.43336 -0.11171,0.4757 0.19986,0.3975 0.6981,-0.17522 1.64141,-1.33246 1.84838,-2.2676 0.18397,-0.83117 -0.17193,-1.61759 -0.90548,-2.00082 -0.59816,-0.31249 -1.62636,-0.0686 -2.16945,0.51459 -0.40963,0.43989 -0.80364,1.31317 -0.85181,1.88794 -0.0449,0.53525 0.0203,0.63728 0.22662,0.35507 0.0656,-0.0897 0.17045,-0.13152 0.23298,-0.0929 0.13684,0.0846 0.14935,0.37762 0.0217,0.50775 -0.0505,0.0516 -0.10614,0.22395 -0.1234,0.38306 -0.0255,0.23551 0.031,0.33184 0.30403,0.51823 0.41476,0.2831 0.46371,0.28363 0.64273,0.007 z m -6.96292,-1.49041 c 1.10613,-0.2505 2.10839,-0.64577 2.69307,-1.0621 0.40035,-0.28507 0.85129,-0.92281 0.97354,-1.37681 0.13412,-0.49808 0.0123,-0.78417 -0.62831,-1.47617 -1.81507,-1.96048 -3.43669,-5.984526 -3.46026,-8.586636 -0.009,-0.90773 0.0181,-1.08312 0.21269,-1.41225 0.12216,-0.2067 0.22211,-0.41068 0.22211,-0.45332 0,-0.0426 -0.38868,-0.19587 -0.86372,-0.34054 -2.55674,-0.77862 -5.93273,-0.77495 -8.04732,0.009 l -0.66876,0.24787 0.2174,0.3578 c 0.30274,0.49827 0.36747,1.94458 0.13777,3.07819 -0.56986,2.81236 -2.02772,5.822486 -3.54873,7.327246 -0.5191,0.51356 -0.58765,0.62811 -0.62816,1.04973 -0.13855,1.44188 1.42249,2.45686 4.40507,2.86416 0.3605,0.0492 2.27676,0.0757 4.25837,0.0589 3.45609,-0.0294 3.64865,-0.041 4.72524,-0.2848 z m -8.37119,-4.05441 c -0.15323,-0.18464 -0.056,-0.3531 0.20379,-0.3531 0.14757,0 0.19037,0.055 0.16692,0.21437 -0.0395,0.26787 -0.21042,0.33186 -0.37071,0.13873 z m 7.36402,0.0746 c -0.14243,-0.14242 -0.0617,-0.42774 0.12105,-0.42774 0.22571,0 0.33391,0.22944 0.18053,0.3828 -0.12674,0.12675 -0.20771,0.13881 -0.30158,0.045 z m 1.04468,-0.10374 c -0.0678,-0.0243 -0.12339,-0.1247 -0.12339,-0.22296 0,-0.19193 0.1703,-0.29607 0.37016,-0.22634 0.0678,0.0237 0.1234,0.10053 0.1234,0.17079 0,0.17073 -0.21659,0.33368 -0.37017,0.27851 z m -9.46615,-0.17861 c -0.0724,-0.18854 0.12552,-0.35091 0.33138,-0.27191 0.18634,0.0716 0.11706,0.3631 -0.096,0.40414 -0.0946,0.0182 -0.20046,-0.0413 -0.23535,-0.13223 z m 3.34048,0.0264 c -0.49223,-0.10056 -0.80772,-0.50469 -0.80833,-1.03543 -5.3e-4,-0.4692 0.25523,-0.41644 0.33281,0.0686 0.0735,0.45972 0.35571,0.69636 0.83044,0.69636 0.44909,0 0.67172,-0.13762 0.79507,-0.49147 0.1319,-0.37836 0.36152,-0.38291 0.4916,-0.01 0.13171,0.37781 0.445,0.53604 0.93203,0.47072 0.48477,-0.065 0.57928,-0.15571 0.65634,-0.62973 0.042,-0.2585 0.11813,-0.38516 0.24626,-0.40984 0.16537,-0.0319 0.17837,0.009 0.12003,0.37342 -0.036,0.22501 -0.11888,0.49471 -0.18422,0.59934 -0.27264,0.43658 -1.28894,0.55369 -1.76379,0.20325 -0.22895,-0.16896 -0.27406,-0.17364 -0.40563,-0.0421 -0.21619,0.21618 -0.75609,0.30591 -1.24261,0.20651 z m -2.76315,-0.68501 c -0.14689,-0.14689 -0.0323,-0.3751 0.18823,-0.3751 0.11753,0 0.18686,0.0693 0.18686,0.18685 0,0.2206 -0.2282,0.33513 -0.37509,0.18825 z m 8.30058,0.009 c -0.15641,-0.15641 -0.0461,-0.38405 0.18615,-0.38405 0.14271,0 0.18542,0.0565 0.16218,0.21437 -0.0371,0.25229 -0.19084,0.32716 -0.34833,0.16968 z m -4.74362,-1.842956 c -0.29848,-0.26033 -0.4206,-0.44316 -0.41952,-0.62811 0.003,-0.33208 0.13939,-0.38072 1.07567,-0.38072 0.77836,0 0.99877,0.0887 0.99877,0.40201 0,0.21399 -0.83115,0.98082 -1.05893,0.97697 -0.0962,-0.002 -0.36441,-0.16818 -0.59599,-0.37015 z m -3.86628,-0.2069 c -0.38414,-0.71778 0.31361,-1.50637 0.74726,-0.84456 0.13031,0.1989 0.14676,0.3318 0.0763,0.61694 -0.0774,0.31338 -0.13307,0.36762 -0.40404,0.39387 -0.23268,0.0225 -0.34158,-0.0206 -0.41952,-0.16625 z m 8.38726,-0.006 c -0.24682,-0.46116 -0.005,-1.09229 0.41821,-1.09229 0.20623,0 0.46671,0.37398 0.46671,0.67007 0,0.39131 -0.17858,0.61316 -0.49355,0.61316 -0.18489,0 -0.32604,-0.0689 -0.39137,-0.19094 z m -13.03317,4.748036 c 0,-0.2624 -0.0258,-0.50293 -0.0574,-0.5345 -0.0316,-0.0316 -0.20783,0.005 -0.39168,0.0823 -0.18384,0.0768 -0.55777,0.13966 -0.83097,0.13966 -0.55425,0 -0.59763,0.0746 -0.29259,0.50299 0.19173,0.26924 0.24579,0.28669 0.8884,0.28669 h 0.68424 z m 19.71271,0.16243 c 0.11963,-0.1712 0.19474,-0.34811 0.16692,-0.39313 -0.0278,-0.0451 -0.25898,-0.0829 -0.51365,-0.0841 -0.25468,-0.002 -0.65669,-0.09 -0.89335,-0.19741 -0.23666,-0.10739 -0.44197,-0.19526 -0.45624,-0.19526 -0.0143,0 -0.0539,0.16658 -0.0879,0.37017 -0.034,0.20359 -0.0893,0.47011 -0.12284,0.59226 -0.0599,0.21828 -0.0459,0.22206 0.81431,0.22039 0.86937,-0.002 0.87668,-0.003 1.09274,-0.31297 z m -20.26325,-1.08152 c 1.12403,-0.43013 2.41428,-1.94686 3.35517,-3.944086 0.84235,-1.78809 1.54114,-4.32722 1.53643,-5.58276 -0.006,-1.55068 -0.96377,-2.19349 -2.76231,-1.85361 -1.48742,0.2811 -1.83428,0.28141 -2.92923,0.003 -1.28961,-0.32828 -1.91454,-0.33112 -2.55577,-0.0116 -1.04163,0.51906 -1.32476,1.79202 -0.98111,4.41107 0.0807,0.61556 0.21369,1.65722 0.29539,2.31479 0.32509,2.616756 1.02162,4.106886 2.16953,4.641436 0.61943,0.28843 1.15921,0.2948 1.8719,0.0221 z m 21.00522,0.0259 c 0.87732,-0.37606 1.4905,-1.2774 1.88829,-2.77571 0.21879,-0.824056 0.34191,-1.636026 0.77085,-5.083556 0.17829,-1.43305 -0.0822,-2.76647 -0.64344,-3.29373 -0.29788,-0.27984 -0.98369,-0.50663 -1.53163,-0.50647 -0.25105,7e-5 -0.92287,0.11444 -1.49291,0.25416 -1.11557,0.27342 -1.39805,0.27347 -2.84799,5.1e-4 -1.89922,-0.35754 -2.81774,0.28319 -2.80042,1.95351 0.0192,1.85232 1.18029,5.22505 2.46803,7.169116 1.34103,2.02451 2.85993,2.85196 4.18922,2.28217 z"
       id="path165" /></g></svg>
