<?xml version="1.0" encoding="UTF-8" standalone="no"?>
<!-- Created with Inkscape (http://www.inkscape.org/) -->

<svg
   width="36.678509mm"
   height="39.145298mm"
   viewBox="0 0 36.678509 39.145298"
   version="1.1"
   id="svg1"
   xml:space="preserve"
   xmlns="http://www.w3.org/2000/svg"
   xmlns:svg="http://www.w3.org/2000/svg"><defs
     id="defs1" /><g
     id="layer1"
     transform="translate(-3.1768776,-4.175877)"><path
       style="fill:#0000ff;fill-opacity:1;stroke-width:0.8301"
       d="m 32.126445,42.058269 c 0.469247,-0.694582 1.127733,-1.953092 1.463292,-2.796688 l 0.610108,-1.533811 0.110552,-1.772017 0.110553,-1.772017 -0.359583,-1.236919 c -0.197771,-0.680304 -0.684193,-1.663528 -1.080932,-2.184939 -0.396746,-0.521412 -1.437094,-1.461586 -2.311879,-2.089273 l -1.59053,-1.141252 -0.78315,0.531459 c -0.430731,0.292302 -1.139853,0.598376 -1.575821,0.680164 -0.435961,0.08179 -1.187592,0.04329 -1.670279,-0.08554 l -0.877623,-0.234249 -0.62021,0.521874 c -0.341113,0.28703 -0.963871,0.586345 -1.383902,0.665143 -0.42003,0.0788 -1.07019,0.09829 -1.444798,0.04331 l -0.681105,-0.09997 -0.66164,0.898865 c -0.363908,0.494375 -0.995681,1.587913 -1.403941,2.430083 -0.40826,0.842171 -0.742292,1.657551 -0.742292,1.811954 0,0.154404 -0.105498,0.280735 -0.234437,0.280735 -0.142146,0 -0.174039,-0.194526 -0.08102,-0.494169 0.08438,-0.271793 0.497156,-1.186006 0.917286,-2.031585 0.420122,-0.845578 1.010149,-1.865116 1.311169,-2.26564 0.301011,-0.400524 0.477955,-0.795859 0.39321,-0.878523 -0.08474,-0.08266 -1.231313,0.966978 -2.547935,2.332538 -1.316614,1.365559 -2.393844,2.56826 -2.393844,2.672668 0,0.104408 0.873897,1.063728 1.941987,2.131821 1.06809,1.068093 2.650203,2.417152 3.515807,2.997907 0.865604,0.580757 2.2896,1.385825 3.164426,1.789041 0.874834,0.403216 2.183612,0.90154 2.908389,1.107385 0.724786,0.205845 1.411677,0.462156 1.526439,0.56958 0.130458,0.122119 0.118546,0.195314 -0.03179,0.195314 -0.132235,0 -0.917967,-0.207503 -1.746066,-0.461117 -0.8281,-0.253614 -2.285242,-0.852194 -3.238081,-1.330176 -0.952839,-0.477982 -2.336508,-1.278768 -3.074825,-1.779522 -0.738324,-0.500754 -2.223573,-1.780109 -3.30057,-2.84301 -1.076997,-1.0629 -1.977905,-1.907747 -2.002036,-1.877437 -0.02416,0.03031 -0.311371,0.484491 -0.638339,1.009291 -0.326968,0.524799 -0.642647,0.906015 -0.701518,0.847146 -0.05885,-0.05887 0.170644,-0.607011 0.510022,-1.218093 l 0.617063,-1.111059 -0.343014,-0.345795 -0.343014,-0.345795 -0.723474,1.007424 c -0.397917,0.554082 -0.779074,0.951828 -0.847018,0.88388 -0.0679,-0.06795 0.205351,-0.58152 0.607335,-1.141271 l 0.730879,-1.017728 -0.215436,-0.341527 c -0.118481,-0.187839 -0.312948,-0.374034 -0.432142,-0.413764 -0.119195,-0.03973 -0.832973,0.485442 -1.586173,1.167051 -0.7532,0.681611 -1.4186082,1.190141 -1.4786826,1.130069 -0.060099,-0.06007 0.5496925,-0.712994 1.3550306,-1.450938 l 1.464248,-1.341717 -0.364647,-0.556516 -0.364646,-0.556516 -0.39903,0.213554 c -0.219462,0.117455 -1.1445586,0.909797 -2.0557598,1.760761 -0.9112008,0.850963 -1.7382215,1.547206 -1.8378087,1.547206 -0.099595,0 0.4088245,-0.59645 1.1298248,-1.325444 0.7209999,-0.728994 1.6750097,-1.578001 2.1200257,-1.886683 l 0.809116,-0.561239 -0.127761,-0.33294 -0.127761,-0.332941 -0.662768,0.709161 c -0.3645223,0.39004 -1.6430923,1.343287 -2.8412759,2.118329 -1.1981752,0.775042 -2.66434,1.86361 -3.2581357,2.41904 -0.593804,0.55543 -1.0796369,0.911039 -1.0796369,0.790242 0,-0.120797 0.4738213,-0.662836 1.0529408,-1.20453 0.5791113,-0.541694 2.0422629,-1.626907 3.2514535,-2.411584 1.2091823,-0.784677 2.4155336,-1.702582 2.6807842,-2.03979 0.26525,-0.337207 0.482263,-0.748026 0.482263,-0.912932 0,-0.178579 -0.24424,-0.303303 -0.603981,-0.308423 l -0.603981,-0.0086 0.713795,-0.310247 c 0.392588,-0.170636 0.713803,-0.430778 0.713803,-0.578094 0,-0.147316 0.147758,-0.431116 0.328347,-0.630667 l 0.328346,-0.36282 -0.602861,-1.191889 -0.602868,-1.191889 -0.01154,-2.685074 -0.01154,-2.685074 -0.4551773,-0.499572 C 9.586322,18.837493 9.2703028,18.396807 9.1344153,18.132955 8.9985196,17.869104 8.8873359,17.436584 8.8873359,17.1718 c 0,-0.264783 -0.4842386,-1.383161 -1.0760919,-2.485284 C 7.2193907,13.584393 6.6177423,12.13907 6.4742511,11.474687 L 6.2133588,10.266718 6.4444256,9.6688672 C 6.5812925,9.314743 6.9036454,9.0137528 7.2351543,8.9305514 c 0.3078096,-0.077257 1.0119256,-0.072642 1.5646978,0.010252 0.55278,0.082893 2.2563949,0.7794365 3.7858219,1.5478726 1.529418,0.768436 3.034457,1.459071 3.344516,1.534742 l 0.563754,0.137585 1.742373,-0.69894 1.742372,-0.69894 2.426209,-0.138387 2.426209,-0.138387 0.578904,-0.379715 C 25.728413,9.8977898 26.67667,8.9094519 27.517246,7.9103264 28.357822,6.9112012 29.439011,5.7154001 29.919889,5.2529902 L 30.7942,4.4122456 31.675335,4.2940609 32.556462,4.175877 33.006957,4.6263758 c 0.247777,0.2477742 0.555205,0.8275427 0.683173,1.2883746 0.12796,0.4608327 0.230801,1.4308795 0.228518,2.1556609 -0.0025,0.7247814 -0.101347,1.7391172 -0.220151,2.2540797 l -0.216017,0.936296 0.346302,0.82075 0.346301,0.820751 -0.145683,1.678437 -0.145682,1.678437 0.481607,1.066947 c 0.264885,0.586821 0.534078,1.675206 0.59822,2.418633 0.06417,0.743428 0.04756,1.719931 -0.03686,2.170007 -0.08444,0.450076 -0.232187,0.731322 -0.328338,0.62499 -0.09615,-0.106332 -0.296371,-0.984001 -0.444942,-1.950376 -0.1583,-1.029661 -0.505838,-2.1938 -0.839506,-2.812054 -0.313163,-0.580254 -0.922316,-1.370925 -1.353669,-1.757046 -0.431354,-0.386121 -1.03047,-0.869813 -1.331382,-1.074872 l -0.547102,-0.372834 0.353432,-0.01152 c 0.194384,-0.0063 0.821243,0.400262 1.393008,0.903552 0.571765,0.503291 1.280114,1.296108 1.574103,1.761817 0.293988,0.465709 0.6909,1.462307 0.882031,2.214665 0.191122,0.752356 0.397485,1.417338 0.458581,1.477737 0.0611,0.0604 0.04358,-0.334937 -0.03893,-0.878524 -0.08251,-0.543586 -0.302414,-1.466814 -0.488655,-2.051619 -0.190865,-0.599304 -0.757882,-1.535329 -1.299398,-2.145052 -0.528425,-0.594974 -1.01899,-1.313733 -1.090146,-1.597245 l -0.129371,-0.515476 -0.807322,-2.9e-4 c -0.444029,-1.6e-4 -1.59772,-0.316932 -2.563766,-0.703937 -0.966037,-0.387006 -1.938774,-0.868666 -2.161639,-1.070356 l -0.405205,-0.366707 0.115525,-0.711892 0.115525,-0.711891 -0.47964,0.300384 c -0.288336,0.180579 -1.399409,0.344722 -2.785759,0.411553 l -2.306119,0.111169 -1.707857,0.682142 c -0.939325,0.375178 -2.057702,0.682142 -2.485287,0.682142 -0.427585,0 -0.993306,-0.106853 -1.257162,-0.237451 -0.269974,-0.133629 -0.167631,0.01737 0.234072,0.345365 0.392587,0.320548 0.713803,0.751328 0.713803,0.957289 0,0.20596 -0.150057,0.588709 -0.33346,0.850552 l -0.333459,0.476078 0.977161,0.432245 c 0.611261,0.270389 1.234508,0.787505 1.664434,1.381 l 0.687273,0.948757 -0.0523,-1.146788 c -0.0288,-0.630734 3.15e-4,-1.199431 0.06467,-1.263773 0.06433,-0.06434 0.184191,0.688842 0.266329,1.673744 0.08218,0.984901 0.100691,1.839375 0.04126,1.898831 -0.05944,0.05945 -0.433487,-0.16626 -0.831179,-0.501588 -0.397693,-0.335328 -1.041112,-0.742962 -1.429823,-0.905852 -0.388703,-0.16289 -0.962834,-0.296164 -1.275832,-0.296164 -0.313005,0 -0.515973,-0.08595 -0.451051,-0.191004 0.06491,-0.105053 0.511483,-0.119061 0.992343,-0.03113 0.480861,0.08793 1.133992,0.330032 1.451389,0.538 0.317398,0.207968 0.627913,0.327301 0.69003,0.265184 0.06209,-0.06212 -0.149053,-0.456423 -0.469256,-0.876238 -0.320211,-0.419814 -0.913426,-0.920474 -1.318249,-1.112579 -0.404832,-0.192104 -0.908537,-0.349279 -1.119349,-0.349279 -0.210813,0 -0.866368,0.451865 -1.456802,1.004144 -0.590433,0.55228 -1.193684,0.964133 -1.340562,0.91523 -0.146878,-0.0489 -0.295516,-0.235575 -0.330313,-0.414826 -0.03478,-0.179253 0.143466,-0.588724 0.396132,-0.909937 0.252666,-0.321213 0.829428,-0.683663 1.281691,-0.805445 0.452264,-0.121783 1.114095,-0.527605 1.470731,-0.901827 l 0.648433,-0.680405 -0.658892,-0.542251 C 14.78453,12.574854 13.824079,11.931164 13.012589,11.442671 12.201097,10.954178 10.932155,10.366207 10.192727,10.13607 9.4532901,9.905933 8.6253401,9.7176389 8.3528347,9.7176389 c -0.2725053,0 -0.6654832,0.1878675 -0.8732822,0.4174821 l -0.3778202,0.417483 0.2540854,0.955209 c 0.1397474,0.525366 0.5580765,1.528707 0.9296129,2.229646 0.3715446,0.70094 1.210535,1.763404 1.8644384,2.36103 0.653895,0.597628 1.27789,1.086595 1.386649,1.086595 0.108768,0 0.259714,0.246895 0.335452,0.548655 l 0.137706,0.548655 0.662768,-0.557681 c 0.364522,-0.306725 0.70801,-0.51244 0.763303,-0.457143 0.05528,0.05529 -0.298886,0.499965 -0.787068,0.988152 -0.488191,0.488186 -1.144875,1.276365 -1.459309,1.751507 -0.364879,0.551362 -0.616839,1.30123 -0.69647,2.072767 l -0.124765,1.208873 0.465911,1.533909 c 0.256252,0.84365 0.639642,1.731593 0.851973,1.973205 l 0.386064,0.439296 1.647234,-0.179643 c 0.905972,-0.0988 2.264937,-0.185753 3.019922,-0.193221 l 1.372687,-0.01358 0.01735,-0.384354 c 0.01038,-0.22961 0.06193,-0.273822 0.128118,-0.109815 0.06093,0.150996 0.404881,0.274538 0.764332,0.274538 0.379779,0 0.596692,0.09201 0.517816,0.219631 -0.07463,0.120797 -0.37699,0.219631 -0.671858,0.219631 -0.29486,0 -0.536112,0.09883 -0.536112,0.219631 0,0.120796 0.370623,0.227657 0.823617,0.237468 l 0.823609,0.01784 -0.658892,0.301702 -0.658892,0.301702 0.630884,0.0099 0.630877,0.0099 -0.27312,0.329086 -0.27312,0.329087 0.905117,-0.319345 c 0.497819,-0.175639 0.905117,-0.265444 0.905117,-0.199568 0,0.06588 -0.222376,0.305289 -0.494168,0.532028 l -0.494167,0.412252 0.988335,0.0065 c 0.599332,0.0039 1.261569,-0.160119 1.68253,-0.416801 0.381805,-0.232808 0.761758,-0.636182 0.844345,-0.896388 l 0.150157,-0.4731 -0.514903,-0.549569 c -0.283189,-0.302263 -0.829544,-0.681404 -1.214113,-0.842535 -0.384561,-0.161132 -0.845549,-0.575961 -1.024411,-0.921843 -0.178861,-0.345882 -0.395003,-1.000937 -0.480312,-1.455679 -0.08531,-0.454741 -0.297782,-0.96947 -0.472153,-1.143842 l -0.31704,-0.31704 -0.633923,0.327817 c -0.348667,0.180298 -1.020849,0.327816 -1.493741,0.327816 -0.53094,0 -1.076192,-0.170207 -1.425523,-0.444991 -0.311147,-0.244744 -0.628942,-0.64421 -0.706225,-0.887701 l -0.140511,-0.442711 -0.476461,0.137527 c -0.262046,0.07564 -0.744243,0.326855 -1.071543,0.558255 -0.3273,0.231401 -0.663831,0.420729 -0.747838,0.420729 -0.08401,0 0.01793,-0.188637 0.22661,-0.419193 0.208654,-0.230555 0.693432,-0.54263 1.077287,-0.693498 0.383864,-0.150869 1.007178,-0.563036 1.385156,-0.915928 0.424845,-0.396647 1.011842,-0.684148 1.53742,-0.753003 l 0.850181,-0.111382 0.765361,0.519566 c 0.420952,0.285761 0.978962,0.900352 1.24002,1.365757 0.261059,0.465405 0.593439,1.450821 0.738624,2.189813 0.145176,0.738992 0.312516,1.422546 0.371851,1.519009 0.05935,0.09646 0.258693,0.05024 0.443,-0.102725 0.184307,-0.152962 0.694387,-0.31376 1.13351,-0.357327 0.439115,-0.04357 1.169031,-0.09618 1.622017,-0.116906 l 0.823617,-0.03769 v -0.397288 c 0,-0.218524 0.09883,-0.336233 0.219628,-0.261577 0.120796,0.07466 0.219628,0.381483 0.219628,0.681837 0,0.300354 -0.22265,0.768751 -0.494782,1.040883 -0.272131,0.272132 -0.670405,0.762816 -0.885053,1.090409 l -0.390271,0.595624 0.231199,0.431989 c 0.127155,0.237595 0.420098,0.533089 0.650982,0.656654 0.230884,0.123566 0.781979,0.224665 1.224647,0.224665 0.442676,0 1.141014,-0.159512 1.551856,-0.354471 0.41085,-0.19496 0.746991,-0.442044 0.746991,-0.549077 0,-0.107033 -0.370624,-0.204969 -0.823618,-0.217635 l -0.823609,-0.02303 0.834459,-0.258968 c 0.458954,-0.142432 0.763692,-0.329737 0.677196,-0.416232 -0.0865,-0.0865 0.09572,-0.157265 0.404914,-0.157265 0.311006,0 0.621995,-0.15586 0.696048,-0.348844 l 0.13387,-0.348845 -0.933987,0.132869 -0.93398,0.132869 0.823618,-0.356592 c 0.452986,-0.196126 0.823617,-0.444854 0.823617,-0.552732 0,-0.107877 -0.043,-0.19614 -0.09552,-0.19614 -0.05255,0 -0.34904,0.09639 -0.658892,0.214194 -0.30986,0.117808 -0.563372,0.128522 -0.563372,0.02381 0,-0.104711 0.247079,-0.252398 0.54907,-0.328194 0.313263,-0.07863 0.549078,-0.296367 0.549078,-0.506997 v -0.369188 l 0.231863,0.231859 0.231856,0.231858 1.470282,-0.541234 c 0.80865,-0.29768 1.742073,-0.622435 2.074263,-0.721679 0.33219,-0.09924 0.603981,-0.111088 0.603981,-0.02632 0,0.08477 -0.859776,0.458152 -1.910617,0.829745 -1.050841,0.371593 -1.943987,0.775734 -1.984778,0.89809 -0.04076,0.122356 0.73136,-0.01084 1.715875,-0.296 0.984516,-0.285156 2.025918,-0.518466 2.314221,-0.518466 h 0.524191 v -0.439261 c 0,-0.241594 0.09883,-0.439262 0.219637,-0.439262 0.120796,0 0.219628,0.175572 0.219628,0.390158 v 0.390158 l 0.907449,-0.08654 0.907441,-0.08654 -0.151701,0.245458 c -0.08343,0.135002 -0.541201,0.245458 -1.017263,0.245458 h -0.865554 v 0.439261 0.439262 h 0.982091 c 0.540155,0 1.726161,0.163496 2.635569,0.363323 0.909408,0.199828 1.653477,0.457487 1.653477,0.572575 0,0.115089 -0.160658,0.147605 -0.357009,0.07226 -0.196344,-0.07535 -1.197636,-0.283589 -2.225076,-0.46276 -1.02744,-0.17917 -2.102213,-0.325765 -2.388382,-0.325765 -0.286169,0 -0.520307,0.09075 -0.520307,0.201668 0,0.110917 -0.05537,0.345936 -0.123021,0.522263 l -0.123029,0.320597 1.534291,0.346485 c 0.843856,0.190568 1.902732,0.500433 2.353053,0.688589 0.450321,0.188157 0.774965,0.385906 0.721423,0.439442 -0.05354,0.05353 -0.88409,-0.145414 -1.84567,-0.442115 -0.961588,-0.296699 -1.959186,-0.539467 -2.216891,-0.539484 -0.278125,-1.8e-5 -0.513583,0.172171 -0.579352,0.423669 l -0.110801,0.4237 1.897136,0.921019 c 1.043428,0.506561 1.781952,0.963766 1.641166,1.016013 -0.140776,0.05225 -0.953694,-0.256375 -1.806464,-0.685826 -0.852779,-0.429451 -1.602384,-0.78082 -1.665804,-0.78082 -0.06342,0 -0.115293,0.190633 -0.115293,0.42363 0,0.270804 0.609078,0.884855 1.688358,1.702138 0.9286,0.703179 1.729846,1.409068 1.780549,1.568642 0.05072,0.159572 -0.62397,-0.263198 -1.499278,-0.939493 -0.875299,-0.676294 -1.637032,-1.184055 -1.692724,-1.128356 -0.0557,0.0557 0.277096,1.120889 0.739537,2.367092 l 0.840817,2.265823 0.005,3.448302 0.005,3.448302 -0.288078,0.28542 -0.288086,0.285421 0.178272,-1.20797 c 0.09804,-0.664382 0.176056,-2.149203 0.173358,-3.2996 l -0.005,-2.091632 -0.983428,-3.017391 -0.983428,-3.017391 -1.647226,-0.850547 c -0.90598,-0.467801 -1.894323,-0.923495 -2.196313,-1.012653 -0.301991,-0.08916 0.06408,0.250505 0.813573,0.754805 0.749456,0.5043 1.787206,1.389611 2.306118,1.967358 0.518913,0.577747 1.122462,1.550064 1.34121,2.160705 0.218757,0.610641 0.451567,1.639996 0.51736,2.287456 0.06583,0.64746 0.01826,1.720785 -0.105655,2.385169 -0.123909,0.664382 -0.434093,1.765967 -0.689299,2.447964 -0.255214,0.681998 -0.853957,1.843295 -1.330534,2.580661 -0.476586,0.737367 -0.971185,1.340666 -1.09912,1.340666 -0.127935,0 0.151328,-0.568295 0.620575,-1.262877 z M 16.912381,31.254593 c 1.203256,-1.261143 1.891243,-2.109945 1.528854,-1.886229 -0.362397,0.223716 -1.202483,0.825985 -1.866862,1.338375 -0.664388,0.51239 -1.594357,1.33208 -2.066602,1.821533 l -0.858631,0.889915 0.290685,0.350257 0.290693,0.350257 0.247063,-0.285561 c 0.135879,-0.15706 1.231545,-1.317406 2.4348,-2.578547 z m -1.642868,0.151585 c 1.032072,-0.946222 1.477512,-1.482507 1.231388,-1.482507 -0.212099,0 -1.122421,0.497181 -2.022938,1.104846 -0.900527,0.607666 -1.637315,1.180903 -1.637315,1.273859 0,0.09296 0.119833,0.288848 0.266304,0.435314 0.146463,0.146466 0.329135,0.240358 0.405927,0.208649 0.07679,-0.03171 0.867281,-0.724781 1.756634,-1.540161 z m -1.191559,-0.539014 1.477985,-1.033183 -0.693408,-0.179681 -0.693407,-0.17968 -1.206983,0.681179 -1.206983,0.681179 0.348377,0.531685 c 0.191604,0.292427 0.381688,0.531685 0.422405,0.531685 0.04076,0 0.739121,-0.464933 1.552014,-1.033184 z m -1.270602,-1.023814 0.955039,-0.499733 -0.546239,-0.357911 -0.546248,-0.357911 -0.793152,0.219 c -0.436235,0.12045 -0.793153,0.319686 -0.793153,0.442746 0,0.123061 0.102318,0.414917 0.227364,0.648569 0.125047,0.233653 0.298007,0.420356 0.384354,0.414898 0.08635,-0.0055 0.586764,-0.234804 1.112035,-0.509658 z m 4.519498,-0.933186 c 0.565091,-0.315835 0.980208,-0.621481 0.922474,-0.679212 -0.05769,-0.05773 -0.631175,0.04808 -1.274312,0.235128 -0.643145,0.18705 -1.367017,0.489552 -1.60861,0.672226 l -0.439264,0.332134 0.686136,0.007 c 0.37738,0.0038 1.148486,-0.251426 1.713576,-0.567261 z m 0.126043,0.46443 c 0,-0.0604 -0.04939,-0.109815 -0.109814,-0.109815 -0.06043,0 -0.109814,0.04942 -0.109814,0.109815 0,0.0604 0.04939,0.109816 0.109814,0.109816 0.06043,0 0.109814,-0.04942 0.109814,-0.109816 z M 16.53369,28.283819 c 0.642007,-0.209869 1.135154,-0.413716 1.095873,-0.452995 -0.03926,-0.03928 -0.910479,0.07151 -1.935993,0.246206 -1.025523,0.174693 -2.012836,0.372297 -2.19403,0.439122 l -0.329442,0.1215 0.544363,0.293247 0.544363,0.293247 0.553785,-0.279375 c 0.304589,-0.153656 1.079073,-0.451085 1.721081,-0.660952 z m 1.686357,0.763845 c 0.07695,-0.1245 -0.01121,-0.161321 -0.20667,-0.08632 -0.18747,0.07194 -0.340856,0.16964 -0.340856,0.217114 0,0.04747 0.093,0.08632 0.20667,0.08632 0.113674,0 0.267052,-0.0977 0.340856,-0.217115 z m 0.55063,-0.331962 c 0,-0.0604 -0.04939,-0.109815 -0.109814,-0.109815 -0.06043,0 -0.109814,0.04942 -0.109814,0.109815 0,0.0604 0.04939,0.109815 0.109814,0.109815 0.06043,0 0.109814,-0.04942 0.109814,-0.109815 z M 33.70557,28.416737 v -0.408781 l -1.195287,-0.457411 c -0.657414,-0.251577 -1.571629,-0.51693 -2.031587,-0.589672 l -0.836293,-0.13226 1.866862,0.961895 c 1.026776,0.529041 1.940982,0.978344 2.03158,0.998452 0.09061,0.02011 0.164725,-0.147394 0.164725,-0.372223 z m -21.770213,-0.0093 c 0.166468,-0.105442 0.23476,-0.301596 0.151759,-0.435898 -0.08301,-0.134303 -0.240439,-0.244187 -0.349854,-0.244187 -0.109416,0 -0.30473,0.197668 -0.434027,0.439262 l -0.235084,0.439262 0.282259,-0.0034 c 0.155254,-0.0018 0.41847,-0.08963 0.584947,-0.195076 z m 4.127176,-0.730868 c 0.986856,-0.153961 1.863351,-0.349 1.947772,-0.433421 0.08442,-0.08442 -0.574753,-0.105046 -1.464836,-0.04584 -0.890084,0.05921 -2.241155,0.16169 -3.00239,0.227731 l -1.384068,0.120078 0.276797,0.333523 0.276797,0.333523 0.77782,-0.127834 c 0.427801,-0.07031 1.585251,-0.253801 2.572108,-0.407763 z M 33.70557,27.085922 v -0.42181 L 33.101589,26.5484 c -0.33219,-0.06364 -1.246404,-0.170404 -2.031588,-0.237249 l -1.427598,-0.121538 0.439264,0.199754 c 0.241592,0.109865 1.032263,0.396942 1.75704,0.637949 0.724786,0.241006 1.441328,0.447694 1.592324,0.459305 0.150995,0.01161 0.274539,-0.168703 0.274539,-0.400699 z m -9.752891,-0.968764 0.314882,0.402237 -0.05794,-0.658892 -0.05794,-0.658893 0.494175,-0.07018 c 0.271791,-0.0386 0.494167,-0.170009 0.494167,-0.292019 0,-0.142694 -0.528898,-0.166779 -1.482509,-0.06751 -0.815375,0.08488 -1.55663,0.197414 -1.647227,0.250074 -0.0906,0.05266 -0.164725,0.194959 -0.164725,0.31622 0,0.121261 0.17296,0.202881 0.384353,0.181377 0.211394,-0.0215 0.497181,-0.02772 0.635085,-0.0138 0.137896,0.01391 0.328687,0.297084 0.423966,0.629276 l 0.173242,0.603984 0.08782,-0.512052 0.08782,-0.512051 z m 9.972527,-0.398872 v -0.471663 l -1.893185,0.145521 c -1.041253,0.08004 -2.004875,0.21816 -2.141402,0.30694 -0.136518,0.08878 0.394207,0.218485 1.179382,0.288234 0.785184,0.06975 1.748814,0.143873 2.141402,0.164722 l 0.713803,0.03791 z m -0.799362,-0.76616 c 0.586757,-0.08043 1.01899,-0.254719 1.01899,-0.410905 v -0.271238 l -0.933431,0.1848 c -0.513384,0.10164 -1.229935,0.278052 -1.592324,0.392028 l -0.658892,0.207228 0.573334,0.01888 c 0.31533,0.01038 1.031873,-0.04397 1.592323,-0.12079 z m -14.080628,-2.89277 c 0.211394,-0.181556 0.384353,-0.556036 0.384353,-0.832178 0,-0.276141 -0.08648,-0.555522 -0.192176,-0.620846 -0.105697,-0.06533 -0.192177,0.143511 -0.192177,0.464079 0,0.320568 -0.179492,0.714101 -0.398879,0.874518 -0.219379,0.160416 -0.528235,0.291666 -0.686344,0.291666 -0.158109,0 -0.485136,-0.197667 -0.726728,-0.439261 -0.241592,-0.241594 -0.439264,-0.656696 -0.439264,-0.922449 v -0.483188 l -0.247478,0.247477 c -0.142238,0.142242 -0.185685,0.493673 -0.102161,0.826453 0.09256,0.368765 0.397527,0.685024 0.839962,0.871055 0.382054,0.160641 0.848072,0.238233 1.035592,0.172426 0.18752,-0.06581 0.513907,-0.268196 0.7253,-0.449752 z m 0.970039,-0.408443 c -0.08052,-0.08053 -0.146421,-0.01464 -0.146421,0.146421 0,0.161062 0.06591,0.226952 0.146421,0.14642 0.08052,-0.08053 0.08052,-0.212309 0,-0.292841 z m -2.635569,-1.317784 c -0.08052,-0.08053 -0.146421,-0.01464 -0.146421,0.14642 0,0.161063 0.06591,0.226952 0.146421,0.146421 0.08052,-0.08053 0.08052,-0.21231 0,-0.292841 z M 10.8651,19.203487 C 10.640425,19.166033 10.363479,19.017785 10.249655,18.874041 10.135824,18.730297 9.9237661,18.243437 9.7784155,17.792132 9.6330649,17.340826 9.4185587,16.912501 9.3017304,16.840299 c -0.1307409,-0.0808 -0.1526389,0.108017 -0.056945,0.49111 0.085509,0.342312 0.4600997,1.073472 0.8324166,1.624799 l 0.676947,1.002412 0.259713,-0.34352 0.259714,-0.343519 z m 0.394206,-0.524909 c 0.144961,-0.144957 0.263557,-0.401859 0.263557,-0.570893 0,-0.169035 -0.717638,-1.014064 -1.5947472,-1.877843 -0.8771173,-0.863779 -1.7182825,-1.768175 -1.8692611,-2.009768 -0.1509787,-0.241595 -0.075124,-0.02196 0.168502,0.488062 0.2436511,0.510028 0.7388969,1.264329 1.1005467,1.676225 0.3616499,0.411895 0.6575475,0.813153 0.6575475,0.891684 0,0.07853 0.1432091,0.485527 0.3182351,0.904436 0.175035,0.418909 0.40235,0.761654 0.50515,0.761654 0.102808,0 0.305518,-0.118601 0.45047,-0.263557 z m 2.252054,-2.726721 0.756886,-0.79397 -0.549078,0.161958 c -0.301991,0.08908 -0.67801,0.265276 -0.835604,0.391553 -0.157586,0.126276 -0.38344,0.410682 -0.501896,0.632012 l -0.215369,0.402417 h 0.294088 c 0.161753,0 0.634686,-0.357286 1.050973,-0.79397 z m 20.219212,-3.1364 -0.209949,-0.57206 -0.01735,1.21895 c -0.0095,0.670423 -0.119418,1.321024 -0.244174,1.445782 -0.124764,0.124764 -0.152879,0.416303 -0.06251,0.647911 l 0.164343,0.421079 0.28978,-1.294801 0.289771,-1.294801 z m -0.555993,0.635909 c -0.06765,-0.42279 -0.125121,-1.114626 -0.127628,-1.537415 l -0.0042,-0.768708 -0.551602,1.184962 c -0.342175,0.735056 -0.497935,1.360475 -0.410235,1.64723 0.07778,0.254248 0.24761,0.594736 0.377471,0.75664 l 0.236106,0.294371 0.301758,-0.404187 c 0.190367,-0.254976 0.256335,-0.687964 0.178695,-1.172893 z M 7.7891384,13.561181 c 0,-0.0604 -0.049391,-0.109815 -0.1098139,-0.109815 -0.060431,0 -0.109814,0.04942 -0.109814,0.109815 0,0.0604 0.049391,0.109815 0.109814,0.109815 0.060431,0 0.1098139,-0.04942 0.1098139,-0.109815 z M 31.289637,13.237375 c 0,-0.117695 -0.291597,-0.364779 -0.647993,-0.549077 -0.356387,-0.184297 -0.943558,-0.335086 -1.304818,-0.335086 -0.361268,0 -0.712708,0.09039 -0.780983,0.200872 -0.06832,0.110479 0.296512,0.349762 0.810651,0.531738 0.514139,0.181975 1.157176,0.338668 1.428968,0.348205 0.271791,0.0095 0.494175,-0.07896 0.494175,-0.196652 z M 7.2660424,12.427536 C 7.0802327,12.084666 6.9242485,11.87361 6.919409,11.958524 c -0.00498,0.08491 0.1060952,0.406542 0.246515,0.714728 0.1404197,0.308186 0.2964039,0.519243 0.3466333,0.469013 0.050221,-0.05023 -0.06068,-0.371857 -0.2465149,-0.714729 z M 32.477926,11.364873 C 32.679175,10.760889 32.901709,9.5254665 32.97245,8.6194895 L 33.101074,6.9722593 32.755636,6.1486445 C 32.532654,5.617 32.265752,5.3250288 32.002735,5.3250288 c -0.224111,0 -0.846868,0.279704 -1.383902,0.6215634 -0.537033,0.3418603 -1.717685,1.4863203 -2.623665,2.5432448 -0.90598,1.0569249 -1.721512,2.053567 -1.8123,2.214761 -0.0908,0.161193 -0.110926,0.434197 -0.04474,0.606674 0.06616,0.172479 0.51052,0.532894 0.987421,0.800924 l 0.867082,0.487329 0.489394,-0.342787 c 0.269168,-0.188533 0.749298,-0.342787 1.066944,-0.342787 0.317655,0 0.913368,0.233571 1.323828,0.519048 l 0.746277,0.519047 0.246473,-0.244509 c 0.135556,-0.134481 0.411124,-0.738679 0.612374,-1.342664 z M 7.2916178,9.7736698 C 7.4101976,9.7341404 7.6941916,9.5503819 7.9227182,9.3653136 L 8.3382166,9.0288241 7.6815242,9.1710161 C 7.3203475,9.2492199 6.9512351,9.4289142 6.8612771,9.5703334 6.7713191,9.7117518 6.7075674,10.222794 6.7196122,10.705981 l 0.021915,0.878524 0.1672487,-0.869484 C 7.0007672,10.236805 7.1730545,9.8131967 7.2916344,9.7736698 Z M 33.192136,10.321627 c -0.06093,-0.150996 -0.110777,-0.02745 -0.110777,0.274539 0,0.301993 0.04989,0.425535 0.110777,0.274539 0.06093,-0.150996 0.06093,-0.398082 0,-0.549078 z m -0.04383,-4.7190782 -0.35794,-0.9372405 -0.5071,-0.1272734 c -0.278905,-0.070002 -0.789533,0.020877 -1.134739,0.2019426 -0.345197,0.181069 -1.022974,0.7572756 -1.506159,1.2804596 L 28.763841,6.9716807 29.532555,6.2693012 C 29.955342,5.8829924 30.674143,5.4113933 31.129893,5.221302 l 0.828631,-0.3456205 0.444759,0.238028 c 0.244614,0.130915 0.53886,0.4855372 0.653879,0.7880482 0.11501,0.3025118 0.229008,1.3589654 0.253313,2.3476764 l 0.04424,1.7976549 0.07579,-1.7536496 0.07579,-1.75365 z M 9.2533106,9.351592 c -0.08052,-0.080528 -0.2123065,-0.080528 -0.2928345,0 -0.08052,0.080528 -0.01461,0.1464206 0.1464131,0.1464206 0.1610644,0 0.2269577,-0.065885 0.1464214,-0.1464206 z M 23.053481,31.922784 c -0.362397,-0.09272 -0.973841,-0.332664 -1.358767,-0.533209 -0.384934,-0.200544 -0.761393,-0.464163 -0.836575,-0.585819 -0.07521,-0.121656 -0.10617,-0.220779 -0.06882,-0.220274 0.03735,5.06e-4 0.554075,0.24759 1.148336,0.549077 l 1.080467,0.548158 h 1.101402 c 0.666388,0 1.473868,-0.180304 2.044421,-0.456507 0.518663,-0.251079 1.389953,-0.953606 1.936209,-1.561169 0.546248,-0.607564 0.993182,-1.008468 0.993182,-0.890897 0,0.117572 -0.221521,0.498887 -0.492274,0.847369 -0.270754,0.348482 -0.690802,0.808806 -0.933432,1.022941 -0.242638,0.214136 -0.789392,0.57535 -1.215018,0.802698 -0.425625,0.227347 -1.216296,0.465751 -1.75704,0.529786 -0.540752,0.06403 -1.279691,0.04057 -1.64208,-0.05216 z m -2.306127,-4.524867 c 0,-0.0604 0.04939,-0.109814 0.109814,-0.109814 0.06043,0 0.109814,0.04941 0.109814,0.109814 0,0.0604 -0.04939,0.109816 -0.109814,0.109816 -0.06043,0 -0.109814,-0.04942 -0.109814,-0.109816 z m 6.149658,-1.098154 c 0,-0.0604 0.04939,-0.109814 0.109822,-0.109814 0.06043,0 0.109814,0.04941 0.109814,0.109814 0,0.0604 -0.04939,0.109816 -0.109814,0.109816 -0.06043,0 -0.109822,-0.04942 -0.109822,-0.109816 z m -1.607589,-4.148886 c -0.08218,-0.214208 -0.149452,-0.805197 -0.149452,-1.313307 0,-0.521272 0.215337,-1.350862 0.494167,-1.903806 l 0.494167,-0.979969 0.800308,-0.391304 0.8003,-0.391304 0.956741,0.3332 c 0.526217,0.183261 1.376796,0.334639 1.89018,0.336397 0.513384,0.0017 0.933431,0.08585 0.933431,0.186875 0,0.101024 -0.419906,0.175149 -0.933132,0.164724 l -0.933124,-0.01896 0.06649,0.669099 c 0.04217,0.424509 -0.09969,0.880342 -0.388089,1.246977 -0.25001,0.317833 -0.783283,0.686366 -1.185051,0.818962 -0.401769,0.132596 -1.056021,0.213876 -1.453896,0.180623 l -0.723408,-0.06047 -0.260079,0.755861 -0.260078,0.75586 z m 0.588864,-1.781143 c -0.06956,-0.181195 -0.165264,-0.329446 -0.212738,-0.329446 -0.04748,0 -0.08632,0.148251 -0.08632,0.329446 0,0.181196 0.09574,0.329446 0.212738,0.329446 0.117011,0 0.155852,-0.14825 0.08632,-0.329446 z m 2.428467,-0.135004 0.590451,-0.46445 -0.06666,-0.781449 c -0.03669,-0.429798 -0.165497,-0.81394 -0.286294,-0.85365 -0.12312,-0.04048 -0.219636,0.334924 -0.219636,0.854316 v 0.926515 L 27.697776,20.138403 27.070934,20.360794 26.544717,19.749032 26.0185,19.13727 v 0.550411 c 0,0.302726 0.172959,0.65115 0.384353,0.774276 0.211393,0.123126 0.593405,0.226871 0.848902,0.230545 0.255505,0.0037 0.730256,-0.202324 1.055008,-0.457772 z m -1.482949,-1.658647 c -0.08052,-0.08053 -0.146421,-0.01464 -0.146421,0.14642 0,0.161063 0.06591,0.226952 0.146421,0.146421 0.08052,-0.08053 0.08052,-0.21231 0,-0.292841 z m -1.895451,-2.732008 c -0.260718,-0.858353 -0.430963,-1.603707 -0.378335,-1.656341 0.05263,-0.05264 0.265466,0.328445 0.47295,0.846842 l 0.377247,0.942543 0.282574,-0.821621 c 0.155412,-0.451891 0.445051,-1.069603 0.643644,-1.372691 0.198593,-0.30309 0.459037,-0.551072 0.578762,-0.551072 0.119726,0 -0.02864,0.372244 -0.32974,0.827209 -0.301078,0.454965 -0.613013,1.17151 -0.693192,1.592323 l -0.145766,0.765114 0.489834,-0.608373 c 0.269409,-0.334605 0.765079,-0.750707 1.101493,-0.924671 0.336407,-0.173964 0.674341,-0.253614 0.750951,-0.177 0.07662,0.07662 -0.232063,0.346979 -0.685954,0.600809 -0.45389,0.253829 -1.022924,0.829356 -1.264517,1.278948 -0.241592,0.44959 -0.503754,0.817705 -0.582589,0.818031 -0.07886,3.27e-4 -0.356644,-0.701695 -0.617362,-1.56005 z"
       id="path245" /></g></svg>
