<?xml version="1.0" encoding="UTF-8" standalone="no"?>
<!-- Created with Inkscape (http://www.inkscape.org/) -->

<svg
   width="14.790392mm"
   height="42.602009mm"
   viewBox="0 0 14.790392 42.602009"
   version="1.1"
   id="svg1"
   xml:space="preserve"
   xmlns="http://www.w3.org/2000/svg"
   xmlns:svg="http://www.w3.org/2000/svg"><defs
     id="defs1" /><g
     id="layer1"
     transform="translate(-147.08806,-4.9925216)"><path
       style="fill:#0000ff;fill-opacity:1;stroke:none;stroke-width:0.138135;stroke-dasharray:none;stroke-opacity:1"
       d="m 156.3498,47.403755 c 0,-0.10398 -0.0448,-0.23396 -0.0996,-0.28884 -0.1465,-0.14673 -0.63642,-1.97026 -0.96978,-3.60956 -0.17307,-0.85111 -0.38196,-1.06196 -1.72559,-1.74183 -3.89268,-1.96965 -5.165,-3.18132 -6.18438,-5.88956 -0.53316,-1.41646 -0.29508,-1.8654 0.57679,-1.08758 0.25995,0.23191 0.82589,0.6914 1.25763,1.02108 0.43173,0.32968 0.85878,0.672 0.94901,0.7607 0.0902,0.0887 0.35142,0.30078 0.58044,0.47127 1.55849,1.16021 3.10617,2.63606 3.68081,3.51 0.37577,0.57148 0.45002,0.37183 0.2711,-0.729 -0.061,-0.37549 -0.14036,-1.13172 -0.17631,-1.68052 -0.036,-0.54879 -0.0898,-1.09991 -0.11957,-1.22472 -0.0454,-0.19033 -1.36052,-1.19101 -1.56519,-1.19101 -0.0336,0 -0.2672,-0.1418 -0.51909,-0.3151 -0.25189,-0.1733 -0.48436,-0.3151 -0.51662,-0.3151 -0.0323,0 -0.1419,-0.0683 -0.24366,-0.15175 -0.10175,-0.0835 -0.44496,-0.34377 -0.76268,-0.57844 -1.61669,-1.19415 -2.71778,-2.85717 -3.23703,-4.88902 -0.0591,-0.23108 -0.15879,-0.61606 -0.22164,-0.85553 -0.11717,-0.44645 -0.0664,-0.77248 0.12033,-0.77248 0.11093,0 0.60259,0.43109 0.60569,0.53108 6.9e-4,0.0322 1.08871,1.15853 2.41715,2.50309 1.67354,1.69385 2.57479,2.69201 2.93452,3.25008 0.97138,1.50695 0.93854,1.50419 0.83725,0.0702 -0.0408,-0.57768 -0.0797,-1.57023 -0.0863,-2.20568 -0.007,-0.63544 -0.0468,-1.20262 -0.0893,-1.26038 -0.10103,-0.13752 -0.73008,-0.57768 -0.82558,-0.57768 -0.0408,0 -0.14908,-0.0705 -0.24058,-0.15658 -0.0915,-0.0861 -0.52084,-0.43291 -0.9541,-0.77067 -1.80833,-1.40972 -2.63717,-2.51361 -3.12862,-4.1668 -0.2293,-0.77139 -0.28771,-1.62837 -0.11084,-1.62656 0.33939,0.003 4.81495,4.63281 4.81495,4.98038 0,0.0277 0.11815,0.22451 0.26258,0.43733 0.26258,0.38693 0.26258,0.38693 0.27952,-1.07192 0.009,-0.80237 0.0211,-1.76174 0.0263,-2.13193 0.009,-0.67308 0.009,-0.67308 -0.88744,-1.05032 -1.3943,-0.58655 -2.51534,-1.40752 -2.86411,-2.09747 -0.0766,-0.15146 -0.19118,-0.36991 -0.25472,-0.48545 -0.25494,-0.46356 -0.49478,-1.08708 -0.68684,-1.78555 -0.63529,-2.31036 -0.46416,-2.486237 0.89422,-0.91902 0.48818,0.56323 1.27416,1.41437 1.74663,1.89141 0.75732,0.76464 1.90403,2.30622 1.90403,2.55967 0,0.0504 0.0709,0.0916 0.15754,0.0916 0.12168,0 0.15773,-0.13749 0.15834,-0.60394 4.1e-4,-0.33216 0.047,-1.00568 0.10361,-1.49671 0.12263,-1.06507 0.0936,-1.18479 -0.35098,-1.44709 -1.12065,-0.6612 -2.08037,-1.92862 -2.5437,-3.359268 -0.0887,-0.27377 -0.20296,-0.59229 -0.254,-0.707826 -1.17489,-2.659526 1.40546,-0.680116 2.79151,2.141394 0.53216,1.08328 0.55385,1.02666 0.88075,-2.298944 0.095,-0.966809 0.21851,-1.85133 0.36856,-2.640035 0.10374,-0.545241 -0.0597,-0.572377 -0.64771,-0.107573 -0.71704,0.566797 -0.82628,0.610227 -1.73354,0.68922 -1.8688,0.16273 -1.7844,-0.18207 0.41544,-1.6972 0.63971,-0.440589 0.6396,-0.451861 -0.007,-0.751967 -2.44813,-1.136273 -3.71152,-3.8164346 -1.93667,-4.1084386 0.23072,-0.03799 0.32686,-0.105322 0.2998,-0.21007 -0.27199,-1.053032 -0.0571,-1.437939 0.74281,-1.330643 0.35095,0.0471 0.51611,-0.01036 1.14459,-0.397816 1.22764,-0.756891 4.10839,-0.700525 4.79502,0.09381 0.19352,0.223883 0.32705,0.272589 0.74732,0.272589 0.8676,0 1.38027,0.607277 1.38027,1.635004 0,0.402899 0.053,0.535951 0.30908,0.775118 1.06325,0.993227 -0.50535,2.9107856 -3.06533,3.7472576 -0.58995,0.19276 -0.6929,0.316495 -0.38846,0.466842 0.0832,0.04109 0.33199,0.162633 0.55282,0.270082 1.25672,0.611462 2.04005,2.169069 0.88609,1.761923 -0.23169,-0.08173 -0.51119,-0.14862 -0.62111,-0.14862 -0.21521,0 -1.40546,-0.567219 -1.66431,-0.793139 -0.0866,-0.07563 -0.2853,-0.254583 -0.44145,-0.397691 -0.35479,-0.325164 -0.4203,-0.161425 -0.60253,1.505923 -0.19622,1.795365 -0.31209,2.851223 -0.38186,3.479628 -0.0709,0.63867 0.0897,0.93463 0.26167,0.48226 0.179,-0.47078 1.35304,-1.397704 2.68713,-2.121505 0.40437,-0.219386 0.82846,-0.463271 0.9424,-0.541953 0.82504,-0.569746 0.52534,0.68616 -0.46172,1.934898 -0.65971,0.83458 -1.65529,1.58262 -3.1288,2.35081 -0.56317,0.29361 -0.56947,0.31196 -0.63436,1.8469 -0.0621,1.46899 -0.0732,1.45408 0.58682,0.78773 0.2718,-0.27439 0.91862,-0.78179 1.43738,-1.12755 0.51875,-0.34575 1.47136,-0.99564 2.11691,-1.44419 1.73191,-1.2034 1.85474,-1.00573 0.63543,1.02252 -1.02824,1.71041 -2.49619,2.83639 -4.45572,3.41774 -0.56137,0.16652 -0.53455,0.0577 -0.55788,2.2642 -0.0267,2.52741 -0.0262,2.52973 0.40598,1.61593 0.13611,-0.28781 0.28972,-0.5233 0.34136,-0.5233 0.0517,0 0.0953,-0.059 0.097,-0.1313 0.006,-0.26466 2.10818,-2.17941 2.39251,-2.17941 0.0593,0 0.12343,-0.0378 0.14268,-0.084 0.0193,-0.0462 0.49575,-0.45305 1.05889,-0.90409 1.20549,-0.96553 1.58348,-0.99444 1.22124,-0.0934 -0.0649,0.16157 -0.1513,0.3883 -0.19187,0.50384 -0.65754,1.87275 -2.36967,3.63037 -4.91774,5.04844 -0.50072,0.27866 -0.92399,4.77206 -0.44953,4.77206 0.12813,0 0.28418,-0.2313 0.35431,-0.52516 0.0708,-0.29653 0.81358,-1.56138 1.15766,-1.97123 0.38735,-0.4614 2.48108,-2.7645 3.34359,-3.67794 0.45193,-0.47861 0.82169,-0.91075 0.82169,-0.9603 0,-0.14186 0.33938,-0.23535 0.4506,-0.12412 0.10145,0.10145 -0.36916,1.81277 -0.71826,2.61189 -1.02864,2.35465 -1.96034,3.64057 -3.58346,4.94582 -1.90088,1.52861 -1.76821,1.33786 -1.62805,2.34085 0.0675,0.48333 0.12279,1.09146 0.12279,1.35142 -3e-5,1.25313 0.418,2.52872 0.61509,1.8769 0.52891,-1.74919 1.41592,-3.13085 3.53126,-5.50051 0.36098,-0.40437 0.97364,-1.08971 1.36147,-1.52297 0.38782,-0.43326 0.78255,-0.91772 0.87716,-1.07658 0.5204,-0.87371 0.71237,0.12777 0.23657,1.23413 -0.0497,0.11553 -0.15126,0.44639 -0.22572,0.73522 -0.57949,2.248 -1.36503,3.42781 -4.09105,6.14438 -1.98873,1.98184 -1.97246,1.91238 -1.1103,4.73984 0.28189,0.92448 0.464,1.71438 0.41463,1.79842 -0.0876,0.14912 -0.24396,0.0785 -0.24396,-0.11029 z m -1.8211,-5.92417 c -0.0622,-0.24708 -0.1234,-0.33682 -0.86814,-1.27417 -0.53741,-0.67639 -2.065,-2.04726 -3.56017,-3.1949 -0.0577,-0.0443 -0.58783,-0.47007 -1.17792,-0.94606 -1.49714,-1.20766 -1.62478,-1.12352 -0.82466,0.54356 1.00019,2.08393 1.86953,2.83062 5.56195,4.77718 0.88153,0.46473 0.96454,0.47375 0.86894,0.0944 z m 2.73377,-1.01155 c 2.46827,-2.47321 2.85835,-3.07077 3.76682,-5.77013 0.39938,-1.18671 0.33604,-1.17288 -0.83812,0.18309 -0.49883,0.57607 -1.05011,1.20232 -1.22506,1.39167 -0.87978,0.95221 -2.40625,3.01367 -2.40625,3.24959 0,0.0456 -0.13501,0.37944 -0.30003,0.74194 -0.79124,1.73805 -0.57282,1.78246 1.00264,0.20384 z m -1.24576,-5.17807 c 1.93759,-1.54934 3.03914,-3.13744 3.96069,-5.71016 0.32794,-0.91548 0.1707,-0.80777 -1.49495,1.02406 -2.39586,2.6349 -2.58526,2.89128 -3.17781,4.30158 -0.52902,1.25911 -0.44109,1.30659 0.71207,0.38452 z m -2.18768,0.3717 c 0,-0.0942 -0.58935,-1.14891 -0.88549,-1.58473 -0.61882,-0.91065 -5.10236,-5.30298 -5.09981,-4.99604 0.002,0.27462 0.25388,0.97254 0.76674,2.12691 0.31703,0.71357 1.05355,1.69459 1.69519,2.25793 1.25706,1.10364 3.52337,2.51611 3.52337,2.19593 z m -0.0323,-6.00309 c -0.0821,-0.15886 -0.27984,-0.54879 -0.4395,-0.86652 -0.39485,-0.78568 -0.75453,-1.22155 -2.03005,-2.46006 -0.59958,-0.58218 -1.29413,-1.26464 -1.54346,-1.51659 -0.83142,-0.84015 -0.5914,0.61688 0.31769,1.92853 0.56975,0.82204 2.10613,2.30531 2.57621,2.48715 0.10153,0.0392 0.21823,0.12582 0.25933,0.19232 0.27401,0.44337 1.08138,0.6642 0.85978,0.23517 z m 2.50054,-0.555 c 1.79384,-1.21462 2.95079,-2.57667 3.27043,-3.85022 0.10971,-0.43714 0.0788,-0.41681 -2.54452,1.67477 -0.95069,0.75798 -1.34944,1.23363 -1.87007,2.23072 -0.49792,0.95358 -0.33411,0.94567 1.14416,-0.0553 z m -2.43577,-4.90667 c -0.18975,-0.52886 -1.36532,-2.09542 -2.29068,-3.05256 -0.57768,-0.59751 -1.19849,-1.24812 -1.37958,-1.44578 -0.62543,-0.68266 -0.67212,-0.54308 -0.23965,0.71647 0.70552,2.05479 1.26402,2.74999 2.83725,3.53173 0.96662,0.48031 1.17247,0.52831 1.07266,0.25014 z m 2.33073,-0.21448 c 1.54304,-0.77427 2.0476,-1.22946 3.01968,-2.72417 0.50362,-0.77439 0.36958,-0.82929 -0.53158,-0.21769 -0.45124,0.30624 -0.89618,0.60406 -0.98875,0.66182 -2.7255,1.70067 -3.89797,3.48363 -1.49935,2.28004 z m -0.32508,-4.38068 c 0.21281,-0.14441 0.4145,-0.26258 0.44819,-0.26258 0.12027,0 1.56132,-1.10631 1.76747,-1.35691 1.02497,-1.24596 1.01214,-1.627441 -0.0315,-0.937345 -0.2484,0.164257 -0.47551,0.298649 -0.50467,0.298649 -0.18025,0 -1.33564,0.905136 -1.63083,1.277606 -0.80234,1.01238 -0.82697,1.50877 -0.0486,0.98058 z m -1.75704,-0.14373 c -0.0973,-0.48653 -0.76692,-1.836376 -1.1857,-2.390195 -1.0017,-1.32469 -1.63229,-1.604607 -1.09101,-0.484289 0.11553,0.239133 0.21007,0.478453 0.21007,0.531821 0,0.396379 0.61707,1.394273 1.22594,1.982523 0.76206,0.73625 0.93033,0.80834 0.8407,0.36014 z m 4.59744,-5.466661 c 0.16628,-0.26904 -1.11625,-1.074845 -1.91138,-1.200921 -0.93176,-0.147736 0.48382,1.035724 1.46146,1.221821 0.13492,0.02569 0.27797,0.05311 0.31789,0.06099 0.0399,0.0079 0.0993,-0.02901 0.13203,-0.0819 z m -5.36337,-0.340062 c 0.23777,-0.06665 0.59774,-0.248029 0.79993,-0.403079 0.20218,-0.15505 0.47396,-0.338507 0.60393,-0.407685 0.43117,-0.229477 0.29262,-0.433482 -0.29441,-0.433482 -0.56092,0 -0.85404,0.147956 -1.60628,0.810791 -0.615,0.541898 -0.43873,0.695678 0.49683,0.433455 z m 2.89831,-2.722922 c 0.22568,-0.466663 0.45401,-0.903861 0.50742,-0.9715466 0.41507,-0.526088 0.72117,-2.53559 0.48141,-3.16041 -0.067,-0.174603 -0.5143,-0.230445 -0.60968,-0.07611 -0.0306,0.04952 -0.31292,0.116572 -0.62738,0.149027 -1.13018,0.116642 -1.26038,0.636272 -0.79007,3.1533236 0.38374,2.053671 0.45367,2.114672 1.0383,0.905719 z m 2.36658,0.378214 c 1.21475,-0.614729 2.2571,-1.6477736 2.2571,-2.2369546 0,-0.187291 -0.37886,-0.635153 -0.45627,-0.539377 -0.0192,0.02369 -0.18459,0.264736 -0.3676,0.535599 -0.34032,0.503696 -1.87546,2.0831476 -2.30084,2.3672576 -0.23492,0.156901 -0.31591,0.343743 -0.149,0.343743 0.048,0 0.5055,-0.211623 1.01661,-0.470268 z m -4.57,-0.0048 c 0,-0.03011 -0.22677,-0.349157 -0.50394,-0.708965 -0.27716,-0.359808 -0.5616,-0.7723556 -0.63209,-0.9167756 -0.73612,-1.508168 -0.90173,-1.732175 -1.30534,-1.765597 -1.32173,-0.109437 -0.26945,2.1140566 1.46308,3.0915496 0.55364,0.312366 0.97829,0.442496 0.97829,0.299788 z m 3.95503,-0.601682 c 0.379,-0.320384 1.23178,-1.2043326 1.67034,-1.7313806 0.67268,-0.808436 0.60058,-2.267518 -0.13053,-2.641415 -0.60073,-0.307213 -0.76839,-0.179742 -0.76839,0.584187 0,0.385826 -0.0441,0.846659 -0.0979,1.024059 -0.0539,0.177407 -0.15454,0.535247 -0.22375,0.795197 -0.14417,0.541483 -0.5222,1.3776156 -0.83103,1.8380686 -0.38932,0.580472 -0.21933,0.639007 0.38128,0.131284 z m -1.11916,0.183809 c 0,-0.02887 -0.0236,-0.05249 -0.0525,-0.05249 -0.0289,0 -0.0525,0.02362 -0.0525,0.05249 0,0.02887 0.0236,0.05249 0.0525,0.05249 0.0289,0 0.0525,-0.02362 0.0525,-0.05249 z m -2.65997,-0.439118 c -0.52059,-0.9655096 -1.22622,-3.0275726 -1.22622,-3.5834286 0,-0.290215 -0.0545,-0.369346 -0.33585,-0.487645 -0.86554,-0.363931 -0.84261,0.221638 0.082,2.094455 0.19964,0.404371 0.49203,0.956442 0.64976,1.226821 0.50825,0.8712666 1.26355,1.5533716 0.83027,0.7497976 z m 0.5513,-0.5167146 c -0.35387,-2.198292 -0.24936,-3.058357 0.4019,-3.307421 0.4961,-0.189729 0.0938,-1.14798 -0.48027,-1.143905 -1.53794,0.01091 -1.65067,1.513216 -0.32882,4.381954 0.11283,0.2448786 0.20515,0.4835696 0.20515,0.5304116 0,0.102241 0.23384,0.348487 0.28364,0.29869 0.0193,-0.01927 -0.0174,-0.361162 -0.0816,-0.7597296 z m 2.4211,0.5619676 c 1.1194,-1.7301226 1.50923,-3.7094626 0.9029,-4.5843906 -0.31559,-0.455405 -2.47572,-0.707584 -2.47572,-0.289028 0,0.696962 0.39937,1.003422 0.91282,0.700477 1.15255,-0.680026 1.61321,1.560411 0.72185,3.510805 -0.40797,0.8926776 -0.4412,1.2484586 -0.0618,0.6621366 z"
       id="path1-6" /></g></svg>
