<?xml version="1.0" encoding="UTF-8" standalone="no"?>
<!-- Created with Inkscape (http://www.inkscape.org/) -->

<svg
   width="15.758114mm"
   height="45.117741mm"
   viewBox="0 0 15.758114 45.117741"
   version="1.1"
   id="svg1"
   xml:space="preserve"
   xmlns="http://www.w3.org/2000/svg"
   xmlns:svg="http://www.w3.org/2000/svg"><defs
     id="defs1" /><g
     id="layer1"
     transform="translate(-189.79543,-8.9679277)"><path
       id="path121"
       style="fill:#0000ff;fill-opacity:1"
       d="m 73.994264,116.23453 c -0.309945,0 -0.851927,0.30761 -1.204715,0.68395 -0.594834,0.63457 -0.638908,0.86853 -0.599958,3.23977 0.06785,4.13071 0.637988,6.24656 2.894197,10.72485 l 1.98226,3.93572 -1.307908,-0.95993 c -1.694337,-1.24376 -3.786301,-2.16027 -6.767524,-2.95899 -2.736815,-0.73323 -3.805265,-0.79843 -4.516482,-0.27838 -0.455686,0.33321 -0.469477,0.4652 -0.153589,1.52149 0.507059,1.69554 1.455163,3.43818 2.313437,4.2525 0.414507,0.39327 1.943709,1.37575 3.398161,2.18145 1.895691,1.05013 2.456429,1.4661 1.982261,1.4711 -1.204227,0.0136 -4.286233,0.77122 -5.469216,1.3439 -1.725585,0.83534 -3.887924,2.94565 -5.236432,5.10924 -1.649392,2.64635 -1.899294,3.43152 -1.353504,4.2645 0.689943,1.05299 2.327769,0.89555 6.930712,-0.66715 4.376053,-1.48568 4.214894,-1.60129 1.660683,1.19272 -1.659408,1.81519 -4.131838,5.6327 -5.022846,7.75625 -1.143093,2.72435 -1.390795,5.7775 -0.537563,6.63073 0.863491,0.86349 2.550536,0.76093 4.072514,-0.24718 1.178729,-0.78076 3.643222,-3.82548 5.447617,-6.73153 0.965808,-1.55546 0.992506,-1.44229 0.28558,1.19032 -0.72765,2.70979 -1.044621,5.46091 -0.789545,6.82752 0.550615,2.94999 3.375116,3.32353 4.749266,0.62876 0.433321,-0.84977 1.865327,-4.47033 2.215045,-5.60361 0.06736,-0.21828 0.201329,0.3172 0.299979,1.19032 0.804538,7.12072 2.179289,9.35409 4.893255,7.95064 0.575513,-0.29761 0.840616,-0.73311 1.178318,-1.93667 0.239485,-0.85352 0.448267,-1.84158 0.463167,-2.19584 0.02171,-0.51625 0.07498,-0.45905 0.273581,0.28318 0.483442,1.80678 0.57156,16.6434 0.13679,23.08397 -0.223462,3.3103 -0.48104,6.13934 -0.57116,6.28516 -0.09984,0.16155 -2.063337,0.26398 -5.027646,0.26398 -8.956163,0 -14.697838,0.81162 -15.939679,2.25105 l -0.595158,0.68875 -0.012,18.30831 c -0.0065,10.0692 -0.117452,22.47364 -0.247183,27.56686 -0.851871,33.44463 -0.903831,38.54457 -0.57116,56.78721 0.394504,21.63332 0.436854,22.42097 1.202316,22.712 0.306682,0.1166 4.069016,0.32503 8.361012,0.46317 3.116117,0.10029 7.719227,0.165 12.515119,0.21118 0.04232,0.005 0.684847,0.0228 0.688752,0.0264 0.116399,0.10656 4.194631,0.0903 8.780982,0.0264 6.13225,0.007 11.47737,-0.0349 12.7551,-0.15119 1.34705,-0.12254 2.15738,-0.32249 2.33024,-0.57596 0.15873,-0.23273 0.20279,-1.39607 0.11279,-2.9014 -0.95969,-16.05083 -1.18251,-29.141 -1.3343,-77.92012 l -0.13199,-42.11463 v -1.96307 l -0.007,-0.005 v -0.36717 l -0.65996,-0.54236 c -0.66163,-0.54189 -3.57467,-1.25047 -6.54914,-1.59349 l -1.52869,-0.17519 0.71515,-1.22631 c 1.09253,-1.87485 3.52104,-5.5865 4.50448,-6.88512 l 0.87834,-1.16392 v 1.89827 c 0,3.2114 0.96629,4.53965 3.02139,4.15411 1.25846,-0.23609 2.3007,-1.39571 3.58775,-3.99092 0.57734,-1.16417 1.05192,-1.93896 1.05592,-1.72068 0.0364,1.79016 3.81416,6.61634 5.17884,6.61634 1.50948,0 2.14914,-2.39161 1.30551,-4.87646 -1.03091,-3.03646 -1.87666,-6.21697 -1.58869,-5.97798 0.17516,0.14537 0.47043,0.76816 0.65515,1.3847 0.59564,1.98808 1.89893,4.45716 2.8606,5.41882 1.79431,1.79432 4.50496,2.49011 5.48362,1.4087 0.37685,-0.41635 0.43941,-0.77916 0.30477,-1.76147 -0.16264,-1.18659 -0.15035,-1.21973 0.31438,-0.79915 0.18878,0.17084 0.47395,0.29011 0.74395,0.36238 0.007,0.002 0.0127,0.003 0.0192,0.005 0.10395,0.0265 0.21478,0.072 0.30238,0.072 0.86375,0 1.17301,-1.09594 1.02233,-3.63814 -0.1202,-2.02802 -0.0951,-2.18385 0.38157,-2.18385 0.28216,0 0.85061,-0.17347 1.26231,-0.38637 1.99589,-1.03211 1.20092,-2.98672 -2.11425,-5.19804 l -1.86467,-1.24311 1.3847,-0.29758 c 1.69535,-0.36358 3.03185,-1.15666 3.23018,-1.91506 0.20953,-0.80129 -0.35085,-1.96798 -1.76148,-3.67175 -1.23739,-1.49453 -3.02745,-2.62721 -4.17571,-2.63981 -0.44625,-0.005 -0.049,-0.3149 1.35111,-1.05353 3.08403,-1.62703 3.94962,-3.05377 2.52942,-4.1709 -0.75964,-0.59753 -5.68447,-1.27925 -7.19469,-0.99593 -1.14531,0.21486 -1.07599,0.0695 0.84474,-1.74708 2.14865,-2.03212 1.97039,-2.9951 -0.77995,-4.2117 -0.8795,-0.38905 -1.543,-0.51095 -2.14305,-0.39838 -1.25617,0.23566 -3.01064,1.68098 -4.90285,4.04132 -0.90901,1.13388 -1.73357,2.09375 -1.83347,2.13345 -0.0999,0.0397 -0.46978,-0.54626 -0.82315,-1.30071 -0.47886,-1.02238 -0.6449,-1.82096 -0.64555,-3.13898 -0.001,-2.52124 -0.7167,-3.17677 -2.47903,-2.26544 -1.39517,0.72147 -1.48073,1.00337 -1.62228,5.37562 l -0.13199,4.08452 -0.67196,-0.53037 c -1.28473,-1.0126 -4.07124,-2.25247 -5.33002,-2.37343 -2.23411,-0.21467 -3.223625,1.05729 -2.60622,3.35016 0.41849,1.55413 1.34796,2.50037 3.58295,3.64775 1.87393,0.96202 2.39604,1.4099 1.65108,1.4159 -1.93659,0.0151 -8.135425,5.37633 -8.135425,7.0363 0,1.85903 2.147932,2.07633 5.279625,0.53517 1.08409,-0.53351 2.07211,-0.93394 2.19585,-0.89274 0.12374,0.0413 -0.44778,0.84682 -1.26951,1.79027 -3.782561,4.34289 -4.618719,6.81138 -2.61342,7.72506 0.56002,0.25516 0.91705,0.23498 1.85747,-0.10319 0.64028,-0.23022 1.16392,-0.35998 1.16392,-0.29038 0,0.0696 -1.10843,1.80976 -2.46463,3.86853 -1.356192,2.05876 -2.785593,4.30314 -3.177373,4.98684 -0.391782,0.6837 -0.823146,1.31121 -0.957533,1.39431 -0.134387,0.0831 -2.233473,0.008 -4.665272,-0.16559 l -4.422889,-0.31438 0.184787,-3.59255 c 0.101183,-1.97563 0.291582,-5.73444 0.42237,-8.35381 0.354988,-7.10954 -0.03239,-16.61293 -0.952733,-23.41755 -0.146296,-1.08165 -0.0099,-0.89975 1.475897,1.98466 3.072509,5.96454 4.695137,7.80665 6.885115,7.80665 0.696583,0 0.884744,-0.15108 1.243113,-0.99353 0.363352,-0.85417 0.380737,-1.33008 0.122391,-3.41976 -0.366405,-2.96374 -1.586708,-5.91744 -3.666942,-8.88178 -0.791428,-1.12778 -1.36575,-2.05185 -1.27671,-2.05185 0.08904,0 0.88904,0.47331 1.778275,1.05112 3.832533,2.49033 9.761794,4.03042 10.782444,2.80061 0.51132,-0.61609 1.06492,-3.06733 1.06792,-4.73247 0.004,-2.08303 -0.73627,-2.85908 -3.17017,-3.31897 -3.280683,-0.61989 -6.296819,-1.61714 -9.292151,-3.07418 -1.655873,-0.80547 -2.797168,-1.40561 -2.534222,-1.33191 1.710328,0.47921 7.147641,1.24284 9.709723,1.36311 6.60323,0.30998 11.64158,-1.71665 11.64158,-4.68207 0,-2.49098 -3.84268,-3.72693 -9.79131,-3.14858 -2.755084,0.26786 -11.671543,0.75213 -11.845573,0.64315 -0.03944,-0.0247 1.330054,-0.37307 3.042986,-0.77514 6.443267,-1.51244 10.511887,-3.51551 13.993417,-6.88752 1.74025,-1.68551 2.22132,-2.31899 2.36383,-3.11258 0.24353,-1.35604 -0.23928,-2.39543 -1.3607,-2.93019 -2.37477,-1.13245 -5.82816,0.0157 -10.559259,3.51095 -2.862694,2.11492 -8.517823,5.45247 -8.800181,5.19323 -0.03767,-0.0346 0.290099,-0.85278 0.727149,-1.81667 1.533077,-3.38113 2.184724,-6.11721 2.219844,-9.31134 0.04016,-3.65267 -0.648279,-5.97111 -2.248642,-7.57147 -0.910086,-0.91009 -1.170626,-1.02713 -2.311037,-1.02713 -1.122287,0 -1.438575,0.13347 -2.483826,1.05353 -1.11055,0.97755 -1.628757,1.73818 -1.919865,3.28297 l -0.131991,0.25678 v 0.70795 c -0.126002,1.14373 -0.209227,2.54596 -0.261581,4.75406 l -0.134391,5.6876 -0.604757,-2.91099 c -0.894009,-4.31443 -1.351588,-5.99973 -2.023058,-7.43708 -1.034155,-2.21371 -4.914582,-5.6588 -6.373952,-5.6588 z m 13.736634,2.50782 c 0.181991,-0.0531 0.345581,-0.0478 0.477567,0.0312 0.539201,0.32294 1.098762,1.18957 1.600687,2.48383 0.511432,1.31878 0.630056,5.25664 0.208786,6.88271 -0.729669,2.81646 -1.143897,3.93003 -2.505424,6.71953 -0.824212,1.68865 -1.641449,3.06938 -1.816673,3.06938 -0.242052,0 -0.312679,-1.95393 -0.292779,-8.13542 0.02508,-7.79239 0.0492,-8.18286 0.597558,-9.25615 0.477424,-0.93446 1.184306,-1.63581 1.730278,-1.79508 z m -13.201471,0.0528 1.538292,1.4063 c 1.938244,1.77384 2.599853,3.08672 3.474955,6.88752 0.633383,2.75095 2.27685,9.35375 2.673412,10.73924 0.106865,0.37336 0.0222,0.6105 -0.256782,0.71755 -0.324592,0.12456 -0.798483,-0.61724 -2.13105,-3.33576 -0.942838,-1.92345 -2.375333,-4.75647 -3.182176,-6.29476 -1.622053,-3.09253 -2.340725,-5.9027 -2.198246,-8.6058 z m 32.239333,10.56646 c 1.26067,-0.11121 1.66843,0.48956 0.75835,1.56229 -1.65322,1.94869 -5.95621,4.71557 -9.256153,5.95158 -1.350561,0.50586 -8.792982,2.40717 -8.792982,2.24624 0,-0.0351 1.686141,-0.98075 3.746137,-2.10225 2.059996,-1.1215 4.708946,-2.78273 5.886786,-3.69094 2.669632,-2.05851 4.131462,-2.91887 6.131572,-3.60935 0.59301,-0.20472 1.10607,-0.3205 1.52629,-0.35757 z m -39.885196,3.45575 1.099123,0.17759 c 3.493475,0.55863 7.067878,2.75161 9.092961,5.57961 0.585241,0.81728 1.026331,1.58815 0.979131,1.71348 -0.0472,0.12533 -1.424735,-0.56269 -3.059785,-1.52869 -1.63505,-0.966 -3.880471,-2.29216 -4.989249,-2.947 -1.257382,-0.74261 -2.22465,-1.52997 -2.570219,-2.09265 z m 5.529212,9.74332 c 1.746248,0 3.399671,0.0918 3.674141,0.20398 0.446226,0.18237 0.456712,0.25087 0.105593,0.65996 -0.21597,0.25162 -0.456833,0.63605 -0.535163,0.85434 -0.115329,0.32139 -7.291983,3.01877 -11.994356,4.50688 -1.459828,0.46198 -1.46845,0.4277 -0.29038,-1.4087 1.094353,-1.7059 2.639391,-3.11726 4.466086,-4.07971 1.304803,-0.68748 1.611931,-0.73675 4.574079,-0.73675 z m 31.329794,0.17279 c 2.52007,-0.0984 4.98025,0.11786 5.6684,0.56876 0.38738,0.25382 0.70315,0.57192 0.70315,0.70795 0,0.40051 -2.1491,1.53988 -3.45335,1.83107 -2.83754,0.6335 -6.895761,0.54283 -11.363204,-0.25678 -2.198244,-0.39345 -5.847338,-1.24447 -6.001978,-1.39911 -0.346575,-0.34656 3.857114,-0.94713 6.597136,-0.94313 1.688403,0.003 4.10625,-0.13378 5.373226,-0.30238 0.78974,-0.10509 1.6366,-0.17358 2.47662,-0.20638 z m -26.84451,4.57408 c 0.220079,0.01 0.224777,0.21963 -0.06239,0.62395 -0.175918,0.24768 -0.564017,0.93711 -0.86154,1.53349 -0.297523,0.59638 -1.101664,1.78819 -1.787874,2.64702 -0.68621,0.85883 -1.753202,2.3631 -2.371033,3.34536 -0.617832,0.98227 -1.608714,2.55571 -2.203045,3.49416 -0.594332,0.93845 -1.815536,2.48564 -2.71421,3.43895 -1.992771,2.11395 -2.429416,2.21526 -2.195845,0.51117 0.431321,-3.14684 3.351303,-7.88483 7.156297,-11.61038 1.486235,-1.4552 3.20366,-2.99077 3.815731,-3.41256 0.568442,-0.39174 1.003836,-0.58102 1.223914,-0.57116 z m 11.389599,1.20471 2.644614,1.22631 c 4.126063,1.91146 6.109152,2.63252 9.392937,3.41016 1.67349,0.39632 3.18822,0.89971 3.36457,1.12073 0.20461,0.25648 0.26468,0.84363 0.16558,1.62228 -0.21958,1.72597 -0.44187,1.86704 -2.33983,1.4927 -3.432272,-0.67696 -6.833073,-2.74361 -10.847238,-6.58994 z m -8.728186,1.05833 c 0.361849,0 0.657554,0.0716 0.657554,0.15839 0,0.15219 -0.980689,3.35169 -3.222974,10.51846 -0.58522,1.87047 -1.346994,4.04318 -1.69428,4.82846 -0.347287,0.78527 -0.752581,1.4279 -0.899937,1.4279 -0.942235,0 0.347984,-6.17283 2.464627,-11.79038 1.905315,-5.05672 1.950551,-5.14283 2.69501,-5.14283 z m 7.348283,2.7478 c 0.08118,-0.0812 2.358277,2.97765 4.912455,6.59954 1.842483,2.61269 3.206804,5.71288 3.393361,7.71066 0.08875,0.94995 0.08954,1.72788 0.0024,1.72788 -0.463109,0 -2.330777,-3.01483 -4.2597,-6.87792 -2.138483,-4.28278 -4.218412,-8.99026 -4.048516,-9.16016 z m -4.043715,0.56156 c 0.104157,0.0644 0.257436,0.86485 0.340776,1.77828 0.08334,0.91342 0.296033,2.99936 0.472766,4.63647 0.244484,2.26471 0.250413,3.67495 0.024,5.89879 -0.16367,1.60757 -0.403811,3.11545 -0.535163,3.35016 -0.208959,0.37339 -0.27788,0.35374 -0.551961,-0.15839 -0.461807,-0.8629 -1.065425,-3.93423 -1.070325,-5.45241 -0.0023,-0.7276 0.174705,-2.33403 0.393573,-3.57095 0.218869,-1.23693 0.47566,-3.22921 0.56876,-4.42529 0.0931,-1.19608 0.253417,-2.12106 0.357575,-2.05666 z m 38.946859,5.99478 c 0.14308,0.0301 0.28655,0.0962 0.44157,0.19439 0.27207,0.17235 -0.5064,1.10724 -3.11018,3.73894 -1.90938,1.92985 -3.47016,3.34181 -3.47016,3.13657 0,-1.01495 2.53142,-4.51275 4.55008,-6.28515 0.73128,-0.64207 1.15945,-0.87491 1.58869,-0.78475 z m -10.76084,2.73581 0.59996,1.13032 c 0.52866,0.99705 0.58946,1.45185 0.52316,3.80133 l -0.0744,2.66622 -0.52796,-0.58556 c -0.43035,-0.47601 -0.54625,-1.03702 -0.61915,-3.00939 -0.0488,-1.33391 -0.047,-2.78205 0.005,-3.21578 z m -8.77378,3.11978 c 0.2244,-0.2244 3.61242,1.53213 4.55967,2.36383 0.5093,0.44718 1.10052,1.15213 1.31511,1.56709 0.21462,0.41496 0.29767,0.74715 0.18479,0.73915 -0.30666,-0.0219 -4.99609,-2.47908 -5.45002,-2.8558 -0.40651,-0.33738 -0.82873,-1.59509 -0.60955,-1.81427 z m 23.44155,0.40557 c 0.93656,0.0428 1.80741,0.17073 1.99186,0.35518 0.19395,0.19395 -3.53456,1.87518 -6.68113,3.01418 -1.41787,0.51325 -2.69054,1.04667 -2.8294,1.18552 -0.13885,0.13886 -0.36939,0.25438 -0.51117,0.25438 -0.81884,0 4.23404,-4.17141 5.63961,-4.65567 0.45098,-0.15538 1.45366,-0.19642 2.39023,-0.15359 z m 1.3559,6.31876 1.4855,1.53109 c 1.39076,1.43588 1.45506,1.55534 0.99593,1.89107 -1.02203,0.74733 -4.40757,0.0706 -7.39148,-1.4783 -0.57647,-0.29924 -1.202,-0.54476 -1.38951,-0.54476 -0.18751,0 -0.34077,-0.0979 -0.34077,-0.21839 0,-0.31392 2.45392,-0.85038 4.71087,-1.02952 z m -19.45783,1.69908 c 0.86714,-0.004 1.73307,0.063 2.23424,0.20398 l 0.64076,0.18239 c 4.6e-4,0.006 -1.6e-4,0.0132 0,0.0192 l -0.64316,0.42237 c -0.36502,0.24068 -1.77238,0.61807 -3.12938,0.83754 -1.357,0.21948 -3.11731,0.69703 -3.91172,1.06073 l -1.4447,0.65995 0.52556,-0.73675 c 0.66927,-0.93991 2.3248,-2.09293 3.48696,-2.42623 0.50692,-0.14538 1.3743,-0.21937 2.24144,-0.22318 z m 3.47496,3.03818 c 0.51874,-0.0243 -0.46837,1.19197 -3.01419,3.73414 -1.86171,1.85905 -3.90692,3.65868 -4.54288,4.00052 -1.17268,0.63033 -1.18403,0.57658 -0.18959,-0.88554 0.88845,-1.30628 5.5752,-5.7756 6.72673,-6.41475 0.50587,-0.28078 0.84701,-0.42627 1.01993,-0.43437 z m 8.36581,1.25512 c 0.21297,-0.21297 1.09053,0.54115 1.81667,1.55989 0.28573,0.40018 0.41627,0.72714 0.29038,0.72714 -0.37479,0 -2.30211,-2.09197 -2.10705,-2.28703 z m -6.82512,2.02305 c 0.17116,0 -0.12486,2.13654 -0.67916,4.90286 -0.59581,2.97346 -1.35615,5.03832 -2.37583,6.44595 -1.14811,1.5849 -1.57909,1.4529 -1.57909,-0.48477 0,-1.59317 0.87696,-4.71659 1.80948,-6.44595 0.89381,-1.65759 2.65888,-4.41809 2.8246,-4.41809 z m 15.6589,1.32231 c 0.14552,0 0.47815,0.23692 0.74154,0.52796 0.2634,0.29105 0.36152,0.53037 0.21599,0.53037 -0.14552,0 -0.48056,-0.23932 -0.74395,-0.53037 -0.2634,-0.29104 -0.3591,-0.52796 -0.21358,-0.52796 z m -13.21107,1.00073 c 0.0634,0.0764 0.14955,0.34925 0.28797,0.85194 0.18033,0.65484 0.75688,2.55981 1.27911,4.2333 0.52223,1.67349 1.03902,3.42919 1.14952,3.90213 0.11047,0.47294 0.1674,0.85914 0.1272,0.85914 -0.2635,0 -1.61093,-2.12371 -1.99186,-3.13898 -0.50677,-1.35059 -1.07403,-4.9158 -1.00073,-6.12197 l 0.012,-0.32158 c 0.0415,-0.22293 0.0796,-0.33288 0.1368,-0.26398 z m 10.25927,1.4303 c 0.0378,0.003 0.12307,0.05 0.25439,0.14159 0.43656,0.30437 1.13409,0.91294 1.55029,1.3511 0.41621,0.43817 0.71475,0.89429 0.66235,1.01513 -0.0524,0.12083 -0.74992,-0.48532 -1.55029,-1.3487 -0.72226,-0.77915 -1.03028,-1.16825 -0.91674,-1.15912 z m -4.2717,0.55196 c 0.27059,-0.27059 4.13011,5.52658 4.13011,6.20356 0,0.67974 -0.77577,0.30832 -1.81187,-0.86873 -0.71368,-0.81079 -1.28485,-1.8672 -1.73988,-3.22058 -0.37256,-1.10806 -0.63216,-2.06045 -0.57836,-2.11425 z m -35.546296,15.00855 -0.15119,2.18384 c -0.08369,1.20054 -0.21135,2.56764 -0.28318,3.04059 l -0.129591,0.86154 -2.171847,-0.0456 c -2.598618,-0.0532 -3.348147,-0.11517 -7.420278,-0.62876 -3.918686,-0.49423 -6.466729,-1.19221 -7.914643,-2.16464 -1.512438,-1.01577 -1.492487,-1.65827 0.0672,-2.12385 1.785102,-0.53288 8.830961,-1.10693 13.698237,-1.11593 z m 2.690211,0.11999 c 0.764195,-0.0417 2.618559,0.0575 5.953981,0.30958 l 1.910266,0.14398 -1.394302,2.69022 -1.355905,2.61341 c -0.01339,0.0142 -0.04302,0.0654 -0.0552,0.0768 l -2.978191,0.0744 -2.98779,0.0744 c -0.0017,-0.001 -0.0056,-0.001 -0.0072,-0.002 l 0.191986,-2.851 c 0.105874,-1.56928 0.244299,-2.93883 0.307179,-3.04299 0.02687,-0.0445 0.160439,-0.0725 0.415171,-0.0864 z m 10.194483,0.80634 1.687082,0.0552 c 0.928,0.0309 2.72961,0.26205 4.00292,0.51356 2.11,0.41679 2.31583,0.5111 2.31583,1.06793 0,0.33601 -0.23098,0.84294 -0.51356,1.12552 -0.68043,0.68043 -3.46906,1.52211 -6.162766,1.85987 -2.606648,0.32687 -3.642944,0.34418 -3.642944,0.0624 0,-0.1153 0.520373,-1.21706 1.156719,-2.44783 z m -31.939354,4.78286 c 0.156218,-0.0622 0.671587,0.0466 1.197516,0.26639 2.527281,1.05595 10.212056,2.21224 14.77576,2.22224 l 1.891067,0.005 c 0.138072,0.0203 0.421351,0.0435 0.458368,0.06 l -0.158389,2.25345 c -0.08942,1.2733 -0.338083,4.57858 -0.554361,7.34348 -0.216277,2.7649 -0.529936,7.46809 -0.695951,10.45126 -0.57437,10.32105 -0.743708,12.32301 -1.4159,16.80122 -1.597083,10.63996 -2.149905,24.70309 -1.375103,34.92475 0.61903,8.16664 1.194074,13.37828 1.56469,14.1542 0.416373,0.87172 1.369909,1.00845 1.773475,0.25438 0.236735,-0.44234 0.21256,-1.27515 -0.110392,-3.65494 -0.94155,-6.93814 -1.322408,-13.29981 -1.317508,-22.07125 0.006,-10.6809 0.379198,-11.95102 0.85434,-2.90619 0.509689,9.70247 1.60791,19.31414 3.210974,28.11402 0.437404,2.40109 1.160883,6.56881 1.607887,9.26095 0.447005,2.69213 0.863415,5.15388 0.926335,5.47161 0.21034,1.06217 1.778765,1.08948 2.054256,0.036 0.144883,-0.55403 -0.384342,-3.92913 -2.212645,-14.10621 -1.596448,-8.88648 -2.331918,-14.59571 -3.035786,-23.57114 -0.924045,-11.78303 -1.211648,-28.92982 -0.551961,-32.91848 1.264799,-7.64739 5.63573,-21.83006 8.728186,-28.32281 l 0.698351,-1.4663 3.237372,-0.33598 c 2.783785,-0.28902 5.726875,-0.85462 7.756255,-1.49029 l 0.55196,-0.17279 0.18479,44.66806 c 0.1809,43.81196 0.33145,54.06634 0.97673,66.96489 0.17672,3.53307 0.25199,6.49394 0.16799,6.57794 -0.56695,0.56695 -41.037078,0.0792 -41.617876,-0.50157 -0.666022,-0.66602 -0.757794,-56.40662 -0.122391,-74.27957 0.137095,-3.8563 0.255381,-15.30873 0.263981,-25.45021 0.0035,-4.07293 0.03341,-7.2213 0.0624,-10.22088 0.07848,-4.66197 0.158416,-7.99036 0.225584,-8.36102 z m 22.762399,2.54862 c 0.958942,-0.0316 1.961999,0.001 2.27744,0.1224 0.565929,0.21705 0.555845,0.25786 -0.736748,3.39336 -0.719882,1.74625 -1.912087,5.02072 -2.649414,7.27629 -0.737328,2.25557 -1.563382,4.75525 -1.838271,5.5556 l -0.501564,1.4567 0.151189,-2.779 c 0.260807,-4.84169 1.111365,-14.58402 1.288709,-14.76136 0.135873,-0.13588 1.049717,-0.23235 2.008659,-0.26399 z m 13.969417,1.82148 c -0.15348,0.0115 -0.31289,0.11195 -0.58316,0.30957 -0.41499,0.30345 -0.47938,1.42705 -0.70315,12.10475 -0.13566,6.47361 -0.25038,30.49152 -0.25438,53.37465 l -0.01,41.60587 H 86.355795 c -11.541701,0 -15.371282,0.0796 -15.610902,0.31918 -0.44017,0.44017 -0.397337,1.46283 0.072,1.72548 0.446657,0.24996 18.479519,0.1952 27.569261,0.01 1.285837,-0.0217 2.575086,-0.0478 3.206176,-0.0888 1.11865,-0.0415 1.89266,-0.0865 1.92227,-0.13439 0.25297,-0.4093 0.50436,-33.26882 0.56395,-73.48524 0.0452,-30.48836 0.001,-35.3063 -0.32877,-35.5151 -0.25082,-0.15869 -0.39849,-0.23705 -0.55196,-0.22558 z"
       transform="matrix(0.21533361,0,0,0.21533361,176.94108,-16.061273)" /></g></svg>
