<?xml version="1.0" encoding="UTF-8" standalone="no"?>
<!-- Created with Inkscape (http://www.inkscape.org/) -->

<svg
   width="11.600826mm"
   height="46.461246mm"
   viewBox="0 0 11.600826 46.461246"
   version="1.1"
   id="svg1"
   xml:space="preserve"
   xmlns="http://www.w3.org/2000/svg"
   xmlns:svg="http://www.w3.org/2000/svg"><defs
     id="defs1" /><g
     id="layer1"
     transform="translate(-130.16521,-4.0565976)"><path
       id="path146"
       style="fill:#0000ff;fill-opacity:1"
       d="m 192.57826,154.54333 c -0.005,0 -0.006,0.003 -0.0102,0.003 -0.74284,9.3e-4 -0.80491,0.0137 -0.6903,0.19723 0.0685,0.10972 0.21894,0.24525 0.335,0.30165 0.39676,0.19276 0.95784,0.13641 1.13262,-0.11312 0.0882,-0.12589 0.16097,-0.2649 0.16097,-0.3089 0,-0.0111 -0.1764,-0.0106 -0.22188,-0.0203 -0.0773,-0.0276 -0.22477,-0.0435 -0.43216,-0.0493 -0.0417,-0.003 -0.07,-0.0102 -0.11892,-0.0102 -0.007,0 -0.007,0.001 -0.0145,0.001 -0.013,-7e-5 -0.0155,-0.001 -0.029,-0.001 -0.001,0 -0.002,0 -0.003,0 -0.003,0 -0.003,0 -0.006,0 -0.0153,0 -0.0215,0.001 -0.0363,0.001 -0.009,-2e-5 -0.007,-0.001 -0.016,-0.001 -0.0249,0 -0.02,0.001 -0.0435,0.001 -0.003,-6e-5 -0.004,-0.001 -0.007,-0.001 z m -10.83314,3.29635 c -0.46253,0 -1.67508,0.44943 -2.11587,0.78457 -0.18365,0.13963 -0.36231,0.36371 -0.39591,0.49742 -0.0336,0.13372 -0.14908,0.2659 -0.25814,0.2944 -0.10906,0.0285 -0.2559,0.18422 -0.3263,0.34515 -0.0704,0.16093 -0.32314,0.6172 -0.56124,1.01371 -0.23809,0.39651 -0.49993,0.97723 -0.58153,1.29214 -0.0816,0.31491 -0.2268,0.80201 -0.3234,1.08187 -0.0966,0.27986 -0.23755,0.99612 -0.31325,1.59089 -0.0757,0.59477 -0.2364,1.42854 -0.35675,1.85338 -0.20452,0.72203 -0.22014,1.02475 -0.22914,4.6349 -0.008,3.21013 0.019,3.99032 0.15807,4.6204 0.092,0.41693 0.218,0.81874 0.2799,0.89334 0.0619,0.0746 0.15503,0.82238 0.20593,1.66195 0.0509,0.83957 0.16199,1.75869 0.24799,2.04191 0.13809,0.45564 0.1386,0.60433 0.006,1.2878 -0.17279,0.88927 -0.35915,2.84676 -0.35966,3.77492 -2.3e-4,0.41009 -0.0744,0.80989 -0.21028,1.12682 -0.1478,0.3448 -0.22454,0.79166 -0.25524,1.50098 -0.0275,0.63433 -0.10226,1.12482 -0.20303,1.3197 -0.0882,0.17062 -0.17938,0.31035 -0.20158,0.31035 -0.0222,0 -0.11343,0.028 -0.20303,0.0624 -0.13881,0.0533 -0.16243,-0.042 -0.16243,-0.64535 0,-0.58718 -0.0456,-0.77359 -0.26103,-1.09057 -0.1827,-0.26887 -0.28916,-0.61678 -0.35966,-1.17323 -0.0552,-0.43509 -0.18715,-0.93925 -0.29439,-1.12102 -0.10725,-0.18177 -0.2496,-0.57983 -0.3147,-0.88463 -0.11634,-0.54447 -0.77639,-1.96511 -0.94409,-2.03031 -0.047,-0.0183 -0.16409,-0.31072 -0.25959,-0.65115 -0.10753,-0.38326 -0.36394,-0.87995 -0.67291,-1.30375 -0.27444,-0.37644 -0.49887,-0.73717 -0.49887,-0.80197 0,-0.0648 -0.25465,-0.42843 -0.56559,-0.80777 -0.31094,-0.37935 -0.6008,-0.74472 -0.6439,-0.81212 -0.0431,-0.0674 -0.25204,-0.23887 -0.46407,-0.37996 -0.21203,-0.14108 -0.38536,-0.2893 -0.38575,-0.3292 -3.8e-4,-0.0399 -0.20613,-0.22949 -0.45827,-0.42201 -0.59809,-0.45666 -1.4236,-0.63739 -2.46828,-0.53949 -0.88585,0.083 -1.35374,0.33051 -1.61699,0.85418 -0.0914,0.18177 -0.27667,0.41998 -0.41187,0.52933 -0.23621,0.19102 -0.24684,0.25852 -0.27844,1.73447 -0.0293,1.36621 -0.009,1.61012 0.19288,2.19853 0.12461,0.36391 0.28936,0.97975 0.36546,1.36901 0.0761,0.38926 0.23179,0.86698 0.3466,1.06156 0.11484,0.19458 0.20883,0.46073 0.20883,0.59024 0,0.41166 0.4066,1.43712 0.72946,1.83888 0.17145,0.21335 0.37957,0.61286 0.46117,0.88753 0.0816,0.27468 0.23512,0.61067 0.34225,0.74687 0.10713,0.13619 0.27201,0.40888 0.36691,0.60619 0.0949,0.1973 0.32131,0.62009 0.50177,0.93974 0.18046,0.31965 0.45478,0.81623 0.61055,1.10362 0.15576,0.28738 0.43369,0.67664 0.61779,0.86433 0.1841,0.18768 0.5171,0.61752 0.73961,0.95569 0.22251,0.33817 0.50733,0.73143 0.6323,0.87304 0.41927,0.47511 1.43331,1.55917 1.57204,1.6808 0.0755,0.0662 0.42606,0.39829 0.77877,0.73816 0.83041,0.8002 1.31006,1.18483 1.47777,1.18483 0.074,0 0.3424,0.19113 0.59604,0.42492 l 0.45247,0.41621 c 0.006,0.0208 0.004,0.0613 0.009,0.0841 v 1.00066 c 0,0.59127 -0.0497,1.16746 -0.11022,1.28054 -0.13942,0.26051 -0.1715,0.72819 -0.28279,4.23899 -0.0608,1.91733 -0.12903,2.90186 -0.20883,2.98166 -0.0902,0.0902 -0.12037,0.0511 -0.12037,-0.16098 0,-0.15407 -0.1119,-0.55628 -0.24944,-0.89478 -0.13755,-0.3385 -0.30355,-0.88209 -0.36835,-1.20804 -0.0648,-0.32595 -0.19765,-0.70967 -0.29585,-0.85128 -0.0982,-0.14161 -0.24325,-0.41953 -0.32195,-0.61779 -0.0787,-0.19826 -0.24935,-0.56439 -0.37995,-0.81357 -0.1306,-0.24917 -0.23784,-0.51694 -0.23784,-0.59604 0,-0.0791 -0.11508,-0.36193 -0.25669,-0.62795 -0.14162,-0.26602 -0.25814,-0.53464 -0.25814,-0.59604 0,-0.0614 -0.11034,-0.21421 -0.24509,-0.3408 -0.13476,-0.1266 -0.27024,-0.3893 -0.30164,-0.58299 -0.0314,-0.19369 -0.17023,-0.50363 -0.3089,-0.68885 -0.13867,-0.18522 -0.33366,-0.4993 -0.43216,-0.69756 -0.0985,-0.19825 -0.35234,-0.52453 -0.56414,-0.72511 -0.2118,-0.20058 -0.44893,-0.53965 -0.52643,-0.75412 -0.0776,-0.21447 -0.37253,-0.6058 -0.65695,-0.87013 -0.28443,-0.26434 -0.67439,-0.66646 -0.86578,-0.89333 -0.4933,-0.58473 -1.9877,-1.41245 -2.90769,-1.60975 -0.46727,-0.10021 -0.59837,-0.0829 -1.26314,0.15953 -1.32682,0.48392 -1.85004,1.2566 -1.9549,2.88739 -0.0325,0.505 0.009,0.90061 0.13922,1.33855 0.10173,0.34201 0.21329,0.8514 0.24799,1.13117 0.0347,0.27978 0.22559,0.83658 0.42346,1.23704 0.19787,0.40046 0.35966,0.77918 0.35966,0.84258 0,0.0634 0.0634,0.16818 0.14212,0.23348 0.0787,0.0653 0.19334,0.31982 0.25524,0.56559 0.0619,0.24577 0.30019,0.74361 0.52788,1.10506 0.2277,0.36145 0.52721,0.9005 0.66565,1.19789 0.13843,0.29738 0.29985,0.53948 0.35965,0.53948 0.0598,0 0.10877,0.0693 0.10877,0.15227 0,0.083 0.13896,0.29313 0.3089,0.46697 0.16993,0.17384 0.30889,0.38007 0.30889,0.45827 0,0.0782 0.13897,0.27323 0.3089,0.43362 0.16993,0.16039 0.3089,0.34751 0.3089,0.41621 0,0.0687 0.26743,0.44917 0.59314,0.84548 0.3257,0.3963 0.70676,0.88985 0.84838,1.09637 0.27203,0.39673 0.31381,0.44045 1.005,1.07171 0.24074,0.21987 0.43797,0.43692 0.43797,0.48292 0,0.17058 1.90899,1.91036 2.25509,2.05496 0.19742,0.0825 0.54845,0.33574 0.78022,0.56414 0.23176,0.22839 0.81422,0.61347 1.29359,0.85563 0.86402,0.43649 0.87159,0.44435 0.93249,0.89188 0.0338,0.24829 0.0684,2.03589 0.0754,3.97216 0.008,2.06761 0.0588,3.72329 0.12326,4.01131 0.10653,0.47536 0.0438,0.65385 -0.22913,0.65985 -0.0712,0.002 -0.28614,-0.66018 -0.28714,-0.88464 -3.1e-4,-0.0632 -0.083,-0.22601 -0.18418,-0.3611 -0.10114,-0.13509 -0.238,-0.45455 -0.3031,-0.71061 -0.10203,-0.40135 -0.61671,-1.38356 -0.93249,-1.77797 -0.0552,-0.069 -0.17489,-0.38456 -0.26539,-0.70046 -0.15428,-0.5383 -0.79522,-1.53578 -0.98615,-1.53578 -0.0473,0 -0.13818,-0.20672 -0.20158,-0.45827 -0.13066,-0.51892 -0.95934,-1.70671 -1.35886,-1.94765 -0.15369,-0.0927 -0.31495,-0.32486 -0.38285,-0.55108 -0.0815,-0.2715 -0.2752,-0.51575 -0.6352,-0.80052 -0.28503,-0.22546 -0.51773,-0.44673 -0.51773,-0.49163 0,-0.12316 -0.83601,-1.00355 -0.95279,-1.00355 -0.056,0 -0.42323,-0.21424 -0.81648,-0.47567 -0.83545,-0.5554 -1.44097,-0.76071 -2.23914,-0.75991 -1.12586,0.001 -1.80449,0.32947 -2.36821,1.14712 -0.18625,0.27015 -0.2677,0.48474 -0.32195,0.73671 l -0.013,0.0203 0.001,0.0522 c -0.0217,0.1201 -0.0504,0.21825 -0.0624,0.38721 -0.0651,0.91897 0.12374,2.39214 0.36836,2.87869 0.10797,0.21474 0.22944,0.57539 0.26974,0.80197 0.0667,0.37585 0.63079,1.53028 0.93104,1.90559 0.068,0.085 0.23271,0.43143 0.36691,0.77007 0.13421,0.33863 0.3917,0.7794 0.57138,0.97889 0.17968,0.1995 0.4133,0.52928 0.51918,0.73382 0.2909,0.56199 0.74732,1.22999 1.14278,1.6721 0.19499,0.21799 0.39931,0.52493 0.45391,0.6816 0.0546,0.15667 0.34068,0.48015 0.6352,0.71931 0.29453,0.23915 0.5815,0.51952 0.6381,0.62215 0.29881,0.54141 3.19663,3.29223 3.89384,3.69661 0.2557,0.1483 0.70295,0.46529 0.99485,0.7048 0.2919,0.23951 0.70733,0.48409 0.92379,0.54239 0.21645,0.0583 0.45208,0.17384 0.52208,0.25814 0.07,0.0843 0.30916,0.20874 0.53223,0.27554 0.57694,0.17286 0.76343,0.49811 0.84403,1.47487 0.0374,0.45315 0.11497,1.19574 0.17257,1.6489 0.0576,0.45316 0.14613,1.47222 0.19723,2.26525 0.0575,0.89206 0.17133,1.69735 0.2973,2.11152 0.24203,0.79572 0.40592,3.027 0.23058,3.13537 -0.0618,0.0382 -0.11166,0.0177 -0.11166,-0.045 0,-0.0627 -0.10907,-0.21606 -0.24219,-0.3408 -0.13311,-0.12475 -0.32106,-0.46543 -0.41766,-0.75846 -0.0966,-0.29302 -0.2394,-0.58625 -0.3176,-0.65115 -0.0782,-0.0649 -0.17338,-0.25553 -0.21028,-0.42347 -0.0369,-0.16793 -0.1758,-0.37687 -0.3089,-0.46407 -0.13311,-0.0872 -0.27235,-0.30589 -0.31035,-0.48582 -0.077,-0.36427 -0.52682,-1.1168 -0.90348,-1.51113 -0.24344,-0.25487 -0.523,-0.65381 -1.22979,-1.75186 -0.20054,-0.31155 -0.49115,-0.68212 -0.64535,-0.82373 -0.1542,-0.14161 -0.45772,-0.4951 -0.67435,-0.78602 -0.21664,-0.29091 -0.55042,-0.62468 -0.74106,-0.74251 -0.19064,-0.11782 -0.41198,-0.33858 -0.49308,-0.49018 -0.0811,-0.1516 -0.31049,-0.38569 -0.50903,-0.52062 -0.19854,-0.13494 -0.54638,-0.38332 -0.77296,-0.55109 -0.22658,-0.16777 -0.76012,-0.49873 -1.18483,-0.73526 l -0.77152,-0.42927 -1.3023,-0.0102 -1.30085,-0.009 -0.50177,0.42202 c -0.97886,0.82368 -1.1603,1.40455 -0.96875,3.09332 0.0872,0.76873 0.18546,1.0957 0.53658,1.80117 0.23609,0.47437 0.45853,0.88679 0.49453,0.91509 0.036,0.0283 0.12473,0.25389 0.19723,0.50177 0.0768,0.26254 0.31704,0.64929 0.57574,0.92669 0.24427,0.26191 0.52054,0.65972 0.61344,0.88319 0.0929,0.22346 0.2343,0.47748 0.3147,0.56558 0.0804,0.0881 0.28881,0.32237 0.46262,0.52063 0.17381,0.19825 0.39982,0.45375 0.50177,0.56704 0.10195,0.11329 0.4158,0.50774 0.69756,0.87593 0.28176,0.36819 0.71772,0.88626 0.9702,1.15293 0.25249,0.26667 0.55535,0.59236 0.67145,0.72221 0.1161,0.12984 0.32245,0.30511 0.45972,0.39011 0.28839,0.1785 1.12772,1.04168 1.12972,1.16162 6.1e-4,0.0445 0.2027,0.16827 0.44957,0.27409 0.24687,0.10582 0.56972,0.30071 0.71641,0.43362 0.14669,0.1329 0.3967,0.34518 0.55543,0.47132 0.15872,0.12614 0.44705,0.36974 0.641,0.54238 0.19396,0.17264 0.47188,0.34406 0.61779,0.37996 0.14591,0.0359 0.47311,0.24798 0.72801,0.47132 0.5372,0.47069 0.83984,0.63997 1.33565,0.74687 0.19609,0.0423 0.52034,0.18366 0.72076,0.31469 0.20042,0.13103 0.50298,0.27215 0.67291,0.31325 0.16994,0.0411 0.47949,0.21058 0.6874,0.37706 0.31573,0.25282 0.39042,0.38971 0.45392,0.83243 0.0418,0.29152 0.0673,0.67986 0.0566,0.86288 -0.0107,0.18301 0.0765,0.51874 0.19288,0.74686 0.15751,0.30874 0.23744,0.7577 0.31324,1.75332 0.0633,0.83115 0.1734,1.523 0.2915,1.82727 0.10452,0.2693 0.21944,0.8175 0.25524,1.21819 0.0706,0.78947 0.23091,1.35416 0.44667,1.57059 0.21016,0.21082 0.0617,0.32631 -0.2712,0.21028 -0.23847,-0.0831 -0.31245,-0.18356 -0.36545,-0.49743 -0.0366,-0.21636 -0.17847,-0.50005 -0.31615,-0.62939 -0.13767,-0.12934 -0.25089,-0.28621 -0.25089,-0.34951 0,-0.0633 -0.1614,-0.28723 -0.35965,-0.49742 -0.19826,-0.21019 -0.36111,-0.44313 -0.36111,-0.51773 0,-0.0746 -0.14339,-0.29442 -0.31905,-0.48872 -0.33149,-0.36666 -1.02727,-1.32137 -1.37335,-1.88384 -0.19122,-0.3108 -0.41536,-0.54349 -1.22689,-1.27619 -0.20406,-0.18424 -0.44013,-0.46657 -0.52353,-0.62795 -0.0835,-0.16138 -0.27689,-0.37634 -0.43071,-0.47712 -0.15382,-0.10079 -0.47374,-0.37431 -0.71061,-0.60764 -0.73142,-0.72051 -1.39343,-1.2994 -1.48503,-1.2994 -0.0481,0 -0.32232,-0.16285 -0.61054,-0.36111 -0.28821,-0.19825 -0.57285,-0.35965 -0.63085,-0.35965 -0.058,0 -0.10441,-0.0493 -0.10441,-0.10877 0,-0.15643 -0.58122,-0.36957 -1.23559,-0.45247 -0.31128,-0.0394 -0.64216,-0.14058 -0.73526,-0.22478 -0.2289,-0.20714 -1.10501,-0.2142 -1.50823,-0.013 -0.17857,0.0891 -0.52305,0.19368 -0.76572,0.23348 -0.44496,0.073 -0.80042,0.29516 -0.80342,0.50323 -0.001,0.062 -0.14504,0.32229 -0.31905,0.57719 -0.30771,0.45076 -0.31514,0.48962 -0.27844,1.44442 0.0308,0.80131 0.0783,1.03894 0.25959,1.29359 0.12217,0.17158 0.2564,0.44842 0.2973,0.6149 0.1415,0.57545 0.74292,1.74603 1.10796,2.15647 0.20151,0.22658 0.47317,0.59332 0.6033,0.81503 0.13013,0.22172 0.58504,0.77756 1.01225,1.23559 0.42721,0.45801 0.88146,1.00434 1.00935,1.21383 0.12789,0.20949 0.32806,0.41237 0.44522,0.44957 0.11715,0.0372 0.47867,0.32848 0.80197,0.64825 0.90577,0.89587 1.68166,1.56043 1.82293,1.56043 0.0704,0 0.18849,0.0854 0.26249,0.18998 0.25706,0.36335 1.12671,1.04561 1.33275,1.04561 0.11402,0 0.42381,0.22669 0.68885,0.50468 0.26493,0.27788 0.59656,0.53948 0.73817,0.58008 0.26109,0.0749 1.36094,0.70081 1.65325,0.9412 0.0878,0.0722 0.36416,0.20359 0.61344,0.29149 0.24927,0.0879 0.52419,0.2231 0.61199,0.3002 0.0878,0.0771 0.50767,0.19984 0.9325,0.27264 0.51032,0.0875 0.87211,0.21295 1.06446,0.37126 0.16012,0.13179 0.399,0.23928 0.53223,0.23928 0.13323,0 0.4051,0.15389 0.60329,0.3408 0.33606,0.31696 0.37006,0.41089 0.51773,1.40237 0.0871,0.58471 0.2307,1.17114 0.3176,1.30374 0.0869,0.1326 0.19983,0.54553 0.25233,0.91654 0.0525,0.37102 0.19289,0.82946 0.31035,1.01951 0.11746,0.19006 0.21318,0.50417 0.21318,0.69755 0,0.19339 0.065,0.60367 0.14503,0.91219 0.13597,0.52415 0.0841,0.92669 -0.11892,0.92669 -0.15514,0 -0.74687,-0.67244 -0.74687,-0.84838 0,-0.10442 -0.17478,-0.36764 -0.3872,-0.58443 -0.21242,-0.21679 -0.58779,-0.67037 -0.83388,-1.00791 -0.24609,-0.33754 -0.55145,-0.67921 -0.6787,-0.75991 -0.12725,-0.0807 -0.50496,-0.45134 -0.83968,-0.82373 -0.90101,-1.0024 -2.14277,-2.10976 -2.97875,-2.6539 -0.058,-0.0377 -0.1854,-0.19347 -0.2828,-0.3466 -0.11351,-0.17846 -0.30499,-0.30256 -0.53223,-0.34516 -0.19498,-0.0366 -0.43328,-0.15481 -0.53078,-0.26249 -0.0975,-0.10769 -0.22934,-0.19578 -0.29294,-0.19578 -0.0636,0 -0.2381,-0.13895 -0.38721,-0.30889 -0.19393,-0.22097 -0.36309,-0.3089 -0.59604,-0.3089 -0.17912,0 -0.52036,-0.11225 -0.75702,-0.24944 -0.55346,-0.32085 -2.21943,-0.46371 -3.07156,-0.26394 -0.74966,0.17574 -1.38385,0.69628 -1.53869,1.26459 -0.0649,0.23818 -0.18569,0.65386 -0.26829,0.92234 -0.13834,0.44984 -0.13317,0.55824 0.0711,1.38787 0.22664,0.92062 0.62776,1.76892 1.11667,2.36385 0.1511,0.18387 0.5475,0.68186 0.88174,1.10797 0.33424,0.42611 0.68236,0.80068 0.77296,0.83098 0.0906,0.0303 0.30285,0.26402 0.47278,0.52063 0.16994,0.25661 0.47174,0.59074 0.67,0.74251 0.19825,0.15177 0.58553,0.49975 0.85998,0.77297 0.27445,0.27321 0.66861,0.60492 0.87738,0.73671 0.20877,0.13178 0.61052,0.45437 0.89189,0.71641 0.28136,0.26203 0.54324,0.47567 0.58154,0.47567 0.0383,0 0.19953,0.10803 0.35965,0.23929 0.16012,0.13126 0.45435,0.2999 0.6526,0.3756 0.19826,0.0757 0.56882,0.33555 0.82372,0.57719 0.29996,0.28436 0.62672,0.48154 0.92669,0.55834 0.2549,0.0653 0.51434,0.18359 0.57574,0.26249 0.0614,0.0789 0.31547,0.23677 0.56559,0.35095 0.25013,0.11419 0.57044,0.30031 0.71206,0.41476 0.27254,0.22025 1.07543,0.55503 1.86643,0.77732 0.26185,0.0736 0.72505,0.2477 1.02966,0.38721 0.30459,0.13951 0.99476,0.35757 1.53288,0.48437 1.38338,0.32598 1.40477,0.33669 1.48937,0.78747 0.0403,0.21493 0.14244,0.52395 0.22624,0.68596 0.0838,0.162 0.19389,0.55104 0.24509,0.86578 0.0958,0.58853 0.65708,1.55223 1.07461,1.84468 0.11198,0.0784 0.33429,0.14357 0.49452,0.14357 0.59179,0 0.75781,-1.16747 0.29295,-2.05931 -0.10538,-0.20218 -0.2456,-0.62085 -0.3118,-0.92959 -0.0662,-0.30874 -0.18679,-0.75778 -0.26829,-0.99776 -0.13451,-0.39606 -0.13075,-0.47711 0.0421,-0.88028 0.12391,-0.28905 0.3383,-0.54159 0.61344,-0.72366 0.23251,-0.15387 0.50279,-0.40826 0.60039,-0.56414 0.0976,-0.15587 0.39377,-0.51721 0.6584,-0.80342 0.26463,-0.28621 0.51649,-0.63288 0.55979,-0.77151 0.0433,-0.13863 0.20435,-0.39783 0.3582,-0.57429 0.15386,-0.17646 0.36647,-0.55823 0.47132,-0.84983 0.10486,-0.2916 0.36641,-0.74322 0.58154,-1.00355 0.21512,-0.26033 0.39011,-0.5395 0.39011,-0.6207 0,-0.0812 0.13434,-0.4358 0.29729,-0.78747 0.16295,-0.35167 0.32631,-0.75607 0.36401,-0.89768 0.064,-0.24011 0.22002,-0.5942 0.76862,-1.75042 0.12095,-0.2549 0.272,-0.76443 0.335,-1.13262 0.063,-0.36819 0.19369,-0.80897 0.29149,-0.9789 0.0978,-0.16993 0.23315,-0.62856 0.30165,-1.0195 0.0685,-0.39095 0.19504,-0.8469 0.28134,-1.01371 0.14363,-0.27775 0.50007,-2.97454 0.47277,-3.57914 -0.006,-0.14162 -0.0286,-0.88275 -0.0493,-1.64745 -0.0408,-1.50866 -0.20207,-2.08886 -0.70335,-2.54224 -0.96657,-0.87421 -0.97083,-0.87624 -1.89544,-0.93394 -0.67854,-0.0423 -0.97609,-0.0161 -1.3371,0.12182 -0.25555,0.0976 -0.46552,0.21449 -0.46552,0.25959 0,0.0451 -0.12703,0.13553 -0.2828,0.20013 -0.42887,0.1779 -1.57059,1.35637 -1.57059,1.62135 0,0.068 -0.11652,0.26242 -0.25813,0.43071 -0.14161,0.1683 -0.25669,0.37112 -0.25669,0.45102 0,0.0799 -0.11593,0.30322 -0.25814,0.49598 -0.28191,0.38211 -0.46172,0.91353 -0.46262,1.3719 -3.3e-4,0.1662 -0.0889,0.36687 -0.20593,0.46407 -0.1201,0.0997 -0.24775,0.38969 -0.30455,0.69611 -0.0536,0.28895 -0.18836,0.68195 -0.3002,0.87448 -0.11183,0.19252 -0.23509,0.62888 -0.27409,0.96875 -0.0391,0.33987 -0.18626,1.15121 -0.3263,1.80262 -0.221,1.02806 -0.26214,1.54274 -0.31324,3.89964 -0.0458,2.11367 -0.0844,2.66607 -0.17548,2.49583 -0.0644,-0.12028 -0.21367,-0.2868 -0.3321,-0.3698 -0.16426,-0.11505 -0.23255,-0.30822 -0.28715,-0.81793 -0.0413,-0.38591 -0.14826,-0.76877 -0.25378,-0.90493 -0.1005,-0.12965 -0.21454,-0.50543 -0.25234,-0.83533 -0.0378,-0.3299 -0.16795,-0.79316 -0.2886,-1.02966 -0.12066,-0.23651 -0.30213,-0.92063 -0.40461,-1.52128 -0.10248,-0.60065 -0.28476,-1.34193 -0.40461,-1.646 -0.17243,-0.43737 -0.20352,-0.67154 -0.15082,-1.12537 0.0638,-0.54985 0.0848,-0.58384 0.52063,-0.81502 0.25005,-0.13265 0.62951,-0.45445 0.84258,-0.71496 0.21307,-0.26052 0.65319,-0.73477 0.97889,-1.05286 0.32571,-0.3181 0.59169,-0.61365 0.59169,-0.65695 0,-0.0433 0.11976,-0.224 0.26539,-0.40171 0.4112,-0.50176 0.752,-1.0165 0.87739,-1.32695 0.0629,-0.15577 0.15488,-0.2828 0.20448,-0.2828 0.12295,0 0.40461,-0.56131 0.40461,-0.80632 0,-0.0528 0.018,-0.11623 0.0464,-0.17547 0.002,-0.004 0.004,-0.007 0.006,-0.0116 0.0298,-0.0584 0.0692,-0.11288 0.11311,-0.14937 0.24693,-0.20493 0.9673,-1.34659 0.9673,-1.53288 0,-0.0889 0.10963,-0.32194 0.24364,-0.51918 0.13401,-0.19725 0.2758,-0.50449 0.3147,-0.6816 0.0389,-0.17711 0.1833,-0.47483 0.32194,-0.66275 0.13865,-0.18792 0.25234,-0.39567 0.25234,-0.46117 0,-0.0655 0.11287,-0.3321 0.25089,-0.59169 0.13803,-0.25958 0.30686,-0.76469 0.37416,-1.12247 0.0673,-0.35778 0.18544,-0.75399 0.26394,-0.88029 0.0785,-0.12629 0.21379,-0.54318 0.30019,-0.92669 0.0864,-0.38351 0.25133,-0.92254 0.36691,-1.19788 0.22877,-0.54496 0.51413,-3.33396 0.38721,-3.78653 -0.0377,-0.13434 -0.0738,-0.55126 -0.0798,-0.92669 -0.006,-0.37544 -0.0774,-0.83864 -0.15953,-1.02965 -0.22483,-0.52295 -0.80005,-1.08563 -1.19933,-1.17323 -0.19288,-0.0423 -0.51175,-0.16401 -0.70916,-0.26974 -0.46138,-0.24715 -0.83449,-0.24245 -1.3139,0.0145 -0.21138,0.11328 -0.49103,0.20593 -0.62214,0.20593 -0.29922,0 -0.73497,0.22232 -0.9905,0.50468 -0.10778,0.11912 -0.25645,0.21608 -0.33065,0.21608 -0.0742,0 -0.19084,0.10459 -0.25814,0.23204 -0.0673,0.12745 -0.36305,0.55628 -0.65695,0.95279 -0.29389,0.39651 -0.56334,0.80149 -0.59894,0.90059 -0.0356,0.0991 -0.10813,0.17983 -0.16243,0.17983 -0.0544,0 -0.19529,0.25758 -0.31324,0.57283 -0.11795,0.31525 -0.33031,0.79086 -0.47133,1.05576 -0.14102,0.26491 -0.25668,0.53339 -0.25668,0.59749 0,0.0641 -0.11186,0.31917 -0.24799,0.56704 -0.13613,0.24788 -0.27915,0.65329 -0.31905,0.90059 -0.0399,0.2473 -0.1573,0.64175 -0.25959,0.87593 -0.10228,0.23418 -0.21634,0.75061 -0.25524,1.14712 -0.0388,0.39652 -0.17604,0.95236 -0.30455,1.23559 -0.15276,0.33667 -0.25619,0.8126 -0.29729,1.37626 -0.0346,0.47418 -0.10873,0.91795 -0.16533,0.98615 -0.14416,0.17369 -0.41621,1.52535 -0.41621,2.06656 0,0.24785 -0.0463,0.47983 -0.10296,0.51483 -0.0567,0.035 -0.10297,0.0148 -0.10297,-0.0435 0,-0.0583 -0.11077,-0.35062 -0.24509,-0.64969 -0.17455,-0.38866 -0.26209,-0.82195 -0.30889,-1.52129 -0.036,-0.53811 -0.11158,-1.14103 -0.16678,-1.34 -0.13257,-0.47786 -0.28372,-1.42662 -0.46552,-2.90914 -0.084,-0.68502 -0.23771,-1.40583 -0.3524,-1.6576 -0.12386,-0.27196 -0.17707,-0.54125 -0.13777,-0.69321 0.0811,-0.3135 0.58845,-0.80827 1.05866,-1.03255 0.19826,-0.0946 0.59952,-0.3975 0.89188,-0.67291 0.29235,-0.27541 0.67134,-0.57715 0.84258,-0.67145 0.17124,-0.0944 0.44235,-0.36722 0.60184,-0.60619 0.1595,-0.23897 0.36832,-0.55425 0.46552,-0.70046 0.0973,-0.14621 0.26275,-0.29795 0.36691,-0.33645 0.10416,-0.0385 0.2511,-0.25653 0.3263,-0.48437 0.079,-0.2394 0.21661,-0.43537 0.3263,-0.46407 0.10438,-0.0273 0.24774,-0.18082 0.31904,-0.34225 0.0713,-0.16143 0.20475,-0.34987 0.29585,-0.41767 0.20484,-0.15241 1.3313,-1.81489 1.3313,-1.96504 0,-0.0601 0.11576,-0.24845 0.25814,-0.41767 0.14239,-0.16922 0.32711,-0.47055 0.41041,-0.67 0.0833,-0.19944 0.19139,-0.38661 0.23929,-0.41621 0.0479,-0.0296 0.21762,-0.36918 0.37851,-0.75412 0.16089,-0.38494 0.44997,-0.94063 0.64244,-1.23558 0.19248,-0.29496 0.39682,-0.7133 0.45392,-0.92815 0.0571,-0.21485 0.19422,-0.58038 0.30455,-0.81357 0.11034,-0.23318 0.26165,-0.7457 0.33645,-1.13842 0.0748,-0.39272 0.21505,-0.83339 0.31035,-0.9789 0.0953,-0.14551 0.21749,-0.62961 0.27119,-1.07606 0.0537,-0.44645 0.17234,-1.01985 0.26394,-1.27475 0.14591,-0.40623 0.15041,-0.59989 0.0406,-1.56188 -0.12169,-1.06627 -0.13807,-1.11258 -0.56849,-1.6373 -0.80955,-0.98693 -1.38328,-1.1878 -2.87144,-1.00355 -0.91108,0.11279 -0.92474,0.11902 -1.40381,0.61344 -0.26597,0.27451 -0.53524,0.49887 -0.59894,0.49887 -0.12096,0 -0.18215,0.0575 -0.93974,0.87884 -0.63954,0.69335 -1.14981,1.484 -1.75912,2.72641 -0.12502,0.2549 -0.2601,0.48653 -0.3002,0.51483 -0.1386,0.0978 -0.30298,0.49026 -0.41476,0.98905 -0.0617,0.27533 -0.17784,0.57405 -0.25814,0.66275 -0.0803,0.0887 -0.21799,0.36416 -0.30599,0.61344 -0.088,0.24928 -0.22995,0.5313 -0.31615,0.6265 -0.0862,0.0952 -0.20579,0.49122 -0.26539,0.88028 -0.0596,0.38906 -0.16964,0.77788 -0.24364,0.86288 -0.15316,0.17586 -0.30821,0.74133 -0.41041,1.49373 -0.0385,0.28322 -0.16553,0.67032 -0.28279,0.86143 -0.14978,0.24407 -0.22729,0.58094 -0.25959,1.13262 -0.0463,0.79099 -0.17219,1.04416 -0.52063,1.04416 -0.1106,0 -0.13107,-0.0816 -0.0827,-0.3234 0.0355,-0.17761 0.0143,-0.51177 -0.0478,-0.74251 -0.0621,-0.23073 -0.15198,-0.83802 -0.19868,-1.35016 -0.0467,-0.51213 -0.13533,-1.14021 -0.19723,-1.39511 -0.22891,-0.94307 -0.3117,-1.73234 -0.3147,-2.98745 -0.001,-0.70806 -0.0484,-1.56427 -0.10442,-1.90414 -0.056,-0.33987 -0.0727,-0.90146 -0.0377,-1.24719 0.0635,-0.62694 0.0642,-0.6298 0.53948,-0.85563 1.11661,-0.5306 1.48363,-0.76385 2.09557,-1.3342 0.35583,-0.33166 0.79681,-0.68032 0.98035,-0.77442 0.18354,-0.0941 0.42278,-0.34373 0.53078,-0.55543 0.11411,-0.22366 0.36388,-0.47925 0.59749,-0.61055 0.23071,-0.12966 0.54888,-0.45292 0.74686,-0.75846 0.18975,-0.29283 0.59323,-0.72328 0.89624,-0.95715 0.37051,-0.28595 0.5883,-0.54359 0.6642,-0.78602 0.0621,-0.19825 0.21581,-0.45374 0.34225,-0.56703 0.23213,-0.20798 1.12171,-1.48138 1.38931,-1.9897 0.0797,-0.15136 0.35174,-0.54692 0.60474,-0.87739 0.253,-0.33047 0.51844,-0.79556 0.59024,-1.034 0.0718,-0.23844 0.25096,-0.61167 0.39881,-0.82953 0.14784,-0.21785 0.26974,-0.45028 0.26974,-0.51628 0,-0.0661 0.11061,-0.27113 0.24654,-0.45537 0.13592,-0.18424 0.27665,-0.49403 0.31325,-0.68885 0.0365,-0.19481 0.17993,-0.59765 0.3176,-0.89479 0.13766,-0.29713 0.27759,-0.74826 0.31179,-1.00355 0.0342,-0.25529 0.15735,-0.75841 0.27264,-1.11812 0.16952,-0.5285 0.20068,-0.8352 0.16098,-1.59669 -0.0426,-0.81749 -0.094,-1.0198 -0.37996,-1.53143 -0.41625,-0.74477 -0.69683,-0.96428 -1.42992,-1.11667 -0.98135,-0.20398 -2.01883,-0.0769 -2.85838,0.35095 -0.39622,0.20192 -0.82438,0.50698 -0.95134,0.6787 -0.12696,0.17172 -0.52999,0.55343 -0.89624,0.84693 -0.36625,0.29349 -0.69056,0.61116 -0.72076,0.70626 -0.0302,0.0951 -0.25321,0.38963 -0.49597,0.65405 -0.24277,0.26443 -0.50269,0.65279 -0.57719,0.86433 -0.0745,0.21154 -0.2151,0.4784 -0.3118,0.59169 -0.33335,0.39059 -0.8209,1.20667 -0.94409,1.58074 -0.0679,0.20628 -0.18764,0.42327 -0.26684,0.48147 -0.0792,0.0582 -0.18939,0.3091 -0.24509,0.55689 -0.0557,0.24779 -0.21382,0.58388 -0.35095,0.74686 -0.13714,0.16297 -0.28245,0.46795 -0.32195,0.6787 -0.0395,0.21075 -0.15405,0.49939 -0.25524,0.641 -0.10118,0.14161 -0.23164,0.52598 -0.29004,0.85418 -0.0584,0.32821 -0.1776,0.69877 -0.2654,0.82372 -0.0878,0.12495 -0.20869,0.40728 -0.26829,0.62795 -0.0597,0.22067 -0.19453,0.52248 -0.30019,0.67 -0.10567,0.14753 -0.24205,0.54245 -0.30165,0.87738 -0.2167,1.21689 -0.27346,0.90932 -0.42491,-2.30875 -0.18452,-3.92204 -0.22749,-6.19844 -0.12617,-6.5869 0.10994,-0.42151 0.81125,-0.96435 1.38351,-1.07171 0.24518,-0.046 0.54852,-0.24096 0.89769,-0.57574 0.2901,-0.27814 0.69069,-0.56444 0.89043,-0.63664 0.19974,-0.0722 0.58987,-0.35345 0.86723,-0.62505 0.27735,-0.27159 0.54229,-0.49307 0.58879,-0.49307 0.13804,0 3.13047,-3.12947 3.74447,-3.9156 0.31154,-0.39889 0.71795,-0.91377 0.90204,-1.14422 0.1841,-0.23044 0.335,-0.46743 0.335,-0.52643 0,-0.059 0.10313,-0.21265 0.23058,-0.34225 0.42881,-0.43605 0.70435,-0.86033 0.86433,-1.32985 0.0875,-0.25668 0.19289,-0.46697 0.23349,-0.46697 0.10603,0 0.9005,-1.23883 0.9905,-1.54449 0.0417,-0.14161 0.16166,-0.3776 0.26539,-0.52498 0.10374,-0.14738 0.23544,-0.47162 0.29294,-0.72076 0.0575,-0.24914 0.21957,-0.73184 0.36111,-1.07171 0.14154,-0.33987 0.25859,-0.79395 0.25959,-1.00935 0.001,-0.2154 0.0769,-0.7155 0.16677,-1.11087 0.15703,-0.69028 0.15494,-0.74709 -0.0551,-1.43862 -0.28226,-0.92925 -0.61401,-1.29692 -1.34436,-1.49083 -0.31155,-0.0827 -0.72843,-0.15732 -0.92669,-0.16532 -0.59026,-0.0242 -1.87268,0.13217 -2.29135,0.27989 -0.48649,0.17164 -1.10797,0.63822 -1.10797,0.83098 0,0.0797 -0.12409,0.19183 -0.27554,0.24943 -0.15144,0.0576 -0.37675,0.20698 -0.50177,0.3321 -0.12502,0.12511 -0.33809,0.30151 -0.47278,0.39301 -0.13469,0.0915 -0.3118,0.30062 -0.393,0.46407 -0.0813,0.16344 -0.25089,0.41238 -0.37851,0.55399 -0.12761,0.14161 -0.37373,0.41514 -0.54674,0.60764 -0.17299,0.19249 -0.31469,0.38297 -0.31469,0.42347 0,0.0405 -0.22154,0.37373 -0.49163,0.73961 -0.27008,0.36588 -0.58201,0.87023 -0.6932,1.12102 -0.11119,0.25079 -0.26025,0.50173 -0.33065,0.55833 -0.0704,0.0566 -0.19915,0.30915 -0.28715,0.56124 -0.0879,0.25209 -0.22624,0.53234 -0.30744,0.62214 -0.23724,0.26215 -0.74109,1.25726 -0.88899,1.75622 -0.075,0.25289 -0.24204,0.61722 -0.37125,0.80922 -0.12921,0.192 -0.23494,0.41728 -0.23494,0.50178 0,0.0845 -0.0897,0.29905 -0.19868,0.47567 -0.10902,0.17662 -0.2529,0.54161 -0.3205,0.81067 -0.0676,0.26906 -0.15858,0.48873 -0.20158,0.48873 -0.33784,0 -0.37302,-0.66947 -0.21898,-4.06787 0.0591,-1.30283 0.11517,-2.97183 0.12617,-3.70821 0.0109,-0.73638 0.0572,-1.44019 0.10296,-1.56479 0.0538,-0.14635 0.22589,-0.2654 0.48438,-0.335 0.22007,-0.0593 0.47948,-0.19518 0.57718,-0.3031 0.0977,-0.10792 0.34817,-0.22814 0.55689,-0.26684 0.20871,-0.0387 0.52739,-0.18221 0.70771,-0.31905 0.18031,-0.13684 0.41191,-0.24913 0.51482,-0.24943 0.26212,-7.6e-4 1.28016,-0.69106 2.59445,-1.75912 0.57585,-0.46798 1.26804,-0.95337 1.71561,-1.20223 0.12783,-0.0711 0.40925,-0.36094 0.62504,-0.6439 0.21578,-0.28295 0.44958,-0.51483 0.51918,-0.51483 0.0696,0 0.33727,-0.26598 0.59604,-0.59169 0.25878,-0.3257 0.65475,-0.72704 0.87883,-0.89189 0.22409,-0.16484 0.45023,-0.42361 0.50323,-0.57573 0.053,-0.15213 0.315,-0.48143 0.58154,-0.73091 0.26654,-0.24947 0.55545,-0.59288 0.64245,-0.76282 0.087,-0.16993 0.31444,-0.46181 0.50612,-0.6497 0.32055,-0.31422 0.57461,-0.72759 1.27185,-2.06946 0.14162,-0.27253 0.42852,-0.71464 0.63809,-0.98325 0.25667,-0.32898 0.42138,-0.67827 0.50178,-1.07026 0.0656,-0.32006 0.15848,-0.63261 0.20738,-0.69321 0.18404,-0.22775 0.41645,-1.52163 0.34805,-1.94039 -0.18838,-1.15414 -0.84351,-1.97981 -1.84178,-2.32326 -0.72655,-0.25001 -1.12286,-0.26026 -1.89688,-0.0507 -0.32027,0.0867 -0.75686,0.20499 -0.9702,0.26249 -0.21335,0.0575 -0.63615,0.30498 -0.93829,0.55108 -0.30215,0.2461 -0.6678,0.51024 -0.81358,0.58734 -0.37946,0.20056 -2.30821,2.08528 -2.76992,2.70611 -0.21453,0.28846 -0.53337,0.68637 -0.7077,0.88463 -0.52497,0.59703 -0.56551,0.65154 -0.84838,1.13263 -0.14987,0.2549 -0.43768,0.64837 -0.6381,0.87448 -0.20043,0.2261 -0.41602,0.57424 -0.48002,0.77297 -0.064,0.19874 -0.2009,0.44298 -0.30455,0.54238 -0.10365,0.0994 -0.2416,0.37578 -0.306,0.61489 -0.0644,0.23911 -0.20558,0.49599 -0.31324,0.57139 -0.10767,0.0754 -0.19578,0.19639 -0.19578,0.26829 0,0.0719 -0.11237,0.23523 -0.24944,0.364 -0.16818,0.15799 -0.27155,0.40127 -0.31905,0.74687 -0.0502,0.36516 -0.15566,0.60034 -0.36835,0.81792 -0.16406,0.16783 -0.29875,0.39624 -0.29875,0.50758 0,0.11133 -0.0414,0.20158 -0.0928,0.20158 -0.0542,0 -0.0731,-0.94893 -0.045,-2.2812 0.0434,-2.05669 0.0683,-2.32501 0.26249,-2.70466 0.1662,-0.32496 0.23349,-0.71609 0.29439,-1.71416 0.0842,-1.38055 0.15875,-1.94979 0.30745,-2.36241 0.051,-0.14161 0.13583,-0.61809 0.18853,-1.05866 0.0921,-0.77037 0.11742,-0.82733 0.67145,-1.47632 0.31684,-0.37115 0.57574,-0.73297 0.57574,-0.80487 0,-0.0719 0.13854,-0.33518 0.30744,-0.58444 0.1746,-0.25766 0.3079,-0.5903 0.3089,-0.77152 0.001,-0.18293 0.0882,-0.39637 0.20303,-0.50032 0.11008,-0.0996 0.22854,-0.31283 0.26394,-0.47423 0.0354,-0.1614 0.15394,-0.40834 0.26394,-0.54818 0.11,-0.13984 0.2457,-0.48856 0.3002,-0.77587 0.0545,-0.28731 0.16344,-0.62777 0.24364,-0.75556 0.0802,-0.1278 0.20494,-0.41732 0.27554,-0.6439 0.0706,-0.22658 0.23249,-0.59716 0.3611,-0.82372 0.13576,-0.23917 0.26525,-0.69322 0.30745,-1.08187 0.04,-0.36819 0.17739,-0.92404 0.30599,-1.23559 0.13002,-0.31495 0.28576,-1.01593 0.35096,-1.57929 0.0645,-0.55726 0.17969,-1.13699 0.25669,-1.28779 0.19668,-0.38537 0.37125,-1.27193 0.37125,-1.88674 0,-0.28643 0.0784,-0.80487 0.17403,-1.15292 0.24712,-0.8999 0.25612,-3.61715 0.0145,-4.34051 -0.0946,-0.28322 -0.20153,-0.73475 -0.23783,-1.00355 -0.0377,-0.27965 -0.16763,-0.61063 -0.3031,-0.77297 -0.13021,-0.15605 -0.30771,-0.42402 -0.39591,-0.59604 -0.19873,-0.38783 -1.31061,-0.97455 -1.84613,-0.97455 z m -0.20013,1.89109 c 0.32624,-0.0209 0.64406,0.0799 0.70916,0.25524 0.0348,0.0938 0.1472,0.2862 0.24943,0.42781 0.13203,0.18288 0.22115,0.61593 0.30745,1.49373 0.17131,1.74218 -0.0755,5.30678 -0.42056,6.07642 -0.13116,0.29251 -0.24484,0.78158 -0.26394,1.13262 -0.0185,0.33987 -0.10698,0.75926 -0.19578,0.93249 -0.0887,0.17323 -0.21354,0.68422 -0.27844,1.13408 -0.0648,0.44985 -0.20408,0.95994 -0.3089,1.13407 -0.10483,0.17413 -0.24485,0.56622 -0.31035,0.87158 -0.0655,0.30537 -0.20502,0.67287 -0.31035,0.81647 -0.10533,0.1436 -0.23619,0.49265 -0.29149,0.77587 -0.0553,0.28322 -0.2189,0.7423 -0.36255,1.02096 -0.14365,0.27866 -0.26104,0.57205 -0.26104,0.65115 0,0.0791 -0.10906,0.29101 -0.24364,0.47132 -0.13458,0.18032 -0.275,0.49718 -0.3118,0.70335 -0.048,0.26944 -0.13111,0.39232 -0.29584,0.43652 -0.42816,0.11476 -0.45568,0.0776 -0.52208,-0.70771 -0.0359,-0.42436 -0.17054,-1.0609 -0.29875,-1.41541 -0.22777,-0.62959 -0.23178,-0.73909 -0.22478,-4.66246 l 0.006,-3.5922 c 0.0112,-0.15666 0.0222,-0.39835 0.0348,-0.52207 l 0.23204,-0.67436 c 0.14634,-0.42484 0.29895,-1.027 0.33935,-1.33855 0.0404,-0.31155 0.13518,-0.68718 0.21028,-0.83388 0.0751,-0.1467 0.19189,-0.58435 0.25959,-0.97309 0.0677,-0.38875 0.20943,-0.84834 0.3147,-1.02096 0.10527,-0.17262 0.19122,-0.39057 0.19143,-0.48437 2.1e-4,-0.0938 0.1607,-0.3717 0.35675,-0.6178 0.19605,-0.2461 0.50836,-0.6416 0.69466,-0.87883 0.18631,-0.23724 0.49006,-0.48358 0.67435,-0.54818 0.10137,-0.0355 0.21175,-0.0568 0.3205,-0.0638 z m -14.04973,18.68898 c 0.36466,0 0.55585,0.0664 0.83677,0.2915 0.62581,0.50151 1.69241,1.56263 1.69241,1.6837 0,0.0636 0.20814,0.3721 0.46262,0.68451 0.25449,0.31241 0.65128,0.96941 0.88173,1.46037 0.23046,0.49096 0.48434,1.0084 0.56414,1.15002 0.0798,0.14161 0.19659,0.37322 0.25959,0.51483 0.063,0.14161 0.22713,0.48974 0.36546,0.77297 0.13833,0.28322 0.2972,0.76407 0.3524,1.06881 0.0553,0.30475 0.19264,0.70412 0.306,0.88754 0.1134,0.18342 0.20593,0.4951 0.20593,0.6932 0,0.21712 0.0914,0.47718 0.23058,0.65405 0.16886,0.21467 0.2471,0.48784 0.2915,1.01805 0.0334,0.39856 0.18085,1.16444 0.3263,1.70256 0.14545,0.53813 0.31705,1.39579 0.38285,1.90559 0.0658,0.50981 0.18874,1.06516 0.27264,1.23414 0.0839,0.16899 0.17989,0.5687 0.21319,0.88753 0.0334,0.31883 0.0192,0.60235 -0.0305,0.63085 -0.10006,0.0574 -0.48999,-0.1697 -0.83822,-0.48727 -0.60844,-0.55486 -1.05431,-1.00011 -1.05431,-1.05431 0,-0.051 -0.81723,-1.0074 -1.47488,-1.72577 -0.10372,-0.11329 -0.2478,-0.34489 -0.3205,-0.51482 -0.0727,-0.16993 -0.30311,-0.49435 -0.51192,-0.72076 -0.20883,-0.22642 -0.49924,-0.65561 -0.64535,-0.95425 -0.14611,-0.29865 -0.30156,-0.56624 -0.34516,-0.59314 -0.0436,-0.0269 -0.18209,-0.24624 -0.30744,-0.48727 -0.12535,-0.24102 -0.2586,-0.46043 -0.2973,-0.48873 -0.0386,-0.0283 -0.22306,-0.39888 -0.40896,-0.82372 -0.1859,-0.42483 -0.45413,-0.95093 -0.59604,-1.16888 -0.1419,-0.21795 -0.32551,-0.58697 -0.40751,-0.81937 -0.082,-0.23239 -0.21084,-0.49374 -0.28714,-0.58154 -0.0763,-0.0878 -0.17044,-0.34481 -0.20884,-0.57139 -0.0788,-0.4651 -0.48031,-1.74524 -0.84547,-2.69596 -0.2016,-0.52489 -0.24329,-0.82101 -0.23929,-1.69966 0.004,-1.06014 0.005,-1.06549 0.3524,-1.45892 0.30894,-0.3497 0.40359,-0.39446 0.82228,-0.39446 z m 21.59812,2.90189 c 0.35966,8e-4 0.75526,0.0303 0.88029,0.0638 0.57633,0.15452 0.58965,1.86137 0.0232,2.9541 -0.18192,0.35094 -0.43517,0.76358 -0.56413,0.91799 -0.12896,0.15442 -0.26505,0.41788 -0.30165,0.58444 -0.0366,0.16656 -0.13203,0.3276 -0.21173,0.3582 -0.0797,0.0306 -0.2156,0.22722 -0.3031,0.43652 -0.0875,0.2093 -0.34015,0.57662 -0.56123,0.81647 -0.22108,0.23984 -0.47559,0.57871 -0.56559,0.75267 -0.09,0.17396 -0.38373,0.5544 -0.6526,0.84548 -0.26888,0.29107 -0.53499,0.61142 -0.59169,0.71351 -0.12233,0.22048 -1.37485,1.53788 -1.98825,2.09121 -0.238,0.2147 -0.43216,0.43268 -0.43216,0.48438 0,0.0517 -0.19723,0.18178 -0.43797,0.29004 -0.24074,0.10826 -0.65316,0.41177 -0.91654,0.67435 -0.26339,0.26258 -0.52679,0.47858 -0.58589,0.47858 -0.0591,0 -0.17849,0.10071 -0.26539,0.22478 -0.0869,0.12408 -0.472,0.39151 -0.85563,0.59314 -0.38362,0.20163 -0.74132,0.46574 -0.79472,0.58734 -0.0726,0.16536 -0.22145,0.23804 -0.59169,0.28714 -0.36957,0.049 -0.53854,0.12949 -0.66275,0.31905 -0.17084,0.26068 -0.26283,0.30566 -0.38286,0.18563 -0.13283,-0.13283 -0.0646,-0.40846 0.27554,-1.11957 0.1889,-0.39492 0.37502,-0.94849 0.41332,-1.22979 0.0383,-0.28131 0.13508,-0.54784 0.21608,-0.59314 0.2493,-0.13951 0.7834,-1.0096 1.18483,-1.93024 0.21042,-0.4826 0.49557,-1.05011 0.63229,-1.26024 0.5373,-0.82582 0.79359,-1.27619 0.86579,-1.52273 0.0415,-0.14161 0.17698,-0.37322 0.30164,-0.51483 0.12466,-0.14161 0.29276,-0.35808 0.37416,-0.48002 0.0814,-0.12194 0.37605,-0.56127 0.65405,-0.97745 0.278,-0.41619 0.60225,-0.86144 0.72076,-0.98905 0.11852,-0.1276 0.35504,-0.39334 0.52498,-0.59024 0.66369,-0.76904 2.1763,-2.24462 2.44507,-2.38416 0.15577,-0.0809 0.28424,-0.18494 0.28424,-0.23204 0,-0.0471 0.2734,-0.25486 0.60764,-0.46117 0.53307,-0.329 0.68811,-0.37516 1.26169,-0.37416 z m -12.88955,9.1654 c 0.0487,0 0.0837,0.11112 0.0943,0.24798 -0.002,0.10333 -0.005,0.20377 -0.0116,0.2828 -0.0169,0.0724 -0.0465,0.0898 -0.11747,0.0188 -0.10784,-0.10781 -0.0797,-0.54963 0.0348,-0.54963 z m -10.73163,5.92269 c 0.85264,4e-5 0.75442,-0.0482 1.66775,0.80923 0.14161,0.13295 0.41353,0.35313 0.60329,0.48872 0.18976,0.1356 0.43361,0.41988 0.54239,0.6323 0.10877,0.21241 0.23384,0.38576 0.27844,0.38576 0.0446,0 0.21767,0.18872 0.38431,0.41911 0.16664,0.23038 0.44963,0.60224 0.62939,0.82517 0.17975,0.22294 0.38007,0.56249 0.44377,0.75557 0.0637,0.19308 0.18319,0.37736 0.26539,0.40896 0.0822,0.0316 0.14937,0.12778 0.14937,0.21318 0,0.0854 0.11047,0.2265 0.24509,0.3147 0.17922,0.11743 0.27546,0.32296 0.36256,0.76572 0.0654,0.33257 0.20509,0.71267 0.30889,0.84548 0.1038,0.1328 0.26481,0.50525 0.35821,0.82807 0.0934,0.32283 0.21669,0.6171 0.27409,0.6526 0.2179,0.13467 0.92234,1.7762 0.92234,2.14923 0,0.22703 0.0897,0.50089 0.22333,0.6816 0.14269,0.193 0.23934,0.50677 0.26974,0.87303 0.0359,0.43304 0.10382,0.61645 0.277,0.75267 0.18285,0.14383 0.24409,0.33051 0.30309,0.92959 0.0406,0.41248 0.18844,1.05595 0.3292,1.42991 0.23664,0.62869 0.31533,1.4004 0.11022,1.08332 -0.0464,-0.0717 -0.23523,-0.19294 -0.41912,-0.26974 -0.18389,-0.0768 -0.60346,-0.38855 -0.93249,-0.69321 -1.69242,-1.56709 -2.66884,-2.54724 -2.85983,-2.87143 -0.11679,-0.19826 -0.42578,-0.58031 -0.68741,-0.84838 -0.67813,-0.69483 -0.93974,-0.99987 -0.93974,-1.09927 0,-0.0477 -0.0732,-0.14803 -0.16387,-0.22333 -0.20862,-0.17314 -0.85362,-1.16011 -1.08477,-1.65905 -0.17444,-0.37653 -0.49669,-0.87161 -0.82227,-1.2675 -0.0932,-0.11329 -0.2267,-0.39121 -0.2973,-0.61779 -0.0706,-0.22658 -0.2109,-0.5045 -0.31179,-0.61779 -0.10088,-0.11329 -0.22985,-0.38016 -0.28715,-0.59169 -0.0573,-0.21152 -0.20095,-0.5068 -0.31905,-0.65695 -0.11813,-0.15014 -0.21463,-0.33071 -0.21463,-0.40171 0,-0.071 -0.14289,-0.43443 -0.3176,-0.80778 -0.29942,-0.63976 -0.3189,-0.75573 -0.335,-2.01435 -0.0125,-0.97867 0.0192,-1.37203 0.11747,-1.47053 0.0871,-0.0872 0.41197,-0.13345 0.92669,-0.13342 z m 22.21592,0.59894 c 0.32788,0.0288 0.61886,0.0823 0.68161,0.14503 0.17227,0.17228 0.27462,1.09651 0.18852,1.70546 -0.0477,0.3376 -0.20043,0.85085 -0.33935,1.14132 -0.56817,1.18804 -0.77398,1.67907 -0.84548,2.02161 -0.0414,0.19825 -0.16116,0.42052 -0.26684,0.49452 -0.10564,0.074 -0.19288,0.18499 -0.19288,0.24509 0,0.0601 -0.13896,0.26762 -0.30889,0.46117 -0.16993,0.19354 -0.3089,0.41777 -0.3089,0.49887 0,0.081 -0.13794,0.28921 -0.30745,0.46262 -0.18808,0.1924 -0.3336,0.47168 -0.3727,0.71641 -0.0494,0.30887 -0.11948,0.41397 -0.30745,0.46117 -0.14632,0.0367 -0.2704,0.16417 -0.3089,0.3176 -0.0353,0.14075 -0.10702,0.25669 -0.15952,0.25669 -0.0525,0 -0.18089,0.19578 -0.28569,0.43652 -0.10481,0.24074 -0.48643,0.74197 -0.84693,1.11377 -2.35923,2.43317 -2.99996,3.08316 -3.03966,3.08316 -0.0247,0 -0.30319,0.25266 -0.61925,0.56124 -0.31605,0.30857 -0.70785,0.59079 -0.87013,0.62649 -0.16228,0.0356 -0.37587,0.16521 -0.47567,0.2886 -0.0998,0.12339 -0.30739,0.30581 -0.46117,0.40461 -0.35183,0.22613 -0.4611,0.22485 -0.58299,-0.003 -0.067,-0.12533 -0.0522,-0.24307 0.0479,-0.37996 0.0798,-0.10915 0.14493,-0.38642 0.14502,-0.61634 9e-5,-0.22991 0.0887,-0.58051 0.19723,-0.77877 0.52527,-0.95974 0.85554,-1.74784 0.93684,-2.23624 0.0492,-0.29559 0.20898,-0.71204 0.35385,-0.92524 0.14487,-0.2132 0.26249,-0.46053 0.26249,-0.54963 0,-0.0891 0.11369,-0.31531 0.25234,-0.50323 0.13864,-0.18792 0.2827,-0.48709 0.3205,-0.6642 0.0378,-0.17711 0.10637,-0.36907 0.15227,-0.42637 0.0459,-0.0573 0.18675,-0.38121 0.31325,-0.71931 0.1265,-0.3381 0.4324,-0.90205 0.6787,-1.25444 0.25628,-0.36666 0.49834,-0.86409 0.56704,-1.16162 0.066,-0.28594 0.17669,-0.51918 0.24509,-0.51918 0.16193,0 0.79546,-0.78596 0.95714,-1.18773 0.0693,-0.17207 0.51124,-0.71006 0.98325,-1.19498 0.47201,-0.48493 0.87599,-0.9285 0.89769,-0.9847 0.0217,-0.0562 0.25523,-0.26368 0.51773,-0.46262 0.26249,-0.19894 0.58373,-0.46063 0.71351,-0.58154 0.12978,-0.12091 0.39344,-0.25074 0.58733,-0.28714 0.20769,-0.039 0.57271,-0.0346 0.90059,-0.006 z m -0.39156,15.72474 c 0.19906,2.3e-4 0.86543,0.47444 1.08332,0.77152 0.11269,0.1537 0.0954,0.85484 -0.0232,0.92814 -0.0567,0.035 -0.10296,0.17871 -0.10296,0.3205 0,0.3187 -0.25995,1.18482 -0.52498,1.75186 -0.10927,0.23379 -0.252,0.697 -0.3176,1.02966 -0.0656,0.33267 -0.16313,0.6338 -0.21753,0.67 -0.17962,0.11934 -1.41041,2.37981 -1.57059,2.88449 -0.0411,0.12953 -0.27356,0.43453 -0.51628,0.67725 -0.24272,0.24272 -0.47163,0.58091 -0.50903,0.75122 -0.0651,0.29658 -0.79912,1.26359 -1.72721,2.27829 -0.24005,0.26245 -0.78319,0.91814 -1.20803,1.45747 -0.51599,0.65507 -0.91855,1.05887 -1.21094,1.21384 -0.24074,0.12759 -0.43796,0.26825 -0.43796,0.31325 0,0.13177 -0.73995,0.81212 -0.88319,0.81212 -0.0719,0 -0.26189,0.10978 -0.42201,0.24364 -0.31916,0.26685 -0.74772,0.43743 -0.76572,0.30454 -0.0377,-0.27856 0.0539,-0.59051 0.22334,-0.75991 0.10719,-0.10718 0.21933,-0.32282 0.24943,-0.48003 0.03,-0.15721 0.16552,-0.63383 0.30165,-1.05866 0.13612,-0.42484 0.27885,-1.02727 0.31615,-1.33855 0.0373,-0.31128 0.13023,-0.63556 0.20593,-0.72076 0.0757,-0.0852 0.21135,-0.40646 0.30165,-0.71351 0.0903,-0.30705 0.22649,-0.65373 0.30309,-0.77152 0.0766,-0.11779 0.19679,-0.47011 0.26829,-0.78166 0.0715,-0.31154 0.21785,-0.71905 0.32485,-0.90639 0.10701,-0.18733 0.24985,-0.55596 0.31615,-0.81938 0.0663,-0.26342 0.22773,-0.63801 0.35965,-0.83242 0.13193,-0.1944 0.24074,-0.41063 0.24074,-0.48003 0,-0.0694 0.0841,-0.23616 0.18853,-0.37125 0.10442,-0.13509 0.26105,-0.45878 0.34805,-0.71786 0.13698,-0.40791 0.5782,-1.12713 1.57349,-2.56689 0.2404,-0.34775 0.99193,-1.21027 1.6634,-1.91139 0.17796,-0.18582 0.33936,-0.37676 0.35966,-0.42346 0.057,-0.13119 1.55289,-0.7544 1.80987,-0.75412 z m -22.26813,0.62215 c 0.8447,0.0224 3.08745,1.79397 3.86194,3.05706 0.0964,0.15729 0.36396,0.47388 0.59459,0.70336 0.23063,0.22947 0.54288,0.67868 0.69465,0.9992 0.15176,0.32053 0.39788,0.71207 0.54674,0.87013 0.14885,0.15805 0.37152,0.50215 0.49452,0.76427 0.12299,0.26212 0.2754,0.50813 0.3379,0.54673 0.0625,0.0386 0.11447,0.14784 0.11747,0.24364 0.005,0.19145 0.17199,0.52526 0.71351,1.42991 0.1969,0.32894 0.41342,0.80665 0.48002,1.06156 0.15875,0.60726 0.64085,1.75831 0.82373,1.9665 0.0793,0.0903 0.21329,0.42883 0.29729,0.75122 0.084,0.3224 0.24029,0.71204 0.34806,0.86578 0.10777,0.15373 0.22113,0.52183 0.25233,0.81792 0.0312,0.29608 0.17202,0.77951 0.31325,1.07462 0.14124,0.2951 0.23443,0.57459 0.20593,0.62069 -0.075,0.12128 -0.12514,0.10452 -0.86288,-0.28279 -0.36783,-0.1931 -0.85582,-0.55422 -1.08331,-0.80198 -0.22749,-0.24776 -0.51889,-0.48387 -0.64825,-0.52497 -0.12936,-0.041 -0.87719,-0.71981 -1.66195,-1.50823 -0.78475,-0.78843 -1.47914,-1.43282 -1.54304,-1.43282 -0.0639,0 -0.15818,-0.11246 -0.21028,-0.24944 -0.10074,-0.26497 -0.75703,-1.17493 -0.97165,-1.34725 -0.0705,-0.0566 -0.29849,-0.35846 -0.50612,-0.67001 -0.20763,-0.31153 -0.5941,-0.86262 -0.85853,-1.22543 -0.49342,-0.67701 -0.98219,-1.53185 -1.10942,-1.93895 -0.0837,-0.26764 -0.7041,-1.31736 -0.92234,-1.56043 -0.0823,-0.0917 -0.20394,-0.46587 -0.26974,-0.83098 -0.0658,-0.36511 -0.20882,-0.83817 -0.3176,-1.05141 -0.12212,-0.23933 -0.19657,-0.5962 -0.19578,-0.93249 0.001,-0.49099 0.0411,-0.58732 0.40751,-0.9818 0.24986,-0.269 0.47385,-0.41781 0.63085,-0.42926 0.0177,-2.3e-4 0.0216,-0.004 0.0406,-0.004 z m 22.62924,15.96982 c 0.2015,0.005 0.36097,0.0662 0.55688,0.18563 0.30054,0.18327 0.32601,0.24648 0.38721,0.95279 0.0782,0.90243 -0.15238,2.98862 -0.37996,3.43412 -0.4983,0.97543 -0.68459,1.43786 -0.79327,1.9752 -0.0667,0.32989 -0.19604,0.71547 -0.28714,0.85708 -0.19929,0.30969 -0.57238,0.99797 -0.92234,1.69966 -0.14126,0.28322 -0.31551,0.58355 -0.38721,0.66855 -0.0717,0.085 -0.16163,0.30322 -0.20013,0.48438 -0.0592,0.2789 -0.30703,0.67378 -0.77007,1.22978 -0.0541,0.065 -0.17324,0.29662 -0.26394,0.51483 -0.0907,0.21822 -0.38618,0.62897 -0.65695,0.91219 -0.44105,0.46134 -0.66338,0.74729 -0.99195,1.27619 -0.0566,0.0912 -0.2763,0.36237 -0.48872,0.60184 -0.21242,0.23948 -0.38811,0.49349 -0.39011,0.56559 -0.002,0.0721 -0.20928,0.26242 -0.46117,0.42201 -0.25189,0.1596 -0.5343,0.41364 -0.6265,0.56559 -0.0922,0.15195 -0.29908,0.38264 -0.45972,0.51193 -0.27351,0.22016 -0.29785,0.22269 -0.38575,0.0508 -0.13655,-0.26702 0.12204,-2.57949 0.33355,-2.98456 0.10565,-0.20232 0.20734,-0.76869 0.26394,-1.46472 0.0727,-0.8944 0.13798,-1.19585 0.30889,-1.42702 0.13098,-0.17716 0.2569,-0.57353 0.3176,-1.0021 0.0552,-0.39007 0.16634,-0.78153 0.24654,-0.87013 0.0802,-0.0886 0.19224,-0.45145 0.24944,-0.80632 0.0572,-0.35488 0.19517,-0.76221 0.30744,-0.90494 0.11227,-0.14273 0.23484,-0.40075 0.27264,-0.57284 0.0378,-0.17208 0.20399,-0.56779 0.36836,-0.88028 0.16438,-0.31248 0.29875,-0.63911 0.29875,-0.72511 0,-0.31306 0.91782,-2.04641 1.27039,-2.39866 0.19918,-0.19899 0.44652,-0.58692 0.54963,-0.86144 0.14508,-0.38624 0.2816,-0.54992 0.60039,-0.72656 0.24955,-0.13827 0.48146,-0.37467 0.58879,-0.59894 0.14964,-0.31268 0.2641,-0.39484 0.73671,-0.53223 0.36267,-0.10542 0.60627,-0.15734 0.80778,-0.15227 z m -21.97664,2.66695 c 0.30665,0 1.72019,0.57453 1.9868,0.80778 0.12189,0.10664 0.37182,0.32232 0.55544,0.47857 0.18363,0.15624 0.49485,0.43446 0.69175,0.61924 0.19691,0.18478 0.45872,0.36852 0.58154,0.40752 0.12542,0.0398 0.33161,0.28553 0.47132,0.56123 0.1368,0.26997 0.42233,0.64408 0.6352,0.83098 0.38398,0.33714 0.51839,0.5035 1.20513,1.49662 0.19599,0.28342 0.48793,0.64746 0.6497,0.80923 0.16178,0.16178 0.34371,0.46233 0.40461,0.66855 0.11277,0.38175 0.82571,1.45602 0.96585,1.45602 0.0424,0 0.13473,0.19723 0.20593,0.43797 0.0712,0.24074 0.19329,0.50969 0.27119,0.59749 0.0779,0.0878 0.21375,0.36417 0.30165,0.61344 0.088,0.24928 0.22514,0.52419 0.30454,0.61199 0.0794,0.0878 0.23853,0.38064 0.35386,0.6497 0.11532,0.26907 0.25194,0.48872 0.30454,0.48872 0.0525,0 0.1783,0.33388 0.27844,0.74252 0.14841,0.6056 0.26509,0.8316 0.6294,1.22108 0.44004,0.47044 0.50794,0.64079 0.38431,0.96295 -0.0344,0.0896 -0.11658,0.16062 -0.18128,0.15662 -0.2886,-0.0159 -1.67511,-0.65721 -1.79682,-0.83097 -0.0742,-0.10603 -0.19494,-0.19288 -0.26974,-0.19288 -0.0748,0 -0.19729,-0.0733 -0.27119,-0.16243 -0.0739,-0.0891 -0.30878,-0.25083 -0.52208,-0.35965 -0.2133,-0.10882 -0.51089,-0.30917 -0.6613,-0.44522 -0.28363,-0.25654 -0.43655,-0.38536 -1.6431,-1.39076 -0.85829,-0.7152 -2.26672,-2.15034 -3.09187,-3.15133 -0.32686,-0.39651 -0.70341,-0.82739 -0.83678,-0.95714 -0.13336,-0.12974 -0.24219,-0.28571 -0.24219,-0.34661 0,-0.12 -0.67813,-1.10317 -0.87738,-1.27184 -0.0671,-0.0568 -0.22153,-0.28844 -0.3437,-0.51483 -0.12217,-0.22638 -0.40473,-0.70007 -0.6265,-1.05286 -0.22176,-0.3528 -0.43447,-0.74725 -0.47277,-0.87593 -0.0384,-0.12869 -0.15883,-0.38939 -0.26829,-0.58009 -0.23485,-0.40909 -0.34709,-1.09643 -0.25669,-1.57639 0.0487,-0.25884 0.17451,-0.41246 0.51338,-0.62649 0.24665,-0.15577 0.54706,-0.2828 0.6671,-0.2828 z m 23.24268,12.35733 c 0.0813,-0.13155 0.96659,0.40356 1.16308,0.70336 0.21611,0.32969 0.30441,2.37321 0.13632,3.16003 -0.2101,0.98344 -0.61042,2.37012 -0.77587,2.69015 -0.0915,0.17701 -0.21514,0.59536 -0.27554,0.92815 -0.0604,0.33279 -0.17434,0.70373 -0.25234,0.82517 -0.078,0.12144 -0.21495,0.53755 -0.30455,0.92379 -0.0896,0.38624 -0.19893,0.72662 -0.24363,0.75702 -0.0897,0.0612 -0.74477,1.29125 -0.98905,1.85773 -0.0855,0.19826 -0.33999,0.63903 -0.56559,0.9789 -0.22559,0.33987 -0.46873,0.73287 -0.54093,0.87448 -0.0722,0.14161 -0.23603,0.41564 -0.36401,0.60764 -0.12798,0.192 -0.23348,0.4315 -0.23348,0.53368 0,0.10217 -0.0933,0.2522 -0.20738,0.3321 -0.17939,0.12564 -1.02821,1.24631 -1.02821,1.35741 0,0.022 -0.2555,0.3069 -0.56704,0.63374 -0.31155,0.32684 -0.56558,0.63061 -0.56558,0.67581 0,0.0452 -0.0742,0.0827 -0.16533,0.0827 -0.1486,0 -0.15911,-0.18878 -0.0957,-1.82873 0.0389,-1.00545 0.11342,-1.99012 0.16532,-2.18838 0.0518,-0.19826 0.094,-0.55074 0.0943,-0.78457 3.2e-4,-0.23382 0.0681,-0.58432 0.14937,-0.77877 0.0812,-0.19445 0.17838,-0.8849 0.21608,-1.53288 0.0558,-0.95868 0.11594,-1.27061 0.32195,-1.67645 0.13925,-0.27431 0.2778,-0.73753 0.3089,-1.02966 0.0311,-0.29214 0.14415,-0.71914 0.25089,-0.94844 0.10674,-0.2293 0.22574,-0.64399 0.26394,-0.92234 0.0382,-0.27836 0.20051,-0.75629 0.3611,-1.06157 0.16059,-0.30528 0.2915,-0.63681 0.2915,-0.73671 0,-0.0999 0.095,-0.30152 0.21028,-0.44812 0.11531,-0.14659 0.26155,-0.41943 0.32485,-0.60619 0.0633,-0.18675 0.19992,-0.46308 0.30454,-0.61344 0.10463,-0.15035 0.18998,-0.3062 0.18998,-0.3466 0,-0.0404 0.12847,-0.22162 0.28424,-0.40316 0.15578,-0.18154 0.43186,-0.54474 0.61345,-0.80778 0.20879,-0.30243 0.5395,-0.59674 0.90058,-0.80052 0.31405,-0.17724 0.5946,-0.36061 0.6236,-0.40751 z m -21.60103,4.94815 c 0.16812,-0.002 0.37271,0.008 0.6265,0.0261 0.62576,0.0455 0.91397,0.12555 1.40526,0.39301 0.33987,0.18502 0.63305,0.37242 0.65115,0.41622 0.0181,0.0438 0.31993,0.27519 0.67,0.51338 0.92966,0.63254 1.65742,1.29408 2.63505,2.39431 0.47683,0.53664 0.94606,0.99605 1.04126,1.02095 0.0956,0.025 0.20163,0.19312 0.23783,0.37416 0.0407,0.20372 0.28082,0.54632 0.63375,0.90494 0.3124,0.31742 0.56849,0.62465 0.56849,0.68305 0,0.0584 0.18763,0.32905 0.41766,0.60184 0.42988,0.50982 0.96963,1.36415 1.3255,2.09557 0.11101,0.22815 0.3907,0.6181 0.62069,0.86723 0.22999,0.24913 0.46453,0.62416 0.52063,0.83243 0.0561,0.20827 0.20604,0.49906 0.33355,0.6468 0.70731,0.81948 0.79418,0.9776 0.79618,1.43571 10e-4,0.35612 -0.0213,0.38576 -0.2915,0.38576 -0.16116,0 -0.37395,-0.0908 -0.47422,-0.20158 -0.10321,-0.11405 -0.38961,-0.23139 -0.65985,-0.27119 -0.27879,-0.041 -0.61594,-0.18225 -0.80922,-0.33935 -0.66353,-0.53934 -0.93711,-0.73123 -1.18048,-0.82372 -0.29198,-0.11101 -1.8049,-1.17986 -2.07092,-1.46328 -0.10102,-0.10763 -0.39089,-0.24809 -0.64389,-0.31179 -0.25301,-0.0637 -0.45972,-0.17264 -0.45972,-0.24364 0,-0.071 -0.21967,-0.32428 -0.48873,-0.56124 -0.26906,-0.23697 -0.58136,-0.51445 -0.69465,-0.61779 -0.11329,-0.10334 -0.31051,-0.24205 -0.43797,-0.30745 -0.12745,-0.0654 -0.23294,-0.17483 -0.23494,-0.24363 -0.005,-0.19244 -0.44913,-0.65422 -0.80777,-0.83968 -0.17708,-0.0916 -0.32195,-0.20959 -0.32195,-0.26249 0,-0.0999 -0.12705,-0.25448 -1.06301,-1.28925 -0.30741,-0.33987 -0.59079,-0.71992 -0.62939,-0.84548 -0.0386,-0.12557 -0.26426,-0.42817 -0.50178,-0.6729 -0.23753,-0.24473 -0.61099,-0.80853 -0.82953,-1.25154 -0.21853,-0.44301 -0.49272,-0.90023 -0.60909,-1.0166 -0.30329,-0.30329 -0.36754,-1.13441 -0.12327,-1.58799 0.17117,-0.3176 0.34403,-0.43365 0.84838,-0.44087 z m 24.7161,9.43948 c 0.0755,0.013 0.1515,0.0431 0.23639,0.087 0.16675,0.0862 0.30309,0.20058 0.30309,0.25378 0,0.0532 0.13897,0.25457 0.3089,0.44812 l 0.31035,0.35241 v 1.74171 c 0,1.5187 -0.0338,1.86733 -0.25524,2.71916 -0.13966,0.53736 -0.28385,1.24232 -0.32195,1.56624 -0.0381,0.32392 -0.10232,0.58879 -0.14212,0.58879 -0.12321,0 -0.29378,0.46907 -0.41621,1.14422 -0.0645,0.35561 -0.20104,0.81092 -0.3031,1.01226 -0.10205,0.20133 -0.21794,0.60863 -0.25814,0.90494 -0.0402,0.29631 -0.15469,0.64444 -0.25379,0.77296 -0.0991,0.12852 -0.22779,0.37239 -0.28569,0.54238 -0.0578,0.16999 -0.2212,0.48132 -0.36401,0.69176 -0.14281,0.21045 -0.29205,0.55002 -0.33065,0.75556 -0.0386,0.20554 -0.26944,0.66036 -0.51337,1.00936 -0.24395,0.34901 -0.64667,1.02398 -0.89479,1.50098 -0.24813,0.477 -0.63981,1.05708 -0.87158,1.28779 -0.23177,0.23071 -0.47769,0.5237 -0.54529,0.65115 -0.0676,0.12745 -0.16113,0.23058 -0.20883,0.23058 -0.16681,0 -0.34284,-0.30872 -0.29004,-0.51047 0.0293,-0.11192 0.008,-0.58236 -0.0479,-1.04561 -0.0813,-0.6725 -0.0712,-0.95918 0.0522,-1.41977 0.0959,-0.35778 0.18103,-1.33522 0.22333,-2.57269 0.0486,-1.42209 0.1238,-2.21157 0.26104,-2.74816 0.1059,-0.41407 0.22229,-1.27618 0.25959,-1.9172 0.0531,-0.91434 0.11791,-1.26645 0.30165,-1.63004 0.12881,-0.25491 0.2694,-0.67179 0.3118,-0.92669 0.0424,-0.2549 0.16501,-0.58751 0.27264,-0.73962 0.10763,-0.1521 0.24539,-0.54506 0.30599,-0.87303 0.0606,-0.32798 0.19282,-0.71262 0.2944,-0.85563 0.10158,-0.14301 0.26005,-0.42243 0.35095,-0.62069 0.22714,-0.49534 1.20128,-1.70138 1.6228,-2.00856 0.44055,-0.32106 0.66109,-0.43186 0.88753,-0.39301 z m -21.47051,6.41723 c 0.40703,0 2.30894,0.56262 2.67276,0.79037 0.2113,0.13227 0.42832,0.24073 0.48292,0.24073 0.0546,0 0.16379,0.0911 0.24219,0.20303 0.0784,0.11191 0.2807,0.26281 0.44957,0.33501 0.40946,0.17503 0.87179,0.53382 1.51403,1.17467 0.29179,0.29116 0.62333,0.55779 0.73671,0.59169 0.11337,0.0339 0.40904,0.31582 0.65695,0.6265 0.24791,0.31068 0.53787,0.59279 0.6439,0.62649 0.10599,0.0337 0.19288,0.10093 0.19288,0.15083 0,0.1753 1.03809,1.33705 1.32985,1.48792 0.16229,0.0839 0.34126,0.28193 0.39736,0.43942 0.0561,0.1575 0.1886,0.38596 0.29439,0.50903 0.10579,0.12307 0.39615,0.48314 0.64535,0.79907 0.24921,0.31592 0.48913,0.57428 0.53223,0.57428 0.0431,0 0.17395,0.19723 0.2915,0.43797 0.11755,0.24074 0.42301,0.6676 0.6787,0.94844 0.2557,0.28085 0.46552,0.55105 0.46552,0.60185 0,0.0508 0.11508,0.23051 0.25669,0.39881 0.14161,0.16829 0.25814,0.36331 0.25814,0.43361 0,0.0703 0.16144,0.31097 0.35965,0.53368 0.19822,0.22271 0.36107,0.45673 0.36111,0.52063 4e-5,0.0639 0.10458,0.18955 0.23203,0.27844 0.22516,0.15688 0.21828,0.16118 -0.23203,0.15518 -0.2549,-0.003 -0.62548,-0.0908 -0.82373,-0.19433 -0.63161,-0.32995 -1.47847,-0.69419 -1.98825,-0.85708 -0.27188,-0.0869 -0.80384,-0.36272 -1.18338,-0.61199 -0.37954,-0.24927 -0.84764,-0.50534 -1.03981,-0.56994 -0.19218,-0.0646 -0.44766,-0.21549 -0.56703,-0.33355 -0.24289,-0.24021 -1.30488,-0.9502 -1.9491,-1.30375 -0.23212,-0.12739 -0.46133,-0.30201 -0.50903,-0.38721 -0.0477,-0.0851 -0.24184,-0.236 -0.43216,-0.335 -0.35257,-0.1834 -1.04103,-0.7601 -2.11587,-1.77507 -0.32992,-0.31155 -0.66257,-0.62455 -0.73817,-0.69465 -0.47111,-0.43686 -1.81608,-2.06761 -1.88528,-2.28555 -0.034,-0.10698 -0.17529,-0.26981 -0.3147,-0.36111 -0.1394,-0.0913 -0.25379,-0.22789 -0.25379,-0.30309 0,-0.0752 -0.12243,-0.3635 -0.27119,-0.641 -0.33414,-0.62324 -0.38507,-1.54996 -0.0943,-1.71271 0.0987,-0.0553 0.2547,-0.18855 0.3466,-0.29584 0.0919,-0.10727 0.25238,-0.19578 0.35675,-0.19578 z m -0.73091,19.42425 c -0.21916,-0.007 -0.48957,0.0919 -0.58154,0.24073 -0.0443,0.0716 0.11116,0.11022 0.45247,0.11022 0.15036,0 0.26157,-0.0115 0.34661,-0.029 5.6e-4,-2.9e-4 0.004,-10e-4 0.004,-10e-4 0.21424,-0.0459 0.21772,-0.1435 -0.029,-0.27554 -0.0531,-0.0284 -0.11982,-0.0425 -0.19288,-0.0449 z"
       transform="matrix(0.35633509,0,0,0.35633509,72.327659,-51.012614)" /></g></svg>
