<?xml version="1.0" encoding="UTF-8" standalone="no"?>
<!-- Created with Inkscape (http://www.inkscape.org/) -->

<svg
   width="37.80798mm"
   height="42.420765mm"
   viewBox="0 0 37.80798 42.420765"
   version="1.1"
   id="svg1"
   xml:space="preserve"
   xmlns="http://www.w3.org/2000/svg"
   xmlns:svg="http://www.w3.org/2000/svg"><defs
     id="defs1" /><g
     id="layer1"
     transform="translate(-56.716775,-49.070334)"><path
       id="path160"
       style="fill:#0000ff;fill-opacity:1;stroke:none"
       d="m 157.43833,229.74407 c -0.0221,-7.7e-4 -0.0439,0.004 -0.0661,0.004 -0.0158,-2.1e-4 -0.0268,-0.003 -0.0429,-0.003 -0.0268,0 -0.0554,0.0109 -0.0825,0.0123 -0.33931,0.01 -0.67964,0.0624 -0.93169,0.18811 -0.64612,0.32233 -1.41517,1.18253 -1.75094,1.95813 -0.1714,0.39591 -0.34864,0.72145 -0.39394,0.72245 -0.0453,0.001 -0.15623,-0.18971 -0.24673,-0.42393 -0.30862,-0.79862 -0.95668,-1.77837 -1.27043,-1.92132 -0.83067,-0.37848 -1.62973,0.10841 -1.81704,1.10685 -0.0817,0.43536 0.0983,1.78179 0.34964,2.61584 0.34581,1.14754 0.80438,2.49221 1.22204,3.58229 0.5947,1.55258 0.59549,1.84599 0.003,2.50134 -1.36621,1.51222 -3.91014,2.32487 -6.87219,2.19531 -1.4157,-0.0619 -3.17811,-0.25291 -3.71111,-0.39735 -0.11998,-0.0533 -0.2255,-0.13287 -0.32988,-0.23173 -0.0964,-0.11349 -0.19796,-0.25966 -0.28216,-0.41167 -0.87726,-1.58353 -2.06254,-3.0024 -2.72012,-3.30694 -0.0682,-0.0404 -0.12724,-0.0661 -0.16971,-0.0661 -0.01,0 -0.0248,0.006 -0.0354,0.007 -0.007,-4.3e-4 -0.0165,-0.007 -0.0232,-0.007 -0.37955,0 -0.92095,0.38675 -2.49043,1.78024 -0.57655,0.5119 -1.16651,0.98903 -1.31065,1.05983 -0.17064,0.0834 -0.90202,0.0843 -2.09648,0.003 -2.89112,-0.19745 -6.1244,0.10894 -8.25508,0.78175 -2.51257,0.7934 -4.7908,2.37509 -6.57367,4.56442 -0.64024,0.7862 -1.61597,2.30152 -1.91996,2.98116 -0.51282,1.14654 -0.60487,1.37325 -0.7947,1.95335 -0.34734,1.06139 -0.61392,2.36961 -0.69452,3.4085 -0.0429,0.55283 -0.11611,1.06633 -0.16221,1.14093 -0.0461,0.0746 -0.93657,0.35034 -1.97926,0.61273 -0.79768,0.20073 -1.30208,0.34827 -1.65415,0.48459 -0.0686,0.0161 -0.3795,0.0981 -0.38576,0.0981 -0.009,0 -0.0975,0.1221 -0.14926,0.18607 -0.0198,0.0161 -0.0499,0.0312 -0.0675,0.0477 -0.69186,0.65165 -0.32344,1.44086 0.83764,1.79387 0.31398,0.0955 0.55889,0.22349 0.54389,0.28489 -0.015,0.0614 -0.14237,0.40722 -0.28285,0.76881 -0.22606,0.58184 -0.23502,0.70656 -0.077,1.08232 0.3599,0.85594 1.51596,0.83391 2.91232,-0.0552 0.37976,-0.24181 0.76965,-0.43961 0.86695,-0.43961 0.10029,0 0.24997,0.26959 0.34487,0.62227 0.0921,0.34232 0.21736,0.67849 0.27876,0.74699 0.0614,0.0685 0.11177,0.20264 0.11177,0.29784 0,0.31678 1.0191,2.36358 1.7264,3.46779 2.79449,4.36264 6.01113,6.75088 10.32839,7.6669 0.82379,0.17482 1.69412,0.23582 3.3417,0.23582 2.38825,0 3.53346,-0.16869 5.42524,-0.80084 0.53366,-0.17837 1.01073,-0.27744 1.05983,-0.22014 0.0491,0.0573 0.22325,0.42831 0.38713,0.82469 0.16387,0.39637 0.4459,1.04512 0.62635,1.4415 0.55241,1.21342 0.89805,1.98296 1.41424,3.14473 0.27218,0.61258 0.78849,1.73304 1.14707,2.48975 0.52702,1.11215 0.74673,1.60434 0.79198,2.0331 0.004,0.11504 0.009,0.22853 0.002,0.35577 -0.0183,0.17952 -0.0595,0.37232 -0.11859,0.62023 -0.11217,0.47084 -0.25161,0.9743 -0.31011,1.11844 -0.37146,0.91561 -0.37965,0.95212 -0.23037,1.1014 h 6.8e-4 c 0.0457,0.0457 0.0897,0.0777 0.13291,0.10224 0.0152,0.008 0.0294,0.0135 0.0457,0.0184 0.0884,0.0348 0.17339,0.0252 0.25763,-0.0402 0.0424,-0.0263 0.0751,-0.064 0.10497,-0.10905 0.009,-0.0115 0.0177,-0.0234 0.0266,-0.0361 0.004,-0.009 0.0127,-0.0127 0.0163,-0.0218 4.7e-4,-10e-4 0.004,-0.011 0.004,-0.0123 0.17039,-0.26005 0.34794,-0.73366 0.56229,-1.47695 0.33558,-1.16368 0.35426,-1.1671 1.62008,-0.34896 0.67646,0.4372 1.10953,0.6297 1.35835,0.60387 0.003,-1.2e-4 0.006,-0.001 0.009,-0.001 0.009,-10e-4 0.0184,-0.003 0.0273,-0.005 0.0494,0.006 0.0773,-0.008 0.0913,-0.0368 0.0137,-0.009 0.03,-0.015 0.0416,-0.0266 0.19697,-0.19697 0.0131,-0.49985 -0.44574,-0.73473 -0.23106,-0.11826 -0.71517,-0.39416 -1.07551,-0.6134 -0.36034,-0.21924 -0.79041,-0.45655 -0.95623,-0.52685 -0.20673,-0.0877 -0.4875,-0.52955 -0.89217,-1.40606 -0.72624,-1.573 -0.6994,-1.51368 -1.40879,-3.1127 -0.31972,-0.72068 -0.91842,-2.01752 -1.33109,-2.88233 -0.77605,-1.62636 -1.11163,-2.46022 -1.11163,-2.76441 0,-0.0969 0.3293,-0.33189 0.73132,-0.52208 1.05579,-0.49947 2.33816,-1.2963 3.44053,-2.13806 1.58912,-1.21342 1.46596,-1.15107 1.68414,-0.85877 0.17214,0.23063 2.13738,4.19613 2.13738,4.31293 0,0.0268 0.3179,0.71695 0.70678,1.53351 0.94576,1.98585 1.65201,3.51357 1.79796,3.88968 0.0891,0.22959 0.0172,0.62755 -0.28149,1.56009 -0.36666,1.14478 -0.41248,1.52532 -0.16153,1.59077 0.0105,0.004 0.0183,0.0129 0.0307,0.0129 0.004,0 0.009,-0.006 0.0123,-0.007 0.0169,0.002 0.0307,0.007 0.0498,0.007 0.23064,0 0.47107,-0.43713 0.79197,-1.44082 0.12672,-0.39638 0.27857,-0.77354 0.33737,-0.83764 0.061,-0.0665 0.37753,0.0115 0.73745,0.18197 1.25606,0.59481 1.43425,0.65066 1.58736,0.49755 0.258,-0.258 -0.0545,-0.55698 -1.11026,-1.06324 -0.56445,-0.27065 -1.12438,-0.62681 -1.24453,-0.79198 -0.12014,-0.16516 -0.50869,-0.94473 -0.86354,-1.73185 -1.08204,-2.40012 -2.01218,-4.34893 -3.08067,-6.45507 l -0.9017,-1.77752 c -0.0295,-0.0729 -0.10186,-0.22598 -0.10428,-0.24672 l 1.4231,-1.48036 c 2.74738,-2.85784 4.90042,-6.09893 6.17223,-9.29174 0.81357,-2.04242 1.15664,-3.3301 1.8518,-6.94443 0.13081,-0.68014 0.17057,-2.13537 0.15267,-5.62903 l -0.0239,-4.53988 c 0.0379,-0.11498 0.0931,-0.22513 0.18811,-0.3551 l 1.10072,-1.06732 c 0.70919,-0.68774 1.64399,-1.6486 2.0774,-2.13602 0.85434,-0.96075 1.75204,-2.62864 1.9888,-3.69543 0.24069,-1.08449 -0.049,-2.13878 -0.73608,-2.67922 -0.13396,-0.10538 -0.34304,-0.17009 -0.57252,-0.21538 -0.0726,-0.0172 -0.15852,-0.0255 -0.24059,-0.0341 -0.0617,-0.006 -0.11586,-0.023 -0.17925,-0.0252 z m -0.03,0.68701 c 0.37719,-5.2e-4 0.68992,0.20607 0.90444,0.62091 0.27629,0.53426 0.24691,1.3038 -0.0838,2.18781 -0.1827,0.48833 -0.5656,1.24408 -0.8499,1.7189 -0.15062,0.20839 -0.31269,0.42108 -0.4955,0.6434 -0.15516,0.16347 -0.39036,0.41641 -0.78516,0.86217 -0.28102,0.31729 -0.54894,0.59962 -0.80561,0.8615 -0.14021,0.14044 -0.25027,0.24257 -0.38099,0.37009 -0.70155,0.67099 -1.23716,1.06392 -1.34609,0.92556 -0.22096,-0.28069 -1.63244,-4.57233 -1.82045,-5.53565 -0.25199,-1.29107 -0.22958,-1.71832 0.10633,-2.05423 l 0.24059,-0.24059 c 0.0329,0.003 0.0659,0.006 0.0995,0.0184 l 0.35169,0.40689 c 0.22359,0.25865 0.53702,0.85055 0.69656,1.31542 0.46294,1.34893 0.67899,1.80483 0.89557,1.88793 0.0855,0.0328 0.16501,0.0233 0.23991,-0.0123 0.0362,-0.0123 0.0704,-0.0447 0.10292,-0.0872 0.14878,-0.14632 0.27297,-0.42673 0.35645,-0.86695 0.19137,-1.00909 0.62413,-1.81805 1.2827,-2.39774 0.47238,-0.41575 0.9137,-0.62379 1.29088,-0.62431 z m -19.11646,8.25168 c 0.002,3.1e-4 0.004,0.002 0.005,0.002 0.11297,0.0531 0.24052,0.14492 0.38031,0.26922 0.56282,0.58446 1.58161,2.08546 2.12579,3.17335 0.9627,1.92456 1.26604,2.80799 1.69164,4.91679 0.0601,0.50829 0.10764,1.03067 0.12609,1.53897 0.0138,0.37959 0.0152,0.69798 0.0143,1.01076 -0.10913,1.80205 -0.58896,3.74753 -1.32905,5.04697 -0.97297,1.70833 -2.69531,3.19795 -4.46968,3.86582 -1.81168,0.68191 -4.31993,0.47925 -5.74421,-0.46415 -1.53709,-1.01812 -2.41679,-3.69296 -2.06173,-6.26764 0.49979,-3.62403 2.33176,-6.71203 6.34399,-10.69576 1.95734,-1.94344 2.55262,-2.45433 2.91708,-2.39637 z m 14.63655,2.00788 c 0.0354,-0.006 0.0615,-0.001 0.0791,0.0129 v 0.74086 c -1.1e-4,0.44754 0.0691,1.59919 0.15403,2.55926 0.0337,0.38107 0.0528,0.78 0.0641,1.1866 0.002,0.14116 0.003,0.28547 0.004,0.42121 0.0287,3.06917 -0.53372,6.70216 -1.54919,9.74975 -0.46163,1.38543 -2.40322,5.41277 -2.74806,5.6999 -0.0433,0.036 -0.2431,0.33136 -0.44437,0.65567 -1.11167,1.7912 -3.90756,4.84348 -5.89756,6.4394 -3.0246,2.42561 -5.59167,3.64798 -9.30333,4.42947 -0.87046,0.18325 -3.05199,0.2526 -4.19297,0.13291 -3.82093,-0.40082 -6.88282,-1.96539 -9.39874,-4.80161 -1.94013,-2.18712 -3.4007,-4.75505 -4.27135,-7.51082 -0.59433,-1.88113 -0.76687,-5.53998 -0.3551,-7.53467 0.6994,-3.3881 2.20846,-5.84002 5.22622,-8.49431 0.87446,-0.76914 2.53313,-1.69344 3.81948,-2.12784 1.63377,-0.55173 2.96594,-0.73252 5.91936,-0.80492 2.75842,-0.0676 3.58125,-0.0234 3.58025,0.19356 -3e-4,0.0527 -0.38665,0.53841 -0.85877,1.07891 -1.86093,2.13051 -3.38597,4.76023 -4.0662,7.01328 -0.31334,1.03787 -0.35591,1.39896 -0.36191,3.07589 -0.008,2.03955 0.14173,2.815 0.7913,4.10641 0.88058,1.7507 2.75457,2.70717 5.30255,2.70717 0.0402,0 0.078,-0.006 0.11791,-0.006 0.0142,3e-5 0.0332,0.002 0.047,0.002 0.23155,-10e-4 0.46016,-0.0181 0.6877,-0.0409 2.26181,-0.21369 4.17609,-1.28474 5.70399,-3.20744 1.09994,-1.38416 1.67057,-2.543 2.04469,-4.26658 0.014,-0.05 0.0292,-0.095 0.0429,-0.14585 0.0225,-0.0832 0.041,-0.21228 0.0593,-0.34078 0.0563,-0.30411 0.10831,-0.62374 0.15676,-0.96714 0.17204,-1.21957 0.17758,-1.64806 0.0395,-2.81689 -0.19403,-1.64287 -0.53842,-3.12179 -0.98486,-4.22705 -0.17951,-0.44435 -0.30439,-0.83041 -0.27739,-0.85741 0.027,-0.027 0.92406,0.0515 1.99357,0.1738 1.62989,0.18638 2.15685,0.19749 3.25514,0.0702 2.18109,-0.25277 3.5708,-0.7476 4.87658,-1.73594 z m -14.7899,2.09171 c -0.26128,0 -0.48233,0.44517 -0.43279,0.78516 -0.009,0.0747 0.003,0.12019 0.0314,0.14927 0.1062,0.235 0.25627,0.21845 0.51935,-0.0722 0.16641,-0.18388 0.20768,-0.42175 0.16153,-0.60386 -0.005,-0.0867 -0.0336,-0.16049 -0.0981,-0.20038 -0.008,-0.005 -0.0163,-0.001 -0.0245,-0.005 -0.0441,-0.0306 -0.0942,-0.0525 -0.15676,-0.0525 z m -3.63681,1.26976 c -0.15258,-0.0291 -0.29922,0.10766 -0.44711,0.41779 -0.18768,0.39368 -0.19361,0.49333 -0.0402,0.67816 0.16409,0.19772 0.20593,0.184 0.48186,-0.15744 0.17745,-0.21969 0.25941,-0.4441 0.25354,-0.62091 0.0472,-0.15543 0.0311,-0.19788 -0.0627,-0.20787 -0.0421,-0.0551 -0.10325,-0.0941 -0.18538,-0.10973 z m 6.03182,1.97448 c -0.0238,0.004 -0.0503,0.0189 -0.0777,0.0436 -0.2374,0.0565 -0.43716,0.54467 -0.38985,0.89626 -0.002,0.036 7.1e-4,0.0708 0.0102,0.0961 0.003,0.0109 -5.6e-4,0.0258 0.003,0.0361 0.1,0.26047 0.27975,0.22716 0.42802,0.0463 0.0242,-0.0246 0.042,-0.0629 0.062,-0.0982 0.0851,-0.14433 0.15624,-0.32586 0.16699,-0.55956 0.0122,-0.26698 -0.015,-0.37571 -0.122,-0.41235 -0.0233,-0.0324 -0.0494,-0.0534 -0.0811,-0.0484 z m -4.225,1.66915 c -0.2993,0 -0.59705,0.53746 -0.59705,1.07755 0,0.65141 0.31991,0.66252 0.58819,0.0204 0.25249,-0.60474 0.25647,-1.09799 0.009,-1.09799 z m -4.32997,0.72109 c -0.18424,0 -0.31842,0.16607 -0.47573,0.58955 -0.12049,0.3243 -0.19208,0.6336 -0.15948,0.6877 0.16553,0.27455 0.59341,0.0698 0.77834,-0.37282 0.2438,-0.58351 0.19289,-0.90443 -0.14313,-0.90443 z m 8.54475,2.1885 c -0.0243,0.002 -0.0497,0.0105 -0.0757,0.0266 -0.008,0.005 -0.0171,0.0289 -0.0252,0.0368 -0.24089,0.11773 -0.45413,0.72516 -0.33329,1.04007 0.005,0.0135 0.0164,0.0153 0.0225,0.0273 0.003,0.0101 -0.002,0.0351 0.002,0.0423 0.0626,0.10126 0.14452,0.12663 0.22969,0.0941 0.13312,-0.015 0.27695,-0.12622 0.35645,-0.33533 0.15191,-0.39954 0.12707,-0.7224 -0.0395,-0.84105 -0.0389,-0.052 -0.0826,-0.095 -0.13699,-0.0906 z m -21.70299,0.71564 c -0.30797,-0.0234 -0.62407,0.0578 -0.89625,0.26035 -0.16442,0.12236 -0.27112,0.30956 -0.33874,0.52004 -0.002,0.005 -0.004,0.0103 -0.006,0.0157 -0.0125,0.0407 -0.0229,0.0809 -0.032,0.12336 -0.0293,0.11594 -0.0497,0.23957 -0.0497,0.37827 0,0.2191 0.0236,0.38236 0.0845,0.53162 0.11842,0.4348 0.37041,0.80354 0.73745,0.87444 0.88686,0.17132 1.50808,-0.12758 1.76729,-0.8499 0.13807,-0.38464 0.13258,-0.53926 -0.0334,-0.93647 -0.22908,-0.54827 -0.71967,-0.87839 -1.23295,-0.91738 z m 13.88547,1.49603 c -0.15499,-0.0223 -0.36565,0.16826 -0.51799,0.58955 -0.13046,0.35977 -0.13221,0.50226 -0.009,0.65089 0.30988,0.37338 0.59099,0.15522 0.70883,-0.55002 0.0723,-0.43281 -0.027,-0.6681 -0.18198,-0.69042 z m 4.59305,0.41302 c -0.23418,0.0228 -0.53912,0.53142 -0.53912,0.96646 0,0.0557 0.004,0.0955 0.007,0.13904 -6.5e-4,0.01 -0.007,0.0279 -0.007,0.0368 0,0.19799 0.0799,0.27427 0.18607,0.25831 0.0184,0.003 0.0326,0.0102 0.0545,0.0102 0.42221,0 0.75264,-1.16692 0.39326,-1.38903 -0.0295,-0.0182 -0.0613,-0.0251 -0.0947,-0.0218 z m -23.48187,3.24492 c 0.18523,0 0.24997,0.24802 0.39463,1.51375 0.19609,1.71578 0.28336,1.5112 -0.97259,2.27165 -0.81326,0.4924 -1.69262,0.66448 -1.8116,0.35441 -0.0982,-0.25594 0.12198,-0.79721 0.5289,-1.29974 0.5509,-0.68035 0.33868,-0.97217 -0.87922,-1.20909 -0.60616,-0.11791 -0.92015,-0.30155 -0.90852,-0.48459 10e-4,-0.0107 0.006,-0.0205 0.008,-0.0307 0.0277,-0.10453 0.15727,-0.20759 0.40893,-0.29716 0.63108,-0.2246 2.97551,-0.81856 3.23129,-0.81856 z m 20.38553,0.062 c -0.0146,-0.004 -0.0372,0.005 -0.0559,0.007 -0.003,-2.7e-4 -0.005,-0.004 -0.008,-0.004 -0.007,0 -0.0148,0.007 -0.0218,0.008 -0.01,0.003 -0.0153,-6.7e-4 -0.0259,0.003 -0.004,0.002 -0.009,0.009 -0.0136,0.0109 -0.26276,0.11141 -0.65459,0.87542 -0.55479,1.13549 0.0368,0.096 0.10336,0.14813 0.17789,0.17857 0.0148,0.0119 0.0322,0.0153 0.0497,0.0191 0.12135,0.0239 0.26112,-0.0226 0.37418,-0.15881 0.15174,-0.18286 0.20051,-0.60042 0.16358,-0.89216 0.002,-0.1887 -0.021,-0.28936 -0.0859,-0.30807 z"
       transform="matrix(0.75820556,0,0,0.75820556,-26.219715,-125.12284)" /></g></svg>
