<?xml version="1.0" encoding="UTF-8" standalone="no"?>
<!-- Created with Inkscape (http://www.inkscape.org/) -->

<svg
   width="46.891563mm"
   height="27.795906mm"
   viewBox="0 0 46.891563 27.795906"
   version="1.1"
   id="svg1"
   xml:space="preserve"
   xmlns="http://www.w3.org/2000/svg"
   xmlns:svg="http://www.w3.org/2000/svg"><defs
     id="defs1" /><g
     id="layer1"
     transform="translate(-102.40941,-55.860972)"><path
       style="fill:#0000ff;fill-opacity:1;stroke:none;stroke-width:0.787352"
       d="m 112.68754,83.583714 c -8.18837,-0.08814 -9.9167,-0.140306 -5.79792,-0.17502 3.22741,-0.02716 6.01576,-0.106151 6.19633,-0.175438 0.40569,-0.155683 0.22658,-0.498976 -0.26034,-0.498976 -0.19698,0 -1.01245,-0.313571 -1.81216,-0.696823 -1.55533,-0.74537 -3.5229,-2.625708 -3.76756,-3.600521 -0.0901,-0.358899 -0.48531,-0.693216 -1.31417,-1.111615 -1.49541,-0.754889 -2.54847,-1.913092 -3.11422,-3.425209 -0.57726,-1.542856 -0.55914,-2.035912 0.16358,-4.452838 1.36511,-4.565146 2.05357,-5.919139 3.71645,-7.309138 0.81269,-0.67932 0.87775,-0.805005 0.76548,-1.478671 -0.21066,-1.263944 -0.50465,-2.026101 -0.93003,-2.411061 -0.51225,-0.463577 -0.73578,-0.282313 -0.3714,0.30117 0.19853,0.317886 0.21293,0.533392 0.0526,0.787557 -0.63169,1.001433 -1.73139,0.871237 -2.27249,-0.269054 -0.44945,-0.947137 -0.29378,-1.844372 0.45572,-2.626685 0.45025,-0.469955 0.73807,-0.58042 1.51235,-0.58042 0.52596,0 1.15693,0.14055 1.40218,0.312327 0.66558,0.466191 1.34893,1.686673 1.74074,3.10904 l 0.34869,1.265842 0.80981,-0.104159 c 1.21939,-0.156848 4.65137,-0.125087 5.63844,0.0522 l 0.87055,0.156337 0.34643,-1.191665 c 0.75515,-2.597608 1.62732,-3.599892 3.13259,-3.599892 0.65717,0 1.06281,0.14259 1.5343,0.539321 0.56546,0.475805 0.64095,0.6678 0.64095,1.630252 0,0.870984 -0.0972,1.182248 -0.48215,1.543879 -0.58868,0.553028 -1.21327,0.579908 -1.67293,0.07196 -0.40583,-0.448429 -0.44138,-0.89733 -0.0982,-1.240458 0.13558,-0.135582 0.17447,-0.318381 0.0864,-0.406226 -0.24483,-0.244284 -1.11998,0.890062 -1.36369,1.767597 -0.35422,1.275511 -0.27151,1.52155 0.89874,2.673273 l 1.11793,1.100214 1.11704,-0.839325 c 1.36119,-1.022778 2.14877,-1.426556 4.04248,-2.072523 1.2568,-0.428713 1.84674,-0.496985 4.27057,-0.494252 2.60029,0.0031 2.94581,0.05086 4.58304,0.635715 5.25801,1.87826 9.20437,5.943862 10.00316,10.305422 0.49251,2.68917 -0.19022,5.373048 -1.76822,6.951051 -0.42739,0.42739 -0.73609,0.818058 -0.686,0.86815 0.0501,0.05008 0.64491,0.193452 1.32181,0.318586 0.67691,0.125134 1.39525,0.315563 1.59632,0.42317 0.42579,0.227876 0.48574,1.071854 0.099,1.392857 -0.40845,0.338979 -3.48809,1.488119 -4.37312,1.631787 -0.88527,0.1437 -1.17442,0.406274 -0.62337,0.566067 0.20217,0.05866 2.21715,0.08211 4.47773,0.0522 2.26058,-0.02992 4.22921,0.02118 4.37473,0.113536 0.14551,0.09236 -2.74342,0.169359 -6.41986,0.171115 -3.67644,0.0016 -9.34796,0.03512 -12.60337,0.07401 -3.25542,0.03897 -11.16861,0.01433 -17.58488,-0.05472 z m 21.28115,-0.432917 c 4.8279,-0.293659 7.9229,-0.94128 10.64393,-2.227222 2.43351,-1.150062 -2.21932,-1.911305 -7.35859,-1.203932 -3.08977,0.42528 -7.83161,0.471332 -10.50487,0.102033 -2.58306,-0.356844 -3.89949,-0.939366 -4.7646,-2.108348 l -0.7095,-0.958711 -0.85648,0.468112 c -1.52122,0.831436 -3.51059,1.185925 -6.79359,1.21057 -1.66135,0.01244 -3.65342,-0.05338 -4.42681,-0.146283 -1.74365,-0.20949 -1.80767,-0.0024 -0.4621,1.494143 2.09084,2.325514 4.62598,3.043335 11.86272,3.358898 5.3667,0.234025 9.64263,0.237458 13.36989,0.01071 z m -4.48243,-3.915155 c -1.47104,-1.062555 -2.58508,-2.293407 -3.19248,-3.527211 -0.57175,-1.161384 -0.66191,-1.5685 -0.6738,-3.042517 -0.017,-2.110568 0.28701,-3.002394 1.4215,-4.169698 1.78857,-1.840302 5.18527,-2.3987 7.43667,-1.222553 2.7311,1.426745 3.03769,5.340781 0.55898,7.136346 -1.98544,1.43824 -5.20369,0.723513 -4.90882,-1.090176 0.0702,-0.431587 0.11236,-0.403195 0.41255,0.277628 0.78244,1.774589 3.70889,1.506504 5.07508,-0.464915 1.38915,-2.004543 0.45461,-4.8262 -1.89573,-5.723805 -1.36192,-0.520125 -3.70381,-0.335302 -4.94141,0.389983 -1.90299,1.115221 -2.74859,2.609513 -2.73439,4.832027 0.0168,2.622094 1.47462,4.95668 3.84134,6.1514 1.71242,0.864425 2.94406,0.94616 7.53058,0.499795 l 3.98006,-0.387354 1.08895,-0.995244 c 1.2656,-1.156683 1.63931,-1.85482 1.96698,-3.674556 0.91644,-5.089514 -3.10342,-10.533266 -9.59065,-12.987812 -1.65571,-0.626465 -1.9235,-0.665887 -4.57106,-0.672942 -2.55432,-0.0071 -2.95364,0.04449 -4.35268,0.559004 -1.76854,0.650432 -3.06327,1.36893 -4.08789,2.268566 l -0.71616,0.628795 0.38376,0.763731 c 0.21107,0.420053 0.49747,1.115269 0.63644,1.544927 0.2839,0.877763 0.28182,0.876449 0.83867,0.528691 0.62788,-0.392117 0.71537,-0.0585 0.13648,0.520384 l -0.52038,0.520377 0.52447,1.50811 c 0.56433,1.622748 0.67872,3.432492 0.28278,4.473899 -0.12673,0.33331 -0.54387,1.04232 -0.92698,1.575586 -0.68418,0.952318 -0.69066,0.981765 -0.36486,1.654471 0.73971,1.527344 3.0536,2.348529 6.91643,2.454601 0.93494,0.02567 0.93613,0.0248 0.44557,-0.329538 z m 8.51219,-1.052115 c 0,-0.250205 0.71515,-0.865576 1.00592,-0.865576 0.35755,0 0.29795,0.303257 -0.13696,0.696838 -0.40723,0.368536 -0.86896,0.458192 -0.86896,0.168738 z m 2.44776,-3.694618 c -0.21886,-0.219758 -0.19603,-2.746417 0.0261,-2.883677 0.10027,-0.06196 0.23409,0.237167 0.29739,0.664746 0.13314,0.899345 -0.0929,2.450365 -0.32345,2.218931 z m -2.18908,-7.081585 c -0.55946,-0.712869 -0.7762,-1.130339 -0.58683,-1.130339 0.33106,0 1.78639,1.672194 1.78639,2.05258 0,0.448507 -0.31213,0.20853 -1.19956,-0.922241 z M 126.1242,64.846383 c 0,-0.274149 0.87113,-0.739544 1.92697,-1.029463 1.18536,-0.325492 1.0028,0.196507 -0.21112,0.603631 -0.5427,0.182012 -1.15078,0.402967 -1.35129,0.491009 -0.22113,0.0971 -0.36456,0.07149 -0.36456,-0.06519 z m 7.23913,-0.618867 c -0.65881,-0.180193 -1.19784,-0.402116 -1.19784,-0.493158 0,-0.448791 2.49845,0.142771 2.66086,0.630015 0.0962,0.288596 0.0906,0.288069 -1.46302,-0.136857 z m -14.06552,13.009755 c 2.46406,-1.028769 3.89619,-2.88966 3.90533,-5.074546 0.005,-1.124685 -1.31252,-5.600506 -2.12144,-7.208452 -1.01376,-2.015133 -3.20732,-3.579042 -5.76463,-4.109938 -1.84702,-0.38344 -4.67585,-0.150699 -6.31009,0.519164 -1.62203,0.664856 -3.46937,2.431493 -4.11321,3.933517 -0.7145,1.666855 -2.10144,6.209884 -2.10127,6.882873 2.3e-4,0.935674 1.06765,3.072917 1.8733,3.750819 0.89244,0.750953 2.03516,1.324271 3.38676,1.699208 0.83237,0.230907 2.13835,0.290155 5.46827,0.248079 4.26306,-0.05385 4.41052,-0.07023 5.77698,-0.640724 z m -7.39764,-5.666351 c -0.31849,-0.172722 -0.52783,-0.396944 -0.46519,-0.498276 0.0626,-0.10134 0.37007,-0.05063 0.68321,0.112764 0.7599,0.396416 1.01888,0.377615 1.84677,-0.134046 0.58795,-0.363371 0.70163,-0.381118 0.70163,-0.109513 0,0.386858 -1.03476,0.963168 -1.7083,0.951444 -0.26349,-0.0047 -0.73964,-0.14966 -1.05812,-0.322373 z m -3.52548,-2.116812 c -0.19512,-0.04354 -0.41379,-0.265062 -0.48593,-0.492347 -0.27512,-0.866827 0.92652,-1.414336 1.35342,-0.61667 0.37767,0.70568 -0.0759,1.285518 -0.86749,1.109017 z m 8.64789,-0.393117 c -0.319,-0.831302 0.96178,-1.507984 1.37893,-0.728537 0.12192,0.227805 0.1651,0.561595 0.096,0.741765 -0.17038,0.443995 -1.30335,0.433838 -1.4749,-0.01323 z m -8.33172,-8.98082 c -0.0483,-1.0879 -0.65973,-2.481033 -1.41744,-3.229679 -1.16421,-1.150282 -3.10617,-0.415383 -3.10617,1.175478 0,1.019636 0.6698,1.731513 1.30786,1.39003 0.40979,-0.219309 0.41889,-0.271873 0.12482,-0.720679 -0.40102,-0.612032 -0.19869,-1.167785 0.42514,-1.167785 0.70652,0 1.4911,1.066894 1.769,2.40555 0.18761,0.903714 0.31746,1.143959 0.58808,1.088049 0.26523,-0.0548 0.33819,-0.277171 0.30871,-0.940964 z m 9.51717,0.714136 c 0,-0.640172 0.64742,-2.379039 1.04444,-2.805186 0.23652,-0.253873 0.65442,-0.461585 0.92868,-0.461585 0.64807,0 0.90226,0.719861 0.43608,1.234978 -0.30034,0.331884 -0.30247,0.400093 -0.0198,0.634676 0.25783,0.213971 0.41371,0.199271 0.83854,-0.07909 0.41375,-0.271101 0.52184,-0.515495 0.52184,-1.179879 0,-1.460246 -1.43696,-2.332617 -2.71532,-1.648455 -0.80411,0.430343 -2.18522,3.535573 -1.92088,4.318815 0.11729,0.347529 0.88644,0.335152 0.88644,-0.01425 z"
       id="path161" /></g></svg>
