<?xml version="1.0" encoding="UTF-8" standalone="no"?>
<!-- Created with Inkscape (http://www.inkscape.org/) -->

<svg
   width="26.451994mm"
   height="39.922188mm"
   viewBox="0 0 26.451994 39.922188"
   version="1.1"
   id="svg1"
   xml:space="preserve"
   xmlns="http://www.w3.org/2000/svg"
   xmlns:svg="http://www.w3.org/2000/svg"><defs
     id="defs1" /><g
     id="layer1"
     transform="translate(-75.075441,-8.1255243)"><path
       style="fill:#0000ff;fill-opacity:1;stroke-width:0.778937"
       d="M 81.648697,47.86684 C 81.188166,47.748963 81.007546,47.639484 80.62378,47.24556 80.092755,46.700483 79.886127,46.172076 79.766669,45.053617 l -0.07462,-0.698808 -0.652219,0.04658 c -1.149609,0.08212 -2.392192,0.01207 -2.882291,-0.162401 -0.252874,-0.09004 -0.598785,-0.294445 -0.768694,-0.454229 -0.610663,-0.57431 -0.32639,-1.171458 0.830658,-1.744888 0.906386,-0.449205 1.766371,-1.163256 2.182284,-1.811993 0.370618,-0.57808 0.452983,-0.824084 0.630401,-1.882814 0.138939,-0.829077 0.553045,-2.051026 0.859822,-2.537145 0.120626,-0.191151 0.219325,-0.373796 0.219325,-0.405873 0,-0.03209 0.135613,-0.232076 0.301355,-0.44443 1.048324,-1.343135 2.090479,-2.112203 3.917942,-2.891272 0.193908,-0.08267 0.426616,-0.150303 0.517112,-0.150303 0.09051,0 0.206086,-0.04152 0.256842,-0.09228 0.05071,-0.05079 0.300225,-0.116973 0.554384,-0.147157 0.254159,-0.03014 0.546759,-0.09538 0.650233,-0.144882 0.420813,-0.201332 4.447037,0.02142 4.828707,0.267129 0.0593,0.03817 0.27546,0.116007 0.48044,0.173017 0.20499,0.05702 0.44249,0.133774 0.52779,0.170587 0.14015,0.06052 0.16034,-0.08853 0.20956,-1.547233 0.03,-0.887793 0.0792,-4.063961 0.1095,-7.058154 l 0.055,-5.443988 -0.218,-0.169076 c -0.11989,-0.09299 -0.40428,-0.260897 -0.63197,-0.373119 -0.91064,-0.448869 -1.82585,-1.623576 -2.165,-2.778903 -0.16138,-0.549726 -0.15741,-1.973599 0.007,-2.562288 0.50021,-1.789623 1.84374,-3.2905168 3.50357,-3.9139698 0.36093,-0.1355739 0.70725,-0.1738509 1.53738,-0.1699328 0.97991,0.00467 1.11875,0.027652 1.62425,0.2698314 0.73246,0.3508642 1.5165,1.140332 1.9167,1.9299792 0.33103,0.653185 0.5364,0.85218 0.99158,0.960803 1.40072,0.334249 2.54274,1.964517 2.43463,3.47549 -0.0551,0.76941 -0.2387,1.130105 -0.90651,1.7804 -0.68321,0.665305 -2.17345,1.397615 -2.84411,1.397615 -0.10873,0 -0.24801,0.05032 -0.30951,0.111808 -0.0853,0.08529 -0.11181,2.085447 -0.11181,8.434123 v 8.322306 l 0.2184,0.347554 c 0.61391,0.976989 0.99287,2.390042 0.99287,3.702215 0,1.087271 -0.67129,3.246499 -1.16182,3.737027 -0.0867,0.08675 -0.14329,0.313397 -0.14434,0.578547 -0.002,0.63065 -0.25282,1.952716 -0.41308,2.181513 -0.2263,0.323095 -0.89536,0.998332 -1.25325,1.264837 -0.18436,0.137288 -0.35616,0.27396 -0.38179,0.303715 -0.0847,0.09841 -1.15922,0.802375 -1.46286,0.958404 -0.67969,0.349267 -1.81858,0.124567 -2.37058,-0.46772 -0.41956,-0.450187 -0.91843,-1.313848 -0.91843,-1.590028 0,-0.144797 -0.0693,-0.362151 -0.15392,-0.483003 -0.14981,-0.21388 -0.17528,-0.217557 -0.95503,-0.138082 -0.44062,0.04494 -1.29523,0.08205 -1.899134,0.08254 -1.143105,7.79e-4 -1.272915,0.04518 -1.276514,0.434865 -0.0031,0.327987 -0.513124,1.136725 -0.838112,1.328795 -0.381313,0.225362 -1.181174,0.519995 -1.411661,0.519995 -0.0875,0 -0.277785,0.05873 -0.422862,0.130441 -0.374302,0.185091 -0.898269,0.337607 -1.108964,0.322791 -0.09886,-0.007 -0.431305,-0.07704 -0.738775,-0.155717 z m 1.080891,-0.778298 c 0.659378,-0.225027 0.94242,-0.594703 1.237021,-1.615639 0.08872,-0.307478 0.242351,-0.73724 0.341393,-0.955039 0.17463,-0.383984 0.406067,-0.517284 0.485324,-0.279521 0.02991,0.08966 0.669763,0.116451 2.7797,0.116389 1.507474,-3.9e-5 2.855654,-0.03217 2.995934,-0.07135 0.2346,-0.06559 0.26933,-0.03941 0.43321,0.326187 0.098,0.218609 0.20055,0.481329 0.22793,0.583821 0.32349,1.211021 0.98698,2.001992 1.68007,2.002895 0.40087,5.22e-4 1.11631,-0.428041 1.29039,-0.77297 0.3193,-0.632675 0.44594,-1.222439 0.44594,-2.076808 0,-0.846244 0.005,-0.864207 0.28667,-1.101494 0.15767,-0.132669 0.34718,-0.241221 0.42114,-0.241221 0.19669,0 0.78551,-0.398302 1.12136,-0.758529 0.40423,-0.433571 0.74276,-1.002647 0.82508,-1.386943 0.0381,-0.178003 0.11689,-0.382489 0.17503,-0.454408 0.0684,-0.08459 0.10571,-0.627395 0.10571,-1.537372 0,-1.435245 -0.0327,-1.615608 -0.47722,-2.631956 -0.0707,-0.161482 -0.12841,-0.325237 -0.12841,-0.363904 0,-0.03863 -0.10482,-0.207727 -0.23294,-0.375697 l -0.23294,-0.305389 v -8.385245 c 0,-6.816443 -0.023,-8.408277 -0.12285,-8.508363 -0.0938,-0.09402 -0.46477,-0.116576 -1.56897,-0.09542 l -1.44611,0.02773 -0.0633,6.354729 c -0.0348,3.495104 -0.0896,6.862984 -0.12174,7.48417 l -0.0584,1.129443 -0.38242,0.164612 c -0.21034,0.09054 -0.44532,0.217986 -0.5222,0.283214 -0.12924,0.109682 -0.52153,0.167417 -0.9822,0.144555 -0.19421,-0.0097 -0.60648,-0.360523 -1.12457,-0.957095 -0.15943,-0.183588 -0.43197,-0.377208 -0.60563,-0.430261 -0.50416,-0.154035 -1.49757,-0.213406 -1.86429,-0.111427 -0.303117,0.08429 -0.342422,0.132162 -0.388099,0.47269 -0.02796,0.208389 -0.127746,0.465282 -0.221771,0.570875 -0.202009,0.226849 -0.684023,0.445598 -0.983236,0.446206 -0.11695,2.41e-4 -0.464207,0.104065 -0.771677,0.230728 -0.793863,0.327021 -1.001349,0.306878 -1.419778,-0.137832 -0.192794,-0.2049 -0.398332,-0.372613 -0.456753,-0.372698 -0.156644,-2.26e-4 -1.131171,0.745177 -1.646586,1.259455 -0.605864,0.604509 -0.854143,0.976864 -1.472244,2.207989 -0.111941,0.222955 -0.262183,0.834856 -0.406855,1.656985 -0.168678,0.958551 -0.29471,1.338571 -0.629201,1.897154 -0.550537,0.919371 -1.430026,1.701595 -2.528748,2.249102 -0.308521,0.153738 -0.575213,0.326094 -0.592661,0.383018 -0.01745,0.05694 0.07602,0.174108 0.207765,0.260414 0.352578,0.231025 2.15415,0.247881 2.803058,0.02625 0.567526,-0.193847 1.100638,-0.226944 1.278461,-0.07936 0.08957,0.07431 0.148629,0.437482 0.190567,1.171808 0.08096,1.417338 0.294944,1.919666 1.030408,2.418762 0.398668,0.270548 0.617346,0.298006 1.089662,0.13682 z m 3.359151,-9.522757 c -0.171514,-0.06208 -0.454525,-0.248652 -0.628921,-0.414589 -0.264847,-0.251993 -0.31709,-0.36779 -0.31709,-0.702842 0,-0.376024 0.04276,-0.442607 0.68294,-1.06335 0.375619,-0.364215 0.795715,-0.690511 0.933548,-0.725112 0.31998,-0.08031 0.711746,0.08253 1.051324,0.436968 0.24399,0.254681 0.26717,0.337591 0.26717,0.955553 0,0.490044 -0.0494,0.76839 -0.17905,1.009174 -0.304852,0.566069 -1.058816,0.776102 -1.809921,0.504198 z m -0.01425,-0.373983 c 0,-0.01932 -0.07338,-0.09272 -0.163055,-0.163055 -0.147779,-0.115898 -0.151074,-0.112595 -0.03521,0.03521 0.121725,0.155204 0.198232,0.204557 0.198232,0.127871 z m 1.220734,-0.570454 c 0.233151,-0.399174 0.213421,-0.615492 -0.0892,-0.977986 l -0.266085,-0.318725 -0.246432,0.390364 c -0.139071,0.220306 -0.344944,0.415095 -0.472565,0.447125 -0.31279,0.07851 -0.356776,0.263849 -0.130799,0.551129 0.164496,0.209121 0.251698,0.239608 0.616707,0.215594 0.359784,-0.02368 0.45021,-0.07096 0.588378,-0.307501 z m -1.593424,-0.512455 c 0.05484,-0.102492 0.07877,-0.186352 0.05312,-0.186352 -0.02563,0 -0.09146,0.08386 -0.146316,0.186352 -0.05484,0.102493 -0.07877,0.186345 -0.05312,0.186345 0.02563,0 0.09147,-0.08385 0.146323,-0.186345 z m -3.028165,0.299891 c -0.136096,-0.18499 -0.186353,-0.399851 -0.186353,-0.796696 0,-0.496346 0.02641,-0.567019 0.305289,-0.81617 0.243324,-0.217409 0.364075,-0.262416 0.594952,-0.22174 0.361045,0.06364 0.61395,0.237358 0.836274,0.574552 0.171911,0.260725 0.233073,0.9199 0.102251,1.102078 -0.174311,0.24274 -0.60338,0.416941 -1.020212,0.414199 -0.375549,-0.0023 -0.475237,-0.04284 -0.632201,-0.256223 z m 0.885153,-0.10775 c 0,-0.04806 -0.08386,-0.08107 -0.186353,-0.07338 -0.102485,0.0078 -0.186345,0.04705 -0.186345,0.08739 0,0.04035 0.08386,0.07338 0.186345,0.07338 0.102492,0 0.186353,-0.03934 0.186353,-0.08738 z m 0,-0.553427 c 0,-0.09622 -0.0578,-0.222885 -0.128385,-0.281492 -0.100039,-0.08303 -0.137825,-0.0701 -0.171179,0.0585 -0.02352,0.09076 -0.02516,0.217433 -0.0039,0.281484 0.06146,0.182762 0.303178,0.136151 0.303178,-0.0585 z m 7.224023,0.55049 c -0.8652,-0.570306 -0.771,-1.374262 0.23548,-2.009617 0.39865,-0.251651 0.64533,-0.284008 0.95559,-0.125339 0.40303,0.206107 0.52537,0.465968 0.52756,1.120625 0.002,0.556005 -0.0255,0.64855 -0.26825,0.90845 -0.23076,0.247024 -0.33644,0.289282 -0.7221,0.28876 -0.2912,-3.97e-4 -0.55006,-0.06543 -0.72828,-0.182879 z m 0.87327,-0.647623 c 0.1441,-0.09122 0.16393,-0.635059 0.0281,-0.770859 -0.11733,-0.117339 -0.67148,0.360375 -0.67148,0.578859 0,0.103863 0.0827,0.187521 0.20965,0.211964 0.1153,0.0222 0.2306,0.04549 0.25623,0.05164 0.0256,0.0062 0.10549,-0.02602 0.17748,-0.07158 z m 0.54928,-0.333564 c 0,-0.179358 -0.0322,-0.32611 -0.0717,-0.32611 -0.0394,0 -0.0667,0.146689 -0.0606,0.325985 0.0145,0.425019 0.13223,0.425136 0.13223,1.25e-4 z M 88.07769,34.6383 c -0.5246,-0.450217 -0.678354,-1.243338 -0.32904,-1.697334 0.15571,-0.202375 0.2471,-0.231344 0.69656,-0.220828 0.40536,0.0095 0.58796,0.06598 0.84362,0.260967 0.29275,0.223298 0.32628,0.294664 0.32628,0.694469 0,0.388884 -0.0435,0.489086 -0.34164,0.78724 -0.2686,0.268592 -0.41303,0.340979 -0.67551,0.338541 -0.18364,-0.0016 -0.41775,-0.07509 -0.52027,-0.163055 z m 0.69885,-0.775556 c 0,-0.0458 -7.8e-4,-0.114651 -0.002,-0.153084 -7.8e-4,-0.03848 -0.1058,-0.0977 -0.23293,-0.131711 -0.18022,-0.04822 -0.23117,-0.02664 -0.23117,0.09783 0,0.08781 0.047,0.206698 0.10453,0.264184 0.11252,0.112525 0.36135,0.05936 0.36135,-0.07719 z m 0.4845,-0.288191 c -0.087,-0.08696 -0.1118,-0.06208 -0.1118,0.111809 0,0.173929 0.0248,0.198769 0.1118,0.111808 0.087,-0.08696 0.087,-0.136656 0,-0.223617 z m -3.984338,12.118641 c 0.101761,-0.254338 0.123594,-0.419302 0.06348,-0.479443 -0.227076,-0.227076 -0.543358,0.199875 -0.709949,0.958364 l -0.06738,0.30666 0.279358,-0.198917 c 0.153648,-0.10941 0.349168,-0.373407 0.434501,-0.586664 z M 96.0532,44.847689 c 0.10543,-0.205584 0.17728,-0.536983 0.17728,-0.817665 v -0.471981 l -0.26302,0.13601 c -0.43134,0.223056 -0.50325,0.381726 -0.53809,1.187318 l -0.0329,0.759432 0.2397,-0.223711 c 0.13182,-0.123041 0.31946,-0.379272 0.41697,-0.569403 z m -1.06351,0.281633 c -0.0298,-0.07431 -0.0518,-0.05227 -0.0563,0.05632 -0.004,0.09822 0.018,0.153256 0.0489,0.122293 0.0309,-0.03092 0.0343,-0.111326 0.007,-0.178587 z M 80.17304,44.93715 c -0.02586,-0.06403 -0.04697,-0.01161 -0.04697,0.116467 0,0.128119 0.02119,0.180526 0.04697,0.116466 0.02586,-0.06403 0.02586,-0.168873 0,-0.232933 z m 14.81757,-0.324333 c -0.0236,-0.09066 -0.0445,-0.03903 -0.0464,0.11469 -0.002,0.153739 0.0174,0.227909 0.0429,0.164831 0.0255,-0.06309 0.0271,-0.188869 0.003,-0.279521 z m -5.41978,0.157547 c 0.0393,-0.06356 -0.0309,-0.07509 -0.20415,-0.03349 -0.35698,0.08576 -0.39077,0.130394 -0.0987,0.130394 0.13363,0 0.26992,-0.04362 0.30286,-0.09691 z M 77.663572,44.065583 c -0.03092,-0.03092 -0.111326,-0.03427 -0.178587,-0.007 -0.07431,0.02976 -0.05227,0.0518 0.05632,0.05632 0.09822,0.0039 0.153256,-0.01799 0.122293,-0.04892 z m 0.702522,-0.0047 c -0.06309,-0.02555 -0.188868,-0.02711 -0.279529,-0.0031 -0.09065,0.0236 -0.03902,0.04448 0.114699,0.04642 0.153738,0.0016 0.227909,-0.01745 0.16483,-0.04292 z M 96.76,43.452308 c -0.0298,-0.07431 -0.0518,-0.05227 -0.0563,0.05632 -0.004,0.09822 0.018,0.153255 0.0489,0.122293 0.0309,-0.031 0.0343,-0.111326 0.007,-0.178587 z M 96.95256,22.53589 c -0.0139,-2.297115 -0.0252,-0.444936 -0.0252,4.11594 -10e-6,4.560876 0.0114,6.440333 0.0252,4.176564 0.0139,-2.263769 0.0139,-5.995389 10e-6,-8.292504 z M 85.219282,33.063789 c 0.07174,-0.07143 0.33562,-0.122675 0.631928,-0.122675 0.442054,0 0.5192,-0.0275 0.588035,-0.209643 0.04354,-0.115298 0.05865,-0.244399 0.03357,-0.286882 -0.110422,-0.186641 -1.472073,0.161653 -1.988908,0.508739 -0.223898,0.150366 -0.224404,0.154066 -0.04806,0.350186 0.170524,0.189672 0.188603,0.191424 0.419286,0.04058 0.132592,-0.0867 0.296481,-0.212837 0.364201,-0.280308 z m 6.571028,0.36649 c 0.0238,-0.0384 -0.0786,-0.06987 -0.22744,-0.06987 -0.14885,0 -0.27062,0.03147 -0.27062,0.06987 0,0.03848 0.10234,0.06987 0.22743,0.06987 0.12509,0 0.24688,-0.03147 0.27063,-0.06987 z m -5.368358,-0.172761 c -0.03092,-0.03092 -0.111325,-0.03427 -0.178587,-0.007 -0.07431,0.02975 -0.05227,0.0518 0.05632,0.05632 0.09822,0.0039 0.153248,-0.01799 0.122293,-0.04892 z m 5.336158,-0.362992 c 0,-0.08388 -0.086,-0.139757 -0.21512,-0.139757 -0.11832,0 -0.29651,-0.06154 -0.39599,-0.136797 -0.0995,-0.07524 -0.2426,-0.138136 -0.31807,-0.139764 -0.0825,-0.0016 -0.0453,0.06052 0.0932,0.156278 0.1267,0.08758 0.28578,0.213366 0.3535,0.279521 0.1684,0.164512 0.4825,0.151831 0.4825,-0.01947 z m -3.37756,-1.042552 c -0.0897,-0.02345 -0.23643,-0.02345 -0.32611,0 -0.0897,0.02345 -0.0163,0.04261 0.16305,0.04261 0.17936,0 0.25274,-0.01916 0.16306,-0.04261 z m 4.47212,-6.108569 c -0.0159,-0.679006 -0.029,-0.123453 -0.029,1.23456 0,1.358014 0.013,1.913567 0.029,1.23456 0.0159,-0.679007 0.0159,-1.790113 0,-2.46912 z m -0.006,-1.671309 c -0.0298,-0.07431 -0.0518,-0.05227 -0.0563,0.05632 -0.004,0.09822 0.018,0.153248 0.0489,0.122285 0.031,-0.03092 0.0343,-0.111318 0.007,-0.178579 z m 0.005,-2.239544 c -0.0197,-0.219146 -0.0361,-0.06302 -0.0364,0.346938 -3.4e-4,0.40997 0.0157,0.589273 0.0357,0.398457 0.02,-0.190816 0.0203,-0.526249 6.2e-4,-0.745395 z m -0.002,-1.027379 c -0.0222,-0.115306 -0.0403,-0.02095 -0.0403,0.209643 0,0.230605 0.0181,0.324942 0.0403,0.209643 0.0222,-0.115306 0.0222,-0.30398 0,-0.419286 z m 1.26197,-3.019991 c -0.064,-0.02586 -0.16887,-0.02586 -0.23293,0 -0.064,0.02586 -0.0116,0.04697 0.11646,0.04697 0.12812,0 0.18053,-0.02119 0.11647,-0.04697 z m 1.49257,5.92e-4 c -0.0631,-0.02555 -0.18887,-0.02711 -0.27953,-0.0031 -0.0907,0.0236 -0.039,0.04448 0.1147,0.04642 0.15373,0.0016 0.2279,-0.01745 0.16483,-0.04292 z m 0.55726,-0.09376 c -0.064,-0.02586 -0.16887,-0.02586 -0.23293,0 -0.064,0.02586 -0.0116,0.04697 0.11647,0.04697 0.12811,0 0.18052,-0.02111 0.11646,-0.04697 z m 0.95504,-0.48738 c 0.30748,-0.06146 0.62331,-0.146363 0.70187,-0.188737 0.0786,-0.04237 0.27598,-0.106301 0.43874,-0.142047 0.41636,-0.09145 1.22098,-0.491758 1.61577,-0.80387 0.18361,-0.145163 0.44566,-0.479467 0.58233,-0.742895 0.33049,-0.636999 0.3239,-1.188284 -0.0217,-1.812796 C 100.16936,13.036894 99.20404,12.164158 98.938,12.162203 98.8586,12.161627 98.56301,12.046321 98.28116,11.90598 97.80613,11.669448 97.73963,11.593984 97.37075,10.872985 96.89284,9.9389074 96.61376,9.6436593 95.84014,9.2537159 95.33418,8.9986765 95.15638,8.9580549 94.55419,8.9599088 c -1.3219,0.00389 -2.49594,0.6565267 -3.41691,1.8989152 -0.46371,0.625548 -0.52189,0.736687 -0.76769,1.466325 -0.42853,1.272058 -0.11758,2.767647 0.7606,3.65826 0.71434,0.724466 0.97713,0.89894 1.84004,1.221676 0.34325,0.128377 0.70653,0.152688 2.00324,0.134032 0.87118,-0.01254 1.83553,-0.07306 2.14301,-0.134483 z m 0.003,-1.340628 c -0.45791,-0.259347 -0.70002,-0.645645 -0.55244,-0.881414 0.1363,-0.217744 0.54399,-0.257617 0.80007,-0.07825 0.18583,0.130169 0.22767,0.130223 0.42556,5.61e-4 0.12071,-0.07908 0.35342,-0.13083 0.51714,-0.114986 0.26195,0.02539 0.30123,0.0659 0.32733,0.33791 0.0245,0.254518 -0.0302,0.365578 -0.30945,0.628929 -0.40156,0.378727 -0.68455,0.403848 -1.20821,0.107252 z m -3.53084,-4.173379 c -0.13503,-0.106208 -0.2455,-0.266614 -0.2455,-0.356449 0,-0.258257 0.41356,-0.579249 0.8158,-0.633198 0.32483,-0.04354 0.37479,-0.02446 0.42356,0.162081 0.0812,0.310578 -0.16533,0.820267 -0.44894,0.928095 -0.30621,0.11642 -0.25775,0.125363 -0.54492,-0.100529 z m 2.47984,-0.334468 c -0.0645,-0.02602 -0.11646,-0.205016 -0.11646,-0.401206 0,-0.277146 0.0519,-0.388191 0.2383,-0.510368 0.13107,-0.08588 0.3512,-0.143114 0.48917,-0.127184 0.20652,0.02384 0.25594,0.08157 0.27967,0.326639 0.0548,0.56589 -0.38389,0.916614 -0.89068,0.712119 z m -6.18233,2.13484 c -0.008,-0.457594 -0.0199,-0.492 -0.0808,-0.235855 -0.0653,0.274965 -0.0302,0.771607 0.0546,0.771607 0.0196,0 0.0314,-0.241088 0.0262,-0.535752 z m 4.36349,-5.0178243 c -0.0309,-0.030924 -0.11132,-0.034273 -0.17859,-0.00701 -0.0743,0.029755 -0.0523,0.051799 0.0563,0.056317 0.0982,0.00389 0.15326,-0.017993 0.12229,-0.048917 z"
       id="path80" /></g></svg>
