<?xml version="1.0" encoding="UTF-8" standalone="no"?>
<!-- Created with Inkscape (http://www.inkscape.org/) -->

<svg
   width="36.802452mm"
   height="33.170364mm"
   viewBox="0 0 36.802452 33.170364"
   version="1.1"
   id="svg1"
   xml:space="preserve"
   xmlns="http://www.w3.org/2000/svg"
   xmlns:svg="http://www.w3.org/2000/svg"><defs
     id="defs1" /><g
     id="layer1"
     transform="translate(-155.19312,-58.30197)"><path
       style="fill:#0000ff;fill-opacity:1;stroke:none;stroke-width:0.602943"
       d="m 166.83824,91.377398 c -0.8689,-0.27606 -1.42893,-0.789806 -1.84229,-1.690036 -0.30782,-0.67038 -0.40632,-1.03038 -0.45944,-1.67919 l -0.0322,-0.39309 -4.6556,-0.0125 -4.65558,-0.0125 v -0.19629 -0.19629 h 4.68024 4.68024 l 0.17189,-0.22971 c 0.21807,-0.29144 0.45783,-0.41392 0.87398,-0.4465 0.34362,-0.0269 0.40144,-0.0619 0.4027,-0.24359 6e-4,-0.10218 0.0999,-0.31078 0.27434,-0.57705 0.0414,-0.0631 0.16209,-0.17227 0.26826,-0.24254 0.1617,-0.107 0.2489,-0.12776 0.53658,-0.12776 0.38936,0 0.57716,0.0811 0.92275,0.39872 0.11424,0.10499 0.21651,0.1909 0.22728,0.1909 0.0107,0 0.14454,-0.0553 0.29731,-0.12284 0.48352,-0.21384 0.89419,-0.1515 1.22466,0.18588 0.13395,0.13675 0.37695,0.50764 0.37695,0.57534 0,0.0279 0.0221,0.0948 0.0491,0.14846 0.027,0.0536 0.0713,0.14152 0.0983,0.1952 0.027,0.0536 0.0491,0.12871 0.0491,0.16672 0,0.038 0.035,0.0825 0.0777,0.0989 0.13425,0.0515 6.35742,0.0342 6.45488,-0.018 0.0491,-0.0263 0.10459,-0.10842 0.12317,-0.18247 0.0592,-0.23577 0.33766,-0.77138 0.48648,-0.93565 0.36093,-0.3984 0.86784,-0.45971 1.43673,-0.17376 0.15064,0.0757 0.15433,0.0745 0.34975,-0.11489 0.31903,-0.30922 0.55866,-0.41253 0.95683,-0.41253 0.27662,0 0.37438,0.0215 0.49901,0.10948 0.27768,0.19615 0.43853,0.43838 0.57169,0.86094 0.0643,0.20404 0.0708,0.20883 0.28187,0.20883 0.49091,0 0.71307,0.11754 1.10715,0.58574 0.086,0.10212 0.0877,0.10215 4.70473,0.10215 h 4.61873 v 0.19654 0.19655 h -2.50591 c -2.83365,0 -2.62646,-0.0363 -2.34073,0.41033 0.17482,0.27329 0.77709,1.03768 0.91555,1.162 0.21538,0.19339 0.39138,0.59476 0.39259,0.89532 8.7e-4,0.22303 -0.18924,0.66322 -0.34885,0.807586 -0.4757,0.43029 -1.17336,0.45332 -1.61583,0.0534 -0.21543,-0.194746 -0.66262,-0.700256 -1.05474,-1.192306 -0.10718,-0.1345 -0.2081,-0.25559 -0.22426,-0.2691 -0.0162,-0.0135 -0.182,-0.24569 -0.36854,-0.51594 -0.18654,-0.27023 -0.35649,-0.49872 -0.37765,-0.50773 -0.0212,-0.009 -0.0399,-0.0421 -0.0415,-0.0737 -0.002,-0.0316 -0.10735,-0.2121 -0.23482,-0.40127 l -0.23176,-0.34396 h -0.58819 -0.58821 l -0.0543,0.46679 c -0.0809,0.69477 -0.18574,1.07397 -0.4479,1.6197 -0.5627,1.171386 -1.45639,1.770646 -2.64062,1.770646 -0.88381,0 -1.50452,-0.25464 -2.11018,-0.865656 -0.23979,-0.24191 -0.31211,-0.34228 -0.46443,-0.64461 -0.24882,-0.49385 -0.31017,-0.83595 -0.29309,-1.6344 l 0.0152,-0.71247 h -3.14426 -3.14427 l 0.0174,0.71424 c 0.0163,0.66709 -0.0114,0.91585 -0.13942,1.25119 -0.0656,0.17188 -0.26861,0.58868 -0.29917,0.61419 -0.0162,0.0135 -0.0502,0.0626 -0.0755,0.1091 -0.0942,0.17275 -0.49501,0.552886 -0.77239,0.732456 -0.46807,0.30304 -0.96121,0.4368 -1.59081,0.43147 -0.35803,-0.003 -0.61829,-0.0323 -0.8007,-0.0903 z m 1.40036,-0.47898 c 0.21561,-0.0452 0.54974,-0.289586 0.69385,-0.507356 0.14863,-0.22458 0.20441,-0.65996 0.12306,-0.96056 -0.0683,-0.25228 -0.32591,-0.55488 -0.59396,-0.69758 -0.28133,-0.14977 -0.75692,-0.15334 -1.0199,-0.008 -0.43157,0.23911 -0.65254,0.59699 -0.65254,1.05683 0,0.30246 0.12085,0.583 0.35022,0.81296 0.18731,0.187796 0.68141,0.393826 0.8536,0.355926 0.054,-0.0118 0.1646,-0.0356 0.24567,-0.0526 z m 11.318,0.004 c 0.23984,-0.0533 0.42383,-0.15936 0.60382,-0.348316 0.258,-0.27087 0.30472,-0.39093 0.30472,-0.78304 0,-0.29097 -0.0222,-0.38837 -0.13099,-0.57396 -0.22943,-0.39149 -0.5521,-0.57466 -1.01227,-0.57466 -0.17904,0 -0.35274,0.0353 -0.483,0.0983 -0.24325,0.11752 -0.55208,0.42246 -0.55208,0.54512 0,0.0483 -0.0221,0.10149 -0.0491,0.1182 -0.027,0.0167 -0.0491,0.18317 -0.0491,0.36991 0,0.25278 0.0263,0.38703 0.10291,0.52531 0.19425,0.35061 0.50772,0.602366 0.75222,0.604156 0.0567,4.2e-4 0.13617,0.0223 0.17671,0.0486 0.0405,0.0264 0.1034,0.0369 0.13969,0.0236 0.0363,-0.0133 0.12473,-0.0373 0.19654,-0.0532 z m -12.86576,-0.0856 c 0,-0.009 -0.0687,-0.154136 -0.15259,-0.322086 -0.13309,-0.26633 -0.15271,-0.35685 -0.15344,-0.70803 -8.6e-4,-0.61532 0.2081,-1.0169 0.69911,-1.34084 0.30293,-0.19986 0.51919,-0.26564 0.87333,-0.26564 0.28804,0 0.35949,0.0178 0.74548,0.18575 0.20173,0.0878 0.54091,0.42252 0.63487,0.62657 0.0369,0.0802 0.0889,0.18769 0.11538,0.23887 0.0266,0.0512 0.0536,0.2669 0.06,0.47937 0.006,0.21249 0.0244,0.39881 0.0395,0.41405 0.049,0.049 0.31482,-0.38739 0.42335,-0.69492 0.0873,-0.24743 0.1052,-0.40931 0.1052,-0.95245 0,-0.35989 -0.0239,-0.74536 -0.053,-0.85659 -0.1307,-0.49851 -0.1674,-0.61145 -0.28123,-0.86557 -0.0666,-0.14864 -0.19999,-0.35317 -0.29646,-0.45452 -0.15448,-0.16227 -0.20314,-0.18425 -0.40808,-0.18425 -0.21486,0 -0.6305,0.17265 -0.87083,0.36171 -0.0704,0.0554 -0.0824,0.0446 -0.35061,-0.31247 -0.18283,-0.24348 -0.52227,-0.44232 -0.75507,-0.44232 -0.16659,0 -0.22571,0.0317 -0.4016,0.21525 -0.2068,0.21583 -0.25158,0.33181 -0.30108,0.77974 l -0.0258,0.2334 h -0.4545 c -0.49373,0 -0.71998,0.072 -0.82287,0.26169 -0.15849,0.29229 -0.13062,1.05915 0.0602,1.65693 0.15495,0.48537 0.48557,1.11264 0.72941,1.38384 0.29003,0.32258 0.8412,0.691146 0.8412,0.562516 z m -1.13012,-2.102236 c -0.54379,-0.32896 -0.42654,-1.11489 0.19704,-1.32069 0.61635,-0.20341 1.11953,0.50646 0.79234,1.11783 -0.15302,0.2859 -0.67514,0.39296 -0.98938,0.20286 z m 0.65188,-0.32553 c 0.17343,-0.19244 0.14729,-0.47958 -0.058,-0.6372 -0.17917,-0.13757 -0.4619,-0.0299 -0.59315,0.22569 -0.06,0.11697 -0.0189,0.26332 0.12211,0.43421 0.0768,0.0931 0.43866,0.0776 0.52904,-0.0227 z m 2.35722,-0.4051 c -0.51715,-0.31531 -0.45958,-1.06458 0.10104,-1.31474 0.19465,-0.0869 0.34735,-0.0765 0.59645,0.0407 0.33851,0.15913 0.50632,0.5865 0.35937,0.9153 -0.19163,0.42879 -0.67367,0.59245 -1.05686,0.35881 z m 0.66061,-0.35279 c 0.23347,-0.21933 0.0481,-0.67942 -0.27378,-0.67926 -0.19709,8e-5 -0.39867,0.2001 -0.39867,0.39556 0,0.34801 0.41682,0.52386 0.67245,0.2837 z m -2.13828,0.0731 c -0.14695,-0.0299 -0.29213,-0.15192 -0.38061,-0.32004 -0.20167,-0.38316 0.0477,-0.86326 0.47073,-0.90651 0.52775,-0.0539 0.89191,0.44324 0.66209,0.90391 -0.12482,0.25023 -0.441,0.38584 -0.75221,0.32264 z m 0.39327,-0.39151 c 0.14254,-0.12901 0.11479,-0.33646 -0.0619,-0.46223 l -0.15169,-0.10801 -0.13084,0.0972 c -0.17745,0.13188 -0.20183,0.36882 -0.049,0.47589 0.14366,0.10062 0.28004,0.0996 0.39332,-0.003 z m 13.593,3.26549 c 0.30985,-0.23126 0.67628,-0.71655 0.83724,-1.10882 0.1684,-0.41037 0.19122,-0.46798 0.2284,-0.57672 0.24038,-0.70302 0.24081,-1.52694 8.6e-4,-1.7734 -0.12559,-0.12905 -0.29286,-0.16745 -0.72928,-0.16745 h -0.46444 l -0.0333,-0.2334 c -0.0619,-0.43397 -0.12546,-0.59028 -0.32214,-0.79295 -0.2377,-0.24493 -0.44486,-0.26721 -0.76109,-0.0819 -0.16842,0.0987 -0.47152,0.40705 -0.62164,0.6324 -0.019,0.0285 -0.0984,0.007 -0.19654,-0.0527 -0.42759,-0.26097 -0.54372,-0.30676 -0.77801,-0.30676 -0.21121,0 -0.26269,0.0215 -0.40675,0.16983 -0.2454,0.25268 -0.49111,0.84232 -0.60491,1.45164 -0.065,0.34794 -0.0767,1.15264 -0.02,1.37387 0.11552,0.45066 0.3804,0.98464 0.48842,0.98464 0.0223,0 0.0495,-0.17136 0.0605,-0.3808 0.0375,-0.71771 0.38779,-1.20527 1.03655,-1.44239 0.59764,-0.21845 1.26414,-0.0511 1.71346,0.43021 0.4569,0.48943 0.5411,1.37118 0.18066,1.89192 -0.21072,0.304416 -0.0282,0.296406 0.39198,-0.0172 z m -0.12028,-1.85349 c -0.24559,-0.14976 -0.31283,-0.28463 -0.31283,-0.62745 0,-0.26955 0.0176,-0.32673 0.14484,-0.47171 0.19875,-0.22636 0.48872,-0.31947 0.73021,-0.23447 0.62286,0.21924 0.73898,0.95729 0.20726,1.31732 -0.20775,0.14066 -0.55353,0.14799 -0.76948,0.0164 z m 0.65442,-0.35655 c 0.24094,-0.22634 0.0547,-0.67932 -0.27936,-0.67932 -0.19237,0 -0.39309,0.20417 -0.39309,0.39985 0,0.34387 0.41869,0.51788 0.67245,0.27947 z m -3.61708,-0.3723 c -0.22841,-0.11648 -0.35332,-0.30121 -0.38326,-0.56684 -0.0611,-0.54206 0.54521,-0.99398 1.00868,-0.75184 0.073,0.0381 0.19579,0.1357 0.27292,0.21684 0.12105,0.12735 0.1406,0.18755 0.14298,0.44026 0.003,0.22736 -0.0218,0.32723 -0.10725,0.44722 -0.2112,0.29661 -0.59847,0.38548 -0.93407,0.21436 z m 0.63615,-0.39299 c 0.0806,-0.10244 0.0996,-0.17641 0.0785,-0.30592 -0.0687,-0.42342 -0.59905,-0.4566 -0.76827,-0.0481 -0.0541,0.13042 -0.0469,0.16211 0.0712,0.31699 0.11023,0.14452 0.16176,0.17208 0.32172,0.17208 0.14927,0 0.21348,-0.0292 0.29676,-0.1351 z m 1.19107,0.10033 c -0.16413,-0.0314 -0.39775,-0.29013 -0.43335,-0.47986 -0.061,-0.3253 0.14767,-0.66803 0.45353,-0.7448 0.19385,-0.0486 0.45753,0.0293 0.61806,0.1827 0.12791,0.12224 0.15325,0.18429 0.15623,0.38263 0.004,0.26073 -0.0808,0.4613 -0.23796,0.56352 -0.1197,0.0779 -0.39907,0.12595 -0.55651,0.0958 z m 0.38039,-0.40745 c 0.236,-0.23601 -0.0114,-0.6227 -0.31116,-0.48616 -0.23068,0.1051 -0.26131,0.397 -0.0574,0.54683 0.0917,0.0674 0.26984,0.038 0.36852,-0.0606 z m 7.45341,3.36891 c 0.23562,-0.1601 0.35841,-0.35765 0.3588,-0.57728 4.8e-4,-0.27009 -0.0569,-0.37915 -0.42531,-0.80801 -0.18478,-0.2151 -0.39124,-0.47288 -0.4588,-0.57283 -0.0676,-0.1 -0.13943,-0.18188 -0.15969,-0.18207 -0.0203,-1.8e-4 -0.0369,-0.0301 -0.0369,-0.0664 0,-0.0363 -0.0443,-0.1061 -0.0983,-0.15502 -0.054,-0.0489 -0.0983,-0.11683 -0.0983,-0.15092 0,-0.0341 -0.0174,-0.0694 -0.0387,-0.0784 -0.0213,-0.009 -0.0999,-0.12189 -0.17468,-0.25084 l -0.13599,-0.23447 -0.91859,0.0134 c -0.86928,0.0126 -0.91774,0.0183 -0.90262,0.10606 0.0282,0.16371 0.75559,1.20975 1.28415,1.84675 0.42204,0.50863 0.46946,0.56361 0.71054,0.82396 0.13299,0.14361 0.29882,0.29132 0.36852,0.32825 0.21104,0.111826 0.5261,0.0935 0.72574,-0.0421 z m -22.68541,-14.67015 c -0.0405,-0.0262 -0.12484,-0.048 -0.18734,-0.0484 -0.0626,-4.2e-4 -0.26152,-0.0712 -0.44223,-0.15728 -0.36909,-0.17583 -1.0556,-0.82045 -1.19384,-1.121 -0.22803,-0.49579 -0.24846,-0.57342 -0.28439,-1.08098 l -0.0296,-0.41764 -3.82029,-0.0126 -3.82028,-0.0126 v -0.19624 -0.19624 h 3.8358 c 2.55015,0 3.86765,-0.017 3.93084,-0.0509 0.0523,-0.0279 0.095,-0.083 0.095,-0.12227 0,-0.25425 0.66419,-0.76414 1.15469,-0.88644 0.19109,-0.0477 0.83584,-0.0452 1.05555,0.004 0.16064,0.036 0.23041,0.0694 0.62417,0.29914 0.20099,0.11728 0.25125,0.0652 0.11786,-0.12212 -0.13425,-0.18854 -0.54463,-1.05901 -0.54463,-1.15523 0,-0.0403 -0.0221,-0.0868 -0.0491,-0.10354 -0.027,-0.0167 -0.0491,-0.083 -0.0491,-0.1474 0,-0.0644 -0.0222,-0.13071 -0.0491,-0.14741 -0.027,-0.0167 -0.0491,-0.0733 -0.0491,-0.12573 0,-0.13976 -0.11227,-0.11881 -0.50777,0.0947 -0.29845,0.16112 -0.57489,0.30768 -1.54974,0.82162 -0.0642,0.0338 -0.14247,0.0516 -0.17398,0.0395 -0.0498,-0.0191 -0.19391,-0.31949 -0.16301,-0.33977 0.0959,-0.0629 1.50329,-0.80814 2.06187,-1.09176 0.17584,-0.0893 0.19886,-0.13362 0.1604,-0.30878 l -0.0321,-0.1462 h -1.15078 -1.15077 v -0.19654 -0.19655 h 1.07496 c 0.83628,0 1.08705,-0.0146 1.12938,-0.0656 0.0642,-0.0773 0.0406,-0.55902 -0.031,-0.63051 -0.0271,-0.0271 -0.21206,-0.0936 -0.41113,-0.14778 -0.38809,-0.10572 -0.58101,-0.15933 -0.8533,-0.23712 -0.0946,-0.027 -0.24936,-0.0713 -0.34395,-0.0983 -0.0946,-0.027 -0.25207,-0.0696 -0.34995,-0.0944 -0.0979,-0.0249 -0.19592,-0.0637 -0.21784,-0.086 -0.0643,-0.0656 0.0243,-0.3857 0.1042,-0.37654 0.11589,0.0132 1.17564,0.3017 1.69547,0.46147 0.13638,0.0419 0.41225,0.0645 0.41545,0.0341 6.1e-4,-0.007 0.0128,-0.18918 0.0269,-0.40537 0.0446,-0.68481 0.1553,-1.53288 0.26934,-2.0637 0.029,-0.13511 0.0647,-0.32873 0.0793,-0.43024 0.0146,-0.10151 0.0464,-0.19679 0.0705,-0.21172 0.0242,-0.015 0.0439,-0.074 0.0439,-0.13134 0,-0.0573 0.0217,-0.17206 0.0483,-0.25506 0.27538,-0.86189 0.50193,-1.54457 0.53925,-1.62495 0.0251,-0.054 0.0576,-0.30833 0.0723,-0.56505 0.049,-0.85508 0.22255,-1.86595 0.42313,-2.46397 0.15318,-0.45672 0.38447,-0.86461 0.5831,-1.02834 0.14942,-0.12316 0.2161,-0.14373 0.46618,-0.14373 0.24056,0 0.34619,0.0299 0.60139,0.17016 0.527,0.28969 1.02974,0.77434 1.63285,1.57416 0.14265,0.18917 0.2854,0.37742 0.31724,0.41834 0.0318,0.0409 0.0891,0.13451 0.12715,0.20801 0.0944,0.18202 0.18035,0.19886 0.60082,0.11763 0.39881,-0.077 0.89218,-0.1557 1.34445,-0.21438 0.16215,-0.021 0.88076,-0.0377 1.5969,-0.0372 1.19784,8.7e-4 1.72796,0.0371 2.43221,0.16609 0.13513,0.0247 0.39528,0.0724 0.57814,0.106 0.18285,0.0336 0.3391,0.0522 0.3472,0.0414 0.008,-0.0108 0.14462,-0.20762 0.30333,-0.43733 0.15872,-0.2297 0.31789,-0.4472 0.35372,-0.48332 0.0358,-0.0362 0.12542,-0.14668 0.19911,-0.24568 0.17687,-0.23761 0.72195,-0.78543 0.97511,-0.98 0.63564,-0.48852 1.23083,-0.54138 1.57763,-0.14014 0.19636,0.22718 0.44618,0.81748 0.56425,1.33322 0.18785,0.82058 0.21106,0.96831 0.33976,2.16196 0.0291,0.27025 0.0725,0.53558 0.0963,0.58963 0.054,0.12249 0.33744,0.97605 0.39572,1.19154 0.0238,0.0878 0.0668,0.2426 0.0956,0.34393 0.24827,0.87299 0.44574,2.06271 0.50495,3.04221 0.0117,0.19362 0.0343,0.37315 0.0503,0.39896 0.0362,0.0586 0.243,0.0177 0.92785,-0.18375 0.0878,-0.0258 0.2813,-0.0793 0.42993,-0.11897 0.14864,-0.0396 0.38795,-0.10411 0.53181,-0.14333 0.26063,-0.071 0.26171,-0.0709 0.30709,0.0485 0.0965,0.25375 0.0699,0.28121 -0.39668,0.40971 -0.24374,0.0671 -0.4993,0.14001 -0.6879,0.19617 -0.0676,0.0202 -0.21128,0.061 -0.31938,0.0908 -0.10809,0.0298 -0.32496,0.0896 -0.48192,0.13286 -0.32052,0.0883 -0.37795,0.16956 -0.37795,0.53473 0,0.14858 0.0234,0.22163 0.0777,0.24247 0.0427,0.0164 0.55129,0.0299 1.13011,0.0299 h 1.05239 v 0.19654 0.19654 l -1.11783,6.1e-4 c -0.61481,4e-4 -1.14724,0.0194 -1.18319,0.0422 -0.0362,0.0229 -0.0581,0.10134 -0.0491,0.17568 0.0133,0.11046 0.0772,0.16611 0.36017,0.31405 0.18918,0.0989 0.35501,0.19085 0.36852,0.20436 0.0135,0.0135 0.32815,0.17935 0.69921,0.36852 0.8968,0.4572 0.85141,0.41872 0.74882,0.63492 -0.0459,0.0967 -0.0941,0.17581 -0.10725,0.17581 -0.0131,0 -0.22615,-0.10857 -0.47347,-0.24127 -0.24731,-0.13269 -0.68183,-0.35934 -0.96559,-0.50364 -0.28376,-0.14429 -0.52329,-0.27895 -0.5323,-0.29922 -0.009,-0.0202 -0.0694,-0.0369 -0.13419,-0.0369 -0.0889,0 -0.1248,0.0332 -0.14628,0.13512 -0.0157,0.0743 -0.0493,0.17352 -0.0746,0.22045 -0.0254,0.0469 -0.0462,0.11908 -0.0462,0.16035 0,0.0413 -0.0212,0.11344 -0.047,0.16036 -0.16933,0.30757 -0.39678,0.85382 -0.37213,0.8937 0.019,0.0307 0.0738,0.031 0.1538,4.8e-4 0.20772,-0.079 0.67347,-0.0531 1.00535,0.0558 0.44125,0.14485 0.78465,0.40003 0.99833,0.74186 l 0.17824,0.28515 h 3.95524 3.95524 v 0.19655 0.19653 h -3.87997 c -4.3564,0 -3.97294,-0.0357 -3.95165,0.36851 0.0198,0.37661 -0.19546,1.07853 -0.42197,1.37581 -0.1661,0.21798 -0.67362,0.69773 -0.81191,0.76745 -0.081,0.0409 -0.19163,0.0979 -0.24567,0.12678 -0.50005,0.26684 -1.12991,0.32739 -1.6182,0.15553 -0.51941,-0.18279 -0.80677,-0.45067 -1.08757,-1.01383 -0.17297,-0.3469 -0.17759,-0.37054 -0.16109,-0.82306 0.009,-0.25625 -3e-5,-0.46589 -0.0208,-0.46587 -0.0208,2e-5 -0.1203,0.0506 -0.22111,0.11234 -0.1705,0.10449 -0.745,0.389 -0.96945,0.48011 -0.44119,0.17911 -1.47244,0.44403 -2.06368,0.53015 -0.18917,0.0275 -0.50466,0.0737 -0.7011,0.10252 -0.45646,0.067 -3.56911,0.0687 -4.07532,0.003 -1.11354,-0.14631 -1.71891,-0.27182 -2.39736,-0.49705 -0.77611,-0.25764 -1.7257,-0.77803 -2.20404,-1.20786 -0.24246,-0.21787 -0.31939,-0.1568 -0.17385,0.138 0.0588,0.11926 0.13155,0.26995 0.16149,0.33484 0.0299,0.0649 0.0535,0.31918 0.0522,0.56506 -0.002,0.36047 -0.0234,0.4899 -0.11172,0.66817 -0.28987,0.58524 -0.72315,0.9673 -1.25369,1.10549 -0.32044,0.0835 -0.75781,0.0959 -0.86805,0.0246 z m 0.24568,-0.43514 c 0,-0.0232 -0.0739,-0.13923 -0.1642,-0.25797 -0.29662,-0.39 -0.30129,-0.41476 -0.0967,-0.51186 0.15623,-0.0741 0.18615,-0.0759 0.23238,-0.0132 0.172,0.23309 0.46434,0.55401 0.57915,0.63576 0.13293,0.0947 0.13354,0.0946 0.32535,-0.0265 0.23021,-0.14532 0.49978,-0.45986 0.49978,-0.58315 0,-0.15769 -0.1345,-0.41627 -0.29762,-0.57215 -0.0875,-0.0837 -0.17608,-0.15211 -0.19677,-0.15211 -0.044,0 0.003,-0.18034 0.083,-0.31468 0.0529,-0.0894 0.0655,-0.0867 0.285,0.0614 0.12631,0.0852 0.24832,0.15499 0.27115,0.15499 0.0709,0 -0.0254,-0.3153 -0.19157,-0.62707 -0.16265,-0.30516 -0.57993,-0.77679 -0.88669,-1.00219 -0.61271,-0.45019 -1.6059,-0.35369 -2.09897,0.20393 -0.30152,0.34099 -0.35317,1.24347 -0.10196,1.78169 0.15292,0.32767 0.55928,0.77813 0.86193,0.95551 0.39088,0.22906 0.89677,0.37998 0.89677,0.26753 z m 17.02216,-0.0636 c 0.39512,-0.14002 0.64211,-0.30047 0.92433,-0.60044 0.25065,-0.26641 0.52844,-0.78305 0.52844,-0.98278 0,-0.0675 0.0212,-0.17843 0.047,-0.24649 0.0472,-0.12409 -0.0253,-0.58951 -0.13522,-0.86813 -0.0842,-0.21344 -0.30636,-0.43833 -0.56926,-0.57626 -0.22124,-0.11608 -0.30783,-0.13207 -0.71835,-0.13271 -0.39695,-6e-4 -0.50354,0.0173 -0.71246,0.11983 -0.25848,0.12684 -1.00728,0.83884 -1.00728,0.95776 0,0.0375 -0.0179,0.0755 -0.0398,0.0846 -0.0677,0.0279 -0.30416,0.5452 -0.30416,0.66559 0,0.11159 0.005,0.11034 0.25119,-0.0587 0.13815,-0.095 0.2691,-0.17279 0.291,-0.17279 0.0219,0 0.0654,0.0776 0.0967,0.17248 0.0554,0.16763 0.0509,0.17837 -0.15659,0.3808 -0.12026,0.11733 -0.23876,0.29119 -0.27131,0.39804 -0.0528,0.17316 -0.0468,0.20635 0.0683,0.38026 0.16295,0.24623 0.53726,0.4999 0.64922,0.43998 0.0994,-0.0532 0.55764,-0.53409 0.62628,-0.65722 0.0478,-0.0859 0.0578,-0.0861 0.24942,-0.003 0.17858,0.0773 0.19367,0.0968 0.14351,0.18523 -0.0308,0.0543 -0.0967,0.14414 -0.14628,0.19956 -0.17028,0.19017 -0.27536,0.35758 -0.24408,0.38885 0.0492,0.0492 0.11074,0.0386 0.4293,-0.0743 z m -6.48259,-1.05663 c 0.73294,-0.0798 1.16872,-0.15537 1.76886,-0.30689 0.1081,-0.0273 0.25768,-0.0643 0.3324,-0.0823 0.0747,-0.018 0.14787,-0.0521 0.16258,-0.0759 0.0147,-0.0238 0.0763,-0.0433 0.13686,-0.0433 0.0606,0 0.13111,-0.0182 0.15678,-0.0403 0.0257,-0.0221 0.20145,-0.10333 0.39064,-0.18037 0.18917,-0.0771 0.39922,-0.17579 0.46678,-0.21944 0.0676,-0.0437 0.17897,-0.10743 0.24758,-0.14175 0.38794,-0.19405 1.11561,-0.82484 1.426,-1.23615 0.13257,-0.17566 0.26315,-0.34569 0.29018,-0.37785 0.19828,-0.23585 0.57591,-1.04219 0.69747,-1.4893 0.0257,-0.0946 0.0684,-0.24936 0.0949,-0.34395 0.29305,-1.04597 0.29347,-2.92002 8.7e-4,-4.39762 -0.11653,-0.58866 -0.28066,-1.28461 -0.36867,-1.56324 -0.0357,-0.1131 -0.0941,-0.30513 -0.12971,-0.42674 -0.0356,-0.12161 -0.0831,-0.24212 -0.10536,-0.26778 -0.0223,-0.0257 -0.0406,-0.0939 -0.0406,-0.15151 0,-0.0576 -0.0151,-0.11998 -0.0337,-0.1385 -0.0661,-0.0661 -0.16138,-0.40325 -0.16179,-0.57233 -4e-4,-0.16791 -0.0276,-0.3938 -0.18059,-1.49863 -0.071,-0.51266 -0.21561,-1.16137 -0.30675,-1.37579 -0.23826,-0.56056 -0.43159,-0.81074 -0.62651,-0.81074 -0.15197,0 -0.49419,0.16257 -0.68067,0.32335 -0.0811,0.0699 -0.21559,0.18605 -0.29892,0.25811 -0.36351,0.31429 -1.26958,1.45412 -1.41672,1.78222 -0.0523,0.11674 -0.0896,0.46905 -0.12406,1.17407 -0.0271,0.55401 -0.0701,1.13995 -0.0954,1.30209 -0.0953,0.60876 -0.11835,0.71555 -0.15976,0.74114 -0.0234,0.0144 -0.0425,0.0671 -0.0425,0.11699 0,0.15591 -0.21439,0.50432 -0.36851,0.59885 -0.32612,0.20004 -0.65005,0.0437 -0.85446,-0.41237 -0.21542,-0.48066 -0.25762,-0.81329 -0.28366,-2.23605 -0.0215,-1.17593 -0.0278,-1.24331 -0.12047,-1.29292 -0.0538,-0.0288 -0.13374,-0.0454 -0.17769,-0.0369 -0.0709,0.0136 -0.0806,0.14593 -0.0859,1.17006 -0.003,0.7237 -0.0293,1.26473 -0.0685,1.4495 -0.19009,0.89686 -0.44225,1.3903 -0.80223,1.56989 -0.18212,0.0909 -0.87567,0.10447 -1.0375,0.0204 -0.25826,-0.13423 -0.57595,-0.60853 -0.68269,-1.01924 -0.16817,-0.64715 -0.24395,-1.60971 -0.20089,-2.55174 l 0.0299,-0.65404 -0.24101,0.0153 -0.24102,0.0153 -0.0333,1.17926 c -0.0321,1.13604 -0.0745,1.616 -0.17628,1.99679 -0.0863,0.32311 -0.27879,0.65145 -0.44867,0.76551 -0.24919,0.16734 -0.41284,0.14651 -0.64092,-0.0816 -0.36299,-0.36299 -0.50389,-1.08159 -0.62196,-3.17209 l -0.0333,-0.58962 -0.31042,-0.44223 c -0.41464,-0.59068 -0.51023,-0.70602 -1.0264,-1.23842 -0.45475,-0.46904 -0.87865,-0.75156 -1.12769,-0.75156 -0.16994,0 -0.34081,0.17509 -0.48856,0.50061 -0.30443,0.67071 -0.41968,1.24784 -0.6154,3.08153 -0.0272,0.25412 -0.0725,0.48517 -0.10074,0.51346 -0.0283,0.0283 -0.0514,0.10098 -0.0514,0.16154 0,0.0606 -0.0221,0.12378 -0.0491,0.14048 -0.027,0.0167 -0.0491,0.0799 -0.0491,0.14048 0,0.0606 -0.0182,0.13111 -0.0406,0.15679 -0.0223,0.0257 -0.0697,0.14618 -0.10536,0.2678 -0.0356,0.1216 -0.0917,0.30954 -0.12469,0.41765 -0.0329,0.10809 -0.10528,0.39553 -0.16072,0.63875 -0.0945,0.41488 -0.127,0.57684 -0.25111,1.25295 -0.12067,0.6574 -0.16223,1.29206 -0.13673,2.08826 0.0337,1.0518 0.11608,1.59249 0.35191,2.30937 0.41878,1.27297 1.31448,2.37546 2.45728,3.02457 0.34912,0.19832 0.86056,0.43949 0.93197,0.43949 0.0382,0 0.0831,0.0221 0.0999,0.0491 0.0167,0.027 0.0799,0.0491 0.14048,0.0491 0.0606,0 0.13111,0.0182 0.15679,0.0406 0.0952,0.0828 0.99549,0.30327 1.64358,0.40255 0.96443,0.14774 3.45788,0.1835 4.54503,0.0652 z m -3.27447,-2.87457 c -0.19917,-0.11549 -0.3789,-0.39473 -0.4694,-0.72929 -0.09,-0.33253 -0.0845,-0.35218 0.0927,-0.33477 0.13371,0.0131 0.1631,0.0407 0.1991,0.18737 0.11416,0.46472 0.28073,0.63875 0.61141,0.63875 0.24563,0 0.51658,-0.20402 0.62934,-0.47391 0.0549,-0.13144 0.0968,-0.16484 0.2066,-0.16484 0.11311,0 0.1587,0.0395 0.25518,0.22142 0.14273,0.26904 0.36686,0.41733 0.63078,0.41733 0.29277,0 0.432,-0.15778 0.58492,-0.66284 0.0454,-0.1502 0.18692,-0.21963 0.27268,-0.13386 0.1547,0.15469 -0.17095,0.87199 -0.4759,1.04827 -0.31406,0.18153 -0.82026,0.0794 -1.10183,-0.22222 -0.147,-0.15748 -0.17738,-0.15823 -0.31317,-0.008 -0.28822,0.31969 -0.78045,0.4145 -1.12243,0.21619 z m 0.96534,-1.35242 c -0.16343,-0.0458 -0.49698,-0.29698 -0.68302,-0.51432 -0.29693,-0.34689 -0.28978,-0.70527 0.0182,-0.91395 0.15116,-0.10242 0.21713,-0.11056 0.89617,-0.11056 0.74875,0 0.84802,0.0198 1.0582,0.21125 0.22308,0.20319 0.10885,0.67559 -0.23139,0.95689 -0.40486,0.33471 -0.7523,0.45642 -1.05817,0.37069 z m 0.59855,-0.45176 c 0.16207,-0.10474 0.34264,-0.26808 0.40129,-0.36297 0.20711,-0.33511 0.0352,-0.42929 -0.78352,-0.42929 -0.56417,0 -0.59487,0.005 -0.71304,0.12349 l -0.12348,0.12349 0.0967,0.13448 c 0.15164,0.21094 0.36239,0.39451 0.57427,0.50022 0.10709,0.0534 0.20786,0.098 0.22394,0.0991 0.0161,8.7e-4 0.16182,-0.0837 0.32388,-0.18849 z m -4.75929,-0.72897 c -0.3094,-0.19194 -0.32119,-0.66787 -0.0226,-0.90978 0.0679,-0.055 0.19241,-0.0853 0.35357,-0.086 0.21161,-8.6e-4 0.26934,0.0204 0.38647,0.14263 0.1153,0.12035 0.1377,0.18594 0.1377,0.40304 0,0.22849 -0.0182,0.27561 -0.15385,0.39676 -0.18122,0.16191 -0.48863,0.18529 -0.70134,0.0534 z m 8.38122,-0.083 c -0.14028,-0.14029 -0.16705,-0.20236 -0.16705,-0.38726 0,-0.18278 0.0266,-0.24622 0.15673,-0.37343 0.13462,-0.13162 0.1926,-0.15324 0.41095,-0.15324 0.20964,0 0.2771,0.0229 0.38475,0.13054 0.36754,0.36753 0.12463,0.95044 -0.39606,0.95044 -0.18725,0 -0.24857,-0.0263 -0.38932,-0.16705 z m -10.07188,-7.65776 c 0.0184,-0.27701 0.0489,-0.68053 0.0679,-0.89673 l 0.0344,-0.39308 0.48654,0.46679 c 0.65971,0.6329 0.71728,0.68981 0.71728,0.70892 0,0.009 -0.11609,0.0719 -0.25797,0.13946 -0.14187,0.0676 -0.42504,0.20285 -0.62925,0.30058 -0.20421,0.0977 -0.38953,0.17769 -0.41181,0.17769 -0.0223,0 -0.0254,-0.22664 -0.007,-0.50363 z m 11.98221,0.40732 c -0.11408,-0.0518 -0.39842,-0.18748 -0.63187,-0.30153 l -0.42445,-0.20736 0.6073,-0.60391 0.6073,-0.60392 0.0321,0.42745 c 0.0177,0.2351 0.0483,0.64302 0.0681,0.9065 0.0205,0.27287 0.0173,0.47862 -0.008,0.478 -0.024,-5.9e-4 -0.13688,-0.0434 -0.25096,-0.0952 z m -5.41859,3.13761 c 0.16019,-0.0621 0.35948,-0.34994 0.45578,-0.65824 0.22204,-0.7109 0.3206,-1.79302 0.23773,-2.61042 -0.0324,-0.31853 -0.0707,-0.59116 -0.0854,-0.60584 -0.0437,-0.0438 -1.77539,-0.0302 -1.82,0.0142 -0.0226,0.0225 -0.0411,0.56424 -0.0411,1.20382 0,0.93689 0.0172,1.24294 0.0888,1.57479 0.2095,0.9717 0.57411,1.31047 1.16415,1.08164 z m -2.78181,-0.70736 c 0.15186,-0.61438 0.184,-0.99375 0.16862,-1.98999 l -0.0156,-1.00727 -0.14742,0.008 c -0.27235,0.0138 -0.58852,0.0792 -0.73111,0.15127 l -0.14151,0.0715 0.0349,0.76932 c 0.0657,1.45293 0.26525,2.42127 0.51041,2.47778 0.12146,0.0279 0.23981,-0.14859 0.32174,-0.48007 z m 5.2996,0.3521 c 0.21049,-0.33477 0.37656,-1.56365 0.38019,-2.8133 l 8.6e-4,-0.34836 -0.18425,-0.0535 c -0.32968,-0.0956 -0.75617,-0.16838 -0.78976,-0.13479 -0.0594,0.0594 -0.0679,1.11682 -0.0152,1.89223 0.0868,1.27645 0.34011,1.8838 0.60806,1.45765 z"
       id="path164" /></g></svg>
