<?xml version="1.0" encoding="UTF-8" standalone="no"?>
<!-- Created with Inkscape (http://www.inkscape.org/) -->

<svg
   width="15.15434mm"
   height="45.923889mm"
   viewBox="0 0 15.15434 45.923889"
   version="1.1"
   id="svg1"
   xml:space="preserve"
   xmlns="http://www.w3.org/2000/svg"
   xmlns:svg="http://www.w3.org/2000/svg"><defs
     id="defs1" /><g
     id="layer1"
     transform="translate(-106.47103,-5.0848826)"><path
       id="path18"
       style="fill:#0000ff;fill-opacity:1"
       d="m 20.517258,71.469655 c -0.282388,-0.0085 -0.58953,0.04513 -0.904657,0.147498 -0.977027,0.207164 -1.869289,0.754292 -1.706442,1.403126 0.03835,0.152784 0.04702,0.269798 0.02345,0.36988 -0.01964,0.04494 -0.04317,0.08814 -0.07715,0.127832 -0.03469,0.03974 -0.09515,0.08101 -0.145985,0.121024 -0.136075,0.09526 -0.313069,0.183657 -0.581673,0.272305 -0.136336,0.045 -0.264542,0.103265 -0.389547,0.167165 -0.02621,0.01345 -0.05157,0.02743 -0.07715,0.0416 -0.07345,0.04048 -0.140551,0.08759 -0.209524,0.133883 -0.10188,0.06907 -0.197262,0.143287 -0.287432,0.223139 -0.420946,0.365655 -0.721308,0.831635 -0.875914,1.321434 -0.0067,0.01816 -0.0097,0.03702 -0.01588,0.05522 -0.0241,0.05534 -0.05574,0.112537 -0.07262,0.165652 -0.0351,0.109966 -0.0537,0.214449 -0.0537,0.310125 0,0.02454 0.0069,0.04259 0.0076,0.06656 v 7.57e-4 c -6.89e-4,0.01531 -0.0076,0.03261 -0.0076,0.04765 0,0.01349 0.0061,0.03063 0.0068,0.04463 -0.0022,0.07638 3.96e-4,0.15158 0.0076,0.226164 0.02464,0.634656 0.316214,1.162547 0.903901,1.31387 0.276918,0.123426 0.585195,0.103326 0.972732,-0.059 0.417363,-0.130523 0.918642,-0.4012 1.204949,-0.670172 l 0.127075,-0.119511 c 0.184375,-0.119096 0.436527,-0.28788 0.481072,-0.308612 v 1.173179 c 0,0.219183 0.01622,0.433029 0.03933,0.638403 0.02632,0.418545 0.105015,0.771522 0.229946,0.922054 0.0044,0.0053 0.01136,0.0085 0.01588,0.01362 0.01103,0.01589 0.02044,0.04767 0.03177,0.059 0.186249,0.186249 0.480966,0.280953 0.80103,0.298022 0.06016,0.007 0.116445,0.01967 0.181536,0.01967 0.0027,0 0.0056,-7.41e-4 0.0083,-7.57e-4 0.0033,1.6e-5 0.0058,7.57e-4 0.0091,7.57e-4 0.116211,0 0.229709,-0.01359 0.338868,-0.03706 0.0027,-5.76e-4 0.0064,-1.67e-4 0.0091,-7.56e-4 0.01729,-0.0038 0.03213,-0.01226 0.04917,-0.01664 0.07002,-0.01535 0.136527,-0.03877 0.202716,-0.06505 0.01006,-0.0038 0.01957,-0.0074 0.0295,-0.01135 0.04917,-0.02094 0.09687,-0.04328 0.14296,-0.07035 0.09613,-0.04897 0.176218,-0.103648 0.242048,-0.163383 0.02098,-0.01665 0.04608,-0.02905 0.06581,-0.0469 0.03594,-0.03252 0.06589,-0.05497 0.09682,-0.07942 0.01749,-0.01431 0.03459,-0.02746 0.05144,-0.04009 0.266775,-0.180949 0.354205,0.139712 0.549148,1.535496 0.03397,0.273806 0.03321,0.32816 0.07337,0.630083 0.05621,0.422571 0.14749,1.455081 0.238266,2.502934 0.03524,0.398112 0.06972,0.813822 0.105897,1.244281 0.107035,1.333754 0.219465,2.805819 0.316932,4.275939 0.2219,3.346976 0.471236,6.704013 0.553686,7.460392 l 0.09833,0.9039 c -0.01268,0.15729 -0.03806,0.280967 -0.09909,0.347189 -0.01597,0.0139 -0.03045,0.02859 -0.05068,0.03933 -3.62e-4,2.31e-4 -0.0012,-2.31e-4 -0.0015,0 -0.03254,0.01713 -0.08907,0.02055 -0.133883,0.03026 l -0.606634,-0.09833 -0.943234,-0.153549 v 8.088952 c 0,0.0277 -7.49e-4,0.0488 -7.56e-4,0.0764 l -0.111947,6.72895 c -0.0021,0.0446 -0.0039,0.0944 -0.0061,0.13691 -0.02184,0.34618 -0.04626,0.64731 -0.07337,0.87515 -0.03781,0.25339 -0.08109,0.40831 -0.130101,0.49544 -0.120781,0.11072 -0.266124,0.34773 -0.421316,0.63841 -0.704835,1.18758 -1.39069,3.18125 -1.96135,5.48089 -0.433187,1.54918 -0.816178,3.15643 -1.043834,4.53614 -0.110371,0.6689 -0.205924,1.92366 -0.268523,3.27143 -0.0042,0.0466 -0.0088,0.0935 -0.01286,0.13994 -0.139299,1.52602 -0.185471,2.92362 -0.102114,4.03464 0.0149,0.24878 0.039,0.47782 0.06429,0.70497 0.04458,1.47627 0.187473,1.94776 0.627814,2.82819 0.01816,0.0363 0.04468,0.0744 0.06429,0.11119 0.112778,0.2596 0.23533,0.50008 0.376688,0.71026 0.285723,0.44868 0.627225,0.79183 1.027194,1.04081 0.09005,0.0615 0.180992,0.11318 0.273061,0.15884 0.0111,0.006 0.02285,0.0123 0.03404,0.0182 0.02612,0.0123 0.05166,0.0298 0.07791,0.0408 0.0044,0.002 0.01874,0.003 0.02345,0.005 0.0016,6.7e-4 0.003,0.002 0.0045,0.002 0.0012,5.2e-4 0.0056,9.9e-4 0.0068,0.002 0.02936,0.0133 0.05861,0.0271 0.08926,0.0393 0.01401,0.006 0.02652,0.0133 0.04085,0.0189 l 0.06051,0.053 h 0.104384 c 0.08585,0.0261 0.178009,0.0511 0.281381,0.0711 0.01626,0.003 0.03051,0.0112 0.0469,0.0144 0.0064,0.001 0.05703,0.002 0.06505,0.003 0.07944,0.013 0.151047,0.0275 0.243562,0.0378 0.67014,0.0815 1.69852,0.10349 3.517269,0.11573 l 4.024057,0.0272 0.723877,-0.64673 c 0.113073,-0.076 0.208234,-0.16479 0.293484,-0.26247 l 0.660339,-0.58922 0.02421,-1.43944 c 6.95e-4,-0.006 8.26e-4,-0.0142 0.0015,-0.0204 0.0491,-0.43707 0.06366,-1.01561 0.0764,-1.59601 0.0046,-0.17753 0.0051,-0.37442 0.0068,-0.56579 0.0076,-0.32279 0.01338,-0.66658 0.01286,-1.04307 0.003,-0.21299 0.0085,-0.41449 0.0083,-0.64143 -1.85e-4,-0.20743 -0.01271,-0.411 -0.01513,-0.61798 6.27e-4,-0.49495 -0.0174,-0.96592 -0.02345,-1.46364 -0.0034,-0.44551 -0.01038,-0.88199 -0.02118,-1.30782 -0.02796,-1.1166 -0.06574,-2.14265 -0.130101,-2.94845 -0.07734,-1.5676 -0.211821,-2.54663 -0.460649,-3.65948 -0.367238,-2.07434 -0.901119,-3.80351 -1.615674,-5.24413 -0.327497,-0.74986 -0.648539,-1.31792 -0.931887,-1.63534 l -0.260959,-0.42888 c -0.04998,-0.20077 -0.08669,-0.59884 -0.121781,-1.02871 -0.07531,-1.33737 -0.121024,-3.69655 -0.121024,-7.00352 v -0.1301 -0.093 c 0,-6.676791 -0.01238,-7.687267 -0.359291,-7.925584 -0.0421,-0.02882 -0.09192,-0.04333 -0.144473,-0.05824 -0.01656,-0.01046 -0.03718,-0.01784 -0.05522,-0.02572 -0.0344,-0.02332 -0.07292,-0.04253 -0.115729,-0.04917 -0.104426,-0.05089 -0.193103,-0.115836 -0.252639,-0.211792 -0.03553,-0.06501 -0.06104,-0.145612 -0.07715,-0.242805 -0.0695,-0.540764 0.171639,-1.666797 0.778338,-4.179877 0.724722,-3.001953 1.655597,-5.505434 2.662535,-7.226663 0.151101,-0.249493 0.300905,-0.480266 0.451571,-0.711018 0.101051,-0.145472 0.202013,-0.296991 0.304074,-0.425854 0.900164,-1.136549 1.30555,-1.304278 1.30555,-0.540071 0,0.273224 0.190944,0.65498 0.424341,0.848683 0.144736,0.120118 0.264678,0.175239 0.394085,0.191369 0.0055,0.0027 0.01121,0.0081 0.01664,0.01059 h 7.57e-4 c 0.01582,0.0073 0.03055,0.006 0.04614,0.01135 l 0.06883,0.08472 0.0764,-0.06429 c 0.01296,0.0012 0.02652,0.0083 0.03933,0.0083 0.05411,0 0.163356,-0.06688 0.291971,-0.162626 0.09026,-0.04354 0.182797,-0.104151 0.2776,-0.179267 l 0.686813,-0.394086 0.157331,0.984835 c 0.058,0.362687 0.209723,0.760731 0.381983,1.062745 0.06088,0.124031 0.132049,0.230697 0.220113,0.310881 0.01358,0.01419 0.02734,0.03771 0.04085,0.04992 0.423134,0.382935 0.551114,0.392005 0.996181,0.06656 0.244181,-0.178549 0.368564,-0.411825 0.436444,-0.894067 0.07404,-0.304106 0.119376,-0.673494 0.133883,-1.098295 0.01444,-0.23726 0.01482,-0.486395 0.0045,-0.742031 -0.0046,-0.18579 -0.0199,-0.37391 -0.03933,-0.562763 -5.49e-4,-0.0049 -2.12e-4,-0.0065 -7.57e-4,-0.01135 -0.0049,-0.04684 -0.0055,-0.09308 -0.01135,-0.139934 -7.26e-4,-0.0058 -7.94e-4,-0.0079 -0.0015,-0.01362 0.02507,-1.160015 0.119418,-1.452292 0.419803,-1.452292 0.333842,0 0.583127,-0.15293 0.764723,-0.453841 0.09431,-0.06679 0.146021,-0.147707 0.175485,-0.239023 0.03489,-0.07188 0.05167,-0.147994 0.04841,-0.228433 5.06e-4,-0.0016 10e-4,-0.0029 0.0015,-0.0045 0.0072,-0.01977 0.01613,-0.03761 0.02269,-0.05824 5.01e-4,-0.0019 10e-4,-0.0034 0.0015,-0.0053 4.02e-4,-0.0015 3.58e-4,-0.0038 7.57e-4,-0.0053 0.07396,-0.237763 0.09619,-0.558974 0.09304,-0.929618 9.83e-4,-0.01737 6.25e-4,-0.03836 0.0015,-0.05597 0.0076,-0.02589 0.0099,-0.05881 0.01815,-0.0832 0.01017,-0.03019 0.01319,-0.06154 0.02118,-0.09228 0.08856,-0.135934 0.116633,-0.267659 0.08396,-0.413752 0.0016,-0.05956 -0.01468,-0.115002 -0.03252,-0.17019 -0.0055,-0.01818 -0.0045,-0.03805 -0.0121,-0.05597 -0.01208,-0.02734 -0.03682,-0.05696 -0.05371,-0.08472 -0.007,-0.01153 -0.01413,-0.02322 -0.02193,-0.03479 -0.01294,-0.359959 -0.04412,-0.669305 -0.09455,-0.931888 -4e-6,-0.01917 -0.0032,-0.04386 -0.003,-0.06203 8.2e-4,-0.102828 -0.01549,-0.19928 -0.04614,-0.289701 v -7.57e-4 c -7.2e-5,-0.0011 8.35e-4,-0.0026 7.57e-4,-0.0038 v -7.56e-4 c -0.003,-0.0418 -0.02438,-0.07667 -0.03706,-0.114217 -0.02534,-0.07864 -0.07486,-0.151971 -0.146742,-0.2186 -0.03161,-0.0552 -0.06085,-0.114354 -0.09758,-0.159601 -4.71e-4,-5.88e-4 -10e-4,-9.26e-4 -0.0015,-0.0015 -0.01769,-0.02171 -0.0401,-0.035 -0.059,-0.05446 -0.004,-0.0042 -0.0088,-0.0072 -0.01286,-0.01135 -0.02393,-0.0262 -0.04966,-0.04896 -0.07564,-0.0711 -0.02514,-0.01995 -0.0495,-0.0416 -0.0764,-0.05824 -0.132194,-0.08679 -0.285383,-0.133883 -0.465943,-0.133883 -0.01816,0 -0.03974,-0.01018 -0.059,-0.01286 -0.08286,-0.04787 -0.162015,-0.08398 -0.242805,-0.136153 -0.107262,-0.07657 -0.190043,-0.148689 -0.254151,-0.216331 -2.4e-4,-0.0048 -0.0038,-0.0088 -0.0038,-0.01362 0,-0.1894 -0.08416,-0.328813 -0.213305,-0.425098 -0.136464,-0.178366 -0.343131,-0.249406 -0.589993,-0.216331 -0.02569,-0.0024 -0.0513,-0.0062 -0.07791,-0.0045 -0.0367,-0.0012 -0.07381,8.79e-4 -0.111191,0.0068 -0.153301,-0.01229 -0.298523,0.07236 -0.453085,0.23751 -0.05837,0.0504 -0.117067,0.107148 -0.176241,0.173216 -0.01868,0.01561 -0.03726,0.02966 -0.05597,0.04614 -0.01466,0.01281 -0.03105,0.02133 -0.04538,0.03479 l -0.02647,0.02496 -0.538558,0.506033 -0.04236,0.03933 -0.192882,-0.133127 -0.853978,-0.686056 c -0.195736,-0.157299 -0.39787,-0.291882 -0.601339,-0.415265 -0.07758,-0.04725 -0.153001,-0.08798 -0.229947,-0.129345 -0.148498,-0.08017 -0.295036,-0.149982 -0.441738,-0.211036 -0.04291,-0.01723 -0.08616,-0.03838 -0.128589,-0.0537 -0.108338,-0.04119 -0.213334,-0.07423 -0.318445,-0.104384 -0.268747,-0.10016 -0.503801,-0.142341 -0.718581,-0.127075 -0.429125,-0.01129 -0.778152,0.106599 -0.97122,0.370637 -0.04248,0.05809 -0.08164,0.129629 -0.119512,0.204228 -0.149458,0.217409 -0.23751,0.496726 -0.23751,0.844145 0,0.0036 0.0022,0.0077 0.0023,0.01135 v 7.56e-4 7.56e-4 c -9.9e-5,0.0058 -0.0023,0.01317 -0.0023,0.01891 0,0.12772 0.05142,0.269138 0.12405,0.412996 0.129187,0.310409 0.369633,0.599555 0.720094,0.82826 0.338119,0.261459 0.720796,0.447033 1.043835,0.447033 0.29728,0 0.444028,0.07975 0.468213,0.184562 -0.01398,0.12412 -0.26214,0.29509 -0.66866,0.46897 -0.167951,0.04915 -0.341791,0.130689 -0.516622,0.231459 -0.497094,0.240663 -0.931833,0.608538 -1.238986,1.022655 -0.156806,0.182409 -0.267607,0.36415 -0.332817,0.544609 -0.07559,0.146037 -0.127832,0.285945 -0.127832,0.404675 0,0.02525 0.0083,0.05035 0.01059,0.07564 -0.0012,0.01331 -0.01059,0.03044 -0.01059,0.04312 0,0.003 0.0015,0.0061 0.0015,0.0091 -3.1e-5,0.002 -0.0015,0.0048 -0.0015,0.0068 0,0.0058 0.0036,0.0123 0.0038,0.01815 -1.5e-4,0.0062 -0.0038,0.01356 -0.0038,0.01967 0,0.0046 0.0015,0.0075 0.0015,0.0121 -2.6e-5,0.0021 -0.0015,0.0048 -0.0015,0.0068 0,0.0046 0.0036,0.0097 0.0038,0.01437 -2.02e-4,0.0094 -0.0038,0.01933 -0.0038,0.02874 0,0.09904 0.01813,0.183909 0.04085,0.26701 0.0032,0.01241 0.0023,0.02879 0.0061,0.04084 0.005,0.01516 0.01302,0.02989 0.01891,0.04463 0.08072,0.212775 0.265171,0.377575 0.579404,0.551417 0.109712,0.06139 0.219903,0.122473 0.365342,0.187588 l 0.830529,0.372149 0.173973,0.0885 -0.77153,1.047617 c -0.310093,0.420933 -0.617181,0.93778 -0.921298,1.493137 -0.616815,1.016733 -1.148137,2.188309 -1.650469,3.692754 -0.207603,0.582827 -0.408522,1.195575 -0.602096,1.847133 -0.50468,1.639414 -0.927649,3.386741 -1.242011,5.138238 -0.05336,0.266444 -0.108958,0.51597 -0.161114,0.79044 -0.165733,0.872171 -0.201117,0.95234 -0.31315,7.57e-4 -0.0957,-0.955326 -0.251489,-2.865664 -0.437201,-5.556528 -0.444433,-6.439607 -0.8285,-10.827854 -1.105103,-12.641745 l -0.152037,-0.999207 0.937939,0.447034 c 0.04061,0.01937 0.06512,0.02719 0.10287,0.04463 0.04214,0.02219 0.08228,0.03681 0.123294,0.05522 0.01097,0.007 0.02174,0.01376 0.03252,0.02042 0.02172,0.01327 0.04172,0.02203 0.06278,0.03404 0.06871,0.03962 0.135429,0.07604 0.19742,0.102114 0.0052,0.0022 0.01,0.0032 0.01513,0.0053 0.07347,0.02979 0.143479,0.05034 0.209524,0.06127 0.007,0.0012 0.01347,5.48e-4 0.02042,0.0015 0.06071,0.0083 0.119896,0.01053 0.176241,0.003 0.01387,-0.0018 0.0272,-0.0071 0.04085,-0.0098 0.04985,-0.01018 0.09947,-0.02433 0.147498,-0.0469 0.01119,-0.0054 0.02219,-0.01285 0.03328,-0.01891 0.09248,-0.04918 0.183836,-0.114247 0.2776,-0.208011 0.01606,-0.01606 0.02365,-0.03698 0.03858,-0.0537 0.06135,-0.06285 0.113682,-0.136735 0.158088,-0.2186 0.01392,-0.02605 0.02442,-0.05379 0.03631,-0.08093 0.04849,-0.0875 0.07278,-0.190057 0.09228,-0.295754 0.0015,-0.0095 0.0017,-0.01986 0.003,-0.0295 0.0016,-0.01026 0.0017,-0.02136 0.003,-0.03177 0.0084,-0.05718 0.01485,-0.115244 0.0174,-0.176242 -2.54e-4,-0.0347 0.002,-0.06759 -7.57e-4,-0.103627 -0.0039,-0.311455 -0.08387,-0.66209 -0.251125,-1.032488 -0.03426,-0.08209 -0.07305,-0.162518 -0.114973,-0.243562 -0.0028,-0.005 -0.0055,-0.01008 -0.0083,-0.01513 -0.121694,-0.2323 -0.267168,-0.459601 -0.450059,-0.667903 -0.99487,-1.133042 -0.993654,-1.273085 0.0068,-0.924323 0.110226,0.03843 0.231039,0.06666 0.355509,0.09001 0.416916,0.121002 0.837582,0.132245 1.229153,0.04009 0.125962,-0.02138 0.247158,-0.04953 0.360804,-0.08774 0.437722,-0.103562 0.783177,-0.275001 0.868349,-0.496956 0.03855,-0.100455 0.05936,-0.205704 0.07034,-0.313151 0.02402,-0.06871 0.0391,-0.140314 0.0469,-0.214061 l 0.10514,-0.08623 -0.106653,-0.108166 c -0.01797,-0.194082 -0.08589,-0.399211 -0.228433,-0.612685 -0.117169,-0.175477 -0.284116,-0.321496 -0.494687,-0.444008 -0.0845,-0.06244 -0.173708,-0.117224 -0.270035,-0.161114 -0.04147,-0.0189 -0.119795,-0.03399 -0.176242,-0.05143 -0.266905,-0.14205 -0.583484,-0.200591 -1.049886,-0.213305 -0.143891,-0.0059 -0.315031,-0.01 -0.496956,-0.0076 -0.05095,-8.76e-4 -0.11352,0.0043 -0.166408,0.0045 -0.01978,4.54e-4 -0.04177,9.86e-4 -0.06203,0.0015 -0.161514,-0.0034 -0.323331,-0.0052 -0.483341,-0.0015 -0.02134,5.98e-4 -0.03669,-0.0015 -0.05824,-7.56e-4 -0.867355,0.02813 -1.374284,-0.0031 -1.710981,-0.09758 -0.171703,-0.05002 -0.311246,-0.114061 -0.402406,-0.208767 -0.0524,-0.187804 -0.245723,-0.317102 -0.507545,-0.39938 -0.210343,-0.104377 -0.450325,-0.165291 -0.7148,-0.173216 z m 0.23751,0.95231 c 0.0357,0.004 0.06067,0.01582 0.08547,0.02799 0.06267,0.08284 0.07914,0.209643 0.06354,0.364585 -0.01709,0.08557 -0.0286,0.162544 -0.06656,0.282138 -0.02958,0.09318 -0.07008,0.158606 -0.108165,0.232972 -9.96e-4,0.0016 -0.002,0.0029 -0.003,0.0045 -0.115057,0.12507 -0.276398,0.200844 -0.459892,0.233729 -0.159124,-0.03092 -0.330878,-0.06382 -0.574866,-0.110435 -0.09562,-0.01827 -0.17502,-0.04244 -0.242805,-0.06959 -0.130212,-0.06945 -0.223675,-0.147085 -0.251882,-0.232972 -0.03941,-0.204762 0.257155,-0.453229 0.844901,-0.610416 0.34264,-0.09164 0.572004,-0.138208 0.713287,-0.122537 z m 3.738138,0.744299 c 0.708079,0.01552 1.398238,0.182284 1.76166,0.407701 0.01994,0.01481 0.04723,0.0287 0.06429,0.04387 0.0097,0.0071 0.01514,0.01477 0.0242,0.02194 0.170309,0.166974 0.16599,0.352051 -0.0832,0.521917 -0.02117,0.0091 -0.04412,0.01685 -0.06656,0.02496 -0.120863,0.01167 -0.275342,0.04456 -0.425098,0.09153 -0.148479,0.01242 -0.309722,0.0072 -0.475777,-0.0083 -0.310116,-0.06812 -0.733527,-0.216249 -1.154269,-0.422073 l -1.165616,-0.570327 h -7.56e-4 c -0.0014,-0.0027 -0.0035,-0.0058 -0.0045,-0.0083 -6.98e-4,-0.0017 -0.0025,-0.0037 -0.003,-0.0053 l 0.825991,-0.06656 0.456867,-0.02496 c 0.09443,-0.0051 0.159777,-0.003 0.24583,-0.0061 z m -5.736552,1.273025 h 0.527213 c 0.0076,0.05549 0.0065,0.116529 -0.0083,0.187587 -0.05934,0.15387 -0.163531,0.349468 -0.283651,0.553686 l -0.04614,0.07867 c -0.05946,0.09775 -0.132555,0.195047 -0.19969,0.29424 -0.315416,0.432272 -0.804414,0.927431 -1.209487,1.20041 -0.262993,0.177231 -0.467091,0.308117 -0.636134,0.400893 -0.03977,0.01587 -0.07694,0.02663 -0.114973,0.03933 -0.187156,0.05876 -0.352373,0.08155 -0.480315,0.06127 -0.09786,-0.0731 -0.167725,-0.218384 -0.240536,-0.44779 -0.1951,-0.614706 0.164904,-1.265763 0.789684,-1.73216 0.308228,-0.187906 0.727333,-0.37888 1.137628,-0.531751 0.246732,-0.06081 0.501072,-0.104383 0.764722,-0.104383 z m 3.241939,0.269279 c 0.01326,0.0016 0.03033,0.009 0.04538,0.01362 0.02109,0.0045 0.0514,0.02392 0.07791,0.03706 0.04776,0.02674 0.130104,0.09327 0.189101,0.133126 0.164702,0.148878 0.381045,0.37167 0.593019,0.588481 0.402654,0.441155 0.823862,0.958466 1.125526,1.416741 0.12752,0.201787 0.227052,0.384848 0.291971,0.540071 2.28e-4,5.44e-4 5.3e-4,9.69e-4 7.56e-4,0.0015 0.04158,0.102991 0.07012,0.195945 0.07413,0.26701 -0.02334,0.457165 -0.302802,0.535325 -0.664121,0.282894 -0.299373,-0.316424 -0.643729,-0.766066 -0.961387,-1.251088 -0.665215,-1.149737 -1.004407,-2.007343 -0.772286,-2.029426 z m -1.568021,0.524943 c 0.113562,0 0.214122,0.135017 0.294997,0.357021 0.0021,0.0085 0.004,0.01404 0.0061,0.02269 3.06e-4,8.72e-4 4.5e-4,0.0022 7.56e-4,0.003 0.02878,0.110023 0.05063,0.246604 0.07337,0.381226 0.03033,0.181699 0.05537,0.370512 0.0764,0.577135 0.01649,0.181173 0.032,0.36192 0.03933,0.547635 -0.0032,0.170368 0.0022,0.321452 -0.0083,0.506789 -0.01556,0.274106 -0.03344,0.477649 -0.05446,0.660339 -0.01901,0.108326 -0.03591,0.220246 -0.06203,0.317689 -0.0567,0.211571 -0.164142,0.368163 -0.290458,0.468969 -0.07561,0.03556 -0.158608,0.06284 -0.270035,0.07867 -0.089,0.01264 -0.150553,0.01055 -0.215575,0.0098 -0.09027,-0.03876 -0.174124,-0.108407 -0.241292,-0.217087 -0.207562,-0.335844 0.384777,-3.713933 0.651262,-3.713933 z m 9.333999,1.400099 c 0.0047,-1.93e-4 0.01042,8.84e-4 0.01513,7.57e-4 0.267179,0.01484 0.648983,0.135896 1.042321,0.316932 0.01928,0.01017 0.03879,0.02037 0.05824,0.03101 0.06525,0.03093 0.125539,0.07284 0.190614,0.106652 0.239819,0.146103 0.488959,0.323587 0.740517,0.533264 l 0.518135,0.431149 c 0.06654,0.08407 0.14133,0.170715 0.181537,0.235241 0.0045,0.05487 -0.04984,0.08367 -0.166409,0.09758 l -0.400893,-0.0091 c -0.404294,-0.0085 -0.77768,-0.06005 -1.120987,-0.133884 -0.110674,-0.0276 -0.223259,-0.05248 -0.327522,-0.08169 -0.06013,-0.01736 -0.1171,-0.03614 -0.173973,-0.05522 -0.477699,-0.184837 -0.860643,-0.43067 -1.049129,-0.680762 -5.29e-4,-7.59e-4 -9.87e-4,-0.0015 -0.0015,-0.0023 -0.04749,-0.107713 -0.07734,-0.21277 -0.07261,-0.305586 0.0066,-0.113351 0.05467,-0.210375 0.127832,-0.291215 0.01119,-0.01265 0.01847,-0.02527 0.03101,-0.03782 0.0926,-0.0926 0.223584,-0.140699 0.38047,-0.152037 0.0104,7.6e-5 0.01643,-0.0035 0.02723,-0.003 z m 4.804664,0.796492 c 0.01186,0.0021 0.02255,0.008 0.03404,0.01135 0.0055,0.0063 0.01071,0.01401 0.01589,0.02118 l 0.09001,0.360047 c 0.0011,0.0516 0.0038,0.07932 0.0045,0.141447 0.0069,0.609947 0.11722,0.737559 0.603609,0.698159 0.581018,-0.04706 0.847412,-0.03939 0.891041,0.06883 -0.0011,0.0299 -0.0094,0.07766 -0.01362,0.11346 -0.0293,0.06641 -0.08523,0.148139 -0.173216,0.254151 -0.216984,0.26145 -0.260691,0.395916 -0.120268,0.560494 0.01711,0.09743 0.09739,0.163464 0.234485,0.220869 0.02753,0.05613 0.06736,0.09158 0.121024,0.102114 0.06091,0.05528 0.106585,0.171962 0.130101,0.332817 -0.01882,0.02643 -0.03744,0.05297 -0.07413,0.07564 -0.16119,0.09962 -0.257402,0.427412 -0.214062,0.728415 0.0035,0.02451 4.18e-4,0.03895 0.003,0.06203 -0.0052,0.0624 -0.0036,0.117649 0.0061,0.160357 0.03711,0.164146 -0.07316,0.348276 -0.245075,0.42056 -0.06202,-0.0099 -0.130285,-0.04122 -0.205741,-0.09985 -0.03674,-0.0301 -0.07441,-0.06754 -0.111947,-0.103627 -0.180095,-0.184053 -0.375865,-0.474686 -0.549148,-0.878939 -0.21442,-0.500222 -0.468529,-0.932465 -0.645967,-1.117206 -0.05915,-0.06158 -0.109826,-0.09606 -0.147499,-0.09606 -0.0055,0 -0.0091,-0.0041 -0.01437,-0.0045 -0.116334,-0.286971 -0.191033,-0.533419 -0.22087,-0.751107 0.01173,-0.102414 0.02037,-0.203145 0.04765,-0.312394 0.0088,-0.03339 0.01619,-0.06668 0.02647,-0.09985 0.03399,-0.115479 0.08591,-0.229277 0.137665,-0.34265 0.0413,-0.07987 0.08641,-0.156882 0.137665,-0.224652 0.116435,-0.153943 0.195159,-0.251903 0.252638,-0.301047 z m -2.300974,2.48478 c 0.171414,-0.0012 0.264597,0.03958 0.286676,0.129344 -0.08941,0.212715 -0.341816,0.625511 -0.668659,1.077873 -0.121237,0.167796 -0.21934,0.284971 -0.320714,0.408457 -0.108498,0.115738 -0.21507,0.242528 -0.319958,0.343406 -0.133188,0.104544 -0.266909,0.198261 -0.40165,0.280625 -0.223259,0.09891 -0.479357,0.14364 -0.831286,0.170191 -0.315223,0.02378 -0.566699,0.01554 -0.764722,-0.01815 -0.218989,-0.05373 -0.367718,-0.136743 -0.456867,-0.239779 -0.11332,-0.205881 0.02952,-0.523452 0.448547,-0.942477 0.323966,-0.323965 1.202699,-0.734819 1.984042,-1.002232 0.149501,-0.04515 0.306111,-0.083 0.461405,-0.123294 0.240007,-0.04913 0.444022,-0.08297 0.583186,-0.08396 z m 1.267729,1.335049 c 0.03716,0.0434 0.06081,0.133857 0.08018,0.270035 7.13e-4,0.005 -0.0021,0.01589 -0.0015,0.02118 l -0.05446,0.294996 c -0.08918,0.48067 -0.352025,1.245305 -0.595288,1.756365 -0.299768,0.563554 -0.643989,1.037442 -0.812376,1.100565 -0.0028,0.001 -0.0071,0.006 -0.0098,0.0068 -0.02816,0.0087 -0.04429,-9.46e-4 -0.06883,0.0023 -0.11227,0.01343 -0.195767,-0.01791 -0.235998,-0.108922 -0.0098,-0.06745 -0.01428,-0.150742 -0.01815,-0.235997 0.01871,-0.180383 0.0613,-0.384941 0.129344,-0.608904 0.15863,-0.43993 0.436982,-0.974516 0.821453,-1.504483 l 0.640672,-0.882721 c 0.04453,-0.04388 0.09562,-0.09906 0.124806,-0.111191 z m 1.040053,1.995388 c 0.03179,0.06739 0.08034,0.339037 0.155062,0.782876 0.116138,0.689952 0.112448,1.583346 -0.0083,1.984798 -0.08018,0.266534 -0.134425,0.314959 -0.167921,0.117243 -0.01511,-0.08975 -0.02468,-0.247363 -0.03177,-0.440983 -0.0067,-0.260482 -0.0085,-0.611591 -0.0076,-1.063501 8.4e-4,-0.416904 0.0032,-0.691318 0.0061,-0.949284 0.0082,-0.358608 0.02322,-0.497384 0.05446,-0.431149 z M 22.784194,99.310538 c 0.768949,0 0.970897,3.082902 0.442495,6.756942 -0.229407,1.59509 -0.519105,3.91265 -0.643698,5.14958 -0.150231,1.4915 -0.210085,0.90043 -0.242805,-2.51201 -0.0064,-0.7046 -0.01348,-1.33662 -0.01815,-2.2919 -0.002,-0.41326 -6.88e-4,-0.59726 -0.0023,-0.96517 -0.0031,-0.82087 -0.0053,-1.6047 -0.0045,-2.22079 0.0047,-0.42372 0.0045,-0.97039 0.01059,-1.33959 1.29e-4,-0.0119 6.24e-4,-0.0185 7.56e-4,-0.0303 0.02807,-2.244163 0.132579,-2.546802 0.457623,-2.546802 z m 2.036234,4.070952 c 0.01241,0.0178 0.02582,0.092 0.04009,0.22844 0.0043,0.0407 0.0024,0.10391 0.0061,0.14825 0.01832,0.28208 0.02928,0.61225 0.03177,0.95836 -0.0029,0.31723 -0.01257,0.636 -0.03782,0.87743 -0.0509,0.48656 -0.08817,0.0937 -0.09682,-0.75111 3.72e-4,-0.66541 0.01141,-1.14089 0.02874,-1.36757 0.0084,-0.0631 0.01746,-0.10893 0.02799,-0.0938 z m -0.916002,5.69949 c 0.05987,0.26776 0.174997,1.90471 0.316175,4.38864 0.184062,5.04636 0.685166,15.90289 0.921298,19.57493 0.08917,1.38667 0.167636,2.14539 0.282894,2.53924 0.02408,0.20785 0.04544,0.33624 0.06202,0.354 0.03508,0.0375 0.0745,0.0641 0.11573,0.0847 0.08075,0.10876 0.17279,0.10405 0.279868,-0.003 1.81e-4,-1.8e-4 -1.78e-4,-0.004 0,-0.004 0.0022,-0.002 0.0054,-0.002 0.0076,-0.004 3.07e-4,-3e-4 4.54e-4,-0.006 7.57e-4,-0.006 0.0035,-0.003 0.0087,-0.003 0.0121,-0.007 0.0053,-0.005 0.0073,-0.0766 0.01135,-0.10741 0.135425,-0.10454 0.190989,-0.34693 0.173216,-0.76245 -0.01943,-0.45428 -0.24188,-5.43417 -0.494687,-11.06691 -0.16651,-3.71 -0.259603,-6.23694 -0.287432,-7.90138 -0.0067,-0.46131 1.2e-4,-0.73786 0.003,-1.07333 0.0075,-0.89396 0.03985,-1.48231 0.121025,-1.56348 0.179887,-0.17989 0.261499,-0.12075 0.28592,0.19666 5.3e-4,0.0364 0.0027,0.0527 0.003,0.093 3.1e-5,0.003 -3e-5,0.004 0,0.008 5.5e-5,0.006 0.0021,0.0143 0.0023,0.0204 0.0012,0.0393 0.0053,0.0643 0.0053,0.10968 v 0.33736 l 0.05219,0.0696 c 0.04168,0.24686 0.104889,0.4669 0.193639,0.6263 0.06084,0.149 0.126886,0.29104 0.19969,0.40845 0.276561,0.44596 0.306703,0.59264 0.07942,0.38728 -0.42641,-0.38528 -0.789683,-0.4298 -0.789683,-0.0976 0,0.0109 0.01858,0.0505 0.0242,0.0703 -0.01277,0.0171 -0.0242,0.0356 -0.0242,0.062 0,0.0528 0.38436,0.7313 0.85549,1.51734 0.01086,0.0181 0.01703,0.0317 0.02799,0.0499 0.187886,0.31202 0.35717,0.62141 0.510571,0.93794 0.0059,0.0127 0.01156,0.0259 0.0174,0.0386 0.09693,0.20211 0.177776,0.41476 0.261715,0.62554 0.196359,0.51114 0.36573,1.0615 0.507546,1.66484 0.05913,0.26815 0.113709,0.54655 0.161114,0.84415 0.01107,0.0605 0.02341,0.11925 0.03404,0.18078 0.267395,1.80872 0.339345,4.21188 0.310125,7.84615 -0.01097,1.36378 -0.0093,2.41011 0.0015,3.30321 -0.03576,2.13964 0.02601,3.00995 0.208011,3.12243 0.02164,0.0134 0.04105,0.0158 0.06278,0.0272 0.0082,0.0176 0.01891,0.0231 0.02799,0.0356 0.06933,0.0989 0.154204,0.11067 0.253395,0.0567 0.02934,-0.001 0.05349,-0.007 0.06732,-0.0212 9.22e-4,-9.2e-4 0.0028,-0.0258 0.0038,-0.028 0.0276,-0.0216 0.05109,-0.0263 0.08094,-0.056 0.09946,-0.099 0.245743,-2.2244 0.325253,-4.72298 l 0.117243,-3.67762 c 0.04646,0.11706 0.05392,1.34603 0.03706,3.95447 -0.01316,2.03611 -0.03711,3.22007 -0.08623,4.05431 -0.01138,0.0995 -0.01953,0.21695 -0.03252,0.30786 -0.0033,0.0235 -0.008,0.0413 -0.01135,0.0643 -0.147547,0.9769 -0.392785,1.45372 -0.769261,1.62248 -0.423571,0.18985 -3.633066,0.24968 -5.913549,0.18759 -1.109385,-0.0512 -2.030103,-0.13179 -2.375859,-0.24129 -0.185833,-0.0857 -0.361076,-0.19927 -0.520404,-0.354 -0.0097,-0.009 -0.0173,-0.016 -0.02723,-0.0257 -0.03166,-0.0311 -0.05734,-0.0683 -0.08774,-0.1006 -0.605901,-0.68179 -1.005298,-1.89522 -1.186038,-3.64661 -0.05281,-0.51174 -0.07966,-1.06145 -0.09379,-1.62626 -0.0031,-0.22947 -0.0084,-0.44773 -0.0076,-0.69589 0.0014,-0.43047 0.01014,-0.84874 0.02269,-1.26244 0.02792,-0.66094 0.08022,-1.34091 0.146742,-2.02867 0.320233,-3.12934 1.09011,-6.67262 1.956812,-9.31811 0.501577,-1.43898 1.065325,-2.66471 1.663327,-3.53013 0.01714,-0.0248 0.03152,-0.0208 0.04614,-0.0189 0.05434,0.22077 0.09484,0.85973 0.123293,1.77754 -0.0035,0.70695 -0.0184,1.55789 -0.05749,2.73893 -0.115446,3.48864 -0.033,6.60538 0.287432,10.84832 0.08303,1.09948 0.158945,1.9499 0.235998,2.84634 0.05226,0.79521 0.169286,2.4073 0.169434,2.51125 1.45e-4,0.10178 0.03771,0.19113 0.09077,0.26777 0.02925,0.23917 0.05452,0.42893 0.06808,0.4425 0.04655,0.0465 0.165765,-0.007 0.291215,-0.0968 0.04545,-0.009 0.09093,-0.0252 0.134639,-0.0522 0.03994,-0.0247 0.07209,-0.0935 0.09833,-0.18985 0.0072,-0.0119 0.01117,-0.0362 0.0174,-0.0514 0.09231,-0.17302 0.09712,-0.61526 0.05068,-1.41976 -0.0069,-0.22059 -0.02437,-0.50024 -0.03933,-0.76548 -0.03125,-0.70378 -0.07805,-1.53261 -0.158088,-2.66481 -0.41718,-5.90131 -0.417798,-12.36332 -0.0015,-17.95092 0.168305,-2.25908 0.378732,-3.70547 0.537046,-4.06264 z"
       transform="matrix(0.68318753,0,0,0.68318753,96.125496,-43.7417)" /></g></svg>
