<?xml version="1.0" encoding="UTF-8" standalone="no"?>
<!-- Created with Inkscape (http://www.inkscape.org/) -->

<svg
   width="37.706944mm"
   height="26.264627mm"
   viewBox="0 0 37.706944 26.264627"
   version="1.1"
   id="svg1"
   xml:space="preserve"
   sodipodi:docname="svg_dino03.svg"
   inkscape:version="1.3.2 (091e20e, 2023-11-25)"
   xmlns:inkscape="http://www.inkscape.org/namespaces/inkscape"
   xmlns:sodipodi="http://sodipodi.sourceforge.net/DTD/sodipodi-0.dtd"
   xmlns="http://www.w3.org/2000/svg"
   xmlns:svg="http://www.w3.org/2000/svg"><sodipodi:namedview
     id="namedview1"
     pagecolor="#ffffff"
     bordercolor="#000000"
     borderopacity="0.25"
     inkscape:showpageshadow="2"
     inkscape:pageopacity="0.0"
     inkscape:pagecheckerboard="0"
     inkscape:deskcolor="#d1d1d1"
     inkscape:document-units="mm"
     inkscape:zoom="0.54855887"
     inkscape:cx="-99.351232"
     inkscape:cy="58.334668"
     inkscape:window-width="1312"
     inkscape:window-height="449"
     inkscape:window-x="0"
     inkscape:window-y="38"
     inkscape:window-maximized="0"
     inkscape:current-layer="svg1" /><defs
     id="defs1" /><g
     id="layer1"
     transform="translate(-108.42527,-94.911542)"><path
       style="fill:#0000ff;fill-opacity:1;stroke:none;stroke-width:0.640147"
       d="m 127.81884,121.08337 c -0.0275,-0.0514 -0.0442,-0.17859 -0.0371,-0.28259 0.0121,-0.17751 0.006,-0.1882 -0.0985,-0.17475 -0.0613,0.008 -0.21312,0.0255 -0.33746,0.0392 -0.12433,0.0137 -0.39451,-10e-4 -0.60038,-0.0331 -0.3665,-0.0568 -0.38046,-0.0555 -0.66781,0.0625 -0.16141,0.0663 -0.34394,0.12052 -0.40561,0.12052 -0.0926,0 -0.11186,-0.0217 -0.11054,-0.12433 6.4e-4,-0.0684 0.0307,-0.17521 0.0662,-0.23738 0.0355,-0.0622 0.0653,-0.12482 0.0662,-0.13923 6.4e-4,-0.0144 -0.0442,-0.0246 -0.10014,-0.0226 -0.0817,0.003 -0.10442,-0.0241 -0.11542,-0.13703 -0.01,-0.0977 0.0204,-0.18118 0.0981,-0.27353 0.0615,-0.0731 0.18465,-0.17212 0.27368,-0.22006 0.089,-0.0479 0.16186,-0.11158 0.16186,-0.14142 0,-0.0298 0.0542,-0.0969 0.1204,-0.14897 0.0662,-0.0521 0.35616,-0.16864 0.6443,-0.259 0.41772,-0.13099 0.55285,-0.19471 0.66679,-0.31442 0.0816,-0.0857 0.18305,-0.27191 0.23644,-0.4338 0.0515,-0.15601 0.1065,-0.39705 0.12236,-0.53566 0.0221,-0.19289 0.0106,-0.28733 -0.0491,-0.40267 -0.0449,-0.0868 -0.0931,-0.32761 -0.11366,-0.5678 -0.0197,-0.23038 -0.071,-0.49142 -0.11451,-0.58311 -0.0433,-0.0913 -0.2438,-0.32644 -0.4455,-0.52255 -0.2017,-0.1961 -0.59053,-0.53281 -0.86408,-0.74824 -0.27354,-0.21544 -0.55159,-0.44266 -0.61788,-0.50494 -0.0663,-0.0623 -0.18322,-0.27031 -0.25983,-0.46228 -0.0766,-0.19198 -0.1778,-0.50009 -0.22488,-0.6847 -0.0471,-0.18461 -0.12709,-0.6205 -0.1778,-0.96865 -0.0507,-0.34815 -0.10548,-0.75156 -0.12172,-0.89648 l -0.0295,-0.2635 -0.23052,0.33132 c -0.12679,0.18222 -0.44456,0.62633 -0.70615,0.98691 -0.2616,0.36058 -0.52105,0.72254 -0.57657,0.80435 -0.096,0.14152 -0.0975,0.15689 -0.0306,0.3165 0.0445,0.10611 0.0839,0.41011 0.10729,0.82739 0.0203,0.3628 0.0512,0.71886 0.0686,0.79124 0.0174,0.0724 0.0723,0.21299 0.12199,0.31245 0.0497,0.0995 0.17555,0.30294 0.27977,0.45215 0.10421,0.1492 0.24842,0.37301 0.32046,0.49735 0.11076,0.19116 0.13342,0.28541 0.1467,0.61038 0.009,0.21138 0.0163,0.46033 0.0169,0.55324 6.4e-4,0.11718 -0.0348,0.21171 -0.11638,0.30866 -0.0647,0.0769 -0.1176,0.16715 -0.1176,0.20065 0,0.0335 0.0229,0.16021 0.051,0.28159 0.0427,0.18502 0.0391,0.24368 -0.0226,0.36291 -0.0405,0.0782 -0.0735,0.22596 -0.0735,0.3283 0,0.10234 -0.0209,0.22523 -0.0465,0.27306 -0.0256,0.0478 -0.1038,0.1166 -0.17378,0.15279 -0.07,0.0362 -0.22917,0.0793 -0.35377,0.0958 -0.21253,0.0282 -0.23249,0.0423 -0.32298,0.22856 -0.0531,0.10919 -0.12826,0.19852 -0.16715,0.19852 -0.0389,0 -0.10021,-0.0706 -0.13623,-0.1568 -0.036,-0.0862 -0.0655,-0.21743 -0.0655,-0.29153 0,-0.13109 -0.004,-0.13342 -0.14033,-0.0858 -0.0832,0.029 -0.26565,0.0373 -0.44845,0.0203 -0.25168,-0.0234 -0.34675,-0.0121 -0.51902,0.0618 -0.11599,0.0497 -0.26757,0.0904 -0.33684,0.0904 -0.12594,0 -0.12594,0 -0.12594,-0.36282 0,-0.36283 0,-0.36283 0.30773,-0.62834 0.24528,-0.21164 0.38195,-0.29024 0.67343,-0.38731 0.32689,-0.10887 0.37447,-0.13936 0.44828,-0.28724 0.0455,-0.091 0.10644,-0.26296 0.13561,-0.38215 0.0436,-0.17823 0.0408,-0.25274 -0.0159,-0.4198 -0.038,-0.11172 -0.069,-0.31201 -0.069,-0.4451 0,-0.19811 -0.0266,-0.28154 -0.14694,-0.46017 -0.0851,-0.12629 -0.37186,-0.39978 -0.681,-0.6494 -0.37725,-0.30461 -0.57966,-0.50425 -0.68937,-0.67991 -0.0854,-0.13677 -0.19701,-0.38093 -0.24798,-0.54256 -0.0898,-0.28467 -0.0905,-0.31163 -0.0229,-0.85907 0.0384,-0.31084 0.075,-0.87739 0.0812,-1.25898 l 0.0114,-0.6938 -0.47474,-0.15704 c -0.26111,-0.0864 -0.65787,-0.24433 -0.88168,-0.351 -0.22381,-0.10668 -0.50865,-0.27068 -0.63299,-0.36445 -0.12433,-0.0938 -0.2871,-0.25233 -0.36171,-0.35238 -0.0746,-0.10005 -0.21233,-0.25744 -0.30606,-0.34975 -0.17043,-0.16786 -0.17043,-0.16786 -0.40799,-0.11263 -0.13065,0.0303 -0.30219,0.0887 -0.38119,0.1295 -0.079,0.0408 -0.19768,0.0743 -0.26371,0.0743 -0.066,0 -0.18403,-0.0542 -0.26222,-0.12035 -0.0782,-0.0662 -0.38632,-0.2368 -0.68473,-0.37913 -0.29842,-0.14233 -0.69806,-0.32314 -0.88809,-0.4018 -0.19004,-0.0786 -0.44163,-0.21134 -0.55909,-0.29484 -0.21355,-0.15184 -0.21355,-0.15184 -0.4641,-0.0656 -0.1378,0.0474 -0.32856,0.0862 -0.42391,0.0862 -0.12011,0 -0.30792,-0.07 -0.61129,-0.22771 -0.38942,-0.2025 -0.45278,-0.22253 -0.57232,-0.18086 -0.0739,0.0258 -0.17207,0.0469 -0.2181,0.0469 -0.0505,0 -0.0837,-0.0323 -0.0837,-0.0816 0,-0.0449 0.0661,-0.14391 0.14695,-0.22011 0.0808,-0.0762 0.18718,-0.1599 0.23635,-0.18598 0.0727,-0.0385 0.0284,-0.0534 -0.23737,-0.0796 -0.17973,-0.0177 -0.32678,-0.0521 -0.32678,-0.0764 0,-0.0243 -0.0331,-0.0315 -0.0736,-0.016 -0.0405,0.0155 -0.10149,0.005 -0.13564,-0.0233 -0.0341,-0.0284 -0.0621,-0.0678 -0.0621,-0.0877 0,-0.0199 0.0528,-0.0989 0.11716,-0.17545 0.0789,-0.0937 0.1738,-0.14829 0.29046,-0.16695 0.12559,-0.0201 0.16645,-0.0456 0.1484,-0.0926 -0.0137,-0.0357 0.0214,-0.11413 0.0779,-0.17431 0.0565,-0.0602 0.16615,-0.13034 0.2436,-0.15589 0.0947,-0.0313 0.19228,-0.0317 0.29824,-0.001 0.0866,0.0248 0.29647,0.0451 0.46638,0.0451 0.29661,0 0.31941,0.008 0.57215,0.20255 0.14478,0.1114 0.37424,0.32522 0.50992,0.47515 0.24668,0.27259 0.24668,0.27259 0.84025,0.42479 0.32646,0.0837 0.58236,0.13407 0.56867,0.11191 -0.0137,-0.0221 -0.18119,-0.14507 -0.3722,-0.27314 -0.191,-0.12807 -0.46152,-0.33776 -0.60114,-0.46596 -0.13962,-0.12821 -0.32581,-0.26726 -0.41376,-0.30899 -0.0879,-0.0417 -0.19105,-0.0759 -0.22911,-0.0759 -0.0381,0 -0.10871,-0.056 -0.15697,-0.12434 -0.0483,-0.0684 -0.17523,-0.37867 -0.28214,-0.68952 -0.10691,-0.31084 -0.20114,-0.57372 -0.2094,-0.58418 -0.008,-0.0104 -0.0667,0.0296 -0.12987,0.0889 -0.099,0.093 -0.1536,0.10645 -0.39545,0.0972 -0.15431,-0.006 -0.35178,-0.0268 -0.43881,-0.0463 -0.12369,-0.0279 -0.15747,-0.0573 -0.15466,-0.13473 0.002,-0.0545 -0.0104,-0.0991 -0.0276,-0.0991 -0.0172,0 -0.10775,0.052 -0.20132,0.11546 -0.0936,0.0635 -0.2134,0.10927 -0.26629,0.10173 -0.0607,-0.009 -0.10162,-0.0522 -0.11095,-0.11807 -0.008,-0.0574 0.0185,-0.15513 0.0592,-0.2172 0.0406,-0.0621 0.11853,-0.13081 0.17304,-0.15277 0.0545,-0.022 0.0737,-0.0412 0.0426,-0.0428 -0.0311,-10e-4 -0.0565,-0.051 -0.0565,-0.10971 0,-0.0698 0.0778,-0.17962 0.22412,-0.3165 0.17348,-0.16226 0.25806,-0.20965 0.37421,-0.20965 0.0825,0 0.32034,0.0213 0.52845,0.0474 0.20812,0.0261 0.43346,0.0759 0.50076,0.11072 0.0673,0.0348 0.18135,0.13342 0.25342,0.21915 0.0721,0.0857 0.1978,0.27497 0.27937,0.42054 0.0816,0.14556 0.21384,0.33947 0.2939,0.4309 0.14515,0.16576 0.14673,0.16627 0.56379,0.18347 0.41823,0.0172 0.41823,0.0172 0.41823,-0.32552 0,-0.21318 -0.0411,-0.50475 -0.10879,-0.77125 -0.0598,-0.23567 -0.18999,-0.63196 -0.28923,-0.88063 -0.0992,-0.24868 -0.30329,-0.6963 -0.45341,-0.99471 -0.15212,-0.30234 -0.34227,-0.60952 -0.42947,-0.6938 -0.15651,-0.15124 -0.15651,-0.15124 -0.67953,-0.0339 -0.31026,0.0696 -0.66151,0.11732 -0.86347,0.11732 -0.3019,0 -0.40319,0.025 -0.89463,0.22124 -0.3048,0.12169 -0.77743,0.31498 -1.0503,0.42954 -0.27286,0.11456 -0.55771,0.20798 -0.63299,0.2076 -0.10034,-5e-4 -0.22499,-0.0737 -0.46691,-0.27418 -0.18152,-0.15044 -0.42124,-0.39741 -0.53272,-0.54883 -0.11147,-0.15143 -0.19537,-0.29763 -0.18644,-0.3249 0.009,-0.0273 0.0808,-0.0559 0.1597,-0.0638 0.13633,-0.0134 0.14347,-0.0237 0.14347,-0.20572 0,-0.10536 0.0244,-0.21597 0.0543,-0.24581 0.0298,-0.0298 0.097,-0.0543 0.1492,-0.0543 0.0522,0 0.11936,0.0244 0.14921,0.0543 0.0422,0.0422 0.0543,0.0325 0.0543,-0.0436 0,-0.0538 0.0407,-0.11966 0.0904,-0.14628 0.0642,-0.0344 0.1166,-0.0344 0.18085,0 0.0497,0.0266 0.0935,0.0731 0.0972,0.10333 0.004,0.0302 0.019,-0.0366 0.0339,-0.14854 0.0268,-0.20078 0.0293,-0.20339 0.19446,-0.1985 0.14687,0.004 0.17308,-0.0115 0.21423,-0.12955 0.0406,-0.11635 0.0651,-0.13183 0.18192,-0.11469 0.12246,0.018 0.13257,0.01 0.10852,-0.0858 -0.0146,-0.0581 -10e-4,-0.13588 0.0293,-0.17286 0.0307,-0.037 0.10481,-0.0672 0.16472,-0.0672 0.0613,0 0.12307,0.0346 0.14126,0.0791 0.0234,0.0571 0.0387,0.0301 0.0551,-0.0971 0.0125,-0.097 0.0574,-0.19796 0.0998,-0.22455 0.0606,-0.038 0.10161,-0.0253 0.19198,0.0596 0.0632,0.0593 0.12006,0.0994 0.12637,0.0889 0.006,-0.0104 0.0444,-0.0801 0.0845,-0.15466 0.0402,-0.0746 0.14844,-0.25772 0.2406,-0.40692 0.13664,-0.221238 0.1636,-0.302458 0.1461,-0.440268 -0.0132,-0.10435 -0.10262,-0.28272 -0.23372,-0.46644 -0.19666,-0.27559 -0.21803,-0.29226 -0.29053,-0.22664 -0.043,0.0389 -0.11179,0.0708 -0.15278,0.0708 -0.041,0 -0.10725,-0.0499 -0.14725,-0.11101 -0.0613,-0.0935 -0.0861,-0.10268 -0.15737,-0.0581 -0.0698,0.0436 -0.1035,0.0351 -0.19196,-0.048 -0.10731,-0.10081 -0.10731,-0.10081 -0.18978,-0.01 -0.0454,0.0501 -0.10868,0.0911 -0.14071,0.0911 -0.032,0 -0.0894,-0.0445 -0.1276,-0.099 -0.0381,-0.0545 -0.0759,-0.0901 -0.0838,-0.0791 -0.008,0.011 -0.0385,0.0758 -0.0679,0.14422 -0.0378,0.088 -0.0863,0.12434 -0.16581,0.12434 -0.0649,0 -0.13221,-0.037 -0.15922,-0.0875 -0.0257,-0.0481 -0.0488,-0.19562 -0.0513,-0.3278 -0.004,-0.24035 -0.004,-0.24035 -0.0451,-0.0681 -0.0223,0.0947 -0.0617,0.21173 -0.0875,0.25998 -0.0258,0.0483 -0.093,0.0877 -0.14935,0.0877 -0.0563,0 -0.12682,-0.0244 -0.15666,-0.0543 -0.0298,-0.0298 -0.0554,-0.14683 -0.0568,-0.25998 -0.003,-0.20572 -0.003,-0.20572 -0.0565,-0.0518 -0.0297,0.0846 -0.0868,0.17436 -0.12694,0.19936 -0.0401,0.025 -0.1082,0.0319 -0.15124,0.0154 -0.043,-0.0165 -0.0885,-0.069 -0.10092,-0.11668 -0.0182,-0.0695 -0.0513,-0.082 -0.16736,-0.0632 -0.098,0.0159 -0.16331,10e-4 -0.20239,-0.046 -0.0318,-0.0382 -0.0693,-0.22843 -0.0834,-0.42265 -0.0241,-0.33102 -0.0367,-0.36509 -0.20018,-0.54427 -0.15218,-0.16676 -0.17425,-0.21869 -0.17296,-0.40693 6.4e-4,-0.11867 0.0378,-0.32074 0.0821,-0.44903 0.0444,-0.12828 0.16066,-0.35092 0.2585,-0.49474 0.0978,-0.14383 0.26945,-0.35445 0.38136,-0.46806 0.11191,-0.11361 0.30362,-0.27415 0.42603,-0.35675 0.12241,-0.0826 0.318,-0.1878 0.43464,-0.23377 0.21209,-0.0836 0.21209,-0.0836 1.35993,0.1447 1.14783,0.22829 1.14783,0.22829 1.35978,0.12123 0.11658,-0.0589 0.376,-0.20563 0.57649,-0.32612 0.20109,-0.12085 0.44434,-0.22977 0.54252,-0.24294 0.0979,-0.0131 0.24635,-0.011 0.32993,0.004 0.1,0.0188 0.26303,0.12989 0.47685,0.32504 0.26474,0.24162 0.37738,0.31173 0.60825,0.37857 0.15584,0.0451 0.42341,0.1386 0.59462,0.20773 0.1712,0.0691 0.48657,0.24144 0.70081,0.3829 0.21424,0.14147 0.49653,0.3651 0.62729,0.49696 0.13077,0.13185 0.34687,0.40452 0.48022,0.60591 0.13335,0.20139 0.39096,0.64085 0.57247,0.97656 0.1815,0.33571 0.44188,0.7935 0.57861,1.01731 0.13674,0.22381 0.34842,0.53378 0.4704,0.688808 0.12199,0.15503 0.37523,0.42326 0.56275,0.59605 0.18753,0.17279 0.48613,0.41318 0.66357,0.53419 0.17744,0.12102 0.41709,0.27456 0.53255,0.34121 0.11547,0.0667 0.386,0.19217 0.60121,0.27893 0.2152,0.0868 0.53783,0.19014 0.71695,0.22974 0.17912,0.0396 0.55966,0.10941 0.84564,0.15515 0.28598,0.0457 0.68081,0.11597 0.8774,0.15608 0.19659,0.0401 0.48144,0.10427 0.63299,0.14256 0.15156,0.0383 0.46884,0.13122 0.70509,0.20652 0.23624,0.0753 0.66351,0.22921 0.94948,0.34204 0.28598,0.11283 0.76412,0.32137 1.06253,0.46343 0.29841,0.14206 0.92914,0.48212 1.40163,0.7557 0.47249,0.27357 1.06252,0.61088 1.3112,0.74959 0.24868,0.1387 0.75733,0.40502 1.13035,0.59181 0.37301,0.1868 0.89184,0.43418 1.15295,0.54972 0.26111,0.11554 0.80029,0.33879 1.19817,0.49611 0.39788,0.15732 0.90654,0.34759 1.13035,0.42282 0.2238,0.0752 0.63749,0.21982 0.91931,0.32131 0.2818,0.10149 0.67088,0.225 0.8646,0.27445 0.19373,0.0495 0.6244,0.13927 0.95707,0.19957 0.33266,0.0603 0.76761,0.1324 0.96655,0.16023 0.19894,0.0278 0.46344,0.0689 0.58778,0.0913 0.12434,0.0224 0.49057,0.0547 0.81385,0.0719 0.36066,0.0191 0.74672,0.0115 0.99911,-0.0197 0.22624,-0.028 0.56195,-0.09 0.74603,-0.13802 0.18409,-0.0479 0.45678,-0.12958 0.60598,-0.18139 0.14921,-0.0518 0.51544,-0.21402 0.81385,-0.36047 0.29841,-0.14646 0.73091,-0.39303 0.96111,-0.54794 0.23019,-0.15491 0.65746,-0.48211 0.94949,-0.7271 0.33304,-0.27941 0.59525,-0.4635 0.70345,-0.49389 0.12495,-0.0351 0.21529,-0.0343 0.3278,0.003 0.1553,0.0513 0.1553,0.0513 0.1553,0.37727 0,0.32602 0,0.32602 -0.301,0.70222 -0.16556,0.20692 -0.47584,0.52166 -0.68952,0.69944 -0.21367,0.17777 -0.55127,0.43784 -0.75021,0.57793 -0.19895,0.14009 -0.6561,0.41948 -1.0159,0.62086 -0.3598,0.20139 -0.93967,0.49004 -1.28859,0.64144 -0.34893,0.15141 -0.6751,0.29347 -0.72484,0.31569 -0.0497,0.0222 -0.23285,0.0935 -0.40693,0.15839 -0.17407,0.0649 -0.53013,0.19011 -0.79124,0.27826 -0.26111,0.0882 -0.7189,0.2294 -1.01731,0.31388 -0.29841,0.0845 -0.73586,0.19491 -0.9721,0.24539 -0.23624,0.0505 -0.74489,0.14312 -1.13035,0.20584 -0.55458,0.0902 -0.87063,0.11464 -1.51466,0.11697 -0.46407,0.002 -0.89157,-0.0185 -0.9947,-0.047 -0.0995,-0.0275 -0.42501,-0.0737 -0.72343,-0.10282 -0.31418,-0.0307 -0.84707,-0.0425 -1.26598,-0.0282 -0.53418,0.0183 -0.87708,0.0567 -1.31078,0.14697 -0.32305,0.0672 -1.00767,0.26225 -1.52139,0.43343 -0.51371,0.17117 -1.00559,0.31122 -1.09306,0.31122 -0.13154,0 -0.18381,0.0313 -0.30242,0.18104 -0.14338,0.18104 -0.14338,0.18104 -0.0377,0.39562 0.0997,0.20238 0.10496,0.25664 0.0929,0.95408 -0.0109,0.6307 6.4e-4,0.78895 0.0795,1.07557 0.0507,0.18484 0.15012,0.46245 0.22092,0.61692 0.0708,0.15447 0.2947,0.53094 0.49757,0.8366 0.20287,0.30567 0.42133,0.65614 0.48548,0.77882 0.0642,0.12268 0.12632,0.29986 0.13815,0.39373 0.0118,0.0939 -0.006,0.24938 -0.0405,0.34557 -0.0552,0.15568 -0.0526,0.20285 0.0239,0.42953 0.0549,0.16259 0.0773,0.31936 0.062,0.43369 -0.0184,0.137 -0.0725,0.2255 -0.23047,0.37692 -0.11357,0.10884 -0.20649,0.20312 -0.20649,0.2095 0,0.006 0.0407,0.12989 0.0904,0.27445 0.0497,0.14456 0.09,0.33595 0.0894,0.42531 -5.7e-4,0.0912 -0.0397,0.21203 -0.0894,0.2755 -0.0688,0.088 -0.0886,0.18524 -0.0894,0.43832 -6.4e-4,0.27297 -0.0174,0.34339 -0.10274,0.43788 -0.0559,0.0619 -0.19908,0.14446 -0.31807,0.18338 -0.119,0.0389 -0.32477,0.0708 -0.45728,0.0708 -0.1992,0 -0.2613,0.0204 -0.35854,0.1176 -0.0647,0.0647 -0.12986,0.15624 -0.14485,0.20347 -0.015,0.0472 -0.0557,0.0858 -0.0904,0.0858 -0.0348,0 -0.0857,-0.0421 -0.11322,-0.0935 z m 0.29786,-0.35239 c 0.0756,-0.0595 0.18773,-0.0967 0.29149,-0.0967 0.0927,0 0.27712,-0.0206 0.40978,-0.0457 0.13598,-0.0258 0.28848,-0.0899 0.34961,-0.14695 0.096,-0.0896 0.10577,-0.12965 0.0853,-0.34988 -0.019,-0.20488 -0.003,-0.28992 0.0919,-0.4829 0.115,-0.23423 0.115,-0.23423 0.0157,-0.60231 -0.0928,-0.34385 -0.0945,-0.37547 -0.0258,-0.48032 0.0405,-0.0617 0.10246,-0.12334 0.13781,-0.13691 0.0353,-0.0136 0.10538,-0.0912 0.15562,-0.17245 0.0503,-0.0813 0.0909,-0.19627 0.0904,-0.2555 -5.5e-4,-0.0592 -0.0427,-0.19925 -0.0937,-0.31115 -0.0902,-0.19784 -0.0906,-0.21063 -0.0149,-0.46197 0.0734,-0.24357 0.0734,-0.2701 10e-4,-0.45958 -0.0422,-0.11059 -0.26211,-0.48258 -0.4886,-0.82663 -0.2265,-0.34406 -0.49096,-0.79341 -0.5877,-0.99858 -0.0968,-0.20517 -0.20666,-0.5307 -0.24426,-0.72343 -0.0516,-0.26443 -0.0609,-0.49517 -0.038,-0.94062 0.0291,-0.56675 0.0256,-0.60196 -0.0877,-0.88522 -0.0649,-0.16224 -0.1178,-0.33408 -0.11753,-0.38186 2.7e-4,-0.0478 0.0803,-0.17037 0.17793,-0.2724 0.15089,-0.15775 0.21325,-0.18975 0.41664,-0.21384 0.13156,-0.0156 0.56523,-0.13936 0.96372,-0.27505 0.39849,-0.13569 0.87712,-0.28787 1.06363,-0.33817 0.1865,-0.0503 0.5808,-0.13299 0.87622,-0.18374 0.39558,-0.068 0.73763,-0.0923 1.29807,-0.0923 0.53375,0 0.96061,0.0285 1.42968,0.0956 0.56596,0.0809 0.80076,0.0917 1.52779,0.0705 0.62407,-0.0182 1.03223,-0.0559 1.49207,-0.13781 0.34814,-0.062 0.77541,-0.14486 0.94948,-0.18411 0.17408,-0.0392 0.41824,-0.10016 0.54257,-0.13534 0.12434,-0.0352 0.37867,-0.10786 0.56518,-0.16151 0.1865,-0.0536 0.55273,-0.16886 0.81385,-0.256 0.26111,-0.0872 0.72907,-0.25971 1.03991,-0.38346 0.31085,-0.12376 0.78898,-0.33011 1.06253,-0.45856 0.27354,-0.12844 0.73133,-0.36312 1.01731,-0.52149 0.28598,-0.15838 0.70195,-0.41031 0.92437,-0.55985 0.22243,-0.14953 0.56949,-0.40975 0.77125,-0.57826 0.20174,-0.16851 0.46458,-0.41512 0.58406,-0.54801 0.11948,-0.1329 0.27715,-0.3287 0.35037,-0.43513 0.10572,-0.15365 0.13028,-0.23295 0.11926,-0.38508 -0.0135,-0.18661 -0.0184,-0.19195 -0.18688,-0.20582 -0.10557,-0.009 -0.21703,0.0146 -0.28594,0.0597 -0.0621,0.0407 -0.34505,0.2649 -0.62876,0.49822 -0.28372,0.23332 -0.65353,0.51377 -0.82181,0.62323 -0.16828,0.10945 -0.44839,0.27922 -0.62246,0.37727 -0.17407,0.0981 -0.40805,0.22112 -0.51996,0.27349 -0.1119,0.0524 -0.29502,0.1344 -0.40692,0.18227 -0.11191,0.0479 -0.34692,0.13057 -0.52225,0.18374 -0.17533,0.0532 -0.53139,0.13797 -0.79124,0.18842 -0.30586,0.0594 -0.65581,0.0918 -0.99242,0.0918 -0.31458,7e-5 -0.83249,-0.0446 -1.3112,-0.1131 -0.43518,-0.0623 -0.98453,-0.14322 -1.22077,-0.17991 -0.23625,-0.0367 -0.58213,-0.10008 -0.76864,-0.14088 -0.18651,-0.0408 -0.48152,-0.11395 -0.6556,-0.16258 -0.17407,-0.0486 -0.41823,-0.12626 -0.54257,-0.17252 -0.12433,-0.0463 -0.47022,-0.16878 -0.76863,-0.27225 -0.29841,-0.10348 -0.6443,-0.2268 -0.76864,-0.27404 -0.12433,-0.0472 -0.46316,-0.17693 -0.75295,-0.28818 -0.28978,-0.11125 -0.80861,-0.3264 -1.15295,-0.47811 -0.34434,-0.1517 -0.96179,-0.44954 -1.3721,-0.66187 -0.41032,-0.21232 -1.31572,-0.71294 -2.01202,-1.11248 -0.69629,-0.39955 -1.50703,-0.8349 -1.80165,-0.96747 -0.29461,-0.13256 -0.80327,-0.3412 -1.13034,-0.46365 -0.32708,-0.12244 -0.8185,-0.28285 -1.09204,-0.35646 -0.27355,-0.0736 -0.63977,-0.16529 -0.81385,-0.20372 -0.17407,-0.0384 -0.40806,-0.0829 -0.51996,-0.0987 -0.1119,-0.0159 -0.42727,-0.0694 -0.70081,-0.11911 -0.27355,-0.0497 -0.64995,-0.13148 -0.83646,-0.18183 -0.18651,-0.0504 -0.54257,-0.18913 -0.79124,-0.3084 -0.24868,-0.11927 -0.61491,-0.33371 -0.81385,-0.47654 -0.19894,-0.14283 -0.49075,-0.37295 -0.64845,-0.51141 -0.1577,-0.13844 -0.41828,-0.41544 -0.57906,-0.61556 -0.16078,-0.200118 -0.43545,-0.608008 -0.61039,-0.906418 -0.17492,-0.29841 -0.44039,-0.76638 -0.58991,-1.03992 -0.14952,-0.27354 -0.36637,-0.63928 -0.4819,-0.81275 -0.11553,-0.17348 -0.31178,-0.42027 -0.43612,-0.54844 -0.12433,-0.12817 -0.34814,-0.31501 -0.49735,-0.41521 -0.1492,-0.1002 -0.41371,-0.25258 -0.58778,-0.33863 -0.17407,-0.0861 -0.49961,-0.21391 -0.72342,-0.28413 -0.35481,-0.11134 -0.44169,-0.16042 -0.67841,-0.38333 -0.14932,-0.1406 -0.34001,-0.29108 -0.42377,-0.33439 -0.14493,-0.0749 -0.16239,-0.0749 -0.36151,0.001 -0.11507,0.0439 -0.4012,0.19814 -0.63584,0.34266 -0.23464,0.14452 -0.494,0.2754 -0.57636,0.29085 -0.0975,0.0183 -0.51089,-0.0447 -1.18429,-0.18038 -0.56901,-0.11466 -1.08858,-0.20847 -1.15458,-0.20847 -0.066,0 -0.21725,0.0493 -0.33609,0.10949 -0.11884,0.0602 -0.32764,0.20038 -0.46401,0.31145 -0.13636,0.11108 -0.32976,0.31105 -0.42977,0.44438 -0.10001,0.13333 -0.22553,0.3238 -0.27891,0.42327 -0.0534,0.0995 -0.13041,0.30004 -0.17113,0.44571 -0.074,0.26486 -0.074,0.26486 0.11508,0.45757 0.17691,0.18027 0.19189,0.21574 0.23188,0.549 0.0235,0.19595 0.0526,0.384 0.0647,0.41789 0.0176,0.0493 0.0354,0.0504 0.0892,0.006 0.037,-0.0307 0.0673,-0.0854 0.0673,-0.12144 0,-0.0375 0.033,-0.0592 0.077,-0.0508 0.0486,0.009 0.0947,0.0876 0.12518,0.2127 0.038,0.15599 0.0588,0.18466 0.0983,0.13543 0.0276,-0.0343 0.0653,-0.11331 0.0838,-0.17547 0.0185,-0.0622 0.053,-0.13726 0.0767,-0.16687 0.0236,-0.0296 0.0699,-0.0435 0.10267,-0.0309 0.0333,0.0127 0.0732,0.13126 0.0903,0.26788 0.0168,0.13474 0.048,0.25574 0.0693,0.26889 0.0213,0.0131 0.0786,-0.0832 0.12743,-0.21406 0.0634,-0.17012 0.11277,-0.23795 0.17293,-0.23795 0.0608,0 0.0874,0.0376 0.0958,0.13564 0.006,0.0746 0.034,0.21653 0.0614,0.31539 0.0498,0.17975 0.0498,0.17975 0.13344,0.0226 0.046,-0.0864 0.0845,-0.19275 0.0856,-0.23627 0.001,-0.0479 0.037,-0.0791 0.091,-0.0791 0.0622,0 0.1004,0.0435 0.12642,0.14387 0.0205,0.0791 0.0578,0.15072 0.0829,0.15909 0.0251,0.008 0.0798,-0.0564 0.12153,-0.14387 0.0417,-0.0875 0.10613,-0.15909 0.14312,-0.15909 0.0376,0 0.0837,0.0634 0.10454,0.14387 0.0205,0.0791 0.06,0.15146 0.0879,0.16074 0.0279,0.009 0.0642,-0.0261 0.0809,-0.0786 0.0172,-0.0543 0.061,-0.0895 0.10152,-0.0816 0.0392,0.008 0.0945,0.0953 0.12298,0.19474 0.051,0.17836 0.0527,0.17945 0.11665,0.0791 0.0357,-0.0559 0.096,-0.10173 0.13404,-0.10173 0.038,0 0.15012,0.10133 0.2491,0.22519 0.099,0.12385 0.22574,0.31018 0.2817,0.41404 0.0582,0.10798 0.10172,0.26807 0.10172,0.37389 -1e-5,0.14486 -0.0491,0.261668 -0.22607,0.537868 -0.12433,0.19406 -0.22607,0.37977 -0.22607,0.41269 0,0.0329 -0.0312,0.0858 -0.0694,0.11744 -0.0563,0.0467 -0.0904,0.0463 -0.18085,-0.002 -0.0613,-0.0328 -0.11149,-0.0766 -0.11149,-0.0973 0,-0.0207 -0.0191,-0.0376 -0.0425,-0.0376 -0.0234,0 -0.0488,0.0761 -0.0565,0.16917 -0.01,0.12112 -0.0374,0.17362 -0.0965,0.18482 -0.0454,0.009 -0.11965,-0.018 -0.16507,-0.0591 -0.0575,-0.052 -0.0921,-0.0593 -0.11392,-0.024 -0.0172,0.0279 -0.0184,0.10238 -0.003,0.16552 0.0159,0.0633 0.006,0.14255 -0.0225,0.17661 -0.0432,0.052 -0.0681,0.0508 -0.15727,-0.008 -0.10428,-0.0683 -0.1062,-0.0667 -0.1202,0.10304 -0.0102,0.12421 -0.0373,0.17683 -0.0967,0.1881 -0.0454,0.009 -0.12291,-0.0209 -0.17231,-0.0656 -0.0771,-0.0698 -0.0957,-0.072 -0.13159,-0.0152 -0.023,0.0363 -0.0421,0.13216 -0.0424,0.21298 -5.3e-4,0.11336 -0.0201,0.14694 -0.0856,0.14694 -0.0467,0 -0.11022,-0.0305 -0.14117,-0.0678 -0.031,-0.0373 -0.0716,-0.0678 -0.0903,-0.0678 -0.0187,0 -0.0462,0.061 -0.0611,0.13564 -0.0188,0.0937 -0.0537,0.13564 -0.11315,0.13564 -0.0473,0 -0.11117,-0.0303 -0.1419,-0.0673 -0.0307,-0.037 -0.0739,-0.0561 -0.096,-0.0426 -0.022,0.0136 -0.0401,0.12531 -0.0401,0.24818 0,0.20815 -0.008,0.2234 -0.11303,0.2234 -0.0622,0 -0.11303,0.0224 -0.11303,0.0497 0,0.0274 0.18239,0.23027 0.40533,0.45089 0.22294,0.2206 0.45321,0.41312 0.51172,0.42781 0.0702,0.0176 0.27453,-0.0422 0.60067,-0.17599 0.27186,-0.11147 0.64689,-0.26723 0.8334,-0.34612 0.1865,-0.0789 0.451,-0.17998 0.58777,-0.22465 0.13678,-0.0447 0.45214,-0.0923 0.70082,-0.10594 0.24868,-0.0136 0.60473,-0.0662 0.79124,-0.117 0.18651,-0.0508 0.40286,-0.0927 0.48079,-0.0933 0.10858,-6.4e-4 0.17975,0.0411 0.30461,0.17928 0.0896,0.0992 0.29415,0.44221 0.45453,0.76226 0.16038,0.32005 0.36619,0.7728 0.45735,1.0061 0.0912,0.23331 0.20304,0.56996 0.24861,0.74813 0.0456,0.17817 0.10208,0.4632 0.1256,0.63341 0.0235,0.17021 0.0322,0.41867 0.0193,0.55213 -0.0234,0.24266 -0.0234,0.24266 -0.22698,0.21477 -0.11193,-0.0154 -0.35027,-0.0279 -0.52963,-0.0279 -0.32613,0 -0.32613,0 -0.52989,-0.25998 -0.11207,-0.14299 -0.26722,-0.37273 -0.34477,-0.51054 -0.0776,-0.13781 -0.19742,-0.3029 -0.26635,-0.36686 -0.0689,-0.064 -0.19366,-0.13912 -0.27716,-0.16702 -0.0835,-0.0279 -0.31207,-0.0641 -0.50792,-0.0804 -0.35609,-0.0297 -0.35609,-0.0297 -0.56379,0.16176 -0.12175,0.11222 -0.17041,0.17961 -0.11758,0.16285 0.0495,-0.0157 0.10207,-0.009 0.11668,0.0144 0.0146,0.0236 0.0159,0.0702 0.003,0.10357 -0.0131,0.0333 -0.0936,0.10594 -0.17889,0.16136 -0.0853,0.0554 -0.17816,0.14375 -0.20628,0.19629 -0.0481,0.0899 -0.0394,0.0887 0.14881,-0.0216 0.14527,-0.0851 0.26376,-0.11717 0.43334,-0.11717 0.1795,0 0.2334,0.016 0.2334,0.0693 0,0.0381 -0.044,0.0855 -0.0977,0.10541 -0.0831,0.0307 -0.0865,0.0404 -0.0232,0.0647 0.041,0.0157 0.17142,0.0412 0.28984,0.0566 0.20353,0.0264 0.22385,0.0191 0.37114,-0.13401 0.0857,-0.0891 0.18056,-0.16197 0.2108,-0.16197 0.0302,0 0.11782,0.1645 0.1946,0.36557 0.0768,0.20107 0.13959,0.3848 0.13959,0.40829 0,0.0235 0.0529,0.16926 0.11754,0.32393 0.0647,0.15467 0.14919,0.31683 0.18786,0.36035 0.0387,0.0435 0.1152,0.0791 0.17005,0.0791 0.0549,0 0.17885,0.0528 0.27558,0.11737 0.0967,0.0645 0.25724,0.19604 0.35672,0.2922 0.0995,0.0962 0.35345,0.29258 0.56441,0.4365 0.25126,0.17142 0.39841,0.30425 0.42664,0.38512 0.0237,0.0679 0.0296,0.13693 0.0131,0.15339 -0.0164,0.0165 -0.2288,-0.0139 -0.47186,-0.0676 -0.24305,-0.0537 -0.56327,-0.12997 -0.71158,-0.16965 -0.23809,-0.0637 -0.30317,-0.10834 -0.55596,-0.38137 -0.15746,-0.17007 -0.38427,-0.38115 -0.50403,-0.46906 -0.2119,-0.15555 -0.23112,-0.1604 -0.71745,-0.18119 -0.38966,-0.0166 -0.5111,-0.008 -0.55145,0.041 -0.0412,0.0495 -0.0305,0.0654 0.0522,0.0771 0.0572,0.008 0.1107,0.0505 0.11901,0.0941 0.008,0.0436 -0.0118,0.0867 -0.0447,0.0958 -0.0329,0.009 -0.17701,0.0385 -0.32019,0.0654 -0.14319,0.0268 -0.30305,0.0787 -0.35526,0.11527 -0.0883,0.0618 -0.0814,0.0647 0.0983,0.0406 0.16694,-0.0224 0.18931,-0.0157 0.16452,0.0488 -0.0201,0.0524 -0.004,0.0748 0.0521,0.0748 0.0444,0 0.18622,0.0313 0.31507,0.0696 0.14232,0.0422 0.23428,0.0953 0.23428,0.13503 0,0.036 -0.0687,0.0942 -0.15273,0.12928 -0.084,0.0351 -0.16658,0.0862 -0.18352,0.11364 -0.0195,0.0315 0.0131,0.0498 0.0883,0.0498 0.0655,0 0.26003,0.0823 0.43225,0.18288 0.17222,0.10059 0.39438,0.21154 0.49368,0.24658 0.16372,0.0577 0.19849,0.0556 0.37297,-0.0236 0.10582,-0.048 0.27013,-0.0878 0.36512,-0.0883 0.11928,-6.4e-4 0.234,0.0412 0.37083,0.13532 0.10898,0.075 0.29575,0.17772 0.41508,0.22831 0.11931,0.0506 0.27712,0.11641 0.35067,0.14627 0.0736,0.0298 0.37547,0.17162 0.67092,0.31502 0.29544,0.1434 0.60341,0.31126 0.68438,0.37302 0.081,0.0618 0.1758,0.1122 0.21075,0.11211 0.035,-1e-4 0.13469,-0.0435 0.22163,-0.0965 0.0976,-0.0595 0.26538,-0.10497 0.43848,-0.11887 0.25592,-0.0205 0.29317,-0.0118 0.42647,0.1004 0.0803,0.0676 0.20269,0.21218 0.27189,0.3213 0.0692,0.10912 0.24548,0.28648 0.39172,0.39414 0.14625,0.10767 0.42385,0.27379 0.61688,0.36917 0.19303,0.0954 0.59808,0.25716 0.90011,0.35952 l 0.54913,0.1861 -0.004,0.74583 c -0.002,0.41021 -0.0291,0.9166 -0.0599,1.12532 -0.0308,0.20871 -0.0568,0.50519 -0.0577,0.65882 -0.001,0.23466 0.0261,0.33541 0.17166,0.62978 0.13279,0.26855 0.23696,0.4053 0.44587,0.58532 0.14993,0.12919 0.37433,0.3146 0.49866,0.41201 0.12434,0.0974 0.31273,0.27 0.41865,0.38354 0.10592,0.11354 0.21263,0.27764 0.23712,0.36468 0.0245,0.087 0.0447,0.23085 0.0448,0.3196 1.4e-4,0.0887 0.0328,0.27082 0.0725,0.40463 0.0581,0.19545 0.0629,0.28995 0.0246,0.4805 -0.0262,0.13046 -0.0995,0.33948 -0.16282,0.4645 -0.1062,0.20959 -0.13491,0.23304 -0.36811,0.30084 -0.13911,0.0405 -0.34224,0.11303 -0.4514,0.16132 -0.10915,0.0483 -0.21968,0.12744 -0.24562,0.1759 -0.0259,0.0485 -0.10513,0.11809 -0.17598,0.15473 -0.0708,0.0366 -0.14215,0.10135 -0.15843,0.14379 -0.0163,0.0426 -0.004,0.0925 0.0257,0.1114 0.043,0.0265 0.0436,0.0725 0.003,0.20477 -0.0288,0.0938 -0.045,0.17789 -0.0361,0.18682 0.009,0.009 0.0948,-0.0186 0.19068,-0.0611 0.1261,-0.0559 0.28553,-0.0759 0.57528,-0.072 0.27213,0.004 0.44179,-0.0158 0.52839,-0.0606 0.0702,-0.0363 0.15938,-0.0538 0.19825,-0.0389 0.0476,0.0182 0.0717,0.0884 0.0739,0.21445 0.002,0.10303 0.0181,0.22508 0.0362,0.27124 0.0276,0.0701 0.0464,0.0542 0.1146,-0.097 0.0622,-0.1378 0.11416,-0.18746 0.21814,-0.20826 0.0751,-0.015 0.1923,-0.0273 0.26045,-0.0273 0.0681,0 0.1775,-0.0422 0.24302,-0.0937 0.10078,-0.0793 0.11938,-0.12978 0.12074,-0.32781 6.4e-4,-0.12874 0.0289,-0.28345 0.0624,-0.34379 0.0424,-0.0766 0.0488,-0.15152 0.021,-0.24838 -0.0219,-0.0763 -0.0397,-0.20707 -0.0397,-0.29069 0,-0.0949 0.0412,-0.20092 0.10943,-0.28208 0.10309,-0.12251 0.1087,-0.15831 0.0967,-0.61781 -0.0105,-0.40051 -0.0311,-0.524 -0.11529,-0.69032 -0.0564,-0.11141 -0.21437,-0.36195 -0.35111,-0.55676 -0.13674,-0.1948 -0.28885,-0.4593 -0.33803,-0.58777 -0.0678,-0.17721 -0.097,-0.40275 -0.12076,-0.93441 -0.0236,-0.52626 -0.0505,-0.73685 -0.10827,-0.84551 -0.0423,-0.0796 -0.0769,-0.18199 -0.0769,-0.22757 0,-0.0456 0.27977,-0.46931 0.6217,-0.94165 0.34193,-0.47234 0.72192,-1.00575 0.84443,-1.18537 0.13488,-0.19774 0.25422,-0.32658 0.30253,-0.32658 0.0438,0 0.0925,0.0206 0.10803,0.0457 0.0156,0.0252 0.0565,0.32683 0.0909,0.67041 0.0345,0.34358 0.0963,0.80623 0.13733,1.02811 0.041,0.22188 0.1258,0.55601 0.18833,0.74252 0.0625,0.18651 0.14306,0.42204 0.17897,0.52342 0.0359,0.10137 0.11392,0.23677 0.17337,0.30088 0.0595,0.0641 0.23623,0.21427 0.39284,0.33368 0.15661,0.1194 0.44752,0.35267 0.64647,0.51837 0.19894,0.16569 0.48559,0.43109 0.63702,0.58975 0.19575,0.20513 0.29586,0.35381 0.34647,0.51455 0.0391,0.12434 0.0814,0.38138 0.0938,0.57121 0.0125,0.18983 0.0549,0.40754 0.0944,0.48381 0.0394,0.0763 0.0712,0.22614 0.0706,0.33307 -5.8e-4,0.10691 -0.0411,0.34488 -0.09,0.52879 -0.0489,0.18392 -0.14094,0.42313 -0.2045,0.5316 -0.0636,0.10846 -0.16041,0.2263 -0.2152,0.26186 -0.0548,0.0356 -0.24205,0.10581 -0.41613,0.15609 -0.17407,0.0503 -0.41421,0.12553 -0.53365,0.16722 -0.13109,0.0458 -0.25998,0.1316 -0.32522,0.21659 -0.0594,0.0774 -0.18912,0.19046 -0.28818,0.25115 -0.099,0.0607 -0.20261,0.15976 -0.23014,0.22018 -0.0443,0.0972 -0.0408,0.10593 0.0306,0.076 0.0444,-0.0186 0.12641,-0.0438 0.18236,-0.0559 0.0745,-0.0161 0.10173,-0.001 0.10173,0.0554 0,0.0426 -0.0402,0.13386 -0.0893,0.20283 -0.0491,0.069 -0.10965,0.17894 -0.13453,0.24435 -0.0248,0.0654 -0.0373,0.11894 -0.0275,0.11894 0.01,0 0.11607,-0.0433 0.23626,-0.0963 0.12018,-0.0529 0.29823,-0.11189 0.39565,-0.13096 0.11811,-0.0231 0.23678,-0.0136 0.35609,0.0285 0.0984,0.0348 0.31608,0.0631 0.48367,0.0631 0.23625,0 0.33054,-0.0203 0.41967,-0.0904 0.0633,-0.0497 0.1328,-0.0904 0.1546,-0.0904 0.0218,0 0.075,0.0599 0.11818,0.13295 0.0561,0.0949 0.0715,0.18864 0.0539,0.3278 -0.0182,0.14374 -0.0135,0.16981 0.0179,0.0994 0.0234,-0.0525 0.0978,-0.13899 0.16542,-0.19216 z m -15.37504,-12.21399 c 0.0154,-0.0248 0.0178,-0.0452 0.005,-0.0452 -0.0124,0 -0.0352,0.0204 -0.0506,0.0452 -0.0154,0.0249 -0.0178,0.0452 -0.005,0.0452 0.0124,0 0.0352,-0.0204 0.0506,-0.0452 z m 0.098,-0.97963 c -0.0166,-0.0166 -0.0437,-0.0166 -0.0603,0 -0.0166,0.0166 -0.003,0.0301 0.0301,0.0301 0.0332,0 0.0467,-0.0136 0.0302,-0.0301 z m 0.0603,-1.75581 c 0,-0.0124 -0.0102,-0.0226 -0.0226,-0.0226 -0.0124,0 -0.0226,0.0102 -0.0226,0.0226 0,0.0124 0.0102,0.0226 0.0226,0.0226 0.0124,0 0.0226,-0.0102 0.0226,-0.0226 z"
       id="path167" /></g></svg>
